<svg width="24" height="24" viewBox="0 0 24 24" fill="none" xmlns="http://www.w3.org/2000/svg">
<path fill-rule="evenodd" clip-rule="evenodd" d="M2 12C2 17.5228 6.47715 22 12 22C17.5228 22 22 17.5228 22 12C22 6.47715 17.5228 2 12 2C6.47715 2 2 6.47715 2 12ZM10 9C10 8.44772 9.55228 8 9 8H8C7.44772 8 7 8.44772 7 9V15C7 15.5523 7.44772 16 8 16H9C9.55228 16 10 15.5523 10 15V9ZM15.4188 15.8705L11.1392 12.8137C10.5809 12.4149 10.5809 11.5851 11.1392 11.1863L15.4188 8.12946C16.0806 7.65669 17 8.12982 17 8.94319V15.0568C17 15.8702 16.0806 16.3433 15.4188 15.8705Z" fill="black"/>
</svg>
