<svg width="16" height="16" viewBox="0 0 16 16" fill="none" xmlns="http://www.w3.org/2000/svg">
<path fill-rule="evenodd" clip-rule="evenodd" d="M1 8C1 11.866 4.13401 15 8 15C11.866 15 15 11.866 15 8C15 4.13401 11.866 1 8 1C4.13401 1 1 4.13401 1 8ZM6 6C6 5.44772 5.55228 5 5 5C4.44772 5 4 5.44772 4 6V10C4 10.5523 4.44772 11 5 11C5.55228 11 6 10.5523 6 10V6ZM10.4453 10.9635L7.24808 8.83205C6.65434 8.43623 6.65434 7.56377 7.24808 7.16795L10.4453 5.03647C11.1099 4.59343 12 5.06982 12 5.86852V10.1315C12 10.9302 11.1099 11.4066 10.4453 10.9635Z" fill="black"/>
</svg>
