<svg width="32" height="32" viewBox="0 0 32 32" fill="none" xmlns="http://www.w3.org/2000/svg">
<path fill-rule="evenodd" clip-rule="evenodd" d="M14.2481 16.8324C13.6543 16.4366 13.6543 15.5641 14.2481 15.1683L20.4453 11.0368C21.1099 10.5938 22 11.0702 22 11.8689V20.1318C22 20.9305 21.1099 21.4069 20.4453 20.9639L14.2481 16.8324ZM21 20.1318L14.8028 16.0004L21 11.8689V20.1318Z" fill="black"/>
<path fill-rule="evenodd" clip-rule="evenodd" d="M12 11C12.5523 11 13 11.4477 13 12V20C13 20.5523 12.5523 21 12 21H11C10.4477 21 10 20.5523 10 20V12C10 11.4477 10.4477 11 11 11H12ZM11 12H12V20H11V12Z" fill="black"/>
<path fill-rule="evenodd" clip-rule="evenodd" d="M4 16C4 22.6274 9.37258 28 16 28C22.6274 28 28 22.6274 28 16C28 9.37258 22.6274 4 16 4C9.37258 4 4 9.37258 4 16ZM5 16C5 22.0751 9.92487 27 16 27C22.0751 27 27 22.0751 27 16C27 9.92487 22.0751 5 16 5C9.92487 5 5 9.92487 5 16Z" fill="black"/>
</svg>
