<svg width="24" height="24" viewBox="0 0 24 24" fill="none" xmlns="http://www.w3.org/2000/svg">
<g opacity="0.9">
<path d="M4.5 4C3.11929 4 2 5.11929 2 6.5V17.5C2 18.2468 2.32804 18.9175 2.84622 19.3749C3.05326 19.5576 3.36923 19.5379 3.55196 19.3309C3.73469 19.1238 3.71499 18.8079 3.50795 18.6251C3.19572 18.3495 3 17.9479 3 17.5V6.5C3 5.67157 3.67157 5 4.5 5H19.5C20.3284 5 21 5.67157 21 6.5V17.5C21 18.3284 20.3284 19 19.5 19H14C13.7239 19 13.5 19.2239 13.5 19.5C13.5 19.7761 13.7239 20 14 20H19.5C20.8807 20 22 18.8807 22 17.5V6.5C22 5.11929 20.8807 4 19.5 4H4.5Z" fill="black"/>
<path d="M8.89999 16.533C8.69999 16.2663 8.29999 16.2663 8.09999 16.533L4.59999 21.1997C4.35278 21.5293 4.58797 21.9997 4.99999 21.9997H12C12.412 21.9997 12.6472 21.5293 12.4 21.1997L8.89999 16.533Z" fill="black"/>
</g>
</svg>
