<svg width="32" height="32" viewBox="0 0 32 32" fill="none" xmlns="http://www.w3.org/2000/svg">
<g opacity="0.9">
<path d="M4 9C4 7.89543 4.89543 7 6 7H26C27.1046 7 28 7.89543 28 9V23C28 24.1046 27.1046 25 26 25H15.9144L12.6795 20.8828C12.0789 20.1185 10.9211 20.1185 10.3205 20.8828L7.08561 25H6C4.89543 25 4 24.1046 4 23V9Z" fill="black"/>
<path d="M11.8932 21.5004C11.693 21.2456 11.307 21.2456 11.1068 21.5004L6.63557 27.1911C6.37781 27.5192 6.61152 28 7.02873 28H15.9713C16.3885 28 16.6222 27.5192 16.3644 27.1911L11.8932 21.5004Z" fill="black"/>
</g>
</svg>
