<svg width="24" height="24" viewBox="0 0 24 24" fill="none" xmlns="http://www.w3.org/2000/svg">
<g opacity="0.9">
<path d="M13 20C13 19.4477 12.5523 19 12 19C11.4477 19 11 19.4477 11 20C11 20.5523 11.4477 21 12 21C12.5523 21 13 20.5523 13 20Z" fill="black"/>
<path fill-rule="evenodd" clip-rule="evenodd" d="M3 20.5C3 21.8807 4.11929 23 5.5 23H18.5C19.8807 23 21 21.8807 21 20.5V3.5C21 2.11929 19.8807 1 18.5 1H5.5C4.11929 1 3 2.11929 3 3.5V20.5ZM5.5 22C4.67157 22 4 21.3284 4 20.5L4 3.5C4 2.67157 4.67157 2 5.5 2L18.5 2C19.3284 2 20 2.67157 20 3.5V20.5C20 21.3284 19.3284 22 18.5 22H5.5Z" fill="black"/>
</g>
</svg>
