<svg width="32" height="32" viewBox="0 0 32 32" fill="none" xmlns="http://www.w3.org/2000/svg">
<g opacity="0.9">
<path fill-rule="evenodd" clip-rule="evenodd" d="M7 7.5C7 7.22386 7.22386 7 7.5 7H19.5C19.7761 7 20 7.22386 20 7.5V14.5C20 14.7761 19.7761 15 19.5 15H7.5C7.22386 15 7 14.7761 7 14.5V7.5ZM8 8V14H19V8H8Z" fill="black"/>
<path d="M7.5 17C7.22386 17 7 17.2239 7 17.5C7 17.7761 7.22386 18 7.5 18H19.5C19.7761 18 20 17.7761 20 17.5C20 17.2239 19.7761 17 19.5 17H7.5Z" fill="black"/>
<path d="M7.5 20C7.22386 20 7 20.2239 7 20.5C7 20.7761 7.22386 21 7.5 21H19.5C19.7761 21 20 20.7761 20 20.5C20 20.2239 19.7761 20 19.5 20H7.5Z" fill="black"/>
<path d="M7.5 23C7.22386 23 7 23.2239 7 23.5C7 23.7761 7.22386 24 7.5 24H14.5C14.7761 24 15 23.7761 15 23.5C15 23.2239 14.7761 23 14.5 23H7.5Z" fill="black"/>
<path fill-rule="evenodd" clip-rule="evenodd" d="M4 4.5C4 4.22386 4.22386 4 4.5 4H22.5C22.7761 4 23 4.22386 23 4.5V12.8462H27.5C27.7761 12.8462 28 13.07 28 13.3462V24.8462C28 26.5479 26.7803 28 25 28H7.15385C5.41202 28 4 26.588 4 24.8462V4.5ZM22.7778 27H7.15385C5.96431 27 5 26.0357 5 24.8462V5H22V24.8462C22 25.6672 22.284 26.4302 22.7778 27ZM25 27C26.1511 27 27 26.0758 27 24.8462V13.8462H23V24.8462C23 26.0758 23.8489 27 25 27Z" fill="black"/>
</g>
</svg>
