<svg width="24" height="24" viewBox="0 0 24 24" fill="none" xmlns="http://www.w3.org/2000/svg">
<g opacity="0.9">
<path fill-rule="evenodd" clip-rule="evenodd" d="M5 5.5C5 5.22386 5.22386 5 5.5 5H13.5C13.7761 5 14 5.22386 14 5.5V10.5C14 10.7761 13.7761 11 13.5 11H5.5C5.22386 11 5 10.7761 5 10.5V5.5ZM6 6V10H13V6H6Z" fill="black"/>
<path d="M5.5 13C5.22386 13 5 13.2239 5 13.5C5 13.7761 5.22386 14 5.5 14H13.5C13.7761 14 14 13.7761 14 13.5C14 13.2239 13.7761 13 13.5 13H5.5Z" fill="black"/>
<path d="M5.5 15C5.22386 15 5 15.2239 5 15.5C5 15.7761 5.22386 16 5.5 16H13.5C13.7761 16 14 15.7761 14 15.5C14 15.2239 13.7761 15 13.5 15H5.5Z" fill="black"/>
<path d="M5.5 17C5.22386 17 5 17.2239 5 17.5C5 17.7761 5.22386 18 5.5 18H10.5C10.7761 18 11 17.7761 11 17.5C11 17.2239 10.7761 17 10.5 17H5.5Z" fill="black"/>
<path fill-rule="evenodd" clip-rule="evenodd" d="M2 2.5C2 2.22386 2.22386 2 2.5 2H16.5C16.7761 2 17 2.22386 17 2.5V9.30769H21.5C21.7761 9.30769 22 9.53155 22 9.80769V19.0219C22 19.7334 21.7628 20.4753 21.2584 21.0461C20.7451 21.6269 19.9811 22 19 22H4.97492C4.13533 22 3.37919 21.7586 2.83071 21.2299C2.27911 20.6982 2 19.9363 2 19.0219V2.5ZM16.687 21H4.97492C4.32181 21 3.8405 20.8143 3.52469 20.5099C3.21201 20.2085 3 19.7315 3 19.0219V3H16V19.0219C16 19.7254 16.218 20.4409 16.687 21ZM19 21C19.7088 21 20.1949 20.7394 20.5091 20.3839C20.8322 20.0183 21 19.5212 21 19.0219V10.3077H17V19.0219C17 19.5469 17.1695 20.0416 17.4889 20.3986C17.8001 20.7465 18.2853 21 19 21Z" fill="black"/>
</g>
</svg>
