<svg width="32" height="32" viewBox="0 0 32 32" fill="none" xmlns="http://www.w3.org/2000/svg">
<g opacity="0.9">
<path fill-rule="evenodd" clip-rule="evenodd" d="M4 4.5C4 4.22386 4.22386 4 4.5 4H22.5C22.7761 4 23 4.22386 23 4.5V25.6858C23 26.5648 23.2974 27.3919 23.8198 28H7.15385C5.41202 28 4 26.588 4 24.8462V4.5ZM7.5 7C7.22386 7 7 7.22386 7 7.5V14.5C7 14.7761 7.22386 15 7.5 15H19.5C19.7761 15 20 14.7761 20 14.5V7.5C20 7.22386 19.7761 7 19.5 7H7.5ZM7.5 17C7.22386 17 7 17.2239 7 17.5C7 17.7761 7.22386 18 7.5 18H19.5C19.7761 18 20 17.7761 20 17.5C20 17.2239 19.7761 17 19.5 17H7.5ZM7.5 20C7.22386 20 7 20.2239 7 20.5C7 20.7761 7.22386 21 7.5 21H19.5C19.7761 21 20 20.7761 20 20.5C20 20.2239 19.7761 20 19.5 20H7.5ZM7.5 23C7.22386 23 7 23.2239 7 23.5C7 23.7761 7.22386 24 7.5 24H14.5C14.7761 24 15 23.7761 15 23.5C15 23.2239 14.7761 23 14.5 23H7.5Z" fill="black"/>
<path d="M24 25.6858V13H28V25.6858C28 27.033 27.1252 28 26 28C24.8748 28 24 27.033 24 25.6858Z" fill="black"/>
</g>
</svg>
