<svg width="16" height="16" viewBox="0 0 16 16" fill="none" xmlns="http://www.w3.org/2000/svg">
<path fill-rule="evenodd" clip-rule="evenodd" d="M8 15C11.866 15 15 11.866 15 8C15 4.13401 11.866 1 8 1C4.13401 1 1 4.13401 1 8C1 11.866 4.13401 15 8 15ZM16 8C16 12.4183 12.4183 16 8 16C3.58172 16 0 12.4183 0 8C0 3.58172 3.58172 0 8 0C12.4183 0 16 3.58172 16 8Z" fill="black"/>
<path d="M7.47363 11.5781H8.83398V13H7.47363V11.5781ZM5.16992 6.10254C5.16992 5.11816 5.44792 4.32747 6.00391 3.73047C6.5599 3.12891 7.32324 2.82812 8.29395 2.82812C9.19173 2.82812 9.90951 3.08561 10.4473 3.60059C10.9896 4.111 11.2607 4.76497 11.2607 5.5625C11.2607 6.04557 11.1605 6.4375 10.96 6.73828C10.764 7.03906 10.3652 7.48112 9.76367 8.06445C9.32617 8.48828 9.04134 8.84831 8.90918 9.14453C8.78158 9.4362 8.71777 9.86914 8.71777 10.4434H7.50098C7.50098 9.79167 7.57845 9.26758 7.7334 8.87109C7.88835 8.47005 8.22786 8.01204 8.75195 7.49707L9.29883 6.95703C9.46289 6.80208 9.59505 6.6403 9.69531 6.47168C9.8776 6.17546 9.96875 5.86784 9.96875 5.54883C9.96875 5.10221 9.83431 4.71484 9.56543 4.38672C9.30111 4.05859 8.86133 3.89453 8.24609 3.89453C7.48503 3.89453 6.95866 4.17708 6.66699 4.74219C6.50293 5.05664 6.40951 5.51009 6.38672 6.10254H5.16992Z" fill="black"/>
</svg>
