<svg width="24" height="24" viewBox="0 0 24 24" fill="none" xmlns="http://www.w3.org/2000/svg">
<g opacity="0.9">
<path fill-rule="evenodd" clip-rule="evenodd" d="M4 6.5C4 4.567 5.567 3 7.5 3H15.5C17.433 3 19 4.567 19 6.5V10.5C19 12.433 17.433 14 15.5 14H8.75309C8.67003 14 8.58829 14.0207 8.51524 14.0602L6.21356 15.305C5.21413 15.8455 4 15.1218 4 13.9856V6.5ZM7.5 4C6.11929 4 5 5.11929 5 6.5V13.9856C5 14.3643 5.40471 14.6055 5.73785 14.4254L8.03953 13.1806C8.25869 13.0621 8.50393 13 8.75309 13H15.5C16.8807 13 18 11.8807 18 10.5V6.5C18 5.11929 16.8807 4 15.5 4H7.5Z" fill="black"/>
<path d="M20.1274 6.93022C20.3116 6.72446 20.6277 6.70695 20.8335 6.89111C21.5487 7.53127 22 8.46315 22 9.49978V16.9854C22 18.1216 20.7859 18.8453 19.7864 18.3048L17.4848 17.06C17.4117 17.0205 17.33 16.9998 17.2469 16.9998H10.5C9.55316 16.9998 8.69327 16.6232 8.06367 16.0126C7.86543 15.8204 7.86056 15.5038 8.0528 15.3056C8.24503 15.1074 8.56158 15.1025 8.75982 15.2947C9.21038 15.7316 9.82336 15.9998 10.5 15.9998H17.2469C17.4961 15.9998 17.7413 16.0619 17.9605 16.1804L20.2621 17.4252C20.5953 17.6053 21 17.3641 21 16.9854V9.49978C21 8.75941 20.6788 8.09473 20.1665 7.63624C19.9608 7.45208 19.9433 7.13598 20.1274 6.93022Z" fill="black"/>
<path d="M2 4.5C2 4.22386 1.77614 4 1.5 4C1.22386 4 1 4.22386 1 4.5V22H21.5C21.7761 22 22 21.7761 22 21.5C22 21.2239 21.7761 21 21.5 21H2V4.5Z" fill="black"/>
</g>
</svg>
