<svg width="24" height="24" viewBox="0 0 24 24" fill="none" xmlns="http://www.w3.org/2000/svg">
<g opacity="0.9">
<path d="M8 18.5C8 18.2239 8.22386 18 8.5 18H9.5C9.77614 18 10 18.2239 10 18.5V19.5C10 19.7761 9.77614 20 9.5 20H8.5C8.22386 20 8 19.7761 8 19.5V18.5Z" fill="black"/>
<path d="M8.5 4C8.22386 4 8 4.22386 8 4.5V5.5C8 5.77614 8.22386 6 8.5 6H9.5C9.77614 6 10 5.77614 10 5.5V4.5C10 4.22386 9.77614 4 9.5 4H8.5Z" fill="black"/>
<path d="M8 7.5C8 7.22386 8.22386 7 8.5 7H9.5C9.77614 7 10 7.22386 10 7.5V8.5C10 8.77614 9.77614 9 9.5 9H8.5C8.22386 9 8 8.77614 8 8.5V7.5Z" fill="black"/>
<path d="M11.5 18C11.2239 18 11 18.2239 11 18.5V19.5C11 19.7761 11.2239 20 11.5 20H12.5C12.7761 20 13 19.7761 13 19.5V18.5C13 18.2239 12.7761 18 12.5 18H11.5Z" fill="black"/>
<path d="M11 4.5C11 4.22386 11.2239 4 11.5 4H12.5C12.7761 4 13 4.22386 13 4.5V5.5C13 5.77614 12.7761 6 12.5 6H11.5C11.2239 6 11 5.77614 11 5.5V4.5Z" fill="black"/>
<path d="M11.5 7C11.2239 7 11 7.22386 11 7.5V8.5C11 8.77614 11.2239 9 11.5 9H12.5C12.7761 9 13 8.77614 13 8.5V7.5C13 7.22386 12.7761 7 12.5 7H11.5Z" fill="black"/>
<path d="M14 18.5C14 18.2239 14.2239 18 14.5 18H15.5C15.7761 18 16 18.2239 16 18.5V19.5C16 19.7761 15.7761 20 15.5 20H14.5C14.2239 20 14 19.7761 14 19.5V18.5Z" fill="black"/>
<path d="M14.5 4C14.2239 4 14 4.22386 14 4.5V5.5C14 5.77614 14.2239 6 14.5 6H15.5C15.7761 6 16 5.77614 16 5.5V4.5C16 4.22386 15.7761 4 15.5 4H14.5Z" fill="black"/>
<path fill-rule="evenodd" clip-rule="evenodd" d="M16 1H8C6.89543 1 6 1.89543 6 3V21C6 22.1046 6.89543 23 8 23H16C17.1046 23 18 22.1046 18 21V3C18 1.89543 17.1046 1 16 1ZM16 2H15C15 2.55228 14.5523 3 14 3H10C9.44772 3 9 2.55228 9 2H8C7.44771 2 7 2.44772 7 3V21C7 21.5523 7.44772 22 8 22H10.5C10.2239 22 10 21.7761 10 21.5C10 21.2239 10.2239 21 10.5 21H13.5C13.7761 21 14 21.2239 14 21.5C14 21.7761 13.7761 22 13.5 22H16C16.5523 22 17 21.5523 17 21V3C17 2.44772 16.5523 2 16 2Z" fill="black"/>
</g>
</svg>
