<svg width="32" height="32" viewBox="0 0 32 32" fill="none" xmlns="http://www.w3.org/2000/svg">
<g opacity="0.9">
<path d="M13.5 26C13.2239 26 13 26.2239 13 26.5C13 26.7761 13.2239 27 13.5 27H18.5C18.7761 27 19 26.7761 19 26.5C19 26.2239 18.7761 26 18.5 26H13.5Z" fill="black"/>
<path d="M15 23.5C15 23.2239 15.2239 23 15.5 23H16.5C16.7761 23 17 23.2239 17 23.5V24.5C17 24.7761 16.7761 25 16.5 25H15.5C15.2239 25 15 24.7761 15 24.5V23.5Z" fill="black"/>
<path d="M15.5 7C15.2239 7 15 7.22386 15 7.5V8.5C15 8.77614 15.2239 9 15.5 9H16.5C16.7761 9 17 8.77614 17 8.5V7.5C17 7.22386 16.7761 7 16.5 7H15.5Z" fill="black"/>
<path d="M15 10.5C15 10.2239 15.2239 10 15.5 10H16.5C16.7761 10 17 10.2239 17 10.5V11.5C17 11.7761 16.7761 12 16.5 12H15.5C15.2239 12 15 11.7761 15 11.5V10.5Z" fill="black"/>
<path d="M18.5 23C18.2239 23 18 23.2239 18 23.5V24.5C18 24.7761 18.2239 25 18.5 25H19.5C19.7761 25 20 24.7761 20 24.5V23.5C20 23.2239 19.7761 23 19.5 23H18.5Z" fill="black"/>
<path d="M18 7.5C18 7.22386 18.2239 7 18.5 7H19.5C19.7761 7 20 7.22386 20 7.5V8.5C20 8.77614 19.7761 9 19.5 9H18.5C18.2239 9 18 8.77614 18 8.5V7.5Z" fill="black"/>
<path d="M12.5 23C12.2239 23 12 23.2239 12 23.5V24.5C12 24.7761 12.2239 25 12.5 25H13.5C13.7761 25 14 24.7761 14 24.5V23.5C14 23.2239 13.7761 23 13.5 23H12.5Z" fill="black"/>
<path d="M12 7.5C12 7.22386 12.2239 7 12.5 7H13.5C13.7761 7 14 7.22386 14 7.5V8.5C14 8.77614 13.7761 9 13.5 9H12.5C12.2239 9 12 8.77614 12 8.5V7.5Z" fill="black"/>
<path d="M12.5 10C12.2239 10 12 10.2239 12 10.5V11.5C12 11.7761 12.2239 12 12.5 12H13.5C13.7761 12 14 11.7761 14 11.5V10.5C14 10.2239 13.7761 10 13.5 10H12.5Z" fill="black"/>
<path fill-rule="evenodd" clip-rule="evenodd" d="M21 3H11C9.89543 3 9 3.89543 9 5V27C9 28.1046 9.89543 29 11 29H21C22.1046 29 23 28.1046 23 27V5C23 3.89543 22.1046 3 21 3ZM21 4H19C19 4.55228 18.5523 5 18 5H14C13.4477 5 13 4.55228 13 4H11C10.4477 4 10 4.44772 10 5V27C10 27.5523 10.4477 28 11 28H21C21.5523 28 22 27.5523 22 27V5C22 4.44772 21.5523 4 21 4Z" fill="black"/>
</g>
</svg>
