<svg width="25" height="24" viewBox="0 0 25 24" fill="none" xmlns="http://www.w3.org/2000/svg">
<g opacity="0.9">
<path d="M15.0352 9C15.0352 10.1957 14.5105 11.2689 13.6789 12.0018C16.65 12.0781 19.0352 14.5105 19.0352 17.5V20.5C19.0352 20.7761 18.8113 21 18.5352 21H3.53516C3.25901 21 3.03516 20.7761 3.03516 20.5V17.5C3.03516 14.5105 5.42029 12.0781 8.39142 12.0018C7.55979 11.2689 7.03516 10.1957 7.03516 9C7.03516 6.79086 8.82602 5 11.0352 5C13.2443 5 15.0352 6.79086 15.0352 9Z" fill="black"/>
<path d="M20.0352 17.5C20.0352 14.5869 18.119 12.1215 15.478 11.2954C15.8338 10.6081 16.0352 9.82735 16.0352 9C16.0352 7.5096 15.3831 6.1715 14.3486 5.25546C14.7946 5.09025 15.277 5 15.7805 5C18.0572 5 19.9029 6.84566 19.9029 9.1224C19.9029 10.2284 19.4673 11.2326 18.7584 11.973C21.2374 12.6675 23.0553 14.9436 23.0553 17.6443V19.4804C23.0553 19.7674 22.8226 20 22.5357 20H20.0352V17.5Z" fill="black"/>
</g>
</svg>
