<svg width="32" height="32" viewBox="0 0 32 32" fill="none" xmlns="http://www.w3.org/2000/svg">
<g opacity="0.9">
<path d="M19.6532 6.69354C19.8521 6.88508 20.1686 6.87911 20.3602 6.6802C20.5517 6.48129 20.5457 6.16476 20.3468 5.97322L15.5 1.30591L10.6532 5.97322C10.4543 6.16476 10.4483 6.48129 10.6398 6.6802C10.8314 6.87911 11.1479 6.88508 11.3468 6.69354L15 3.17566V18.5C15 18.7762 15.2239 19 15.5 19C15.7761 19 16 18.7762 16 18.5V3.17566L19.6532 6.69354Z" fill="black"/>
<path d="M7.5 25.0001C5.567 25.0001 4 23.4331 4 21.5001V11.5001C4 9.56706 5.567 8.00006 7.5 8.00006H8.5C8.77614 8.00006 9 8.22392 9 8.50006C9 8.7762 8.77614 9.00006 8.5 9.00006H7.5C6.11929 9.00006 5 10.1193 5 11.5001V21.5001C5 22.8808 6.11929 24.0001 7.5 24.0001H23.5C24.8807 24.0001 26 22.8808 26 21.5001V11.5001C26 10.1193 24.8807 9.00006 23.5 9.00006H22.5C22.2239 9.00006 22 8.7762 22 8.50006C22 8.22392 22.2239 8.00006 22.5 8.00006H23.5C25.433 8.00006 27 9.56706 27 11.5001V21.5001C27 23.4331 25.433 25.0001 23.5 25.0001H7.5Z" fill="black"/>
</g>
</svg>
