<svg width="16" height="16" viewBox="0 0 16 16" fill="none" xmlns="http://www.w3.org/2000/svg">
<g clip-path="url(#clip0)">
<path opacity="0.9" fill-rule="evenodd" clip-rule="evenodd" d="M9.14645 2.85351C9.34171 3.04877 9.65829 3.04877 9.85355 2.85351C10.0488 2.65824 10.0488 2.34166 9.85355 2.1464L7.5 -0.207153L5.14645 2.1464C4.95118 2.34166 4.95118 2.65824 5.14645 2.85351C5.34171 3.04877 5.65829 3.04877 5.85355 2.85351L7 1.70706V8.49995C7 8.7761 7.22386 8.99995 7.5 8.99995C7.77614 8.99995 8 8.7761 8 8.49995V1.70706L9.14645 2.85351ZM9.5 4.50003C10.0118 4.50003 10.5237 4.30477 10.9142 3.91424C11.1765 3.65197 11.3507 3.33499 11.4368 3.00003H11.5C12.8807 3.00003 14 4.11932 14 5.50003V10.5C14 11.8807 12.8807 13 11.5 13H3.5C2.11929 13 1 11.8807 1 10.5V5.50003C1 4.11932 2.11929 3.00003 3.5 3.00003H3.56318C3.64932 3.33499 3.82352 3.65197 4.08579 3.91424C4.47631 4.30477 4.98816 4.50003 5.5 4.50003L5.5 8.50003C5.5 9.6046 6.39543 10.5 7.5 10.5C8.60457 10.5 9.5 9.6046 9.5 8.50003V4.50003Z" fill="black"/>
</g>
<defs>
<clipPath id="clip0">
<rect width="16" height="16" fill="white"/>
</clipPath>
</defs>
</svg>
