<svg width="32" height="32" viewBox="0 0 32 32" fill="none" xmlns="http://www.w3.org/2000/svg">
<g opacity="0.9">
<path d="M12.1464 12.1469C12.3417 11.9517 12.6582 11.9517 12.8535 12.1469L15.9997 15.2932L19.1464 12.1464C19.3417 11.9512 19.6583 11.9512 19.8535 12.1464C20.0488 12.3417 20.0488 12.6583 19.8535 12.8536L16.7068 16.0003L19.8535 19.1471C20.0487 19.3423 20.0487 19.6589 19.8535 19.8542C19.6582 20.0494 19.3416 20.0494 19.1464 19.8542L15.9997 16.7074L12.8535 19.8536C12.6583 20.0488 12.3417 20.0488 12.1464 19.8536C11.9512 19.6583 11.9512 19.3417 12.1464 19.1464L15.2926 16.0003L12.1464 12.854C11.9511 12.6588 11.9511 12.3422 12.1464 12.1469Z" fill="black"/>
<path fill-rule="evenodd" clip-rule="evenodd" d="M18.2322 4.8172C18.7639 5.28988 19.1327 5.95431 19.2349 6.78538C20.1626 6.87028 21.2493 7.21585 22.1572 8.03287C23.2371 9.00471 24 10.5858 24 13V20.2573C24 20.4737 24.0793 20.7087 24.2431 20.9861C24.4089 21.267 24.6343 21.5484 24.8901 21.8674L24.8913 21.8689C25.1365 22.1748 25.4107 22.5167 25.62 22.8775C25.8318 23.2426 26 23.664 26 24.1366V24.5C26 24.7761 25.7761 25 25.5 25H19.4646C19.2219 26.6961 17.7632 28 16 28C14.2368 28 12.7781 26.6961 12.5354 25H6.5C6.22386 25 6 24.7761 6 24.5V24.1366C6 23.6641 6.16822 23.2426 6.38001 22.8775C6.58931 22.5167 6.86346 22.1748 7.10866 21.869L7.1099 21.8674C7.36569 21.5484 7.59111 21.267 7.75693 20.9861C7.92073 20.7087 8 20.4737 8 20.2573V13C8 10.5858 8.76289 9.00471 9.8428 8.03287C10.7507 7.21585 11.8374 6.87028 12.765 6.78538C12.8672 5.9543 13.236 5.28987 13.7678 4.8172C14.3888 4.26525 15.2025 4 16 4C16.7974 4 17.6112 4.26525 18.2322 4.8172ZM13.7364 7.26362C13.7364 6.47809 14.026 5.92568 14.4322 5.56461C14.8476 5.19535 15.4156 5 16 5C16.5844 5 17.1524 5.19536 17.5678 5.56461C17.974 5.92569 18.2636 6.4781 18.2636 7.26362C18.2636 7.53976 18.4875 7.76362 18.7636 7.76362C19.5935 7.76362 20.6477 8.01974 21.4883 8.77619C22.3159 9.52102 23 10.8081 23 13V20.2573C23 20.7221 23.1707 21.1367 23.3819 21.4945C23.5849 21.8383 23.8494 22.1681 24.0879 22.4656L24.1099 22.4929C24.3644 22.8104 24.5897 23.0943 24.755 23.3793C24.8865 23.6059 24.9651 23.8089 24.9907 24H7.00929C7.03492 23.8089 7.11355 23.6059 7.24499 23.3793C7.41034 23.0943 7.63562 22.8104 7.8901 22.4929L7.91208 22.4655C8.15065 22.1681 8.41515 21.8382 8.61807 21.4945C8.82927 21.1367 9 20.7221 9 20.2573V13C9 10.8081 9.68408 9.52102 10.5117 8.77619C11.3523 8.01974 12.4065 7.76362 13.2364 7.76362C13.5125 7.76362 13.7364 7.53976 13.7364 7.26362ZM13.55 25C13.7816 26.1411 14.7905 27 16 27C17.2095 27 18.2184 26.1411 18.45 25H13.55Z" fill="black"/>
</g>
</svg>
