<svg width="24" height="24" viewBox="0 0 24 24" fill="none" xmlns="http://www.w3.org/2000/svg">
<g opacity="0.9">
<path fill-rule="evenodd" clip-rule="evenodd" d="M14.6485 4.21836C14.5527 3.57165 14.2561 3.04861 13.8322 2.67175C13.3203 2.21677 12.652 2 12 2C11.348 2 10.6797 2.21676 10.1678 2.67174C9.74384 3.04861 9.4473 3.57165 9.35151 4.21836C8.55326 4.33788 7.59034 4.75265 6.77683 5.49408C5.77875 6.40373 5 7.80909 5 9.77273V15.1505C5 15.5472 4.81637 15.9258 4.55418 16.4422L4.53916 16.4718C4.30089 16.9407 4 17.5329 4 18.2131V18.5C4 18.7761 4.22386 19 4.5 19H19.5C19.7761 19 20 18.7761 20 18.5V18.2131C20 17.5329 19.6991 16.9407 19.4608 16.4718L19.4458 16.4422C19.1836 15.9258 19 15.5472 19 15.1505V9.77273C19 7.80909 18.2212 6.40373 17.2232 5.49408C16.4096 4.75265 15.4467 4.33788 14.6485 4.21836ZM9.14639 9.14666C9.34166 8.9514 9.65824 8.9514 9.8535 9.14667L11.9998 11.2931L14.1464 9.14645C14.3417 8.95118 14.6583 8.95118 14.8535 9.14645C15.0488 9.34171 15.0488 9.65829 14.8535 9.85355L12.7069 12.0002L14.8535 14.1468C15.0487 14.3421 15.0487 14.6586 14.8535 14.8539C14.6582 15.0492 14.3416 15.0492 14.1464 14.8539L11.9998 12.7073L9.85353 14.8536C9.65827 15.0488 9.34168 15.0488 9.14642 14.8536C8.95116 14.6583 8.95116 14.3417 9.14642 14.1464L11.2927 12.0002L9.14638 9.85376C8.95112 9.6585 8.95113 9.34191 9.14639 9.14666Z" fill="black"/>
<path d="M12 21.5C10.9528 21.5 10.0489 20.8869 9.62761 20H14.3724C13.9511 20.8869 13.0471 21.5 12 21.5Z" fill="black"/>
</g>
</svg>
