<svg width="32" height="32" viewBox="0 0 32 32" fill="none" xmlns="http://www.w3.org/2000/svg">
<g opacity="0.9">
<path fill-rule="evenodd" clip-rule="evenodd" d="M16.7023 6.04275C16.8833 6.12282 17 6.3021 17 6.50001V25.5C17 25.6979 16.8833 25.8772 16.7023 25.9573C16.5213 26.0373 16.3101 26.0031 16.1637 25.87L10.8067 21H6.5C5.67157 21 5 20.3284 5 19.5V12.5C5 11.6716 5.67157 11 6.5 11H10.8067L16.1637 6.13004C16.3101 5.99691 16.5213 5.96269 16.7023 6.04275ZM16 7.63028L11.3363 11.87C11.2443 11.9536 11.1244 12 11 12H6.5C6.22386 12 6 12.2239 6 12.5V19.5C6 19.7761 6.22386 20 6.5 20H11C11.1244 20 11.2443 20.0464 11.3363 20.13L16 24.3697V7.63028Z" fill="black"/>
<path fill-rule="evenodd" clip-rule="evenodd" d="M19.1637 10.13C19.368 9.94428 19.6842 9.95934 19.87 10.1637C21.2999 11.7366 22 13.8797 22 16C22 18.1203 21.2999 20.2634 19.87 21.8363C19.6842 22.0407 19.368 22.0557 19.1637 21.87C18.9593 21.6842 18.9443 21.368 19.13 21.1637C20.3667 19.8033 21 17.913 21 16C21 14.087 20.3667 12.1967 19.13 10.8363C18.9443 10.632 18.9593 10.3158 19.1637 10.13Z" fill="black"/>
<path fill-rule="evenodd" clip-rule="evenodd" d="M22.1464 6.14645C22.3417 5.95119 22.6583 5.95119 22.8536 6.14645C25.2267 8.51964 26.375 12.2908 26.375 16C26.375 19.7092 25.2267 23.4804 22.8536 25.8536C22.6583 26.0488 22.3417 26.0488 22.1464 25.8536C21.9512 25.6583 21.9512 25.3417 22.1464 25.1465C24.2733 23.0196 25.375 19.5408 25.375 16C25.375 12.4592 24.2733 8.98037 22.1464 6.85356C21.9512 6.6583 21.9512 6.34172 22.1464 6.14645Z" fill="black"/>
<path fill-rule="evenodd" clip-rule="evenodd" d="M25.6727 2.62206C25.8814 2.44127 26.1972 2.46393 26.378 2.67267C29.1522 5.87581 30.5 10.9722 30.5 16C30.5 21.0278 29.1522 26.1242 26.378 29.3274C26.1972 29.5361 25.8814 29.5587 25.6727 29.378C25.4639 29.1972 25.4413 28.8814 25.622 28.6727C28.1811 25.7179 29.5 20.8932 29.5 16C29.5 11.1068 28.1811 6.2821 25.622 3.32735C25.4413 3.11861 25.4639 2.80284 25.6727 2.62206Z" fill="black"/>
</g>
</svg>
