<svg width="32" height="32" viewBox="0 0 32 32" fill="none" xmlns="http://www.w3.org/2000/svg">
<path opacity="0.9" fill-rule="evenodd" clip-rule="evenodd" d="M26.7559 2.34533C26.3943 1.92786 25.7628 1.88254 25.3453 2.24411C24.9278 2.60569 24.8825 3.23723 25.2441 3.6547C27.6956 6.48525 29 11.1741 29 16C29 20.826 27.6956 25.5148 25.2441 28.3453C24.8825 28.7628 24.9278 29.3943 25.3453 29.7559C25.7628 30.1175 26.3943 30.0722 26.7559 29.6547C29.6377 26.3274 31 21.0951 31 16C31 10.9049 29.6377 5.67268 26.7559 2.34533ZM21.7929 5.79289C22.1834 5.40237 22.8166 5.40237 23.2071 5.79289C25.7035 8.28927 26.875 12.2066 26.875 16C26.875 19.7934 25.7035 23.7107 23.2071 26.2071C22.8166 26.5976 22.1834 26.5976 21.7929 26.2071C21.4024 25.8166 21.4024 25.1834 21.7929 24.7929C23.7965 22.7893 24.875 19.4566 24.875 16C24.875 12.5434 23.7965 9.21073 21.7929 7.20711C21.4024 6.81658 21.4024 6.18342 21.7929 5.79289ZM16.7023 6.04275C16.8833 6.12282 17 6.3021 17 6.50001V25.5C17 25.6979 16.8833 25.8772 16.7023 25.9573C16.5213 26.0373 16.3101 26.0031 16.1637 25.87L10.8067 21H6.5C5.67157 21 5 20.3284 5 19.5V12.5C5 11.6716 5.67157 11 6.5 11H10.8067L16.1637 6.13004C16.3101 5.99691 16.5213 5.96269 16.7023 6.04275ZM20.2399 9.82733C19.8684 9.41868 19.236 9.38856 18.8273 9.76007C18.4187 10.1316 18.3886 10.764 18.7601 11.1727C19.9001 12.4267 20.5 14.1906 20.5 16C20.5 17.8094 19.9001 19.5733 18.7601 20.8273C18.3886 21.236 18.4187 21.8684 18.8273 22.2399C19.236 22.6115 19.8684 22.5813 20.2399 22.1727C21.7666 20.4934 22.5 18.224 22.5 16C22.5 13.776 21.7666 11.5066 20.2399 9.82733Z" fill="black"/>
</svg>
