<svg width="32" height="32" viewBox="0 0 32 32" fill="none" xmlns="http://www.w3.org/2000/svg">
<g opacity="0.9">
<path d="M16 4C12.6863 4 10 6.68629 10 10V16C10 19.3137 12.6863 22 16 22C19.3137 22 22 19.3137 22 16V10C22 6.68629 19.3137 4 16 4Z" fill="black"/>
<path d="M8 11C8.55228 11 9 11.4477 9 12V16C9 19.866 12.134 23 16 23C19.866 23 23 19.866 23 16V12C23 11.4477 23.4477 11 24 11C24.5523 11 25 11.4477 25 12V16C25 20.6326 21.5 24.4476 17 24.9451V28.5C17 29.0523 16.5523 29.5 16 29.5C15.4477 29.5 15 29.0523 15 28.5V24.9451C10.5001 24.4476 7 20.6326 7 16V12C7 11.4477 7.44772 11 8 11Z" fill="black"/>
</g>
</svg>
