<svg width="24" height="24" viewBox="0 0 24 24" fill="none" xmlns="http://www.w3.org/2000/svg">
<path opacity="0.9" fill-rule="evenodd" clip-rule="evenodd" d="M12 2C6.47715 2 2 6.47715 2 12C2 17.5228 6.47715 22 12 22C17.5228 22 22 17.5228 22 12C22 6.47715 17.5228 2 12 2ZM3 12C3 7.02944 7.02944 3 12 3C14.3054 3 16.4083 3.86678 18.0006 5.29223L5.29223 18.0006C3.86678 16.4083 3 14.3054 3 12ZM5.99934 18.7077C7.59168 20.1332 9.69462 21 12 21C16.9706 21 21 16.9706 21 12C21 9.69462 20.1332 7.59169 18.7077 5.99934L5.99934 18.7077Z" fill="black"/>
</svg>
