<svg width="16" height="16" viewBox="0 0 16 16" fill="none" xmlns="http://www.w3.org/2000/svg">
<path opacity="0.9" fill-rule="evenodd" clip-rule="evenodd" d="M8 1C4.13401 1 1 4.13401 1 8C1 11.866 4.13401 15 8 15C11.866 15 15 11.866 15 8C15 4.13401 11.866 1 8 1ZM2 8C2 4.68629 4.68629 2 8 2C9.47684 2 10.8291 2.53357 11.8744 3.41845L3.41845 11.8744C2.53357 10.8291 2 9.47684 2 8ZM4.12556 12.5815C5.1709 13.4664 6.52314 14 8 14C11.3137 14 14 11.3137 14 8C14 6.52314 13.4664 5.1709 12.5815 4.12556L4.12556 12.5815Z" fill="black"/>
</svg>
