<svg width="24" height="24" viewBox="0 0 24 24" fill="none" xmlns="http://www.w3.org/2000/svg">
<g opacity="0.9">
<path d="M5 1.5C5 1.22386 5.22386 1 5.5 1C5.77614 1 6 1.22386 6 1.5V3.5C6 3.77614 5.77614 4 5.5 4C5.22386 4 5 3.77614 5 3.5V1.5Z" fill="black"/>
<path fill-rule="evenodd" clip-rule="evenodd" d="M16 16C15.4477 16 15 16.4477 15 17V19C15 19.5523 15.4477 20 16 20H18C18.5523 20 19 19.5523 19 19V17C19 16.4477 18.5523 16 18 16H16ZM18 19V17H16V19H18Z" fill="black"/>
<path fill-rule="evenodd" clip-rule="evenodd" d="M2 21C2 22.1046 2.89543 23 4 23H20C21.1046 23 22 22.1046 22 21V5C22 4.25972 21.5978 3.61337 21 3.26756C20.7058 3.09739 20.3643 3 20 3V3.5C20 4.32843 19.3284 5 18.5 5C17.6716 5 17 4.32843 17 3.5V3H7V3.5C7 4.32843 6.32843 5 5.5 5C4.67157 5 4 4.32843 4 3.5V3C3.63571 3 3.29417 3.09739 3 3.26756C2.4022 3.61337 2 4.25972 2 5V21ZM21 21V8H3V21C3 21.5523 3.44772 22 4 22H20C20.5523 22 21 21.5523 21 21ZM3 7H21V5C21 4.78798 20.934 4.59137 20.8215 4.42958C20.4526 5.34997 19.5522 6 18.5 6C17.2905 6 16.2816 5.14112 16.05 4H7.94999C7.71836 5.14112 6.70948 6 5.5 6C4.4478 6 3.54742 5.34997 3.17854 4.42958C3.06598 4.59137 3 4.78798 3 5V7Z" fill="black"/>
<path d="M18.5 1C18.2239 1 18 1.22386 18 1.5V3.5C18 3.77614 18.2239 4 18.5 4C18.7761 4 19 3.77614 19 3.5V1.5C19 1.22386 18.7761 1 18.5 1Z" fill="black"/>
</g>
</svg>
