<svg width="16" height="16" viewBox="0 0 16 16" fill="none" xmlns="http://www.w3.org/2000/svg">
<g opacity="0.9">
<path fill-rule="evenodd" clip-rule="evenodd" d="M5 15.5C5 15.2239 5.22386 15 5.5 15H7.5C7.77614 15 8 15.2239 8 15.5C8 15.7761 7.77614 16 7.5 16H5.5C5.22386 16 5 15.7761 5 15.5Z" fill="black"/>
<path fill-rule="evenodd" clip-rule="evenodd" d="M0 4.5C0 3.11929 1.11929 2 2.5 2H13.5C14.8807 2 16 3.11929 16 4.5V8C16 8.27614 15.7761 8.5 15.5 8.5C15.2239 8.5 15 8.27614 15 8V4.5C15 3.67157 14.3284 3 13.5 3H2.5C1.67157 3 1 3.67157 1 4.5V11.5C1 12.3284 1.67157 13 2.5 13H8C8.27614 13 8.5 13.2239 8.5 13.5C8.5 13.7761 8.27614 14 8 14H2.5C1.11929 14 0 12.8807 0 11.5V4.5Z" fill="black"/>
<path fill-rule="evenodd" clip-rule="evenodd" d="M8 5C8 4.44772 8.44772 4 9 4H13C13.5523 4 14 4.44772 14 5V8C14 8.55228 13.5523 9 13 9H9C8.44772 9 8 8.55228 8 8V5ZM13 5H9V8H13V5Z" fill="black"/>
<path fill-rule="evenodd" clip-rule="evenodd" d="M11.8531 10.0848C12.6857 9.86246 13.613 10.0775 14.2678 10.7322C14.8465 11.311 15.0817 12.1027 14.975 12.8536L15.5487 13.4274C16.1345 14.0132 16.1345 14.9629 15.5487 15.5487C14.9629 16.1345 14.0132 16.1345 13.4274 15.5487L12.8536 14.975C12.1027 15.0817 11.311 14.8465 10.7322 14.2678C10.0775 13.613 9.86246 12.6857 10.0848 11.8531C10.1309 11.6804 10.2657 11.5455 10.4383 11.4992C10.6109 11.4529 10.7951 11.5022 10.9214 11.6285L11.7929 12.5L12.5 11.7929L11.6285 10.9214C11.5022 10.7951 11.4529 10.6109 11.4992 10.4383C11.5455 10.2657 11.6804 10.1309 11.8531 10.0848ZM13.9491 12.8889C14.083 12.3875 13.9531 11.8325 13.5618 11.4404C13.6548 11.5341 13.7071 11.6608 13.7071 11.7929C13.7071 11.9255 13.6544 12.0527 13.5607 12.1464L12.1464 13.5607C12.0527 13.6544 11.9255 13.7071 11.7929 13.7071C11.6608 13.7071 11.5341 13.6548 11.4404 13.5618C11.8325 13.9531 12.3875 14.083 12.8889 13.9491C13.0613 13.903 13.2453 13.9524 13.3715 14.0786L14.1345 14.8416C14.3298 15.0369 14.6463 15.0369 14.8416 14.8416C15.0369 14.6463 15.0369 14.3298 14.8416 14.1345L14.0786 13.3715C13.9524 13.2453 13.903 13.0613 13.9491 12.8889Z" fill="black"/>
</g>
</svg>
