<svg width="16" height="16" viewBox="0 0 16 16" fill="none" xmlns="http://www.w3.org/2000/svg">
<g opacity="0.9">
<path d="M8 10C8.55228 10 9 9.55229 9 9C9 8.44772 8.55228 8 8 8C7.44772 8 7 8.44772 7 9C7 9.55229 7.44772 10 8 10Z" fill="black"/>
<path fill-rule="evenodd" clip-rule="evenodd" d="M12 7C12 6.44772 11.5523 6 11 6V4.5C11 3.67157 10.3284 3 9.5 3H6.5C5.67157 3 5 3.67157 5 4.5V6C4.44772 6 4 6.44772 4 7V11.5C4 11.7761 4.22386 12 4.5 12H11.5C11.7761 12 12 11.7761 12 11.5V7ZM11 7V11H5V7H11ZM6 6H10V4.5C10 4.22386 9.77614 4 9.5 4H6.5C6.22386 4 6 4.22386 6 4.5V6Z" fill="black"/>
<path fill-rule="evenodd" clip-rule="evenodd" d="M2.5 1C1.67157 1 1 1.67157 1 2.5V13.5C1 14.3284 1.67157 15 2.5 15H13.5C14.3284 15 15 14.3284 15 13.5V2.5C15 1.67157 14.3284 1 13.5 1H2.5ZM2 2.5C2 2.22386 2.22386 2 2.5 2H13.5C13.7761 2 14 2.22386 14 2.5V13.5C14 13.7761 13.7761 14 13.5 14H2.5C2.22386 14 2 13.7761 2 13.5V2.5Z" fill="black"/>
</g>
</svg>
