<svg width="24" height="24" viewBox="0 0 24 24" fill="none" xmlns="http://www.w3.org/2000/svg">
<g opacity="0.9">
<path d="M14.5 9.5V8.5C14.5 7.67157 13.8284 7 13 7H11C10.1716 7 9.5 7.67157 9.5 8.5V9.5H14.5Z" fill="black"/>
<path d="M12.5 13.3662C12.7989 13.1933 13 12.8701 13 12.5C13 11.9477 12.5523 11.5 12 11.5C11.4477 11.5 11 11.9477 11 12.5C11 12.8701 11.2011 13.1933 11.5 13.3662V14C11.5 14.2761 11.7239 14.5 12 14.5C12.2761 14.5 12.5 14.2761 12.5 14V13.3662Z" fill="black"/>
<path fill-rule="evenodd" clip-rule="evenodd" d="M2 3.5C2 2.67157 2.67157 2 3.5 2H20.5C21.3284 2 22 2.67157 22 3.5V20.5C22 21.3284 21.3284 22 20.5 22H3.5C2.67157 22 2 21.3284 2 20.5V3.5ZM11 6C9.61929 6 8.5 7.11929 8.5 8.5V9.56301C7.63739 9.78503 7 10.5681 7 11.5V15.5C7 16.0523 7.44772 16.5 8 16.5H16C16.5523 16.5 17 16.0523 17 15.5V11.5C17 10.5681 16.3626 9.78503 15.5 9.56301V8.5C15.5 7.11929 14.3807 6 13 6H11Z" fill="black"/>
</g>
</svg>
