<svg width="32" height="32" viewBox="0 0 32 32" fill="none" xmlns="http://www.w3.org/2000/svg">
<g opacity="0.9">
<path d="M16.5 19.3662C16.7989 19.1933 17 18.8701 17 18.5C17 17.9477 16.5523 17.5 16 17.5C15.4477 17.5 15 17.9477 15 18.5C15 18.8701 15.2011 19.1933 15.5 19.3662V20C15.5 20.2761 15.7239 20.5 16 20.5C16.2761 20.5 16.5 20.2761 16.5 20V19.3662Z" fill="black"/>
<path fill-rule="evenodd" clip-rule="evenodd" d="M14.5 8.5C12.567 8.5 11 10.067 11 12V14.6707C9.83481 15.0825 9 16.1938 9 17.5V21.5C9 22.6046 9.89543 23.5 11 23.5H21C22.1046 23.5 23 22.6046 23 21.5V17.5C23 16.1938 22.1652 15.0825 21 14.6707V12C21 10.067 19.433 8.5 17.5 8.5H14.5ZM20 14.5V12C20 10.6193 18.8807 9.5 17.5 9.5H14.5C13.1193 9.5 12 10.6193 12 12V14.5H20ZM12 15.5H20C21.1046 15.5 22 16.3954 22 17.5V21.5C22 22.0523 21.5523 22.5 21 22.5H11C10.4477 22.5 10 22.0523 10 21.5V17.5C10 16.3954 10.8954 15.5 12 15.5Z" fill="black"/>
<path fill-rule="evenodd" clip-rule="evenodd" d="M5.5 3C4.11929 3 3 4.11929 3 5.5V26.5C3 27.8807 4.11929 29 5.5 29H26.5C27.8807 29 29 27.8807 29 26.5V5.5C29 4.11929 27.8807 3 26.5 3H5.5ZM4 5.5C4 4.67157 4.67157 4 5.5 4H26.5C27.3284 4 28 4.67157 28 5.5V26.5C28 27.3284 27.3284 28 26.5 28H5.5C4.67157 28 4 27.3284 4 26.5V5.5Z" fill="black"/>
</g>
</svg>
