<svg width="16" height="16" viewBox="0 0 16 16" fill="none" xmlns="http://www.w3.org/2000/svg">
<path opacity="0.9" fill-rule="evenodd" clip-rule="evenodd" d="M2.02522 7.26122C1.97501 7.95918 1.97501 8.84694 2.33903 10.6102C2.67166 11.8347 3.27418 12.9306 4.09635 13.9041C4.30346 14.1551 4.54823 14.3816 4.81183 14.5776C5.48966 15.0796 6.23024 15.1224 6.9771 14.7429C7.76162 14.3449 8.53359 14.2837 9.36832 14.6571C10.5231 15.1714 11.3955 14.9816 12.2114 14.0327C13.0085 13.1082 13.611 12.0735 13.9813 10.9102C14.0422 10.7264 13.9221 10.6715 13.7981 10.6148C13.7817 10.6073 13.7652 10.5997 13.7491 10.5918C12.9959 10.2367 12.4813 9.67959 12.2616 8.8898C11.9227 7.6898 12.3307 6.56327 13.3537 5.81633C13.7805 5.50408 13.7867 5.43061 13.4604 5.01429C12.588 3.9 11.0503 3.44694 9.5566 3.86327C9.52928 3.87076 9.50185 3.87814 9.47437 3.88554C9.29988 3.93249 9.12389 3.97984 8.96664 4.05918C8.36413 4.3898 7.78673 4.28571 7.17794 4.04082C5.4269 3.34286 3.63819 3.91837 2.62773 5.48571C2.27627 6.02449 2.06915 6.63061 2.02522 7.26122ZM9.26162 0.765306C8.92784 1.03556 8.68814 1.36123 8.52742 1.7285C8.38593 2.05181 8.30565 2.40735 8.27627 2.78571C8.64182 2.78571 9.01059 2.64651 9.34657 2.41044C9.73651 2.13647 10.0823 1.73202 10.3276 1.2633C10.4274 1.07267 10.5106 0.871417 10.5733 0.663978C10.6208 0.507218 10.6566 0.346929 10.6791 0.185033C10.6876 0.123552 10.6942 0.0618392 10.6989 0H10.5733C10.4363 0.0782817 10.2944 0.1518 10.1524 0.225383C9.94784 0.331386 9.743 0.437524 9.55212 0.558228C9.45063 0.622412 9.35308 0.690715 9.26162 0.765306ZM9.42697 4.94714C8.44337 5.47673 7.51789 5.25522 6.80638 4.96922C5.49859 4.44856 4.21848 4.8638 3.46821 6.02756L3.46529 6.03209C3.20397 6.43268 3.05452 6.87543 3.0228 7.33072L3.02265 7.33298C2.98005 7.92508 2.97081 8.71413 3.31202 10.3771C3.60453 11.4364 4.13002 12.3941 4.86033 13.2588L4.86774 13.2676C5.0175 13.4491 5.20131 13.621 5.40766 13.7744C5.76558 14.0393 6.09815 14.0678 6.52402 13.8514C7.54759 13.3322 8.63691 13.2347 9.77572 13.7439C10.2293 13.9458 10.5122 13.9586 10.7029 13.9168C10.8916 13.8754 11.137 13.7484 11.4531 13.3807L11.454 13.3797C12.0272 12.7149 12.4819 11.995 12.8078 11.21C12.085 10.7389 11.5495 10.0597 11.2987 9.15956C10.8886 7.70485 11.3122 6.30514 12.3802 5.32313C11.755 4.7798 10.8084 4.55248 9.82509 4.82655L9.82119 4.82764C9.79017 4.83614 9.76176 4.8439 9.73565 4.85103C9.55536 4.90029 9.48495 4.91953 9.42697 4.94714Z" fill="black"/>
</svg>
