<svg width="16" height="16" viewBox="0 0 16 16" fill="none" xmlns="http://www.w3.org/2000/svg">
<g opacity="0.9">
<path fill-rule="evenodd" clip-rule="evenodd" d="M11.3536 5.64653C11.5488 5.8418 11.5488 6.15838 11.3536 6.35364L7.00001 10.7072L4.64645 8.35364C4.45119 8.15838 4.45119 7.8418 4.64645 7.64653C4.84172 7.45127 5.1583 7.45127 5.35356 7.64653L7.00001 9.29298L10.6465 5.64653C10.8417 5.45127 11.1583 5.45127 11.3536 5.64653Z" fill="black"/>
<path fill-rule="evenodd" clip-rule="evenodd" d="M7.5862 1.13895C7.84913 1.01944 8.15089 1.01944 8.41381 1.13895L13.4138 3.41168C13.7723 3.57461 14.0019 3.93475 13.9987 4.32817C13.9781 6.92337 13.7048 8.85121 12.8819 10.5898C12.0601 12.326 10.7143 13.8224 8.64962 15.6028C8.27701 15.9241 7.723 15.9241 7.3504 15.6028C5.28571 13.8224 3.93989 12.326 3.11813 10.5898C2.29523 8.85121 2.02195 6.92336 2.00131 4.32817C1.99818 3.93475 2.22779 3.57461 2.58623 3.41168L7.5862 1.13895ZM12.9988 4.32147L8.00001 2.04932L3.00129 4.32147C3.02155 6.85839 3.29031 8.61609 4.022 10.162C4.75452 11.7096 5.97514 13.0961 8.00001 14.8425C10.0249 13.0961 11.2455 11.7096 11.978 10.162C12.7097 8.61609 12.9785 6.85839 12.9988 4.32147ZM3.00129 4.32147C3.00128 4.3215 3.00129 4.32148 3.00129 4.32147V4.32147Z" fill="black"/>
</g>
</svg>
