<svg width="32" height="32" viewBox="0 0 32 32" fill="none" xmlns="http://www.w3.org/2000/svg">
<g opacity="0.9">
<path fill-rule="evenodd" clip-rule="evenodd" d="M6 8.5C6 6.567 7.567 5 9.5 5H21.5C23.433 5 25 6.567 25 8.5V15.5C25 17.433 23.433 19 21.5 19H11.6385L8.27174 21.02C7.27196 21.6199 6 20.8998 6 19.7338V8.5ZM9.5 6C8.11929 6 7 7.11929 7 8.5V19.7338C7 20.1225 7.42399 20.3625 7.75725 20.1626L11.3615 18H21.5C22.8807 18 24 16.8807 24 15.5V8.5C24 7.11929 22.8807 6 21.5 6H9.5Z" fill="black"/>
<path d="M26.7232 9.42451C26.9531 9.27161 27.2635 9.33408 27.4164 9.56404C27.7852 10.1187 28 10.7849 28 11.4998V22.7336C28 23.8995 26.7281 24.6197 25.7283 24.0198L22.3615 21.9998H12.5C12.0918 21.9998 11.6989 21.9297 11.3334 21.8005C11.073 21.7085 10.9366 21.4228 11.0286 21.1624C11.1206 20.9021 11.4063 20.7656 11.6666 20.8576C11.9266 20.9495 12.2069 20.9998 12.5 20.9998H22.6385L26.2428 23.1623C26.576 23.3623 27 23.1222 27 22.7336V11.4998C27 10.9879 26.8467 10.5134 26.5836 10.1177C26.4308 9.88776 26.4932 9.5774 26.7232 9.42451Z" fill="black"/>
<path d="M4 6.5C4 6.22386 3.77614 6 3.5 6C3.22386 6 3 6.22386 3 6.5V28H27.5C27.7761 28 28 27.7761 28 27.5C28 27.2239 27.7761 27 27.5 27H4V6.5Z" fill="black"/>
</g>
</svg>
