<svg width="16" height="16" viewBox="0 0 16 16" fill="none" xmlns="http://www.w3.org/2000/svg">
<g opacity="0.9">
<path d="M1 2.5C1 2.22386 0.776142 2 0.5 2C0.223858 2 0 2.22386 0 2.5V15H14.5C14.7761 15 15 14.7761 15 14.5C15 14.2239 14.7761 14 14.5 14H1V2.5Z" fill="black"/>
<path d="M2 4.5C2 3.11929 3.11929 2 4.5 2H9.5C10.8807 2 12 3.11929 12 4.5V6.5C12 7.88071 10.8807 9 9.5 9H4.91421C4.78161 9 4.65443 9.05268 4.56066 9.14645L3.70711 10C3.07714 10.63 2 10.1838 2 9.29289V4.5Z" fill="black"/>
<path d="M13.2195 4.32081C13.3724 4.23102 13.5614 4.22891 13.7163 4.31528C14.481 4.74176 15 5.55986 15 6.49986V11.2928C15 12.1837 13.9228 12.6298 13.2929 11.9999L12.4393 11.1463C12.3456 11.0525 12.2184 10.9999 12.0858 10.9999L6.50007 11C6.22393 11 6.00004 10.7762 6 10.5001C5.99996 10.2239 6.22379 10 6.49993 10H9.5C11.4178 9.99979 12.9727 8.44507 12.9727 6.52725V4.75195C12.9727 4.57465 13.0667 4.4106 13.2195 4.32081Z" fill="black"/>
</g>
</svg>
