<svg width="32" height="32" viewBox="0 0 32 32" fill="none" xmlns="http://www.w3.org/2000/svg">
<g opacity="0.9">
<path d="M6 8.5C6 6.567 7.567 5 9.5 5H21.5C23.433 5 25 6.567 25 8.5V15.5C25 17.433 23.433 19 21.5 19H11.6385L8.27174 21.02C7.27196 21.6199 6 20.8998 6 19.7338V8.5Z" fill="black"/>
<path d="M26.3087 9.03807C26.4955 8.96068 26.7106 9.00346 26.8536 9.14646C27.1439 9.43677 27.423 9.82621 27.6312 10.2268C27.8345 10.6179 28 11.0768 28 11.4997V22.7335C28 23.8995 26.728 24.6197 25.7283 24.0198L22.3615 21.9997H12.5C12.2387 21.9997 11.9602 21.9208 11.7451 21.8492C11.6153 21.8061 11.4573 21.7466 11.3321 21.6994L11.3305 21.6988C11.2635 21.6736 11.206 21.652 11.1676 21.6384C10.9832 21.5732 10.8538 21.4066 10.8362 21.2119C10.8186 21.0171 10.9162 20.83 11.0859 20.7329L12.2517 20.066C12.3273 20.0228 12.4129 20 12.5 20H21.5C23.9853 20 26 17.9853 26 15.5V9.50001C26 9.29778 26.1218 9.11547 26.3087 9.03807Z" fill="black"/>
<path d="M4 6.5C4 6.22386 3.77614 6 3.5 6C3.22386 6 3 6.22386 3 6.5V28H27.5C27.7761 28 28 27.7761 28 27.5C28 27.2239 27.7761 27 27.5 27H4V6.5Z" fill="black"/>
</g>
</svg>
