<svg width="24" height="24" viewBox="0 0 24 24" fill="none" xmlns="http://www.w3.org/2000/svg">
<g opacity="0.9">
<path d="M4 6.5C4 4.567 5.567 3 7.5 3H15.5C17.433 3 19 4.567 19 6.5V10.5C19 12.433 17.433 14 15.5 14H8.75309C8.67003 14 8.58829 14.0207 8.51524 14.0602L6.21356 15.305C5.21413 15.8455 4 15.1218 4 13.9856V6.5Z" fill="black"/>
<path d="M20.2959 6.80721C20.476 6.72673 20.6865 6.75959 20.8335 6.89111C21.5487 7.53127 22 8.46316 22 9.49979V16.9854C22 18.1216 20.7859 18.8453 19.7864 18.3048L17.4848 17.06C17.4117 17.0205 17.33 16.9998 17.2469 16.9998H10.5C9.55316 16.9998 8.69327 16.6232 8.06367 16.0126C7.91748 15.8709 7.87187 15.6546 7.94835 15.4659C8.02483 15.2772 8.20811 15.1537 8.41174 15.1537H15.5C17.9853 15.1537 20 13.139 20 10.6537V7.26368C20 7.06648 20.1159 6.88769 20.2959 6.80721Z" fill="black"/>
<path d="M2 4.5C2 4.22386 1.77614 4 1.5 4C1.22386 4 1 4.22386 1 4.5V22H21.5C21.7761 22 22 21.7761 22 21.5C22 21.2239 21.7761 21 21.5 21H2V4.5Z" fill="black"/>
</g>
</svg>
