<svg width="24" height="24" viewBox="0 0 24 24" fill="none" xmlns="http://www.w3.org/2000/svg">
<path fill-rule="evenodd" clip-rule="evenodd" d="M12.6317 5.3957C9.92044 5.3957 7.72257 7.59357 7.72257 10.3048C7.72257 13.016 9.92044 15.2139 12.6317 15.2139C12.9329 15.2139 13.1771 15.4581 13.1771 15.7593C13.1771 16.0606 12.9329 16.3048 12.6317 16.3048C9.31795 16.3048 6.63166 13.6185 6.63166 10.3048C6.63166 6.99108 9.31795 4.30479 12.6317 4.30479C15.9454 4.30479 18.6317 6.99108 18.6317 10.3048C18.6317 10.606 18.3875 10.8502 18.0862 10.8502C17.785 10.8502 17.5408 10.606 17.5408 10.3048C17.5408 7.59357 15.3429 5.3957 12.6317 5.3957Z" fill="black"/>
<path fill-rule="evenodd" clip-rule="evenodd" d="M11.4745 9.14771C10.8355 9.78674 10.8355 10.8228 11.4745 11.4619C12.1135 12.1009 13.1496 12.1009 13.7887 11.4619C14.0017 11.2489 14.347 11.2489 14.5601 11.4619C14.7731 11.6749 14.7731 12.0202 14.5601 12.2333C13.495 13.2983 11.7682 13.2983 10.7031 12.2333C9.63805 11.1682 9.63805 9.44138 10.7031 8.37632C11.7682 7.31125 13.495 7.31125 14.5601 8.37632C14.7731 8.58933 14.7731 8.93469 14.5601 9.14771C14.347 9.36072 14.0017 9.36072 13.7887 9.14771C13.1496 8.50867 12.1135 8.50867 11.4745 9.14771Z" fill="black"/>
<path fill-rule="evenodd" clip-rule="evenodd" d="M12.1999 1.54545C12.1999 1.24421 12.4441 1 12.7453 1C15.3178 0.999993 17.7945 1.79576 19.6385 3.31761C21.4928 4.848 22.6853 7.09698 22.6853 9.93076C22.6853 13.2529 21.2506 15.9472 18.6457 17.8652V21.2458C18.6457 21.547 18.4014 21.7912 18.1002 21.7912C17.799 21.7912 17.5547 21.547 17.5547 21.2458V18.5832C15.9263 19.5413 13.9509 20.2465 11.6808 20.6899C11.3851 20.7476 11.0986 20.5548 11.0409 20.2591C10.9831 19.9635 11.176 19.677 11.4716 19.6192C14.0483 19.1159 16.1685 18.2722 17.7873 17.1386C20.2615 15.4059 21.5943 12.9781 21.5943 9.93076C21.5943 7.43173 20.5545 5.48805 18.9441 4.15898C17.3234 2.82139 15.1029 2.0909 12.7453 2.09091C12.4441 2.09091 12.1999 1.8467 12.1999 1.54545Z" fill="black"/>
<path fill-rule="evenodd" clip-rule="evenodd" d="M9.89229 1.30416C10.0363 1.56875 9.93856 1.9 9.67397 2.04401C6.62529 3.70343 5.23193 4.83488 4.2641 6.89647C4.03661 7.38104 3.96229 8.00055 3.98088 8.6295C3.99925 9.25115 4.10673 9.8338 4.20148 10.2108C4.24005 10.3643 4.21008 10.5269 4.11933 10.6565C3.97931 10.8566 3.82548 11.0685 3.66611 11.288C3.35657 11.7145 3.02609 12.1697 2.73511 12.6229C2.51823 12.9606 2.34061 13.2718 2.22515 13.5375C2.10157 13.822 2.0847 13.9761 2.09223 14.0311C2.10969 14.1588 2.20494 14.2776 2.60331 14.4283C2.68796 14.4604 2.77383 14.4895 2.8666 14.5209L2.88303 14.5265C2.97742 14.5585 3.08323 14.5945 3.18159 14.634C3.27827 14.6728 3.39141 14.724 3.49576 14.7941C3.59902 14.8634 3.72903 14.9746 3.81064 15.1471C4.00936 15.5671 4.06243 16.0494 4.07069 16.4954C4.07726 16.8506 4.05481 17.2299 4.03402 17.5813C4.02867 17.6717 4.02343 17.7602 4.01882 17.846C3.99521 18.2857 3.98727 18.6626 4.03328 18.973C4.07912 19.2822 4.16811 19.4501 4.27491 19.5445C4.61223 19.8426 5.09456 19.9469 5.65987 19.9435C5.93629 19.9419 6.21179 19.9148 6.47322 19.8832C6.53607 19.8756 6.60066 19.8674 6.66537 19.8591C6.85206 19.8353 7.03977 19.8114 7.1895 19.8023C7.39838 19.7897 7.5979 19.8409 7.77032 19.9542C7.93489 20.0623 8.04765 20.2088 8.12567 20.3489C8.27563 20.6181 8.34571 20.9524 8.38537 21.2532C8.44005 21.6679 8.45105 22.1751 8.46015 22.5948C8.46406 22.7751 8.46762 22.9393 8.47414 23.073C8.48882 23.3739 8.2568 23.6297 7.95591 23.6444C7.65503 23.6591 7.39921 23.4271 7.38453 23.1262C7.37501 22.9311 7.3709 22.7307 7.36677 22.5297C7.35881 22.1418 7.3508 21.7521 7.30382 21.3958C7.27097 21.1467 7.22556 20.9852 7.18164 20.8969C7.08644 20.9054 6.97596 20.9194 6.84223 20.9365C6.77002 20.9457 6.69104 20.9557 6.60402 20.9662C6.32964 20.9994 6.00546 21.0324 5.66637 21.0344C5.00065 21.0384 4.18863 20.9241 3.55251 20.3619C3.17259 20.0262 3.01822 19.565 2.95417 19.133C2.8903 18.7022 2.90594 18.2259 2.92948 17.7875C2.93485 17.6875 2.94062 17.5895 2.94629 17.4932C2.96664 17.1475 2.98567 16.8242 2.97996 16.5156C2.9734 16.1609 2.93341 15.8854 2.85343 15.6808C2.83526 15.6718 2.80989 15.6603 2.7753 15.6464C2.70903 15.6198 2.63112 15.593 2.53277 15.5596L2.51274 15.5529C2.42352 15.5226 2.3205 15.4877 2.21717 15.4486C1.81247 15.2955 1.12094 14.9798 1.01139 14.179C0.961501 13.8143 1.08336 13.4279 1.22458 13.1029C1.37392 12.7591 1.58716 12.3916 1.81716 12.0334C2.12375 11.556 2.49144 11.0491 2.81156 10.6077C2.90822 10.4745 3.00053 10.3472 3.08552 10.2285C2.99445 9.80853 2.90794 9.25393 2.89045 8.66172C2.86945 7.95119 2.94605 7.13696 3.27659 6.43288C4.3953 4.04992 6.04355 2.77803 9.15244 1.08585C9.41703 0.941829 9.74827 1.03957 9.89229 1.30416Z" fill="black"/>
</svg>
