<svg width="24" height="24" viewBox="0 0 24 24" fill="none" xmlns="http://www.w3.org/2000/svg">
<g opacity="0.9">
<path fill-rule="evenodd" clip-rule="evenodd" d="M10 7C10 8.10457 9.10457 9 8 9C6.89543 9 6 8.10457 6 7C6 5.89543 6.89543 5 8 5C9.10457 5 10 5.89543 10 7ZM9 7C9 7.55228 8.55228 8 8 8C7.44772 8 7 7.55228 7 7C7 6.44772 7.44772 6 8 6C8.55228 6 9 6.44772 9 7Z" fill="black"/>
<path fill-rule="evenodd" clip-rule="evenodd" d="M2 4C2 2.89543 2.89543 2 4 2H20C21.1046 2 22 2.89543 22 4V20C22 21.1046 21.1046 22 20 22H4C2.89543 22 2 21.1046 2 20V4ZM4 3H20C20.5523 3 21 3.44772 21 4V14.4007L16.8003 10.297L12.2699 14.8273L8.65384 11.3016L3 16.8141V4C3 3.44772 3.44772 3 4 3ZM8.65384 12.6983L11.5628 15.5345L6.09729 21H4C3.44772 21 3 20.5523 3 20V18.2108L8.65384 12.6983ZM7.5115 21H20C20.5523 21 21 20.5523 21 20V15.7988L16.8084 11.7031L7.5115 21Z" fill="black"/>
</g>
</svg>
