<svg width="32" height="32" viewBox="0 0 32 32" fill="none" xmlns="http://www.w3.org/2000/svg">
<g opacity="0.9">
<path fill-rule="evenodd" clip-rule="evenodd" d="M14 10.5C14 11.8807 12.8807 13 11.5 13C10.1193 13 9 11.8807 9 10.5C9 9.11929 10.1193 8 11.5 8C12.8807 8 14 9.11929 14 10.5ZM13 10.5C13 11.3284 12.3284 12 11.5 12C10.6716 12 10 11.3284 10 10.5C10 9.67157 10.6716 9 11.5 9C12.3284 9 13 9.67157 13 10.5Z" fill="black"/>
<path fill-rule="evenodd" clip-rule="evenodd" d="M4 6C4 4.89543 4.89543 4 6 4H26C27.1046 4 28 4.89543 28 6V26C28 27.1046 27.1046 28 26 28H6C4.89543 28 4 27.1046 4 26V6ZM6 5H26C26.5523 5 27 5.44772 27 6V18.0381L22.2465 13.2932L15.8734 19.6662L12.5 16.2928L5 23.7929V6C5 5.44772 5.44772 5 6 5ZM12.5 17.7071L15.1663 20.3734L8.53964 27H6C5.44772 27 5 26.5523 5 26V25.2071L12.5 17.7071ZM9.95385 27H26C26.5523 27 27 26.5523 27 26V19.4511L22.2471 14.7068L9.95385 27Z" fill="black"/>
</g>
</svg>
