<svg width="32" height="32" viewBox="0 0 32 32" fill="none" xmlns="http://www.w3.org/2000/svg">
<path opacity="0.9" fill-rule="evenodd" clip-rule="evenodd" d="M19.3277 13.124C20.3472 12.299 20.999 11.0377 20.999 9.62402C20.999 7.13874 18.9843 5.12402 16.499 5.12402C14.4491 5.12402 12.7194 6.49465 12.1762 8.36945C11.5342 7.60785 10.5731 7.12402 9.49902 7.12402C7.56603 7.12402 5.99902 8.69103 5.99902 10.624C5.99902 11.6165 6.41208 12.5124 7.07567 13.1494C5.34231 13.3584 3.99902 14.8343 3.99902 16.624V23.624C3.99902 25.557 5.56603 27.124 7.49902 27.124H19.499C21.2613 27.124 22.7194 25.8216 22.9632 24.1268L28.999 26.34V13.9082L22.9632 16.1213C22.7194 14.4265 21.2613 13.124 19.499 13.124H19.3277ZM12.999 9.62402C12.999 7.69103 14.566 6.12402 16.499 6.12402C18.432 6.12402 19.999 7.69103 19.999 9.62402C19.999 11.557 18.432 13.124 16.499 13.124C14.566 13.124 12.999 11.557 12.999 9.62402ZM13.6704 13.124C13.2918 12.8177 12.9639 12.4511 12.7012 12.0389C12.5203 12.4477 12.2635 12.8154 11.9485 13.124H13.6704ZM9.49902 8.12402C8.11831 8.12402 6.99902 9.24331 6.99902 10.624C6.99902 12.0047 8.11831 13.124 9.49902 13.124C10.8797 13.124 11.999 12.0047 11.999 10.624C11.999 9.24331 10.8797 8.12402 9.49902 8.12402ZM7.49902 14.124H19.499C20.8797 14.124 21.999 15.2433 21.999 16.624V23.624C21.999 25.0047 20.8797 26.124 19.499 26.124H7.49902C6.11831 26.124 4.99902 25.0047 4.99902 23.624V16.624C4.99902 15.2433 6.11831 14.124 7.49902 14.124ZM22.999 17.1733V23.0749L27.999 24.9082V15.34L22.999 17.1733Z" fill="black"/>
</svg>
