<svg width="24" height="25" viewBox="0 0 24 25" fill="none" xmlns="http://www.w3.org/2000/svg">
<g opacity="0.9">
<path d="M21 8.21704V4.42415L14.8536 10.5706C14.6583 10.7659 14.3417 10.7659 14.1464 10.5706C13.9512 10.3753 13.9512 10.0588 14.1464 9.86349L20.2929 3.71704L16.5 3.71704C16.2239 3.71704 16 3.49318 16 3.21704C16 2.9409 16.2239 2.71704 16.5 2.71704H21.5C21.7761 2.71704 22 2.9409 22 3.21704V8.21704C22 8.49318 21.7761 8.71704 21.5 8.71704C21.2239 8.71704 21 8.49318 21 8.21704Z" fill="black"/>
<path d="M3 17.217L3 21.0099L9.14645 14.8635C9.34171 14.6682 9.65829 14.6682 9.85355 14.8635C10.0488 15.0587 10.0488 15.3753 9.85355 15.5706L3.70711 21.717H7.5C7.77614 21.717 8 21.9409 8 22.217C8 22.4932 7.77614 22.717 7.5 22.717H2.5C2.22386 22.717 2 22.4932 2 22.217V17.217C2 16.9409 2.22386 16.717 2.5 16.717C2.77614 16.717 3 16.9409 3 17.217Z" fill="black"/>
</g>
</svg>
