<svg width="16" height="17" viewBox="0 0 16 17" fill="none" xmlns="http://www.w3.org/2000/svg">
<g opacity="0.9">
<path d="M14.5 1.71704C14.6326 1.71704 14.7598 1.76972 14.8536 1.86349C14.9473 1.95726 15 2.08443 15 2.21704V5.21704C15 5.49318 14.7761 5.71704 14.5 5.71704C14.2239 5.71704 14 5.49318 14 5.21704V3.42415L9.85355 7.57059C9.65829 7.76586 9.34171 7.76586 9.14645 7.57059C8.95118 7.37533 8.95118 7.05875 9.14645 6.86349L13.2929 2.71704L11.5 2.71704C11.2239 2.71704 11 2.49318 11 2.21704C11 1.9409 11.2239 1.71704 11.5 1.71704H14.5Z" fill="black"/>
<path d="M1.5 15.717C1.36739 15.717 1.24021 15.6644 1.14645 15.5706C1.05268 15.4768 1 15.3496 1 15.217V12.217C1 11.9409 1.22386 11.717 1.5 11.717C1.77614 11.717 2 11.9409 2 12.217L2 14.0099L6.14645 9.86349C6.34171 9.66823 6.65829 9.66823 6.85355 9.86349C7.04882 10.0588 7.04882 10.3753 6.85355 10.5706L2.70711 14.717H4.5C4.77614 14.717 5 14.9409 5 15.217C5 15.4932 4.77614 15.717 4.5 15.717H1.5Z" fill="black"/>
</g>
</svg>
