<svg width="16" height="16" viewBox="0 0 16 16" fill="none" xmlns="http://www.w3.org/2000/svg">
<g opacity="0.9">
<path d="M1 2C1 1.44772 1.44772 1 2 1H3C3.55228 1 4 1.44772 4 2V3C4 3.55228 3.55228 4 3 4H2C1.44772 4 1 3.55228 1 3V2Z" fill="black"/>
<path d="M1 7C1 6.44772 1.44772 6 2 6H3C3.55228 6 4 6.44772 4 7V8C4 8.55228 3.55228 9 3 9H2C1.44772 9 1 8.55228 1 8V7Z" fill="black"/>
<path d="M1 12C1 11.4477 1.44772 11 2 11H3C3.55228 11 4 11.4477 4 12V13C4 13.5523 3.55228 14 3 14H2C1.44772 14 1 13.5523 1 13V12Z" fill="black"/>
<path d="M6 2C6 1.44772 6.44772 1 7 1H8C8.55228 1 9 1.44772 9 2V3C9 3.55228 8.55228 4 8 4H7C6.44772 4 6 3.55228 6 3V2Z" fill="black"/>
<path d="M6 7C6 6.44772 6.44772 6 7 6H8C8.55228 6 9 6.44772 9 7V8C9 8.55228 8.55228 9 8 9H7C6.44772 9 6 8.55228 6 8V7Z" fill="black"/>
<path d="M6 12C6 11.4477 6.44772 11 7 11H8C8.55228 11 9 11.4477 9 12V13C9 13.5523 8.55228 14 8 14H7C6.44772 14 6 13.5523 6 13V12Z" fill="black"/>
<path d="M11 2C11 1.44772 11.4477 1 12 1H13C13.5523 1 14 1.44772 14 2V3C14 3.55228 13.5523 4 13 4H12C11.4477 4 11 3.55228 11 3V2Z" fill="black"/>
<path d="M11 7C11 6.44772 11.4477 6 12 6H13C13.5523 6 14 6.44772 14 7V8C14 8.55228 13.5523 9 13 9H12C11.4477 9 11 8.55228 11 8V7Z" fill="black"/>
<path d="M11 12C11 11.4477 11.4477 11 12 11H13C13.5523 11 14 11.4477 14 12V13C14 13.5523 13.5523 14 13 14H12C11.4477 14 11 13.5523 11 13V12Z" fill="black"/>
</g>
</svg>
