<svg width="24" height="24" viewBox="0 0 24 24" fill="none" xmlns="http://www.w3.org/2000/svg">
<path opacity="0.9" fill-rule="evenodd" clip-rule="evenodd" d="M10.5 3C9.67157 3 9 3.67157 9 4.5V6.5C9 7.32843 9.67157 8 10.5 8H11V11H6.5C5.11929 11 4 12.1193 4 13.5V16H3.5C2.67157 16 2 16.6716 2 17.5V19.5C2 20.3284 2.67157 21 3.5 21H5.5C6.32843 21 7 20.3284 7 19.5V17.5C7 16.6716 6.32843 16 5.5 16H5V13.5C5 12.6716 5.67157 12 6.5 12H11V16H10.5C9.67157 16 9 16.6716 9 17.5V19.5C9 20.3284 9.67157 21 10.5 21H12.5C13.3284 21 14 20.3284 14 19.5V17.5C14 16.6716 13.3284 16 12.5 16H12V12H16.5C17.3284 12 18 12.6716 18 13.5V16H17.5C16.6716 16 16 16.6716 16 17.5V19.5C16 20.3284 16.6716 21 17.5 21H19.5C20.3284 21 21 20.3284 21 19.5V17.5C21 16.6716 20.3284 16 19.5 16H19V13.5C19 12.1193 17.8807 11 16.5 11H12V8H12.5C13.3284 8 14 7.32843 14 6.5V4.5C14 3.67157 13.3284 3 12.5 3H10.5ZM10 4.5C10 4.22386 10.2239 4 10.5 4H12.5C12.7761 4 13 4.22386 13 4.5V6.5C13 6.77614 12.7761 7 12.5 7H10.5C10.2239 7 10 6.77614 10 6.5V4.5ZM3 17.5C3 17.2239 3.22386 17 3.5 17H5.5C5.77614 17 6 17.2239 6 17.5V19.5C6 19.7761 5.77614 20 5.5 20H3.5C3.22386 20 3 19.7761 3 19.5V17.5ZM10.5 17C10.2239 17 10 17.2239 10 17.5V19.5C10 19.7761 10.2239 20 10.5 20H12.5C12.7761 20 13 19.7761 13 19.5V17.5C13 17.2239 12.7761 17 12.5 17H10.5ZM17 17.5C17 17.2239 17.2239 17 17.5 17H19.5C19.7761 17 20 17.2239 20 17.5V19.5C20 19.7761 19.7761 20 19.5 20H17.5C17.2239 20 17 19.7761 17 19.5V17.5Z" fill="black"/>
</svg>
