<svg width="16" height="16" viewBox="0 0 16 16" fill="none" xmlns="http://www.w3.org/2000/svg">
<g opacity="0.9">
<path d="M3 14C3 14.5523 2.55228 15 2 15C1.44772 15 1 14.5523 1 14C1 13.4477 1.44772 13 2 13C2.55228 13 3 13.4477 3 14Z" fill="black"/>
<path d="M6 14C6 14.5523 5.55228 15 5 15C4.44772 15 4 14.5523 4 14C4 13.4477 4.44772 13 5 13C5.55228 13 6 13.4477 6 14Z" fill="black"/>
<path fill-rule="evenodd" clip-rule="evenodd" d="M2.46444 2C2.17706 2 1.98338 2.22602 2.00151 2.46049C2.10294 3.77288 2.4118 5.06315 2.91848 6.283C3.54834 7.79944 4.47159 9.17741 5.63557 10.3382C6.79955 11.499 8.18147 12.4198 9.70247 13.0481C10.9268 13.5538 12.2219 13.862 13.5393 13.963C13.7741 13.981 14.0001 13.787 14.0001 13.4998V11.5197L14.0001 11.5157L14.0001 10.947C14.0001 10.9168 13.9805 10.8902 13.9517 10.8813L11.4581 10.108C11.2748 10.0512 11.0751 10.1043 10.9443 10.2446L10.9176 10.2733C10.4722 10.751 9.73814 10.9079 9.13674 10.5535C8.37597 10.1052 7.67298 9.56221 7.04528 8.93624C6.41887 8.31155 5.87528 7.61201 5.42616 6.85497C5.06838 6.2519 5.22647 5.51418 5.70736 5.06831L5.73139 5.04603C5.87269 4.91503 5.92614 4.71449 5.86878 4.53054L5.18922 2.35116C5.12409 2.14227 4.9307 2 4.71189 2H2.46444ZM1.00448 2.53755C0.937485 1.67074 1.64726 1 2.46444 1H4.71189C5.36831 1 5.94849 1.42682 6.14389 2.05349L6.82345 4.23286C6.99552 4.78471 6.83518 5.38633 6.41129 5.77934L6.38726 5.80162C6.218 5.95855 6.1916 6.18529 6.2862 6.34474C6.69259 7.02976 7.18449 7.66279 7.75142 8.22816C8.3195 8.79468 8.95578 9.28614 9.64445 9.69197C9.80373 9.78583 10.0295 9.75942 10.1862 9.59135L10.2129 9.56273C10.6054 9.14163 11.2044 8.98238 11.7543 9.15289L14.2479 9.92615C14.6952 10.0649 15.0001 10.4786 15.0001 10.947L15.0001 11.5118L15.0001 11.5157V13.4998C15.0001 14.317 14.3294 15.0265 13.4629 14.9601C12.0407 14.8511 10.6425 14.5184 9.32068 13.9723C7.67856 13.294 6.1864 12.2998 4.92944 11.0463C3.67247 9.79276 2.67531 8.30455 1.99497 6.66659C1.44769 5.34898 1.11405 3.95524 1.00448 2.53755Z" fill="black"/>
</g>
</svg>
