<svg width="24" height="24" viewBox="0 0 24 24" fill="none" xmlns="http://www.w3.org/2000/svg">
<g opacity="0.9">
<path fill-rule="evenodd" clip-rule="evenodd" d="M8 12C8 9.79086 9.79086 8 12 8C14.2091 8 16 9.79086 16 12C16 14.2091 14.2091 16 12 16C9.79086 16 8 14.2091 8 12ZM12 9C10.3431 9 9 10.3431 9 12C9 13.6569 10.3431 15 12 15C13.6569 15 15 13.6569 15 12C15 10.3431 13.6569 9 12 9Z" fill="black"/>
<path d="M18 11C18.5523 11 19 10.5523 19 10C19 9.44772 18.5523 9 18 9C17.4477 9 17 9.44772 17 10C17 10.5523 17.4477 11 18 11Z" fill="black"/>
<path fill-rule="evenodd" clip-rule="evenodd" d="M7.64285 4.61498C7.92529 4.22848 8.37524 4 8.85394 4H15.1461C15.6248 4 16.0747 4.22848 16.3571 4.61498L17.2195 5.79501C17.3136 5.92384 17.4636 6 17.6232 6H20.5C21.3284 6 22 6.67157 22 7.5V17.5C22 18.3284 21.3284 19 20.5 19H3.5C2.67157 19 2 18.3284 2 17.5V7.5C2 6.67157 2.67157 6 3.5 6H6.37683C6.53639 6 6.68638 5.92384 6.78052 5.79501L7.64285 4.61498ZM8.85394 5C8.69438 5 8.54439 5.07616 8.45025 5.20499L7.58791 6.38502C7.30547 6.77152 6.85553 7 6.37683 7H3.5C3.22386 7 3 7.22386 3 7.5V17.5C3 17.7761 3.22386 18 3.5 18H20.5C20.7761 18 21 17.7761 21 17.5V7.5C21 7.22386 20.7761 7 20.5 7H17.6232C17.1445 7 16.6945 6.77152 16.4121 6.38502L15.5498 5.20499C15.4556 5.07616 15.3056 5 15.1461 5H8.85394Z" fill="black"/>
</g>
</svg>
