<svg width="16" height="16" viewBox="0 0 16 16" fill="none" xmlns="http://www.w3.org/2000/svg">
<g opacity="0.9">
<path fill-rule="evenodd" clip-rule="evenodd" d="M8 5C6.34315 5 5 6.34315 5 8C5 9.65685 6.34315 11 8 11C9.65685 11 11 9.65685 11 8C11 6.34315 9.65685 5 8 5ZM6 8C6 6.89543 6.89543 6 8 6C9.10457 6 10 6.89543 10 8C10 9.10457 9.10457 10 8 10C6.89543 10 6 9.10457 6 8Z" fill="black"/>
<path fill-rule="evenodd" clip-rule="evenodd" d="M6.11803 2C5.54988 2 5.03048 2.321 4.77639 2.82918L4.32918 3.72361C4.24448 3.893 4.07135 4 3.88197 4H2.5C1.67157 4 1 4.67157 1 5.5V11.5C1 12.3284 1.67157 13 2.5 13H13.5C14.3284 13 15 12.3284 15 11.5V5.5C15 4.67157 14.3284 4 13.5 4H12.118C11.9286 4 11.7555 3.893 11.6708 3.72361L11.2236 2.82918C10.9695 2.321 10.4501 2 9.88197 2H6.11803ZM5.67082 3.27639C5.75552 3.107 5.92865 3 6.11803 3H9.88197C10.0714 3 10.2445 3.107 10.3292 3.27639L10.7764 4.17082C11.0305 4.679 11.5499 5 12.118 5H13.5C13.7761 5 14 5.22386 14 5.5V11.5C14 11.7761 13.7761 12 13.5 12H2.5C2.22386 12 2 11.7761 2 11.5V5.5C2 5.22386 2.22386 5 2.5 5H3.88197C4.45012 5 4.96952 4.679 5.22361 4.17082L5.67082 3.27639Z" fill="black"/>
</g>
</svg>
