<svg width="24" height="24" viewBox="0 0 24 24" fill="none" xmlns="http://www.w3.org/2000/svg">
<g opacity="0.9">
<path d="M5.5 15C5.22386 15 5 15.2239 5 15.5C5 15.7761 5.22386 16 5.5 16H13.5C13.7761 16 14 15.7761 14 15.5C14 15.2239 13.7761 15 13.5 15H5.5Z" fill="black"/>
<path fill-rule="evenodd" clip-rule="evenodd" d="M2 6.5C2 5.67157 2.67157 5 3.5 5H20.5C21.3284 5 22 5.67157 22 6.5V17.5C22 18.3284 21.3284 19 20.5 19H3.5C2.67157 19 2 18.3284 2 17.5V6.5ZM21 6.5V8H3V6.5C3 6.22386 3.22386 6 3.5 6H20.5C20.7761 6 21 6.22386 21 6.5ZM3 17.5V11H21V17.5C21 17.7761 20.7761 18 20.5 18H3.5C3.22386 18 3 17.7761 3 17.5Z" fill="black"/>
</g>
</svg>
