<svg width="16" height="16" viewBox="0 0 16 16" fill="none" xmlns="http://www.w3.org/2000/svg">
<path opacity="0.9" d="M10.192 3.10955C9.97665 2.93673 9.66195 2.97124 9.48914 3.18662C9.31632 3.402 9.35083 3.7167 9.56622 3.88951L10.9528 5.00206L9.88031 4.99953C9.87338 4.99951 9.86649 4.99964 9.85963 4.9999C5.72636 5.0103 2.37891 8.36417 2.37891 12.4999C2.37891 12.776 2.60276 12.9999 2.87891 12.9999C3.15505 12.9999 3.37891 12.776 3.37891 12.4999C3.37891 8.91003 6.28905 5.99988 9.87891 5.99988C9.88481 5.99988 9.89069 5.99978 9.89654 5.99957L10.9546 6.00207L9.56732 7.10864C9.35144 7.28084 9.31603 7.59543 9.48822 7.81131C9.66041 8.02719 9.97501 8.06261 10.1909 7.89042L12.6909 5.89632C12.8097 5.80161 12.8789 5.65805 12.8791 5.50616C12.8793 5.35426 12.8105 5.21051 12.692 5.11545L10.192 3.10955Z" fill="black"/>
</svg>
