<svg width="32" height="32" viewBox="0 0 32 32" fill="none" xmlns="http://www.w3.org/2000/svg">
<path opacity="0.9" d="M21.2109 6.79289C20.8204 6.40237 20.1872 6.40237 19.7967 6.79289C19.4062 7.18342 19.4062 7.81658 19.7967 8.20711L22.0896 10.5H20.5237C20.5169 10.4999 20.5102 10.4998 20.5034 10.4998C12.7714 10.4998 6.50342 16.7678 6.50342 24.4998C6.50342 25.0521 6.95113 25.4998 7.50342 25.4998C8.0557 25.4998 8.50342 25.0521 8.50342 24.4998C8.50342 17.8788 13.8657 12.5101 20.4843 12.4998C20.4908 12.4999 20.4973 12.5 20.5038 12.5L22.0896 12.5L19.7967 14.7929C19.4062 15.1834 19.4062 15.8166 19.7967 16.2071C20.1872 16.5976 20.8204 16.5976 21.2109 16.2071L25.2109 12.2071C25.3984 12.0196 25.5038 11.7652 25.5038 11.5C25.5038 11.2348 25.3984 10.9804 25.2109 10.7929L21.2109 6.79289Z" fill="black"/>
</svg>
