<svg width="24" height="24" viewBox="0 0 24 24" fill="none" xmlns="http://www.w3.org/2000/svg">
<path opacity="0.9" fill-rule="evenodd" clip-rule="evenodd" d="M15.1435 5.11989C14.9338 4.94018 14.6182 4.96446 14.4384 5.17413C14.2587 5.38379 14.283 5.69944 14.4927 5.87915L16.9664 7.99952L14.8181 7.99952C14.8115 7.99952 14.8049 7.99965 14.7983 7.9999C9.00833 8.01044 4.31787 12.7074 4.31787 18.4999C4.31787 18.776 4.54173 18.9999 4.81787 18.9999C5.09401 18.9999 5.31787 18.776 5.31787 18.4999C5.31787 13.2532 9.57117 8.99988 14.8179 8.99988C14.8243 8.99988 14.8307 8.99976 14.8371 8.99952L16.9664 8.99952L14.4927 11.1199C14.283 11.2996 14.2587 11.6153 14.4384 11.8249C14.6182 12.0346 14.9338 12.0589 15.1435 11.8791L18.6435 8.87915C18.7543 8.78416 18.8181 8.64548 18.8181 8.49952C18.8181 8.35356 18.7543 8.21488 18.6435 8.11989L15.1435 5.11989Z" fill="black"/>
</svg>
