<svg width="24" height="24" viewBox="0 0 24 24" fill="none" xmlns="http://www.w3.org/2000/svg">
<path opacity="0.9" fill-rule="evenodd" clip-rule="evenodd" d="M2.94796 3.94796C5.43044 1.46548 9.38719 1.35575 12 3.61881C14.6128 1.35576 18.5695 1.46547 21.052 3.94796C23.6493 6.54524 23.6493 10.7563 21.052 13.3536L12 22.4056L2.94796 13.3536C0.350675 10.7563 0.350685 6.54523 2.94796 3.94796ZM3.65507 4.65507C5.86182 2.44832 9.43969 2.44831 11.6464 4.65507L12 5.00862L12.3536 4.65507C14.5603 2.44832 18.1382 2.44831 20.3449 4.65507C22.0607 6.37082 22.4424 8.91542 21.4902 11H16.5C16.3106 11 16.1375 11.107 16.0528 11.2764L15.5349 12.3122L12.9596 6.30304C12.8771 6.11065 12.6836 5.98998 12.4745 6.00065C12.2655 6.01133 12.0852 6.15108 12.0228 6.35087L9.9328 13.0387L7.96154 8.3077C7.88134 8.11522 7.69012 7.99272 7.48174 8.00034C7.27337 8.00795 7.0916 8.14408 7.02566 8.34189L6.13962 11H2.5098C1.55756 8.91541 1.93932 6.37081 3.65507 4.65507ZM3.09857 12C3.26513 12.2258 3.45063 12.442 3.65507 12.6464L12 20.9914L20.3449 12.6464C20.5494 12.442 20.7349 12.2258 20.9014 12H16.809L15.9472 13.7236C15.8601 13.8977 15.6799 14.0055 15.4853 13.9998C15.2907 13.9941 15.1171 13.8759 15.0404 13.697L12.5736 7.94093L10.4772 14.6491C10.4145 14.8498 10.233 14.9898 10.023 14.9995C9.81295 15.0091 9.61932 14.8864 9.53846 14.6923L7.55206 9.92495L6.97434 11.6581C6.90628 11.8623 6.71522 12 6.5 12H3.09857Z" fill="black"/>
</svg>
