<svg width="24" height="24" viewBox="0 0 24 24" fill="none" xmlns="http://www.w3.org/2000/svg">
<path opacity="0.9" fill-rule="evenodd" clip-rule="evenodd" d="M2.94796 3.94796C5.43044 1.46548 9.38719 1.35575 12 3.61881C14.6128 1.35576 18.5695 1.46547 21.052 3.94796C23.6493 6.54524 23.6493 10.7563 21.052 13.3536L12 22.4056L2.94796 13.3536C0.350675 10.7563 0.350685 6.54523 2.94796 3.94796ZM12.4745 6.00065C12.6836 5.98998 12.8771 6.11065 12.9596 6.30304L15.5349 12.3122L16.0528 11.2764C16.1375 11.107 16.3106 11 16.5 11H21.4902C21.3312 11.3482 21.1349 11.6835 20.9014 12H16.809L15.9472 13.7236C15.8601 13.8977 15.6799 14.0055 15.4853 13.9998C15.2907 13.9941 15.1171 13.8759 15.0404 13.697L12.5736 7.94093L10.4772 14.6491C10.4145 14.8498 10.233 14.9898 10.023 14.9995C9.81295 15.0091 9.61932 14.8864 9.53846 14.6923L7.55206 9.92495L6.97434 11.6581C6.90628 11.8623 6.71522 12 6.5 12H3.09856C2.8651 11.6835 2.66884 11.3482 2.5098 11H6.13962L7.02566 8.34189C7.0916 8.14407 7.27337 8.00795 7.48174 8.00033C7.69012 7.99272 7.88134 8.11522 7.96154 8.30769L9.9328 13.0387L12.0228 6.35086C12.0852 6.15107 12.2655 6.01132 12.4745 6.00065Z" fill="black"/>
</svg>
