<svg width="16" height="16" viewBox="0 0 16 16" fill="none" xmlns="http://www.w3.org/2000/svg">
<path opacity="0.9" fill-rule="evenodd" clip-rule="evenodd" d="M11.3834 5.44576C11.4166 5.56909 11.5916 5.56909 11.6248 5.44576L12.0873 3.72801C12.0989 3.68499 12.1325 3.65139 12.1755 3.63981L13.8932 3.17731C14.0166 3.1441 14.0166 2.96911 13.8932 2.9359L12.1755 2.4734C12.1325 2.46182 12.0989 2.42822 12.0873 2.3852L11.6248 0.667452C11.5916 0.544117 11.4166 0.544118 11.3834 0.667453L10.9209 2.3852C10.9093 2.42822 10.8757 2.46182 10.8327 2.4734L9.11492 2.9359C8.99158 2.96911 8.99158 3.1441 9.11492 3.17731L10.8327 3.63981C10.8757 3.65139 10.9093 3.68499 10.9209 3.72801L11.3834 5.44576ZM6.39466 14.676C6.42787 14.7993 6.60285 14.7993 6.63606 14.676L7.8119 10.3088C7.82349 10.2658 7.85709 10.2322 7.90011 10.2206L12.2672 9.0448C12.3906 9.01159 12.3906 8.8366 12.2672 8.8034L7.90011 7.62755C7.85709 7.61597 7.82349 7.58237 7.8119 7.53935L6.63606 3.17221C6.60285 3.04888 6.42787 3.04888 6.39466 3.17221L5.21881 7.53935C5.20723 7.58237 5.17363 7.61597 5.13061 7.62755L0.763476 8.8034C0.640141 8.8366 0.640141 9.01159 0.763476 9.0448L5.13061 10.2206C5.17363 10.2322 5.20723 10.2658 5.21881 10.3088L6.39466 14.676ZM12.6051 14.4604C12.5719 14.5837 12.3969 14.5837 12.3637 14.4604L12.0723 13.3784C12.0608 13.3354 12.0272 13.3018 11.9841 13.2902L10.9021 12.9989C10.7788 12.9657 10.7788 12.7907 10.9021 12.7575L11.9841 12.4661C12.0272 12.4546 12.0608 12.421 12.0723 12.3779L12.3637 11.2959C12.3969 11.1726 12.5719 11.1726 12.6051 11.2959L12.8964 12.3779C12.908 12.421 12.9416 12.4546 12.9846 12.4661L14.0666 12.7575C14.1899 12.7907 14.1899 12.9657 14.0666 12.9989L12.9846 13.2902C12.9416 13.3018 12.908 13.3354 12.8964 13.3784L12.6051 14.4604Z" fill="black"/>
</svg>
