<svg width="32" height="32" viewBox="0 0 32 32" fill="none" xmlns="http://www.w3.org/2000/svg">
<path opacity="0.9" d="M20.8572 7.14596C20.6619 6.9507 20.3453 6.9507 20.15 7.14596C19.9548 7.34122 19.9548 7.6578 20.15 7.85307L23.2965 10.9995H20.5036C20.4968 10.9995 20.4901 10.9996 20.4834 10.9999C13.0367 11.0107 7.00342 17.0507 7.00342 24.4999C7.00342 24.776 7.22728 24.9999 7.50342 24.9999C7.77956 24.9999 8.00342 24.776 8.00342 24.4999C8.00342 17.5963 13.5999 11.9999 20.5034 11.9999C20.5101 11.9999 20.5167 11.9998 20.5233 11.9995H23.2965L20.15 15.146C19.9548 15.3412 19.9548 15.6578 20.15 15.8531C20.3453 16.0483 20.6619 16.0483 20.8572 15.8531L24.8572 11.8531C24.9509 11.7593 25.0036 11.6321 25.0036 11.4995C25.0036 11.3669 24.9509 11.2397 24.8572 11.146L20.8572 7.14596Z" fill="black"/>
</svg>
