<svg width="32" height="32" viewBox="0 0 32 32" fill="none" xmlns="http://www.w3.org/2000/svg">
<path opacity="0.9" fill-rule="evenodd" clip-rule="evenodd" d="M18 4C18 4.93192 17.3626 5.71497 16.5 5.93699V8H25C26.6569 8 28 9.34315 28 11V14H29C29.5523 14 30 14.4477 30 15V18C30 18.5523 29.5523 19 29 19H28V22C28 23.6569 26.6569 25 25 25H7C5.34315 25 4 23.6569 4 22V19H3C2.44772 19 2 18.5523 2 18V15C2 14.4477 2.44772 14 3 14H4V11C4 9.34315 5.34315 8 7 8H15.5V5.93699C14.6374 5.71497 14 4.93192 14 4C14 2.89543 14.8954 2 16 2C17.1046 2 18 2.89543 18 4ZM9.9 14.2C9.77087 14.0278 9.54606 13.9576 9.34189 14.0257C9.13771 14.0937 9 14.2848 9 14.5V18.5C9 18.7761 9.22386 19 9.5 19C9.77614 19 10 18.7761 10 18.5V16L12.1 18.8C12.2291 18.9722 12.4539 19.0424 12.6581 18.9743C12.8623 18.9063 13 18.7152 13 18.5V14.5C13 14.2239 12.7761 14 12.5 14C12.2239 14 12 14.2239 12 14.5V17L9.9 14.2ZM16 14.5C16 14.2239 15.7761 14 15.5 14C15.2239 14 15 14.2239 15 14.5V18.5C15 18.7761 15.2239 19 15.5 19H17.5C17.7761 19 18 18.7761 18 18.5C18 18.2239 17.7761 18 17.5 18H16V14.5ZM20 14.5C20 14.2239 19.7761 14 19.5 14C19.2239 14 19 14.2239 19 14.5V17C19 18.1046 19.8954 19 21 19C22.1046 19 23 18.1046 23 17V14.5C23 14.2239 22.7761 14 22.5 14C22.2239 14 22 14.2239 22 14.5V17C22 17.5523 21.5523 18 21 18C20.4477 18 20 17.5523 20 17V14.5Z" fill="black"/>
</svg>
