<svg width="16" height="16" viewBox="0 0 16 16" fill="none" xmlns="http://www.w3.org/2000/svg">
<g opacity="0.9">
<path d="M3.91603 6.22263C3.79381 6.0393 3.56599 5.95758 3.35511 6.02143C3.14423 6.08528 3 6.27964 3 6.49998V9.49998C3 9.77612 3.22386 9.99998 3.5 9.99998C3.77614 9.99998 4 9.77612 4 9.49998V8.15137L5.08397 9.77733C5.20619 9.96066 5.43401 10.0424 5.64489 9.97852C5.85577 9.91467 6 9.72031 6 9.49998V6.49998C6 6.22384 5.77614 5.99998 5.5 5.99998C5.22386 5.99998 5 6.22384 5 6.49998V7.84859L3.91603 6.22263Z" fill="black"/>
<path d="M8 6.49998C8 6.22384 7.77614 5.99998 7.5 5.99998C7.22386 5.99998 7 6.22384 7 6.49998V9.49998C7 9.77612 7.22386 9.99998 7.5 9.99998H9C9.27614 9.99998 9.5 9.77612 9.5 9.49998C9.5 9.22383 9.27614 8.99998 9 8.99998H8V6.49998Z" fill="black"/>
<path d="M11 6.49998C11 6.22384 10.7761 5.99998 10.5 5.99998C10.2239 5.99998 10 6.22384 10 6.49998V8.49998C10 9.32841 10.6716 9.99998 11.5 9.99998C12.3284 9.99998 13 9.32841 13 8.49998V6.49998C13 6.22384 12.7761 5.99998 12.5 5.99998C12.2239 5.99998 12 6.22384 12 6.49998V8.49998C12 8.77612 11.7761 8.99998 11.5 8.99998C11.2239 8.99998 11 8.77612 11 8.49998V6.49998Z" fill="black"/>
<path fill-rule="evenodd" clip-rule="evenodd" d="M8.5 1.86622C8.7989 1.69331 9 1.37014 9 1C9 0.447715 8.55229 0 8 0C7.44772 0 7 0.447715 7 1C7 1.37014 7.2011 1.69331 7.5 1.86622V3H3C1.89543 3 1 3.89543 1 5V7C0.447715 7 0 7.44772 0 8V9C0 9.55228 0.447715 10 1 10V11C1 12.1046 1.89543 13 3 13H13C14.1046 13 15 12.1046 15 11V10C15.5523 10 16 9.55229 16 9V8C16 7.44772 15.5523 7 15 7V5C15 3.89543 14.1046 3 13 3H8.5V1.86622ZM2 5C2 4.44772 2.44772 4 3 4H13C13.5523 4 14 4.44772 14 5V11C14 11.5523 13.5523 12 13 12H3C2.44772 12 2 11.5523 2 11V5Z" fill="black"/>
</g>
</svg>
