<svg width="32" height="32" viewBox="0 0 32 32" fill="none" xmlns="http://www.w3.org/2000/svg">
<g opacity="0.9">
<path d="M9.9 14.2C9.77087 14.0278 9.54606 13.9576 9.34189 14.0256C9.13771 14.0937 9 14.2848 9 14.5V18.5C9 18.7761 9.22386 19 9.5 19C9.77614 19 10 18.7761 10 18.5V16L12.1 18.8C12.2291 18.9721 12.4539 19.0424 12.6581 18.9743C12.8623 18.9063 13 18.7152 13 18.5V14.5C13 14.2238 12.7761 14 12.5 14C12.2239 14 12 14.2238 12 14.5V17L9.9 14.2Z" fill="black"/>
<path d="M16 14.5C16 14.2238 15.7761 14 15.5 14C15.2239 14 15 14.2238 15 14.5V18.5C15 18.7761 15.2239 19 15.5 19H17.5C17.7761 19 18 18.7761 18 18.5C18 18.2238 17.7761 18 17.5 18H16V14.5Z" fill="black"/>
<path d="M20 14.5C20 14.2238 19.7761 14 19.5 14C19.2239 14 19 14.2238 19 14.5V17C19 18.1045 19.8954 19 21 19C22.1046 19 23 18.1045 23 17V14.5C23 14.2238 22.7761 14 22.5 14C22.2239 14 22 14.2238 22 14.5V17C22 17.5523 21.5523 18 21 18C20.4477 18 20 17.5523 20 17V14.5Z" fill="black"/>
<path fill-rule="evenodd" clip-rule="evenodd" d="M16.5 5.93699C17.3626 5.71497 18 4.93192 18 4C18 2.89543 17.1046 2 16 2C14.8954 2 14 2.89543 14 4C14 4.93192 14.6374 5.71497 15.5 5.93699V8H7C5.34315 8 4 9.34315 4 11V14H3C2.44772 14 2 14.4477 2 15V18C2 18.5523 2.44772 19 3 19H4V22C4 23.6569 5.34315 25 7 25H25C26.6569 25 28 23.6569 28 22V19H29C29.5523 19 30 18.5523 30 18V15C30 14.4477 29.5523 14 29 14H28V11C28 9.34315 26.6569 8 25 8H16.5V5.93699ZM16 5C16.5523 5 17 4.55228 17 4C17 3.44772 16.5523 3 16 3C15.4477 3 15 3.44772 15 4C15 4.55228 15.4477 5 16 5ZM29 18H28V15H29V18ZM27 11V22C27 23.1046 26.1046 24 25 24H7C5.89543 24 5 23.1046 5 22V11C5 9.89543 5.89543 9 7 9H25C26.1046 9 27 9.89543 27 11ZM3 15H4V18H3V15Z" fill="black"/>
</g>
</svg>
