<svg width="24" height="24" viewBox="0 0 24 24" fill="none" xmlns="http://www.w3.org/2000/svg">
<path opacity="0.9" d="M12.3334 2.44323L12 2.56106L11.6666 2.44323C11.2776 2.30571 11 1.93462 11 1.5C11 0.947715 11.4477 0.5 12 0.5C12.5523 0.5 13 0.947715 13 1.5C13 1.93462 12.7224 2.30571 12.3334 2.44323ZM11.5 5.5H12H12.5H19C20.3807 5.5 21.5 6.61929 21.5 8V10V10.5H22C22.2761 10.5 22.5 10.7239 22.5 11V13C22.5 13.2761 22.2761 13.5 22 13.5H21.5V14V16C21.5 17.3807 20.3807 18.5 19 18.5H5C3.61929 18.5 2.5 17.3807 2.5 16V14V13.5H2C1.72386 13.5 1.5 13.2761 1.5 13V11C1.5 10.7239 1.72386 10.5 2 10.5H2.5V10V8C2.5 6.61929 3.61929 5.5 5 5.5H11.5ZM8.81623 14.9487L8.65811 14.4743L8.81623 14.9487C9.22457 14.8126 9.5 14.4304 9.5 14V10C9.5 9.44772 9.05228 9 8.5 9C7.94772 9 7.5 9.44772 7.5 10V11L6.3 9.4C6.04174 9.05566 5.59211 8.9152 5.18377 9.05132C4.77543 9.18743 4.5 9.56957 4.5 10V14C4.5 14.5523 4.94771 15 5.5 15C6.05229 15 6.5 14.5523 6.5 14V13L7.7 14.6C7.95826 14.9443 8.40789 15.0848 8.81623 14.9487ZM12.5 10C12.5 9.44772 12.0523 9 11.5 9C10.9477 9 10.5 9.44772 10.5 10V14C10.5 14.5523 10.9477 15 11.5 15H13.5C14.0523 15 14.5 14.5523 14.5 14C14.5 13.4477 14.0523 13 13.5 13H12.5V10ZM16.5 10C16.5 9.44772 16.0523 9 15.5 9C14.9477 9 14.5 9.44772 14.5 10V12.5C14.5 13.8807 15.6193 15 17 15C18.3807 15 19.5 13.8807 19.5 12.5V10C19.5 9.44772 19.0523 9 18.5 9C17.9477 9 17.5 9.44772 17.5 10V12.5C17.5 12.7761 17.2761 13 17 13C16.7239 13 16.5 12.7761 16.5 12.5V10Z" fill="black" stroke="black"/>
</svg>
