<svg width="24" height="24" viewBox="0 0 24 24" fill="none" xmlns="http://www.w3.org/2000/svg">
<g opacity="0.9">
<path d="M5.9 9.69997C5.77087 9.5278 5.54606 9.45757 5.34189 9.52563C5.13771 9.59369 5 9.78476 5 9.99997V14C5 14.2761 5.22386 14.5 5.5 14.5C5.77614 14.5 6 14.2761 6 14V11.5L8.1 14.3C8.22913 14.4721 8.45394 14.5424 8.65811 14.4743C8.86228 14.4063 9 14.2152 9 14V9.99997C9 9.72383 8.77614 9.49997 8.5 9.49997C8.22386 9.49997 8 9.72383 8 9.99997V12.5L5.9 9.69997Z" fill="black"/>
<path d="M12 9.99997C12 9.72383 11.7761 9.49997 11.5 9.49997C11.2239 9.49997 11 9.72383 11 9.99997V14C11 14.2761 11.2239 14.5 11.5 14.5H13.5C13.7761 14.5 14 14.2761 14 14C14 13.7238 13.7761 13.5 13.5 13.5H12V9.99997Z" fill="black"/>
<path d="M16 9.99997C16 9.72383 15.7761 9.49997 15.5 9.49997C15.2239 9.49997 15 9.72383 15 9.99997V12.5C15 13.6045 15.8954 14.5 17 14.5C18.1046 14.5 19 13.6045 19 12.5V9.99997C19 9.72383 18.7761 9.49997 18.5 9.49997C18.2239 9.49997 18 9.72383 18 9.99997V12.5C18 13.0523 17.5523 13.5 17 13.5C16.4477 13.5 16 13.0523 16 12.5V9.99997Z" fill="black"/>
<path fill-rule="evenodd" clip-rule="evenodd" d="M12.5 2.91465C13.0826 2.70873 13.5 2.15311 13.5 1.5C13.5 0.671573 12.8284 0 12 0C11.1716 0 10.5 0.671573 10.5 1.5C10.5 2.15311 10.9174 2.70873 11.5 2.91465V5H5C3.34315 5 2 6.34315 2 8V10C1.44772 10 1 10.4477 1 11V13C1 13.5523 1.44772 14 2 14V16C2 17.6569 3.34315 19 5 19H19C20.6569 19 22 17.6569 22 16V14C22.5523 14 23 13.5523 23 13V11C23 10.4477 22.5523 10 22 10V8C22 6.34315 20.6569 5 19 5H12.5V2.91465ZM12 2C12.2761 2 12.5 1.77614 12.5 1.5C12.5 1.22386 12.2761 1 12 1C11.7239 1 11.5 1.22386 11.5 1.5C11.5 1.77614 11.7239 2 12 2ZM3 8C3 6.89543 3.89543 6 5 6H19C20.1046 6 21 6.89543 21 8V16C21 17.1046 20.1046 18 19 18H5C3.89543 18 3 17.1046 3 16V8Z" fill="black"/>
</g>
</svg>
