<svg width="16" height="16" viewBox="0 0 16 16" fill="none" xmlns="http://www.w3.org/2000/svg">
<g opacity="0.9">
<path d="M7.5 2C4.46243 2 2 4.46243 2 7.5C2 10.5376 4.46243 13 7.5 13C7.77614 13 8 13.2239 8 13.5C8 13.7761 7.77614 14 7.5 14C3.91015 14 1 11.0899 1 7.5C1 3.91015 3.91015 1 7.5 1C11.0899 1 14 3.91015 14 7.5C14 7.77614 13.7761 8 13.5 8C13.2239 8 13 7.77614 13 7.5C13 4.46243 10.5376 2 7.5 2Z" fill="black"/>
<path fill-rule="evenodd" clip-rule="evenodd" d="M3 6H6V7H9.08535C9.29127 6.4174 9.84689 6 10.5 6C11.3284 6 12 6.67157 12 7.5C12 8.32843 11.3284 9 10.5 9C9.84689 9 9.29127 8.5826 9.08535 8H6V9H3V6ZM4 8H5V7H4V8ZM10 7.5C10 7.22386 10.2239 7 10.5 7C10.7761 7 11 7.22386 11 7.5C11 7.77614 10.7761 8 10.5 8C10.2239 8 10 7.77614 10 7.5Z" fill="black"/>
<path fill-rule="evenodd" clip-rule="evenodd" d="M14.2678 10.7322C13.613 10.0774 12.6857 9.8624 11.8531 10.0847C11.6804 10.1308 11.5455 10.2656 11.4992 10.4382C11.4529 10.6108 11.5022 10.795 11.6285 10.9214L12.5 11.7928L11.7929 12.4999L10.9214 11.6285C10.7951 11.5021 10.6109 11.4528 10.4383 11.4991C10.2657 11.5454 10.1309 11.6804 10.0848 11.853C9.86246 12.6856 10.0775 13.6129 10.7322 14.2677C11.311 14.8464 12.1026 15.0816 12.8536 14.9749L13.4274 15.5487C14.0132 16.1344 14.9629 16.1344 15.5487 15.5487C16.1345 14.9629 16.1345 14.0131 15.5487 13.4273L14.9749 12.8536C15.0817 12.1026 14.8465 11.3109 14.2678 10.7322ZM13.5618 11.4404C13.953 11.8325 14.0829 12.3874 13.949 12.8888C13.903 13.0613 13.9524 13.2452 14.0786 13.3714L14.8416 14.1344C15.0369 14.3297 15.0369 14.6463 14.8416 14.8415C14.6463 15.0368 14.3298 15.0368 14.1345 14.8415L13.3715 14.0785C13.2453 13.9523 13.0613 13.9029 12.8889 13.949C12.3875 14.0829 11.8325 13.953 11.4404 13.5617C11.5341 13.6548 11.6608 13.707 11.7929 13.707C11.9255 13.707 12.0527 13.6544 12.1464 13.5606L13.5607 12.1464C13.6544 12.0526 13.7071 11.9254 13.7071 11.7928C13.7071 11.6607 13.6548 11.534 13.5618 11.4404Z" fill="black"/>
</g>
</svg>
