<svg width="16" height="16" viewBox="0 0 16 16" fill="none" xmlns="http://www.w3.org/2000/svg">
<g opacity="0.9">
<path fill-rule="evenodd" clip-rule="evenodd" d="M7.5 1C3.91015 1 1 3.91015 1 7.5C1 11.0899 3.91015 14 7.5 14C8.10137 14 8.68366 13.9183 9.2364 13.7655C9.08375 13.3725 9 12.945 9 12.498C9 10.564 10.5679 8.99609 12.502 8.99609C12.948 8.99609 13.3745 9.07948 13.7668 9.2315C13.9188 8.68022 14 8.09959 14 7.5C14 3.91015 11.0899 1 7.5 1ZM3 6.5C3 6.22386 3.22386 6 3.5 6H5.5C5.77614 6 6 6.22386 6 6.5V7H9.08535C9.29127 6.4174 9.84689 6 10.5 6C11.3284 6 12 6.67157 12 7.5C12 8.32843 11.3284 9 10.5 9C9.84689 9 9.29127 8.5826 9.08535 8H6V8.5C6 8.77614 5.77614 9 5.5 9H3.5C3.22386 9 3 8.77614 3 8.5V6.5Z" fill="black"/>
<path d="M11.0858 13.9142C11.6092 14.4377 12.3507 14.6103 13.0179 14.4321L13.781 15.1952C14.1715 15.5857 14.8046 15.5857 15.1952 15.1952C15.5857 14.8046 15.5857 14.1715 15.1952 13.781L14.4321 13.0179C14.6103 12.3507 14.4377 11.6092 13.9142 11.0858C13.3908 10.5623 12.6493 10.3897 11.9821 10.5679L13.2071 11.7929L11.7929 13.2071L10.5679 11.9821C10.3897 12.6493 10.5623 13.3908 11.0858 13.9142Z" fill="black"/>
</g>
</svg>
