<svg width="16" height="16" viewBox="0 0 16 16" fill="none" xmlns="http://www.w3.org/2000/svg">
<g clip-path="url(#clip0)">
<g opacity="0.9">
<path fill-rule="evenodd" clip-rule="evenodd" d="M6.87538 0.19327C7.00518 0.0261994 7.22609 -0.0410926 7.42699 0.0252394L13.9067 2.16468C14.0381 2.20806 14.1456 2.30393 14.2037 2.4295C14.2618 2.55506 14.2653 2.69909 14.2133 2.82731C14.0092 3.33084 13.9927 3.71243 14.0641 4.06781C14.1407 4.44852 14.3207 4.82214 14.5724 5.32686C14.6365 5.45524 14.6423 5.60494 14.5884 5.73789C14.3843 6.24143 14.3677 6.62301 14.4392 6.97839C14.5157 7.3591 14.6957 7.73272 14.9475 8.23744C15.0276 8.39801 15.0155 8.58919 14.9158 8.73839L14.328 9.61832C14.1746 9.84793 13.8641 9.90971 13.6344 9.75631C13.4048 9.60291 13.3431 9.29241 13.4965 9.0628L13.9236 8.42339C13.7589 8.0861 13.6037 7.74092 13.5064 7.37802L12.5989 8.73814C12.4456 8.96785 12.1352 9.02981 11.9055 8.87655C11.6758 8.72328 11.6138 8.41282 11.7671 8.18312L13.5487 5.51299C13.3831 5.17409 13.2272 4.82722 13.13 4.46243L9.1784 10.3581C9.0499 10.5498 8.80687 10.6287 8.59028 10.5489L2.06295 8.14513C1.99827 8.33836 1.9844 8.52788 2.0174 8.71568C2.06879 9.00818 2.24421 9.35414 2.63408 9.74012L7.88944 11.7844C8.1468 11.8846 8.27427 12.1743 8.17416 12.4317C8.07405 12.689 7.78426 12.8165 7.52691 12.7164L2.60417 10.8015C2.54171 10.992 2.52866 11.179 2.56121 11.3642C2.6126 11.6567 2.78802 12.0027 3.17789 12.3887L7.88944 14.2214C8.1468 14.3216 8.27427 14.6113 8.17416 14.8687C8.07405 15.1261 7.78426 15.2535 7.52691 15.1534L2.72174 13.2842C2.6618 13.2609 2.60692 13.2262 2.56011 13.1821C2.01733 12.6707 1.67857 12.1194 1.57629 11.5373C1.49694 11.0856 1.56668 10.6534 1.74497 10.2555C1.35997 9.82404 1.11648 9.36678 1.03248 8.88872C0.928801 8.29858 1.07966 7.74169 1.39462 7.25103C1.40271 7.23843 1.41136 7.2262 1.42055 7.21437L6.87538 0.19327ZM2.62958 7.28814L8.56674 9.47457L12.9681 2.90788L7.44856 1.08546L2.62958 7.28814Z" fill="black"/>
<path d="M8.397 2.76472L10.5582 3.45386C10.6897 3.49582 10.7402 3.65535 10.6567 3.76535L10.2251 4.33373C10.0944 4.50588 9.86789 4.57455 9.66359 4.50394L7.54174 3.77062C7.41285 3.72608 7.36536 3.56844 7.44819 3.46011L7.84791 2.93738C7.97614 2.76968 8.19587 2.70059 8.397 2.76472Z" fill="black"/>
<path fill-rule="evenodd" clip-rule="evenodd" d="M11.9982 10.5C11.9982 10.2239 12.222 10 12.4982 10C12.7743 10 12.9982 10.2239 12.9982 10.5V10.6756C12.9982 10.9039 13.1562 11.0973 13.3621 11.196C13.4553 11.2407 13.5446 11.2925 13.6291 11.3506C13.8172 11.4798 14.0638 11.5198 14.2614 11.4055L14.4132 11.3178C14.6523 11.1795 14.9582 11.2614 15.0963 11.5006C15.2344 11.7398 15.1524 12.0455 14.9133 12.1835L14.7612 12.2713C14.5638 12.3852 14.475 12.6185 14.4923 12.8458C14.4962 12.8967 14.4982 12.9481 14.4982 13C14.4982 13.0519 14.4962 13.1034 14.4923 13.1542C14.475 13.3816 14.5638 13.6148 14.7612 13.7288L14.9133 13.8165C15.1524 13.9545 15.2344 14.2603 15.0963 14.4994C14.9582 14.7386 14.6523 14.8205 14.4132 14.6823L14.2614 14.5945C14.0638 14.4803 13.8172 14.5202 13.6291 14.6495C13.5446 14.7076 13.4553 14.7593 13.3621 14.8041C13.1562 14.9027 12.9982 15.0962 12.9982 15.3244V15.5C12.9982 15.7762 12.7743 16 12.4982 16C12.222 16 11.9982 15.7762 11.9982 15.5V15.3243C11.9982 15.0961 11.8402 14.9027 11.6344 14.804C11.5412 14.7593 11.452 14.7076 11.3675 14.6496C11.1796 14.5207 10.9335 14.481 10.7362 14.595L10.5831 14.6834C10.344 14.8216 10.0381 14.7397 9.90006 14.5005C9.76201 14.2613 9.84401 13.9555 10.0832 13.8175L10.2356 13.7296C10.4329 13.6157 10.5216 13.3827 10.5041 13.1555C10.5002 13.1042 10.4982 13.0523 10.4982 13C10.4982 12.9477 10.5002 12.8959 10.5041 12.8445C10.5216 12.6173 10.4329 12.3843 10.2356 12.2705L10.0832 12.1825C9.84401 12.0445 9.76201 11.7387 9.90006 11.4996C10.0381 11.2604 10.344 11.1785 10.5831 11.3166L10.7362 11.405C10.9335 11.519 11.1796 11.4794 11.3675 11.3504C11.452 11.2924 11.5412 11.2407 11.6344 11.196C11.8402 11.0974 11.9982 10.9039 11.9982 10.6757V10.5ZM12.4982 14C13.0505 14 13.4982 13.5523 13.4982 13C13.4982 12.4477 13.0505 12 12.4982 12C11.9459 12 11.4982 12.4477 11.4982 13C11.4982 13.5523 11.9459 14 12.4982 14Z" fill="black"/>
</g>
</g>
<defs>
<clipPath id="clip0">
<rect width="16" height="16" fill="white"/>
</clipPath>
</defs>
</svg>
