<svg width="24" height="24" viewBox="0 0 24 24" fill="none" xmlns="http://www.w3.org/2000/svg">
<g opacity="0.9">
<path fill-rule="evenodd" clip-rule="evenodd" d="M11.1478 1.02576C10.9457 0.958263 10.7229 1.02637 10.593 1.19539L3.04019 11.0249C3.0311 11.0368 3.02254 11.049 3.01455 11.0616C2.60045 11.7138 2.40867 12.442 2.54188 13.2087C2.65633 13.8673 3.00253 14.5079 3.56993 15.1211C3.29593 15.6796 3.1851 16.285 3.29485 16.9166C3.42674 17.6757 3.8664 18.4107 4.59769 19.1075C4.64447 19.1521 4.69945 19.1872 4.75958 19.2108L14.3053 22.9653C14.5623 23.0664 14.8525 22.94 14.9536 22.683C15.0547 22.4261 14.9283 22.1358 14.6713 22.0347L5.21867 18.3168C4.63935 17.7456 4.3618 17.2157 4.28009 16.7454C4.21741 16.3847 4.26392 16.0251 4.41965 15.6653L13.5523 19.2574C13.707 19.3182 13.8738 19.2966 14.0041 19.2137C14.0014 19.1428 14.0001 19.0716 14.0001 19C14.0001 18.794 14.0114 18.5906 14.0335 18.3905C13.9989 18.3649 13.9603 18.3433 13.9183 18.3268L4.46571 14.6088C3.88639 14.0376 3.60883 13.5077 3.52712 13.0375C3.46401 12.6743 3.5116 12.3122 3.66989 11.95L12.8821 15.3801C13.0999 15.4612 13.3449 15.3816 13.4733 15.1878L19.1963 6.55447C19.2053 6.61335 19.2157 6.67199 19.2273 6.73043C19.3517 7.35554 19.6172 7.94254 19.9057 8.53365L16.1686 14.1969C16.0746 14.3393 16.0629 14.5121 16.1221 14.6593C16.5669 14.3126 17.0664 14.0328 17.6055 13.835L19.7166 10.6358C19.7254 10.6925 19.7355 10.749 19.7467 10.8053C19.871 11.4303 20.1365 12.0172 20.425 12.6083L20.0636 13.1552C19.9894 13.2675 19.9664 13.3988 19.989 13.5214C20.3056 13.5493 20.6144 13.604 20.9133 13.6832L21.4172 12.9205C21.5152 12.7722 21.5271 12.5831 21.4485 12.4237C21.1022 11.7218 20.8397 11.1744 20.7275 10.6102C20.6202 10.0708 20.6483 9.49579 20.9448 8.75612C20.9977 8.62429 20.992 8.47621 20.9292 8.34884C20.5829 7.64698 20.3203 7.09962 20.2081 6.53539C20.1009 5.99602 20.129 5.42097 20.4255 4.68131C20.4768 4.55346 20.473 4.41014 20.4152 4.28515C20.3573 4.16017 20.2504 4.06459 20.1198 4.02097L11.1478 1.02576ZM12.4234 4.62973L15.6485 5.66956C15.7792 5.71172 15.8295 5.87014 15.747 5.98L14.9971 6.97864C14.8664 7.15278 14.638 7.22226 14.4324 7.15042L11.2621 6.04257C11.134 5.99783 11.0867 5.84131 11.1685 5.73313L11.8712 4.80402C11.9995 4.63439 12.221 4.56447 12.4234 4.62973Z" fill="black"/>
<path fill-rule="evenodd" clip-rule="evenodd" d="M20.3642 15.2C20.3642 15.0895 20.2746 15 20.1642 15H18.9642C18.8537 15 18.7642 15.0895 18.7642 15.2V16.0258C18.7642 16.1153 18.7045 16.1932 18.6197 16.222C18.252 16.347 17.917 16.543 17.6312 16.7936C17.5639 16.8526 17.4666 16.8653 17.3891 16.8206L16.6733 16.4073C16.5776 16.3521 16.4553 16.3848 16.4001 16.4805L15.8001 17.5197C15.7449 17.6154 15.7776 17.7377 15.8733 17.7929L16.5887 18.206C16.6661 18.2507 16.7037 18.3412 16.6864 18.4289C16.65 18.6136 16.6309 18.8046 16.6309 19C16.6309 19.1955 16.65 19.3865 16.6865 19.5713C16.7038 19.659 16.6661 19.7495 16.5887 19.7942L15.8733 20.2073C15.7776 20.2625 15.7449 20.3848 15.8001 20.4805L16.4001 21.5197C16.4553 21.6154 16.5776 21.6482 16.6733 21.5929L17.3893 21.1796C17.4668 21.1348 17.564 21.1475 17.6313 21.2065C17.9171 21.4571 18.252 21.653 18.6197 21.778C18.7045 21.8068 18.7642 21.8847 18.7642 21.9742V22.8C18.7642 22.9105 18.8537 23 18.9642 23H20.1642C20.2746 23 20.3642 22.9105 20.3642 22.8V21.9742C20.3642 21.8847 20.4239 21.8068 20.5086 21.778C20.8763 21.653 21.2113 21.4571 21.4971 21.2065C21.5643 21.1475 21.6616 21.1348 21.7391 21.1796L22.4551 21.5929C22.5507 21.6482 22.6731 21.6154 22.7283 21.5197L23.3283 20.4805C23.3835 20.3848 23.3507 20.2625 23.2551 20.2073L22.5397 19.7943C22.4623 19.7496 22.4246 19.659 22.4419 19.5713C22.4784 19.3865 22.4975 19.1955 22.4975 19C22.4975 18.8046 22.4784 18.6136 22.442 18.4289C22.4247 18.3412 22.4623 18.2506 22.5397 18.2059L23.2551 17.7929C23.3507 17.7377 23.3835 17.6154 23.3283 17.5197L22.7283 16.4805C22.6731 16.3848 22.5507 16.3521 22.4551 16.4073L21.7393 16.8206C21.6618 16.8653 21.5645 16.8526 21.4972 16.7936C21.2114 16.543 20.8764 16.347 20.5086 16.222C20.4239 16.1932 20.3642 16.1153 20.3642 16.0258V15.2ZM20.6101 19C20.6101 19.5523 20.1623 20 19.6101 20C19.0578 20 18.6101 19.5523 18.6101 19C18.6101 18.4477 19.0578 18 19.6101 18C20.1623 18 20.6101 18.4477 20.6101 19Z" fill="black"/>
</g>
</svg>
