<svg width="32" height="32" viewBox="0 0 32 32" fill="none" xmlns="http://www.w3.org/2000/svg">
<g opacity="0.9">
<path fill-rule="evenodd" clip-rule="evenodd" d="M27.2071 17.7071C27.5976 17.3166 27.5976 16.6834 27.2071 16.2929L16.7071 5.79289C16.3166 5.40237 15.6834 5.40237 15.2929 5.79289L4.79289 16.2929C4.40237 16.6834 4.40237 17.3166 4.79289 17.7071C5.18342 18.0976 5.81658 18.0976 6.20711 17.7071L16 7.91421L25.7929 17.7071C26.1834 18.0976 26.8166 18.0976 27.2071 17.7071Z" fill="black"/>
<path fill-rule="evenodd" clip-rule="evenodd" d="M27.2071 25.7071C27.5976 25.3166 27.5976 24.6834 27.2071 24.2929L16.7071 13.7929C16.3166 13.4024 15.6834 13.4024 15.2929 13.7929L4.79289 24.2929C4.40237 24.6834 4.40237 25.3166 4.79289 25.7071C5.18342 26.0976 5.81658 26.0976 6.20711 25.7071L16 15.9142L25.7929 25.7071C26.1834 26.0976 26.8166 26.0976 27.2071 25.7071Z" fill="black"/>
</g>
</svg>
