<svg width="16" height="16" viewBox="0 0 16 16" fill="none" xmlns="http://www.w3.org/2000/svg">
<g opacity="0.9">
<path fill-rule="evenodd" clip-rule="evenodd" d="M2.14645 12.8536C1.95118 12.6583 1.95118 12.3417 2.14645 12.1464L7.64645 6.64645C7.84171 6.45118 8.15829 6.45118 8.35355 6.64645L13.8536 12.1464C14.0488 12.3417 14.0488 12.6583 13.8536 12.8536C13.6583 13.0488 13.3417 13.0488 13.1464 12.8536L8 7.70711L2.85355 12.8536C2.65829 13.0488 2.34171 13.0488 2.14645 12.8536Z" fill="black"/>
<path fill-rule="evenodd" clip-rule="evenodd" d="M2.14645 8.85355C1.95118 8.65829 1.95118 8.34171 2.14645 8.14645L7.64645 2.64645C7.84171 2.45118 8.15829 2.45118 8.35355 2.64645L13.8536 8.14645C14.0488 8.34171 14.0488 8.65829 13.8536 8.85355C13.6583 9.04881 13.3417 9.04881 13.1464 8.85355L8 3.70711L2.85355 8.85355C2.65829 9.04882 2.34171 9.04882 2.14645 8.85355Z" fill="black"/>
</g>
</svg>
