<svg width="32" height="32" viewBox="0 0 32 32" fill="none" xmlns="http://www.w3.org/2000/svg">
<g opacity="0.9">
<path fill-rule="evenodd" clip-rule="evenodd" d="M26.8536 17.3536C27.0488 17.1583 27.0488 16.8417 26.8536 16.6464L16.3536 6.14645C16.1583 5.95118 15.8417 5.95118 15.6464 6.14645L5.14645 16.6464C4.95118 16.8417 4.95118 17.1583 5.14645 17.3536C5.34171 17.5488 5.65829 17.5488 5.85355 17.3536L16 7.20711L26.1464 17.3536C26.3417 17.5488 26.6583 17.5488 26.8536 17.3536Z" fill="black"/>
<path fill-rule="evenodd" clip-rule="evenodd" d="M26.8536 25.3536C27.0488 25.1583 27.0488 24.8417 26.8536 24.6464L16.3536 14.1464C16.1583 13.9512 15.8417 13.9512 15.6464 14.1464L5.14645 24.6464C4.95118 24.8417 4.95118 25.1583 5.14645 25.3536C5.34171 25.5488 5.65829 25.5488 5.85355 25.3536L16 15.2071L26.1464 25.3536C26.3417 25.5488 26.6583 25.5488 26.8536 25.3536Z" fill="black"/>
</g>
</svg>
