<svg width="24" height="24" viewBox="0 0 24 24" fill="none" xmlns="http://www.w3.org/2000/svg">
<g opacity="0.9">
<path d="M19.3554 6.36207C19.1554 6.17163 19.1477 5.85514 19.3381 5.65517C19.5286 5.45521 19.845 5.44749 20.045 5.63793L23.2252 8.66667L20.045 11.6954C19.845 11.8858 19.5286 11.8781 19.3381 11.6782C19.1477 11.4782 19.1554 11.1617 19.3554 10.9713L21.2502 9.16667H21.1002C20.2421 9.16667 18.9474 9.41577 17.8829 10.1457C16.845 10.8574 16.0002 12.0401 16.0002 14C16.0002 14.2761 15.7763 14.5 15.5002 14.5C15.224 14.5 15.0002 14.2761 15.0002 14C15.0002 11.6932 16.022 10.2092 17.3174 9.32097C18.5863 8.4509 20.0916 8.16667 21.1002 8.16667H21.2502L19.3554 6.36207Z" fill="black"/>
<path fill-rule="evenodd" clip-rule="evenodd" d="M18.614 12.3678C18.2911 12.0288 18.1581 11.578 18.2118 11.147C17.5377 11.6947 17.0002 12.5529 17.0002 14C17.0002 14.8284 16.3286 15.5 15.5002 15.5C14.6718 15.5 14.0002 14.8284 14.0002 14C14.0002 11.3461 15.1992 9.56092 16.7519 8.49624C17.4902 7.98999 18.2894 7.65724 19.049 7.45124L18.6657 7.08621C18.3562 6.79147 18.2002 6.3961 18.2002 6H7.27814C6.65266 6 6.04991 6.23446 5.58883 6.65711L1.77065 10.1571C0.689731 11.148 0.689732 12.852 1.77065 13.8429L5.58883 17.3429C6.04991 17.7655 6.65266 18 7.27814 18H19.5002C20.8809 18 22.0002 16.8807 22.0002 15.5L22.0002 11.2143L20.7347 12.4195C20.1348 12.9909 19.1853 12.9677 18.614 12.3678ZM5.00018 13C5.55247 13 6.00018 12.5523 6.00018 12C6.00018 11.4477 5.55247 11 5.00018 11C4.4479 11 4.00018 11.4477 4.00018 12C4.00018 12.5523 4.4479 13 5.00018 13Z" fill="black"/>
</g>
</svg>
