<svg width="24" height="24" viewBox="0 0 24 24" fill="none" xmlns="http://www.w3.org/2000/svg">
<g opacity="0.9">
<path d="M19.3381 5.65517C19.1477 5.85514 19.1554 6.17163 19.3554 6.36207L21.2502 8.16667H21.1002C20.0916 8.16667 18.5863 8.4509 17.3174 9.32097C16.0221 10.2092 15.0002 11.6932 15.0002 14C15.0002 14.2761 15.224 14.5 15.5002 14.5C15.7763 14.5 16.0002 14.2761 16.0002 14C16.0002 12.0401 16.845 10.8574 17.883 10.1457C18.9474 9.41577 20.2421 9.16667 21.1002 9.16667H21.2502L19.3554 10.9713C19.1554 11.1617 19.1477 11.4782 19.3381 11.6782C19.5286 11.8781 19.8451 11.8858 20.045 11.6954L23.2252 8.66667L20.045 5.63793C19.8451 5.44749 19.5286 5.45521 19.3381 5.65517Z" fill="black"/>
<path d="M7.27814 7C6.90285 7 6.5412 7.14068 6.26456 7.39427L2.44637 10.8943C1.79782 11.4888 1.79782 12.5112 2.44637 13.1057L6.26456 16.6057C6.5412 16.8593 6.90285 17 7.27814 17H19.5002C20.3286 17 21.0002 16.3284 21.0002 15.5V13C21.0002 12.7239 21.224 12.5 21.5002 12.5C21.7763 12.5 22.0002 12.7239 22.0002 13V15.5C22.0002 16.8807 20.8809 18 19.5002 18H7.27814C6.65266 18 6.04991 17.7655 5.58883 17.3429L1.77065 13.8429C0.689732 12.852 0.689731 11.148 1.77065 10.1571L5.58883 6.65711C6.04991 6.23446 6.65266 6 7.27814 6H16.5002C16.7763 6 17.0002 6.22386 17.0002 6.5C17.0002 6.77614 16.7763 7 16.5002 7H7.27814Z" fill="black"/>
<path d="M6.00018 12C6.00018 12.5523 5.55247 13 5.00018 13C4.4479 13 4.00018 12.5523 4.00018 12C4.00018 11.4477 4.4479 11 5.00018 11C5.55247 11 6.00018 11.4477 6.00018 12Z" fill="black"/>
</g>
</svg>
