<svg width="16" height="16" viewBox="0 0 16 16" fill="none" xmlns="http://www.w3.org/2000/svg">
<path opacity="0.9" fill-rule="evenodd" clip-rule="evenodd" d="M1 8C1 4.13444 4.13444 1 8 1C11.8656 1 15 3.78444 15 7.22222C15 9.36889 13.2578 11.1111 11.1111 11.1111H9.73444C9.08889 11.1111 8.56778 11.6322 8.56778 12.2778C8.56778 12.5733 8.68444 12.8456 8.86333 13.0478C9.05 13.2578 9.16667 13.53 9.16667 13.8333C9.16667 14.4789 8.64556 15 8 15C4.13444 15 1 11.8656 1 8ZM5 8C5.55228 8 6 7.55228 6 7C6 6.44772 5.55228 6 5 6C4.44772 6 4 6.44772 4 7C4 7.55228 4.44772 8 5 8ZM9 5C9 5.55228 8.55229 6 8 6C7.44772 6 7 5.55228 7 5C7 4.44772 7.44772 4 8 4C8.55229 4 9 4.44772 9 5ZM11 8C11.5523 8 12 7.55228 12 7C12 6.44772 11.5523 6 11 6C10.4477 6 10 6.44772 10 7C10 7.55228 10.4477 8 11 8Z" fill="black"/>
</svg>
