<svg width="33" height="32" viewBox="0 0 33 32" fill="none" xmlns="http://www.w3.org/2000/svg">
<g opacity="0.9">
<path d="M17.0352 18C17.0352 18.3701 16.8341 18.6933 16.5352 18.8662V19.5C16.5352 19.7761 16.3113 20 16.0352 20C15.759 20 15.5352 19.7761 15.5352 19.5V18.8662C15.2363 18.6933 15.0352 18.3701 15.0352 18C15.0352 17.4477 15.4829 17 16.0352 17C16.5874 17 17.0352 17.4477 17.0352 18Z" fill="black"/>
<path fill-rule="evenodd" clip-rule="evenodd" d="M9.03516 17C9.03516 15.6938 9.86997 14.5825 11.0352 14.1707V10.5C11.0352 8.567 12.6022 7 14.5352 7H17.5352C19.4682 7 21.0352 8.567 21.0352 10.5V10.8C21.0352 11.0761 20.8113 11.3 20.5352 11.3C20.259 11.3 20.0352 11.0761 20.0352 10.8V10.5C20.0352 9.11929 18.9159 8 17.5352 8H14.5352C13.1544 8 12.0352 9.11929 12.0352 10.5V14H20.0352C21.692 14 23.0352 15.3431 23.0352 17V21C23.0352 22.1046 22.1397 23 21.0352 23H11.0352C9.93059 23 9.03516 22.1046 9.03516 21V17ZM10.0352 17C10.0352 15.8954 10.9306 15 12.0352 15H20.0352C21.1397 15 22.0352 15.8954 22.0352 17V21C22.0352 21.5523 21.5874 22 21.0352 22H11.0352C10.4829 22 10.0352 21.5523 10.0352 21V17Z" fill="black"/>
<path fill-rule="evenodd" clip-rule="evenodd" d="M16.0352 28C22.6626 28 28.0352 22.6274 28.0352 16C28.0352 9.37258 22.6626 4 16.0352 4C9.40774 4 4.03516 9.37259 4.03516 16C4.03516 22.6274 9.40774 28 16.0352 28ZM27.0352 16C27.0352 22.0751 22.1103 27 16.0352 27C9.96003 27 5.03516 22.0751 5.03516 16C5.03516 9.92487 9.96002 5 16.0352 5C22.1103 5 27.0352 9.92487 27.0352 16Z" fill="black"/>
</g>
</svg>
