<svg width="25" height="24" viewBox="0 0 25 24" fill="none" xmlns="http://www.w3.org/2000/svg">
<g opacity="0.9">
<path d="M12.5352 13.8662C12.8341 13.6933 13.0352 13.3701 13.0352 13C13.0352 12.4477 12.5874 12 12.0352 12C11.4829 12 11.0352 12.4477 11.0352 13C11.0352 13.3701 11.2363 13.6933 11.5352 13.8662V14.5C11.5352 14.7761 11.759 15 12.0352 15C12.3113 15 12.5352 14.7761 12.5352 14.5V13.8662Z" fill="black"/>
<path fill-rule="evenodd" clip-rule="evenodd" d="M2.03516 12C2.03516 6.47715 6.51231 2 12.0352 2C17.558 2 22.0352 6.47715 22.0352 12C22.0352 17.5228 17.558 22 12.0352 22C6.51231 22 2.03516 17.5228 2.03516 12ZM11.0352 4.5C9.65444 4.5 8.53516 5.61929 8.53516 7V10C8.53516 10.021 8.53645 10.0417 8.53897 10.062C7.67442 10.2827 7.03516 11.0667 7.03516 12V16C7.03516 16.5523 7.48287 17 8.03516 17H16.0352C16.5874 17 17.0352 16.5523 17.0352 16V12C17.0352 10.8954 16.1397 10 15.0352 10H9.53516V7C9.53516 6.17157 10.2067 5.5 11.0352 5.5H13.0352C13.8636 5.5 14.5352 6.17157 14.5352 7V8C14.5352 8.27614 14.759 8.5 15.0352 8.5C15.3113 8.5 15.5352 8.27614 15.5352 8V7C15.5352 5.61929 14.4159 4.5 13.0352 4.5H11.0352Z" fill="black"/>
</g>
</svg>
