<svg width="16" height="16" viewBox="0 0 16 16" fill="none" xmlns="http://www.w3.org/2000/svg">
<g opacity="0.9">
<path fill-rule="evenodd" clip-rule="evenodd" d="M5 7C4.44772 7 4 7.44772 4 8V11.5C4 11.7761 4.22386 12 4.5 12H10.5C10.7761 12 11 11.7761 11 11.5V8C11 7.44772 10.5523 7 10 7H6V5.5C6 5.22386 6.22386 5 6.5 5H8.5C8.77614 5 9 5.22386 9 5.5V5.5593C9 5.83545 9.22386 6.0593 9.5 6.0593C9.77614 6.0593 10 5.83545 10 5.5593V5.5C10 4.67157 9.32843 4 8.5 4H6.5C5.67157 4 5 4.67157 5 5.5V7ZM5 8V11H10V8H5Z" fill="black"/>
<path fill-rule="evenodd" clip-rule="evenodd" d="M0.5 8.5C0.5 4.63401 3.63401 1.5 7.5 1.5C11.366 1.5 14.5 4.63401 14.5 8.5C14.5 12.366 11.366 15.5 7.5 15.5C3.63401 15.5 0.5 12.366 0.5 8.5ZM7.5 2.5C4.18629 2.5 1.5 5.18629 1.5 8.5C1.5 11.8137 4.18629 14.5 7.5 14.5C10.8137 14.5 13.5 11.8137 13.5 8.5C13.5 5.18629 10.8137 2.5 7.5 2.5Z" fill="black"/>
</g>
</svg>
