<svg width="32" height="32" viewBox="0 0 32 32" fill="none" xmlns="http://www.w3.org/2000/svg">
<g opacity="0.9">
<path fill-rule="evenodd" clip-rule="evenodd" d="M12 5.5H6.5C5.39543 5.5 4.5 6.39543 4.5 7.5V9.5H27.5V7.5C27.5 6.39543 26.6046 5.5 25.5 5.5H20V4.5C20 3.67157 19.3284 3 18.5 3H13.5C12.6716 3 12 3.67157 12 4.5V5.5ZM13 4.5C13 4.22386 13.2239 4 13.5 4H18.5C18.7761 4 19 4.22386 19 4.5V5.5H13V4.5Z" fill="black"/>
<path d="M11 11V22.5C11 22.7761 11.2239 23 11.5 23H12.5C12.7761 23 13 22.7761 13 22.5L13 11H19L19 22.5C19 22.7761 19.2239 23 19.5 23H20.5C20.7761 23 21 22.7761 21 22.5L21 11H25.5C25.7761 11 26 11.2239 26 11.5V25.5C26 26.8807 24.8807 28 23.5 28H8.5C7.11929 28 6 26.8807 6 25.5V11.5C6 11.2239 6.22386 11 6.5 11H11Z" fill="black"/>
</g>
</svg>
