<svg width="16" height="16" viewBox="0 0 16 16" fill="none" xmlns="http://www.w3.org/2000/svg">
<path opacity="0.9" fill-rule="evenodd" clip-rule="evenodd" d="M5.5 3V2.5C5.5 1.67157 6.17157 1 7 1H9C9.82843 1 10.5 1.67157 10.5 2.5V3H12.5C13.3284 3 14 3.67157 14 4.5V5.5C14 5.77614 13.7761 6 13.5 6H13V13.5C13 14.3284 12.3284 15 11.5 15H4.5C3.67157 15 3 14.3284 3 13.5V6H2.5C2.22386 6 2 5.77614 2 5.5V4.5C2 3.67157 2.67157 3 3.5 3H5.5ZM6.5 2.5C6.5 2.22386 6.72386 2 7 2H9C9.27614 2 9.5 2.22386 9.5 2.5V3H6.5V2.5ZM3.5 4C3.22386 4 3 4.22386 3 4.5V5H13V4.5C13 4.22386 12.7761 4 12.5 4H3.5ZM12 13.5V6H10V12.5C10 12.7761 9.77614 13 9.5 13C9.22386 13 9 12.7761 9 12.5V6H7V12.5C7 12.7761 6.77614 13 6.5 13C6.22386 13 6 12.7761 6 12.5L6 6H4V13.5C4 13.7761 4.22386 14 4.5 14H11.5C11.7761 14 12 13.7761 12 13.5Z" fill="black"/>
</svg>
