<svg width="24" height="24" viewBox="0 0 24 24" fill="none" xmlns="http://www.w3.org/2000/svg">
<path opacity="0.9" fill-rule="evenodd" clip-rule="evenodd" d="M9 4V3.5C9 2.67157 9.67157 2 10.5 2H13.5C14.3284 2 15 2.67157 15 3.5V4H19.5C20.3284 4 21 4.67157 21 5.5V7.5C21 7.77614 20.7761 8 20.5 8H20V19.5C20 20.8807 18.8807 22 17.5 22H6.5C5.11929 22 4 20.8807 4 19.5V8H3.5C3.22386 8 3 7.77614 3 7.5V5.5C3 4.67157 3.67157 4 4.5 4H9ZM10 3.5C10 3.22386 10.2239 3 10.5 3H13.5C13.7761 3 14 3.22386 14 3.5V4H10V3.5ZM4.5 5C4.22386 5 4 5.22386 4 5.5V7H20V5.5C20 5.22386 19.7761 5 19.5 5H4.5ZM9 18.5L9 8H5V19.5C5 20.3284 5.67157 21 6.5 21H17.5C18.3284 21 19 20.3284 19 19.5V8H15L15 18.5C15 18.7761 14.7761 19 14.5 19C14.2239 19 14 18.7761 14 18.5L14 8H10L10 18.5C10 18.7761 9.77614 19 9.5 19C9.22386 19 9 18.7761 9 18.5Z" fill="black"/>
</svg>
