<svg width="16" height="16" viewBox="0 0 16 16" fill="none" xmlns="http://www.w3.org/2000/svg">
<g opacity="0.9">
<path d="M4 1.5C4 1.22386 4.22386 1 4.5 1H11.5C11.7761 1 12 1.22386 12 1.5C12 1.77614 11.7761 2 11.5 2H4.5C4.22386 2 4 1.77614 4 1.5Z" fill="black"/>
<path d="M3 3.5C3 3.22386 3.22386 3 3.5 3H12.5C12.7761 3 13 3.22386 13 3.5C13 3.77614 12.7761 4 12.5 4H3.5C3.22386 4 3 3.77614 3 3.5Z" fill="black"/>
<path fill-rule="evenodd" clip-rule="evenodd" d="M3.5 5C2.11929 5 1 6.11929 1 7.5V12.5C1 13.8807 2.11929 15 3.5 15H12.5C13.8807 15 15 13.8807 15 12.5V7.5C15 6.11929 13.8807 5 12.5 5H3.5ZM10 9.73205C10.3333 9.9245 10.3333 10.4056 10 10.5981L7.75 11.8971C7.41667 12.0896 7 11.849 7 11.4641V8.86603C7 8.48113 7.41667 8.24056 7.75 8.43301L10 9.73205Z" fill="black"/>
</g>
</svg>
