<svg width="24" height="24" viewBox="0 0 24 24" fill="none" xmlns="http://www.w3.org/2000/svg">
<path opacity="0.9" fill-rule="evenodd" clip-rule="evenodd" d="M8.53848 7.84192C7.3621 7.82217 5.87595 8.28021 3.80246 9.8554C3.58257 10.0224 3.2689 9.97961 3.10185 9.75972C2.93481 9.53983 2.97765 9.22616 3.19754 9.05912C5.37404 7.40566 7.07539 6.81722 8.55526 6.84206C10.0045 6.86639 11.1591 7.48351 12.1995 8.03966L12.2357 8.05897C13.3108 8.63354 14.2713 9.13796 15.4615 9.15791C16.6379 9.17763 18.124 8.71954 20.1975 7.14427C20.4174 6.97722 20.7311 7.02005 20.8981 7.23994C21.0652 7.45982 21.0224 7.77349 20.8025 7.94054C18.626 9.59407 16.9246 10.1826 15.4447 10.1578C13.9954 10.1335 12.8409 9.51634 11.8004 8.96019L11.7643 8.94092C10.6892 8.36634 9.72866 7.8619 8.53848 7.84192ZM8.53848 14.842C7.3621 14.8223 5.87595 15.2803 3.80246 16.8555C3.58257 17.0226 3.2689 16.9797 3.10185 16.7598C2.93481 16.5399 2.97765 16.2263 3.19754 16.0592C5.37404 14.4058 7.07539 13.8173 8.55526 13.8422C10.0045 13.8665 11.1591 14.4836 12.1995 15.0398L12.2357 15.0591C13.3108 15.6336 14.2713 16.1381 15.4615 16.158C16.6379 16.1777 18.124 15.7197 20.1975 14.1444C20.4174 13.9773 20.7311 14.0202 20.8981 14.24C21.0652 14.4599 21.0224 14.7736 20.8025 14.9407C18.626 16.5942 16.9246 17.1827 15.4447 17.1579C13.9954 17.1336 12.8409 16.5165 11.8004 15.9603L11.7643 15.941C10.6892 15.3665 9.72866 14.862 8.53848 14.842Z" fill="black"/>
</svg>
