<svg width="16" height="16" viewBox="0 0 16 16" fill="none" xmlns="http://www.w3.org/2000/svg">
<path opacity="0.9" fill-rule="evenodd" clip-rule="evenodd" d="M7.99993 13.2347L11.4719 9.76267C11.8215 9.4131 12.3883 9.4131 12.7378 9.76267C13.0874 10.1122 13.0874 10.679 12.7378 11.0286L8.63288 15.1335C8.28331 15.4831 7.71655 15.4831 7.36698 15.1335L3.26218 11.0287C2.91261 10.6791 2.91261 10.1124 3.26218 9.7628C3.61175 9.41323 4.17851 9.41323 4.52808 9.7628L7.99993 13.2347Z" fill="black"/>
<path opacity="0.9" fill-rule="evenodd" clip-rule="evenodd" d="M7.99993 2.76584L11.4719 6.23782C11.8215 6.58739 12.3883 6.58739 12.7378 6.23782C13.0874 5.88825 13.0874 5.32149 12.7378 4.97192L8.63288 0.866982C8.28331 0.517412 7.71655 0.517412 7.36698 0.866982L3.26218 4.97178C2.91261 5.32135 2.91261 5.88812 3.26218 6.23769C3.61175 6.58726 4.17851 6.58726 4.52808 6.23769L7.99993 2.76584Z" fill="black"/>
</svg>
