<svg width="32" height="32" viewBox="0 0 32 32" fill="none" xmlns="http://www.w3.org/2000/svg">
<path opacity="0.9" fill-rule="evenodd" clip-rule="evenodd" d="M24.4583 18.7343C24.7707 19.0467 24.7707 19.5533 24.4583 19.8657L16.0583 28.2657C15.7459 28.5781 15.2394 28.5781 14.9269 28.2657L6.52694 19.8657C6.21452 19.5533 6.21452 19.0467 6.52694 18.7343C6.83936 18.4219 7.34589 18.4219 7.65831 18.7343L15.4926 26.5686L23.3269 18.7343C23.6394 18.4219 24.1459 18.4219 24.4583 18.7343Z" fill="black"/>
<path opacity="0.9" fill-rule="evenodd" clip-rule="evenodd" d="M24.4583 13.2657C24.7707 12.9533 24.7707 12.4467 24.4583 12.1343L16.0583 3.73431C15.7459 3.42189 15.2394 3.42189 14.9269 3.73431L6.52694 12.1343C6.21452 12.4467 6.21452 12.9533 6.52694 13.2657C6.83936 13.5781 7.34589 13.5781 7.65831 13.2657L15.4926 5.43137L23.3269 13.2657C23.6394 13.5781 24.1459 13.5781 24.4583 13.2657Z" fill="black"/>
</svg>
