<svg width="24" height="24" viewBox="0 0 24 24" fill="none" xmlns="http://www.w3.org/2000/svg">
<path opacity="0.9" fill-rule="evenodd" clip-rule="evenodd" d="M19.3627 14.1373C19.5458 14.3204 19.5458 14.6171 19.3627 14.8002L12.3315 21.8315C12.2435 21.9194 12.1243 21.9687 12 21.9687C11.8757 21.9687 11.7565 21.9194 11.6685 21.8315L4.63729 14.8002C4.45424 14.6171 4.45424 14.3204 4.63729 14.1373C4.82035 13.9542 5.11715 13.9542 5.30021 14.1373L12 20.8371L18.6998 14.1373C18.8829 13.9542 19.1796 13.9542 19.3627 14.1373Z" fill="black"/>
<path opacity="0.9" fill-rule="evenodd" clip-rule="evenodd" d="M19.3627 9.86271C19.5458 9.67965 19.5458 9.38285 19.3627 9.19979L12.3315 2.16854C12.2435 2.08064 12.1243 2.03125 12 2.03125C11.8757 2.03125 11.7565 2.08064 11.6685 2.16854L4.63729 9.19979C4.45424 9.38285 4.45424 9.67965 4.63729 9.86271C4.82035 10.0458 5.11715 10.0458 5.30021 9.86271L12 3.16291L18.6998 9.86271C18.8829 10.0458 19.1796 10.0458 19.3627 9.86271Z" fill="black"/>
</svg>
