<svg width="16" height="16" viewBox="0 0 16 16" fill="none" xmlns="http://www.w3.org/2000/svg">
<g opacity="0.9">
<path d="M8.83798 9.18452C8.82378 9.63896 8.45128 10 7.99662 10C7.54154 10 7.16886 9.63831 7.15523 9.18343L7.02991 4.9989C7.01354 4.45213 7.45233 4 7.99935 4C8.54686 4 8.98585 4.45291 8.96875 5.00016L8.83798 9.18452Z" fill="black"/>
<path d="M9 12C9 12.5523 8.55228 13 8 13C7.44772 13 7 12.5523 7 12C7 11.4477 7.44772 11 8 11C8.55228 11 9 11.4477 9 12Z" fill="black"/>
<path fill-rule="evenodd" clip-rule="evenodd" d="M1 5.10071L5.10071 1H10.8993L15 5.10071V10.8997L10.8997 15H5.1003L1 10.8997V5.10071ZM2 10.4855V5.51492L5.51492 2H10.4851L14 5.51492V10.4855L10.4855 14H5.51452L2 10.4855Z" fill="black"/>
</g>
</svg>
