<svg width="16" height="16" viewBox="0 0 16 16" fill="none" xmlns="http://www.w3.org/2000/svg">
<path opacity="0.9" d="M1.5 10.6926V5.30781L5.30781 1.5H10.6922L14.5 5.30781V10.6926L10.6926 14.5H5.30741L1.5 10.6926ZM7.99662 10.5C8.72135 10.5 9.3151 9.92451 9.33774 9.20014L9.4685 5.01578C9.49442 4.18641 8.82913 3.5 7.99935 3.5C7.17032 3.5 6.50532 4.18522 6.53014 5.01387L6.65546 9.1984C6.67717 9.92347 7.27123 10.5 7.99662 10.5ZM8 13.5C8.82843 13.5 9.5 12.8284 9.5 12C9.5 11.1716 8.82843 10.5 8 10.5C7.17157 10.5 6.5 11.1716 6.5 12C6.5 12.8284 7.17157 13.5 8 13.5Z" fill="black" stroke="black"/>
</svg>
