<svg width="24" height="24" viewBox="0 0 24 24" fill="none" xmlns="http://www.w3.org/2000/svg">
<path opacity="0.9" d="M2.5 15.9353V8.06526L8.06526 2.5H15.9347L21.5 8.06526V15.9353L15.9353 21.5H8.06468L2.5 15.9353ZM11.9965 15.5C12.7218 15.5 13.3145 14.921 13.3315 14.1959L13.4764 8.01193C13.4959 7.18271 12.829 6.5 11.9995 6.5C11.1706 6.5 10.504 7.18181 10.5226 8.01049L10.6615 14.1946C10.6778 14.9203 11.2707 15.5 11.9965 15.5ZM12 18.5C12.8284 18.5 13.5 17.8284 13.5 17C13.5 16.1716 12.8284 15.5 12 15.5C11.1716 15.5 10.5 16.1716 10.5 17C10.5 17.8284 11.1716 18.5 12 18.5Z" fill="black" stroke="black"/>
</svg>
