<svg width="24" height="24" viewBox="0 0 24 24" fill="none" xmlns="http://www.w3.org/2000/svg">
<g opacity="0.9">
<path d="M12.8316 14.1842C12.821 14.6378 12.4502 15 11.9965 15C11.5424 15 11.1715 14.6373 11.1613 14.1834L11.0224 7.99926C11.0101 7.45105 11.4512 7 11.9995 7C12.5482 7 12.9894 7.45164 12.9766 8.00021L12.8316 14.1842Z" fill="black"/>
<path d="M13 17C13 17.5523 12.5523 18 12 18C11.4477 18 11 17.5523 11 17C11 16.4477 11.4477 16 12 16C12.5523 16 13 16.4477 13 17Z" fill="black"/>
<path fill-rule="evenodd" clip-rule="evenodd" d="M2 7.85815L7.85815 2H16.1418L22 7.85815V16.1424L16.1424 22H7.85757L2 16.1424V7.85815ZM3 15.7282V8.27237L8.27237 3H15.7276L21 8.27237V15.7282L15.7282 21H8.27179L3 15.7282Z" fill="black"/>
</g>
</svg>
