<svg width="32" height="32" viewBox="0 0 32 32" fill="none" xmlns="http://www.w3.org/2000/svg">
<path opacity="0.9" d="M4.5 20.7638V11.2369L11.2369 4.5H20.7631L27.5 11.2369V20.7638L20.7638 27.5H11.2362L4.5 20.7638ZM16.2465 19.5C17.0585 19.5 17.7231 18.8539 17.7459 18.0422L17.9709 10.0422C17.9946 9.19756 17.3164 8.5 16.4715 8.5H15.5273C14.6831 8.5 14.0051 9.19647 14.0279 10.0404L14.2435 18.0404C14.2654 18.8528 14.9303 19.5 15.7429 19.5H16.2465ZM16 24.5C17.1046 24.5 18 23.6046 18 22.5C18 21.3954 17.1046 20.5 16 20.5C14.8954 20.5 14 21.3954 14 22.5C14 23.6046 14.8954 24.5 16 24.5Z" fill="black" stroke="black"/>
</svg>
