<svg width="16" height="16" viewBox="0 0 16 16" fill="none" xmlns="http://www.w3.org/2000/svg">
<path opacity="0.9" fill-rule="evenodd" clip-rule="evenodd" d="M1 8C1 4.13401 4.13401 1 8 1C11.866 1 15 4.13401 15 8C15 11.866 11.866 15 8 15C4.13401 15 1 11.866 1 8ZM8.85069 7.18529C8.82932 7.64128 8.45339 8 7.99689 8C7.53975 8 7.16353 7.6403 7.14301 7.18362L7.04483 4.99802C7.0204 4.45422 7.45468 4 7.99902 4C8.5441 4 8.97865 4.4554 8.95313 4.99988L8.85069 7.18529ZM9 10C9 10.5523 8.55228 11 8 11C7.44772 11 7 10.5523 7 10C7 9.44772 7.44772 9 8 9C8.55228 9 9 9.44772 9 10Z" fill="black"/>
</svg>
