<svg width="25" height="24" viewBox="0 0 25 24" fill="none" xmlns="http://www.w3.org/2000/svg">
<g opacity="0.9">
<path d="M12.8731 13.1845C12.8589 13.639 12.4864 14 12.0318 14C11.5767 14 11.204 13.6383 11.1904 13.1834L11.0651 8.9989C11.0487 8.45213 11.4875 8 12.0345 8C12.582 8 13.021 8.45291 13.0039 9.00016L12.8731 13.1845Z" fill="black"/>
<path d="M13.0352 16C13.0352 16.5523 12.5874 17 12.0352 17C11.4829 17 11.0352 16.5523 11.0352 16C11.0352 15.4477 11.4829 15 12.0352 15C12.5874 15 13.0352 15.4477 13.0352 16Z" fill="black"/>
<path fill-rule="evenodd" clip-rule="evenodd" d="M12.0352 2C6.51231 2 2.03516 6.47715 2.03516 12C2.03516 17.5228 6.51231 22 12.0352 22C17.558 22 22.0352 17.5228 22.0352 12C22.0352 6.47715 17.558 2 12.0352 2ZM3.03516 12C3.03516 7.02944 7.06459 3 12.0352 3C17.0057 3 21.0352 7.02944 21.0352 12C21.0352 16.9706 17.0057 21 12.0352 21C7.06459 21 3.03516 16.9706 3.03516 12Z" fill="black"/>
</g>
</svg>
