<svg width="16" height="16" viewBox="0 0 16 16" fill="none" xmlns="http://www.w3.org/2000/svg">
<g opacity="0.9">
<path d="M2.5 2C1.11929 2 0 3.11929 0 4.5V11.5C0 12.2468 0.328037 12.9175 0.846222 13.3749C1.05326 13.5576 1.36923 13.5379 1.55196 13.3309C1.73469 13.1238 1.71499 12.8079 1.50795 12.6251C1.19572 12.3495 1 11.9479 1 11.5V4.5C1 3.67157 1.67157 3 2.5 3H13.5C14.3284 3 15 3.67157 15 4.5V11.5C15 12.3284 14.3284 13 13.5 13H10.5C10.2239 13 10 13.2239 10 13.5C10 13.7761 10.2239 14 10.5 14H13.5C14.8807 14 16 12.8807 16 11.5V4.5C16 3.11929 14.8807 2 13.5 2H2.5Z" fill="black"/>
<path d="M5.90963 10.5853C5.71058 10.301 5.28945 10.301 5.0904 10.5853L2.55073 14.2134C2.31875 14.5448 2.55583 15.0002 2.96034 15.0002H8.03969C8.4442 15.0002 8.68127 14.5448 8.4493 14.2134L5.90963 10.5853Z" fill="black"/>
</g>
</svg>
