<svg width="24" height="24" viewBox="0 0 24 24" fill="none" xmlns="http://www.w3.org/2000/svg">
<path opacity="0.9" d="M20.4243 4.42426C20.6586 4.18995 20.6586 3.81005 20.4243 3.57574C20.19 3.34142 19.8101 3.34142 19.5758 3.57574L12 11.1515L4.42431 3.57581C4.19 3.3415 3.8101 3.3415 3.57578 3.57581C3.34147 3.81013 3.34147 4.19002 3.57578 4.42434L11.1515 12L3.57574 19.5757C3.34142 19.81 3.34142 20.1899 3.57574 20.4243C3.81005 20.6586 4.18995 20.6586 4.42426 20.4243L12 12.8486L19.5758 20.4244C19.8101 20.6587 20.19 20.6587 20.4243 20.4244C20.6586 20.1901 20.6586 19.8102 20.4243 19.5758L12.8485 12L20.4243 4.42426Z" fill="black" stroke="black" stroke-width="0.2"/>
</svg>
