<svg width="24" height="24" viewBox="0 0 24 24" fill="none" xmlns="http://www.w3.org/2000/svg">
<g opacity="0.9">
<path d="M15 9C15 10.1957 14.4754 11.2689 13.6437 12.0018C15.5849 12.0516 17.2759 13.1072 18.215 14.6667C16.0763 15.2338 14.5 17.1828 14.5 19.5C14.5 20.0226 14.5802 20.5265 14.7289 21H3.5C3.22386 21 3 20.7761 3 20.5V17.5C3 14.5105 5.38513 12.0781 8.35627 12.0018C7.52463 11.2689 7 10.1957 7 9C7 6.79086 8.79086 5 11 5C13.2091 5 15 6.79086 15 9Z" fill="black"/>
<path d="M22.6668 15.6305C22.0226 13.8599 20.553 12.4856 18.7233 11.973C19.4322 11.2326 19.8677 10.2284 19.8677 9.1224C19.8677 6.84566 18.022 5 15.7453 5C15.2418 5 14.7595 5.09025 14.3135 5.25546C15.3479 6.1715 16 7.5096 16 9C16 9.82735 15.7987 10.6081 15.4429 11.2954C17.1047 11.8152 18.4795 12.9841 19.2705 14.5052C19.3466 14.5017 19.4231 14.5 19.5 14.5C20.7018 14.5 21.8045 14.924 22.6668 15.6305Z" fill="black"/>
<path d="M20 16.5C20 16.2239 19.7761 16 19.5 16C19.2239 16 19 16.2239 19 16.5V19H16.5C16.2239 19 16 19.2239 16 19.5C16 19.7761 16.2239 20 16.5 20H19V22.5C19 22.7761 19.2239 23 19.5 23C19.7761 23 20 22.7761 20 22.5V20H22.5C22.7761 20 23 19.7761 23 19.5C23 19.2239 22.7761 19 22.5 19H20V16.5Z" fill="black"/>
</g>
</svg>
