<svg width="32" height="32" viewBox="0 0 32 32" fill="none" xmlns="http://www.w3.org/2000/svg">
<path opacity="0.9" d="M16.3754 5.45277L16 5.93699L15.6246 5.45277C14.9776 5.28623 14.5 4.69825 14.5 4C14.5 3.17157 15.1716 2.5 16 2.5C16.8284 2.5 17.5 3.17157 17.5 4C17.5 4.69825 17.0224 5.28623 16.3754 5.45277ZM16 8L16.5 8.5H25C26.3807 8.5 27.5 9.61929 27.5 11V14L28 14.5H29C29.2761 14.5 29.5 14.7239 29.5 15V18C29.5 18.2761 29.2761 18.5 29 18.5H28L27.5 19V22C27.5 23.3807 26.3807 24.5 25 24.5H7C5.61929 24.5 4.5 23.3807 4.5 22V19L4 18.5H3C2.72386 18.5 2.5 18.2761 2.5 18V15C2.5 14.7239 2.72386 14.5 3 14.5H4L4.5 14V11C4.5 9.61929 5.61929 8.5 7 8.5H15.5L16 8ZM11 17.5C12.3807 17.5 13.5 16.3807 13.5 15C13.5 13.6193 12.3807 12.5 11 12.5C9.61929 12.5 8.5 13.6193 8.5 15C8.5 16.3807 9.61929 17.5 11 17.5ZM21 17.5C22.3807 17.5 23.5 16.3807 23.5 15C23.5 13.6193 22.3807 12.5 21 12.5C19.6193 12.5 18.5 13.6193 18.5 15C18.5 16.3807 19.6193 17.5 21 17.5ZM12.5 19.5C11.9477 19.5 11.5 19.9477 11.5 20.5C11.5 21.0523 11.9477 21.5 12.5 21.5H19.5C20.0523 21.5 20.5 21.0523 20.5 20.5C20.5 19.9477 20.0523 19.5 19.5 19.5H12.5Z" fill="black" stroke="black" stroke-linejoin="bevel"/>
</svg>
