<svg width="16" height="16" viewBox="0 0 16 16" fill="none" xmlns="http://www.w3.org/2000/svg">
<path opacity="0.9" d="M8.24964 1.43342L8 1.86622L7.75036 1.43341C7.59961 1.34621 7.5 1.18444 7.5 1C7.5 0.723858 7.72386 0.5 8 0.5C8.27614 0.5 8.5 0.723858 8.5 1C8.5 1.18444 8.40039 1.34621 8.24964 1.43342ZM8 3L8.5 3.5H13C13.8284 3.5 14.5 4.17157 14.5 5V7L15 7.5C15.2761 7.5 15.5 7.72386 15.5 8V9C15.5 9.27614 15.2761 9.5 15 9.5L14.5 10V11C14.5 11.8284 13.8284 12.5 13 12.5H3C2.17157 12.5 1.5 11.8284 1.5 11V10L1 9.5C0.723858 9.5 0.5 9.27614 0.5 9V8C0.5 7.72386 0.723858 7.5 1 7.5L1.5 7V5C1.5 4.17157 2.17157 3.5 3 3.5H7.5L8 3ZM5 8.5C5.82843 8.5 6.5 7.82843 6.5 7C6.5 6.17157 5.82843 5.5 5 5.5C4.17157 5.5 3.5 6.17157 3.5 7C3.5 7.82843 4.17157 8.5 5 8.5ZM11 8.5C11.8284 8.5 12.5 7.82843 12.5 7C12.5 6.17157 11.8284 5.5 11 5.5C10.1716 5.5 9.5 6.17157 9.5 7C9.5 7.82843 10.1716 8.5 11 8.5ZM6.5 8.5C5.94771 8.5 5.5 8.94772 5.5 9.5C5.5 10.0523 5.94771 10.5 6.5 10.5H9.5C10.0523 10.5 10.5 10.0523 10.5 9.5C10.5 8.94772 10.0523 8.5 9.5 8.5H6.5Z" fill="black" stroke="black" stroke-linejoin="bevel"/>
</svg>
