<svg width="16" height="16" viewBox="0 0 16 16" fill="none" xmlns="http://www.w3.org/2000/svg">
<path d="M10.5 8C10.5 9.44878 9.88381 10.7536 8.89921 11.6668C9.38939 11.8811 9.93081 12 10.5 12C12.7091 12 14.5 10.2091 14.5 8C14.5 5.79086 12.7091 4 10.5 4C9.93081 4 9.38939 4.11888 8.89921 4.33318C9.88381 5.24635 10.5 6.55122 10.5 8Z" fill="black"/>
<path d="M8 4.87731C7.08554 5.61038 6.5 6.73681 6.5 8C6.5 9.26319 7.08554 10.3896 8 11.1227C8.91446 10.3896 9.5 9.26319 9.5 8C9.5 6.73681 8.91446 5.61038 8 4.87731Z" fill="black"/>
<path d="M7.10079 4.33318C6.61061 4.11889 6.06919 4 5.5 4C3.29086 4 1.5 5.79086 1.5 8C1.5 10.2091 3.29086 12 5.5 12C6.06919 12 6.61061 11.8811 7.10079 11.6668C6.11619 10.7536 5.5 9.44878 5.5 8C5.5 6.55122 6.11619 5.24635 7.10079 4.33318Z" fill="black"/>
</svg>
