<svg width="33" height="32" viewBox="0 0 33 32" fill="none" xmlns="http://www.w3.org/2000/svg">
<g opacity="0.9">
<path d="M11.745 16.2876L14.037 18.5797L20.329 12.2878C20.7196 11.8973 21.3531 11.8969 21.7441 12.2869C22.1351 12.677 22.1355 13.3098 21.745 13.7003L15.0989 20.3462C14.5127 20.9325 13.5613 20.9325 12.975 20.3462L10.329 17.7001C9.93851 17.3096 9.9389 16.6768 10.3299 16.2868C10.7209 15.8967 11.3545 15.8971 11.745 16.2876Z" fill="black"/>
<path fill-rule="evenodd" clip-rule="evenodd" d="M16.0352 4C9.40774 4 4.03516 9.37258 4.03516 16C4.03516 22.6274 9.40774 28 16.0352 28C22.6626 28 28.0352 22.6274 28.0352 16C28.0352 9.37258 22.6626 4 16.0352 4ZM5.03516 16C5.03516 9.92487 9.96002 5 16.0352 5C22.1103 5 27.0352 9.92487 27.0352 16C27.0352 22.0751 22.1103 27 16.0352 27C9.96002 27 5.03516 22.0751 5.03516 16Z" fill="black"/>
</g>
</svg>
