<svg width="25" height="24" viewBox="0 0 25 24" fill="none" xmlns="http://www.w3.org/2000/svg">
<path opacity="0.9" fill-rule="evenodd" clip-rule="evenodd" d="M2.03516 12C2.03516 6.47715 6.51231 2 12.0352 2C17.558 2 22.0352 6.47715 22.0352 12C22.0352 17.5228 17.558 22 12.0352 22C6.51231 22 2.03516 17.5228 2.03516 12ZM16.7423 10.2071C17.1328 9.81658 17.1328 9.18342 16.7423 8.79289C16.3517 8.40237 15.7186 8.40237 15.328 8.79289L10.5352 13.5858L8.74226 11.7929C8.35174 11.4024 7.71857 11.4024 7.32805 11.7929C6.93753 12.1834 6.93752 12.8166 7.32805 13.2071L9.4745 15.3536C10.0603 15.9393 11.01 15.9393 11.5958 15.3536L16.7423 10.2071Z" fill="black"/>
</svg>
