<svg width="32" height="33" viewBox="0 0 32 33" fill="none" xmlns="http://www.w3.org/2000/svg">
<g opacity="0.9">
<path d="M27.5 4.71704C27.7761 4.71704 28 4.9409 28 5.21704V12.217C28 12.4932 27.7761 12.717 27.5 12.717C27.2239 12.717 27 12.4932 27 12.217V6.42415L18.8536 14.5706C18.6583 14.7659 18.3417 14.7659 18.1464 14.5706C17.9512 14.3753 17.9512 14.0588 18.1464 13.8635L26.2929 5.71704H20.5C20.2239 5.71704 20 5.49318 20 5.21704C20 4.9409 20.2239 4.71704 20.5 4.71704H27.5Z" fill="black"/>
<path d="M4.5 28.717C4.22386 28.717 4 28.4932 4 28.217V21.217C4 20.9409 4.22386 20.717 4.5 20.717C4.77614 20.717 5 20.9409 5 21.217L5 27.0099L13.1464 18.8635C13.3417 18.6682 13.6583 18.6682 13.8536 18.8635C14.0488 19.0588 14.0488 19.3753 13.8536 19.5706L5.70711 27.717H11.5C11.7761 27.717 12 27.9409 12 28.217C12 28.4932 11.7761 28.717 11.5 28.717H4.5Z" fill="black"/>
</g>
</svg>
