<svg width="32" height="32" viewBox="0 0 32 32" fill="none" xmlns="http://www.w3.org/2000/svg">
<path opacity="0.9" fill-rule="evenodd" clip-rule="evenodd" d="M8.10476 6.01956C8.64636 6.12772 8.99772 6.65444 8.88956 7.19603L8.58414 8.72535C12.8151 5.90153 18.5629 6.374 22.2845 10.14C26.5327 14.439 26.5327 21.4041 22.2845 25.7031C21.8963 26.0959 21.2631 26.0997 20.8703 25.7115C20.4774 25.3233 20.4737 24.6901 20.8619 24.2973C24.3402 20.7774 24.3402 15.0657 20.8619 11.5458C17.7556 8.40234 12.9264 8.07193 9.45903 10.5515H11.5254C12.0777 10.5515 12.5254 10.9993 12.5254 11.5516C12.5254 12.1038 12.0777 12.5516 11.5254 12.5516H5.78052L6.92829 6.80435C7.03645 6.26276 7.56317 5.9114 8.10476 6.01956Z" fill="black"/>
</svg>
