<svg width="16" height="16" viewBox="0 0 16 16" fill="none" xmlns="http://www.w3.org/2000/svg">
<g opacity="0.9">
<path d="M0 4C0 2.89543 0.895431 2 2 2H14C15.1046 2 16 2.89543 16 4V12C16 13.1046 15.1046 14 14 14H9.45594C9.41163 13.8768 9.34963 13.7559 9.26852 13.64L6.72885 10.0119C6.13169 9.1588 4.8683 9.1588 4.27115 10.0119L1.73148 13.64C1.66094 13.7408 1.60486 13.8454 1.56229 13.952C0.668246 13.7523 0 12.9542 0 12V4Z" fill="black"/>
<path d="M5.90962 10.5852C5.71057 10.3008 5.28943 10.3008 5.09038 10.5852L2.55071 14.2133C2.31874 14.5447 2.55582 15 2.96033 15H8.03967C8.44418 15 8.68126 14.5447 8.44929 14.2133L5.90962 10.5852Z" fill="black"/>
</g>
</svg>
