<svg width="32" height="32" viewBox="0 0 32 32" fill="none" xmlns="http://www.w3.org/2000/svg">
<g opacity="0.9">
<path fill-rule="evenodd" clip-rule="evenodd" d="M4 9.5C4 8.11929 5.11929 7 6.5 7H25.5C26.8807 7 28 8.11929 28 9.5V22.5C28 23.8807 26.8807 25 25.5 25H18C17.7239 25 17.5 24.7761 17.5 24.5C17.5 24.2239 17.7239 24 18 24H25.5C26.3284 24 27 23.3284 27 22.5V9.5C27 8.67157 26.3284 8 25.5 8H6.5C5.67157 8 5 8.67157 5 9.5V22.5C5 22.9479 5.19572 23.3495 5.50795 23.6251C5.71499 23.8079 5.73469 24.1238 5.55196 24.3309C5.36923 24.5379 5.05326 24.5576 4.84622 24.3749C4.32804 23.9175 4 23.2468 4 22.5V9.5Z" fill="black"/>
<path d="M11.1068 21.5004C11.307 21.2456 11.693 21.2456 11.8932 21.5004L16.3644 27.1911C16.6222 27.5192 16.3885 28 15.9713 28H7.02873C6.61152 28 6.37781 27.5192 6.63557 27.1911L11.1068 21.5004Z" fill="black"/>
</g>
</svg>
