<svg width="24" height="24" viewBox="0 0 24 24" fill="none" xmlns="http://www.w3.org/2000/svg">
<g opacity="0.9">
<path d="M2 6C2 4.89543 2.89543 4 4 4H20C21.1046 4 22 4.89543 22 6V18C22 19.1046 21.1046 20 20 20H12.7502L9.7 15.933C9.1 15.133 7.9 15.133 7.3 15.933L4.24976 20H4C2.89543 20 2 19.1046 2 18V6Z" fill="black"/>
<path d="M8.9 16.5333C8.7 16.2667 8.3 16.2667 8.1 16.5333L4.6 21.2C4.35279 21.5296 4.58798 22 5 22H12C12.412 22 12.6472 21.5296 12.4 21.2L8.9 16.5333Z" fill="black"/>
</g>
</svg>
