<svg width="16" height="16" viewBox="0 0 16 16" fill="none" xmlns="http://www.w3.org/2000/svg">
<g opacity="0.9">
<path d="M6.99998 8C6.99998 7.44772 7.4477 7 7.99998 7C8.55227 7 8.99998 7.44772 8.99998 8C8.99998 8.55228 8.55227 9 7.99998 9C7.4477 9 6.99998 8.55228 6.99998 8Z" fill="black"/>
<path fill-rule="evenodd" clip-rule="evenodd" d="M14.8839 8.32029C15.038 8.13501 15.0383 7.86534 14.8842 7.68006L14.8832 7.67878L14.8808 7.67595L14.8729 7.66658L14.8445 7.63345C14.82 7.60519 14.7846 7.56485 14.7387 7.51416C14.647 7.41281 14.5134 7.26985 14.3423 7.09914C14.0006 6.75826 13.5064 6.30393 12.8946 5.84882C11.6822 4.94694 9.9515 4 7.99999 4C6.04848 4 4.31778 4.94694 3.10537 5.84882C2.49357 6.30393 1.99937 6.75826 1.65766 7.09914C1.48655 7.26985 1.35296 7.41281 1.26127 7.51416C1.21541 7.56485 1.17997 7.60519 1.15551 7.63345L1.1271 7.66658L1.11919 7.67595L1.11682 7.67878L1.11604 7.67971C0.961989 7.86499 0.961475 8.1344 1.11553 8.31967L1.11682 8.32122L1.11919 8.32405L1.1271 8.33342L1.15551 8.36655C1.17997 8.39481 1.21541 8.43515 1.26127 8.48584C1.35296 8.58719 1.48655 8.73015 1.65766 8.90085C1.99937 9.24174 2.49357 9.69607 3.10537 10.1512C4.31778 11.0531 6.04848 12 7.99999 12C9.9515 12 11.6822 11.0531 12.8946 10.1512C13.5064 9.69607 14.0006 9.24174 14.3423 8.90085C14.5134 8.73015 14.647 8.58719 14.7387 8.48584C14.7846 8.43515 14.82 8.39481 14.8445 8.36655L14.8729 8.33342L14.8808 8.32405L14.8832 8.32122L14.8839 8.32029ZM7.99998 6C6.89542 6 5.99998 6.89543 5.99998 8C5.99998 9.10457 6.89542 10 7.99998 10C9.10455 10 9.99998 9.10457 9.99998 8C9.99998 6.89543 9.10455 6 7.99998 6Z" fill="black"/>
</g>
</svg>
