<svg width="24" height="24" viewBox="0 0 24 24" fill="none" xmlns="http://www.w3.org/2000/svg">
<g opacity="0.9">
<path d="M2.5 5C2.22386 5 2 5.22386 2 5.5C2 5.77614 2.22386 6 2.5 6H21.5C21.7761 6 22 5.77614 22 5.5C22 5.22386 21.7761 5 21.5 5H2.5Z" fill="black"/>
<path d="M2.5 9C2.22386 9 2 9.22386 2 9.5C2 9.77614 2.22386 10 2.5 10H21.5C21.7761 10 22 9.77614 22 9.5C22 9.22386 21.7761 9 21.5 9H2.5Z" fill="black"/>
<path d="M2 13.5C2 13.2239 2.22386 13 2.5 13H21.5C21.7761 13 22 13.2239 22 13.5C22 13.7761 21.7761 14 21.5 14H2.5C2.22386 14 2 13.7761 2 13.5Z" fill="black"/>
<path d="M2.5 17C2.22386 17 2 17.2239 2 17.5C2 17.7761 2.22386 18 2.5 18H13.5C13.7761 18 14 17.7761 14 17.5C14 17.2239 13.7761 17 13.5 17H2.5Z" fill="black"/>
</g>
</svg>
