<svg width="32" height="32" viewBox="0 0 32 32" fill="none" xmlns="http://www.w3.org/2000/svg">
<path opacity="0.9" fill-rule="evenodd" clip-rule="evenodd" d="M3 8C3 6.89543 3.89543 6 5 6H12.5C13.3284 6 14 6.67157 14 7.5C14 7.77614 14.2239 8 14.5 8H26C27.1046 8 28 8.89543 28 10V24C28 25.1046 27.1046 26 26 26H5C3.89543 26 3 25.1046 3 24V8ZM4 8C4 7.44772 4.44772 7 5 7H12.5C12.7761 7 13 7.22386 13 7.5C13 8.32843 13.6716 9 14.5 9H26C26.5523 9 27 9.44772 27 10V10.2676C26.7058 10.0974 26.3643 10 26 10H5C4.63571 10 4.29417 10.0974 4 10.2676V8ZM4 12V24C4 24.5523 4.44772 25 5 25H26C26.5523 25 27 24.5523 27 24V12C27 11.4477 26.5523 11 26 11H5C4.44772 11 4 11.4477 4 12Z" fill="black"/>
</svg>
