<svg width="24" height="24" viewBox="0 0 24 24" fill="none" xmlns="http://www.w3.org/2000/svg">
<path opacity="0.9" d="M13.429 2.65659C12.98 1.27463 11.0249 1.27462 10.5759 2.65659L8.945 7.67585C8.87806 7.88186 8.68609 8.02134 8.46947 8.02134H3.19192C1.73883 8.02134 1.13467 9.88076 2.31024 10.7349L6.57987 13.8369C6.75512 13.9643 6.82844 14.1899 6.76151 14.3959L5.13065 19.4152C4.68163 20.7972 6.26334 21.9464 7.43891 21.0923L11.7085 17.9902C11.8838 17.8629 12.1211 17.8629 12.2963 17.9902L16.566 21.0923C17.7415 21.9464 19.3233 20.7972 18.8742 19.4152L17.2434 14.3959C17.1764 14.1899 17.2498 13.9643 17.425 13.8369L21.6946 10.7349C22.8702 9.88076 22.2661 8.02134 20.813 8.02134H15.5354C15.3188 8.02134 15.1268 7.88186 15.0599 7.67585L13.429 2.65659Z" fill="black"/>
</svg>
