<svg width="24" height="24" viewBox="0 0 24 24" fill="none" xmlns="http://www.w3.org/2000/svg">
<path opacity="0.9" fill-rule="evenodd" clip-rule="evenodd" d="M10.5759 2.65647C11.0249 1.2745 12.98 1.27451 13.429 2.65647L15.0599 7.67572C15.1268 7.88173 15.3188 8.02121 15.5354 8.02121H20.813C22.2661 8.02121 22.8702 9.88064 21.6947 10.7347L17.425 13.8368C17.2498 13.9641 17.1765 14.1898 17.2434 14.3958L18.8742 19.4151C19.3233 20.7971 17.7416 21.9462 16.566 21.0921L12.2963 17.9901C12.1211 17.8627 11.8838 17.8627 11.7086 17.9901L7.43893 21.0921C6.26336 21.9462 4.68164 20.797 5.13067 19.4151L6.76152 14.3958C6.82846 14.1898 6.75513 13.9641 6.57989 13.8368L2.31025 10.7347C1.13468 9.88064 1.73885 8.02121 3.19193 8.02121H8.46949C8.6861 8.02121 8.87808 7.88174 8.94502 7.67572L10.5759 2.65647ZM12.478 2.96549C12.3283 2.50483 11.6766 2.50483 11.5269 2.96549L9.89607 7.98474C9.69526 8.60277 9.11933 9.02121 8.46949 9.02121H3.19193C2.70757 9.02121 2.50618 9.64102 2.89804 9.92572L7.16767 13.0278C7.6934 13.4098 7.91339 14.0868 7.71258 14.7048L6.08172 19.7241C5.93205 20.1848 6.45929 20.5678 6.85114 20.2831L11.1208 17.181C11.6465 16.7991 12.3584 16.7991 12.8841 17.181L17.1538 20.2831C17.5456 20.5678 18.0729 20.1848 17.9232 19.7241L16.2923 14.7048C16.0915 14.0868 16.3115 13.4098 16.8372 13.0278L21.1069 9.92572C21.4987 9.64102 21.2973 9.02121 20.813 9.02121H15.5354C14.8856 9.02121 14.3097 8.60278 14.1088 7.98474L12.478 2.96549Z" fill="black"/>
</svg>
