<svg width="32" height="32" viewBox="0 0 32 32" fill="none" xmlns="http://www.w3.org/2000/svg">
<path opacity="0.9" d="M17.4266 4.92222C16.9776 3.54025 15.0224 3.54025 14.5734 4.92222L12.3813 11.6689C12.3143 11.8749 12.1224 12.0144 11.9057 12.0144H4.81183C3.35875 12.0144 2.75459 13.8738 3.93016 14.7279L9.66925 18.8976C9.8445 19.025 9.91782 19.2506 9.85089 19.4567L7.65875 26.2034C7.20972 27.5853 8.79144 28.7345 9.96701 27.8804L15.7061 23.7107C15.8813 23.5834 16.1186 23.5834 16.2939 23.7107L22.033 27.8804C23.2086 28.7345 24.7903 27.5853 24.3413 26.2034L22.1491 19.4567C22.0822 19.2506 22.1555 19.025 22.3307 18.8976L28.0698 14.7279C29.2454 13.8738 28.6412 12.0144 27.1882 12.0144H20.0943C19.8776 12.0144 19.6857 11.8749 19.6187 11.6689L17.4266 4.92222Z" fill="black"/>
</svg>
