<svg width="16" height="16" viewBox="0 0 16 16" fill="none" xmlns="http://www.w3.org/2000/svg">
<path opacity="0.9" fill-rule="evenodd" clip-rule="evenodd" d="M7.03638 2.51115C7.34032 1.57571 8.66373 1.57571 8.96767 2.51115L10.0974 5.98799C10.0994 5.99431 10.1053 5.99859 10.1119 5.99859H13.7677C14.7513 5.99859 15.1602 7.25721 14.3645 7.83535L11.4069 9.98415C11.4016 9.98806 11.3993 9.99498 11.4014 10.0013L12.5311 13.4781C12.835 14.4136 11.7644 15.1915 10.9686 14.6133L8.01104 12.4645C8.00567 12.4606 7.99839 12.4606 7.99301 12.4645L5.03544 14.6133C4.2397 15.1915 3.16905 14.4136 3.47299 13.4781L4.60268 10.0013C4.60474 9.99498 4.60249 9.98806 4.59711 9.98415L1.63954 7.83535C0.843805 7.25722 1.25276 5.99859 2.23634 5.99859H5.8921C5.89875 5.99859 5.90464 5.99431 5.90669 5.98799L7.03638 2.51115ZM7.99106 2.81134C7.99026 2.81279 7.98893 2.81557 7.98744 2.82017L6.85775 6.29701C6.72182 6.71535 6.33197 6.99859 5.8921 6.99859H2.23634C2.23151 6.99859 2.22845 6.99899 2.22683 6.9993C2.22568 7.0007 2.22349 7.00382 2.22175 7.00919C2.22001 7.01455 2.21994 7.01835 2.22005 7.02016C2.22118 7.02137 2.22341 7.02349 2.22732 7.02633L5.1849 9.17514C5.54076 9.43369 5.68967 9.89198 5.55374 10.3103L4.42405 13.7872C4.42255 13.7918 4.422 13.7948 4.42179 13.7964C4.42277 13.798 4.42506 13.801 4.42962 13.8043C4.43418 13.8076 4.43778 13.8089 4.43953 13.8093C4.44103 13.8086 4.44374 13.8071 4.44765 13.8043L7.40522 11.6555C7.76109 11.397 8.24296 11.397 8.59883 11.6555L11.5564 13.8043C11.5603 13.8071 11.563 13.8086 11.5645 13.8093C11.5663 13.8089 11.5699 13.8076 11.5744 13.8043C11.579 13.801 11.5813 13.7979 11.5823 13.7964C11.5821 13.7948 11.5815 13.7918 11.58 13.7872L10.4503 10.3103C10.3144 9.89198 10.4633 9.43369 10.8192 9.17514L13.7767 7.02633C13.7806 7.02349 13.7829 7.02137 13.784 7.02016C13.7841 7.01835 13.784 7.01455 13.7823 7.00919C13.7806 7.00382 13.7784 7.0007 13.7772 6.9993C13.7756 6.99899 13.7725 6.99859 13.7677 6.99859H10.1119C9.67208 6.99859 9.28223 6.71535 9.14631 6.29701L8.01661 2.82017C8.01512 2.81557 8.01379 2.81279 8.01299 2.81134C8.01131 2.81068 8.00766 2.80957 8.00203 2.80957C7.99639 2.80957 7.99275 2.81068 7.99106 2.81134ZM7.99175 2.81019C7.99176 2.81018 7.99177 2.81016 7.99178 2.81015C7.99182 2.81011 7.99183 2.81008 7.99183 2.81008C7.99183 2.81008 7.99181 2.81011 7.99175 2.81019Z" fill="black"/>
</svg>
