<svg width="32" height="32" viewBox="0 0 32 32" fill="none" xmlns="http://www.w3.org/2000/svg">
<path opacity="0.9" d="M10.5 6C9.67157 6 9 6.67157 9 7.5V9.5C9 10.3284 9.67157 11 10.5 11H11V22H10.5C9.67157 22 9 22.6716 9 23.5V25.5C9 26.3284 9.67157 27 10.5 27H12.5C13.3284 27 14 26.3284 14 25.5V23.5C14 22.6716 13.3284 22 12.5 22H12V21C12 18.5147 14.0147 16.5 16.5 16.5C19.5376 16.5 22 14.0376 22 11H22.5C23.3284 11 24 10.3284 24 9.5V7.5C24 6.67157 23.3284 6 22.5 6H20.5C19.6716 6 19 6.67157 19 7.5V9.5C19 10.3284 19.6716 11 20.5 11H21C21 13.4853 18.9853 15.5 16.5 15.5C14.6398 15.5 12.9954 16.4234 12 17.8369V11H12.5C13.3284 11 14 10.3284 14 9.5V7.5C14 6.67157 13.3284 6 12.5 6H10.5Z" fill="black"/>
</svg>
