<svg width="16" height="16" viewBox="0 0 16 16" fill="none" xmlns="http://www.w3.org/2000/svg">
<path opacity="0.9" fill-rule="evenodd" clip-rule="evenodd" d="M1 8C1 4.13401 4.13401 1 8 1C11.866 1 15 4.13401 15 8C15 11.866 11.866 15 8 15C4.13401 15 1 11.866 1 8ZM5 4.5C5 3.67157 5.67157 3 6.5 3H9.5C10.3284 3 11 3.67157 11 4.5V5C11 5.27614 10.7761 5.5 10.5 5.5C10.2239 5.5 10 5.27614 10 5V4.5C10 4.22386 9.77614 4 9.5 4H6.5C6.22386 4 6 4.22386 6 4.5V7H11C11.5523 7 12 7.44772 12 8V11.5C12 11.7761 11.7761 12 11.5 12H4.5C4.22386 12 4 11.7761 4 11.5V8C4 7.44772 4.44772 7 5 7V4.5Z" fill="black"/>
</svg>
