<svg width="33" height="32" viewBox="0 0 33 32" fill="none" xmlns="http://www.w3.org/2000/svg">
<g opacity="0.9">
<path fill-rule="evenodd" clip-rule="evenodd" d="M4.03516 16C4.03516 9.37258 9.40774 4 16.0352 4C22.6626 4 28.0352 9.37258 28.0352 16C28.0352 22.6274 22.6626 28 16.0352 28C9.40774 28 4.03516 22.6274 4.03516 16ZM14.5352 7C12.6022 7 11.0352 8.567 11.0352 10.5V14.1707C9.86996 14.5825 9.03516 15.6938 9.03516 17V21C9.03516 22.1046 9.93059 23 11.0352 23H21.0352C22.1397 23 23.0352 22.1046 23.0352 21V17C23.0352 15.3431 21.692 14 20.0352 14H12.0352V10.5C12.0352 9.11929 13.1544 8 14.5352 8H17.5352C18.9159 8 20.0352 9.11929 20.0352 10.5V10.8C20.0352 11.0761 20.259 11.3 20.5352 11.3C20.8113 11.3 21.0352 11.0761 21.0352 10.8V10.5C21.0352 8.567 19.4682 7 17.5352 7H14.5352ZM16.5352 18.8662C16.8341 18.6933 17.0352 18.3701 17.0352 18C17.0352 17.4477 16.5874 17 16.0352 17C15.4829 17 15.0352 17.4477 15.0352 18C15.0352 18.3701 15.2363 18.6933 15.5352 18.8662V19.5C15.5352 19.7761 15.759 20 16.0352 20C16.3113 20 16.5352 19.7761 16.5352 19.5V18.8662Z" fill="black"/>
</g>
</svg>
