<svg width="25" height="24" viewBox="0 0 25 24" fill="none" xmlns="http://www.w3.org/2000/svg">
<g opacity="0.9">
<path d="M13.0352 13C13.0352 13.3701 12.8341 13.6933 12.5352 13.8662V14.5C12.5352 14.7761 12.3113 15 12.0352 15C11.759 15 11.5352 14.7761 11.5352 14.5V13.8662C11.2363 13.6933 11.0352 13.3701 11.0352 13C11.0352 12.4477 11.4829 12 12.0352 12C12.5874 12 13.0352 12.4477 13.0352 13Z" fill="black"/>
<path fill-rule="evenodd" clip-rule="evenodd" d="M7.03516 12C7.03516 11.0667 7.67442 10.2827 8.53897 10.062C8.53645 10.0417 8.53516 10.021 8.53516 10V7C8.53516 5.61929 9.65444 4.5 11.0352 4.5H13.0352C14.4159 4.5 15.5352 5.61929 15.5352 7V8C15.5352 8.27614 15.3113 8.5 15.0352 8.5C14.759 8.5 14.5352 8.27614 14.5352 8V7C14.5352 6.17157 13.8636 5.5 13.0352 5.5H11.0352C10.2067 5.5 9.53516 6.17157 9.53516 7V10H15.0352C16.1397 10 17.0352 10.8954 17.0352 12V16C17.0352 16.5523 16.5874 17 16.0352 17H8.03516C7.48287 17 7.03516 16.5523 7.03516 16V12ZM8.03516 12C8.03516 11.4477 8.48287 11 9.03516 11H15.0352C15.5874 11 16.0352 11.4477 16.0352 12V16H8.03516V12Z" fill="black"/>
<path fill-rule="evenodd" clip-rule="evenodd" d="M12.0352 2C6.51231 2 2.03516 6.47715 2.03516 12C2.03516 17.5228 6.51231 22 12.0352 22C17.558 22 22.0352 17.5228 22.0352 12C22.0352 6.47715 17.558 2 12.0352 2ZM3.03516 12C3.03516 7.02944 7.06459 3 12.0352 3C17.0057 3 21.0352 7.02944 21.0352 12C21.0352 16.9706 17.0057 21 12.0352 21C7.06459 21 3.03516 16.9706 3.03516 12Z" fill="black"/>
</g>
</svg>
