<svg width="32" height="32" viewBox="0 0 32 32" fill="none" xmlns="http://www.w3.org/2000/svg">
<path opacity="0.9" fill-rule="evenodd" clip-rule="evenodd" d="M8.5 3C7.11929 3 6 4.11929 6 5.5V26.5C6 27.8807 7.11929 29 8.5 29H23.4553C24.8334 29 25.9516 27.8848 25.9553 26.5067L26.0006 9.58744L19.4182 3H8.5ZM25 10L19 4V8C19 9.10457 19.8954 10 21 10H25ZM14 10C14 8.89543 14.8954 8 16 8C17.1046 8 18 8.89543 18 10V18.5C18 18.7761 17.7761 19 17.5 19H14.5C14.2239 19 14 18.7761 14 18.5V10ZM9 13C9 11.8954 9.89543 11 11 11C12.1046 11 13 11.8954 13 13V18.5C13 18.7761 12.7761 19 12.5 19H9.5C9.22386 19 9 18.7761 9 18.5V13ZM19 15C19 13.8954 19.8954 13 21 13C22.1046 13 23 13.8954 23 15V18.5C23 18.7761 22.7761 19 22.5 19H19.5C19.2239 19 19 18.7761 19 18.5V15Z" fill="black"/>
</svg>
