<svg width="16" height="16" viewBox="0 0 16 16" fill="none" xmlns="http://www.w3.org/2000/svg">
<path opacity="0.9" fill-rule="evenodd" clip-rule="evenodd" d="M3.5 0C2.11929 0 1 1.11929 1 2.5V13.5C1 14.8807 2.11929 16 3.5 16H12.5C13.8807 16 15 14.8807 15 13.5V3.58271L11.3918 0H3.5ZM14 4L11 1V3C11 3.55228 11.4477 4 12 4H14ZM8 2C7.44772 2 7 2.44772 7 3V7.5C7 7.77614 7.22386 8 7.5 8H8.5C8.77614 8 9 7.77614 9 7.5V3C9 2.44772 8.55228 2 8 2ZM5 4C4.44772 4 4 4.44772 4 5V7.5C4 7.77614 4.22386 8 4.5 8H5.5C5.77614 8 6 7.77614 6 7.5V5C6 4.44772 5.55228 4 5 4ZM10 6C10 5.44772 10.4477 5 11 5C11.5523 5 12 5.44772 12 6V7.5C12 7.77614 11.7761 8 11.5 8H10.5C10.2239 8 10 7.77614 10 7.5V6Z" fill="black"/>
</svg>
