<svg width="24" height="24" viewBox="0 0 24 24" fill="none" xmlns="http://www.w3.org/2000/svg">
<g opacity="0.9">
<path fill-rule="evenodd" clip-rule="evenodd" d="M13 5.50005C13 5.26171 12.8318 5.0565 12.5981 5.00976C12.3643 4.96302 12.1301 5.08774 12.0385 5.30774L9.53846 11.3077C9.47416 11.4621 9.49124 11.6383 9.58398 11.7774C9.67671 11.9165 9.83283 12 10 12H12V15.5C12 15.7384 12.1682 15.9436 12.4019 15.9903C12.6357 16.0371 12.8699 15.9124 12.9615 15.6924L15.4615 9.69236C15.5258 9.53804 15.5088 9.3618 15.416 9.2227C15.3233 9.0836 15.1672 9.00005 15 9.00005H13V5.50005ZM12.5 11H10.75L12 8.00005V9.50005C12 9.77619 12.2239 10 12.5 10H14.25L13 13V11.5C13 11.2239 12.7761 11 12.5 11Z" fill="black"/>
<path fill-rule="evenodd" clip-rule="evenodd" d="M12 3C9.28151 3 6.80034 3.80736 4.9868 5.13729C3.17356 6.467 2 8.34532 2 10.4667C2 12.588 3.17356 14.4663 4.9868 15.796C6.80034 17.126 9.28151 17.9333 12 17.9333C12.0445 17.9333 12.089 17.9331 12.1333 17.9327V21.202C12.1333 21.3787 12.2267 21.5424 12.3789 21.6324C12.531 21.7223 12.7194 21.7253 12.8743 21.6401C18.5945 18.4937 22 15.1996 22 10.4667C22 8.34532 20.8264 6.467 19.0132 5.13729C17.1997 3.80736 14.7185 3 12 3ZM3 10.4667C3 8.74043 3.95309 7.13542 5.57817 5.94369C7.20295 4.75218 9.47178 4 12 4C14.5282 4 16.797 4.75218 18.4218 5.94369C20.0469 7.13542 21 8.74043 21 10.4667C21 14.4167 18.3267 17.3673 13.1333 20.3477V17.4181C13.1333 17.2813 13.0773 17.1505 12.9783 17.0561C12.8792 16.9618 12.7459 16.9121 12.6092 16.9187C12.4079 16.9284 12.2048 16.9333 12 16.9333C9.47178 16.9333 7.20295 16.1812 5.57817 14.9896C3.95309 13.7979 3 12.1929 3 10.4667Z" fill="black"/>
</g>
</svg>
