<svg width="32" height="32" viewBox="0 0 32 32" fill="none" xmlns="http://www.w3.org/2000/svg">
<g opacity="0.9">
<path fill-rule="evenodd" clip-rule="evenodd" d="M17 9.50005C17 9.26266 16.8331 9.05799 16.6005 9.01026C16.368 8.96253 16.1339 9.08489 16.0404 9.30309L13.0404 16.3031C12.9742 16.4576 12.9901 16.635 13.0826 16.7753C13.1751 16.9156 13.3319 17 13.5 17H16V21.5C16 21.7374 16.1669 21.9421 16.3995 21.9898C16.632 22.0376 16.8661 21.9152 16.9596 21.697L19.9596 14.697C20.0258 14.5425 20.0099 14.3651 19.9174 14.2248C19.8249 14.0845 19.6681 14 19.5 14H17V9.50005ZM16.5 16H14.2583L16 11.936V14.5C16 14.7762 16.2239 15 16.5 15H18.7417L17 19.0641V16.5C17 16.2239 16.7761 16 16.5 16Z" fill="black"/>
<path fill-rule="evenodd" clip-rule="evenodd" d="M16 6C12.7292 6 9.74806 6.97152 7.57259 8.56686C5.39742 10.162 4 12.407 4 14.9333C4 17.4597 5.39742 19.7047 7.57259 21.2998C9.74806 22.8951 12.7292 23.8667 16 23.8667C16.0891 23.8667 16.178 23.8659 16.2667 23.8645V27.9287C16.2667 28.1055 16.36 28.2691 16.5122 28.3591C16.6644 28.4491 16.8527 28.452 17.0076 28.3668C23.9278 24.5603 28 20.5996 28 14.9333C28 12.407 26.6026 10.162 24.4274 8.56686C22.2519 6.97152 19.2708 6 16 6ZM5 14.9333C5 12.8021 6.17694 10.8304 8.16395 9.37327C10.1507 7.91635 12.9195 7 16 7C19.0805 7 21.8493 7.91635 23.836 9.37327C25.8231 10.8304 27 12.8021 27 14.9333C27 19.8153 23.6634 23.4337 17.2667 27.076V23.3482C17.2667 23.2114 17.2106 23.0806 17.1116 22.9862C17.0126 22.8919 16.8792 22.8422 16.7426 22.8488C16.4972 22.8606 16.2496 22.8667 16 22.8667C12.9195 22.8667 10.1507 21.9503 8.16395 20.4934C6.17694 19.0363 5 17.0646 5 14.9333Z" fill="black"/>
</g>
</svg>
