<svg width="32" height="32" viewBox="0 0 32 32" fill="none" xmlns="http://www.w3.org/2000/svg">
<g opacity="0.9">
<path fill-rule="evenodd" clip-rule="evenodd" d="M18.4196 4.01731C17.5602 3.9551 17 4.70137 17 5.42617V25.6069C17 26.3101 17.5413 27.0805 18.4123 26.9975C19.3554 26.9076 20.0924 26.4691 20.6164 25.8234C20.5144 25.7933 20.4147 25.7606 20.3175 25.7258C19.5173 25.439 18.849 24.9889 18.4622 24.5386C18.2822 24.3291 18.3062 24.0134 18.5156 23.8335C18.7251 23.6535 19.0408 23.6775 19.2207 23.8869C19.4716 24.179 19.9809 24.5429 20.6549 24.7845C21.3209 25.0232 22.1098 25.1287 22.9135 24.9527C23.725 24.7749 24.2927 24.3605 24.6601 23.9869C25.2401 23.2842 25.5885 22.3783 25.5885 21.3928C25.5885 21.0348 25.5425 20.6871 25.4561 20.3558C26.4808 19.4708 27.1299 18.1505 27.1299 16.6785C27.1299 16.3148 27.0902 15.9603 27.015 15.6191C26.841 15.8864 26.6352 16.1533 26.3921 16.4141C25.4764 17.3964 24.3355 17.9706 23.2638 18.2564C22.4443 18.4749 21.6419 18.5307 20.9848 18.4579C20.8741 18.9571 20.6256 19.4309 20.2372 19.8193C20.0419 20.0145 19.7253 20.0145 19.5301 19.8193C19.3348 19.624 19.3348 19.3074 19.5301 19.1122C20.2314 18.4109 20.23 17.2493 19.4982 16.5176C19.303 16.3224 19.303 16.0058 19.4982 15.8105C19.6935 15.6152 20.0101 15.6152 20.2053 15.8105C20.6678 16.2729 20.9421 16.8545 21.0249 17.4555C21.5439 17.5238 22.2491 17.492 23.0062 17.2901C23.9319 17.0433 24.896 16.5525 25.6607 15.7322C26.2024 15.1512 26.5197 14.5328 26.7035 13.972C26.7142 13.9329 26.7245 13.8937 26.7344 13.8543C26.7614 13.7475 26.7856 13.6395 26.8068 13.5304C26.8809 13.1504 26.9197 12.7579 26.9197 12.3567C26.9197 11.8787 26.8647 11.4131 26.7605 10.9664C26.7235 10.8074 26.6802 10.6509 26.6309 10.4971C25.9282 8.30151 24.0132 6.6562 21.6808 6.39343C21.2818 5.25046 20.1817 4.14487 18.4196 4.01731ZM19.2064 10.5C19.4826 10.5 19.7064 10.7239 19.7064 11C19.7064 12.0348 20.5268 12.8571 21.5185 12.8571C21.7947 12.8571 22.0185 13.081 22.0185 13.3571C22.0185 13.6333 21.7947 13.8571 21.5185 13.8571C19.9564 13.8571 18.7064 12.5688 18.7064 11C18.7064 10.7239 18.9303 10.5 19.2064 10.5Z" fill="black"/>
<path fill-rule="evenodd" clip-rule="evenodd" d="M15.9999 6.18152C15.9999 4.9767 15.0232 4 13.8184 4C12.0593 4 10.5266 4.96567 9.71998 6.39392C6.8715 6.72894 4.70062 9.29629 4.70062 12.357C4.70062 12.6133 4.71577 12.866 4.74521 13.1142C4.85441 12.9907 4.96929 12.8745 5.08935 12.7654C6.2081 11.7487 7.70393 11.4165 9.01725 11.5437C9.25279 11.5665 9.70917 11.6534 10.1889 11.8198C10.6594 11.983 11.2246 12.2468 11.6113 12.6615C11.7996 12.8634 11.7886 13.1798 11.5866 13.3682C11.3847 13.5565 11.0683 13.5455 10.8799 13.3435C10.6605 13.1082 10.2808 12.9102 9.86119 12.7646C9.45082 12.6223 9.072 12.5537 8.92088 12.539C7.8257 12.433 6.62938 12.7171 5.76192 13.5054C5.41902 13.8171 5.11561 14.2184 4.88821 14.7264C4.63831 15.3243 4.5 15.9853 4.5 16.6789C4.5 18.1435 5.11686 19.4633 6.09967 20.351C6.01585 20.684 5.97133 21.0334 5.97133 21.3931C5.97133 23.5905 7.64685 25.4289 9.78182 25.4289C10.013 25.4289 10.2396 25.407 10.4598 25.3651C11.387 26.3697 12.7161 27 14.1921 27C15.1905 27 15.9999 26.1906 15.9999 25.1922V19.3087C15.2411 18.5643 14.3467 18.3329 13.5439 18.4079C12.6643 18.49 11.9278 18.9335 11.5773 19.453C11.8021 20.0212 11.8564 20.6667 11.6985 21.296C11.6313 21.5639 11.3616 21.7194 11.0961 21.6434C10.8306 21.5674 10.6699 21.2887 10.7371 21.0209C10.992 20.0049 10.422 19.0102 9.53552 18.7565C9.27004 18.6805 9.10929 18.4018 9.17649 18.134C9.24369 17.8661 9.51338 17.7106 9.77886 17.7866C10.2706 17.9273 10.6905 18.1993 11.0173 18.5551C11.5993 17.9267 12.4954 17.5014 13.4509 17.4122C14.2853 17.3343 15.1838 17.5092 15.9999 18.0336V6.18152ZM12.9207 10.8086C13.1094 11.0102 13.4154 11.0102 13.6042 10.8086C13.7929 10.607 13.7929 10.2802 13.6042 10.0786C12.5536 8.95652 10.8502 8.95652 9.79954 10.0786C9.61081 10.2802 9.61081 10.607 9.79954 10.8086C9.98828 11.0102 10.2943 11.0102 10.483 10.8086C11.1562 10.0896 12.2476 10.0896 12.9207 10.8086Z" fill="black"/>
</g>
</svg>
