<svg width="32" height="32" viewBox="0 0 32 32" fill="none" xmlns="http://www.w3.org/2000/svg">
<g opacity="0.9">
<path d="M13.6042 10.8083C13.4154 11.0099 13.1094 11.0099 12.9207 10.8083C12.2476 10.0894 11.1562 10.0894 10.483 10.8083C10.2943 11.0099 9.98829 11.0099 9.79955 10.8083C9.61082 10.6068 9.61082 10.2799 9.79955 10.0784C10.8502 8.95627 12.5536 8.95627 13.6042 10.0784C13.7929 10.2799 13.7929 10.6068 13.6042 10.8083Z" fill="black"/>
<path fill-rule="evenodd" clip-rule="evenodd" d="M6.09972 20.351C5.11885 19.465 4.50249 18.1488 4.50006 16.6875L4.49998 16.6789C4.49998 16.5674 4.50358 16.4568 4.51066 16.347C4.55546 15.6487 4.74063 14.9897 5.03754 14.4026C4.81932 13.7633 4.70067 13.0742 4.70067 12.357C4.70067 9.29629 6.87156 6.72894 9.72003 6.39392C10.5266 4.96567 12.0594 4 13.8185 4C15.0233 4 16 4.9767 16 6.18152V25.1922C16 26.1906 15.1906 27 14.1921 27C12.7161 27 11.387 26.3697 10.4599 25.3651C10.2396 25.407 10.013 25.4289 9.78187 25.4289C7.6469 25.4289 5.97138 23.5905 5.97138 21.3931C5.97138 21.0334 6.01591 20.684 6.09972 20.351ZM13.8185 5C14.471 5 15 5.52898 15 6.18152V17.5125C13.5958 16.9437 11.9773 17.3731 11.0051 18.5412C10.6801 18.1919 10.2645 17.9248 9.77887 17.7859C9.51339 17.7099 9.24369 17.8654 9.1765 18.1333C9.1093 18.4011 9.27005 18.6798 9.53553 18.7558C10.422 19.0095 10.992 20.0041 10.7371 21.0202C10.6699 21.288 10.8306 21.5667 11.0961 21.6427C11.3616 21.7187 11.6313 21.5631 11.6985 21.2953C11.8565 20.6656 11.802 20.0197 11.5769 19.4512C12.3041 18.3046 13.7854 17.9277 14.9309 18.5891C14.9534 18.602 14.9765 18.6131 15 18.6222V25.1922C15 25.6383 14.6383 26 14.1921 26C12.9152 26 11.7757 25.4136 11.0272 24.4936C10.901 24.3384 10.6944 24.2734 10.502 24.3283C10.2726 24.3939 10.0313 24.4289 9.78187 24.4289C8.26017 24.4289 6.97138 23.1012 6.97138 21.3931C6.97138 21.0219 7.03294 20.6675 7.14495 20.3404C7.21422 20.1382 7.14723 19.9143 6.97827 19.7833C6.08825 19.0933 5.50005 17.9647 5.50005 16.6789C5.50005 15.9475 5.69036 15.2668 6.01842 14.6888C6.02315 14.6805 6.02761 14.672 6.03183 14.6635C6.66266 13.572 7.78848 12.8574 9.04614 12.8574C9.7529 12.8574 10.4121 13.0799 10.9674 13.4666C11.194 13.6244 11.5056 13.5686 11.6634 13.342C11.8212 13.1154 11.7655 12.8038 11.5389 12.646C10.8248 12.1487 9.96783 11.8574 9.04614 11.8574C7.75798 11.8574 6.60765 12.4202 5.78639 13.3178C5.73018 13.0072 5.70067 12.686 5.70067 12.357C5.70067 9.66895 7.65958 7.52091 10.0681 7.36606C10.2476 7.35452 10.407 7.24752 10.4857 7.08582C11.0869 5.84999 12.3539 5 13.8185 5Z" fill="black"/>
<path d="M17.3915 4C17.1153 4 16.8915 4.22386 16.8915 4.5C16.8915 4.77614 17.1153 5 17.3915 5C18.8943 5 20.1996 5.84895 20.8525 7.09577C20.9346 7.25257 21.0935 7.35428 21.2703 7.36318C21.3499 7.36719 21.429 7.37315 21.5076 7.38101C21.5153 7.38218 21.5231 7.38318 21.5309 7.384C23.9886 7.64154 25.9197 9.76253 25.9197 12.357C25.9197 12.4436 25.9176 12.5296 25.9133 12.6151C25.8845 13.194 25.7595 13.7461 25.5547 14.2554L25.5496 14.2687C24.8134 16.0853 23.0599 17.3576 21.0248 17.3576C20.9522 17.3576 20.8832 17.3731 20.8209 17.401C20.7578 16.7614 20.4789 16.137 19.9884 15.6465C19.7932 15.4513 19.4766 15.4513 19.2813 15.6465C19.0861 15.8418 19.0861 16.1584 19.2813 16.3536C20.0131 17.0853 20.0145 18.2469 19.3132 18.9482C19.1179 19.1434 19.1179 19.46 19.3132 19.6553C19.5084 19.8505 19.825 19.8505 20.0203 19.6553C20.4103 19.2652 20.6593 18.7891 20.7693 18.2875C20.8441 18.332 20.9314 18.3576 21.0248 18.3576C23.1081 18.3576 24.9329 17.2598 25.9809 15.6067C26.0778 15.9465 26.1299 16.3062 26.1299 16.6788C26.1299 17.9553 25.5184 19.0828 24.581 19.7765C24.4037 19.9077 24.3333 20.1397 24.4078 20.3473C24.5245 20.6726 24.5885 21.0246 24.5885 21.3931C24.5885 23.0788 23.2506 24.4288 21.6203 24.4288C21.5883 24.4288 21.5564 24.4283 21.5247 24.4273C20.5399 24.3954 19.6727 23.8722 19.1541 23.0824C19.0026 22.8516 18.6926 22.7873 18.4617 22.9389C18.2309 23.0905 18.1666 23.4005 18.3182 23.6313C18.6873 24.1934 19.1927 24.6573 19.7873 24.973C19.1434 25.5227 18.3358 25.885 17.4485 25.9769C17.1738 26.0054 16.9742 26.2511 17.0027 26.5258C17.0311 26.8004 17.2769 27 17.5515 26.9716C18.8424 26.8378 19.9949 26.2407 20.8401 25.3508C21.0039 25.384 21.1714 25.407 21.3419 25.4191C21.4339 25.4255 21.5267 25.4288 21.6203 25.4288C23.8209 25.4288 25.5885 23.6129 25.5885 21.3931C25.5885 21.0352 25.5426 20.6875 25.4561 20.3561C26.4808 19.4711 27.1299 18.1509 27.1299 16.6788C27.1299 15.8561 26.927 15.0801 26.5687 14.401C26.7492 13.8938 26.8644 13.355 26.9042 12.7956C26.9145 12.6507 26.9197 12.5045 26.9197 12.357C26.9197 12.1567 26.91 11.9587 26.8912 11.7634C26.8166 10.9914 26.5981 10.2616 26.263 9.60276C25.3672 7.84105 23.6383 6.58607 21.6 6.38523C20.7436 4.95722 19.1797 4 17.3915 4Z" fill="black"/>
<path d="M19.7064 11C19.7064 10.7239 19.4826 10.5 19.2064 10.5C18.9303 10.5 18.7064 10.7239 18.7064 11C18.7064 12.5688 19.9564 13.8571 21.5186 13.8571C21.7947 13.8571 22.0186 13.6333 22.0186 13.3571C22.0186 13.081 21.7947 12.8571 21.5186 12.8571C20.5268 12.8571 19.7064 12.0348 19.7064 11Z" fill="black"/>
</g>
</svg>
