<svg width="16" height="16" viewBox="0 0 16 16" fill="none" xmlns="http://www.w3.org/2000/svg">
<g clip-path="url(#clip0)">
<g opacity="0.9">
<path d="M4.16533 11.715C4.09953 11.9832 4.26103 12.2635 4.52606 12.341C4.79109 12.4186 5.05928 12.264 5.12508 11.9958C5.39249 10.906 4.80769 9.71905 3.72397 9.40194C3.45894 9.32438 3.19074 9.47892 3.12494 9.74711C3.05914 10.0153 3.22064 10.2956 3.48567 10.3731C3.97176 10.5154 4.31856 11.0905 4.16533 11.715Z" fill="black"/>
<path d="M6.34603 4.92051C6.15954 5.12417 5.85719 5.12417 5.6707 4.92051C5.28259 4.49668 4.65336 4.49668 4.26526 4.92051C4.07877 5.12417 3.77641 5.12417 3.58992 4.92051C3.40343 4.71685 3.40343 4.38666 3.58992 4.183C4.351 3.35186 5.58495 3.35186 6.34603 4.183C6.53252 4.38666 6.53252 4.71685 6.34603 4.92051Z" fill="black"/>
<path fill-rule="evenodd" clip-rule="evenodd" d="M1.05081 11.3562C0.403361 10.724 0.00342086 9.81493 8.6813e-05 8.81449L-6.10352e-05 8.80221C-6.10352e-05 8.71817 0.00277669 8.63469 0.00836202 8.5519C0.0395636 8.08337 0.157819 7.63921 0.346892 7.23913C0.208545 6.80457 0.133777 6.33899 0.133777 5.85579C0.133777 3.74373 1.57597 1.9375 3.52075 1.64717C4.09187 0.663071 5.15755 0 6.37897 0C7.27423 0 7.99999 0.725753 7.99999 1.62101V14.6247C7.99999 15.3824 7.38577 15.9966 6.62809 15.9966C5.61808 15.9966 4.70638 15.5746 4.06025 14.8986C3.93842 14.9166 3.81411 14.9259 3.68795 14.9259C2.15238 14.9259 0.980953 13.5807 0.980953 12.0158C0.980953 11.7895 1.00504 11.5686 1.05081 11.3562ZM6.37897 1C6.72195 1 6.99999 1.27804 6.99999 1.62101V14.6247C6.99999 14.8301 6.83348 14.9966 6.62809 14.9966C5.82127 14.9966 5.10211 14.6227 4.63372 14.0368C4.50811 13.8797 4.30058 13.8131 4.10703 13.8679C3.97327 13.9058 3.83301 13.9259 3.68795 13.9259C2.78574 13.9259 1.98095 13.1131 1.98095 12.0158C1.98095 11.779 2.01935 11.5537 2.08882 11.3464C2.15574 11.1467 2.09036 10.9265 1.92531 10.7956C1.37234 10.3573 1.00007 9.63395 1.00007 8.80188C1.00007 8.32906 1.12038 7.89067 1.32624 7.51977C1.33117 7.51089 1.33581 7.5019 1.34016 7.49281C1.73675 6.80021 2.43572 6.35645 3.19738 6.35645C3.63003 6.35645 4.03504 6.49544 4.3787 6.74014C4.60364 6.90031 4.91584 6.8478 5.07601 6.62285C5.23618 6.3979 5.18367 6.08571 4.95872 5.92554C4.45609 5.56765 3.85036 5.35645 3.19738 5.35645C2.40685 5.35645 1.69588 5.66 1.14623 6.15737C1.13799 6.05815 1.13378 5.95756 1.13378 5.85579C1.13378 4.09467 2.38148 2.71993 3.87543 2.61343C4.05615 2.60055 4.21575 2.49092 4.29263 2.32687C4.66047 1.54195 5.45694 1 6.37897 1Z" fill="black"/>
<path d="M9.49999 0C9.22384 0 8.99999 0.223858 8.99999 0.5C8.99999 0.776142 9.22384 1 9.49999 1C10.3951 1 11.1869 1.5316 11.5879 2.33656C11.6683 2.4978 11.8291 2.60336 12.009 2.61288C12.0562 2.61538 12.1031 2.61908 12.1498 2.62395C12.1556 2.6248 12.1615 2.62556 12.1675 2.62621C13.6546 2.79001 14.8635 4.15089 14.8635 5.86333C14.8635 6.30554 14.7822 6.72558 14.636 7.1079C14.6325 7.11704 14.6292 7.12626 14.6263 7.13554C14.1647 8.31307 13.0829 9.11816 11.8597 9.11816C11.5836 9.11816 11.3597 9.34201 11.3597 9.61816C11.3597 9.8943 11.5836 10.1182 11.8597 10.1182C13.1359 10.1182 14.2559 9.49077 14.9844 8.5233C14.9947 8.61836 15 8.71519 15 8.8135C15 9.64319 14.6218 10.3672 14.0555 10.8077C13.8871 10.9387 13.8204 11.162 13.8893 11.3639C13.9599 11.5708 13.9989 11.7955 13.9989 12.0316C13.9989 13.1215 13.1823 13.9451 12.2465 13.9451C11.6554 13.9451 11.1197 13.6231 10.7974 13.1071C10.6511 12.8729 10.3426 12.8017 10.1084 12.948C9.8742 13.0943 9.80294 13.4027 9.94925 13.6369C10.1624 13.9782 10.4439 14.2718 10.7748 14.494C10.4117 14.7722 9.9807 14.9524 9.51635 15.0029C9.24183 15.0328 9.04352 15.2796 9.07341 15.5541C9.1033 15.8286 9.35008 16.027 9.6246 15.9971C10.4778 15.9042 11.2382 15.5026 11.8059 14.908C11.9491 14.9324 12.0962 14.9451 12.2465 14.9451C13.7986 14.9451 14.9989 13.6076 14.9989 12.0316C14.9989 11.8057 14.9746 11.5852 14.9283 11.3732C15.5902 10.7386 16 9.82296 16 8.8135C16 8.2517 15.8731 7.71916 15.6466 7.24798C15.7874 6.81307 15.8635 6.34705 15.8635 5.86333C15.8635 3.71612 14.3527 1.89647 12.3451 1.63982C11.7548 0.6623 10.7073 0 9.49999 0Z" fill="black"/>
<path d="M11.1787 4.93702C11.1787 4.66087 10.9549 4.43702 10.6787 4.43702C10.4026 4.43702 10.1787 4.66087 10.1787 4.93702C10.1787 6.0687 11.0429 7.04604 12.1804 7.04604C12.4565 7.04604 12.6804 6.82218 12.6804 6.54604C12.6804 6.2699 12.4565 6.04604 12.1804 6.04604C11.6592 6.04604 11.1787 5.58261 11.1787 4.93702Z" fill="black"/>
</g>
</g>
<defs>
<clipPath id="clip0">
<rect width="16" height="16" fill="white"/>
</clipPath>
</defs>
</svg>
