<svg width="24" height="24" viewBox="0 0 24 24" fill="none" xmlns="http://www.w3.org/2000/svg">
<path opacity="0.9" fill-rule="evenodd" clip-rule="evenodd" d="M8 18C8 20.2091 9.79086 22 12 22C14.2091 22 16 20.2091 16 18L16 8.5C16 8.22386 16.2239 8 16.5 8C16.7761 8 17 8.22386 17 8.5L17 18C17 20.7614 14.7614 23 12 23C9.23858 23 7 20.7614 7 18L7 4.5C7 2.567 8.567 1 10.5 1C12.433 1 14 2.567 14 4.5L14 16C14 17.1046 13.1046 18 12 18C10.8954 18 10 17.1046 10 16L10 8.5C10 8.22386 10.2239 8 10.5 8C10.7761 8 11 8.22386 11 8.5L11 16C11 16.5523 11.4477 17 12 17C12.5523 17 13 16.5523 13 16L13 4.5C13 3.11929 11.8807 2 10.5 2C9.11929 2 8 3.11929 8 4.5L8 18Z" fill="black"/>
</svg>
