<svg width="32" height="32" viewBox="0 0 32 32" fill="none" xmlns="http://www.w3.org/2000/svg">
<g opacity="0.9">
<path d="M27.7866 5.44528C27.4803 4.98576 26.8594 4.86158 26.3999 5.16793C25.9403 5.47429 25.8162 6.09516 26.1225 6.55468C26.8523 7.6493 27.25 9.17105 27.25 10.75C27.25 12.3289 26.8523 13.8507 26.1225 14.9453C25.8162 15.4048 25.9403 16.0257 26.3999 16.332C26.8594 16.6384 27.4803 16.5142 27.7866 16.0547C28.7842 14.5584 29.25 12.6256 29.25 10.75C29.25 8.87437 28.7842 6.94158 27.7866 5.44528Z" fill="black"/>
<path d="M23.0528 6.83321C23.5468 6.58622 24.1474 6.78644 24.3944 7.28042C24.9098 8.31119 25.1477 9.55062 25.1477 10.7504C25.1477 11.9501 24.9098 13.1895 24.3944 14.2203C24.1474 14.7143 23.5468 14.9145 23.0528 14.6675C22.5588 14.4205 22.3586 13.8199 22.6056 13.3259C22.9538 12.6294 23.1477 11.7097 23.1477 10.7504C23.1477 9.79102 22.9538 8.87136 22.6056 8.17485C22.3586 7.68087 22.5588 7.0802 23.0528 6.83321Z" fill="black"/>
<path d="M16 6.99988C13.2386 6.99988 11 9.23845 11 11.9999C11 13.6355 11.7853 15.0876 12.9995 15.9999H12.5C8.91015 15.9999 6 18.91 6 22.4999V25.4999C6 26.3283 6.67157 26.9999 7.5 26.9999H24.5C25.3284 26.9999 26 26.3283 26 25.4999V22.4999C26 18.91 23.0899 15.9999 19.5 15.9999H19.0005C20.2147 15.0876 21 13.6355 21 11.9999C21 9.23845 18.7614 6.99988 16 6.99988Z" fill="black"/>
</g>
</svg>
