<svg width="24" height="24" viewBox="0 0 24 24" fill="none" xmlns="http://www.w3.org/2000/svg">
<path d="M20.6433 3.72258C20.4901 3.49282 20.1797 3.43073 19.9499 3.58391C19.7201 3.73708 19.6581 4.04752 19.8112 4.27728C20.4261 5.19959 20.75 6.46046 20.75 7.74993C20.75 9.0394 20.4261 10.3003 19.8112 11.2226C19.6581 11.4523 19.7201 11.7628 19.9499 11.916C20.1797 12.0691 20.4901 12.007 20.6433 11.7773C21.392 10.6541 21.75 9.18774 21.75 7.74993C21.75 6.31212 21.392 4.84573 20.6433 3.72258Z" fill="black"/>
<path d="M17.2764 4.91654C17.5234 4.79305 17.8237 4.89316 17.9472 5.14015C18.3299 5.90553 18.5114 6.83775 18.5114 7.75012C18.5114 8.66249 18.3299 9.59471 17.9472 10.3601C17.8237 10.6071 17.5234 10.7072 17.2764 10.5837C17.0294 10.4602 16.9293 10.1599 17.0528 9.91288C17.3519 9.31462 17.5114 8.54229 17.5114 7.75012C17.5114 6.95795 17.3519 6.18562 17.0528 5.58736C16.9293 5.34037 17.0294 5.04004 17.2764 4.91654Z" fill="black"/>
<path fill-rule="evenodd" clip-rule="evenodd" d="M13.6437 12.0017C14.4754 11.2687 15 10.1956 15 8.99988C15 6.79074 13.2091 4.99988 11 4.99988C8.79086 4.99988 7 6.79074 7 8.99988C7 10.1956 7.52463 11.2687 8.35627 12.0017C5.38513 12.0779 3 14.5104 3 17.4999V20.4999C3 20.776 3.22386 20.9999 3.5 20.9999C3.77614 20.9999 4 20.776 4 20.4999V17.4999C4 15.0146 6.01472 12.9999 8.5 12.9999H13.5C15.9853 12.9999 18 15.0146 18 17.4999V20.4999C18 20.776 18.2239 20.9999 18.5 20.9999C18.7761 20.9999 19 20.776 19 20.4999V17.4999C19 14.5104 16.6149 12.0779 13.6437 12.0017ZM14 8.99988C14 10.6567 12.6569 11.9999 11 11.9999C9.34315 11.9999 8 10.6567 8 8.99988C8 7.34302 9.34315 5.99988 11 5.99988C12.6569 5.99988 14 7.34302 14 8.99988Z" fill="black"/>
</svg>
