<svg width="24" height="24" viewBox="0 0 24 24" fill="none" xmlns="http://www.w3.org/2000/svg">
<g opacity="0.9">
<path d="M21.6433 4.72264C21.4901 4.49288 21.1797 4.43079 20.9499 4.58397C20.7202 4.73714 20.6581 5.04758 20.8112 5.27734C21.4261 6.19965 21.75 7.46053 21.75 8.74999C21.75 10.0395 21.4261 11.3003 20.8112 12.2226C20.6581 12.4524 20.7202 12.7628 20.9499 12.916C21.1797 13.0692 21.4901 13.0071 21.6433 12.7773C22.3921 11.6542 22.75 10.1878 22.75 8.74999C22.75 7.31219 22.3921 5.84579 21.6433 4.72264Z" fill="black"/>
<path d="M14.6437 12.0018C15.4754 11.2688 16 10.1956 16 8.99994C16 6.7908 14.2091 4.99994 12 4.99994C9.79086 4.99994 8 6.7908 8 8.99994C8 10.1956 8.52463 11.2688 9.35627 12.0018C6.38513 12.078 4 14.5104 4 17.4999V20.4999C4 20.7761 4.22386 20.9999 4.5 20.9999H19.5C19.7761 20.9999 20 20.7761 20 20.4999V17.4999C20 14.5104 17.6149 12.078 14.6437 12.0018Z" fill="black"/>
<path d="M18.2764 5.9166C18.5234 5.79311 18.8237 5.89322 18.9472 6.14021C19.3299 6.90559 19.5114 7.83781 19.5114 8.75018C19.5114 9.66256 19.3299 10.5948 18.9472 11.3602C18.8237 11.6071 18.5234 11.7073 18.2764 11.5838C18.0294 11.4603 17.9293 11.1599 18.0528 10.9129C18.3519 10.3147 18.5114 9.54235 18.5114 8.75018C18.5114 7.95801 18.3519 7.18568 18.0528 6.58742C17.9293 6.34044 18.0294 6.0401 18.2764 5.9166Z" fill="black"/>
</g>
</svg>
