<svg width="16" height="16" viewBox="0 0 16 16" fill="none" xmlns="http://www.w3.org/2000/svg">
<g opacity="0.9">
<path d="M13.2226 1.58403C13.4524 1.43085 13.7628 1.49294 13.916 1.7227C14.483 2.57312 14.75 3.67588 14.75 4.75005C14.75 5.82422 14.483 6.92698 13.916 7.7774C13.7628 8.00717 13.4524 8.06925 13.2226 7.91608C12.9929 7.7629 12.9308 7.45247 13.084 7.2227C13.517 6.57312 13.75 5.67588 13.75 4.75005C13.75 3.82422 13.517 2.92698 13.084 2.2774C12.9308 2.04764 12.9929 1.7372 13.2226 1.58403Z" fill="black"/>
<path fill-rule="evenodd" clip-rule="evenodd" d="M9.17598 8.06523C9.68666 7.52733 10 6.80026 10 6C10 4.34315 8.65685 3 7 3C5.34315 3 4 4.34315 4 6C4 6.80026 4.31334 7.52733 4.82402 8.06523C3.2145 8.38017 2 9.79825 2 11.5V13.5C2 13.7761 2.22386 14 2.5 14C2.77614 14 3 13.7761 3 13.5V11.5C3 10.1193 4.11929 9 5.5 9H8.5C9.88071 9 11 10.1193 11 11.5V13.5C11 13.7761 11.2239 14 11.5 14C11.7761 14 12 13.7761 12 13.5V11.5C12 9.79825 10.7855 8.38017 9.17598 8.06523ZM9 6C9 7.10457 8.10457 8 7 8C5.89543 8 5 7.10457 5 6C5 4.89543 5.89543 4 7 4C8.10457 4 9 4.89543 9 6Z" fill="black"/>
<path d="M11.9163 2.72308C11.7633 2.49318 11.4529 2.43081 11.223 2.58378C10.9931 2.73674 10.9308 3.04712 11.0837 3.27703C11.6505 4.12891 11.6798 5.28261 11.0777 6.23235C10.9299 6.46557 10.9991 6.7745 11.2323 6.92235C11.4655 7.0702 11.7744 7.00099 11.9223 6.76776C12.7311 5.49187 12.7068 3.91114 11.9163 2.72308Z" fill="black"/>
</g>
</svg>
