<svg width="32" height="32" viewBox="0 0 32 32" fill="none" xmlns="http://www.w3.org/2000/svg">
<g opacity="0.9">
<path fill-rule="evenodd" clip-rule="evenodd" d="M18.5 15.5C18.5 16.8807 17.3807 18 16 18C14.6193 18 13.5 16.8807 13.5 15.5C13.5 14.1193 14.6193 13 16 13C17.3807 13 18.5 14.1193 18.5 15.5ZM17.5 15.5C17.5 16.3284 16.8284 17 16 17C15.1716 17 14.5 16.3284 14.5 15.5C14.5 14.6716 15.1716 14 16 14C16.8284 14 17.5 14.6716 17.5 15.5Z" fill="black"/>
<path fill-rule="evenodd" clip-rule="evenodd" d="M24.8974 15.8035C25.0335 15.6246 25.0338 15.3758 24.8977 15.1969L24.8965 15.1953L24.8937 15.1917L24.8839 15.1791C24.8756 15.1683 24.8636 15.153 24.848 15.1333C24.8169 15.094 24.7714 15.0375 24.7124 14.9662C24.5944 14.8237 24.4218 14.622 24.2004 14.3807C23.7582 13.8988 23.1182 13.2559 22.3257 12.612C20.7545 11.3351 18.518 10 16 10C13.4821 10 11.2455 11.3351 9.67427 12.612C8.88187 13.2559 8.24179 13.8988 7.79958 14.3807C7.57818 14.622 7.40563 14.8237 7.28762 14.9662C7.22859 15.0375 7.18315 15.094 7.15202 15.1333C7.13645 15.153 7.12445 15.1683 7.11611 15.1791L7.10635 15.1917L7.10355 15.1953L7.10267 15.1965C6.96649 15.3754 6.96597 15.6239 7.10214 15.8028C7.10214 15.8028 7.10214 15.8028 7.50001 15.5L7.10214 15.8028L7.10355 15.8047L7.10635 15.8083L7.11611 15.8209C7.12445 15.8317 7.13645 15.847 7.15202 15.8667C7.18315 15.906 7.22859 15.9625 7.28762 16.0338C7.40563 16.1763 7.57818 16.378 7.79958 16.6193C8.24179 17.1012 8.88187 17.7441 9.67427 18.388C11.2455 19.6649 13.4821 21 16 21C18.518 21 20.7545 19.6649 22.3257 18.388C23.1182 17.7441 23.7582 17.1012 24.2004 16.6193C24.4218 16.378 24.5944 16.1763 24.7124 16.0338C24.7714 15.9625 24.8169 15.906 24.848 15.8667C24.8556 15.8571 24.8624 15.8485 24.8683 15.841C24.8744 15.8331 24.8797 15.8264 24.8839 15.8209L24.8937 15.8083L24.8965 15.8047L24.8974 15.8035ZM8.14499 15.5C8.24648 15.6198 8.37778 15.7703 8.53639 15.9432C8.95442 16.3988 9.55914 17.0059 10.3049 17.612C11.8101 18.8351 13.8236 20 16 20C18.1765 20 20.1899 18.8351 21.6951 17.612C22.4409 17.0059 23.0456 16.3988 23.4636 15.9432C23.6222 15.7703 23.7535 15.6198 23.855 15.5C23.7535 15.3802 23.6222 15.2297 23.4636 15.0568C23.0456 14.6012 22.4409 13.9941 21.6951 13.388C20.1899 12.1649 18.1765 11 16 11C13.8236 11 11.8101 12.1649 10.3049 13.388C9.55914 13.9941 8.95442 14.6012 8.53639 15.0568C8.37778 15.2297 8.24648 15.3802 8.14499 15.5ZM24.5 15.5C24.8979 15.1972 24.8977 15.1969 24.8977 15.1969L24.5 15.5ZM24.5 15.5L24.8974 15.8035C24.8974 15.8035 24.8979 15.8028 24.5 15.5ZM7.50001 15.5L7.10267 15.1965C7.10267 15.1965 7.10214 15.1972 7.50001 15.5Z" fill="black"/>
<path fill-rule="evenodd" clip-rule="evenodd" d="M10.8571 24H25C26.6569 24 28 22.6569 28 21V10C28 8.34315 26.6569 7 25 7H7C5.34315 7 4 8.34314 4 10V26.3835C4 27.163 4.85223 27.6428 5.51866 27.2385L10.8571 24ZM10.5775 23H25C26.1046 23 27 22.1046 27 21V10C27 8.89543 26.1046 8 25 8H7C5.89543 8 5 8.89543 5 10L5 26.3835L10.5775 23Z" fill="black"/>
</g>
</svg>
