<svg width="24" height="24" viewBox="0 0 24 24" fill="none" xmlns="http://www.w3.org/2000/svg">
<g opacity="0.9">
<path fill-rule="evenodd" clip-rule="evenodd" d="M14 12C14 13.1046 13.1046 14 12 14C10.8954 14 10 13.1046 10 12C10 10.8954 10.8954 10 12 10C13.1046 10 14 10.8954 14 12ZM13 12C13 12.5523 12.5523 13 12 13C11.4477 13 11 12.5523 11 12C11 11.4477 11.4477 11 12 11C12.5523 11 13 11.4477 13 12Z" fill="black"/>
<path fill-rule="evenodd" clip-rule="evenodd" d="M19.8602 12.3467C20.0458 12.1533 20.0461 11.847 19.8605 11.6536L19.8593 11.6523L19.8567 11.6496L19.8476 11.6403L19.815 11.6073C19.7869 11.5792 19.7462 11.5391 19.6935 11.4885C19.5881 11.3875 19.4344 11.245 19.2376 11.0749C18.8445 10.735 18.2765 10.2825 17.5742 9.82976C16.1778 8.92951 14.2069 8 12 8C9.79307 8 7.82216 8.92951 6.42576 9.82976C5.72345 10.2825 5.15552 10.735 4.76236 11.0749C4.56555 11.245 4.41192 11.3875 4.30649 11.4885C4.25376 11.5391 4.21303 11.5792 4.18495 11.6073L4.15237 11.6403L4.14332 11.6496L4.14064 11.6523L4.13976 11.6533C3.95416 11.8467 3.95359 12.1527 4.13919 12.3462C4.13908 12.346 4.14152 12.3439 4.49917 12.0008L4.13919 12.3462L4.14064 12.3477L4.14332 12.3504L4.15237 12.3597L4.18495 12.3927C4.21303 12.4208 4.25376 12.4609 4.30649 12.5115C4.41192 12.6125 4.56555 12.755 4.76236 12.9251C5.15552 13.265 5.72345 13.7175 6.42576 14.1702C7.82216 15.0705 9.79307 16 12 16C14.2069 16 16.1778 15.0705 17.5742 14.1702C18.2765 13.7175 18.8445 13.265 19.2376 12.9251C19.4344 12.755 19.5881 12.6125 19.6935 12.5115C19.7462 12.4609 19.7869 12.4208 19.815 12.3927L19.8476 12.3597L19.8567 12.3504L19.8593 12.3477L19.8602 12.3467ZM5.2253 12C5.28272 12.0518 5.34651 12.1082 5.41639 12.1686C5.78227 12.485 6.31269 12.9075 6.96761 13.3298C8.28568 14.1795 10.0648 15 12 15C13.9352 15 15.7143 14.1795 17.0324 13.3298C17.6873 12.9075 18.2177 12.485 18.5836 12.1686C18.6535 12.1082 18.7173 12.0518 18.7747 12C18.7173 11.9482 18.6535 11.8918 18.5836 11.8314C18.2177 11.515 17.6873 11.0925 17.0324 10.6702C15.7143 9.82049 13.9352 9 12 9C10.0648 9 8.28568 9.82049 6.96761 10.6702C6.31269 11.0925 5.78227 11.515 5.41639 11.8314C5.34651 11.8918 5.28272 11.9482 5.2253 12ZM19.5 12C19.8608 11.6538 19.8607 11.6537 19.8605 11.6536L19.5 12ZM19.8602 12.3467C19.8604 12.3466 19.8608 12.3462 19.5 12L19.8602 12.3467ZM4.49999 12L4.13976 11.6533C4.13963 11.6534 4.13919 11.6538 4.49999 12Z" fill="black"/>
<path fill-rule="evenodd" clip-rule="evenodd" d="M5 5C3.34315 5 2 6.34315 2 8V21.0956C2 21.9014 2.90435 22.3763 3.56773 21.9188L7.45795 19.236C7.62489 19.1208 7.82288 19.0592 8.02567 19.0592H19C20.6569 19.0592 22 17.716 22 16.0592V8C22 6.34315 20.6569 5 19 5H5ZM19 6H5C3.89543 6 3 6.89543 3 8V21.0956L6.89022 18.4127C7.2241 18.1825 7.6201 18.0592 8.02567 18.0592H19C20.1046 18.0592 21 17.1637 21 16.0592V8C21 6.89543 20.1046 6 19 6Z" fill="black"/>
</g>
</svg>
