<svg width="32" height="32" viewBox="0 0 32 32" fill="none" xmlns="http://www.w3.org/2000/svg">
<g opacity="0.9">
<path fill-rule="evenodd" clip-rule="evenodd" d="M16 18C17.3807 18 18.5 16.8807 18.5 15.5C18.5 14.1193 17.3807 13 16 13C14.6193 13 13.5 14.1193 13.5 15.5C13.5 16.8807 14.6193 18 16 18ZM16 17C16.8284 17 17.5 16.3284 17.5 15.5C17.5 14.6716 16.8284 14 16 14C15.1716 14 14.5 14.6716 14.5 15.5C14.5 16.3284 15.1716 17 16 17Z" fill="black"/>
<path fill-rule="evenodd" clip-rule="evenodd" d="M7 7C5.34315 7 4 8.34314 4 10V26.3835C4 27.163 4.85223 27.6428 5.51866 27.2385L10.8571 24H25C26.6569 24 28 22.6569 28 21V10C28 8.34315 26.6569 7 25 7H7ZM24.5 15.5C24.5 15.5 20.6944 20.5 16 20.5C11.3056 20.5 7.5 15.5 7.5 15.5C7.5 15.5 11.3056 10.5 16 10.5C20.6944 10.5 24.5 15.5 24.5 15.5Z" fill="black"/>
</g>
</svg>
