<svg width="16" height="16" viewBox="0 0 16 16" fill="none" xmlns="http://www.w3.org/2000/svg">
<path opacity="0.9" d="M12.5 8L12.8893 8.31374V7.68626L12.5 8ZM12.5 8C12.8893 8.31374 12.8892 8.31387 12.8891 8.314L12.8889 8.31432L12.8882 8.31512L12.8863 8.31741L12.8804 8.32466L12.8598 8.34945C12.8422 8.37041 12.817 8.40003 12.7845 8.43708C12.7196 8.51114 12.6254 8.61512 12.505 8.73904C12.2647 8.98634 11.9171 9.31606 11.4864 9.64665C10.6369 10.2986 9.40411 11 8 11C6.59589 11 5.3631 10.2986 4.5136 9.64665C4.08286 9.31606 3.73529 8.98634 3.49502 8.73904C3.37461 8.61512 3.28043 8.51114 3.21549 8.43708C3.183 8.40003 3.15778 8.37041 3.1402 8.34945L3.11959 8.32466L3.11366 8.31741L3.1118 8.31512L3.11115 8.31432L3.11089 8.314C3.11079 8.31387 3.11069 8.31374 3.5 8M12.5 8C12.8893 7.68626 12.8892 7.68613 12.8891 7.686L12.8889 7.68568L12.8882 7.68488L12.8863 7.68259L12.8804 7.67534L12.8598 7.65055C12.8422 7.62959 12.817 7.59997 12.7845 7.56292C12.7196 7.48886 12.6254 7.38488 12.505 7.26096C12.2647 7.01366 11.9171 6.68394 11.4864 6.35336C10.6369 5.70137 9.40411 5 8 5C6.59589 5 5.3631 5.70137 4.5136 6.35336C4.08286 6.68394 3.73529 7.01366 3.49502 7.26096C3.37461 7.38488 3.28043 7.48886 3.21549 7.56292C3.183 7.59997 3.15778 7.62959 3.1402 7.65055L3.11959 7.67534L3.11366 7.68259L3.1118 7.68488L3.11115 7.68568L3.11089 7.686C3.11079 7.68613 3.11069 7.68626 3.5 8M3.5 8L3.11069 8.31374V7.68626L3.5 8ZM8.5 8C8.5 8.27614 8.27614 8.5 8 8.5C7.72386 8.5 7.5 8.27614 7.5 8C7.5 7.72386 7.72386 7.5 8 7.5C8.27614 7.5 8.5 7.72386 8.5 8ZM1.5 5C1.5 4.17157 2.17157 3.5 3 3.5H13C13.8284 3.5 14.5 4.17157 14.5 5V11C14.5 11.8284 13.8284 12.5 13 12.5H5.31946C5.00776 12.5 4.7038 12.5971 4.44983 12.7778L1.5 14.8767V5Z" fill="black" stroke="black" stroke-linejoin="bevel"/>
</svg>
