<svg width="24" height="24" viewBox="0 0 24 24" fill="none" xmlns="http://www.w3.org/2000/svg">
<path opacity="0.9" d="M20.5 6.54167L15.585 1.53568C15.5626 1.51286 15.532 1.5 15.5 1.5V1.5M20.5 6.54167V20.5C20.5 21.6046 19.6046 22.5 18.5 22.5H5.5C4.39543 22.5 3.5 21.6046 3.5 20.5V3.5C3.5 2.39543 4.39543 1.5 5.5 1.5H15.5M20.5 6.54167H17.5C16.3954 6.54167 15.5 5.64624 15.5 4.54167V1.5" stroke="black"/>
<path opacity="0.9" d="M5.5 18.5V15.5M5.5 15.5V12C5.5 11.7239 5.72386 11.5 6 11.5H6.5C7.60457 11.5 8.5 12.3954 8.5 13.5V13.5C8.5 14.6046 7.60457 15.5 6.5 15.5H5.5Z" stroke="black" stroke-linecap="round"/>
<path opacity="0.9" d="M10.5 12V18C10.5 18.2761 10.7239 18.5 11 18.5H11.5C12.6046 18.5 13.5 17.6046 13.5 16.5V13.5C13.5 12.3954 12.6046 11.5 11.5 11.5H11C10.7239 11.5 10.5 11.7239 10.5 12Z" stroke="black" stroke-linecap="round"/>
<path opacity="0.9" d="M15.5 18.5V14.5M18.5 11.5H16C15.7239 11.5 15.5 11.7239 15.5 12V14.5M17.5 14.5H15.5" stroke="black" stroke-linecap="round"/>
</svg>
