<svg width="32" height="32" viewBox="0 0 32 32" fill="none" xmlns="http://www.w3.org/2000/svg">
<g opacity="0.9">
<path fill-rule="evenodd" clip-rule="evenodd" d="M10 16.5C9.44772 16.5 9 16.9477 9 17.5V24C9 24.2761 9.22386 24.5 9.5 24.5C9.77614 24.5 10 24.2761 10 24V21.5H10.5C11.8807 21.5 13 20.3807 13 19C13 17.6193 11.8807 16.5 10.5 16.5H10ZM10.5 20.5H10V17.5H10.5C11.3284 17.5 12 18.1716 12 19C12 19.8284 11.3284 20.5 10.5 20.5Z" fill="black"/>
<path fill-rule="evenodd" clip-rule="evenodd" d="M15 16.5C14.4477 16.5 14 16.9477 14 17.5V23.5C14 24.0523 14.4477 24.5 15 24.5H15.5C16.8807 24.5 18 23.3807 18 22V19C18 17.6193 16.8807 16.5 15.5 16.5H15ZM15 17.5H15.5C16.3284 17.5 17 18.1716 17 19V22C17 22.8284 16.3284 23.5 15.5 23.5H15V17.5Z" fill="black"/>
<path d="M19 17.5C19 16.9477 19.4477 16.5 20 16.5H22.5C22.7761 16.5 23 16.7239 23 17C23 17.2761 22.7761 17.5 22.5 17.5H20V19.5H21.5C21.7761 19.5 22 19.7239 22 20C22 20.2761 21.7761 20.5 21.5 20.5H20V24C20 24.2761 19.7761 24.5 19.5 24.5C19.2239 24.5 19 24.2761 19 24V17.5Z" fill="black"/>
<path fill-rule="evenodd" clip-rule="evenodd" d="M8.5 3C7.11929 3 6 4.11929 6 5.5V26.5C6 27.8807 7.11929 29 8.5 29H23.45C24.8307 29 25.95 27.8807 25.95 26.5V9.29535L19.9416 3.18508C19.8251 3.06668 19.666 3 19.5 3H8.5ZM7 5.5C7 4.67157 7.67157 4 8.5 4H19L19 7.5277C19 8.91528 20.13 10.0374 21.5176 10.0276L24.95 10.0035V26.5C24.95 27.3284 24.2784 28 23.45 28H8.5C7.67157 28 7 27.3284 7 26.5V5.5ZM24.2653 9.00831L20 4.67075L20 7.5277C20 8.36024 20.678 9.03351 21.5105 9.02766L24.2653 9.00831Z" fill="black"/>
</g>
</svg>
