<svg width="24" height="24" viewBox="0 0 24 24" fill="none" xmlns="http://www.w3.org/2000/svg">
<g opacity="0.9">
<path fill-rule="evenodd" clip-rule="evenodd" d="M12 17.5C13.6077 17.5 15.1527 16.8823 16.2944 15.7777C16.7662 15.3213 17.1531 14.7971 17.4449 14.2281C17.5244 14.0731 17.5175 13.8879 17.4267 13.7393C17.3358 13.5907 17.1742 13.5 17 13.5H7C6.8258 13.5 6.66417 13.5907 6.57334 13.7393C6.48252 13.8879 6.4756 14.0731 6.55508 14.2281C6.84686 14.7971 7.23385 15.3213 7.70558 15.7777C8.84727 16.8823 10.3923 17.5 12 17.5ZM15.5991 15.059C14.6473 15.9799 13.3529 16.5 12 16.5C10.647 16.5 9.35271 15.9799 8.4009 15.059C8.21978 14.8838 8.0539 14.6968 7.90403 14.5H16.096C15.9461 14.6968 15.7802 14.8838 15.5991 15.059Z" fill="black"/>
<path fill-rule="evenodd" clip-rule="evenodd" d="M8.5 11C9.32843 11 10 10.3284 10 9.5C10 8.67157 9.32843 8 8.5 8C7.67157 8 7 8.67157 7 9.5C7 10.3284 7.67157 11 8.5 11ZM8.5 10C8.77614 10 9 9.77614 9 9.5C9 9.22386 8.77614 9 8.5 9C8.22386 9 8 9.22386 8 9.5C8 9.77614 8.22386 10 8.5 10Z" fill="black"/>
<path fill-rule="evenodd" clip-rule="evenodd" d="M17 9.5C17 10.3284 16.3284 11 15.5 11C14.6716 11 14 10.3284 14 9.5C14 8.67157 14.6716 8 15.5 8C16.3284 8 17 8.67157 17 9.5ZM16 9.5C16 9.77614 15.7761 10 15.5 10C15.2239 10 15 9.77614 15 9.5C15 9.22386 15.2239 9 15.5 9C15.7761 9 16 9.22386 16 9.5Z" fill="black"/>
<path fill-rule="evenodd" clip-rule="evenodd" d="M12 2C6.47715 2 2 6.47715 2 12C2 17.5228 6.47715 22 12 22C17.5228 22 22 17.5228 22 12C22 6.47715 17.5228 2 12 2ZM3 12C3 7.02944 7.02944 3 12 3C16.9706 3 21 7.02944 21 12C21 16.9706 16.9706 21 12 21C7.02944 21 3 16.9706 3 12Z" fill="black"/>
</g>
</svg>
