<svg width="24" height="24" viewBox="0 0 24 24" fill="none" xmlns="http://www.w3.org/2000/svg">
<path opacity="0.9" fill-rule="evenodd" clip-rule="evenodd" d="M4 4C2.89543 4 2 4.89543 2 6V18C2 19.1046 2.89543 20 4 20H20C21.1046 20 22 19.1046 22 18V6C22 4.89543 21.1046 4 20 4H4ZM12.4755 8.46353C12.3259 8.00287 11.6741 8.00287 11.5245 8.46352L10.9897 10.1094C10.9227 10.3154 10.7308 10.4549 10.5142 10.4549H8.78356C8.2992 10.4549 8.09781 11.0747 8.48967 11.3594L9.88975 12.3766C10.065 12.504 10.1383 12.7296 10.0714 12.9357L9.5366 14.5816C9.38693 15.0422 9.91417 15.4253 10.306 15.1406L11.7061 14.1234C11.8814 13.996 12.1186 13.996 12.2939 14.1234L13.694 15.1406C14.0858 15.4253 14.6131 15.0422 14.4634 14.5816L13.9286 12.9357C13.8617 12.7297 13.935 12.504 14.1102 12.3766L15.5103 11.3594C15.9022 11.0747 15.7008 10.4549 15.2164 10.4549H13.4858C13.2692 10.4549 13.0773 10.3154 13.0103 10.1094L12.4755 8.46353Z" fill="black"/>
</svg>
