<svg width="24" height="24" viewBox="0 0 24 24" fill="none" xmlns="http://www.w3.org/2000/svg">
<g opacity="0.9">
<path fill-rule="evenodd" clip-rule="evenodd" d="M11.5245 8.46352C11.6741 8.00286 12.3258 8.00286 12.4755 8.46352L13.0103 10.1094C13.0772 10.3154 13.2692 10.4549 13.4858 10.4549H15.2164C15.7008 10.4549 15.9022 11.0747 15.5103 11.3594L14.1102 12.3766C13.935 12.504 13.8617 12.7296 13.9286 12.9357L14.4634 14.5816C14.6131 15.0422 14.0858 15.4253 13.694 15.1406L12.2939 14.1233C12.1186 13.996 11.8813 13.996 11.7061 14.1233L10.306 15.1406C9.91416 15.4253 9.38692 15.0422 9.53659 14.5816L10.0714 12.9357C10.1383 12.7296 10.065 12.504 9.88974 12.3766L8.48966 11.3594C8.0978 11.0747 8.29919 10.4549 8.78355 10.4549H10.5142C10.7308 10.4549 10.9227 10.3154 10.9897 10.1094L11.5245 8.46352ZM11.9407 10.4184L12 10.2361L12.0592 10.4184C12.2601 11.0365 12.836 11.4549 13.4858 11.4549H13.6776L13.5225 11.5676C12.9967 11.9496 12.7767 12.6266 12.9775 13.2447L13.0368 13.427L12.8817 13.3143C12.3559 12.9324 11.644 12.9324 11.1183 13.3143L10.9632 13.427L11.0224 13.2447C11.2232 12.6266 11.0033 11.9496 10.4775 11.5676L10.3224 11.4549H10.5142C11.164 11.4549 11.7399 11.0365 11.9407 10.4184Z" fill="black"/>
<path fill-rule="evenodd" clip-rule="evenodd" d="M2 6C2 4.89543 2.89543 4 4 4H20C21.1046 4 22 4.89543 22 6V18C22 19.1046 21.1046 20 20 20H4C2.89543 20 2 19.1046 2 18V6ZM4 5H20C20.5523 5 21 5.44772 21 6V18C21 18.5523 20.5523 19 20 19H4C3.44772 19 3 18.5523 3 18V6C3 5.44772 3.44772 5 4 5Z" fill="black"/>
</g>
</svg>
