<svg width="16" height="16" viewBox="0 0 16 16" fill="none" xmlns="http://www.w3.org/2000/svg">
<path opacity="0.9" fill-rule="evenodd" clip-rule="evenodd" d="M3 2C1.89543 2 1 2.89543 1 4V12C1 13.1046 1.89543 14 3 14H13C14.1046 14 15 13.1046 15 12V4C15 2.89543 14.1046 2 13 2H3ZM8.47553 5.46353C8.32585 5.00287 7.67415 5.00287 7.52447 5.46352L7.2142 6.41844C7.14726 6.62445 6.95529 6.76393 6.73867 6.76393H5.73462C5.25025 6.76393 5.04887 7.38374 5.44072 7.66844L6.25302 8.25861C6.42827 8.38593 6.5016 8.61162 6.43466 8.81763L6.12439 9.77254C5.97471 10.2332 6.50195 10.6163 6.89381 10.3316L7.70611 9.74139C7.88135 9.61407 8.11865 9.61407 8.29389 9.74139L9.10619 10.3316C9.49805 10.6163 10.0253 10.2332 9.87561 9.77254L9.56534 8.81763C9.4984 8.61162 9.57173 8.38593 9.74698 8.25861L10.5593 7.66844C10.9511 7.38374 10.7497 6.76393 10.2654 6.76393H9.26133C9.04471 6.76393 8.85274 6.62445 8.7858 6.41844L8.47553 5.46353Z" fill="black"/>
</svg>
