<svg width="32" height="32" viewBox="0 0 32 32" fill="none" xmlns="http://www.w3.org/2000/svg">
<g opacity="0.9">
<path d="M5.85355 5.14657C5.65829 4.95131 5.34171 4.95131 5.14645 5.14657C4.95118 5.34183 4.95118 5.65841 5.14645 5.85368L26.1464 26.8537C26.3417 27.0489 26.6583 27.0489 26.8536 26.8537C27.0488 26.6584 27.0488 26.3418 26.8536 26.1466L5.85355 5.14657Z" fill="black"/>
<path d="M17 6.50005C17 6.30445 16.8859 6.12681 16.7081 6.04541C16.5302 5.96401 16.3212 5.99379 16.1732 6.12164L12.6732 9.14437C12.4642 9.32486 12.4411 9.6406 12.6216 9.84959C12.8021 10.0586 13.1178 10.0817 13.3268 9.90119L16 7.59253V13.5001C16 13.7762 16.2239 14.0001 16.5 14.0001C16.7761 14.0001 17 13.7762 17 13.5001V6.50005Z" fill="black"/>
<path d="M6.5 11.0001C5.67157 11.0001 5 11.6716 5 12.5001V19.5001C5 20.3285 5.67157 21.0001 6.5 21.0001H10.8067L16.1637 25.87C16.3101 26.0032 16.5213 26.0374 16.7023 25.9573C16.8833 25.8772 17 25.698 17 25.5001V19.5001C17 19.2239 16.7761 19.0001 16.5 19.0001C16.2239 19.0001 16 19.2239 16 19.5001V24.3698L11.3363 20.1301C11.2443 20.0464 11.1244 20.0001 11 20.0001H6.5C6.22386 20.0001 6 19.7762 6 19.5001V12.5001C6 12.2239 6.22386 12.0001 6.5 12.0001H8.5C8.77614 12.0001 9 11.7762 9 11.5001C9 11.2239 8.77614 11.0001 8.5 11.0001H6.5Z" fill="black"/>
<path d="M19.1637 10.1301C19.368 9.94433 19.6842 9.95938 19.87 10.1637C21.775 12.2593 22.3889 15.3689 21.7645 18.1111C21.7031 18.3803 21.4352 18.5489 21.1659 18.4876C20.8967 18.4263 20.7281 18.1583 20.7894 17.889C21.3529 15.4146 20.7822 12.6538 19.13 10.8364C18.9443 10.6321 18.9593 10.3158 19.1637 10.1301Z" fill="black"/>
<path d="M22.8536 6.14649C22.6583 5.95123 22.3417 5.95123 22.1464 6.14649C21.9512 6.34176 21.9512 6.65834 22.1464 6.8536C23.7103 8.41749 24.723 10.7143 25.1477 13.2433C25.5718 15.7691 25.4017 18.4843 24.6433 20.8473C24.5589 21.1102 24.7037 21.3917 24.9666 21.4761C25.2295 21.5605 25.5111 21.4158 25.5955 21.1528C26.4055 18.629 26.5829 15.7516 26.1339 13.0777C25.6854 10.407 24.6043 7.89722 22.8536 6.14649Z" fill="black"/>
</g>
</svg>
