<svg width="32" height="32" viewBox="0 0 32 32" fill="none" xmlns="http://www.w3.org/2000/svg">
<g opacity="0.9">
<path fill-rule="evenodd" clip-rule="evenodd" d="M26.8536 6.64645C27.0488 6.84171 27.0488 7.15829 26.8536 7.35355L16.3536 17.8536C16.1583 18.0488 15.8417 18.0488 15.6464 17.8536L5.14645 7.35355C4.95118 7.15829 4.95118 6.84171 5.14645 6.64645C5.34171 6.45118 5.65829 6.45118 5.85355 6.64645L16 16.7929L26.1464 6.64645C26.3417 6.45118 26.6583 6.45118 26.8536 6.64645Z" fill="black"/>
<path fill-rule="evenodd" clip-rule="evenodd" d="M26.8536 14.6464C27.0488 14.8417 27.0488 15.1583 26.8536 15.3536L16.3536 25.8536C16.1583 26.0488 15.8417 26.0488 15.6464 25.8536L5.14645 15.3536C4.95118 15.1583 4.95118 14.8417 5.14645 14.6464C5.34171 14.4512 5.65829 14.4512 5.85355 14.6464L16 24.7929L26.1464 14.6464C26.3417 14.4512 26.6583 14.4512 26.8536 14.6464Z" fill="black"/>
</g>
</svg>
