<svg width="24" height="25" viewBox="0 0 24 25" fill="none" xmlns="http://www.w3.org/2000/svg">
<g opacity="0.9">
<path d="M6 13.217C6 12.3886 6.67157 11.717 7.5 11.717H16.5C17.3284 11.717 18 12.3886 18 13.217C18 14.0455 17.3284 14.717 16.5 14.717H7.5C6.67157 14.717 6 14.0455 6 13.217Z" fill="black"/>
<path d="M2 6.71704C2 5.61247 2.89543 4.71704 4 4.71704H20C21.1046 4.71704 22 5.61247 22 6.71704C22 7.82161 21.1046 8.71704 20 8.71704H4C2.89543 8.71704 2 7.82161 2 6.71704Z" fill="black"/>
<path d="M9 19.217C9 18.3886 9.67157 17.717 10.5 17.717H13.5C14.3284 17.717 15 18.3886 15 19.217C15 20.0455 14.3284 20.717 13.5 20.717H10.5C9.67157 20.717 9 20.0455 9 19.217Z" fill="black"/>
</g>
</svg>
