<svg width="32" height="33" viewBox="0 0 32 33" fill="none" xmlns="http://www.w3.org/2000/svg">
<g opacity="0.9">
<path d="M3 9.71704C3 8.61247 3.89543 7.71704 5 7.71704H27C28.1046 7.71704 29 8.61247 29 9.71704C29 10.8216 28.1046 11.717 27 11.717H5C3.89543 11.717 3 10.8216 3 9.71704Z" fill="black"/>
<path d="M8 18.217C8 17.3886 8.67157 16.717 9.5 16.717H22.5C23.3284 16.717 24 17.3886 24 18.217C24 19.0455 23.3284 19.717 22.5 19.717H9.5C8.67157 19.717 8 19.0455 8 18.217Z" fill="black"/>
<path d="M12 25.217C12 24.3886 12.6716 23.717 13.5 23.717H18.5C19.3284 23.717 20 24.3886 20 25.217C20 26.0455 19.3284 26.717 18.5 26.717H13.5C12.6716 26.717 12 26.0455 12 25.217Z" fill="black"/>
</g>
</svg>
