<svg width="32" height="32" viewBox="0 0 32 32" fill="none" xmlns="http://www.w3.org/2000/svg">
<path opacity="0.9" fill-rule="evenodd" clip-rule="evenodd" d="M6 5.5C6 4.11929 7.11929 3 8.5 3H19.4182L26.0006 9.58744L25.9553 26.5067C25.9516 27.8848 24.8334 29 23.4553 29H8.5C7.11929 29 6 27.8807 6 26.5V5.5ZM19 4L25 10H21C19.8954 10 19 9.10457 19 8V4ZM16.5 13C16.7761 13 17 13.2239 17 13.5V17H20.5C20.7761 17 21 17.2239 21 17.5C21 17.7761 20.7761 18 20.5 18H17V21.5C17 21.7761 16.7761 22 16.5 22C16.2239 22 16 21.7761 16 21.5V18H12.5C12.2239 18 12 17.7761 12 17.5C12 17.2239 12.2239 17 12.5 17H16V13.5C16 13.2239 16.2239 13 16.5 13Z" fill="black"/>
</svg>
