<svg width="16" height="16" viewBox="0 0 16 16" fill="none" xmlns="http://www.w3.org/2000/svg">
<g opacity="0.9">
<path d="M8.5 5C8.77614 5 9 5.22386 9 5.5V8H11.5C11.7761 8 12 8.22386 12 8.5C12 8.77614 11.7761 9 11.5 9H9V11.5C9 11.7761 8.77614 12 8.5 12C8.22386 12 8 11.7761 8 11.5V9H5.5C5.22386 9 5 8.77614 5 8.5C5 8.22386 5.22386 8 5.5 8H8V5.5C8 5.22386 8.22386 5 8.5 5Z" fill="black"/>
<path fill-rule="evenodd" clip-rule="evenodd" d="M1 2.5C1 1.11929 2.11929 0 3.5 0H11.7071L15 3.29289V13.5C15 14.8807 13.8807 16 12.5 16H3.5C2.11929 16 1 14.8807 1 13.5V2.5ZM3.5 1C2.67157 1 2 1.67157 2 2.5V13.5C2 14.3284 2.67157 15 3.5 15H12.5C13.3284 15 14 14.3284 14 13.5V4H13.5C12.1193 4 11 2.88071 11 1.5V1H3.5ZM12.0166 1.72367L13.2763 2.98344C12.627 2.88635 12.1136 2.37304 12.0166 1.72367Z" fill="black"/>
</g>
</svg>
