<svg width="32" height="32" viewBox="0 0 32 32" fill="none" xmlns="http://www.w3.org/2000/svg">
<g opacity="0.9">
<path d="M16.5 13C16.7761 13 17 13.2239 17 13.5V17H20.5C20.7761 17 21 17.2239 21 17.5C21 17.7761 20.7761 18 20.5 18H17V21.5C17 21.7761 16.7761 22 16.5 22C16.2239 22 16 21.7761 16 21.5V18H12.5C12.2239 18 12 17.7761 12 17.5C12 17.2239 12.2239 17 12.5 17H16V13.5C16 13.2239 16.2239 13 16.5 13Z" fill="black"/>
<path fill-rule="evenodd" clip-rule="evenodd" d="M6 5.5C6 4.11929 7.11929 3 8.5 3H19.5C19.666 3 19.8251 3.06668 19.9416 3.18508L25.95 9.29535V26.5C25.95 27.8807 24.8307 29 23.45 29H8.5C7.11929 29 6 27.8807 6 26.5V5.5ZM8.5 4C7.67157 4 7 4.67157 7 5.5V26.5C7 27.3284 7.67157 28 8.5 28H23.45C24.2784 28 24.95 27.3284 24.95 26.5V10.0035L21.5176 10.0276C20.13 10.0374 19 8.91528 19 7.5277L19 4H8.5ZM20 4.67075L24.2653 9.00831L21.5105 9.02766C20.678 9.03351 20 8.36024 20 7.5277L20 4.67075Z" fill="black"/>
</g>
</svg>
