<svg width="24" height="24" viewBox="0 0 24 24" fill="none" xmlns="http://www.w3.org/2000/svg">
<path opacity="0.9" fill-rule="evenodd" clip-rule="evenodd" d="M3 3.5C3 2.11929 4.11929 1 5.5 1H15.4098L21 6.57081V20.5C21 21.8807 19.8807 23 18.5 23H5.5C4.11929 23 3 21.8807 3 20.5V3.5ZM15 2L20 7H17C15.8954 7 15 6.10457 15 5V2ZM12.5 9C12.7761 9 13 9.22386 13 9.5V13H16.5C16.7761 13 17 13.2239 17 13.5C17 13.7761 16.7761 14 16.5 14H13V17.5C13 17.7761 12.7761 18 12.5 18C12.2239 18 12 17.7761 12 17.5V14H8.5C8.22386 14 8 13.7761 8 13.5C8 13.2239 8.22386 13 8.5 13H12V9.5C12 9.22386 12.2239 9 12.5 9Z" fill="black"/>
</svg>
