<svg width="24" height="24" viewBox="0 0 24 24" fill="none" xmlns="http://www.w3.org/2000/svg">
<g opacity="0.9">
<path d="M12.5 9C12.7761 9 13 9.22386 13 9.5V13H16.5C16.7761 13 17 13.2239 17 13.5C17 13.7761 16.7761 14 16.5 14H13V17.5C13 17.7761 12.7761 18 12.5 18C12.2239 18 12 17.7761 12 17.5V14H8.5C8.22386 14 8 13.7761 8 13.5C8 13.2239 8.22386 13 8.5 13H12V9.5C12 9.22386 12.2239 9 12.5 9Z" fill="black"/>
<path fill-rule="evenodd" clip-rule="evenodd" d="M3 3.5C3 2.11929 4.11929 1 5.5 1H15.5C15.6662 1 15.8254 1.0668 15.9418 1.18538L21 6.33724V20.5C21 21.8807 19.8807 23 18.5 23H5.5C4.11929 23 3 21.8807 3 20.5V3.5ZM5.5 2C4.67157 2 4 2.67157 4 3.5V20.5C4 21.3284 4.67157 22 5.5 22H18.5C19.3284 22 20 21.3284 20 20.5V7.04167H17.5C16.1193 7.04167 15 5.92238 15 4.54167V2H5.5ZM16 2.67202L19.3084 6.04167H17.5C16.6716 6.04167 16 5.37009 16 4.54167V2.67202Z" fill="black"/>
</g>
</svg>
