<svg width="16" height="16" viewBox="0 0 16 16" fill="none" xmlns="http://www.w3.org/2000/svg">
<g clip-path="url(#clip0)">
<path opacity="0.9" fill-rule="evenodd" clip-rule="evenodd" d="M4.85355 3.85363C4.65829 4.04889 4.34171 4.04889 4.14645 3.85363C3.95118 3.65837 3.95118 3.34178 4.14645 3.14652L7.5 -0.207031L10.8536 3.14652C11.0488 3.34178 11.0488 3.65837 10.8536 3.85363C10.6583 4.04889 10.3417 4.04889 10.1464 3.85363L8 1.70718V10.5001C8 10.7762 7.77614 11.0001 7.5 11.0001C7.22386 11.0001 7 10.7762 7 10.5001V1.70718L4.85355 3.85363ZM11.9142 4.91435C11.8845 4.94405 11.8541 4.97263 11.823 5.00008H15.5C15.7761 5.00008 16 4.77622 16 4.50008V3.50008C16 2.67165 15.3284 2.00008 14.5 2.00008H11.8284L11.9142 2.08592C12.6953 2.86697 12.6953 4.1333 11.9142 4.91435ZM5.5 10.5001V6.00008H1.5C1.22386 6.00008 1 6.22393 1 6.50008V12.0001C1 13.1046 1.89543 14.0001 3 14.0001H13C14.1046 14.0001 15 13.1046 15 12.0001V6.50008C15 6.22393 14.7761 6.00008 14.5 6.00008H9.5V10.5001C9.5 11.6046 8.60457 12.5001 7.5 12.5001C6.39543 12.5001 5.5 11.6046 5.5 10.5001ZM3.08579 4.91435C3.11549 4.94405 3.1459 4.97263 3.17696 5.00008H0.5C0.223858 5.00008 0 4.77622 0 4.50008V3.50008C0 2.67165 0.671573 2.00008 1.5 2.00008H3.17163L3.08579 2.08592C2.30474 2.86697 2.30474 4.1333 3.08579 4.91435Z" fill="black"/>
</g>
<defs>
<clipPath id="clip0">
<rect width="16" height="16" fill="white"/>
</clipPath>
</defs>
</svg>
