<svg width="32" height="32" viewBox="0 0 32 32" fill="none" xmlns="http://www.w3.org/2000/svg">
<g opacity="0.9">
<path d="M10.1464 7.85363C10.3417 8.04889 10.6583 8.04889 10.8536 7.85363L15 3.70718L15 21.0001C15 21.2762 15.2239 21.5001 15.5 21.5001C15.7761 21.5001 16 21.2762 16 21.0001L16 3.70718L20.1464 7.85363C20.3417 8.04889 20.6583 8.04889 20.8536 7.85363C21.0488 7.65837 21.0488 7.34178 20.8536 7.14652L15.5 1.79297L10.1464 7.14652C9.95118 7.34178 9.95118 7.65837 10.1464 7.85363Z" fill="black"/>
<path d="M5 12V24C5 24.5523 5.44772 25 6 25H26C26.5523 25 27 24.5523 27 24V12H18.5C18.2239 12 18 11.7761 18 11.5C18 11.2239 18.2239 11 18.5 11H28V8C28 7.44772 27.5523 7 27 7H23.5C23.2239 7 23 6.77614 23 6.5C23 6.22386 23.2239 6 23.5 6H27C28.1046 6 29 6.89543 29 8V11.5C29 11.7761 28.7761 12 28.5 12H28V24C28 25.1046 27.1046 26 26 26H6C4.89543 26 4 25.1046 4 24V12H3.5C3.22386 12 3 11.7761 3 11.5V8C3 6.89543 3.89543 6 5 6H7.5C7.77614 6 8 6.22386 8 6.5C8 6.77614 7.77614 7 7.5 7H5C4.44772 7 4 7.44772 4 8V11H12.5C12.7761 11 13 11.2239 13 11.5C13 11.7761 12.7761 12 12.5 12H5Z" fill="black"/>
</g>
</svg>
