<svg width="32" height="32" viewBox="0 0 32 32" fill="none" xmlns="http://www.w3.org/2000/svg">
<path opacity="0.9" fill-rule="evenodd" clip-rule="evenodd" d="M11.7071 8.20701C11.3166 8.59754 10.6834 8.59754 10.2929 8.20701C9.90237 7.81649 9.90237 7.18332 10.2929 6.7928L16 1.08569L21.7071 6.7928C22.0976 7.18332 22.0976 7.81649 21.7071 8.20701C21.3166 8.59754 20.6834 8.59754 20.2929 8.20701L17 4.91412L17 20.9999C17 21.5522 16.5523 21.9999 16 21.9999C15.4477 21.9999 15 21.5522 15 20.9999L15 4.91412L11.7071 8.20701ZM9.23223 9.26781C8.34081 8.37639 8.2633 6.97927 8.9997 5.99991H5C3.89543 5.99991 3 6.89534 3 7.99991V10.4999C3 10.776 3.22386 10.9999 3.5 10.9999H13.5V8.53557L12.7678 9.26781C11.7915 10.2441 10.2085 10.2441 9.23223 9.26781ZM22.7678 9.26781C23.6592 8.37639 23.7367 6.97927 23.0003 5.99991H27C28.1046 5.99991 29 6.89534 29 7.99991V10.4999C29 10.776 28.7761 10.9999 28.5 10.9999H18.5V8.53557L19.2322 9.26781C20.2085 10.2441 21.7915 10.2441 22.7678 9.26781ZM13.5 21L13.5 11.9999H4.5C4.22386 11.9999 4 12.2238 4 12.4999V23.9999C4 25.1045 4.89543 25.9999 6 25.9999H26C27.1046 25.9999 28 25.1045 28 23.9999V12.4999C28 12.2238 27.7761 11.9999 27.5 11.9999H18.5L18.5 21C18.5 22.3808 17.3807 23.5 16 23.5C14.6193 23.5 13.5 22.3808 13.5 21Z" fill="black"/>
</svg>
