<svg width="24" height="24" viewBox="0 0 24 24" fill="none" xmlns="http://www.w3.org/2000/svg">
<g opacity="0.9">
<path d="M8.14645 4.85363C8.34171 5.04889 8.65829 5.04889 8.85355 4.85363L11 2.70718L11 15.0001C11 15.2762 11.2239 15.5001 11.5 15.5001C11.7761 15.5001 12 15.2762 12 15.0001L12 2.70718L14.1464 4.85363C14.3417 5.04889 14.6583 5.04889 14.8536 4.85363C15.0488 4.65837 15.0488 4.34178 14.8536 4.14652L11.5 0.792969L8.14645 4.14652C7.95118 4.34178 7.95118 4.65837 8.14645 4.85363Z" fill="black"/>
<path d="M3 8V19C3 19.5523 3.44772 20 4 20H20C20.5523 20 21 19.5523 21 19V8H14.5C14.2239 8 14 7.77614 14 7.5C14 7.22386 14.2239 7 14.5 7H22V5C22 4.44772 21.5523 4 21 4H17C16.7239 4 16.5 3.77614 16.5 3.5C16.5 3.22386 16.7239 3 17 3H21C22.1046 3 23 3.89543 23 5V7.5C23 7.77614 22.7761 8 22.5 8H22V19C22 20.1046 21.1046 21 20 21H4C2.89543 21 2 20.1046 2 19V8H1.5C1.22386 8 1 7.77614 1 7.5V5C1 3.89543 1.89543 3 3 3H6C6.27614 3 6.5 3.22386 6.5 3.5C6.5 3.77614 6.27614 4 6 4H3C2.44772 4 2 4.44772 2 5V7H8.5C8.77614 7 9 7.22386 9 7.5C9 7.77614 8.77614 8 8.5 8H3Z" fill="black"/>
</g>
</svg>
