<svg width="24" height="24" viewBox="0 0 24 24" fill="none" xmlns="http://www.w3.org/2000/svg">
<path opacity="0.9" fill-rule="evenodd" clip-rule="evenodd" d="M8.85355 4.85363C8.65829 5.04889 8.34171 5.04889 8.14645 4.85363C7.95118 4.65837 7.95118 4.34178 8.14645 4.14652L11.5 0.792969L14.8536 4.14652C15.0488 4.34178 15.0488 4.65837 14.8536 4.85363C14.6583 5.04889 14.3417 5.04889 14.1464 4.85363L12 2.70718V15.5001C12 15.7762 11.7761 16.0001 11.5 16.0001C11.2239 16.0001 11 15.7762 11 15.5001V2.70718L8.85355 4.85363ZM7.08579 5.91435C6.30474 5.1333 6.30474 3.86697 7.08579 3.08592L7.17163 3.00008H3C1.89543 3.00008 1 3.89551 1 5.00008V6.50008C1 6.77622 1.22386 7.00008 1.5 7.00008H9.5V6.23276C8.73514 6.67485 7.74015 6.56871 7.08579 5.91435ZM15.9142 3.08592L15.8284 3.00008H21C22.1046 3.00008 23 3.89551 23 5.00008V6.50008C23 6.77622 22.7761 7.00008 22.5 7.00008H13.5V6.23276C14.2649 6.67485 15.2598 6.56871 15.9142 5.91435C16.6953 5.1333 16.6953 3.86697 15.9142 3.08592ZM9.5 15.5002L9.5 8.00008H2.5C2.22386 8.00008 2 8.22393 2 8.50008V19.0001C2 20.1046 2.89543 21.0001 4 21.0001H20C21.1046 21.0001 22 20.1046 22 19.0001V8.50008C22 8.22393 21.7761 8.00008 21.5 8.00008H13.5L13.5 15.5002C13.5 16.6047 12.6046 17.5002 11.5 17.5002C10.3954 17.5002 9.5 16.6047 9.5 15.5002Z" fill="black"/>
</svg>
