<svg width="16" height="16" viewBox="0 0 16 16" fill="none" xmlns="http://www.w3.org/2000/svg">
<path opacity="0.9" fill-rule="evenodd" clip-rule="evenodd" d="M7.5883 4.44076C7.5984 4.43563 7.60639 4.42715 7.61089 4.41676C7.96322 3.60352 7.73317 2.50005 6.9614 1.66747C5.98329 0.612297 4.50549 0.391783 3.66062 1.17494C3.63125 1.20216 3.60304 1.23024 3.57597 1.25912C3.55182 1.28489 3.56302 1.32647 3.59589 1.33939C4.23464 1.59053 4.71627 2.21936 4.89747 3.0051C5.15193 3.89254 5.79865 4.5495 6.6136 4.63082C6.79359 4.64878 6.97109 4.63759 7.14299 4.60042C7.29664 4.5672 7.44581 4.51323 7.5883 4.44076ZM7.14299 4.60042C6.83773 3.89397 6.40266 3.2007 5.79718 2.52995C5.70466 2.42746 5.71275 2.26937 5.81524 2.17685C5.91773 2.08434 6.07581 2.09242 6.16833 2.19491C6.8179 2.9145 7.28374 3.66036 7.60953 4.41963C7.60487 4.42871 7.59745 4.43611 7.5883 4.44076C7.44582 4.51323 7.29664 4.56721 7.14299 4.60043" fill="black"/>
<path opacity="0.9" fill-rule="evenodd" clip-rule="evenodd" d="M7.60234 4.43018C7.59836 4.43459 7.59358 4.43828 7.5882 4.44101C7.44242 4.51516 7.28964 4.56994 7.13223 4.60295C7.52573 5.50158 7.73621 6.44588 7.74662 7.33804C7.03306 7.41808 6.38046 7.83141 5.85601 8.43932C5.57362 8.07331 5.27266 7.76482 4.95972 7.52893C4.04903 8.61516 3.53592 10.2817 3.67418 11.8619C3.89788 14.4189 5.74231 15.7817 7.85427 15.5969C7.88187 15.5945 7.90938 15.5919 7.93679 15.5889L7.93689 15.5867C7.95786 15.5871 7.97887 15.5872 7.99993 15.5872C8.02937 15.5872 8.05872 15.5869 8.08798 15.5862L8.08878 15.6047C10.1634 15.7441 11.9595 14.3839 12.1801 11.8628C12.3145 10.326 11.8329 8.70754 10.9687 7.62063C10.6884 7.84708 10.4185 8.13145 10.1638 8.46261C9.69538 7.91181 9.12276 7.51676 8.49471 7.37818C8.57661 6.76244 8.88898 6.11559 9.31073 5.52923C9.33989 5.48869 9.3695 5.44853 9.39952 5.4088C9.24544 5.34223 9.10403 5.25053 8.97754 5.13806C8.95303 5.17089 8.92878 5.20397 8.90482 5.23727C8.6144 5.64105 8.36063 6.08742 8.19165 6.54959C8.10156 5.84186 7.90261 5.12275 7.60234 4.43018ZM8.12254 14.1963C8.29536 12.221 8.95998 10.257 9.86378 8.88468C9.32475 8.20679 8.66397 7.82385 7.99993 7.82385C7.34401 7.82385 6.69128 8.19749 6.15591 8.85996C7.0627 10.2327 7.72984 12.2009 7.90303 14.1805C7.93033 14.4924 7.94448 14.7947 7.94625 15.0868C7.9641 15.0871 7.98199 15.0872 7.99993 15.0872C8.02654 15.0872 8.05304 15.0869 8.07943 15.0863C8.08162 14.7993 8.09575 14.5024 8.12254 14.1963Z" fill="black"/>
<path opacity="0.9" fill-rule="evenodd" clip-rule="evenodd" d="M8.92138 5.08554C8.91327 5.07765 8.90816 5.06718 8.90697 5.05592C8.82477 4.27823 9.30873 3.40954 10.1775 2.91102C11.2794 2.2787 12.5831 2.48135 13.0894 3.36365C13.1056 3.39179 13.1207 3.42029 13.1349 3.4491C13.1504 3.4808 13.1274 3.51717 13.0922 3.51992C12.4911 3.56683 11.9237 3.96907 11.566 4.58046C11.1182 5.26212 10.4001 5.64623 9.69146 5.50046C9.5886 5.47931 9.48997 5.44781 9.39606 5.40697C9.8131 4.87324 10.3228 4.37127 10.7787 4.05725C10.8924 3.97893 10.9211 3.82326 10.8428 3.70955C10.7645 3.59584 10.6088 3.56715 10.4951 3.64547C9.97742 4.00205 9.41971 4.55806 8.97429 5.13488C8.95635 5.11885 8.93871 5.1024 8.92138 5.08554Z" fill="black"/>
</svg>
