<svg width="32" height="33" viewBox="0 0 32 33" fill="none" xmlns="http://www.w3.org/2000/svg">
<g opacity="0.9">
<path d="M4.5 10.717C4.22386 10.717 4 10.4932 4 10.217C4 9.9409 4.22386 9.71704 4.5 9.71704H15.5C15.7761 9.71704 16 9.9409 16 10.217C16 10.4932 15.7761 10.717 15.5 10.717H4.5Z" fill="black"/>
<path d="M4 17.217C4 17.4932 4.22386 17.717 4.5 17.717H21.5C21.7761 17.717 22 17.4932 22 17.217C22 16.9409 21.7761 16.717 21.5 16.717H4.5C4.22386 16.717 4 16.9409 4 17.217Z" fill="black"/>
<path d="M4 24.217C4 24.4932 4.22386 24.717 4.5 24.717H27.5C27.7761 24.717 28 24.4932 28 24.217C28 23.9409 27.7761 23.717 27.5 23.717H4.5C4.22386 23.717 4 23.9409 4 24.217Z" fill="black"/>
</g>
</svg>
