<svg width="24" height="24" viewBox="0 0 24 24" fill="none" xmlns="http://www.w3.org/2000/svg">
<g opacity="0.9">
<path d="M10 18.5V14.7071L3.85355 20.8536C3.65829 21.0488 3.34171 21.0488 3.14645 20.8536C2.95118 20.6583 2.95118 20.3417 3.14645 20.1465L9.29289 14L5.5 14C5.22386 14 5 13.7761 5 13.5C5 13.2239 5.22386 13 5.5 13H10.5C10.7761 13 11 13.2239 11 13.5V18.5C11 18.7761 10.7761 19 10.5 19C10.2239 19 10 18.7761 10 18.5Z" fill="black"/>
<path d="M14 5.5V9.29289L20.1465 3.14645C20.3417 2.95118 20.6583 2.95118 20.8536 3.14645C21.0488 3.34171 21.0488 3.65829 20.8536 3.85355L14.7071 10H18.5C18.7761 10 19 10.2239 19 10.5C19 10.7761 18.7761 11 18.5 11H13.5C13.2239 11 13 10.7761 13 10.5V5.5C13 5.22386 13.2239 5 13.5 5C13.7761 5 14 5.22386 14 5.5Z" fill="black"/>
</g>
</svg>
