<svg width="32" height="32" viewBox="0 0 32 32" fill="none" xmlns="http://www.w3.org/2000/svg">
<g opacity="0.9">
<path d="M14.5 17C14.7761 17 15 17.2239 15 17.5V24.5C15 24.7761 14.7761 25 14.5 25C14.2239 25 14 24.7761 14 24.5V18.7071L5.85355 26.8536C5.65829 27.0488 5.34171 27.0488 5.14645 26.8536C4.95118 26.6583 4.95118 26.3417 5.14645 26.1464L13.2929 18H7.5C7.22386 18 7 17.7761 7 17.5C7 17.2239 7.22386 17 7.5 17H14.5Z" fill="black"/>
<path d="M17.5 15C17.2239 15 17 14.7761 17 14.5V7.5C17 7.22386 17.2239 7 17.5 7C17.7761 7 18 7.22386 18 7.5L18 13.2929L26.1464 5.14645C26.3417 4.95118 26.6583 4.95118 26.8536 5.14645C27.0488 5.34171 27.0488 5.65829 26.8536 5.85355L18.7071 14H24.5C24.7761 14 25 14.2239 25 14.5C25 14.7761 24.7761 15 24.5 15H17.5Z" fill="black"/>
</g>
</svg>
