<svg width="16" height="16" viewBox="0 0 16 16" fill="none" xmlns="http://www.w3.org/2000/svg">
<g opacity="0.9">
<path d="M8 1C6.1788 1 4.5143 1.16993 3.29138 1.45214C2.68392 1.59233 2.15778 1.76636 1.77133 1.97721C1.75761 1.9847 1.74394 1.99229 1.73035 2C1.74394 2.00771 1.75761 2.0153 1.77133 2.02279C2.15778 2.23364 2.68392 2.40767 3.29138 2.54786C4.5143 2.83007 6.1788 3 8 3C9.8212 3 11.4857 2.83007 12.7086 2.54786C13.3161 2.40767 13.8422 2.23364 14.2287 2.02279C14.2424 2.0153 14.2561 2.0077 14.2696 2C14.2561 1.99229 14.2424 1.9847 14.2287 1.97721C13.8422 1.76636 13.3161 1.59233 12.7086 1.45214C11.4857 1.16993 9.8212 1 8 1Z" fill="black"/>
<path d="M14.9624 2.74804C14.8752 2.80548 14.7893 2.85605 14.7076 2.90063C14.2062 3.17422 13.5797 3.37312 12.9335 3.52225C11.6173 3.82599 9.87375 4 8 4C6.12625 4 4.38274 3.82599 3.06652 3.52225C2.42031 3.37312 1.79383 3.17422 1.29238 2.90063C1.21067 2.85605 1.12477 2.80548 1.03765 2.74804C1.01379 2.82634 1 2.91045 1 3V5C1 5.26023 1.11645 5.47446 1.25795 5.63403C1.39669 5.79049 1.57835 5.9175 1.77133 6.02279C2.15778 6.23364 2.68392 6.40767 3.29138 6.54786C4.5143 6.83007 6.1788 7 8 7C9.8212 7 11.4857 6.83007 12.7086 6.54786C13.3161 6.40767 13.8422 6.23364 14.2287 6.02279C14.4216 5.9175 14.6033 5.79049 14.742 5.63403C14.8835 5.47446 15 5.26023 15 5V3C15 2.91045 14.9862 2.82634 14.9624 2.74804Z" fill="black"/>
<path d="M15 6.72283C14.9 6.79081 14.8011 6.84964 14.7076 6.90063C14.2062 7.17422 13.5797 7.37312 12.9335 7.52225C11.6173 7.82599 9.87375 8 8 8C6.12625 8 4.38274 7.82599 3.06652 7.52225C2.42031 7.37312 1.79383 7.17422 1.29238 6.90063C1.19893 6.84964 1.09997 6.79081 1 6.72283V9C1 9.26023 1.11645 9.47446 1.25795 9.63403C1.39669 9.79049 1.57835 9.9175 1.77133 10.0228C2.15778 10.2336 2.68392 10.4077 3.29138 10.5479C4.5143 10.8301 6.1788 11 8 11C9.8212 11 11.4857 10.8301 12.7086 10.5479C13.3161 10.4077 13.8422 10.2336 14.2287 10.0228C14.4216 9.9175 14.6033 9.79049 14.742 9.63403C14.8835 9.47446 15 9.26023 15 9V6.72283Z" fill="black"/>
<path d="M15 10.7228C14.9 10.7908 14.8011 10.8496 14.7076 10.9006C14.2062 11.1742 13.5797 11.3731 12.9335 11.5222C11.6173 11.826 9.87375 12 8 12C6.12625 12 4.38274 11.826 3.06652 11.5222C2.42031 11.3731 1.79383 11.1742 1.29238 10.9006C1.19893 10.8496 1.09997 10.7908 1 10.7228V13C1 13.4956 1.40596 13.8183 1.75144 14.0108C2.13719 14.2257 2.6678 14.404 3.29138 14.5479C3.92124 14.6932 4.66022 14.8066 5.46498 14.8836C6.27058 14.9606 7.13174 15 8 15C8.86826 15 9.72942 14.9606 10.535 14.8836C11.3398 14.8066 12.0788 14.6932 12.7086 14.5479C13.3322 14.404 13.8628 14.2257 14.2486 14.0108C14.594 13.8183 15 13.4956 15 13V10.7228Z" fill="black"/>
</g>
</svg>
