<svg width="24" height="24" viewBox="0 0 24 24" fill="none" xmlns="http://www.w3.org/2000/svg">
<path opacity="0.9" fill-rule="evenodd" clip-rule="evenodd" d="M2 4.69231C2 4.38428 2.13744 4.12339 2.3189 3.91875C2.4976 3.71722 2.7382 3.54674 3.00708 3.40004C3.54534 3.10637 4.29115 2.85774 5.17006 2.65492C6.93587 2.24742 9.35037 2 12 2C14.6496 2 17.0641 2.24742 18.8299 2.65492C19.7088 2.85774 20.4547 3.10637 20.9929 3.40004C21.2618 3.54674 21.5024 3.71722 21.6811 3.91875C21.8626 4.12339 22 4.38428 22 4.69231V19.3077C22 19.8942 21.5164 20.307 21.0202 20.5835C20.4837 20.8824 19.7321 21.1369 18.8299 21.3451C17.9215 21.5547 16.8518 21.7192 15.6831 21.8309C14.5135 21.9427 13.2622 22 12 22C10.7378 22 9.4865 21.9427 8.31693 21.8309C7.1482 21.7192 6.0785 21.5547 5.17006 21.3451C4.26791 21.1369 3.51631 20.8824 2.9798 20.5835C2.48357 20.307 2 19.8942 2 19.3077V4.69231ZM3 4.69226C2.99999 4.69157 2.99988 4.68503 3.00669 4.66955C3.01437 4.65211 3.03132 4.62258 3.06711 4.58221C3.14151 4.49831 3.27418 4.39347 3.48603 4.27788C3.90923 4.04699 4.55465 3.82321 5.39492 3.62931C7.06742 3.24334 9.40292 3 12 3C14.5971 3 16.9326 3.24334 18.6051 3.62931C19.4453 3.82321 20.0908 4.04699 20.514 4.27788C20.7258 4.39347 20.8585 4.49831 20.9329 4.58221C20.9687 4.62258 20.9856 4.65211 20.9933 4.66955C21.0001 4.68503 21 4.69157 21 4.69226C21 4.69395 20.9995 4.7011 20.9933 4.71506C20.9856 4.73251 20.9687 4.76204 20.9329 4.8024C20.8585 4.8863 20.7258 4.99115 20.514 5.10673C20.0908 5.33763 19.4453 5.5614 18.6051 5.75531C16.9326 6.14127 14.5971 6.38462 12 6.38462C9.40292 6.38462 7.06742 6.14127 5.39492 5.75531C4.55465 5.5614 3.90923 5.33763 3.48603 5.10673C3.27418 4.99115 3.14151 4.8863 3.06711 4.8024C3.03132 4.76204 3.01437 4.73251 3.00669 4.71506C3.00055 4.70111 3.00003 4.69395 3 4.69226ZM3 14.9231C3 14.9231 3 14.9231 3 14.9231C3 14.9233 3.00002 14.9244 3.00049 14.9265C3.00101 14.929 3.00232 14.934 3.00564 14.9417C3.01243 14.9576 3.02784 14.9855 3.06127 15.0243C3.13073 15.1049 3.25749 15.2088 3.46649 15.3252C3.88481 15.5583 4.53275 15.7871 5.39491 15.9861C6.25078 16.1836 7.27563 16.3421 8.41208 16.4508C9.5477 16.5593 10.7671 16.6154 12 16.6154C13.2329 16.6154 14.4523 16.5593 15.5879 16.4508C16.7244 16.3421 17.7492 16.1836 18.6051 15.9861C19.4672 15.7871 20.1152 15.5583 20.5335 15.3252C20.7425 15.2088 20.8693 15.1049 20.9387 15.0243C20.9722 14.9855 20.9876 14.9576 20.9944 14.9417C20.9977 14.934 20.999 14.929 20.9995 14.9265C21 14.9244 21 14.9233 21 14.9231C21 14.9231 21 14.9231 21 14.9231V11.0946C20.4649 11.3887 19.7208 11.6395 18.8299 11.8451C17.9215 12.0547 16.8518 12.2192 15.6831 12.3309C14.5135 12.4427 13.2622 12.5 12 12.5C10.7378 12.5 9.4865 12.4427 8.31693 12.3309C7.1482 12.2192 6.0785 12.0547 5.17006 11.8451C4.27917 11.6395 3.53511 11.3887 3 11.0946V14.9231ZM21 16.21C20.4649 16.5041 19.7208 16.7549 18.8299 16.9605C17.9215 17.1701 16.8518 17.3345 15.6831 17.4462C14.5135 17.558 13.2622 17.6154 12 17.6154C10.7378 17.6154 9.4865 17.558 8.31693 17.4462C7.1482 17.3345 6.0785 17.1701 5.17006 16.9605C4.27917 16.7549 3.53511 16.5041 3 16.21V19.3077C3 19.3079 2.99999 19.3088 3.00049 19.3112C3.00101 19.3136 3.00232 19.3186 3.00564 19.3264C3.01243 19.3423 3.02784 19.3702 3.06127 19.409C3.13073 19.4896 3.25749 19.5934 3.46649 19.7099C3.88481 19.9429 4.53275 20.1717 5.39491 20.3707C6.25078 20.5682 7.27563 20.7268 8.41208 20.8354C9.5477 20.944 10.7671 21 12 21C13.2329 21 14.4523 20.944 15.5879 20.8354C16.7244 20.7268 17.7492 20.5682 18.6051 20.3707C19.4672 20.1717 20.1152 19.9429 20.5335 19.7099C20.7425 19.5934 20.8693 19.4896 20.9387 19.409C20.9722 19.3702 20.9876 19.3423 20.9944 19.3264C20.9977 19.3186 20.999 19.3136 20.9995 19.3112C20.9998 19.31 20.9999 19.3091 20.9999 19.3086C20.9999 19.3087 21 19.3081 20.9999 19.3086L21 16.21ZM21 5.9807V9.80768C21 9.80792 21 9.809 20.9995 9.81119C20.999 9.81363 20.9977 9.81861 20.9944 9.82638C20.9876 9.84227 20.9722 9.87018 20.9387 9.90896C20.8693 9.98955 20.7425 10.0934 20.5335 10.2099C20.1152 10.4429 19.4672 10.6717 18.6051 10.8707C17.7492 11.0682 16.7244 11.2268 15.5879 11.3354C14.4523 11.444 13.2329 11.5 12 11.5C10.7671 11.5 9.5477 11.444 8.41208 11.3354C7.27563 11.2268 6.25078 11.0682 5.39491 10.8707C4.53275 10.6717 3.88481 10.4429 3.46649 10.2099C3.25749 10.0934 3.13073 9.98955 3.06127 9.90896C3.02784 9.87018 3.01243 9.84227 3.00564 9.82638C3.00232 9.81861 3.00101 9.81363 3.00049 9.81119C3.00002 9.809 3 9.80799 3 9.80775V5.9807L3.00708 5.98457C3.54534 6.27825 4.29115 6.52688 5.17006 6.7297C6.93587 7.13719 9.35037 7.38462 12 7.38462C14.6496 7.38462 17.0641 7.13719 18.8299 6.7297C19.7088 6.52688 20.4547 6.27825 20.9929 5.98457L21 5.9807Z" fill="black"/>
</svg>
