<svg width="24" height="24" viewBox="0 0 24 24" fill="none" xmlns="http://www.w3.org/2000/svg">
<g opacity="0.9">
<path d="M12 2C9.35037 2 6.93587 2.24742 5.17006 2.65492C4.29115 2.85774 3.54534 3.10637 3.00708 3.40004C2.7382 3.54674 2.4976 3.71722 2.3189 3.91875C2.14508 4.11477 2.01166 4.3624 2.00072 4.65363C2.03555 4.67876 2.07269 4.70437 2.11229 4.73044C2.60268 5.05333 3.35618 5.36697 4.35338 5.63894C5.34456 5.90926 6.53109 6.12619 7.84661 6.2748C9.16122 6.42331 10.5728 6.5 12 6.5C13.4272 6.5 14.8388 6.42331 16.1534 6.2748C17.4689 6.12619 18.6554 5.90926 19.6466 5.63894C20.6438 5.36697 21.3973 5.05333 21.8877 4.73044C21.9273 4.70437 21.9644 4.67876 21.9993 4.65363C21.9883 4.3624 21.8549 4.11477 21.6811 3.91875C21.5024 3.71722 21.2618 3.54674 20.9929 3.40004C20.4547 3.10637 19.7088 2.85774 18.8299 2.65492C17.0641 2.24742 14.6496 2 12 2Z" fill="black"/>
<path d="M22 5.82243C21.4358 6.11943 20.7274 6.38071 19.9097 6.6037C18.858 6.89053 17.6193 7.11556 16.2656 7.26848C14.9111 7.4215 13.4619 7.5 12 7.5C10.5381 7.5 9.08891 7.4215 7.73436 7.26848C6.38071 7.11556 5.14198 6.89053 4.09027 6.6037C3.27261 6.38071 2.5642 6.11943 2 5.82243V9.65311C2.03504 9.67841 2.07242 9.70419 2.11229 9.73044C2.60268 10.0533 3.35618 10.367 4.35338 10.6389C5.34456 10.9093 6.53109 11.1262 7.84661 11.2748C9.16122 11.4233 10.5728 11.5 12 11.5C13.4272 11.5 14.8388 11.4233 16.1534 11.2748C17.4689 11.1262 18.6554 10.9093 19.6466 10.6389C20.6438 10.367 21.3973 10.0533 21.8877 9.73044C21.9276 9.70419 21.965 9.67841 22 9.65311V5.82243Z" fill="black"/>
<path d="M22 10.8224C21.4358 11.1194 20.7274 11.3807 19.9097 11.6037C18.858 11.8905 17.6193 12.1156 16.2656 12.2685C14.9111 12.4215 13.4619 12.5 12 12.5C10.5381 12.5 9.08891 12.4215 7.73436 12.2685C6.38071 12.1156 5.14198 11.8905 4.09027 11.6037C3.27261 11.3807 2.5642 11.1194 2 10.8224V14.6531C2.03504 14.6784 2.07242 14.7042 2.11229 14.7304C2.60268 15.0533 3.35618 15.367 4.35338 15.6389C5.34456 15.9093 6.53109 16.1262 7.84661 16.2748C9.16122 16.4233 10.5728 16.5 12 16.5C13.4272 16.5 14.8388 16.4233 16.1534 16.2748C17.4689 16.1262 18.6554 15.9093 19.6466 15.6389C20.6438 15.367 21.3973 15.0533 21.8877 14.7304C21.9276 14.7042 21.965 14.6784 22 14.6531V10.8224Z" fill="black"/>
<path d="M22 15.8224C21.4358 16.1194 20.7274 16.3807 19.9097 16.6037C18.858 16.8905 17.6193 17.1156 16.2656 17.2685C14.9111 17.4215 13.4619 17.5 12 17.5C10.5381 17.5 9.08891 17.4215 7.73436 17.2685C6.38071 17.1156 5.14198 16.8905 4.09027 16.6037C3.27261 16.3807 2.5642 16.1194 2 15.8224V19.3077C2 19.8942 2.48357 20.307 2.9798 20.5835C3.48278 20.8637 4.17479 21.1049 5.00268 21.3055C5.05787 21.3189 5.11367 21.3321 5.17006 21.3451C6.02173 21.5417 7.01512 21.6984 8.09897 21.8093C8.17123 21.8167 8.24388 21.8239 8.31693 21.8309C9.4865 21.9427 10.7378 22 12 22C13.2622 22 14.5135 21.9427 15.6831 21.8309C16.8518 21.7192 17.9215 21.5548 18.8299 21.3451C19.7321 21.1369 20.4837 20.8824 21.0202 20.5835C21.5164 20.307 22 19.8942 22 19.3077V15.8224Z" fill="black"/>
</g>
</svg>
