<svg width="24" height="24" viewBox="0 0 24 24" fill="none" xmlns="http://www.w3.org/2000/svg">
<g opacity="0.9">
<path d="M8.85355 3.64645C9.04882 3.84171 9.04882 4.15829 8.85355 4.35355L5.35355 7.85355C5.15829 8.04882 4.84171 8.04882 4.64645 7.85355L3.14645 6.35355C2.95118 6.15829 2.95118 5.84171 3.14645 5.64645C3.34171 5.45118 3.65829 5.45118 3.85355 5.64645L5 6.79289L8.14645 3.64645C8.34171 3.45118 8.65829 3.45118 8.85355 3.64645Z" fill="black"/>
<path d="M11.5 6C11.2239 6 11 6.22386 11 6.5C11 6.77614 11.2239 7 11.5 7H19.5C19.7761 7 20 6.77614 20 6.5C20 6.22386 19.7761 6 19.5 6H11.5Z" fill="black"/>
<path d="M8.85355 10.3536C9.04882 10.1583 9.04882 9.84171 8.85355 9.64645C8.65829 9.45118 8.34171 9.45118 8.14645 9.64645L5 12.7929L3.85355 11.6464C3.65829 11.4512 3.34171 11.4512 3.14645 11.6464C2.95118 11.8417 2.95118 12.1583 3.14645 12.3536L4.64645 13.8536C4.84171 14.0488 5.15829 14.0488 5.35355 13.8536L8.85355 10.3536Z" fill="black"/>
<path d="M11.5 12C11.2239 12 11 12.2239 11 12.5C11 12.7761 11.2239 13 11.5 13H19.5C19.7761 13 20 12.7761 20 12.5C20 12.2239 19.7761 12 19.5 12H11.5Z" fill="black"/>
<path d="M11 18.5C11 18.2239 11.2239 18 11.5 18H19.5C19.7761 18 20 18.2239 20 18.5C20 18.7761 19.7761 19 19.5 19H11.5C11.2239 19 11 18.7761 11 18.5Z" fill="black"/>
<path fill-rule="evenodd" clip-rule="evenodd" d="M4 16C3.44772 16 3 16.4477 3 17V20C3 20.5523 3.44772 21 4 21H7C7.55228 21 8 20.5523 8 20V17C8 16.4477 7.55228 16 7 16H4ZM4 17H7V20H4V17Z" fill="black"/>
</g>
</svg>
