<svg width="16" height="16" viewBox="0 0 16 16" fill="none" xmlns="http://www.w3.org/2000/svg">
<path opacity="0.9" fill-rule="evenodd" clip-rule="evenodd" d="M1 8C1 4.13401 4.13401 1 8 1C11.866 1 15 4.13401 15 8C15 11.866 11.866 15 8 15C4.13401 15 1 11.866 1 8ZM10 8C10 7.17157 10.6716 6.5 11.5 6.5C12.3284 6.5 13 7.17157 13 8C13 8.82843 12.3284 9.5 11.5 9.5C10.6716 9.5 10 8.82843 10 8ZM3 8C3 7.44772 3.44772 7 4 7C4.55228 7 5 7.44772 5 8C5 8.55228 4.55228 9 4 9C3.44772 9 3 8.55228 3 8ZM6.5 8C6.5 7.44772 6.94772 7 7.5 7C8.05228 7 8.5 7.44772 8.5 8C8.5 8.55228 8.05228 9 7.5 9C6.94772 9 6.5 8.55228 6.5 8Z" fill="black"/>
</svg>
