<svg width="25" height="24" viewBox="0 0 25 24" fill="none" xmlns="http://www.w3.org/2000/svg">
<path opacity="0.9" fill-rule="evenodd" clip-rule="evenodd" d="M2.03516 12C2.03516 6.47715 6.51231 2 12.0352 2C17.558 2 22.0352 6.47715 22.0352 12C22.0352 17.5228 17.558 22 12.0352 22C6.51231 22 2.03516 17.5228 2.03516 12ZM19.0352 12C19.0352 13.1046 18.1397 14 17.0352 14C15.9306 14 15.0352 13.1046 15.0352 12C15.0352 10.8954 15.9306 10 17.0352 10C18.1397 10 19.0352 10.8954 19.0352 12ZM13.0352 12C13.0352 12.8284 12.3636 13.5 11.5352 13.5C10.7067 13.5 10.0352 12.8284 10.0352 12C10.0352 11.1716 10.7067 10.5 11.5352 10.5C12.3636 10.5 13.0352 11.1716 13.0352 12ZM8.03516 12C8.03516 12.8284 7.36358 13.5 6.53516 13.5C5.70673 13.5 5.03516 12.8284 5.03516 12C5.03516 11.1716 5.70673 10.5 6.53516 10.5C7.36358 10.5 8.03516 11.1716 8.03516 12Z" fill="black"/>
</svg>
