<svg width="16" height="16" viewBox="0 0 16 16" fill="none" xmlns="http://www.w3.org/2000/svg">
<g opacity="0.9">
<path fill-rule="evenodd" clip-rule="evenodd" d="M10.5783 0.0899402C9.67171 -0.0625803 9 0.698987 9 1.49987V6.49987C9 6.77601 9.22386 6.99987 9.5 6.99987H14.5C15.3009 6.99987 16.0625 6.32816 15.9099 5.42154C15.8288 4.93921 15.6933 4.46644 15.5052 4.01243C15.1786 3.22381 14.6998 2.50726 14.0962 1.90368C13.4926 1.3001 12.7761 0.821309 11.9874 0.494653C11.5334 0.306597 11.0607 0.171082 10.5783 0.0899402ZM10 1.49987C10 1.19618 10.2298 1.04536 10.4124 1.07608C10.8206 1.14474 11.2206 1.25941 11.6048 1.41853C12.272 1.69493 12.8784 2.10006 13.3891 2.61078C13.8998 3.1215 14.3049 3.72782 14.5813 4.39511C14.7405 4.77927 14.8551 5.17931 14.9238 5.58744C14.9545 5.77007 14.8037 5.99987 14.5 5.99987H10V1.49987Z" fill="black"/>
<path fill-rule="evenodd" clip-rule="evenodd" d="M8 3.49987C8 2.69899 7.32828 1.93742 6.42166 2.08994C5.51982 2.24166 4.65595 2.58273 3.8888 3.09532C2.81988 3.80955 1.98676 4.82471 1.49479 6.01243C1.00282 7.20015 0.874095 8.50708 1.1249 9.76796C1.3757 11.0288 1.99477 12.187 2.90381 13.0961C3.81285 14.0051 4.97104 14.6242 6.23192 14.875C7.49279 15.1258 8.79973 14.9971 9.98744 14.5051C11.1752 14.0131 12.1903 13.18 12.9046 12.1111C13.4171 11.3439 13.7582 10.4801 13.9099 9.57822C14.0625 8.67159 13.3009 7.99987 12.5 7.99987H8.5C8.22386 7.99987 8 7.77602 8 7.49987V3.49987ZM6.58756 3.07608C6.7702 3.04536 7 3.19619 7 3.49987V7.49987C7 8.3283 7.67158 8.99987 8.5 8.99987H12.5C12.8037 8.99987 12.9545 9.22968 12.9238 9.41231C12.7954 10.1754 12.5068 10.9064 12.0731 11.5555C11.4687 12.46 10.6098 13.1649 9.60476 13.5812C8.59977 13.9975 7.4939 14.1064 6.42701 13.8942C5.36011 13.682 4.3801 13.1581 3.61092 12.389C2.84173 11.6198 2.3179 10.6398 2.10568 9.57287C1.89347 8.50597 2.00238 7.40011 2.41867 6.39511C2.83495 5.39012 3.5399 4.53114 4.44437 3.92679C5.09349 3.49306 5.82445 3.20447 6.58756 3.07608Z" fill="black"/>
</g>
</svg>
