<svg width="24" height="24" viewBox="0 0 24 24" fill="none" xmlns="http://www.w3.org/2000/svg">
<g opacity="0.9">
<path d="M14.5534 1.05876C13.6709 0.960295 13 1.68875 13 2.50018V10.5002C13 10.7763 13.2239 11.0002 13.5 11.0002H21.5C22.3114 11.0002 23.0399 10.3293 22.9414 9.44679C22.8426 8.56087 22.6193 7.69149 22.2769 6.86469C21.7994 5.71209 21.0997 4.66482 20.2175 3.78267C19.3354 2.90051 18.2881 2.20074 17.1355 1.72332C16.3087 1.38085 15.4393 1.15761 14.5534 1.05876Z" fill="black"/>
<path d="M12 4.50019C12 3.68875 11.3291 2.9603 10.4466 3.05876C8.94036 3.22681 7.49073 3.75354 6.22209 4.60122C4.65982 5.6451 3.44218 7.12879 2.72315 8.86469C2.00412 10.6006 1.81598 12.5107 2.18254 14.3535C2.5491 16.1964 3.45389 17.8891 4.78249 19.2177C6.11109 20.5463 7.80383 21.4511 9.64665 21.8176C11.4895 22.1842 13.3996 21.9961 15.1355 21.277C16.8714 20.558 18.3551 19.3404 19.399 17.7781C20.2466 16.5095 20.7734 15.0598 20.9414 13.5536C21.0399 12.671 20.3114 12.0002 19.5 12.0002H12.5C12.2239 12.0002 12 11.7763 12 11.5002V4.50019Z" fill="black"/>
</g>
</svg>
