<svg width="32" height="32" viewBox="0 0 32 32" fill="none" xmlns="http://www.w3.org/2000/svg">
<g opacity="0.9">
<path fill-rule="evenodd" clip-rule="evenodd" d="M8.5 4C7.67157 4 7 4.67157 7 5.5V26.5C7 27.3284 7.67157 28 8.5 28H15.5C15.7761 28 16 28.2239 16 28.5C16 28.7761 15.7761 29 15.5 29H8.5C7.11929 29 6 27.8807 6 26.5V5.5C6 4.11929 7.11929 3 8.5 3H19.5C19.666 3 19.8251 3.06668 19.9416 3.18508L25.95 9.29535V17.5C25.95 17.7761 25.7261 18 25.45 18C25.1739 18 24.95 17.7761 24.95 17.5V10.0035L21.5176 10.0276C20.13 10.0374 19 8.91528 19 7.5277L19 4H8.5ZM20 4.67075L24.2653 9.00831L21.5105 9.02766C20.678 9.03351 20 8.36024 20 7.5277L20 4.67075Z" fill="black"/>
<path fill-rule="evenodd" clip-rule="evenodd" d="M9 13C9 11.8954 9.89543 11 11 11C12.1046 11 13 11.8954 13 13V18.5C13 18.7761 12.7761 19 12.5 19H9.5C9.22386 19 9 18.7761 9 18.5V13ZM11 12C10.4477 12 10 12.4477 10 13V18H12V13C12 12.4477 11.5523 12 11 12Z" fill="black"/>
<path fill-rule="evenodd" clip-rule="evenodd" d="M16 8C14.8954 8 14 8.89543 14 10V18.5C14 18.7761 14.2239 19 14.5 19H17.5C17.7761 19 18 18.7761 18 18.5V10C18 8.89543 17.1046 8 16 8ZM15 10C15 9.44772 15.4477 9 16 9C16.5523 9 17 9.44772 17 10V18H15V10Z" fill="black"/>
<path fill-rule="evenodd" clip-rule="evenodd" d="M19 15C19 13.8954 19.8954 13 21 13C22.1046 13 23 13.8954 23 15V18.5C23 18.7761 22.7761 19 22.5 19H19.5C19.2239 19 19 18.7761 19 18.5V15ZM21 14C20.4477 14 20 14.4477 20 15V18H22V15C22 14.4477 21.5523 14 21 14Z" fill="black"/>
<path fill-rule="evenodd" clip-rule="evenodd" d="M25.6983 21.3208C24.5176 20.14 22.8453 19.7516 21.3423 20.1529C21.1696 20.199 21.0347 20.3338 20.9884 20.5064C20.942 20.679 20.9914 20.8632 21.1177 20.9896L23.3893 23.2612L23.0687 25.0686L21.2612 25.3893L18.9896 23.1177C18.8633 22.9913 18.6791 22.942 18.5065 22.9883C18.3339 23.0346 18.1991 23.1695 18.153 23.3422C17.7516 24.8452 18.1401 26.5175 19.3208 27.6983C20.427 28.8045 21.9647 29.2153 23.3904 28.9326L24.7241 30.2663C25.7022 31.2445 27.2882 31.2445 28.2664 30.2663C29.2445 29.2881 29.2445 27.7022 28.2664 26.724L26.9327 25.3903C27.2153 23.9646 26.8045 22.427 25.6983 21.3208ZM24.2807 22.7384L22.5424 21C23.4301 21.0082 24.3145 21.3512 24.9912 22.0279C25.9093 22.946 26.2131 24.2465 25.9 25.4188C25.8539 25.5912 25.9033 25.7752 26.0295 25.9014L27.5592 27.4311C28.1469 28.0188 28.1469 28.9715 27.5592 29.5592C26.9716 30.1468 26.0188 30.1468 25.4312 29.5592L23.9014 28.0295C23.7752 27.9032 23.5913 27.8539 23.4189 27.8999C22.2466 28.213 20.946 27.9093 20.0279 26.9912C19.3512 26.3145 19.0083 25.43 19.0001 24.5423L20.7384 26.2807C20.8539 26.3961 21.0185 26.4479 21.1793 26.4194L23.5873 25.9922C23.7939 25.9556 23.9557 25.7939 23.9923 25.5873L24.4195 23.1792C24.448 23.0184 24.3962 22.8538 24.2807 22.7384Z" fill="black"/>
</g>
</svg>
