<svg width="16" height="16" viewBox="0 0 16 16" fill="none" xmlns="http://www.w3.org/2000/svg">
<g opacity="0.9">
<path fill-rule="evenodd" clip-rule="evenodd" d="M1 2.5C1 1.11929 2.11929 0 3.5 0H11.3918L15 3.58271V10.0438C14.3646 9.39714 13.4801 8.99609 12.502 8.99609C10.5679 8.99609 9 10.564 9 12.498C9 14.4318 10.5673 15.9994 12.5009 16C12.5006 16 12.5012 16 12.5009 16H3.5C2.11929 16 1 14.8807 1 13.5V2.5ZM11 1L14 4H12C11.4477 4 11 3.55228 11 3V1ZM7 3C7 2.44772 7.44772 2 8 2C8.55228 2 9 2.44772 9 3V7.5C9 7.77614 8.77614 8 8.5 8H7.5C7.22386 8 7 7.77614 7 7.5V3ZM4 5C4 4.44772 4.44772 4 5 4C5.55228 4 6 4.44772 6 5V7.5C6 7.77614 5.77614 8 5.5 8H4.5C4.22386 8 4 7.77614 4 7.5V5ZM11 5C10.4477 5 10 5.44772 10 6V7.5C10 7.77614 10.2239 8 10.5 8H11.5C11.7761 8 12 7.77614 12 7.5V6C12 5.44772 11.5523 5 11 5Z" fill="black"/>
<path d="M11.0858 13.9142C11.6092 14.4377 12.3507 14.6103 13.0179 14.4321L13.781 15.1952C14.1715 15.5857 14.8046 15.5857 15.1952 15.1952C15.5857 14.8046 15.5857 14.1715 15.1952 13.781L14.4321 13.0179C14.6103 12.3507 14.4377 11.6092 13.9142 11.0858C13.3908 10.5623 12.6493 10.3897 11.9821 10.5679L13.2071 11.7929L11.7929 13.2071L10.5679 11.9821C10.3897 12.6493 10.5623 13.3908 11.0858 13.9142Z" fill="black"/>
</g>
</svg>
