<svg width="24" height="24" viewBox="0 0 24 24" fill="none" xmlns="http://www.w3.org/2000/svg">
<g opacity="0.9">
<path fill-rule="evenodd" clip-rule="evenodd" d="M5.5 1C4.11929 1 3 2.11929 3 3.5V20.5C3 21.8807 4.11929 23 5.5 23H18.5C18.5363 23 18.5725 22.9992 18.6084 22.9977L18.0982 22.4874C17.9832 22.4958 17.8671 22.5 17.75 22.5C15.1266 22.5 13 20.3734 13 17.75L13.0002 17.7061C13.0003 17.2966 13.0535 16.8874 13.1596 16.4898C13.1782 16.4203 13.2015 16.3529 13.2293 16.2879C13.5252 15.3723 14.0915 14.5783 14.8342 14H14.5C14.2239 14 14 13.7761 14 13.5V10.5C14 9.67157 14.6716 9 15.5 9C16.3284 9 17 9.67157 17 10.5V13.0532C17.2412 13.0167 17.4849 12.999 17.7285 13L17.75 13C19.0072 13 20.1503 13.4884 21 14.2859V6.57081L15.4098 1H5.5ZM20 7L15 2V5C15 6.10457 15.8954 7 17 7H20ZM10 6.5C10 5.67157 10.6716 5 11.5 5C12.3284 5 13 5.67157 13 6.5V13.5C13 13.7761 12.7761 14 12.5 14H10.5C10.2239 14 10 13.7761 10 13.5V6.5ZM6 8.5C6 7.67157 6.67157 7 7.5 7C8.32843 7 9 7.67157 9 8.5V13.5C9 13.7761 8.77614 14 8.5 14H6.5C6.22386 14 6 13.7761 6 13.5V8.5Z" fill="black"/>
<path d="M15.4395 19.9758C16.279 20.8154 17.4682 21.0922 18.5383 20.8065L19.7621 22.0302C20.3884 22.6566 21.4039 22.6566 22.0302 22.0302C22.6566 21.4039 22.6566 20.3884 22.0302 19.7621L20.8065 18.5383C21.0565 17.6019 20.8758 16.5745 20.2643 15.7698C20.1769 15.6548 20.0808 15.5444 19.9758 15.4395C19.1363 14.6 17.9472 14.3231 16.877 14.6089L18.8417 16.5736L16.5736 18.8417L14.6089 16.877C14.3231 17.9472 14.6 19.1363 15.4395 19.9758Z" fill="black"/>
</g>
</svg>
