<svg width="32" height="32" viewBox="0 0 32 32" fill="none" xmlns="http://www.w3.org/2000/svg">
<path opacity="0.9" fill-rule="evenodd" clip-rule="evenodd" d="M20.999 9.62402C20.999 11.0377 20.3472 12.299 19.3277 13.124H19.499C21.2613 13.124 22.7194 14.4265 22.9632 16.1213L28.999 13.9081V26.3399L22.9632 24.1268C22.7194 25.8216 21.2613 27.124 19.499 27.124H7.49902C5.56603 27.124 3.99902 25.557 3.99902 23.624V16.624C3.99902 14.8343 5.34231 13.3584 7.07567 13.1494C6.41208 12.5124 5.99902 11.6165 5.99902 10.624C5.99902 8.69103 7.56603 7.12402 9.49902 7.12402C10.5731 7.12402 11.5342 7.60785 12.1762 8.36945C12.7194 6.49465 14.4491 5.12402 16.499 5.12402C18.9843 5.12402 20.999 7.13874 20.999 9.62402ZM12.7012 12.0389C12.5203 12.4477 12.2635 12.8154 11.9485 13.124H13.6704C13.2918 12.8177 12.9639 12.4511 12.7012 12.0389Z" fill="black"/>
</svg>
