<svg width="24" height="24" viewBox="0 0 24 24" fill="none" xmlns="http://www.w3.org/2000/svg">
<path opacity="0.9" fill-rule="evenodd" clip-rule="evenodd" d="M14.2351 9.12402C14.7102 8.59327 14.999 7.89238 14.999 7.12402C14.999 5.46717 13.6559 4.12402 11.999 4.12402C10.7919 4.12402 9.75126 4.83699 9.27529 5.86481C8.82223 5.40737 8.19372 5.12402 7.49902 5.12402C6.11831 5.12402 4.99902 6.24331 4.99902 7.62402C4.99902 8.18683 5.185 8.70619 5.49884 9.12402C4.11821 9.12412 2.99902 10.2434 2.99902 11.624V16.624C2.99902 18.0047 4.11831 19.124 5.49902 19.124H14.499C15.8797 19.124 16.999 18.0047 16.999 16.624V16.4335L20.999 18.4335V9.81543L16.999 11.8154V11.624C16.999 10.2433 15.8797 9.12402 14.499 9.12402H14.2351ZM9.99902 7.12402C9.99902 6.01945 10.8945 5.12402 11.999 5.12402C13.1036 5.12402 13.999 6.01945 13.999 7.12402C13.999 8.22859 13.1036 9.12402 11.999 9.12402C10.8945 9.12402 9.99902 8.22859 9.99902 7.12402ZM9.76292 9.12402C9.71272 9.06794 9.6646 9.00995 9.61868 8.95019C9.58126 9.00987 9.54139 9.06786 9.49921 9.12402H9.76292ZM7.49902 6.12402C6.6706 6.12402 5.99902 6.7956 5.99902 7.62402C5.99902 8.45245 6.6706 9.12402 7.49902 9.12402C8.32745 9.12402 8.99902 8.45245 8.99902 7.62402C8.99902 6.7956 8.32745 6.12402 7.49902 6.12402ZM5.49902 10.124H14.499C15.3275 10.124 15.999 10.7956 15.999 11.624V16.624C15.999 17.4525 15.3275 18.124 14.499 18.124H5.49902C4.6706 18.124 3.99902 17.4525 3.99902 16.624V11.624C3.99902 10.7956 4.6706 10.124 5.49902 10.124ZM16.999 12.9335V15.3154L19.999 16.8154V11.4335L16.999 12.9335Z" fill="black"/>
</svg>
