<svg width="24" height="24" viewBox="0 0 24 24" fill="none" xmlns="http://www.w3.org/2000/svg">
<path opacity="0.9" fill-rule="evenodd" clip-rule="evenodd" d="M9.27529 5.86481C9.75126 4.83699 10.7919 4.12402 11.999 4.12402C13.6559 4.12402 14.999 5.46717 14.999 7.12402C14.999 7.89238 14.7102 8.59327 14.2351 9.12402H14.499C15.8797 9.12402 16.999 10.2433 16.999 11.624V11.8154L20.999 9.81543V18.4335L16.999 16.4335V16.624C16.999 18.0047 15.8797 19.124 14.499 19.124H5.49902C4.11831 19.124 2.99902 18.0047 2.99902 16.624V11.624C2.99902 10.2434 4.11821 9.12412 5.49884 9.12402C5.185 8.70619 4.99902 8.18683 4.99902 7.62402C4.99902 6.24331 6.11831 5.12402 7.49902 5.12402C8.19372 5.12402 8.82223 5.40737 9.27529 5.86481ZM9.61868 8.95019C9.58126 9.00987 9.54139 9.06786 9.49921 9.12402H9.76292C9.71272 9.06794 9.6646 9.00995 9.61868 8.95019Z" fill="black"/>
</svg>
