<svg width="16" height="16" viewBox="0 0 16 16" fill="none" xmlns="http://www.w3.org/2000/svg">
<g opacity="0.9">
<path d="M7.1283 7.10963V7.38235L7.59623 7.49465L7.08302 9.98128C7.05786 10.1043 7.03774 10.2166 7.02264 10.3182C7.00755 10.4198 7 10.5241 7 10.631C7 10.7219 7.03522 10.8075 7.10566 10.8877C7.18113 10.9626 7.31447 11 7.50566 11C7.59623 11 7.69182 10.9893 7.79245 10.9679C7.89308 10.9519 7.9912 10.9278 8.08679 10.8957C8.18742 10.8636 8.2805 10.8262 8.36604 10.7834C8.4566 10.7406 8.53459 10.6952 8.6 10.6471V10.3743H8.0717L8.75094 6.91711L8.61509 6.82086C8.50943 6.82086 8.38616 6.83155 8.24528 6.85294C8.10943 6.86898 7.97107 6.89037 7.83019 6.91711C7.68931 6.94385 7.55597 6.97594 7.43019 7.01337C7.3044 7.04545 7.20377 7.07754 7.1283 7.10963Z" fill="black"/>
<path d="M7.93585 5.15241C7.82013 5.25401 7.76226 5.39572 7.76226 5.57754C7.76226 5.74866 7.82013 5.88503 7.93585 5.98663C8.05157 6.08824 8.19748 6.13904 8.37358 6.13904C8.56478 6.13904 8.71572 6.08824 8.82642 5.98663C8.94214 5.88503 9 5.74866 9 5.57754C9 5.39572 8.94214 5.25401 8.82642 5.15241C8.71572 5.0508 8.56478 5 8.37358 5C8.19748 5 8.05157 5.0508 7.93585 5.15241Z" fill="black"/>
<path fill-rule="evenodd" clip-rule="evenodd" d="M5.5 0C5.77614 0 6 0.223858 6 0.5L6 3H10V0.5C10 0.223858 10.2239 0 10.5 0C10.7761 0 11 0.223858 11 0.5V3H13C13.5523 3 14 3.44772 14 4V8C14 10.7614 11.7614 13 9 13V15C9 15.5523 8.55228 16 8 16C7.44772 16 7 15.5523 7 15L7 13C4.23858 13 2 10.7614 2 8V4C2 3.44772 2.44771 3 3 3H5L5 0.5C5 0.223858 5.22386 0 5.5 0ZM9 12H7C4.79086 12 3 10.2091 3 8V4H13V8C13 10.2091 11.2091 12 9 12Z" fill="black"/>
</g>
</svg>
