<svg width="32" height="32" viewBox="0 0 32 32" fill="none" xmlns="http://www.w3.org/2000/svg">
<g opacity="0.9">
<path fill-rule="evenodd" clip-rule="evenodd" d="M12 9C12 10.1046 11.1046 11 10 11C8.89543 11 8 10.1046 8 9C8 7.89543 8.89543 7 10 7C11.1046 7 12 7.89543 12 9ZM11 9C11 9.55228 10.5523 10 10 10C9.44772 10 9 9.55228 9 9C9 8.44772 9.44772 8 10 8C10.5523 8 11 8.44772 11 9Z" fill="black"/>
<path fill-rule="evenodd" clip-rule="evenodd" d="M6 4C4.89543 4 4 4.89543 4 6V23C4 24.1046 4.89543 25 6 25H23C24.1046 25 25 24.1046 25 23V6C25 4.89543 24.1046 4 23 4H6ZM23 5H6C5.44772 5 5 5.44772 5 6V18.8142L10.6538 13.3018L14.291 16.848L19.2427 11.7896L24 16.5383V6C24 5.44772 23.5523 5 23 5ZM5 23V20.2109L10.6538 14.6984L13.5915 17.5626L7.28992 24H6C5.44772 24 5 23.5523 5 23ZM24 17.9512L19.2509 13.2107L8.68929 24H23C23.5523 24 24 23.5523 24 23V17.9512Z" fill="black"/>
<path d="M27.5 9C27.7761 9 28 9.22386 28 9.5V23.5C28 25.9853 25.9853 28 23.5 28H9.5C9.22386 28 9 27.7761 9 27.5C9 27.2239 9.22386 27 9.5 27H23.5C25.433 27 27 25.433 27 23.5V9.5C27 9.22386 27.2239 9 27.5 9Z" fill="black"/>
</g>
</svg>
