<svg width="24" height="24" viewBox="0 0 24 24" fill="none" xmlns="http://www.w3.org/2000/svg">
<g opacity="0.9">
<path fill-rule="evenodd" clip-rule="evenodd" d="M17 3H4C3.44772 3 3 3.44772 3 4V17C3 17.5523 3.44772 18 4 18H17C17.5523 18 18 17.5523 18 17V4C18 3.44772 17.5523 3 17 3ZM4 2C2.89543 2 2 2.89543 2 4V17C2 18.1046 2.89543 19 4 19H17C18.1046 19 19 18.1046 19 17V4C19 2.89543 18.1046 2 17 2H4Z" fill="black"/>
<path d="M14.8478 7.5L18.5 11.3824V16.5C18.5 17.6046 17.6046 18.5 16.5 18.5H4.5L14.8478 7.5Z" fill="black"/>
<path fill-rule="evenodd" clip-rule="evenodd" d="M14.8478 6.77027L19 11.1841V16.5C19 17.8807 17.8807 19 16.5 19H4.5C4.30054 19 4.12017 18.8815 4.04104 18.6984C3.9619 18.5153 3.99915 18.3027 4.13582 18.1574L14.8478 6.77027ZM5.65682 18H16.5C17.3284 18 18 17.3284 18 16.5V11.5806L14.8478 8.22973L5.65682 18Z" fill="black"/>
<path d="M7.5 9L9.13146 10.5055L2.70537 17.2626L2.5 16.9149V14L7.5 9Z" fill="black"/>
<path fill-rule="evenodd" clip-rule="evenodd" d="M7.48609 8.3068L9.84356 10.4823L2.61153 18.0868L2 17.0516V13.7929L7.48609 8.3068ZM7.51391 9.6932L3 14.2071V16.2272L8.41936 10.5288L7.51391 9.6932Z" fill="black"/>
<path fill-rule="evenodd" clip-rule="evenodd" d="M6 7C6.55228 7 7 6.55228 7 6C7 5.44772 6.55228 5 6 5C5.44772 5 5 5.44772 5 6C5 6.55228 5.44772 7 6 7Z" fill="black"/>
<path fill-rule="evenodd" clip-rule="evenodd" d="M21.5 6C21.7761 6 22 6.22386 22 6.5V18.5C22 20.433 20.433 22 18.5 22H6.5C6.22386 22 6 21.7761 6 21.5C6 21.2239 6.22386 21 6.5 21H18.5C19.8807 21 21 19.8807 21 18.5V6.5C21 6.22386 21.2239 6 21.5 6Z" fill="black"/>
</g>
</svg>
