<svg width="16" height="16" viewBox="0 0 16 16" fill="none" xmlns="http://www.w3.org/2000/svg">
<g opacity="0.9">
<path fill-rule="evenodd" clip-rule="evenodd" d="M1 3C1 1.89543 1.89543 1 3 1H11C12.1046 1 13 1.89543 13 3V11C13 12.1046 12.1046 13 11 13H10.5342L10.5 13.0002H2.85339L2.8582 12.9951C1.83629 12.9235 1.02608 12.0842 1.00062 11.0502L1 11.0469V3ZM3 2H11C11.5523 2 12 2.44772 12 3V6.29312L10.4867 4.77979L3.78218 12H3C2.87526 12 2.75586 11.9772 2.64574 11.9354L5.95842 8.25139L3.5 5.79297L2 7.29297V3C2 2.44772 2.44772 2 3 2Z" fill="black"/>
<path d="M15 4.5C15 4.22386 14.7761 4 14.5 4C14.2239 4 14 4.22386 14 4.5V11.5C14 12.8807 12.8807 14 11.5 14H5C4.72386 14 4.5 14.2239 4.5 14.5C4.5 14.7761 4.72386 15 5 15H11.5C13.433 15 15 13.433 15 11.5V4.5Z" fill="black"/>
</g>
</svg>
