<svg width="32" height="32" viewBox="0 0 32 32" fill="none" xmlns="http://www.w3.org/2000/svg">
<g opacity="0.9">
<path fill-rule="evenodd" clip-rule="evenodd" d="M27.5 9C27.7761 9 28 9.22386 28 9.5V23.5C28 25.9853 25.9853 28 23.5 28H9.5C9.22386 28 9 27.7761 9 27.5C9 27.2239 9.22386 27 9.5 27H23.5C25.433 27 27 25.433 27 23.5V9.5C27 9.22386 27.2239 9 27.5 9Z" fill="black"/>
<path fill-rule="evenodd" clip-rule="evenodd" d="M23 5H6C5.44772 5 5 5.44772 5 6V23C5 23.5523 5.44772 24 6 24H23C23.5523 24 24 23.5523 24 23V6C24 5.44772 23.5523 5 23 5ZM6 4C4.89543 4 4 4.89543 4 6V23C4 24.1046 4.89543 25 6 25H23C24.1046 25 25 24.1046 25 23V6C25 4.89543 24.1046 4 23 4H6Z" fill="black"/>
<path d="M19.2468 12.5L24.5 17.7437V22.5C24.5 23.6046 23.6046 24.5 22.5 24.5H7.50003L19.2468 12.5Z" fill="black"/>
<path fill-rule="evenodd" clip-rule="evenodd" d="M19.2427 11.7894L25 17.5363V22.5C25 23.8807 23.8807 25 22.5 25H6.3109L19.2427 11.7894ZM19.2509 13.2106L8.68916 24H22.5C23.3284 24 24 23.3284 24 22.5V17.9511L19.2509 13.2106Z" fill="black"/>
<path d="M10.6538 14L12.7591 16.1053L4.85438 23.928L4.5 22.926V20L10.6538 14Z" fill="black"/>
<path fill-rule="evenodd" clip-rule="evenodd" d="M10.6583 13.2973L13.4681 16.1071L5.20608 24.2834C5.08439 24.4038 4.90954 24.4536 4.74266 24.4154C4.57578 24.3771 4.44008 24.2561 4.38299 24.0947L4 23.0118V19.7892L10.6583 13.2973ZM5 20.2108V22.8402L5.06294 23.0182L12.0502 16.1034L10.6494 14.7027L5 20.2108Z" fill="black"/>
<path d="M12 9C12 10.1046 11.1046 11 10 11C8.89543 11 8 10.1046 8 9C8 7.89543 8.89543 7 10 7C11.1046 7 12 7.89543 12 9Z" fill="black"/>
<path fill-rule="evenodd" clip-rule="evenodd" d="M10 10C10.5523 10 11 9.55228 11 9C11 8.44772 10.5523 8 10 8C9.44772 8 9 8.44772 9 9C9 9.55228 9.44772 10 10 10ZM10 11C11.1046 11 12 10.1046 12 9C12 7.89543 11.1046 7 10 7C8.89543 7 8 7.89543 8 9C8 10.1046 8.89543 11 10 11Z" fill="black"/>
</g>
</svg>
