<svg width="24" height="24" viewBox="0 0 24 24" fill="none" xmlns="http://www.w3.org/2000/svg">
<g opacity="0.9">
<path fill-rule="evenodd" clip-rule="evenodd" d="M12 3C7.02944 3 3 7.02944 3 12C3 16.9706 7.02944 21 12 21C16.9706 21 21 16.9706 21 12C21 7.02944 16.9706 3 12 3ZM2 12C2 6.47715 6.47715 2 12 2C17.5228 2 22 6.47715 22 12C22 17.5228 17.5228 22 12 22C6.47715 22 2 17.5228 2 12Z" fill="black"/>
<path fill-rule="evenodd" clip-rule="evenodd" d="M15.8997 14.5641C14.8627 13.5608 13.4597 13 12 13C10.5403 13 9.13727 13.5608 8.10026 14.5641C7.67176 14.9787 7.32018 15.4549 7.05508 15.9719C6.92908 16.2176 7.02613 16.5189 7.27185 16.6449C7.51757 16.7709 7.81891 16.6739 7.94491 16.4281C8.15994 16.0088 8.44577 15.6212 8.79558 15.2828C9.64271 14.4632 10.7951 14 12 14C13.2049 14 14.3573 14.4632 15.2044 15.2828C15.5542 15.6212 15.8401 16.0088 16.0551 16.4281C16.1811 16.6739 16.4824 16.7709 16.7281 16.6449C16.9739 16.5189 17.0709 16.2176 16.9449 15.9719C16.6798 15.4549 16.3282 14.9787 15.8997 14.5641Z" fill="black"/>
<path fill-rule="evenodd" clip-rule="evenodd" d="M8.5 10C8.77614 10 9 9.77614 9 9.5C9 9.22386 8.77614 9 8.5 9C8.22386 9 8 9.22386 8 9.5C8 9.77614 8.22386 10 8.5 10ZM8.5 11C9.32843 11 10 10.3284 10 9.5C10 8.67157 9.32843 8 8.5 8C7.67157 8 7 8.67157 7 9.5C7 10.3284 7.67157 11 8.5 11Z" fill="black"/>
<path fill-rule="evenodd" clip-rule="evenodd" d="M15.5 10C15.7761 10 16 9.77614 16 9.5C16 9.22386 15.7761 9 15.5 9C15.2239 9 15 9.22386 15 9.5C15 9.77614 15.2239 10 15.5 10ZM15.5 11C16.3284 11 17 10.3284 17 9.5C17 8.67157 16.3284 8 15.5 8C14.6716 8 14 8.67157 14 9.5C14 10.3284 14.6716 11 15.5 11Z" fill="black"/>
</g>
</svg>
