<svg width="32" height="32" viewBox="0 0 32 32" fill="none" xmlns="http://www.w3.org/2000/svg">
<path opacity="0.9" fill-rule="evenodd" clip-rule="evenodd" d="M4 16C4 9.37258 9.37258 4 16 4C22.6274 4 28 9.37258 28 16C28 22.6274 22.6274 28 16 28C9.37258 28 4 22.6274 4 16ZM11 15C12.1046 15 13 14.1046 13 13C13 11.8954 12.1046 11 11 11C9.89543 11 9 11.8954 9 13C9 14.1046 9.89543 15 11 15ZM21 15C22.1046 15 23 14.1046 23 13C23 11.8954 22.1046 11 21 11C19.8954 11 19 11.8954 19 13C19 14.1046 19.8954 15 21 15ZM20.6802 19.7892C19.4325 18.6396 17.7484 18 16 18C14.2516 18 12.5675 18.6396 11.3198 19.7892C10.804 20.2645 10.3799 20.8112 10.0598 21.4058C9.92884 21.649 10.0198 21.9522 10.263 22.0831C10.5061 22.214 10.8093 22.123 10.9402 21.8799C11.2069 21.3847 11.5619 20.9259 11.9974 20.5246C13.0525 19.5525 14.4916 19 16 19C17.5084 19 18.9475 19.5525 20.0026 20.5246C20.4381 20.9259 20.7931 21.3847 21.0598 21.8799C21.1907 22.123 21.4939 22.214 21.737 22.0831C21.9802 21.9522 22.0712 21.649 21.9402 21.4058C21.6201 20.8112 21.196 20.2645 20.6802 19.7892Z" fill="black"/>
</svg>
