<svg width="16" height="16" viewBox="0 0 16 16" fill="none" xmlns="http://www.w3.org/2000/svg">
<path opacity="0.9" d="M7.97487 3.02513C6.60804 1.65829 4.39196 1.65829 3.02513 3.02513C1.65829 4.39196 1.65829 6.60804 3.02513 7.97487C4.27192 9.22167 6.22535 9.33117 7.59626 8.30336L10.1569 10.864L9.09619 11.9246C8.90093 12.1199 8.90093 12.4365 9.09619 12.6317C9.29146 12.827 9.60804 12.827 9.8033 12.6317L10.864 11.5711L11.5711 12.2782L11.2175 12.6317C11.0223 12.827 11.0223 13.1436 11.2175 13.3388C11.4128 13.5341 11.7294 13.5341 11.9246 13.3388L12.2782 12.9853L12.9853 13.6924L11.9246 14.753C11.7294 14.9483 11.7294 15.2649 11.9246 15.4602C12.1199 15.6554 12.4365 15.6554 12.6317 15.4602L14.0459 14.0459C14.2412 13.8507 14.2412 13.5341 14.0459 13.3388L8.30336 7.59626C9.33117 6.22535 9.22167 4.27192 7.97487 3.02513Z" fill="black"/>
</svg>
