<svg width="24" height="24" viewBox="0 0 24 24" fill="none" xmlns="http://www.w3.org/2000/svg">
<path opacity="0.9" fill-rule="evenodd" clip-rule="evenodd" d="M5.31802 5.31802C7.07538 3.56066 9.92462 3.56066 11.682 5.31802C13.3198 6.95587 13.4312 9.54216 12.0161 11.309L19.4602 18.753C19.6554 18.9483 19.6554 19.2649 19.4602 19.4602L17.3388 21.5815C17.1436 21.7767 16.827 21.7767 16.6317 21.5815C16.4365 21.3862 16.4365 21.0696 16.6317 20.8744L18.3995 19.1066L17.6924 18.3995L16.6317 19.4602C16.4365 19.6554 16.1199 19.6554 15.9246 19.4602C15.7294 19.2649 15.7294 18.9483 15.9246 18.753L16.9853 17.6924L16.2782 16.9853L14.5104 18.753C14.3151 18.9483 13.9986 18.9483 13.8033 18.753C13.608 18.5578 13.608 18.2412 13.8033 18.0459L15.5711 16.2782L11.309 12.0161C9.54216 13.4312 6.95587 13.3198 5.31802 11.682C3.56066 9.92462 3.56066 7.07538 5.31802 5.31802ZM7.5 8C7.77614 8 8 7.77614 8 7.5C8 7.22386 7.77614 7 7.5 7C7.22386 7 7 7.22386 7 7.5C7 7.77614 7.22386 8 7.5 8Z" fill="black"/>
</svg>
