<svg width="16" height="16" viewBox="0 0 16 16" fill="none" xmlns="http://www.w3.org/2000/svg">
<path opacity="0.9" fill-rule="evenodd" clip-rule="evenodd" d="M3.02513 3.02513C4.39196 1.65829 6.60804 1.65829 7.97487 3.02513C9.22167 4.27192 9.33117 6.22535 8.30336 7.59626L14.0459 13.3388C14.2412 13.5341 14.2412 13.8507 14.0459 14.0459L12.6317 15.4602C12.4365 15.6554 12.1199 15.6554 11.9246 15.4602C11.7294 15.2649 11.7294 14.9483 11.9246 14.753L12.9853 13.6924L12.2782 12.9853L11.9246 13.3388C11.7294 13.5341 11.4128 13.5341 11.2175 13.3388C11.0223 13.1436 11.0223 12.827 11.2175 12.6317L11.5711 12.2782L10.864 11.5711L9.8033 12.6317C9.60804 12.827 9.29146 12.827 9.09619 12.6317C8.90093 12.4365 8.90093 12.1199 9.09619 11.9246L10.1569 10.864L7.59626 8.30336C6.22535 9.33117 4.27192 9.22167 3.02513 7.97487C1.65829 6.60804 1.65829 4.39196 3.02513 3.02513ZM7.26777 3.73223C6.29146 2.75592 4.70854 2.75592 3.73223 3.73223C2.75592 4.70854 2.75592 6.29146 3.73223 7.26777C4.70854 8.24408 6.29146 8.24408 7.26777 7.26777C8.24408 6.29146 8.24408 4.70854 7.26777 3.73223Z" fill="black"/>
</svg>
