<svg width="32" height="32" viewBox="0 0 32 32" fill="none" xmlns="http://www.w3.org/2000/svg">
<path opacity="0.9" fill-rule="evenodd" clip-rule="evenodd" d="M7.5 6C5.567 6 4 7.567 4 9.5V19.5C4 21.433 5.567 23 7.5 23H13.5V16.7025L12.3873 17.774C11.5916 18.5401 10.3255 18.5163 9.55936 17.7206C8.79318 16.925 8.81707 15.6589 9.61272 14.8927L15.5 9.22346L21.3873 14.8927C22.1829 15.6589 22.2068 16.925 21.4406 17.7206C20.6745 18.5163 19.4084 18.5401 18.6127 17.774L17.5 16.7025V23H23.5C25.433 23 27 21.433 27 19.5V9.5C27 7.567 25.433 6 23.5 6H7.5ZM19.6532 16.6935C19.8521 16.885 20.1686 16.8791 20.3602 16.6802C20.5517 16.4812 20.5457 16.1647 20.3468 15.9732L15.5 11.3059L10.6532 15.9732C10.4543 16.1647 10.4483 16.4812 10.6398 16.6802C10.8314 16.8791 11.1479 16.885 11.3468 16.6935L15 13.1756L15 29C15 29.2761 15.2239 29.5 15.5 29.5C15.7761 29.5 16 29.2761 16 29L16 13.1756L19.6532 16.6935Z" fill="black"/>
</svg>
