<svg width="16" height="16" viewBox="0 0 16 16" fill="none" xmlns="http://www.w3.org/2000/svg">
<g opacity="0.9">
<path d="M15 3.5C15 3.77614 15.2238 4 15.5 4C15.7761 4 16 3.77614 16 3.5V0.5C16 0.367392 15.9473 0.240215 15.8535 0.146447C15.7598 0.0526786 15.6326 0 15.5 0H12.5C12.2238 0 12 0.223858 12 0.5C12 0.776143 12.2238 1 12.5 1H14.2929L7.14643 8.14645C6.95117 8.34171 6.95117 8.65829 7.14643 8.85355C7.34169 9.04882 7.65828 9.04882 7.85354 8.85355L15 1.70711V3.5Z" fill="black"/>
<path d="M2 3.5C2 2.67157 2.67157 2 3.5 2H8C8.27614 2 8.5 1.77614 8.5 1.5C8.5 1.22386 8.27614 1 8 1H3.5C2.11929 1 1 2.11929 1 3.5V12.5C1 13.8807 2.11929 15 3.5 15H12.5C13.8807 15 15 13.8807 15 12.5V8C15 7.72386 14.7761 7.5 14.5 7.5C14.2239 7.5 14 7.72386 14 8V12.5C14 13.3284 13.3284 14 12.5 14H3.5C2.67157 14 2 13.3284 2 12.5V3.5Z" fill="black"/>
</g>
</svg>
