<svg width="24" height="24" viewBox="0 0 24 24" fill="none" xmlns="http://www.w3.org/2000/svg">
<g opacity="0.9">
<path fill-rule="evenodd" clip-rule="evenodd" d="M4.5 3C3.67157 3 3 3.67157 3 4.5V19.5C3 20.3284 3.67157 21 4.5 21H19.5C20.3284 21 21 20.3284 21 19.5V12C21 11.7239 21.2239 11.5 21.5 11.5C21.7761 11.5 22 11.7239 22 12V19.5C22 20.8807 20.8807 22 19.5 22H4.5C3.11929 22 2 20.8807 2 19.5V4.5C2 3.11929 3.11929 2 4.5 2H12C12.2761 2 12.5 2.22386 12.5 2.5C12.5 2.77614 12.2761 3 12 3H4.5Z" fill="black"/>
<path fill-rule="evenodd" clip-rule="evenodd" d="M23.5 6C23.2239 6 23 5.77614 23 5.5L23 1.70711L12.8536 11.8536C12.6583 12.0488 12.3417 12.0488 12.1464 11.8536C11.9512 11.6583 11.9512 11.3417 12.1464 11.1464L22.2929 1L18.5 1C18.2239 1 18 0.776142 18 0.5C18 0.223857 18.2239 -2.52881e-07 18.5 8.42938e-08L23.5 0C23.6326 -4.21468e-08 23.7598 0.0526784 23.8536 0.146447C23.9473 0.240215 24 0.367392 24 0.5V5.5C24 5.77614 23.7761 6 23.5 6Z" fill="black"/>
</g>
</svg>
