<svg width="32" height="32" viewBox="0 0 32 32" fill="none" xmlns="http://www.w3.org/2000/svg">
<path fill-rule="evenodd" clip-rule="evenodd" d="M14.4216 3.19926C14.5516 3.02666 14.7778 2.95707 14.9823 3.02674L25.4496 6.59247C25.5789 6.63652 25.6845 6.73155 25.742 6.85549C25.7994 6.97942 25.8036 7.12147 25.7537 7.24861C25.4009 8.14643 25.3655 8.85166 25.4948 9.51497C25.6287 10.2023 25.9415 10.866 26.3443 11.6991C26.405 11.8246 26.4105 11.9698 26.3596 12.0996C26.0068 12.9974 25.9714 13.7026 26.1006 14.3659C26.2346 15.0533 26.5474 15.717 26.9502 16.5501C27.0262 16.7073 27.0147 16.8929 26.9198 17.0395L24.5397 20.715C24.3896 20.9468 24.08 21.013 23.8483 20.8629C23.6165 20.7129 23.5502 20.4033 23.7003 20.1715L25.9277 16.7318C25.5815 16.0104 25.2651 15.3062 25.1191 14.5572C25.0918 14.4173 25.0706 14.2763 25.0559 14.1338L18.4444 24.3573C18.3144 24.5582 18.0604 24.6389 17.8383 24.5498L7.11488 20.246C6.89992 20.7151 6.83017 21.1891 6.9116 21.6673C7.01214 22.2577 7.35281 22.9102 8.04585 23.6038L18.7071 27.8826L19.4401 26.7507C19.5902 26.5189 19.8997 26.4527 20.1315 26.6028C20.3633 26.7529 20.4296 27.0624 20.2795 27.2942L19.3227 28.7718C19.1927 28.9726 18.9387 29.0531 18.7168 28.9641L7.58011 24.4944C7.51965 24.4701 7.46451 24.4343 7.4178 24.3889C6.57349 23.568 6.07487 22.7107 5.92579 21.8352C5.79798 21.0846 5.93451 20.364 6.26906 19.6979C5.58788 18.9618 5.17974 18.1985 5.04733 17.4209C4.89707 16.5385 5.11217 15.6975 5.58488 14.9377C5.59271 14.9252 5.60109 14.9129 5.61 14.9011L14.4216 3.19926ZM7.16739 19.1895L17.8284 23.4683L25.3219 11.881C24.9757 11.1595 24.6592 10.4553 24.5132 9.70625C24.4855 9.56381 24.4639 9.42033 24.4492 9.27524L17.6519 19.7385C17.5236 19.9359 17.2751 20.0172 17.055 19.9335L6.23984 15.8243C6.0222 16.2958 5.95127 16.7723 6.03314 17.253C6.13368 17.8435 6.47435 18.4959 7.16739 19.1895ZM6.80925 14.9709L17.0331 18.8555L24.5191 7.33195L15.0026 4.0901L6.80925 14.9709Z" fill="black"/>
<path fill-rule="evenodd" clip-rule="evenodd" d="M15.4829 7.08859C15.7396 6.74225 16.1893 6.59938 16.5988 6.73411L20.4622 8.00514C20.9146 8.15398 21.0895 8.70138 20.8072 9.08497L19.8636 10.3672C19.6019 10.7228 19.1381 10.8647 18.7223 10.7164L14.923 9.36173C14.4803 9.20387 14.3159 8.66321 14.5958 8.28559L15.4829 7.08859ZM19.7564 8.82568L16.2863 7.68402L15.6402 8.55578L19.0582 9.77454L19.7564 8.82568Z" fill="black"/>
<path fill-rule="evenodd" clip-rule="evenodd" d="M25.5001 22C25.7762 22 26.0001 22.2239 26.0001 22.5V28.5C26.0001 28.7762 25.7762 29 25.5001 29C25.2239 29 25.0001 28.7762 25.0001 28.5V22.5C25.0001 22.2239 25.2239 22 25.5001 22Z" fill="black"/>
<path fill-rule="evenodd" clip-rule="evenodd" d="M29.0001 25.5C29.0001 25.7762 28.7762 26 28.5001 26H22.5001C22.2239 26 22.0001 25.7762 22.0001 25.5C22.0001 25.2239 22.2239 25 22.5001 25H28.5001C28.7762 25 29.0001 25.2239 29.0001 25.5Z" fill="black"/>
</svg>
