<svg width="32" height="32" viewBox="0 0 32 32" fill="none" xmlns="http://www.w3.org/2000/svg">
<g opacity="0.9">
<path fill-rule="evenodd" clip-rule="evenodd" d="M14.9823 3.02674C14.7778 2.95707 14.5516 3.02666 14.4216 3.19926L5.61 14.9011C5.60109 14.9129 5.59271 14.9252 5.58488 14.9377C5.11217 15.6975 4.89707 16.5385 5.04733 17.4209C5.17974 18.1985 5.58788 18.9618 6.26906 19.6979C5.93451 20.364 5.79798 21.0846 5.92579 21.8352C6.07487 22.7107 6.57349 23.568 7.4178 24.3889C7.46451 24.4343 7.51965 24.4701 7.58011 24.4944L18.7168 28.9641C18.9387 29.0531 19.1927 28.9726 19.3227 28.7718L20.177 27.4524C20.0614 26.9873 20.0001 26.5008 20.0001 26C20.0001 25.9613 20.0004 25.9227 20.0012 25.8842L18.7071 27.8826L8.04585 23.6038C7.35281 22.9102 7.01214 22.2577 6.9116 21.6673C6.83017 21.1891 6.89992 20.7151 7.11488 20.246L17.8383 24.5498C18.0604 24.6389 18.3144 24.5582 18.4444 24.3573L25.0559 14.1338C25.0706 14.2763 25.0918 14.4173 25.1191 14.5572C25.2651 15.3062 25.5815 16.0104 25.9277 16.7318L23.4414 20.5714C23.9115 20.3494 24.4151 20.1867 24.9426 20.0929L26.9198 17.0395C27.0147 16.8929 27.0262 16.7073 26.9502 16.5501C26.5474 15.717 26.2346 15.0533 26.1006 14.3659C25.9714 13.7026 26.0068 12.9974 26.3596 12.0996C26.4105 11.9698 26.405 11.8246 26.3443 11.6991C25.9415 10.866 25.6287 10.2023 25.4948 9.51497C25.3655 8.85166 25.4009 8.14643 25.7537 7.24861C25.8036 7.12147 25.7994 6.97942 25.742 6.85549C25.6845 6.73155 25.5789 6.63652 25.4496 6.59247L14.9823 3.02674ZM17.8284 23.4683L25.3219 11.881C24.9757 11.1595 24.6592 10.4553 24.5132 9.70625C24.4855 9.56381 24.4639 9.42033 24.4492 9.27524L17.6519 19.7385C17.5236 19.9359 17.2751 20.0172 17.055 19.9335L6.23984 15.8243C6.0222 16.2958 5.95127 16.7723 6.03314 17.253C6.13368 17.8435 6.47435 18.4959 7.16739 19.1895L17.8284 23.4683ZM16.4426 7.20906L20.3059 8.4801C20.4352 8.52262 20.4851 8.67902 20.4045 8.78862L19.4609 10.0709C19.33 10.2487 19.0981 10.3196 18.8902 10.2455L15.091 8.89077C14.9645 8.84567 14.9175 8.6912 14.9975 8.5833L15.8846 7.3863C16.0129 7.21313 16.2378 7.1417 16.4426 7.20906Z" fill="black"/>
<path d="M25.0001 29V27H23.0001C22.4478 27 22.0001 26.5523 22.0001 26C22.0001 25.4477 22.4478 25 23.0001 25H25.0001V23C25.0001 22.4477 25.4478 22 26.0001 22C26.5523 22 27.0001 22.4477 27.0001 23V25H29.0001C29.5523 25 30.0001 25.4477 30.0001 26C30.0001 26.5523 29.5523 27 29.0001 27H27.0001V29C27.0001 29.5523 26.5523 30 26.0001 30C25.4478 30 25.0001 29.5523 25.0001 29Z" fill="black"/>
</g>
</svg>
