<svg width="16" height="16" viewBox="0 0 16 16" fill="none" xmlns="http://www.w3.org/2000/svg">
<g clip-path="url(#clip0)">
<path d="M10.5581 3.45401L8.39697 2.76487C8.19585 2.70074 7.97611 2.76983 7.84788 2.93753L7.44817 3.46026C7.36533 3.56859 7.41283 3.72623 7.54172 3.77077L9.66357 4.50409C9.86786 4.5747 10.0944 4.50603 10.2251 4.33388L10.6567 3.7655C10.7402 3.6555 10.6897 3.49597 10.5581 3.45401Z" fill="black"/>
<path fill-rule="evenodd" clip-rule="evenodd" d="M7.42699 0.0252394C7.22609 -0.0410926 7.00518 0.0261994 6.87538 0.19327L1.42055 7.21437C1.41136 7.2262 1.40271 7.23843 1.39462 7.25103C1.07966 7.74169 0.928801 8.29858 1.03248 8.88872C1.11648 9.36678 1.35997 9.82404 1.74497 10.2555C1.56668 10.6534 1.49694 11.0856 1.57629 11.5373C1.67857 12.1194 2.01733 12.6707 2.56011 13.1821C2.60692 13.2262 2.6618 13.2609 2.72174 13.2842L8.49425 15.5297C8.75161 15.6298 9.04139 15.5024 9.14151 15.245C9.24162 14.9876 9.11414 14.6979 8.85679 14.5977L3.17789 12.3887C2.78802 12.0027 2.6126 11.6567 2.56121 11.3642C2.52866 11.179 2.54171 10.992 2.60417 10.8015L7.53948 12.7213C7.79684 12.8214 8.08662 12.6939 8.18673 12.4366C8.28684 12.1792 8.15937 11.8894 7.90201 11.7893L2.63408 9.74012C2.24421 9.35414 2.06879 9.00818 2.0174 8.71568C1.9844 8.52788 1.99827 8.33836 2.06295 8.14513L8.59028 10.5489C8.80687 10.6287 9.0499 10.5498 9.1784 10.3581L13.13 4.46243C13.2272 4.82722 13.3831 5.17409 13.5487 5.51299L11.0179 9.30591C10.8647 9.53561 10.9266 9.84607 11.1563 9.99934C11.386 10.1526 11.6965 10.0906 11.8498 9.86093L13.5064 7.37802C13.6037 7.74092 13.7589 8.0861 13.9236 8.42339L13.3342 9.30566C13.1808 9.53527 13.2426 9.84577 13.4722 9.99917C13.7018 10.1526 14.0123 10.0908 14.1657 9.86118L14.9158 8.73839C15.0155 8.58919 15.0276 8.39801 14.9475 8.23744C14.6957 7.73272 14.5157 7.3591 14.4392 6.97839C14.3677 6.62301 14.3843 6.24143 14.5884 5.73789C14.6423 5.60494 14.6365 5.45524 14.5724 5.32686C14.3207 4.82214 14.1407 4.44852 14.0641 4.06781C13.9927 3.71243 14.0092 3.33084 14.2133 2.82731C14.2653 2.69909 14.2618 2.55506 14.2037 2.4295C14.1456 2.30393 14.0381 2.20806 13.9067 2.16468L7.42699 0.0252394ZM8.56674 9.47457L2.62958 7.28814L7.44856 1.08546L12.9681 2.90788L8.56674 9.47457Z" fill="black"/>
<path d="M12.5001 11C12.7762 11 13.0001 11.2239 13.0001 11.5V13H14.5001C14.7762 13 15.0001 13.2239 15.0001 13.5C15.0001 13.7761 14.7762 14 14.5001 14H13.0001V15.5C13.0001 15.7761 12.7762 16 12.5001 16C12.2239 16 12.0001 15.7761 12.0001 15.5V14H10.5001C10.2239 14 10.0001 13.7761 10.0001 13.5C10.0001 13.2239 10.2239 13 10.5001 13H12.0001V11.5C12.0001 11.2239 12.2239 11 12.5001 11Z" fill="black"/>
</g>
<defs>
<clipPath id="clip0">
<rect width="16" height="16" fill="white"/>
</clipPath>
</defs>
</svg>
