<svg width="32" height="33" viewBox="0 0 32 33" fill="none" xmlns="http://www.w3.org/2000/svg">
<g opacity="0.9">
<path d="M4 10.217C4 9.9409 4.22386 9.71704 4.5 9.71704H27.5C27.7761 9.71704 28 9.9409 28 10.217C28 10.4932 27.7761 10.717 27.5 10.717H4.5C4.22386 10.717 4 10.4932 4 10.217Z" fill="black"/>
<path d="M4 17.217C4 16.9409 4.22386 16.717 4.5 16.717H21.5C21.7761 16.717 22 16.9409 22 17.217C22 17.4932 21.7761 17.717 21.5 17.717H4.5C4.22386 17.717 4 17.4932 4 17.217Z" fill="black"/>
<path d="M4.5 23.717C4.22386 23.717 4 23.9409 4 24.217C4 24.4932 4.22386 24.717 4.5 24.717H15.5C15.7761 24.717 16 24.4932 16 24.217C16 23.9409 15.7761 23.717 15.5 23.717H4.5Z" fill="black"/>
</g>
</svg>
