<svg width="24" height="25" viewBox="0 0 24 25" fill="none" xmlns="http://www.w3.org/2000/svg">
<g opacity="0.9">
<path d="M2 7.21704C2 6.9409 2.22386 6.71704 2.5 6.71704H21.5C21.7761 6.71704 22 6.9409 22 7.21704C22 7.49318 21.7761 7.71704 21.5 7.71704H2.5C2.22386 7.71704 2 7.49318 2 7.21704Z" fill="black"/>
<path d="M2 13.217C2 12.9409 2.22386 12.717 2.5 12.717H15.5C15.7761 12.717 16 12.9409 16 13.217C16 13.4932 15.7761 13.717 15.5 13.717H2.5C2.22386 13.717 2 13.4932 2 13.217Z" fill="black"/>
<path d="M2.5 18.717C2.22386 18.717 2 18.9409 2 19.217C2 19.4932 2.22386 19.717 2.5 19.717H9.5C9.77614 19.717 10 19.4932 10 19.217C10 18.9409 9.77614 18.717 9.5 18.717H2.5Z" fill="black"/>
</g>
</svg>
