<svg width="24" height="24" viewBox="0 0 24 24" fill="none" xmlns="http://www.w3.org/2000/svg">
<path opacity="0.9" d="M4.40534 2C3.0405 2 1.86254 3.11973 2.01267 4.54861C2.20932 6.42031 2.67483 8.25758 3.39776 10.0029C4.38306 12.3816 5.82723 14.543 7.64782 16.3636C9.4684 18.1841 11.6298 19.6283 14.0085 20.6136C15.7538 21.3365 17.5911 21.8021 19.4628 21.9987C20.8916 22.1488 22.0114 20.9709 22.0114 19.606V17.2203C22.0114 16.1376 21.3069 15.1809 20.2731 14.8594L17.4445 13.9799C16.7078 13.7508 15.9049 13.9645 15.3796 14.5296C15.0701 14.8624 14.6007 14.9349 14.2498 14.7265C13.234 14.1232 12.2952 13.3944 11.4561 12.5553C10.6898 11.7891 10.0155 10.9396 9.44483 10.0244C9.13453 9.52681 9.24163 8.8551 9.71508 8.41492C10.1376 8.02212 10.2974 7.42183 10.1261 6.87097L8.93937 3.05461C8.74433 2.42737 8.16388 2 7.50702 2H4.40534Z" fill="black"/>
</svg>
