<svg width="32" height="32" viewBox="0 0 32 32" fill="none" xmlns="http://www.w3.org/2000/svg">
<g opacity="0.9">
<path fill-rule="evenodd" clip-rule="evenodd" d="M5.5 17C5.77614 17 6 17.2239 6 17.5V24.5C6 25.3284 6.67157 26 7.5 26H25.5C26.3284 26 27 25.3284 27 24.5V17.5C27 17.2239 27.2239 17 27.5 17C27.7761 17 28 17.2239 28 17.5V24.5C28 25.8807 26.8807 27 25.5 27H7.5C6.11929 27 5 25.8807 5 24.5V17.5C5 17.2239 5.22386 17 5.5 17Z" fill="black"/>
<path fill-rule="evenodd" clip-rule="evenodd" d="M21.3602 17.3198C21.1686 17.1209 20.8521 17.115 20.6532 17.3065L17 20.8244V4.5C17 4.22386 16.7761 4 16.5 4C16.2239 4 16 4.22386 16 4.5V20.8244L12.3468 17.3065C12.1479 17.115 11.8314 17.1209 11.6398 17.3198C11.4483 17.5188 11.4543 17.8353 11.6532 18.0268L16.5 22.6941L21.3468 18.0268C21.5457 17.8353 21.5517 17.5188 21.3602 17.3198Z" fill="black"/>
</g>
</svg>
