<svg width="32" height="32" viewBox="0 0 32 32" fill="none" xmlns="http://www.w3.org/2000/svg">
<g opacity="0.9">
<path d="M20.3064 16.9462C20.7042 16.5631 21.3372 16.5751 21.7203 16.9729C22.1034 17.3707 22.0915 18.0038 21.6936 18.3869L16.5 23.3881L11.3064 18.3869C10.9085 18.0038 10.8966 17.3707 11.2797 16.9729C11.6628 16.5751 12.2958 16.5631 12.6936 16.9462L15.5 19.6486L15.5 4.49988C15.5 3.94759 15.9477 3.49988 16.5 3.49988C17.0523 3.49988 17.5 3.94759 17.5 4.49988L17.5 19.6486L20.3064 16.9462Z" fill="black"/>
<path d="M6.5 17.5C6.5 16.9477 6.05228 16.5 5.5 16.5C4.94772 16.5 4.5 16.9477 4.5 17.5V24.5C4.5 26.1568 5.84314 27.5 7.5 27.5H25.5C27.1569 27.5 28.5 26.1568 28.5 24.5V17.5C28.5 16.9477 28.0523 16.5 27.5 16.5C26.9477 16.5 26.5 16.9477 26.5 17.5V24.5C26.5 25.0522 26.0523 25.5 25.5 25.5H7.5C6.94772 25.5 6.5 25.0522 6.5 24.5V17.5Z" fill="black"/>
</g>
</svg>
