<svg width="24" height="24" viewBox="0 0 24 24" fill="none" xmlns="http://www.w3.org/2000/svg">
<path opacity="0.9" fill-rule="evenodd" clip-rule="evenodd" d="M2 11.5C2 6.25329 6.25329 2 11.5 2C16.7467 2 21 6.25329 21 11.5C21 16.7467 16.7467 21 11.5 21C6.25329 21 2 16.7467 2 11.5ZM6.5 10C6.22386 10 6 10.2239 6 10.5V12.5C6 12.7761 6.22386 13 6.5 13H8.5C8.77614 13 9 12.7761 9 12.5V12H14.0854C14.2913 12.5826 14.8469 13 15.5 13C16.3284 13 17 12.3284 17 11.5C17 10.6716 16.3284 10 15.5 10C14.8469 10 14.2913 10.4174 14.0854 11H9V10.5C9 10.2239 8.77614 10 8.5 10H6.5Z" fill="black"/>
</svg>
