<svg width="32" height="32" viewBox="0 0 32 32" fill="none" xmlns="http://www.w3.org/2000/svg">
<g opacity="0.9">
<path fill-rule="evenodd" clip-rule="evenodd" d="M14.4216 3.19926C14.5516 3.02666 14.7777 2.95707 14.9822 3.02674L25.4495 6.59247C25.5788 6.63652 25.6844 6.73155 25.7419 6.85549C25.7993 6.97942 25.8036 7.12147 25.7536 7.24861C25.4009 8.14643 25.3655 8.85166 25.4947 9.51497C25.6287 10.2023 25.9415 10.866 26.3443 11.6991C26.405 11.8246 26.4105 11.9698 26.3595 12.0996C26.0067 12.9974 25.9713 13.7026 26.1006 14.3659C26.2345 15.0533 26.5474 15.717 26.9501 16.5501C27.0262 16.7073 27.0146 16.8929 26.9197 17.0395L19.3226 28.7718C19.1926 28.9726 18.9387 29.0531 18.7167 28.9641L7.58005 24.4944C7.51959 24.4701 7.46445 24.4343 7.41774 24.3889C6.57343 23.568 6.07481 22.7107 5.92573 21.8352C5.79792 21.0846 5.93445 20.364 6.269 19.6979C5.58782 18.9618 5.17968 18.1985 5.04727 17.4209C4.89701 16.5385 5.11211 15.6975 5.58482 14.9377C5.59265 14.9252 5.60103 14.9129 5.60994 14.9011L14.4216 3.19926ZM7.11482 20.246C6.89986 20.7151 6.8301 21.1891 6.91154 21.6673C7.01208 22.2577 7.35275 22.9102 8.04578 23.6038L18.707 27.8826L25.9276 16.7318C25.5815 16.0104 25.265 15.3062 25.1191 14.5572C25.0918 14.4173 25.0705 14.2763 25.0558 14.1338L18.4443 24.3573C18.3144 24.5582 18.0603 24.6389 17.8382 24.5498L7.11482 20.246ZM25.3218 11.881L17.8283 23.4683L7.16732 19.1895C6.47429 18.4959 6.13362 17.8435 6.03308 17.253C5.95121 16.7723 6.02214 16.2958 6.23978 15.8243L17.0549 19.9335C17.275 20.0172 17.5236 19.9359 17.6518 19.7385L24.4491 9.27524C24.4639 9.42033 24.4854 9.56381 24.5132 9.70625C24.6592 10.4553 24.9757 11.1595 25.3218 11.881ZM24.5191 7.33195L15.0026 4.0901L6.80919 14.9709L17.033 18.8555L24.5191 7.33195Z" fill="black"/>
<path fill-rule="evenodd" clip-rule="evenodd" d="M15.4828 7.08859C15.7395 6.74225 16.1893 6.59938 16.5988 6.73411L20.4621 8.00514C20.9145 8.15398 21.0894 8.70138 20.8071 9.08497L19.8635 10.3672C19.6019 10.7228 19.138 10.8647 18.7222 10.7164L14.923 9.36173C14.4803 9.20387 14.3158 8.66321 14.5957 8.28559L15.4828 7.08859ZM19.7564 8.82568L16.2862 7.68402L15.6402 8.55578L19.0581 9.77454L19.7564 8.82568Z" fill="black"/>
</g>
</svg>
