<svg width="32" height="32" viewBox="0 0 32 32" fill="none" xmlns="http://www.w3.org/2000/svg">
<g opacity="0.9">
<path fill-rule="evenodd" clip-rule="evenodd" d="M6.5 7C5.11929 7 4 8.11929 4 9.5V22.5C4 23.8807 5.11929 25 6.5 25H25.5C26.8807 25 28 23.8807 28 22.5V9.5C28 8.11929 26.8807 7 25.5 7H6.5ZM16 11C14.8954 11 14 11.8954 14 13V21.5C14 21.7761 14.2239 22 14.5 22H17.5C17.7761 22 18 21.7761 18 21.5V13C18 11.8954 17.1046 11 16 11ZM10 14C8.89543 14 8 14.8954 8 16V21.5C8 21.7761 8.22386 22 8.5 22H11.5C11.7761 22 12 21.7761 12 21.5V16C12 14.8954 11.1046 14 10 14ZM22 16C20.8954 16 20 16.8954 20 18V21.5C20 21.7761 20.2239 22 20.5 22H23.5C23.7761 22 24 21.7761 24 21.5V18C24 16.8954 23.1046 16 22 16Z" fill="black"/>
<path d="M11 27C10.7239 27 10.5 27.2239 10.5 27.5C10.5 27.7761 10.7239 28 11 28H21C21.2761 28 21.5 27.7761 21.5 27.5C21.5 27.2239 21.2761 27 21 27H11Z" fill="black"/>
</g>
</svg>
