<svg width="24" height="24" viewBox="0 0 24 24" fill="none" xmlns="http://www.w3.org/2000/svg">
<g opacity="0.9">
<path fill-rule="evenodd" clip-rule="evenodd" d="M11 9.5C11 8.67157 11.6716 8 12.5 8C13.3284 8 14 8.67157 14 9.5V16.5C14 16.7761 13.7761 17 13.5 17H11.5C11.2239 17 11 16.7761 11 16.5V9.5ZM12.5 9C12.2239 9 12 9.22386 12 9.5V16H13V9.5C13 9.22386 12.7761 9 12.5 9Z" fill="black"/>
<path fill-rule="evenodd" clip-rule="evenodd" d="M6 11.5C6 10.6716 6.67157 10 7.5 10C8.32843 10 9 10.6716 9 11.5V16.5C9 16.7761 8.77614 17 8.5 17H6.5C6.22386 17 6 16.7761 6 16.5V11.5ZM7.5 11C7.22386 11 7 11.2239 7 11.5V16H8V11.5C8 11.2239 7.77614 11 7.5 11Z" fill="black"/>
<path fill-rule="evenodd" clip-rule="evenodd" d="M17.5 12C16.6716 12 16 12.6716 16 13.5V16.5C16 16.7761 16.2239 17 16.5 17H18.5C18.7761 17 19 16.7761 19 16.5V13.5C19 12.6716 18.3284 12 17.5 12ZM17 13.5C17 13.2239 17.2239 13 17.5 13C17.7761 13 18 13.2239 18 13.5V16H17V13.5Z" fill="black"/>
<path fill-rule="evenodd" clip-rule="evenodd" d="M4.5 4C3.11929 4 2 5.11929 2 6.5V16.5C2 17.8807 3.11929 19 4.5 19H19.5C20.8807 19 22 17.8807 22 16.5V6.5C22 5.11929 20.8807 4 19.5 4H4.5ZM3 6.5C3 5.67157 3.67157 5 4.5 5H19.5C20.3284 5 21 5.67157 21 6.5V16.5C21 17.3284 20.3284 18 19.5 18H4.5C3.67157 18 3 17.3284 3 16.5V6.5Z" fill="black"/>
<path d="M7.5 20.5C7.5 20.2239 7.72386 20 8 20H16C16.2761 20 16.5 20.2239 16.5 20.5C16.5 20.7761 16.2761 21 16 21H8C7.72386 21 7.5 20.7761 7.5 20.5Z" fill="black"/>
</g>
</svg>
