<svg width="24" height="24" viewBox="0 0 24 24" fill="none" xmlns="http://www.w3.org/2000/svg">
<path fill-rule="evenodd" clip-rule="evenodd" d="M22 12C22 17.5228 17.5228 22 12 22C6.47715 22 2 17.5228 2 12C2 6.47715 6.47715 2 12 2C17.5228 2 22 6.47715 22 12ZM14 9C14 8.44772 14.4477 8 15 8H16C16.5523 8 17 8.44772 17 9V15C17 15.5523 16.5523 16 16 16H15C14.4477 16 14 15.5523 14 15V9ZM8.58124 15.8705L12.8608 12.8137C13.4191 12.4149 13.4191 11.5851 12.8608 11.1863L8.58124 8.12946C7.91937 7.65669 7 8.12982 7 8.94319L7 15.0568C7 15.8702 7.91937 16.3433 8.58124 15.8705Z" fill="black"/>
</svg>
