<svg width="32" height="32" viewBox="0 0 32 32" fill="none" xmlns="http://www.w3.org/2000/svg">
<path fill-rule="evenodd" clip-rule="evenodd" d="M17.7519 16.8324C18.3457 16.4366 18.3457 15.5641 17.7519 15.1683L11.5547 11.0368C10.8901 10.5938 10 11.0702 10 11.8689V20.1318C10 20.9305 10.8901 21.4069 11.5547 20.9639L17.7519 16.8324ZM11 20.1318L17.1972 16.0004L11 11.8689V20.1318Z" fill="black"/>
<path fill-rule="evenodd" clip-rule="evenodd" d="M20 11C19.4477 11 19 11.4477 19 12V20C19 20.5523 19.4477 21 20 21H21C21.5523 21 22 20.5523 22 20V12C22 11.4477 21.5523 11 21 11H20ZM21 12H20V20H21V12Z" fill="black"/>
<path fill-rule="evenodd" clip-rule="evenodd" d="M28 16C28 22.6274 22.6274 28 16 28C9.37258 28 4 22.6274 4 16C4 9.37258 9.37258 4 16 4C22.6274 4 28 9.37258 28 16ZM27 16C27 22.0751 22.0751 27 16 27C9.92487 27 5 22.0751 5 16C5 9.92487 9.92487 5 16 5C22.0751 5 27 9.92487 27 16Z" fill="black"/>
</svg>
