<svg width="16" height="16" viewBox="0 0 16 16" fill="none" xmlns="http://www.w3.org/2000/svg">
<path fill-rule="evenodd" clip-rule="evenodd" d="M8.75192 8.8324C9.34566 8.43658 9.34566 7.56412 8.75192 7.1683L5.5547 5.03682C4.89015 4.59378 4 5.07017 4 5.86887V10.1318C4 10.9305 4.89014 11.4069 5.5547 10.9639L8.75192 8.8324ZM5 10.1318L8.19722 8.00035L5 5.86887L5 10.1318Z" fill="black"/>
<path d="M11 5C10.4477 5 10 5.44772 10 6V10C10 10.5523 10.4477 11 11 11C11.5523 11 12 10.5523 12 10V6C12 5.44772 11.5523 5 11 5Z" fill="black"/>
<path fill-rule="evenodd" clip-rule="evenodd" d="M15 8C15 11.866 11.866 15 8 15C4.13401 15 1 11.866 1 8C1 4.13401 4.13401 1 8 1C11.866 1 15 4.13401 15 8ZM14 8C14 11.3137 11.3137 14 8 14C4.68629 14 2 11.3137 2 8C2 4.68629 4.68629 2 8 2C11.3137 2 14 4.68629 14 8Z" fill="black"/>
</svg>
