<svg width="24" height="24" viewBox="0 0 24 24" fill="none" xmlns="http://www.w3.org/2000/svg">
<path fill-rule="evenodd" clip-rule="evenodd" d="M12.8608 12.8137C13.4191 12.4149 13.4191 11.5851 12.8608 11.1862L8.58124 8.12944C7.91937 7.65667 7 8.1298 7 8.94317V15.0568C7 15.8702 7.91937 16.3433 8.58124 15.8705L12.8608 12.8137ZM8 15.0568L12.2795 12L8 8.94317V15.0568Z" fill="black"/>
<path fill-rule="evenodd" clip-rule="evenodd" d="M15 8C14.4477 8 14 8.44772 14 9V15C14 15.5523 14.4477 16 15 16H16C16.5523 16 17 15.5523 17 15V9C17 8.44772 16.5523 8 16 8H15ZM16 9H15V15H16V9Z" fill="black"/>
<path fill-rule="evenodd" clip-rule="evenodd" d="M22 12C22 17.5228 17.5228 22 12 22C6.47715 22 2 17.5228 2 12C2 6.47715 6.47715 2 12 2C17.5228 2 22 6.47715 22 12ZM21 12C21 16.9706 16.9706 21 12 21C7.02944 21 3 16.9706 3 12C3 7.02944 7.02944 3 12 3C16.9706 3 21 7.02944 21 12Z" fill="black"/>
</svg>
