<svg width="32" height="32" viewBox="0 0 32 32" fill="none" xmlns="http://www.w3.org/2000/svg">
<path fill-rule="evenodd" clip-rule="evenodd" d="M28 16C28 22.6274 22.6274 28 16 28C9.37258 28 4 22.6274 4 16C4 9.37258 9.37258 4 16 4C22.6274 4 28 9.37258 28 16ZM19 12C19 11.4477 19.4477 11 20 11H21C21.5523 11 22 11.4477 22 12V20C22 20.5523 21.5523 21 21 21H20C19.4477 21 19 20.5523 19 20V12ZM11.5547 20.9635L17.7519 16.8321C18.3457 16.4362 18.3457 15.5638 17.7519 15.1679L11.5547 11.0365C10.8901 10.5934 10 11.0698 10 11.8685L10 20.1315C10 20.9302 10.8901 21.4066 11.5547 20.9635Z" fill="black"/>
</svg>
