<svg width="16" height="16" viewBox="0 0 16 16" fill="none" xmlns="http://www.w3.org/2000/svg">
<g opacity="0.9">
<path d="M1 2.5C1 2.22386 0.776142 2 0.5 2C0.223858 2 0 2.22386 0 2.5V15H14.5C14.7761 15 15 14.7761 15 14.5C15 14.2239 14.7761 14 14.5 14H1V2.5Z" fill="black"/>
<path fill-rule="evenodd" clip-rule="evenodd" d="M2 4C2 2.89543 2.89543 2 4 2H13C14.1046 2 15 2.89543 15 4V9C15 10.1046 14.1046 11 13 11H5.28304C5.09798 11 4.91655 11.0514 4.75894 11.1483L2.76205 12.3772C2.42891 12.5822 2 12.3425 2 11.9514V4ZM4 3H13C13.5523 3 14 3.44772 14 4V9C14 9.55228 13.5523 10 13 10H5.28304C4.91292 10 4.55006 10.1027 4.23485 10.2967L3 11.0566V4C3 3.44771 3.44771 3 4 3Z" fill="black"/>
</g>
</svg>
