<svg width="16" height="16" viewBox="0 0 16 16" fill="none" xmlns="http://www.w3.org/2000/svg">
<g opacity="0.9">
<path d="M1 2.5C1 2.22386 0.776142 2 0.5 2C0.223858 2 0 2.22386 0 2.5V15H14.5C14.7761 15 15 14.7761 15 14.5C15 14.2239 14.7761 14 14.5 14H1V2.5Z" fill="black"/>
<path d="M4 2C2.89543 2 2 2.89543 2 4V11.9514C2 12.3425 2.42891 12.5822 2.76205 12.3772L4.75894 11.1483C4.91655 11.0514 5.09798 11 5.28304 11H13C14.1046 11 15 10.1046 15 9V4C15 2.89543 14.1046 2 13 2H4Z" fill="black"/>
</g>
</svg>
