<svg width="32" height="32" viewBox="0 0 32 32" fill="none" xmlns="http://www.w3.org/2000/svg">
<g opacity="0.9">
<path fill-rule="evenodd" clip-rule="evenodd" d="M7.5 4C7.77614 4 8 4.22386 8 4.5L8 8.03544C9.69615 8.27806 11 9.73676 11 11.5C11 13.2632 9.69615 14.7219 8 14.9646V27.5C8 27.7761 7.77614 28 7.5 28C7.22386 28 7 27.7761 7 27.5V14.9646C5.30385 14.7219 4 13.2632 4 11.5C4 9.73676 5.30385 8.27806 7 8.03544L7 4.5C7 4.22386 7.22386 4 7.5 4ZM7.5 14C8.88071 14 10 12.8807 10 11.5C10 10.1193 8.88071 9 7.5 9C6.11929 9 5 10.1193 5 11.5C5 12.8807 6.11929 14 7.5 14Z" fill="black"/>
<path fill-rule="evenodd" clip-rule="evenodd" d="M15 4.5L15 17.0354C13.3039 17.2781 12 18.7368 12 20.5C12 22.2632 13.3039 23.7219 15 23.9646V27.5C15 27.7761 15.2239 28 15.5 28C15.7761 28 16 27.7761 16 27.5V23.9646C17.6961 23.7219 19 22.2632 19 20.5C19 18.7368 17.6961 17.2781 16 17.0354L16 4.5C16 4.22386 15.7761 4 15.5 4C15.2239 4 15 4.22386 15 4.5ZM18 20.5C18 21.8807 16.8807 23 15.5 23C14.1193 23 13 21.8807 13 20.5C13 19.1193 14.1193 18 15.5 18C16.8807 18 18 19.1193 18 20.5Z" fill="black"/>
<path fill-rule="evenodd" clip-rule="evenodd" d="M23 17.9646V27.5C23 27.7761 23.2239 28 23.5 28C23.7761 28 24 27.7761 24 27.5V17.9646C25.6961 17.7219 27 16.2632 27 14.5C27 12.7368 25.6961 11.2781 24 11.0354V4.5C24 4.22386 23.7761 4 23.5 4C23.2239 4 23 4.22386 23 4.5V11.0354C21.3039 11.2781 20 12.7368 20 14.5C20 16.2632 21.3039 17.7219 23 17.9646ZM23.5 12C22.1193 12 21 13.1193 21 14.5C21 15.8807 22.1193 17 23.5 17C24.8807 17 26 15.8807 26 14.5C26 13.1193 24.8807 12 23.5 12Z" fill="black"/>
</g>
</svg>
