<svg width="24" height="24" viewBox="0 0 24 24" fill="none" xmlns="http://www.w3.org/2000/svg">
<path opacity="0.9" fill-rule="evenodd" clip-rule="evenodd" d="M7.98804 16.1551C7.9135 16.6337 7.49952 17 7 17H4C3.44772 17 3 16.5523 3 16V6C3 5.44772 3.44772 5 4 5H7C7.55228 5 8 5.44771 8 6V6.25532L10.414 5.26883C10.7142 5.14616 11.0354 5.08306 11.3597 5.08306H16.3211C17.4784 5.08306 18.4844 5.87737 18.7529 7.00311L20.3989 13.9052C20.7736 15.4764 19.5824 16.9851 17.9671 16.9851H15.2611C15.0802 16.9851 14.9335 17.1318 14.9335 17.3127C14.9335 18.8463 14.1754 20.2807 12.9084 21.1446L12.7983 21.2196C12.0167 21.7525 10.9429 21.3575 10.6929 20.4452L10.193 18.6201C9.88508 17.4959 9.06711 16.5843 7.98804 16.1551ZM7 16H4V6H7V16ZM12.2349 20.3934C12.0205 20.5396 11.726 20.4312 11.6574 20.181L11.1575 18.3559C10.754 16.8827 9.66063 15.697 8.22498 15.1755C8.09003 15.1264 8.00018 14.9982 8.00018 14.8546V7.67133C8.00018 7.46824 8.12304 7.28532 8.31104 7.20849L10.7923 6.19452C10.9724 6.12092 11.1651 6.08306 11.3597 6.08306H16.3211C17.0155 6.08306 17.6191 6.55965 17.7801 7.23509L19.4262 14.1372C19.651 15.0799 18.9363 15.9851 17.9671 15.9851H15.2611C14.5279 15.9851 13.9335 16.5795 13.9335 17.3127C13.9335 18.5156 13.3389 19.6407 12.345 20.3183L12.2349 20.3934Z" fill="black"/>
</svg>
