<svg width="16" height="16" viewBox="0 0 16 16" fill="none" xmlns="http://www.w3.org/2000/svg">
<path opacity="0.9" fill-rule="evenodd" clip-rule="evenodd" d="M4.5 11C4.77614 11 5 10.7761 5 10.5V10.4336C6.2891 10.7728 7.29294 11.7846 7.62181 13.0766L7.77254 13.6688C7.97609 14.4684 8.9348 14.7944 9.58363 14.2846C10.4779 13.582 11.0001 12.5076 11.0001 11.3703V11.2587C11.0001 11.1554 11.0839 11.0716 11.1873 11.0716H11.8574C13.515 11.0716 14.7137 9.4877 14.2634 7.8924L13.3964 4.82096C13.0924 3.74389 12.1096 3.00011 10.9904 3.00011H7.75767C7.54391 3.00011 7.33103 3.02752 7.12425 3.08169L5.12004 3.60662C5.07925 3.61731 5.03921 3.62961 5 3.64345V3.5C5 3.22386 4.77614 3 4.5 3H1.5C1.22386 3 1 3.22386 1 3.5V10.5C1 10.7761 1.22386 11 1.5 11H4.5ZM4 4V10H2V4H4ZM8.96581 13.4983C8.8855 13.5614 8.76683 13.5211 8.74164 13.4221L8.59091 12.8299C8.17195 11.184 6.89225 9.89549 5.24929 9.46519C5.10248 9.42674 5.0001 9.29409 5.0001 9.14233V5.05767C5.0001 4.83032 5.15348 4.63159 5.37341 4.57399L7.37762 4.04906C7.50169 4.01656 7.62942 4.00011 7.75767 4.00011H10.9904C11.6619 4.00011 12.2516 4.44638 12.434 5.09262L13.301 8.16406C13.5712 9.12124 12.852 10.0716 11.8574 10.0716H11.1873C10.5316 10.0716 10.0001 10.6031 10.0001 11.2587V11.3703C10.0001 12.2008 9.61881 12.9852 8.96581 13.4983Z" fill="black"/>
</svg>
