<svg width="16" height="16" viewBox="0 0 16 16" fill="none" xmlns="http://www.w3.org/2000/svg">
<g opacity="0.9">
<path d="M3.5 11C3.77614 11 4 10.7761 4 10.5V3.5C4 3.22386 3.77614 3 3.5 3H1.5C1.22386 3 1 3.22386 1 3.5V10.5C1 10.7761 1.22386 11 1.5 11H3.5Z" fill="black"/>
<path d="M7.77254 13.6688C7.97609 14.4684 8.9348 14.7944 9.58363 14.2846C10.4779 13.582 11.0001 12.5076 11.0001 11.3703V11.2587C11.0001 11.1554 11.0839 11.0716 11.1873 11.0716H11.8574C13.515 11.0716 14.7137 9.4877 14.2634 7.8924L13.3964 4.82096C13.0924 3.74389 12.1096 3.00011 10.9904 3.00011H7.87888C7.56601 3.00011 7.25592 3.05884 6.96471 3.17324L5.31727 3.82049C5.12593 3.89566 5.0001 4.08029 5.0001 4.28586V9.62706C5.0001 9.92843 5.18456 10.1991 5.46506 10.3093C6.47821 10.7073 7.23793 11.5685 7.50645 12.6234L7.77254 13.6688Z" fill="black"/>
</g>
</svg>
