<svg width="32" height="32" viewBox="0 0 32 32" fill="none" xmlns="http://www.w3.org/2000/svg">
<path opacity="0.9" fill-rule="evenodd" clip-rule="evenodd" d="M23.8952 6.01956C23.3536 6.12772 23.0022 6.65444 23.1104 7.19603L23.4158 8.72535C19.1848 5.90153 13.437 6.374 9.71547 10.14C5.46724 14.439 5.46724 21.4041 9.71547 25.7031C10.1037 26.0959 10.7368 26.0997 11.1297 25.7115C11.5225 25.3233 11.5263 24.6901 11.1381 24.2973C7.65971 20.7774 7.65971 15.0657 11.1381 11.5458C14.2444 8.40234 19.0735 8.07193 22.5409 10.5515H20.4745C19.9223 10.5515 19.4745 10.9993 19.4745 11.5516C19.4745 12.1038 19.9223 12.5516 20.4745 12.5516H26.2194L25.0716 6.80435C24.9635 6.26276 24.4368 5.9114 23.8952 6.01956Z" fill="black"/>
</svg>
