<svg width="24" height="24" viewBox="0 0 24 24" fill="none" xmlns="http://www.w3.org/2000/svg">
<path opacity="0.9" fill-rule="evenodd" clip-rule="evenodd" d="M18.2338 4.19093C17.963 4.24501 17.7873 4.50837 17.8414 4.77917L18.2648 6.89923C18.2205 6.86341 18.1748 6.8271 18.1276 6.79004C14.6961 4.09668 9.73903 4.34455 6.58918 7.53203C3.1773 10.9847 3.1773 16.5801 6.58918 20.0327C6.78328 20.2291 7.09986 20.231 7.29627 20.0369C7.49269 19.8428 7.49457 19.5262 7.30047 19.3298C4.27354 16.2667 4.27354 11.298 7.30047 8.23493C10.0894 5.41273 14.4743 5.19386 17.5102 7.57667C17.6896 7.71754 17.8406 7.84311 17.9813 7.97405H15.318C15.0418 7.97405 14.818 8.1979 14.818 8.47405C14.818 8.75019 15.0418 8.97405 15.318 8.97405H19.6989L18.822 4.58333C18.7679 4.31253 18.5046 4.13685 18.2338 4.19093Z" fill="black"/>
</svg>
