<svg width="32" height="32" viewBox="0 0 32 32" fill="none" xmlns="http://www.w3.org/2000/svg">
<path opacity="0.9" fill-rule="evenodd" clip-rule="evenodd" d="M23.9931 6.50978C23.7223 6.56386 23.5466 6.82722 23.6007 7.09802L24.164 9.91866C24.0459 9.81793 23.9207 9.71631 23.7843 9.60931C19.7061 6.40833 13.8148 6.70288 10.0711 10.4913C6.01536 14.5955 6.01536 21.2473 10.0711 25.3515C10.2652 25.548 10.5818 25.5498 10.7782 25.3557C10.9746 25.1616 10.9765 24.8451 10.7824 24.6486C7.11159 20.934 7.11159 14.9089 10.7824 11.1942C14.1652 7.77106 19.4843 7.50551 23.1669 10.3959C23.4617 10.6273 23.6937 10.8253 23.9174 11.0515H20.4745C20.1984 11.0515 19.9745 11.2753 19.9745 11.5515C19.9745 11.8276 20.1984 12.0515 20.4745 12.0515H25.6097L24.5813 6.90218C24.5272 6.63138 24.2639 6.4557 23.9931 6.50978Z" fill="black"/>
</svg>
