<svg width="24" height="24" viewBox="0 0 24 24" fill="none" xmlns="http://www.w3.org/2000/svg">
<g opacity="0.9">
<path fill-rule="evenodd" clip-rule="evenodd" d="M11.5 1C10.8469 1 10.2913 1.4174 10.0854 2H9.5C8.67157 2 8 2.67157 8 3.5C8 4.32843 8.67157 5 9.5 5H14.5C15.3284 5 16 4.32843 16 3.5C16 2.67157 15.3284 2 14.5 2H13.9146C13.7087 1.4174 13.1531 1 12.5 1H11.5ZM11 2.5C11 2.22386 11.2239 2 11.5 2H12.5C12.7761 2 13 2.22386 13 2.5C13 2.77614 13.2239 3 13.5 3H14.5C14.7761 3 15 3.22386 15 3.5C15 3.77614 14.7761 4 14.5 4H9.5C9.22386 4 9 3.77614 9 3.5C9 3.22386 9.22386 3 9.5 3H10.5C10.7761 3 11 2.77614 11 2.5Z" fill="black"/>
<path d="M7 3.5C7 3.32877 7.01722 3.16156 7.05001 3H5.5C4.67157 3 4 3.67157 4 4.5V21.5C4 22.3284 4.67157 23 5.5 23H18.5C19.3284 23 20 22.3284 20 21.5V4.5C20 3.67157 19.3284 3 18.5 3H16.95C16.9828 3.16156 17 3.32877 17 3.5C17 4.88071 15.8807 6 14.5 6H9.5C8.11929 6 7 4.88071 7 3.5Z" fill="black"/>
</g>
</svg>
