<svg width="16" height="16" viewBox="0 0 16 16" fill="none" xmlns="http://www.w3.org/2000/svg">
<g opacity="0.9">
<path fill-rule="evenodd" clip-rule="evenodd" d="M7.5 0C6.82312 0 6.25095 0.448346 6.06427 1.06427C5.44835 1.25095 5 1.82312 5 2.5C5 3.32843 5.67157 4 6.5 4H9.5C10.3284 4 11 3.32843 11 2.5C11 1.82312 10.5517 1.25095 9.93573 1.06427C9.74905 0.448346 9.17688 0 8.5 0H7.5ZM7 1.5C7 1.22386 7.22386 1 7.5 1H8.5C8.77614 1 9 1.22386 9 1.5C9 1.77614 9.22386 2 9.5 2C9.77614 2 10 2.22386 10 2.5C10 2.77614 9.77614 3 9.5 3H6.5C6.22386 3 6 2.77614 6 2.5C6 2.22386 6.22386 2 6.5 2C6.77614 2 7 1.77614 7 1.5Z" fill="black"/>
<path d="M3 3.5C3 3.22386 3.22386 3 3.5 3C3.77614 3 4 2.77614 4 2.5C4 2.22386 3.77614 2 3.5 2C2.67157 2 2 2.67157 2 3.5V14.5C2 15.3284 2.67157 16 3.5 16H12.5C13.3284 16 14 15.3284 14 14.5V3.5C14 2.67157 13.3284 2 12.5 2C12.2239 2 12 2.22386 12 2.5C12 2.77614 12.2239 3 12.5 3C12.7761 3 13 3.22386 13 3.5V14.5C13 14.7761 12.7761 15 12.5 15H3.5C3.22386 15 3 14.7761 3 14.5V3.5Z" fill="black"/>
</g>
</svg>
