<svg width="16" height="16" viewBox="0 0 16 16" fill="none" xmlns="http://www.w3.org/2000/svg">
<g opacity="0.9">
<path fill-rule="evenodd" clip-rule="evenodd" d="M7.5 2C4.46243 2 2 4.46243 2 7.5C2 10.5376 4.46243 13 7.5 13C7.77614 13 8 13.2239 8 13.5C8 13.7761 7.77614 14 7.5 14C3.91015 14 1 11.0899 1 7.5C1 3.91015 3.91015 1 7.5 1C11.0899 1 14 3.91015 14 7.5C14 7.77614 13.7761 8 13.5 8C13.2239 8 13 7.77614 13 7.5C13 4.46243 10.5376 2 7.5 2Z" fill="black"/>
<path fill-rule="evenodd" clip-rule="evenodd" d="M3 6H6V9H3V6ZM4 7V8H5V7H4Z" fill="black"/>
<path fill-rule="evenodd" clip-rule="evenodd" d="M9 7.5C9 6.67157 9.67157 6 10.5 6C11.3284 6 12 6.67157 12 7.5C12 8.32843 11.3284 9 10.5 9C9.67157 9 9 8.32843 9 7.5ZM10.5 7C10.2239 7 10 7.22386 10 7.5C10 7.77614 10.2239 8 10.5 8C10.7761 8 11 7.77614 11 7.5C11 7.22386 10.7761 7 10.5 7Z" fill="black"/>
<path fill-rule="evenodd" clip-rule="evenodd" d="M9.5 8H5.5V7H9.5V8Z" fill="black"/>
<path fill-rule="evenodd" clip-rule="evenodd" d="M11.9981 10.5C11.9981 10.2239 12.222 10 12.4981 10C12.7742 10 12.9981 10.2239 12.9981 10.5V10.6756C12.9981 10.9039 13.1562 11.0973 13.362 11.196C13.4552 11.2407 13.5445 11.2924 13.629 11.3505C13.8172 11.4798 14.0637 11.5197 14.2613 11.4055L14.4131 11.3177C14.6522 11.1795 14.9582 11.2614 15.0963 11.5006C15.2343 11.7397 15.1523 12.0455 14.9132 12.1835L14.7612 12.2712C14.5637 12.3852 14.475 12.6184 14.4923 12.8458C14.4961 12.8967 14.4981 12.9481 14.4981 13C14.4981 13.0519 14.4961 13.1033 14.4923 13.1542C14.475 13.3816 14.5637 13.6148 14.7612 13.7288L14.9132 13.8165C15.1523 13.9545 15.2343 14.2603 15.0963 14.4994C14.9582 14.7386 14.6522 14.8205 14.4131 14.6823L14.2613 14.5945C14.0637 14.4803 13.8172 14.5202 13.629 14.6495C13.5445 14.7076 13.4552 14.7593 13.362 14.804C13.1562 14.9027 12.9981 15.0961 12.9981 15.3244V15.5C12.9981 15.7761 12.7742 16 12.4981 16C12.222 16 11.9981 15.7761 11.9981 15.5V15.3243C11.9981 15.0961 11.8401 14.9027 11.6343 14.804C11.5411 14.7593 11.4519 14.7076 11.3674 14.6496C11.1796 14.5207 10.9335 14.481 10.7361 14.595L10.5831 14.6834C10.3439 14.8216 10.0381 14.7396 9.89999 14.5004C9.76194 14.2613 9.84393 13.9555 10.0831 13.8175L10.2355 13.7296C10.4329 13.6157 10.5216 13.3827 10.5041 13.1555C10.5001 13.1042 10.4981 13.0523 10.4981 13C10.4981 12.9477 10.5001 12.8958 10.5041 12.8445C10.5216 12.6173 10.4329 12.3843 10.2355 12.2704L10.0831 12.1825C9.84393 12.0445 9.76194 11.7387 9.89999 11.4996C10.0381 11.2604 10.3439 11.1784 10.5831 11.3166L10.7361 11.405C10.9335 11.519 11.1796 11.4793 11.3674 11.3504C11.4519 11.2924 11.5411 11.2407 11.6343 11.196C11.8401 11.0973 11.9981 10.9039 11.9981 10.6757V10.5ZM12.4981 14C13.0504 14 13.4981 13.5523 13.4981 13C13.4981 12.4477 13.0504 12 12.4981 12C11.9458 12 11.4981 12.4477 11.4981 13C11.4981 13.5523 11.9458 14 12.4981 14Z" fill="black"/>
</g>
</svg>
