<svg width="32" height="32" viewBox="0 0 32 32" fill="none" xmlns="http://www.w3.org/2000/svg">
<g opacity="0.9">
<path fill-rule="evenodd" clip-rule="evenodd" d="M5 15.5C5 9.14873 10.1487 4 16.5 4C22.8513 4 28 9.14873 28 15.5C28 16.471 27.8797 17.4139 27.6531 18.3146C26.7192 17.7956 25.6441 17.5 24.5 17.5C20.9101 17.5 18 20.4101 18 24C18 25.0035 18.2274 25.9539 18.6335 26.8025C17.9422 26.9322 17.229 27 16.5 27C10.1487 27 5 21.8513 5 15.5ZM10 13C9.44772 13 9 13.4477 9 14V17C9 17.5523 9.44772 18 10 18H13C13.5523 18 14 17.5523 14 17V16H19.05C19.2816 17.1411 20.2905 18 21.5 18C22.8807 18 24 16.8807 24 15.5C24 14.1193 22.8807 13 21.5 13C20.2905 13 19.2816 13.8589 19.05 15H14V14C14 13.4477 13.5523 13 13 13H10Z" fill="black"/>
<path fill-rule="evenodd" clip-rule="evenodd" d="M25.5301 19H23.5301V20.4714C22.937 20.6391 22.4049 20.9524 21.975 21.3702L20.7 20.6341L19.7 22.3662L20.9743 23.1019C20.9019 23.3893 20.8635 23.6901 20.8635 24C20.8635 24.3099 20.9019 24.6109 20.9743 24.8984L19.7 25.6341L20.7 27.3662L21.9752 26.6299C22.4051 27.0477 22.9371 27.3609 23.5301 27.5286V29H25.5301V27.5286C26.1232 27.3609 26.6552 27.0477 27.0851 26.63L28.3603 27.3662L29.3603 25.6341L28.086 24.8984C28.1584 24.6109 28.1968 24.3099 28.1968 24C28.1968 23.6901 28.1584 23.3893 28.086 23.1019L29.3603 22.3662L28.3603 20.6341L27.0853 21.3702C26.6553 20.9524 26.1233 20.6391 25.5301 20.4714V19ZM25.8375 24C25.8375 24.6904 25.2778 25.25 24.5875 25.25C23.8971 25.25 23.3375 24.6904 23.3375 24C23.3375 23.3096 23.8971 22.75 24.5875 22.75C25.2778 22.75 25.8375 23.3096 25.8375 24Z" fill="black"/>
</g>
</svg>
