<svg width="24" height="24" viewBox="0 0 24 24" fill="none" xmlns="http://www.w3.org/2000/svg">
<g opacity="0.9">
<path d="M3 11.5C3 6.80558 6.80558 3 11.5 3C16.1944 3 20 6.80558 20 11.5C20 11.7761 20.2239 12 20.5 12C20.7761 12 21 11.7761 21 11.5C21 6.25329 16.7467 2 11.5 2C6.25329 2 2 6.25329 2 11.5C2 16.7467 6.25329 21 11.5 21H11.5028C11.6961 21 12.0856 21 12.4617 20.9787C12.65 20.968 12.8454 20.9514 13.0163 20.9247C13.16 20.9023 13.3763 20.861 13.539 20.757C13.7716 20.6083 13.8396 20.2991 13.6909 20.0664C13.5442 19.837 13.2414 19.7676 13.0099 19.9085C13.013 19.9066 13.0146 19.9056 13.0145 19.9053C13.0143 19.9049 13.0114 19.9057 13.005 19.9074C12.9874 19.9121 12.9436 19.9239 12.8619 19.9367C12.7374 19.9562 12.5788 19.9704 12.4051 19.9803C12.0591 19.9999 11.6942 20 11.5 20C6.80558 20 3 16.1944 3 11.5Z" fill="black"/>
<path fill-rule="evenodd" clip-rule="evenodd" d="M9 10H6V13H9V12H14.0854C14.2913 12.5826 14.8469 13 15.5 13C16.3284 13 17 12.3284 17 11.5C17 10.6716 16.3284 10 15.5 10C14.8469 10 14.2913 10.4174 14.0854 11H9V10ZM8 12H7V11H8V12ZM15 11.5C15 11.2239 15.2239 11 15.5 11C15.7761 11 16 11.2239 16 11.5C16 11.7761 15.7761 12 15.5 12C15.2239 12 15 11.7761 15 11.5Z" fill="black"/>
<path d="M19.61 20C20.1623 20 20.61 19.5523 20.61 19C20.61 18.4477 20.1623 18 19.61 18C19.0577 18 18.61 18.4477 18.61 19C18.61 19.5523 19.0577 20 19.61 20Z" fill="black"/>
<path fill-rule="evenodd" clip-rule="evenodd" d="M18.2641 15C18.2641 14.7239 18.488 14.5 18.7641 14.5H20.3641C20.6403 14.5 20.8641 14.7239 20.8641 15V15.8215C21.1536 15.9399 21.423 16.0967 21.6663 16.2853L22.3782 15.8743C22.493 15.808 22.6295 15.79 22.7576 15.8243C22.8857 15.8587 22.9949 15.9424 23.0612 16.0573L23.8612 17.4429C23.9993 17.6821 23.9174 17.9879 23.6782 18.1259L22.9664 18.5369C22.9869 18.6885 22.9974 18.8431 22.9974 19C22.9974 19.1569 22.9869 19.3116 22.9664 19.4633L23.6782 19.8743C23.9174 20.0124 23.9993 20.3181 23.8612 20.5573L23.0612 21.9429C22.9949 22.0578 22.8857 22.1416 22.7576 22.1759C22.6295 22.2102 22.493 22.1922 22.3782 22.1259L21.6661 21.7148C21.4229 21.9034 21.1535 22.0601 20.8641 22.1785V23C20.8641 23.2761 20.6403 23.5 20.3641 23.5H18.7641C18.488 23.5 18.2641 23.2761 18.2641 23V22.1785C17.9747 22.0601 17.7053 21.9034 17.4621 21.7148L16.75 22.1259C16.5109 22.264 16.2051 22.1821 16.067 21.9429L15.267 20.5573C15.1289 20.3181 15.2109 20.0124 15.45 19.8743L16.1618 19.4633C16.1413 19.3116 16.1308 19.1569 16.1308 19C16.1308 18.8431 16.1413 18.6885 16.1618 18.5369L15.45 18.1259C15.3352 18.0596 15.2514 17.9504 15.217 17.8223C15.1827 17.6943 15.2007 17.5578 15.267 17.4429L16.067 16.0573C16.1333 15.9424 16.2425 15.8587 16.3706 15.8243C16.4987 15.79 16.6352 15.808 16.75 15.8743L17.4619 16.2853C17.7052 16.0967 17.9747 15.94 18.2641 15.8215V15ZM19.2641 15.5V16.1771C19.2641 16.4008 19.1155 16.5973 18.9002 16.6582C18.5074 16.7693 18.1543 16.977 17.8685 17.2548C17.7081 17.4106 17.4637 17.441 17.27 17.3292L16.683 16.9903L16.383 17.5099L16.9694 17.8485C17.163 17.9602 17.2589 18.1868 17.2043 18.4036C17.1564 18.5939 17.1308 18.7936 17.1308 19C17.1308 19.2064 17.1564 19.4062 17.2043 19.5966C17.2589 19.8133 17.163 20.04 16.9695 20.1517L16.383 20.4903L16.683 21.0099L17.2701 20.6709C17.4638 20.5591 17.7082 20.5895 17.8686 20.7454C18.1544 21.0231 18.5074 21.2307 18.9002 21.3418C19.1155 21.4027 19.2641 21.5992 19.2641 21.8229V22.5H19.8641V21.8229C19.8641 21.5992 20.0127 21.4027 20.228 21.3418C20.6208 21.2307 20.9739 21.0231 21.2596 20.7454C21.42 20.5895 21.6644 20.5591 21.8581 20.6709L22.4452 21.0099L22.7452 20.4903L22.1588 20.1517C21.9652 20.04 21.8693 19.8133 21.9239 19.5966C21.9718 19.4062 21.9974 19.2065 21.9974 19C21.9974 18.7936 21.9719 18.5939 21.9239 18.4036C21.8694 18.1868 21.9653 17.9602 22.1588 17.8485L22.7452 17.5099L22.4452 16.9903L21.8582 17.3292C21.6645 17.441 21.4202 17.4106 21.2598 17.2548C20.974 16.977 20.6209 16.7693 20.228 16.6582C20.0127 16.5973 19.8641 16.4008 19.8641 16.1771V15.5H19.2641Z" fill="black"/>
</g>
</svg>
