<svg width="24" height="24" viewBox="0 0 24 24" fill="none" xmlns="http://www.w3.org/2000/svg">
<g opacity="0.9">
<path fill-rule="evenodd" clip-rule="evenodd" d="M11.5 2C6.25329 2 2 6.25329 2 11.5C2 16.7467 6.25329 21 11.5 21C12.4512 21 13.3698 20.8602 14.2364 20.6C14.0827 20.0937 14 19.5565 14 19C14 15.9624 16.4624 13.5 19.5 13.5C19.9325 13.5 20.3533 13.5499 20.757 13.6443C20.916 12.9552 21 12.2374 21 11.5C21 6.25329 16.7467 2 11.5 2ZM6 10.5C6 10.2239 6.22386 10 6.5 10H8.5C8.77614 10 9 10.2239 9 10.5V11H14.0854C14.2913 10.4174 14.8469 10 15.5 10C16.3284 10 17 10.6716 17 11.5C17 12.3284 16.3284 13 15.5 13C14.8469 13 14.2913 12.5826 14.0854 12H9V12.5C9 12.7761 8.77614 13 8.5 13H6.5C6.22386 13 6 12.7761 6 12.5V10.5Z" fill="black"/>
<path fill-rule="evenodd" clip-rule="evenodd" d="M18.7641 15H20.3641V16.1771C20.8386 16.3113 21.2643 16.5619 21.6082 16.8962L22.6282 16.3073L23.4282 17.6929L22.4088 18.2815C22.4667 18.5114 22.4975 18.7521 22.4975 19C22.4975 19.248 22.4667 19.4887 22.4088 19.7187L23.4282 20.3073L22.6282 21.6929L21.6081 21.104C21.2642 21.4381 20.8386 21.6887 20.3641 21.8229V23H18.7641V21.8229C18.2897 21.6887 17.8641 21.4381 17.5201 21.104L16.5 21.6929L15.7 20.3073L16.7195 19.7187C16.6616 19.4887 16.6308 19.248 16.6308 19C16.6308 18.7521 16.6615 18.5114 16.7194 18.2815L15.7 17.6929L16.5 16.3073L17.52 16.8962C17.864 16.5619 18.2896 16.3113 18.7641 16.1771V15ZM19.61 20C20.1623 20 20.61 19.5523 20.61 19C20.61 18.4477 20.1623 18 19.61 18C19.0577 18 18.61 18.4477 18.61 19C18.61 19.5523 19.0577 20 19.61 20Z" fill="black"/>
</g>
</svg>
