<svg width="16" height="16" viewBox="0 0 16 16" fill="none" xmlns="http://www.w3.org/2000/svg">
<g opacity="0.9">
<path d="M2.00142 2.46049C1.98329 2.22602 2.17697 2 2.46435 2H4.7118C4.93061 2 5.124 2.14227 5.18913 2.35116L5.86869 4.53054C5.92604 4.71449 5.8726 4.91503 5.7313 5.04603L5.70727 5.06831C5.22638 5.51418 5.06829 6.2519 5.42606 6.85497C5.51037 6.99708 5.59801 7.13716 5.68889 7.2751C5.84082 7.50569 6.15092 7.56945 6.38151 7.41752C6.6121 7.26559 6.67586 6.95549 6.52393 6.7249C6.44169 6.60008 6.36239 6.47333 6.28611 6.34474C6.19151 6.1853 6.2179 5.95855 6.38716 5.80162L6.41119 5.77934C6.83509 5.38633 6.99543 4.78471 6.82335 4.23286L6.1438 2.05349C5.9484 1.42682 5.36822 1 4.7118 1H2.46435C1.64717 1 0.937393 1.67074 1.00439 2.53755C1.11396 3.95524 1.4476 5.34898 1.99488 6.66659C2.41357 7.67462 2.95226 8.62593 3.59765 9.50073C3.76159 9.72294 4.07463 9.77018 4.29684 9.60624C4.51905 9.4423 4.56629 9.12926 4.40235 8.90705C3.80476 8.09705 3.30602 7.21625 2.91839 6.283C2.41171 5.06315 2.10285 3.77288 2.00142 2.46049Z" fill="black"/>
<path d="M10.9442 10.2446C11.0751 10.1043 11.2747 10.0512 11.458 10.108L13.9516 10.8813C13.9804 10.8902 14 10.9168 14 10.947L14 13.4998C14 13.787 13.774 13.981 13.5392 13.963C12.2218 13.862 10.9267 13.5538 9.70237 13.0481C8.75578 12.6571 7.86305 12.1527 7.04319 11.5478C6.821 11.3838 6.50795 11.431 6.344 11.6532C6.18004 11.8754 6.22725 12.1885 6.44945 12.3524C7.33471 13.0057 8.29861 13.5502 9.32059 13.9723C10.6424 14.5184 12.0406 14.8511 13.4628 14.9601C14.3293 15.0265 15 14.3171 15 13.4998L15 10.947C15 10.4786 14.6951 10.0649 14.2478 9.92615L11.7542 9.15289C11.2043 8.98238 10.6054 9.14163 10.2128 9.56272L10.1861 9.59134C10.0294 9.75941 9.80363 9.78583 9.64436 9.69197C9.5189 9.61804 9.39517 9.54126 9.27328 9.4617C9.04204 9.31077 8.73222 9.37588 8.58129 9.60713C8.43036 9.83837 8.49547 10.1482 8.72672 10.2991C8.86137 10.387 8.99805 10.4718 9.13665 10.5535C9.73805 10.9079 10.4721 10.751 10.9175 10.2733L10.9442 10.2446Z" fill="black"/>
<path d="M13.8536 2.85355C14.0488 2.65829 14.0488 2.34171 13.8536 2.14645C13.6583 1.95118 13.3417 1.95118 13.1464 2.14645L2.14645 13.1464C1.95118 13.3417 1.95118 13.6583 2.14645 13.8536C2.34171 14.0488 2.65829 14.0488 2.85355 13.8536L13.8536 2.85355Z" fill="black"/>
</g>
</svg>
