<svg width="32" height="32" viewBox="0 0 32 32" fill="none" xmlns="http://www.w3.org/2000/svg">
<g opacity="0.9">
<path fill-rule="evenodd" clip-rule="evenodd" d="M13.9477 15.2239C13.4467 14.5909 12.9907 13.9238 12.5831 13.2273C12.3396 12.8113 12.4282 12.2638 12.8123 11.9067C13.5164 11.2521 13.7828 10.2516 13.4973 9.33347L12.3854 5.75768C12.0603 4.71229 11.0929 4 9.99814 4L6.42034 4C5.05244 4 3.88531 5.11928 4.00884 6.5408C4.21707 8.93715 4.79122 11.2916 5.71479 13.5213C6.64413 15.7649 7.91298 17.8477 9.4735 19.6981L13.9477 15.2239ZM16.7768 18.0516L12.3024 22.526C14.1512 24.0841 16.2318 25.3511 18.4729 26.2794C20.7026 27.203 23.0571 27.7771 25.4534 27.9854C26.8749 28.1089 27.9942 26.9418 27.9942 25.5739V21.9961C27.9942 20.9013 27.2819 19.9339 26.2365 19.6088L22.552 18.4631C21.7004 18.1983 20.7723 18.4453 20.165 19.0985C19.7614 19.5327 19.1414 19.634 18.6715 19.3549C18.0119 18.9631 17.3789 18.5278 16.7768 18.0516Z" fill="black"/>
<path fill-rule="evenodd" clip-rule="evenodd" d="M27.2071 4.79289C27.5976 5.18342 27.5976 5.81658 27.2071 6.20711L6.20712 27.2071C5.8166 27.5976 5.18343 27.5976 4.79291 27.2071C4.40238 26.8166 4.40238 26.1834 4.79291 25.7929L25.7929 4.79289C26.1834 4.40237 26.8166 4.40237 27.2071 4.79289Z" fill="black"/>
</g>
</svg>
