<svg width="24" height="24" viewBox="0 0 24 24" fill="none" xmlns="http://www.w3.org/2000/svg">
<g opacity="0.9">
<path d="M4.40534 2C3.0405 2 1.86254 3.11973 2.01267 4.54861C2.20932 6.42031 2.67483 8.25758 3.39776 10.0029C4.19018 11.916 5.27941 13.6884 6.62254 15.2561L10.4464 11.4323C10.0842 10.9835 9.74972 10.5133 9.44483 10.0244C9.13453 9.52681 9.24163 8.8551 9.71508 8.41492C10.1376 8.02212 10.2974 7.42183 10.1261 6.87097L8.93937 3.05461C8.74433 2.42737 8.16388 2 7.50702 2H4.40534Z" fill="black"/>
<path d="M14.0085 20.6136C12.0904 19.8191 10.3137 18.7263 8.74299 17.3783L12.5665 13.5548C13.0989 13.9855 13.6614 14.3771 14.2498 14.7265C14.6007 14.9349 15.0701 14.8624 15.3796 14.5296C15.9049 13.9645 16.7078 13.7508 17.4445 13.9799L20.2731 14.8594C21.3069 15.1809 22.0114 16.1376 22.0114 17.2203V19.606C22.0114 20.9709 20.8916 22.1488 19.4628 21.9987C17.5911 21.8021 15.7538 21.3365 14.0085 20.6136Z" fill="black"/>
<path d="M20.8536 3.85355C21.0488 3.65829 21.0488 3.34171 20.8536 3.14645C20.6583 2.95118 20.3417 2.95118 20.1464 3.14645L3.14645 20.1464C2.95118 20.3417 2.95118 20.6583 3.14645 20.8536C3.34171 21.0488 3.65829 21.0488 3.85355 20.8536L20.8536 3.85355Z" fill="black"/>
</g>
</svg>
