<svg width="16" height="16" viewBox="0 0 16 16" fill="none" xmlns="http://www.w3.org/2000/svg">
<g opacity="0.9">
<path d="M2.46435 1C1.64717 1 0.937393 1.67074 1.00439 2.53755C1.11396 3.95524 1.4476 5.34898 1.99488 6.66659C2.48499 7.84655 3.13951 8.9488 3.93713 9.94157L6.78187 7.09682C6.60483 6.85408 6.43938 6.60311 6.28611 6.34474C6.19151 6.18529 6.2179 5.95855 6.38717 5.80162L6.41119 5.77934C6.83509 5.38633 6.99543 4.78471 6.82335 4.23286L6.1438 2.05349C5.9484 1.42682 5.36822 1 4.7118 1H2.46435Z" fill="black"/>
<path d="M9.32059 13.9723C8.14833 13.4881 7.05249 12.8429 6.06408 12.0573L8.90935 9.21199C9.1468 9.38313 9.39206 9.54329 9.64436 9.69197C9.80363 9.78583 10.0294 9.75942 10.1861 9.59135L10.2128 9.56273C10.6053 9.14163 11.2043 8.98238 11.7542 9.15289L14.2478 9.92615C14.6951 10.0649 15 10.4786 15 10.947L15 11.5118L15 11.5157V13.4998C15 14.317 14.3293 15.0265 13.4628 14.9601C12.0406 14.8511 10.6424 14.5184 9.32059 13.9723Z" fill="black"/>
<path d="M13.8536 2.85355C14.0488 2.65829 14.0488 2.34171 13.8536 2.14645C13.6583 1.95118 13.3417 1.95118 13.1465 2.14645L2.14646 13.1464C1.9512 13.3417 1.9512 13.6583 2.14646 13.8536C2.34172 14.0488 2.65831 14.0488 2.85357 13.8536L13.8536 2.85355Z" fill="black"/>
</g>
</svg>
