<svg width="16" height="16" viewBox="0 0 16 16" fill="none" xmlns="http://www.w3.org/2000/svg">
<g opacity="0.9">
<path fill-rule="evenodd" clip-rule="evenodd" d="M12.0001 2.00014C12.0001 1.44786 12.4478 1.00014 13.0001 1.00014H15.0001C15.5523 1.00014 16.0001 1.44786 16.0001 2.00014V14.0001C16.0001 14.5524 15.5523 15.0001 15.0001 15.0001H13.0001C12.4478 15.0001 12.0001 14.5524 12.0001 14.0001V2.00014ZM15.0001 13.0001C15.0001 13.5524 14.5523 14.0001 14.0001 14.0001C13.4478 14.0001 13.0001 13.5524 13.0001 13.0001C13.0001 12.4479 13.4478 12.0001 14.0001 12.0001C14.5523 12.0001 15.0001 12.4479 15.0001 13.0001ZM13.5001 2.00014C13.2239 2.00014 13.0001 2.224 13.0001 2.50014V9.50014C13.0001 9.77629 13.2239 10.0001 13.5001 10.0001H14.5001C14.7762 10.0001 15.0001 9.77629 15.0001 9.50014V2.50014C15.0001 2.224 14.7762 2.00014 14.5001 2.00014H13.5001Z" fill="black"/>
<path fill-rule="evenodd" clip-rule="evenodd" d="M7.00005 2.00014C7.00005 1.44786 7.44777 1.00014 8.00005 1.00014H10.0001C10.5523 1.00014 11.0001 1.44786 11.0001 2.00014V14.0001C11.0001 14.5524 10.5523 15.0001 10.0001 15.0001H8.00005C7.44777 15.0001 7.00005 14.5524 7.00005 14.0001V2.00014ZM10.0001 13.0001C10.0001 13.5524 9.55234 14.0001 9.00005 14.0001C8.44777 14.0001 8.00005 13.5524 8.00005 13.0001C8.00005 12.4479 8.44777 12.0001 9.00005 12.0001C9.55234 12.0001 10.0001 12.4479 10.0001 13.0001ZM8.50005 2.00014C8.22391 2.00014 8.00005 2.224 8.00005 2.50014V9.50014C8.00005 9.77629 8.22391 10.0001 8.50005 10.0001H9.50005C9.77619 10.0001 10.0001 9.77629 10.0001 9.50014V2.50014C10.0001 2.224 9.77619 2.00014 9.50005 2.00014H8.50005Z" fill="black"/>
<path fill-rule="evenodd" clip-rule="evenodd" d="M2.4507 1.744C2.5466 1.20011 3.06526 0.836937 3.60916 0.93284L5.57877 1.28014C6.12267 1.37604 6.48583 1.8947 6.38993 2.43859L4.30615 14.2563C4.21025 14.8002 3.69159 15.1633 3.1477 15.0674L1.17808 14.7201C0.634187 14.6242 0.271019 14.1056 0.366922 13.5617L2.4507 1.744ZM3.49499 13.0978C3.39909 13.6417 2.88043 14.0049 2.33654 13.909C1.79264 13.8131 1.42947 13.2944 1.52538 12.7505C1.62128 12.2066 2.13994 11.8435 2.68383 11.9394C3.22773 12.0353 3.5909 12.5539 3.49499 13.0978ZM3.92791 2.00447C3.65596 1.95652 3.39664 2.1381 3.34868 2.41005L2.13315 9.30371C2.08519 9.57565 2.26678 9.83498 2.53873 9.88293L3.52353 10.0566C3.79548 10.1045 4.05481 9.92295 4.10276 9.651L5.3183 2.75735C5.36625 2.4854 5.18467 2.22607 4.91272 2.17812L3.92791 2.00447Z" fill="black"/>
</g>
</svg>
