<svg width="32" height="32" viewBox="0 0 32 32" fill="none" xmlns="http://www.w3.org/2000/svg">
<g opacity="0.9">
<path d="M4.5 8C4.22386 8 4 8.22386 4 8.5C4 8.77614 4.22386 9 4.5 9H27.5C27.7761 9 28 8.77614 28 8.5C28 8.22386 27.7761 8 27.5 8H4.5Z" fill="black"/>
<path d="M4.5 13C4.22386 13 4 13.2239 4 13.5C4 13.7761 4.22386 14 4.5 14H27.5C27.7761 14 28 13.7761 28 13.5C28 13.2239 27.7761 13 27.5 13H4.5Z" fill="black"/>
<path d="M4 18.5C4 18.2239 4.22386 18 4.5 18H27.5C27.7761 18 28 18.2239 28 18.5C28 18.7761 27.7761 19 27.5 19H4.5C4.22386 19 4 18.7761 4 18.5Z" fill="black"/>
<path d="M4.5 22.5C4.22386 22.5 4 22.7239 4 23C4 23.2761 4.22386 23.5 4.5 23.5H18C18.2761 23.5 18.5 23.2761 18.5 23C18.5 22.7239 18.2761 22.5 18 22.5H4.5Z" fill="black"/>
</g>
</svg>
