<svg width="24" height="24" viewBox="0 0 24 24" fill="none" xmlns="http://www.w3.org/2000/svg">
<g opacity="0.9">
<path d="M14.6437 12.0018C15.4754 11.2689 16 10.1957 16 9C16 6.79086 14.2091 5 12 5C9.79086 5 8 6.79086 8 9C8 10.1957 8.52463 11.2689 9.35627 12.0018C6.38513 12.0781 4 14.5105 4 17.5V20.5C4 20.7761 4.22386 21 4.5 21H14.7289C14.5802 20.5265 14.5 20.0226 14.5 19.5C14.5 16.8665 16.536 14.7085 19.1198 14.5142C18.1642 13.0387 16.5209 12.05 14.6437 12.0018Z" fill="black"/>
<path d="M19.5 16C19.7761 16 20 16.2239 20 16.5V19H22.5C22.7761 19 23 19.2239 23 19.5C23 19.7761 22.7761 20 22.5 20H20V22.5C20 22.7761 19.7761 23 19.5 23C19.2239 23 19 22.7761 19 22.5V20H16.5C16.2239 20 16 19.7761 16 19.5C16 19.2239 16.2239 19 16.5 19H19V16.5C19 16.2239 19.2239 16 19.5 16Z" fill="black"/>
</g>
</svg>
