<svg width="32" height="32" viewBox="0 0 32 32" fill="none" xmlns="http://www.w3.org/2000/svg">
<g opacity="0.9">
<path fill-rule="evenodd" clip-rule="evenodd" d="M19.0005 16C20.2147 15.0878 21 13.6356 21 12C21 9.23858 18.7614 7 16 7C13.2386 7 11 9.23858 11 12C11 13.6356 11.7853 15.0878 12.9995 16H12.5C8.91015 16 6 18.9101 6 22.5V26.5C6 26.7761 6.22386 27 6.5 27C6.77614 27 7 26.7761 7 26.5V22.5C7 19.4624 9.46243 17 12.5 17H19.5C21.482 17 23.2196 18.048 24.1883 19.6226C24.3329 19.8578 24.6409 19.9311 24.8761 19.7865C25.1113 19.6418 25.1847 19.3338 25.04 19.0986C23.897 17.2406 21.8436 16 19.5 16H19.0005ZM12 12C12 9.79086 13.7909 8 16 8C18.2091 8 20 9.79086 20 12C20 14.2091 18.2091 16 16 16C13.7909 16 12 14.2091 12 12Z" fill="black"/>
<path d="M25.5 22C25.7761 22 26 22.2239 26 22.5V25H28.5C28.7761 25 29 25.2239 29 25.5C29 25.7761 28.7761 26 28.5 26H26V28.5C26 28.7761 25.7761 29 25.5 29C25.2239 29 25 28.7761 25 28.5V26H22.5C22.2239 26 22 25.7761 22 25.5C22 25.2239 22.2239 25 22.5 25H25V22.5C25 22.2239 25.2239 22 25.5 22Z" fill="black"/>
</g>
</svg>
