<svg width="16" height="16" viewBox="0 0 16 16" fill="none" xmlns="http://www.w3.org/2000/svg">
<path opacity="0.9" fill-rule="evenodd" clip-rule="evenodd" d="M12.855 2L12.987 4.814H12.654C12.588 4.318 12.501 3.965 12.39 3.753C12.209 3.41 11.968 3.158 11.666 2.996C11.365 2.834 10.968 2.753 10.477 2.753H8.8V11.921C8.8 12.659 8.88 13.119 9.039 13.301C9.26 13.55 9.603 13.674 10.064 13.674H10.477V14H5.431V13.674H5.853C6.354 13.674 6.712 13.52 6.923 13.213C7.049 13.024 7.117 12.594 7.117 11.921V2.753H5.685C5.127 2.753 4.734 2.795 4.501 2.877C4.196 2.988 3.935 3.204 3.72 3.522C3.503 3.842 3.375 4.271 3.333 4.814H3L3.14 2H12.855Z" fill="black"/>
</svg>
