<svg width="16" height="16" viewBox="0 0 16 16" fill="none" xmlns="http://www.w3.org/2000/svg">
<path opacity="0.9" d="M15.1099 4.44497H12.6126C12.2127 3.75179 11.6617 3.15636 10.9952 2.70312L12.4437 1.25453L11.1907 0.00146484L9.26219 1.92995C8.85339 1.83219 8.4357 1.77887 8.00024 1.77887C7.56477 1.77887 7.14708 1.83219 6.74717 1.92995L4.8098 0.00146484L3.55673 1.25453L4.99643 2.70312C4.33879 3.15636 3.78779 3.75179 3.38788 4.44497H0.890625V6.22238H2.74801C2.70358 6.51565 2.66803 6.80892 2.66803 7.11108V7.99978H0.890625V9.77718H2.66803V10.6659C2.66803 10.968 2.70358 11.2613 2.74801 11.5546H0.890625V13.332H3.38788C4.31213 14.9228 6.02732 15.9981 8.00024 15.9981C9.97316 15.9981 11.6883 14.9228 12.6126 13.332H15.1099V11.5546H13.2525C13.2969 11.2613 13.3324 10.968 13.3324 10.6659V9.77718H15.1099V7.99978H13.3324V7.11108C13.3324 6.80892 13.2969 6.51565 13.2525 6.22238H15.1099V4.44497ZM9.77764 11.5546H6.22284V9.77718H9.77764V11.5546ZM9.77764 7.99978H6.22284V6.22238H9.77764V7.99978Z" fill="black"/>
</svg>
