<svg width="32" height="32" viewBox="0 0 32 32" fill="none" xmlns="http://www.w3.org/2000/svg">
<path opacity="0.9" fill-rule="evenodd" clip-rule="evenodd" d="M4 16C4 9.37258 9.37258 4 16 4C22.6274 4 28 9.37258 28 16C28 22.6274 22.6274 28 16 28C9.37258 28 4 22.6274 4 16ZM14.7372 9.32428C14.364 8.91716 13.7314 8.88965 13.3243 9.26285C12.9172 9.63604 12.8897 10.2686 13.2628 10.6757L18.1434 16L13.2628 21.3243C12.8897 21.7314 12.9172 22.364 13.3243 22.7372C13.7314 23.1103 14.364 23.0828 14.7372 22.6757L20.2372 16.6757C20.5876 16.2934 20.5876 15.7066 20.2372 15.3243L14.7372 9.32428Z" fill="black"/>
</svg>
