<svg width="32" height="32" viewBox="0 0 32 32" fill="none" xmlns="http://www.w3.org/2000/svg">
<g opacity="0.9">
<path fill-rule="evenodd" clip-rule="evenodd" d="M13.6621 9.63142C13.8657 9.44483 14.182 9.45858 14.3686 9.66214L19.8686 15.6621C20.0438 15.8533 20.0438 16.1467 19.8686 16.3379L14.3686 22.3379C14.182 22.5414 13.8657 22.5552 13.6621 22.3686C13.4586 22.182 13.4448 21.8657 13.6314 21.6621L18.8217 16L13.6314 10.3379C13.4448 10.1343 13.4586 9.81802 13.6621 9.63142Z" fill="black"/>
<path fill-rule="evenodd" clip-rule="evenodd" d="M16 5C9.92487 5 5 9.92487 5 16C5 22.0751 9.92487 27 16 27C22.0751 27 27 22.0751 27 16C27 9.92487 22.0751 5 16 5ZM4 16C4 9.37258 9.37258 4 16 4C22.6274 4 28 9.37258 28 16C28 22.6274 22.6274 28 16 28C9.37258 28 4 22.6274 4 16Z" fill="black"/>
</g>
</svg>
