<svg width="24" height="24" viewBox="0 0 24 24" fill="none" xmlns="http://www.w3.org/2000/svg">
<path opacity="0.9" fill-rule="evenodd" clip-rule="evenodd" d="M2 12C2 6.47715 6.47715 2 12 2C17.5228 2 22 6.47715 22 12C22 17.5228 17.5228 22 12 22C6.47715 22 2 17.5228 2 12ZM10.8737 7.16782C10.6902 6.96143 10.3742 6.94284 10.1678 7.1263C9.96143 7.30975 9.94284 7.62579 10.1263 7.83218L13.831 12L10.1263 16.1678C9.94284 16.3742 9.96143 16.6902 10.1678 16.8737C10.3742 17.0572 10.6902 17.0386 10.8737 16.8322L14.8737 12.3322C15.0421 12.1427 15.0421 11.8573 14.8737 11.6678L10.8737 7.16782Z" fill="black"/>
</svg>
