<svg width="24" height="24" viewBox="0 0 24 24" fill="none" xmlns="http://www.w3.org/2000/svg">
<path opacity="0.9" d="M9.35193 19.9327L9.16502 19.882L8.99274 19.9704L5.95651 21.5291V18.4931V18.2553L5.772 18.1052C3.76137 16.4699 2.5 14.065 2.5 11.3913C2.5 6.50989 6.72325 2.5 12 2.5C17.2767 2.5 21.5 6.50989 21.5 11.3913C21.5 16.2727 17.2767 20.2826 12 20.2826C11.0802 20.2826 10.1918 20.1604 9.35193 19.9327ZM5.63996 13.653L6.23938 14.4389L10.4784 12.1272L12.7201 14.3546L13.0879 14.7201L13.4398 14.3393L18.3672 9.00593L17.7585 8.22882L13.6507 10.4949L11.4954 8.31508L11.1352 7.95085L10.7798 8.31966L5.63996 13.653Z" fill="black" stroke="black"/>
</svg>
