<svg width="33" height="32" viewBox="0 0 33 32" fill="none" xmlns="http://www.w3.org/2000/svg">
<g opacity="0.9">
<path fill-rule="evenodd" clip-rule="evenodd" d="M12.0352 16C12.0352 13.7909 13.826 12 16.0352 12C18.2443 12 20.0352 13.7909 20.0352 16C20.0352 18.2091 18.2443 20 16.0352 20C13.826 20 12.0352 18.2091 12.0352 16ZM16.0352 14C14.9306 14 14.0352 14.8954 14.0352 16C14.0352 17.1046 14.9306 18 16.0352 18C17.1397 18 18.0352 17.1046 18.0352 16C18.0352 14.8954 17.1397 14 16.0352 14Z" fill="black"/>
<path fill-rule="evenodd" clip-rule="evenodd" d="M4.03516 16C4.03516 9.37258 9.40774 4 16.0352 4C22.6626 4 28.0352 9.37258 28.0352 16C28.0352 22.6274 22.6626 28 16.0352 28C9.40774 28 4.03516 22.6274 4.03516 16ZM25.8979 16.3441C26.0801 16.1514 26.0804 15.849 25.8983 15.6563L25.8969 15.6549L25.8938 15.6515L25.8828 15.6401C25.8734 15.6304 25.8599 15.6165 25.8425 15.5988C25.8076 15.5633 25.7567 15.5124 25.6907 15.4482C25.5587 15.3198 25.3658 15.1382 25.1184 14.9211C24.6241 14.4873 23.9098 13.9096 23.0265 13.3316C21.2683 12.1811 18.7964 11 16.0352 11C13.2739 11 10.802 12.1811 9.04386 13.3316C8.16056 13.9096 7.44621 14.4873 6.95191 14.9211C6.70453 15.1382 6.51164 15.3198 6.3796 15.4482C6.31357 15.5124 6.26271 15.5633 6.22782 15.5988C6.21037 15.6165 6.19691 15.6304 6.18754 15.6401L6.17656 15.6515L6.17339 15.6549L6.17239 15.6559C5.99022 15.8486 5.98962 16.1507 6.17178 16.3435L6.17339 16.3451L6.17656 16.3485L6.18754 16.3599C6.19691 16.3696 6.21037 16.3835 6.22782 16.4012C6.26271 16.4367 6.31357 16.4876 6.3796 16.5518C6.51164 16.6802 6.70453 16.8618 6.95191 17.0789C7.44621 17.5127 8.16056 18.0904 9.04386 18.6684C10.802 19.8189 13.2739 21 16.0352 21C18.7964 21 21.2683 19.8189 23.0265 18.6684C23.9098 18.0904 24.6241 17.5127 25.1184 17.0789C25.3658 16.8618 25.5587 16.6802 25.6907 16.5518C25.7567 16.4876 25.8076 16.4367 25.8425 16.4012C25.8599 16.3835 25.8734 16.3696 25.8828 16.3599L25.8938 16.3485L25.8969 16.3451L25.8979 16.3441Z" fill="black"/>
</g>
</svg>
