<svg width="25" height="24" viewBox="0 0 25 24" fill="none" xmlns="http://www.w3.org/2000/svg">
<g opacity="0.9">
<path fill-rule="evenodd" clip-rule="evenodd" d="M12.0352 15C13.692 15 15.0352 13.6569 15.0352 12C15.0352 10.3431 13.692 9 12.0352 9C10.3783 9 9.03516 10.3431 9.03516 12C9.03516 13.6569 10.3783 15 12.0352 15ZM12.0352 13C12.5874 13 13.0352 12.5523 13.0352 12C13.0352 11.4477 12.5874 11 12.0352 11C11.4829 11 11.0352 11.4477 11.0352 12C11.0352 12.5523 11.4829 13 12.0352 13Z" fill="black"/>
<path fill-rule="evenodd" clip-rule="evenodd" d="M2.03516 12C2.03516 6.47715 6.51231 2 12.0352 2C17.558 2 22.0352 6.47715 22.0352 12C22.0352 17.5228 17.558 22 12.0352 22C6.51231 22 2.03516 17.5228 2.03516 12ZM19.8954 12.3467C20.081 12.1533 20.0813 11.847 19.8957 11.6536L19.8945 11.6523L19.8918 11.6496L19.8828 11.6403L19.8502 11.6073C19.8221 11.5792 19.7814 11.5391 19.7287 11.4885C19.6232 11.3875 19.4696 11.245 19.2728 11.0749C18.8796 10.735 18.3117 10.2825 17.6094 9.82976C16.213 8.92951 14.2421 8 12.0352 8C9.82823 8 7.85732 8.92951 6.46093 9.82976C5.75862 10.2825 5.19069 10.735 4.79753 11.0749C4.60072 11.245 4.44708 11.3875 4.34165 11.4885C4.28892 11.5391 4.2482 11.5792 4.22012 11.6073L4.18753 11.6403L4.17849 11.6496L4.1758 11.6523L4.17492 11.6533C3.98933 11.8467 3.98875 12.1527 4.17435 12.3462L4.1758 12.3477L4.17849 12.3504L4.18753 12.3597L4.22012 12.3927C4.2482 12.4208 4.28892 12.4609 4.34165 12.5115C4.44708 12.6125 4.60072 12.755 4.79753 12.9251C5.19069 13.265 5.75862 13.7175 6.46093 14.1702C7.85732 15.0705 9.82823 16 12.0352 16C14.2421 16 16.213 15.0705 17.6094 14.1702C18.3117 13.7175 18.8796 13.265 19.2728 12.9251C19.4696 12.755 19.6232 12.6125 19.7287 12.5115C19.7814 12.4609 19.8221 12.4208 19.8502 12.3927L19.8828 12.3597L19.8918 12.3504L19.8945 12.3477L19.8954 12.3467Z" fill="black"/>
</g>
</svg>
