<svg width="32" height="32" viewBox="0 0 32 32" fill="none" xmlns="http://www.w3.org/2000/svg">
<path opacity="0.9" d="M26.7071 6.70711C27.0976 6.31658 27.0976 5.68342 26.7071 5.29289C26.3166 4.90237 25.6834 4.90237 25.2929 5.29289L16 14.5858L6.70712 5.29289C6.3166 4.90237 5.68343 4.90237 5.29291 5.29289C4.90238 5.68342 4.90238 6.31658 5.29291 6.70711L14.5858 16L5.29289 25.2929C4.90237 25.6834 4.90237 26.3166 5.29289 26.7071C5.68342 27.0976 6.31658 27.0976 6.70711 26.7071L16 17.4142L25.2929 26.7071C25.6834 27.0976 26.3166 27.0976 26.7071 26.7071C27.0976 26.3166 27.0976 25.6834 26.7071 25.2929L17.4142 16L26.7071 6.70711Z" fill="black"/>
</svg>
