<svg width="16" height="16" viewBox="0 0 16 16" fill="none" xmlns="http://www.w3.org/2000/svg">
<path opacity="0.9" d="M13.0757 2.07574L7.99997 7.1515L2.92428 2.07581C2.68996 1.8415 2.31006 1.8415 2.07575 2.07581C1.84144 2.31013 1.84144 2.69002 2.07575 2.92434L7.15144 8.00003L2.07574 13.0757C1.84142 13.3101 1.84142 13.6899 2.07573 13.9243C2.31005 14.1586 2.68995 14.1586 2.92426 13.9243L7.99997 8.84856L13.0758 13.9243C13.3101 14.1587 13.69 14.1587 13.9243 13.9243C14.1586 13.69 14.1586 13.3101 13.9243 13.0758L8.8485 8.00003L13.9243 2.92426C14.1586 2.68995 14.1586 2.31005 13.9243 2.07574C13.6899 1.84142 13.3101 1.84142 13.0757 2.07574Z" fill="black" stroke="black" stroke-width="0.2"/>
</svg>
