<svg width="32" height="32" viewBox="0 0 32 32" fill="none" xmlns="http://www.w3.org/2000/svg">
<path opacity="0.9" d="M26.4243 6.42426C26.6586 6.18995 26.6586 5.81005 26.4243 5.57574C26.1899 5.34142 25.81 5.34142 25.5757 5.57574L16 15.1515L6.42431 5.57581C6.18999 5.3415 5.8101 5.3415 5.57578 5.57581C5.34147 5.81013 5.34147 6.19002 5.57578 6.42434L15.1515 16L5.57574 25.5757C5.34142 25.8101 5.34142 26.1899 5.57574 26.4243C5.81005 26.6586 6.18995 26.6586 6.42426 26.4243L16 16.8485L25.5758 26.4243C25.8101 26.6587 26.19 26.6587 26.4243 26.4243C26.6586 26.19 26.6586 25.8101 26.4243 25.5758L16.8485 16L26.4243 6.42426Z" fill="black" stroke="black" stroke-width="0.2"/>
</svg>
