<svg width="32" height="32" viewBox="0 0 32 32" fill="none" xmlns="http://www.w3.org/2000/svg">
<g opacity="0.9">
<path fill-rule="evenodd" clip-rule="evenodd" d="M15.5 26C21.299 26 26 21.299 26 15.5C26 9.70101 21.299 5 15.5 5C9.70101 5 5 9.70101 5 15.5C5 21.299 9.70101 26 15.5 26ZM15.5 27C21.8513 27 27 21.8513 27 15.5C27 9.14873 21.8513 4 15.5 4C9.14873 4 4 9.14873 4 15.5C4 21.8513 9.14873 27 15.5 27Z" fill="black"/>
<path fill-rule="evenodd" clip-rule="evenodd" d="M15.5 8C15.5 7.72386 15.7239 7.5 16 7.5C17.9377 7.5 19.8143 8.59995 21.1888 10.1707C22.5673 11.7462 23.5 13.8595 23.5 16C23.5 16.2761 23.2761 16.5 23 16.5C22.7239 16.5 22.5 16.2761 22.5 16C22.5 14.1405 21.6827 12.2538 20.4362 10.8293C19.1857 9.40005 17.5623 8.5 16 8.5C15.7239 8.5 15.5 8.27614 15.5 8Z" fill="black"/>
<path fill-rule="evenodd" clip-rule="evenodd" d="M22.7631 23.864C22.9584 23.6687 23.2749 23.6687 23.4702 23.864L29.5456 29.9393C29.7408 30.1346 29.7408 30.4512 29.5456 30.6464C29.3503 30.8417 29.0337 30.8417 28.8385 30.6464L22.7631 24.5711C22.5678 24.3758 22.5678 24.0592 22.7631 23.864Z" fill="black"/>
</g>
</svg>
