<svg width="24" height="24" viewBox="0 0 24 24" fill="none" xmlns="http://www.w3.org/2000/svg">
<g opacity="0.9">
<path d="M4.5 2H1V5.5C1 5.77614 1.22386 6 1.5 6C1.77614 6 2 5.77614 2 5.5V3H4.5C4.77614 3 5 2.77614 5 2.5C5 2.22386 4.77614 2 4.5 2Z" fill="black"/>
<path d="M23 5.5V2H19.5C19.2239 2 19 2.22386 19 2.5C19 2.77614 19.2239 3 19.5 3L22 3V5.5C22 5.77614 22.2239 6 22.5 6C22.7761 6 23 5.77614 23 5.5Z" fill="black"/>
<path d="M23 22H19.5C19.2239 22 19 21.7761 19 21.5C19 21.2239 19.2239 21 19.5 21H22V18.5C22 18.2239 22.2239 18 22.5 18C22.7761 18 23 18.2239 23 18.5V22Z" fill="black"/>
<path d="M1 18.5V22H4.5C4.77614 22 5 21.7761 5 21.5C5 21.2239 4.77614 21 4.5 21H2L2 18.5C2 18.2239 1.77614 18 1.5 18C1.22386 18 1 18.2239 1 18.5Z" fill="black"/>
<path d="M13.9169 11.4767C14.5198 10.9453 14.9002 10.1673 14.9002 9.30039C14.9002 7.69876 13.6018 6.40039 12.0002 6.40039C10.3986 6.40039 9.10019 7.69876 9.10019 9.30039C9.10019 10.1673 9.48055 10.9453 10.0835 11.4767C7.92942 11.532 6.2002 13.2955 6.2002 15.4629V17.6379C6.2002 17.8381 6.36249 18.0004 6.5627 18.0004H17.4377C17.6379 18.0004 17.8002 17.8381 17.8002 17.6379V15.4629C17.8002 13.2955 16.071 11.532 13.9169 11.4767Z" fill="black"/>
<path d="M8.1 9.30039C8.1 8.5629 8.3047 7.87322 8.66039 7.28507C8.30123 6.75144 7.69161 6.40039 7 6.40039C5.89543 6.40039 5 7.29582 5 8.40039C5 8.99824 5.26232 9.53482 5.67813 9.90131C4.19257 9.93942 3 11.1556 3 12.6504V14.1504C3 14.2885 3.11193 14.4004 3.25 14.4004H5.3134C5.67202 12.7475 6.85008 11.4001 8.40105 10.8049C8.20725 10.342 8.1 9.83357 8.1 9.30039Z" fill="black"/>
<path d="M15.5989 10.8049C17.1499 11.4001 18.328 12.7475 18.6866 14.4004H20.75C20.8881 14.4004 21 14.2885 21 14.1504V12.6504C21 11.1556 19.8074 9.93942 18.3219 9.90131C18.7377 9.53482 19 8.99824 19 8.40039C19 7.29582 18.1046 6.40039 17 6.40039C16.3084 6.40039 15.6988 6.75144 15.3396 7.28508C15.6953 7.87323 15.9 8.5629 15.9 9.30039C15.9 9.83357 15.7927 10.342 15.5989 10.8049Z" fill="black"/>
</g>
</svg>
