<svg width="16" height="16" viewBox="0 0 16 16" fill="none" xmlns="http://www.w3.org/2000/svg">
<g opacity="0.9">
<path d="M0 1H2.5C2.77614 1 3 1.22386 3 1.5C3 1.77614 2.77614 2 2.5 2H1V3.5C1 3.77614 0.776142 4 0.5 4C0.223858 4 0 3.77614 0 3.5V1Z" fill="black"/>
<path d="M5.5 4C5.5 3.72386 5.27614 3.5 5 3.5C4.03372 3.5 3.24999 4.28302 3.24999 5.24942C3.24999 5.60314 3.35491 5.93209 3.53524 6.20708C3.28516 6.32162 3.05354 6.47049 2.85074 6.64519C2.36081 7.06724 1.99979 7.6769 1.99979 8.37315V9.31022C1.99979 9.58636 2.22365 9.81022 2.49979 9.81022C2.77593 9.81022 2.99979 9.58636 2.99979 9.31022V8.37315C2.99979 8.03435 3.17817 7.68301 3.50341 7.40284C3.80887 7.1397 4.20917 6.97187 4.60679 6.95296C4.85955 6.99459 5.10669 6.83687 5.17173 6.58406C5.21002 6.43522 5.17712 6.28479 5.09432 6.16878C5.01596 6.05449 4.89137 5.9744 4.7475 5.95547C4.45716 5.85186 4.24999 5.57418 4.24999 5.24942C4.24999 4.83575 4.58556 4.5 5 4.5C5.27614 4.5 5.5 4.27614 5.5 4Z" fill="black"/>
<path d="M11 3.5C10.7239 3.5 10.5 3.72386 10.5 4C10.5 4.27614 10.7239 4.5 11 4.5C11.4142 4.5 11.75 4.83579 11.75 5.25001C11.75 5.57489 11.543 5.85253 11.2532 5.95637C11.1072 5.97538 10.981 6.05732 10.9028 6.17408C10.8221 6.28953 10.7904 6.43818 10.8283 6.58526C10.8934 6.83832 11.141 6.99608 11.394 6.95398C11.7913 6.97309 12.1912 7.14092 12.4965 7.40401C12.8217 7.68431 13.0002 8.03589 13.0002 8.37503V9.31253C13.0002 9.58867 13.2241 9.81253 13.5002 9.81253C13.7764 9.81253 14.0002 9.58867 14.0002 9.31253V8.37503C14.0002 7.67862 13.6393 7.06876 13.1493 6.64651C12.9465 6.4717 12.7148 6.32273 12.4647 6.20812C12.6451 5.93298 12.75 5.60387 12.75 5.25001C12.75 4.2835 11.9665 3.5 11 3.5Z" fill="black"/>
<path fill-rule="evenodd" clip-rule="evenodd" d="M9.65911 7.97384C10.0759 7.55235 10.3332 6.97289 10.3332 6.33333C10.3332 5.04467 9.2885 4 7.99984 4C6.71117 4 5.6665 5.04467 5.6665 6.33333C5.6665 6.97294 5.92385 7.55243 6.34065 7.97392C4.97744 8.45233 4 9.75069 4 11.2773V12.1662C4 12.4424 4.22386 12.6662 4.5 12.6662C4.77614 12.6662 5 12.4424 5 12.1662V11.2773C5 9.89663 6.11929 8.77734 7.5 8.77734H8.5C9.88071 8.77734 11 9.89663 11 11.2773V12.1662C11 12.4424 11.2239 12.6662 11.5 12.6662C11.7761 12.6662 12 12.4424 12 12.1662V11.2773C12 9.7506 11.0224 8.45218 9.65911 7.97384ZM7.99984 7.66667C8.73622 7.66667 9.33317 7.06971 9.33317 6.33333C9.33317 5.59695 8.73622 5 7.99984 5C7.26346 5 6.6665 5.59695 6.6665 6.33333C6.6665 7.06971 7.26346 7.66667 7.99984 7.66667Z" fill="black"/>
<path d="M16 3.5V1H13.5C13.2239 1 13 1.22386 13 1.5C13 1.77614 13.2239 2 13.5 2L15 2V3.5C15 3.77614 15.2239 4 15.5 4C15.7761 4 16 3.77614 16 3.5Z" fill="black"/>
<path d="M16 15H13.5C13.2239 15 13 14.7761 13 14.5C13 14.2239 13.2239 14 13.5 14H15V12.5C15 12.2239 15.2239 12 15.5 12C15.7761 12 16 12.2239 16 12.5V15Z" fill="black"/>
<path d="M0 12.5V15H2.5C2.77614 15 3 14.7761 3 14.5C3 14.2239 2.77614 14 2.5 14H1L1 12.5C1 12.2239 0.776143 12 0.5 12C0.223858 12 0 12.2239 0 12.5Z" fill="black"/>
</g>
</svg>
