<svg width="16" height="16" viewBox="0 0 16 16" fill="none" xmlns="http://www.w3.org/2000/svg">
<g opacity="0.9">
<path fill-rule="evenodd" clip-rule="evenodd" d="M6.91465 9C6.96992 8.84361 7 8.67532 7 8.5C7 7.67157 6.32843 7 5.5 7C4.67157 7 4 7.67157 4 8.5C4 9.32843 4.67157 10 5.5 10H10.5C11.3284 10 12 9.32843 12 8.5C12 7.67157 11.3284 7 10.5 7C9.67157 7 9 7.67157 9 8.5C9 8.67532 9.03008 8.84361 9.08535 9H6.91465ZM5 8.5C5 8.22386 5.22386 8 5.5 8C5.77614 8 6 8.22386 6 8.5C6 8.77614 5.77614 9 5.5 9C5.22386 9 5 8.77614 5 8.5ZM10.5 9C10.7761 9 11 8.77614 11 8.5C11 8.22386 10.7761 8 10.5 8C10.2239 8 10 8.22386 10 8.5C10 8.77614 10.2239 9 10.5 9Z" fill="black"/>
<path fill-rule="evenodd" clip-rule="evenodd" d="M3.5 3C2.11929 3 1 4.11929 1 5.5V14.4534C1 15.2941 1.97434 15.7596 2.62834 15.2314L5.25352 13.111C5.34247 13.0392 5.45336 13 5.56769 13H12.5C13.8807 13 15 11.8807 15 10.5V5.5C15 4.11929 13.8807 3 12.5 3H3.5ZM2 5.5C2 4.67157 2.67157 4 3.5 4H12.5C13.3284 4 14 4.67157 14 5.5V10.5C14 11.3284 13.3284 12 12.5 12H5.56769C5.22468 12 4.89203 12.1176 4.62519 12.3331L2 14.4534V5.5Z" fill="black"/>
</g>
</svg>
