<svg width="24" height="24" viewBox="0 0 24 24" fill="none" xmlns="http://www.w3.org/2000/svg">
<g opacity="0.9">
<path d="M13.9418 6.83213C14.0842 6.59554 14.0079 6.2883 13.7713 6.1459C13.5347 6.0035 13.2275 6.07986 13.0851 6.31645L11.9958 8.1263L10.9158 6.31794C10.7743 6.08085 10.4673 6.00343 10.2302 6.14501C9.99312 6.2866 9.9157 6.59357 10.0573 6.83065L11.4111 9.09768L8.92564 13.2272C8.78323 13.4637 8.85959 13.771 9.09619 13.9134C9.33278 14.0558 9.64001 13.9794 9.78242 13.7428L13.9418 6.83213Z" fill="black"/>
<path d="M7.26126 16.0215H5.18951C4.91337 16.0215 4.68951 15.7976 4.68951 15.5215C4.68951 15.2453 4.91337 15.0215 5.18951 15.0215H13.3004C13.5766 15.0215 13.8004 15.2453 13.8004 15.5215C13.8004 15.7976 13.5766 16.0215 13.3004 16.0215H8.4272L7.13179 18.1822C6.9898 18.4191 6.6827 18.496 6.44586 18.354C6.20902 18.212 6.13213 17.9049 6.27412 17.668L7.26126 16.0215Z" fill="black"/>
<path d="M13.1367 10.8677C13.3746 10.7275 13.6812 10.8067 13.8214 11.0446L16.1658 15.0215H18.8105C19.0867 15.0215 19.3105 15.2453 19.3105 15.5215C19.3105 15.7976 19.0867 16.0215 18.8105 16.0215H16.7553L17.7278 17.6712C17.868 17.9091 17.7889 18.2156 17.551 18.3559C17.3131 18.4961 17.0066 18.4169 16.8663 18.179L12.9599 11.5524C12.8197 11.3145 12.8989 11.008 13.1367 10.8677Z" fill="black"/>
<path fill-rule="evenodd" clip-rule="evenodd" d="M4.5 2C3.11929 2 2 3.11929 2 4.5V19.5C2 20.8807 3.11929 22 4.5 22H19.5C20.8807 22 22 20.8807 22 19.5V4.5C22 3.11929 20.8807 2 19.5 2H4.5ZM3 4.5C3 3.67157 3.67157 3 4.5 3H19.5C20.3284 3 21 3.67157 21 4.5V19.5C21 20.3284 20.3284 21 19.5 21H4.5C3.67157 21 3 20.3284 3 19.5V4.5Z" fill="black"/>
</g>
</svg>
