<svg width="24" height="24" viewBox="0 0 24 24" fill="none" xmlns="http://www.w3.org/2000/svg">
<path opacity="0.9" fill-rule="evenodd" clip-rule="evenodd" d="M2 4.5C2 3.11929 3.11929 2 4.5 2H19.5C20.8807 2 22 3.11929 22 4.5V19.5C22 20.8807 20.8807 22 19.5 22H4.5C3.11929 22 2 20.8807 2 19.5V4.5ZM10.9158 6.31794C10.7743 6.08085 10.4673 6.00343 10.2302 6.14502C9.99312 6.2866 9.9157 6.59357 10.0573 6.83065L11.4111 9.09767L8.92562 13.2272C8.78322 13.4637 8.85958 13.771 9.09617 13.9134C9.33276 14.0558 9.64 13.9794 9.7824 13.7428L13.9418 6.83214C14.0842 6.59554 14.0079 6.28831 13.7713 6.14591C13.5347 6.0035 13.2275 6.07986 13.0851 6.31645L11.9957 8.12629L10.9158 6.31794ZM13.8214 11.0446C13.6812 10.8067 13.3746 10.7275 13.1367 10.8677C12.8989 11.008 12.8197 11.3145 12.9599 11.5524L16.8663 18.179C17.0066 18.4169 17.3131 18.4961 17.551 18.3559C17.7889 18.2156 17.868 17.9091 17.7278 17.6712L16.7553 16.0216H18.8105C19.0866 16.0216 19.3105 15.7977 19.3105 15.5216C19.3105 15.2454 19.0866 15.0216 18.8105 15.0216H16.1658L13.8214 11.0446ZM13.3004 16.0216H8.42714L7.13178 18.1822C6.98979 18.4191 6.68269 18.496 6.44585 18.354C6.209 18.212 6.13211 17.9049 6.27411 17.668L7.2612 16.0216H5.1895C4.91336 16.0216 4.6895 15.7977 4.6895 15.5216C4.6895 15.2454 4.91336 15.0216 5.1895 15.0216H13.3004C13.5766 15.0216 13.8004 15.2454 13.8004 15.5216C13.8004 15.7977 13.5766 16.0216 13.3004 16.0216Z" fill="black"/>
</svg>
