<svg width="16" height="16" viewBox="0 0 16 16" fill="none" xmlns="http://www.w3.org/2000/svg">
<path opacity="0.9" fill-rule="evenodd" clip-rule="evenodd" d="M15.4141 12.5C15.4141 13.3284 14.7425 14 13.9141 14H2.91406C2.08564 14 1.41406 13.3284 1.41406 12.5V3.5C1.41406 2.67157 2.08564 2 2.91406 2H6.41406C6.96635 2 7.41406 2.44772 7.41406 3H13.9141C14.7425 3 15.4141 3.67157 15.4141 4.5V12.5ZM2.91406 3C2.63792 3 2.41406 3.22386 2.41406 3.5V5.08535C2.57045 5.03008 2.73874 5 2.91406 5H13.9141C14.0894 5 14.2577 5.03008 14.4141 5.08535V4.5C14.4141 4.22386 14.1902 4 13.9141 4H7.41406C6.86178 4 6.41406 3.55228 6.41406 3H2.91406Z" fill="black"/>
</svg>
