<svg width="32" height="32" viewBox="0 0 32 32" fill="none" xmlns="http://www.w3.org/2000/svg">
<path opacity="0.9" fill-rule="evenodd" clip-rule="evenodd" d="M28 24C28 25.1046 27.1046 26 26 26H5C3.89543 26 3 25.1046 3 24V8C3 6.89543 3.89543 6 5 6H12.5C13.3284 6 14 6.67157 14 7.5C14 7.77614 14.2239 8 14.5 8H26C27.1046 8 28 8.89543 28 10V24ZM5 7C4.44772 7 4 7.44772 4 8V10.2676C4.29417 10.0974 4.63571 10 5 10H26C26.3643 10 26.7058 10.0974 27 10.2676V10C27 9.44772 26.5523 9 26 9H14.5C13.6716 9 13 8.32843 13 7.5C13 7.22386 12.7761 7 12.5 7H5Z" fill="black"/>
</svg>
