<svg width="16" height="17" viewBox="0 0 16 17" fill="none" xmlns="http://www.w3.org/2000/svg">
<g opacity="0.9">
<path d="M7.59119 5.75372C7.67938 5.13269 7.96271 4.53332 8.43995 4.05608L9.85417 2.64186C11.0257 1.47029 12.9252 1.47029 14.0968 2.64186C15.2684 3.81344 15.2684 5.71293 14.0968 6.8845L12.6826 8.29872C12.2054 8.77596 11.606 9.05929 10.9849 9.14748C10.7115 9.1863 10.4584 8.99614 10.4196 8.72274C10.3808 8.44934 10.571 8.19623 10.8444 8.15741C11.2583 8.09863 11.6567 7.91045 11.9755 7.59161L13.3897 6.1774C14.1708 5.39635 14.1708 4.13002 13.3897 3.34897C12.6087 2.56792 11.3423 2.56792 10.5613 3.34897L9.14706 4.76318C8.82822 5.08202 8.64004 5.48038 8.58126 5.89431C8.54244 6.16771 8.28934 6.35787 8.01594 6.31905C7.74254 6.28023 7.55237 6.02712 7.59119 5.75372Z" fill="black"/>
<path d="M1.81667 14.8355C0.645095 13.6639 0.645095 11.7644 1.81667 10.5928L3.23088 9.1786C3.70803 8.70145 4.30726 8.41814 4.92817 8.32989C5.20156 8.29104 5.45469 8.48117 5.49354 8.75457C5.5324 9.02796 5.34227 9.28109 5.06887 9.31994C4.65503 9.37876 4.25676 9.56693 3.93799 9.88571L2.52377 11.2999C1.74273 12.081 1.74273 13.3473 2.52377 14.1283C3.30482 14.9094 4.57115 14.9094 5.3522 14.1283L6.76642 12.7141C7.08519 12.3954 7.27336 11.9971 7.33218 11.5833C7.37103 11.3099 7.62416 11.1197 7.89756 11.1586C8.17095 11.1974 8.36109 11.4506 8.32223 11.724C8.23399 12.3449 7.95067 12.9441 7.47352 13.4212L6.05931 14.8355C4.88774 16.007 2.98824 16.007 1.81667 14.8355Z" fill="black"/>
<path d="M5.52507 10.4846C5.3298 10.6799 5.3298 10.9964 5.52507 11.1917C5.72033 11.387 6.03691 11.387 6.23217 11.1917L10.4748 6.94907C10.6701 6.75381 10.6701 6.43723 10.4748 6.24196C10.2796 6.0467 9.96297 6.0467 9.76771 6.24196L5.52507 10.4846Z" fill="black"/>
</g>
</svg>
