<svg width="16" height="16" viewBox="0 0 16 16" fill="none" xmlns="http://www.w3.org/2000/svg">
<g opacity="0.9">
<path d="M2.5 2C1.11929 2 0 3.11929 0 4.5V11.5C0 12.8807 1.11929 14 2.5 14H9.33753C9.12111 13.5448 9 13.0356 9 12.498C9 10.6199 10.4785 9.0871 12.3351 9H9C8.44772 9 8 8.55228 8 8V5C8 4.44772 8.44772 4 9 4H13C13.5523 4 14 4.44772 14 5V8C14 8.55228 13.5523 9 13 9H12.6688C14.3394 9.07838 15.7039 10.3273 15.9605 11.9451C15.9865 11.8007 16 11.6519 16 11.5V4.5C16 3.11929 14.8807 2 13.5 2H2.5Z" fill="black"/>
<path d="M5 15.5C5 15.2239 5.22386 15 5.5 15H9.5C9.77614 15 10 15.2239 10 15.5C10 15.7761 9.77614 16 9.5 16H5.5C5.22386 16 5 15.7761 5 15.5Z" fill="black"/>
<path d="M13.0179 14.4321C12.3507 14.6103 11.6092 14.4377 11.0858 13.9142C10.5623 13.3908 10.3897 12.6493 10.5679 11.9821L11.7929 13.2071L13.2071 11.7929L11.9821 10.5679C12.6493 10.3897 13.3908 10.5623 13.9142 11.0858C14.4377 11.6092 14.6103 12.3507 14.4321 13.0179L15.1952 13.781C15.5857 14.1715 15.5857 14.8046 15.1952 15.1952C14.8046 15.5857 14.1715 15.5857 13.781 15.1952L13.0179 14.4321Z" fill="black"/>
</g>
</svg>
