<svg width="32" height="32" viewBox="0 0 32 32" fill="none" xmlns="http://www.w3.org/2000/svg">
<g opacity="0.9">
<path fill-rule="evenodd" clip-rule="evenodd" d="M10.5 27.5C10.5 27.2239 10.7239 27 11 27H20.5C20.7761 27 21 27.2239 21 27.5C21 27.7761 20.7761 28 20.5 28H11C10.7239 28 10.5 27.7761 10.5 27.5Z" fill="black"/>
<path fill-rule="evenodd" clip-rule="evenodd" d="M6.5 7C5.11929 7 4 8.11929 4 9.5V22.5C4 23.8807 5.11929 25 6.5 25H20.207C20.0722 24.5232 20 24.02 20 23.5C20 20.4624 22.4624 18 25.5 18C26.4002 18 27.2499 18.2163 28 18.5997V9.5C28 8.11929 26.8807 7 25.5 7H6.5ZM17 9C16.4477 9 16 9.44772 16 10V16C16 16.5523 16.4477 17 17 17H25C25.5523 17 26 16.5523 26 16V10C26 9.44772 25.5523 9 25 9H17Z" fill="black"/>
<path d="M22.6744 26.3448C23.7238 27.3942 25.2102 27.7403 26.5479 27.3831L28.0776 28.9128C28.8605 29.6957 30.1299 29.6957 30.9128 28.9128C31.6957 28.1299 31.6957 26.8605 30.9128 26.0776L29.3831 24.5479C29.7403 23.2102 29.3942 21.7238 28.3448 20.6744C27.2954 19.625 25.8089 19.2789 24.4713 19.6361L26.9272 22.092L26.5 24.5L24.092 24.9272L21.6361 22.4713C21.2789 23.8089 21.625 25.2954 22.6744 26.3448Z" fill="black"/>
</g>
</svg>
