<svg width="24" height="24" viewBox="0 0 24 24" fill="none" xmlns="http://www.w3.org/2000/svg">
<g opacity="0.9">
<path fill-rule="evenodd" clip-rule="evenodd" d="M7.5 20.5C7.5 20.2239 7.72386 20 8 20H12C12.2761 20 12.5 20.2239 12.5 20.5C12.5 20.7761 12.2761 21 12 21H8C7.72386 21 7.5 20.7761 7.5 20.5Z" fill="black"/>
<path fill-rule="evenodd" clip-rule="evenodd" d="M2 6.5C2 5.11929 3.11929 4 4.5 4H19.5C20.8807 4 22 5.11929 22 6.5V13C22 13.2761 21.7761 13.5 21.5 13.5C21.2239 13.5 21 13.2761 21 13V6.5C21 5.67157 20.3284 5 19.5 5H4.5C3.67157 5 3 5.67157 3 6.5V16.5C3 17.3284 3.67157 18 4.5 18H11.5C11.7761 18 12 18.2239 12 18.5C12 18.7761 11.7761 19 11.5 19H4.5C3.11929 19 2 17.8807 2 16.5V6.5Z" fill="black"/>
<path fill-rule="evenodd" clip-rule="evenodd" d="M12 7C12 6.44772 12.4477 6 13 6H19C19.5523 6 20 6.44772 20 7V11C20 11.5523 19.5523 12 19 12H13C12.4477 12 12 11.5523 12 11V7ZM19 7H13V11H19V7Z" fill="black"/>
<path fill-rule="evenodd" clip-rule="evenodd" d="M17.9898 15.0146L19.1953 16.22C19.2891 16.3138 19.3417 16.441 19.3417 16.5736C19.3417 16.7062 19.2891 16.8334 19.1953 16.9271L16.9271 19.1953C16.8334 19.2891 16.7062 19.3417 16.5736 19.3417C16.441 19.3417 16.3138 19.2891 16.22 19.1953L15.0146 17.9898C15.0767 18.5863 15.3364 19.1656 15.7931 19.6223C16.5013 20.3305 17.5045 20.565 18.4093 20.3234C18.5817 20.2773 18.7656 20.3267 18.8919 20.4529L20.1156 21.6767C20.5467 22.1078 21.2456 22.1078 21.6767 21.6767C22.1078 21.2456 22.1078 20.5467 21.6767 20.1156L20.4529 18.8919C20.3267 18.7656 20.2773 18.5817 20.3234 18.4093C20.565 17.5045 20.3305 16.5013 19.6223 15.7931C19.1656 15.3364 18.5863 15.0767 17.9898 15.0146ZM16.748 14.1258C17.9835 13.7959 19.3585 14.1151 20.3294 15.0859C21.2253 15.9819 21.5663 17.222 21.3543 18.379L22.3838 19.4085C23.2054 20.2301 23.2054 21.5622 22.3838 22.3838C21.5622 23.2054 20.2301 23.2054 19.4085 22.3838L18.379 21.3543C17.222 21.5663 15.9819 21.2253 15.0859 20.3294C14.1151 19.3585 13.7959 17.9835 14.1258 16.748C14.1719 16.5754 14.3067 16.4404 14.4792 16.3941C14.6518 16.3478 14.8361 16.3971 14.9624 16.5235L16.5736 18.1346L18.1346 16.5736L16.5235 14.9624C16.3971 14.8361 16.3478 14.6518 16.3941 14.4792C16.4404 14.3067 16.5754 14.1719 16.748 14.1258Z" fill="black"/>
</g>
</svg>
