<svg width="32" height="32" viewBox="0 0 32 32" fill="none" xmlns="http://www.w3.org/2000/svg">
<g opacity="0.9">
<path d="M7.89953 15.5102C8.17004 15.4547 8.43431 15.629 8.4898 15.8995L8.92136 18.0034L9.4971 17.442C9.69129 17.2527 10.001 17.2527 10.1952 17.442L10.771 18.0034L11.2025 15.8995C11.258 15.629 11.5223 15.4547 11.7928 15.5102C12.0633 15.5657 12.2376 15.83 12.1821 16.1005L11.5667 19.1005C11.53 19.2796 11.3984 19.4243 11.2237 19.478C11.0489 19.5316 10.8588 19.4856 10.7279 19.358L9.84615 18.4983L8.96443 19.358C8.83353 19.4856 8.64341 19.5316 8.46864 19.478C8.29387 19.4243 8.16232 19.2796 8.12558 19.1005L7.5102 16.1005C7.45471 15.83 7.62902 15.5657 7.89953 15.5102Z" fill="black"/>
<path d="M14.6436 15.8995C14.5882 15.629 14.3239 15.4547 14.0534 15.5102C13.7829 15.5657 13.6086 15.83 13.664 16.1005L14.2794 19.1005C14.3162 19.2796 14.4477 19.4243 14.6225 19.478C14.7973 19.5316 14.9874 19.4856 15.1183 19.358L16 18.4983L16.8817 19.358C17.0126 19.4856 17.2027 19.5316 17.3775 19.478C17.5523 19.4243 17.6838 19.2796 17.7206 19.1005L18.336 16.1005C18.3914 15.83 18.2171 15.5657 17.9466 15.5102C17.6761 15.4547 17.4118 15.629 17.3564 15.8995L16.9248 18.0034L16.3491 17.442C16.1549 17.2527 15.8451 17.2527 15.651 17.442L15.0752 18.0034L14.6436 15.8995Z" fill="black"/>
<path d="M20.2072 15.5102C20.4777 15.4547 20.742 15.629 20.7975 15.8995L21.229 18.0034L21.8048 17.442C21.999 17.2527 22.3087 17.2527 22.5029 17.442L23.0786 18.0034L23.5102 15.8995C23.5657 15.629 23.83 15.4547 24.1005 15.5102C24.371 15.5657 24.5453 15.83 24.4898 16.1005L23.8744 19.1005C23.8377 19.2796 23.7061 19.4243 23.5314 19.478C23.3566 19.5316 23.1665 19.4856 23.0356 19.358L22.1538 18.4983L21.2721 19.358C21.1412 19.4856 20.9511 19.5316 20.7763 19.478C20.6016 19.4243 20.47 19.2796 20.4333 19.1005L19.8179 16.1005C19.7624 15.83 19.9367 15.5657 20.2072 15.5102Z" fill="black"/>
<path fill-rule="evenodd" clip-rule="evenodd" d="M28 25C28 25.5523 27.5523 26 27 26H5C4.44772 26 4 25.5523 4 25V7C4 6.96548 4.00175 6.93137 4.00516 6.89776C4.05637 6.3935 4.48223 6 5 6H27C27.5523 6 28 6.44772 28 7V25ZM5 25V10H27V25H5ZM6 7C5.44772 7 5 7.44772 5 8C5 8.55228 5.44772 9 6 9C6.55228 9 7 8.55228 7 8C7 7.44772 6.55228 7 6 7ZM9 7C8.44772 7 8 7.44772 8 8C8 8.55228 8.44772 9 9 9C9.55228 9 10 8.55228 10 8C10 7.44772 9.55228 7 9 7ZM11 8C11 7.44772 11.4477 7 12 7C12.5523 7 13 7.44772 13 8C13 8.55228 12.5523 9 12 9C11.4477 9 11 8.55228 11 8Z" fill="black"/>
</g>
</svg>
