<svg width="24" height="24" viewBox="0 0 24 24" fill="none" xmlns="http://www.w3.org/2000/svg">
<g opacity="0.9">
<path d="M1.80003 11.1L3.01242 12.0093C3.26777 6.99066 7.41783 3 12.5 3C17.7467 3 22 7.25329 22 12.5C22 17.7467 17.7467 22 12.5 22C12.2238 22 12 21.7761 12 21.5C12 21.2239 12.2238 21 12.5 21C17.1944 21 21 17.1944 21 12.5C21 7.80558 17.1944 4 12.5 4C7.97721 4 4.27947 7.53235 4.01509 11.9887L5.20003 11.1C5.42094 10.9343 5.73434 10.9791 5.90003 11.2C6.06571 11.4209 6.02094 11.7343 5.80003 11.9L3.80003 13.4C3.62225 13.5334 3.37781 13.5334 3.20003 13.4L1.20003 11.9C0.979116 11.7343 0.934344 11.4209 1.10003 11.2C1.26571 10.9791 1.57912 10.9343 1.80003 11.1Z" fill="black"/>
<path d="M13 7.5C13 7.22386 12.7762 7 12.5 7C12.2239 7 12 7.22386 12 7.5V12.5C12 12.6672 12.0836 12.8233 12.2227 12.916L15.2227 14.916C15.4524 15.0692 15.7629 15.0071 15.9161 14.7773C16.0692 14.5476 16.0071 14.2372 15.7774 14.084L13 12.2324V7.5Z" fill="black"/>
</g>
</svg>
