<svg width="32" height="32" viewBox="0 0 32 32" fill="none" xmlns="http://www.w3.org/2000/svg">
<g opacity="0.9">
<path d="M3.25732 15.0713L5.00614 16.1206C5.20631 9.94495 10.2757 5 16.5 5C22.8513 5 28 10.1487 28 16.5C28 22.8513 22.8513 28 16.5 28C16.2239 28 16 27.7761 16 27.5C16 27.2239 16.2239 27 16.5 27C22.299 27 27 22.299 27 16.5C27 10.701 22.299 6 16.5 6C10.8306 6 6.21071 10.4932 6.00701 16.1128L7.74283 15.0713C7.97962 14.9293 8.28675 15.006 8.42882 15.2428C8.5709 15.4796 8.49411 15.7867 8.25732 15.9288L5.75732 17.4288C5.59898 17.5238 5.40117 17.5238 5.24283 17.4288L2.74283 15.9288C2.50604 15.7867 2.42926 15.4796 2.57133 15.2428C2.7134 15.006 3.02053 14.9293 3.25732 15.0713Z" fill="black"/>
<path d="M17.0001 9.5C17.0001 9.22386 16.7762 9 16.5001 9C16.2239 9 16.0001 9.22386 16.0001 9.5V16.5C16.0001 16.6574 16.0742 16.8056 16.2001 16.9L20.2001 19.9C20.421 20.0657 20.7344 20.0209 20.9001 19.8C21.0657 19.5791 21.021 19.2657 20.8001 19.1L17.0001 16.25V9.5Z" fill="black"/>
</g>
</svg>
