<svg width="24" height="24" viewBox="0 0 24 24" fill="none" xmlns="http://www.w3.org/2000/svg">
<g opacity="0.9">
<path d="M8 5H5V8H8V5Z" fill="black"/>
<path fill-rule="evenodd" clip-rule="evenodd" d="M11 2H2V11H11V2ZM3 10V3H10V10H3Z" fill="black"/>
<path d="M8 16H5V19H8V16Z" fill="black"/>
<path fill-rule="evenodd" clip-rule="evenodd" d="M2 13H11V22H2V13ZM3 14V21H10V14H3Z" fill="black"/>
<path d="M19 5H16V8H19V5Z" fill="black"/>
<path fill-rule="evenodd" clip-rule="evenodd" d="M13 2H22V11H13V2ZM14 3V10H21V3H14Z" fill="black"/>
<path d="M13 13H17V16H19V18H15V16H14V19H13V13Z" fill="black"/>
<path d="M19 16V15H20V16H19Z" fill="black"/>
<path d="M14 20H13V22H14V20Z" fill="black"/>
<path d="M15 19H16V20H15V19Z" fill="black"/>
<path d="M17 20V22H16V20H17Z" fill="black"/>
<path d="M17 20V19H19V20H17Z" fill="black"/>
<path d="M20 17H21V18H20V17Z" fill="black"/>
<path d="M21 15H22V16H21V15Z" fill="black"/>
<path d="M20 13V14H22V13H20Z" fill="black"/>
<path d="M20 22V21H18V22H20Z" fill="black"/>
<path d="M21 19H22V22H21V19Z" fill="black"/>
<path d="M19 13H18V14H19V13Z" fill="black"/>
</g>
</svg>
