<svg width="16" height="16" viewBox="0 0 16 16" fill="none" xmlns="http://www.w3.org/2000/svg">
<g opacity="0.9">
<path fill-rule="evenodd" clip-rule="evenodd" d="M4 2C2.89543 2 2 2.89543 2 4V5C2 6.10457 2.89543 7 4 7H5C6.10457 7 7 6.10457 7 5V4C7 2.89543 6.10457 2 5 2H4ZM5 3H4C3.44772 3 3 3.44772 3 4V5C3 5.55228 3.44772 6 4 6H5C5.55228 6 6 5.55228 6 5V4C6 3.44772 5.55228 3 5 3Z" fill="black"/>
<path fill-rule="evenodd" clip-rule="evenodd" d="M11 9C9.89543 9 9 9.89543 9 11V12C9 13.1046 9.89543 14 11 14H12C13.1046 14 14 13.1046 14 12V11C14 9.89543 13.1046 9 12 9H11ZM12 10H11C10.4477 10 10 10.4477 10 11V12C10 12.5523 10.4477 13 11 13H12C12.5523 13 13 12.5523 13 12V11C13 10.4477 12.5523 10 12 10Z" fill="black"/>
<path d="M12.8536 3.85355C13.0488 3.65829 13.0488 3.34171 12.8536 3.14645C12.6583 2.95118 12.3417 2.95118 12.1464 3.14645L3.14645 12.1464C2.95118 12.3417 2.95118 12.6583 3.14645 12.8536C3.34171 13.0488 3.65829 13.0488 3.85355 12.8536L12.8536 3.85355Z" fill="black"/>
</g>
</svg>
