<svg width="24" height="24" viewBox="0 0 24 24" fill="none" xmlns="http://www.w3.org/2000/svg">
<g opacity="0.9">
<g opacity="0.9">
<path fill-rule="evenodd" clip-rule="evenodd" d="M7 4C5.34315 4 4 5.34315 4 7V8C4 9.65685 5.34315 11 7 11H8C9.65685 11 11 9.65685 11 8V7C11 5.34315 9.65685 4 8 4H7ZM8 5H7C5.89543 5 5 5.89543 5 7V8C5 9.10457 5.89543 10 7 10H8C9.10457 10 10 9.10457 10 8V7C10 5.89543 9.10457 5 8 5Z" fill="black"/>
<path fill-rule="evenodd" clip-rule="evenodd" d="M16 13C14.3431 13 13 14.3431 13 16V17C13 18.6569 14.3431 20 16 20H17C18.6569 20 20 18.6569 20 17V16C20 14.3431 18.6569 13 17 13H16ZM17 14H16C14.8954 14 14 14.8954 14 16V17C14 18.1046 14.8954 19 16 19H17C18.1046 19 19 18.1046 19 17V16C19 14.8954 18.1046 14 17 14Z" fill="black"/>
<path d="M19.3536 5.35355C19.5488 5.15829 19.5488 4.84171 19.3536 4.64645C19.1583 4.45118 18.8417 4.45118 18.6464 4.64645L4.64645 18.6464C4.45118 18.8417 4.45118 19.1583 4.64645 19.3536C4.84171 19.5488 5.15829 19.5488 5.35355 19.3536L19.3536 5.35355Z" fill="black"/>
</g>
</g>
</svg>
