<svg width="24" height="24" viewBox="0 0 24 24" fill="none" xmlns="http://www.w3.org/2000/svg">
<path opacity="0.9" fill-rule="evenodd" clip-rule="evenodd" d="M4.5 5C3.11929 5 2 6.11929 2 7.5V12.5C2 13.8807 3.11929 15 4.5 15H11V19.5C11 19.6922 11.1102 19.8674 11.2834 19.9507C11.4566 20.0339 11.6623 20.0105 11.8123 19.8904L13.8294 18.2768L15.5528 21.7236C15.6763 21.9706 15.9766 22.0707 16.2236 21.9472C16.4706 21.8237 16.5707 21.5234 16.4472 21.2764L14.809 18H17.5C17.7062 18 17.8912 17.8734 17.966 17.6813C18.0407 17.4891 17.9899 17.2708 17.8379 17.1314L15.5127 15H19.5C20.8807 15 22 13.8807 22 12.5V7.5C22 6.11929 20.8807 5 19.5 5H4.5ZM12 18.4597V13.1367L16.2146 17L14 17.0001C13.8865 17.0001 13.7763 17.0387 13.6877 17.1097L12 18.4597Z" fill="black"/>
</svg>
