<svg width="24" height="24" viewBox="0 0 24 24" fill="none" xmlns="http://www.w3.org/2000/svg">
<g opacity="0.9">
<path fill-rule="evenodd" clip-rule="evenodd" d="M13.6688 3.0294C13.8675 3.10066 14 3.28898 14 3.50003V8.00963C17.4185 8.14226 19.9067 9.63814 21.5433 11.8877C23.2438 14.2252 24 17.3388 24 20.5001C24 20.7513 23.8135 20.9636 23.5643 20.9959C23.3151 21.0282 23.0807 20.8706 23.0165 20.6276C22.5998 19.0482 21.4474 17.8983 19.7662 17.1324C18.1956 16.4169 16.1924 16.053 14 16.0054V20.5001C14 20.7111 13.8675 20.8994 13.6688 20.9707C13.4702 21.042 13.2482 20.9808 13.114 20.8179L6.11403 12.3179C5.96199 12.1333 5.96199 11.8668 6.11403 11.6822L13.114 3.18217C13.2482 3.01926 13.4702 2.95813 13.6688 3.0294ZM7.14773 12.0001L13 19.1064V15.5C13 15.2239 13.2239 15 13.5 15C15.9727 15 18.3176 15.3736 20.1807 16.2224C21.2452 16.7073 22.1628 17.3532 22.8509 18.1786C22.567 16.0283 21.8737 14.0417 20.7346 12.476C19.2092 10.3793 16.8602 9.00003 13.5 9.00003C13.2239 9.00003 13 8.77617 13 8.50003V4.8937L7.14773 12.0001Z" fill="black"/>
<path fill-rule="evenodd" clip-rule="evenodd" d="M9.66885 3.0294C9.86749 3.10067 10 3.28898 10 3.50003V5.50003C10 5.77617 9.77614 6.00003 9.5 6.00003C9.22386 6.00003 9 5.77617 9 5.50003V4.89369L3.14773 12L9 19.1064V18.5C9 18.2239 9.22386 18 9.5 18C9.77614 18 10 18.2239 10 18.5V20.5C10 20.7111 9.86749 20.8994 9.66885 20.9707C9.4702 21.0419 9.2482 20.9808 9.11403 20.8179L2.11403 12.3179C1.96199 12.1333 1.96199 11.8668 2.11403 11.6822L9.11403 3.18217C9.2482 3.01926 9.4702 2.95813 9.66885 3.0294Z" fill="black"/>
</g>
</svg>
