<svg width="32" height="32" viewBox="0 0 32 32" fill="none" xmlns="http://www.w3.org/2000/svg">
<g opacity="0.9">
<path d="M13.9737 5.50002C13.9737 5.29065 13.8432 5.10345 13.6468 5.03096C13.4504 4.95846 13.2296 5.01601 13.0936 5.17518L4.1199 15.6752C3.95988 15.8624 3.96005 16.1383 4.1203 16.3253L13.094 26.799C13.2301 26.9579 13.4508 27.0152 13.6471 26.9427C13.8434 26.8701 13.9737 26.683 13.9737 26.4737V24.5C13.9737 24.2239 13.7498 24 13.4737 24C13.1975 24 12.9737 24.2239 12.9737 24.5V25.1216L5.15807 15.9996L12.9737 6.85466V7.50002C12.9737 7.77617 13.1975 8.00002 13.4737 8.00002C13.7498 8.00002 13.9737 7.77617 13.9737 7.50002V5.50002Z" fill="black"/>
<path fill-rule="evenodd" clip-rule="evenodd" d="M18 5.50002C18 5.29079 17.8697 5.10368 17.6735 5.03108C17.4772 4.95849 17.2565 5.01576 17.1204 5.17463L8.12037 15.6746C7.95988 15.8619 7.95988 16.1382 8.12037 16.3254L17.1204 26.8254C17.2565 26.9843 17.4772 27.0416 17.6735 26.969C17.8697 26.8964 18 26.7093 18 26.5V21.276C20.7696 21.3128 23.2234 21.6617 25.126 22.4633C27.124 23.3051 28.49 24.6323 29.0165 26.6276C29.0807 26.8706 29.3151 27.0282 29.5643 26.9959C29.8135 26.9635 30 26.7513 30 26.5C30 22.6209 29.1618 18.6948 27.1756 15.7222C25.2476 12.8367 22.2532 10.8777 18 10.7356V5.50002ZM17 25.1484L9.15854 16L17 6.85165V11.2273C17 11.5034 17.2239 11.7273 17.5 11.7273C21.6734 11.7273 24.5201 13.5479 26.3441 16.2778C27.7828 18.4309 28.595 21.1678 28.8812 24.0547C28.0561 22.9447 26.8989 22.1251 25.5143 21.5417C23.319 20.6169 20.5292 20.2728 17.5 20.2728C17.2239 20.2728 17 20.4966 17 20.7728V25.1484Z" fill="black"/>
</g>
</svg>
