<svg width="16" height="16" viewBox="0 0 16 16" fill="none" xmlns="http://www.w3.org/2000/svg">
<g clip-path="url(#clip0)">
<g opacity="0.9">
<path fill-rule="evenodd" clip-rule="evenodd" d="M6.87538 0.19327C7.00518 0.0261994 7.22609 -0.0410926 7.42699 0.0252394L13.9067 2.16468C14.0381 2.20806 14.1456 2.30393 14.2037 2.4295C14.2618 2.55506 14.2653 2.69909 14.2133 2.82731C14.0092 3.33084 13.9927 3.71243 14.0641 4.06781C14.1407 4.44852 14.3207 4.82214 14.5724 5.32686C14.6365 5.45524 14.6423 5.60494 14.5884 5.73789C14.3843 6.24143 14.3677 6.62301 14.4392 6.97839C14.5157 7.3591 14.6957 7.73272 14.9475 8.23744C15.0276 8.39801 15.0155 8.58919 14.9158 8.73839L14.6547 9.12929C14.3724 8.94851 14.066 8.8022 13.7413 8.69631L13.9236 8.42339C13.7589 8.0861 13.6037 7.74092 13.5064 7.37802L12.7526 8.50784C12.6691 8.50264 12.5849 8.5 12.5001 8.5C12.1423 8.5 11.7955 8.54697 11.4655 8.63508L13.5487 5.51299C13.3831 5.17409 13.2272 4.82722 13.13 4.46243L9.56237 9.78522C9.36179 10.0022 9.18494 10.2414 9.03595 10.4987C8.90673 10.5828 8.74201 10.6048 8.59028 10.5489L2.06295 8.14513C1.99827 8.33836 1.9844 8.52788 2.0174 8.71568C2.06879 9.00818 2.24421 9.35414 2.63408 9.74012L8.52711 12.0325C8.50925 12.1858 8.50008 12.3419 8.50008 12.5C8.50008 12.7085 8.51603 12.9133 8.54677 13.1131L2.60417 10.8015C2.54171 10.992 2.52866 11.179 2.56121 11.3642C2.6126 11.6567 2.78802 12.0027 3.17789 12.3887L9.17255 14.7206C9.44979 15.1352 9.80247 15.4951 10.2109 15.7806C10.0802 15.9735 9.83331 16.0506 9.61585 15.966L2.72174 13.2842C2.6618 13.2609 2.60692 13.2262 2.56011 13.1821C2.01733 12.6707 1.67857 12.1194 1.57629 11.5373C1.49694 11.0856 1.56668 10.6534 1.74497 10.2555C1.35997 9.82404 1.11648 9.36678 1.03248 8.88872C0.928801 8.29858 1.07966 7.74169 1.39462 7.25103C1.40271 7.23843 1.41136 7.2262 1.42055 7.21437L6.87538 0.19327ZM10.5581 3.45378L8.39699 2.76464C8.19587 2.7005 7.97613 2.7696 7.8479 2.93729L7.44819 3.46002C7.36536 3.56835 7.41285 3.72599 7.54174 3.77054L9.66359 4.50386C9.86789 4.57447 10.0944 4.5058 10.2251 4.33364L10.6567 3.76527C10.7402 3.65527 10.6897 3.49574 10.5581 3.45378Z" fill="black"/>
<path d="M13.0001 10.5C13.0001 10.2239 12.7762 10 12.5001 10C12.2239 10 12.0001 10.2239 12.0001 10.5V12H10.5001C10.2239 12 10.0001 12.2239 10.0001 12.5C10.0001 12.7761 10.2239 13 10.5001 13H12.0001V14.5C12.0001 14.7761 12.2239 15 12.5001 15C12.7762 15 13.0001 14.7761 13.0001 14.5V13H14.5001C14.7762 13 15.0001 12.7761 15.0001 12.5C15.0001 12.2239 14.7762 12 14.5001 12H13.0001V10.5Z" fill="black"/>
</g>
</g>
<defs>
<clipPath id="clip0">
<rect width="16" height="16" fill="white"/>
</clipPath>
</defs>
</svg>
