<svg width="24" height="24" viewBox="0 0 24 24" fill="none" xmlns="http://www.w3.org/2000/svg">
<path fill-rule="evenodd" clip-rule="evenodd" d="M12.5768 4.15378C12.172 4.02326 11.7289 4.16309 11.4724 4.50234L10.7697 5.43145C10.4834 5.81009 10.649 6.3579 11.0971 6.5145L14.2674 7.62235C14.6786 7.76602 15.1354 7.62707 15.397 7.2788L16.1469 6.28016C16.4356 5.89563 16.2596 5.34116 15.8019 5.1936L12.5768 4.15378ZM12.27 5.10553L15.0945 6.01622L14.5973 6.67833L11.8156 5.70629L12.27 5.10553Z" fill="black"/>
<path fill-rule="evenodd" clip-rule="evenodd" d="M11.1478 1.02576C10.9457 0.958263 10.7229 1.02636 10.593 1.19539L3.04019 11.0249C3.0311 11.0368 3.02254 11.049 3.01455 11.0616C2.60045 11.7138 2.40867 12.442 2.54188 13.2087C2.65633 13.8673 3.00253 14.5079 3.56993 15.1211C3.29593 15.6796 3.1851 16.285 3.29485 16.9166C3.42674 17.6757 3.8664 18.4107 4.59769 19.1075C4.64447 19.1521 4.69945 19.1872 4.75958 19.2108L14.3053 22.9653C14.525 23.0518 14.7753 22.9727 14.9054 22.7757L15.4826 21.9022C15.6348 21.6718 15.5715 21.3616 15.3411 21.2094C15.1107 21.0572 14.8005 21.1205 14.6483 21.3509L14.2944 21.8865L5.21867 18.3168C4.63935 17.7456 4.3618 17.2157 4.28009 16.7454C4.21741 16.3847 4.26392 16.0251 4.41965 15.6653L13.5523 19.2574C13.7722 19.3438 14.0225 19.2646 14.1526 19.0674L19.7166 10.6358C19.7254 10.6925 19.7355 10.749 19.7467 10.8053C19.871 11.4303 20.1365 12.0172 20.425 12.6083L19.2184 14.4344C19.0661 14.6648 19.1295 14.975 19.3599 15.1272C19.5903 15.2794 19.9005 15.2161 20.0527 14.9857L21.4172 12.9205C21.5152 12.7722 21.5271 12.5831 21.4485 12.4237C21.1022 11.7218 20.8397 11.1744 20.7275 10.6102C20.6202 10.0708 20.6483 9.49579 20.9448 8.75612C20.9977 8.62429 20.992 8.47621 20.9292 8.34884C20.5829 7.64698 20.3203 7.09962 20.2081 6.53539C20.1009 5.99602 20.129 5.42097 20.4255 4.68131C20.4768 4.55346 20.473 4.41014 20.4152 4.28515C20.3573 4.16017 20.2504 4.06459 20.1198 4.02097L11.1478 1.02576ZM13.5412 18.1784L4.46571 14.6088C3.88639 14.0376 3.60883 13.5077 3.52712 13.0375C3.46401 12.6743 3.5116 12.3122 3.66989 11.95L12.8821 15.3801C13.0999 15.4612 13.3449 15.3816 13.4733 15.1878L19.1963 6.55447C19.2053 6.61335 19.2157 6.67199 19.2273 6.73043C19.3517 7.35554 19.6172 7.94254 19.9057 8.53365L13.5412 18.1784ZM12.8591 14.3045L4.2457 11.0973L11.169 2.08708L19.1841 4.76288L12.8591 14.3045Z" fill="black"/>
<path d="M19.5001 17C19.7762 17 20.0001 17.2239 20.0001 17.5V19H21.5001C21.7762 19 22.0001 19.2239 22.0001 19.5C22.0001 19.7761 21.7762 20 21.5001 20H20.0001V21.5C20.0001 21.7761 19.7762 22 19.5001 22C19.2239 22 19.0001 21.7761 19.0001 21.5V20H17.5001C17.2239 20 17.0001 19.7761 17.0001 19.5C17.0001 19.2239 17.2239 19 17.5001 19H19.0001V17.5C19.0001 17.2239 19.2239 17 19.5001 17Z" fill="black"/>
</svg>
