<svg width="16" height="16" viewBox="0 0 16 16" fill="none" xmlns="http://www.w3.org/2000/svg">
<g opacity="0.9">
<path fill-rule="evenodd" clip-rule="evenodd" d="M1 4C1 2.89543 1.89543 2 3 2H13C14.1046 2 15 2.89543 15 4V9.37731C14.3152 8.82836 13.4459 8.5 12.5 8.5C11.4604 8.5 10.5135 8.89656 9.80222 9.54666L9.56534 8.81763C9.4984 8.61162 9.57173 8.38593 9.74698 8.25861L10.5593 7.66844C10.9511 7.38374 10.7497 6.76393 10.2654 6.76393H9.26133C9.04471 6.76393 8.85274 6.62445 8.7858 6.41844L8.47553 5.46353C8.32585 5.00287 7.67415 5.00287 7.52447 5.46352L7.2142 6.41844C7.14726 6.62445 6.95529 6.76393 6.73867 6.76393H5.73462C5.25025 6.76393 5.04887 7.38374 5.44072 7.66844L6.25302 8.25861C6.42827 8.38593 6.5016 8.61162 6.43466 8.81763L6.12439 9.77254C5.97471 10.2332 6.50195 10.6163 6.89381 10.3316L7.70611 9.74139C7.88135 9.61407 8.11865 9.61407 8.29389 9.74139L9.10619 10.3316C9.11353 10.3369 9.12092 10.342 9.12836 10.3469C8.73059 10.9684 8.5 11.7073 8.5 12.5C8.5 13.0304 8.60325 13.5368 8.79076 14H3C1.89543 14 1 13.1046 1 12V4Z" fill="black"/>
<path fill-rule="evenodd" clip-rule="evenodd" d="M13 10.5C13 10.2239 12.7761 10 12.5 10C12.2239 10 12 10.2239 12 10.5V12H10.5C10.2239 12 10 12.2239 10 12.5C10 12.7761 10.2239 13 10.5 13H12V14.5C12 14.7761 12.2239 15 12.5 15C12.7761 15 13 14.7761 13 14.5V13H14.5C14.7761 13 15 12.7761 15 12.5C15 12.2239 14.7761 12 14.5 12H13V10.5Z" fill="black"/>
</g>
</svg>
