<svg width="32" height="32" viewBox="0 0 32 32" fill="none" xmlns="http://www.w3.org/2000/svg">
<g opacity="0.9">
<path d="M6.5 7C5.11929 7 4 8.11929 4 9.5V23.5C4 24.8807 5.11929 26 6.5 26H18.4211C18.6972 26 18.9211 25.7761 18.9211 25.5C18.9211 25.2239 18.6972 25 18.4211 25H6.5C5.67157 25 5 24.3284 5 23.5V9.5C5 8.67157 5.67157 8 6.5 8H25.5C26.3284 8 27 8.67157 27 9.5V19.5C27 19.7761 27.2239 20 27.5 20C27.7761 20 28 19.7761 28 19.5V9.5C28 8.11929 26.8807 7 25.5 7H6.5Z" fill="black"/>
<path fill-rule="evenodd" clip-rule="evenodd" d="M15.5245 11.4635C15.6742 11.0029 16.3259 11.0029 16.4755 11.4635L17.4593 14.4914C17.5263 14.6974 17.7183 14.8369 17.9349 14.8369H21.1186C21.6029 14.8369 21.8043 15.4567 21.4125 15.7414L18.8368 17.6127C18.6616 17.74 18.5882 17.9657 18.6552 18.1717L19.639 21.1996C19.7887 21.6603 19.2614 22.0433 18.8696 21.7586L16.2939 19.8873C16.1187 19.76 15.8814 19.76 15.7061 19.8873L13.1305 21.7586C12.7386 22.0433 12.2114 21.6603 12.361 21.1996L13.3449 18.1717C13.4118 17.9657 13.3385 17.74 13.1632 17.6127L10.5876 15.7414C10.1957 15.4567 10.3971 14.8369 10.8815 14.8369H14.0651C14.2817 14.8369 14.4737 14.6974 14.5407 14.4914L15.5245 11.4635ZM15.4917 14.8004L16 13.2361L16.5083 14.8004C16.7091 15.4184 17.285 15.8369 17.9349 15.8369H19.5797L18.249 16.8037C17.7233 17.1857 17.5033 17.8627 17.7041 18.4808L18.2124 20.0451L16.8817 19.0783C16.356 18.6963 15.6441 18.6963 15.1183 19.0783L13.7876 20.0451L14.2959 18.4808C14.4967 17.8627 14.2767 17.1857 13.751 16.8037L12.4203 15.8369H14.0651C14.715 15.8369 15.2909 15.4184 15.4917 14.8004Z" fill="black"/>
<path d="M26 22.5C26 22.2239 25.7761 22 25.5 22C25.2239 22 25 22.2239 25 22.5V25H22.5C22.2239 25 22 25.2239 22 25.5C22 25.7761 22.2239 26 22.5 26H25V28.5C25 28.7761 25.2239 29 25.5 29C25.7761 29 26 28.7761 26 28.5V26H28.5C28.7761 26 29 25.7761 29 25.5C29 25.2239 28.7761 25 28.5 25H26V22.5Z" fill="black"/>
</g>
</svg>
