<svg width="25" height="24" viewBox="0 0 25 24" fill="none" xmlns="http://www.w3.org/2000/svg">
<g opacity="0.9">
<path d="M7.38589 6.72227C7.18909 6.52856 6.87251 6.53107 6.67881 6.72788C6.4851 6.92468 6.48761 7.24126 6.68442 7.43496L16.6844 17.2775C16.8812 17.4712 17.1978 17.4687 17.3915 17.2719C17.5852 17.0751 17.5827 16.7585 17.3859 16.5648L7.38589 6.72227Z" fill="black"/>
<path fill-rule="evenodd" clip-rule="evenodd" d="M2.03516 12C2.03516 6.47715 6.51231 2 12.0352 2C17.558 2 22.0352 6.47715 22.0352 12C22.0352 17.5228 17.558 22 12.0352 22C6.51231 22 2.03516 17.5228 2.03516 12ZM19.8957 11.6536C20.0813 11.847 20.081 12.1533 19.8954 12.3467L19.8945 12.3477L19.8918 12.3504L19.8828 12.3597L19.8502 12.3927C19.8221 12.4208 19.7814 12.4609 19.7287 12.5115C19.6232 12.6125 19.4696 12.755 19.2728 12.9251C18.8796 13.265 18.3117 13.7175 17.6094 14.1702C17.3708 14.324 17.1155 14.4787 16.8451 14.6294L18.0874 15.8521C18.6778 16.4332 18.6853 17.3829 18.1042 17.9733C17.5231 18.5638 16.5734 18.5713 15.9829 17.9902L13.772 15.814C13.2149 15.9316 12.6337 16 12.0352 16C9.82823 16 7.85732 15.0705 6.46093 14.1702C5.75862 13.7175 5.19069 13.265 4.79753 12.9251C4.60072 12.755 4.44708 12.6125 4.34165 12.5115C4.28892 12.4609 4.2482 12.4208 4.22012 12.3927L4.18753 12.3597L4.17849 12.3504L4.1758 12.3477L4.17435 12.3462C3.98875 12.1527 3.98933 11.8467 4.17492 11.6533L4.1758 11.6523L4.17849 11.6496L4.18753 11.6403L4.22012 11.6073C4.2482 11.5792 4.28892 11.5391 4.34165 11.4885C4.44708 11.3875 4.60072 11.245 4.79753 11.0749C5.19069 10.735 5.75862 10.2825 6.46093 9.82976C6.69953 9.67594 6.9549 9.52126 7.22536 9.37051L5.98295 8.14766C5.39253 7.56654 5.38499 6.61682 5.96611 6.0264C6.54723 5.43599 7.49695 5.42845 8.08737 6.00957L10.2986 8.18594C10.8556 8.06835 11.4367 8 12.0352 8C14.2421 8 16.213 8.92951 17.6094 9.82976C18.3117 10.2825 18.8796 10.735 19.2728 11.0749C19.4696 11.245 19.6232 11.3875 19.7287 11.4885C19.7814 11.5391 19.8221 11.5792 19.8502 11.6073L19.8828 11.6403L19.8918 11.6496L19.8945 11.6523L19.8957 11.6536Z" fill="black"/>
</g>
</svg>
