<svg width="33" height="32" viewBox="0 0 33 32" fill="none" xmlns="http://www.w3.org/2000/svg">
<g opacity="0.9">
<path d="M12.1706 14.9639C12.0823 15.2944 12.0352 15.6417 12.0352 16C12.0352 18.2091 13.826 20 16.0352 20C16.3935 20 16.7408 19.9529 17.0712 19.8645L12.1706 14.9639Z" fill="black"/>
<path d="M14.9991 12.1355C15.3295 12.0471 15.6768 12 16.0352 12C18.2443 12 20.0352 13.7909 20.0352 16C20.0352 16.3583 19.988 16.7056 19.8997 17.0361L14.9991 12.1355Z" fill="black"/>
<path d="M10.7423 9.29289C10.3517 8.90237 9.71857 8.90237 9.32805 9.29289C8.93753 9.68342 8.93753 10.3166 9.32805 10.7071L21.328 22.7071C21.7186 23.0976 22.3517 23.0976 22.7423 22.7071C23.1328 22.3166 23.1328 21.6834 22.7423 21.2929L10.7423 9.29289Z" fill="black"/>
<path fill-rule="evenodd" clip-rule="evenodd" d="M16.0352 4C9.40774 4 4.03516 9.37258 4.03516 16C4.03516 22.6274 9.40774 28 16.0352 28C22.6626 28 28.0352 22.6274 28.0352 16C28.0352 9.37258 22.6626 4 16.0352 4ZM11.4494 8.58579C10.6683 7.80474 9.40199 7.80474 8.62094 8.58579C7.83989 9.36684 7.83989 10.6332 8.62094 11.4142L9.97133 12.7646C9.64398 12.9508 9.33419 13.1416 9.04386 13.3316C8.16056 13.9096 7.44621 14.4873 6.95191 14.9211C6.70453 15.1382 6.51164 15.3198 6.3796 15.4482C6.31357 15.5124 6.26271 15.5633 6.22782 15.5988C6.21037 15.6165 6.19691 15.6304 6.18754 15.6401L6.17656 15.6515L6.17339 15.6549L6.17239 15.6559C5.99022 15.8486 5.98962 16.1507 6.17178 16.3435L6.17339 16.3451L6.17656 16.3485L6.18754 16.3599C6.19691 16.3696 6.21037 16.3835 6.22782 16.4012C6.26271 16.4367 6.31357 16.4876 6.3796 16.5518C6.51164 16.6802 6.70453 16.8618 6.95191 17.0789C7.44621 17.5127 8.16056 18.0904 9.04386 18.6684C10.802 19.8189 13.2739 21 16.0352 21C16.7133 21 17.374 20.9288 18.011 20.8042L20.6209 23.4142C21.402 24.1953 22.6683 24.1953 23.4494 23.4142C24.2304 22.6332 24.2304 21.3668 23.4494 20.5858L22.099 19.2354C22.4263 19.0492 22.7361 18.8584 23.0265 18.6684C23.9098 18.0904 24.6241 17.5127 25.1184 17.0789C25.3658 16.8618 25.5587 16.6802 25.6907 16.5518C25.7567 16.4876 25.8076 16.4367 25.8425 16.4012C25.8599 16.3835 25.8734 16.3696 25.8828 16.3599L25.8938 16.3485L25.8969 16.3451L25.8979 16.3441C26.0801 16.1514 26.0804 15.849 25.8983 15.6563L25.8969 15.6549L25.8938 15.6515L25.8828 15.6401L25.8686 15.6255L25.8425 15.5988C25.8076 15.5633 25.7567 15.5124 25.6907 15.4482C25.5587 15.3198 25.3658 15.1382 25.1184 14.9211C24.6241 14.4873 23.9098 13.9096 23.0265 13.3316C21.2683 12.1811 18.7964 11 16.0352 11C15.357 11 14.6963 11.0712 14.0594 11.1958L11.4494 8.58579Z" fill="black"/>
</g>
</svg>
