<svg width="16" height="16" viewBox="0 0 16 16" fill="none" xmlns="http://www.w3.org/2000/svg">
<g opacity="0.9">
<path d="M4.81802 4.1108C4.62275 3.91554 4.30617 3.91554 4.11091 4.1108C3.91565 4.30606 3.91565 4.62265 4.11091 4.81791L11.182 11.889C11.3772 12.0842 11.6938 12.0842 11.8891 11.889C12.0843 11.6937 12.0843 11.3771 11.8891 11.1819L4.81802 4.1108Z" fill="black"/>
<path fill-rule="evenodd" clip-rule="evenodd" d="M1 8C1 4.13401 4.13401 1 8 1C11.866 1 15 4.13401 15 8C15 11.866 11.866 15 8 15C4.13401 15 1 11.866 1 8ZM13.372 8.3341C13.542 8.14424 13.5423 7.85607 13.3723 7.66621L13.3713 7.66511L13.3692 7.66285L13.3627 7.65565L13.3399 7.63098C13.3204 7.61011 13.2925 7.58059 13.2565 7.54365C13.1846 7.46981 13.0802 7.36613 12.9469 7.24257C12.6806 6.9959 12.2959 6.66752 11.8197 6.3386C10.8769 5.68735 9.52622 5 7.99999 5C7.72217 5 7.45017 5.02278 7.18539 5.06396L5.52512 3.4037C4.93934 2.81791 3.98959 2.81791 3.4038 3.4037C2.81802 3.98948 2.81802 4.93923 3.4038 5.52502L4.20226 6.32347L4.18029 6.3386C3.70412 6.66752 3.31942 6.9959 3.05313 7.24257C2.91974 7.36613 2.8154 7.46981 2.74345 7.54365C2.70747 7.58059 2.67954 7.61011 2.66008 7.63098L2.63729 7.65565L2.63075 7.66285L2.62871 7.66511L2.628 7.6659C2.45799 7.85576 2.45749 8.14368 2.6275 8.33354L2.62871 8.33489L2.63075 8.33715L2.63729 8.34435L2.66008 8.36902C2.67954 8.38989 2.70747 8.41941 2.74345 8.45635C2.8154 8.53019 2.91974 8.63387 3.05313 8.75743C3.31942 9.0041 3.70412 9.33248 4.18029 9.6614C5.12311 10.3126 6.47377 11 7.99999 11C8.27788 11 8.54995 10.9772 8.81479 10.936L10.4749 12.5961C11.0607 13.1819 12.0104 13.1819 12.5962 12.5961C13.182 12.0103 13.182 11.0605 12.5962 10.4748L11.7979 9.67643L11.8197 9.6614C12.2959 9.33248 12.6806 9.0041 12.9469 8.75743C13.0802 8.63387 13.1846 8.53019 13.2565 8.45635C13.2925 8.41941 13.3204 8.38989 13.3399 8.36902L13.3627 8.34435L13.3692 8.33715L13.3713 8.33489L13.372 8.3341Z" fill="black"/>
</g>
</svg>
