<svg width="16" height="16" viewBox="0 0 16 16" fill="none" xmlns="http://www.w3.org/2000/svg">
<g opacity="0.9">
<path d="M4.14645 4.14652C4.34171 3.95126 4.65829 3.95126 4.85355 4.14652L11.8536 11.1465C12.0488 11.3418 12.0488 11.6584 11.8536 11.8536C11.6583 12.0489 11.3417 12.0489 11.1464 11.8536L4.14645 4.85363C3.95118 4.65837 3.95118 4.34178 4.14645 4.14652Z" fill="black"/>
<path d="M7.5 5.5C7.5 5.22386 7.72386 5 8 5C9.52623 5 10.8769 5.68735 11.8197 6.3386C12.2959 6.66752 12.6806 6.9959 12.9469 7.24257C13.0802 7.36613 13.1846 7.46981 13.2565 7.54365C13.2925 7.58059 13.3205 7.61011 13.3399 7.63098L13.3627 7.65565L13.3692 7.66285L13.3713 7.66511L13.372 7.6659L13 8L13.3724 8.33364L13.3715 8.33467L13.3698 8.3365L13.3647 8.34221L13.3469 8.36156C13.3317 8.37788 13.3101 8.40093 13.2822 8.42988C13.2264 8.48776 13.1456 8.56936 13.042 8.66804C12.8351 8.86512 12.5357 9.13182 12.1617 9.41425C11.9413 9.58066 11.6278 9.53692 11.4614 9.31655C11.295 9.09619 11.3387 8.78264 11.5591 8.61623C11.8625 8.3871 12.1114 8.16952 12.2929 8L12.2673 7.97618C12.0276 7.7541 11.68 7.45748 11.2514 7.1614C10.3845 6.56265 9.2352 6 8 6C7.72386 6 7.5 5.77614 7.5 5.5Z" fill="black"/>
<path d="M13.3724 8.33364C13.3724 8.33364 13.3725 8.33354 13 8C13.3725 7.66646 13.372 7.6659 13.372 7.6659C13.542 7.85576 13.5424 8.14378 13.3724 8.33364Z" fill="black"/>
<path d="M4.97227 6.40753C5.12641 6.63664 5.06564 6.94734 4.83652 7.10148C4.38242 7.40699 4.01287 7.71858 3.75734 7.95345L3.7071 8L3.73271 8.02382C3.97245 8.2459 4.31998 8.54252 4.74863 8.8386C5.61545 9.43735 6.7648 10 8 10C8.27614 10 8.5 10.2239 8.5 10.5C8.5 10.7761 8.27614 11 8 11C6.47377 11 5.12312 10.3126 4.18029 9.6614C3.70412 9.33248 3.31943 9.0041 3.05314 8.75743C2.91975 8.63387 2.8154 8.53019 2.74346 8.45635C2.70747 8.41941 2.67954 8.38989 2.66009 8.36902L2.6373 8.34435L2.63076 8.33715L2.62872 8.33489L2.62801 8.3341L3 8L2.62762 7.66634L2.62878 7.66505L2.63093 7.66266L2.63786 7.65504L2.66209 7.62883C2.68279 7.60665 2.71254 7.57527 2.75087 7.53606C2.8275 7.45766 2.93865 7.34771 3.08061 7.21722C3.36397 6.95676 3.77312 6.61166 4.27831 6.27178C4.50743 6.11763 4.81812 6.17841 4.97227 6.40753Z" fill="black"/>
<path d="M2.62762 7.66634C2.62762 7.66634 2.62751 7.66646 3 8C2.62751 8.33354 2.62801 8.3341 2.62801 8.3341C2.458 8.14424 2.45761 7.8562 2.62762 7.66634Z" fill="black"/>
<path fill-rule="evenodd" clip-rule="evenodd" d="M8 1C4.13401 1 1 4.13401 1 8C1 11.866 4.13401 15 8 15C11.866 15 15 11.866 15 8C15 4.13401 11.866 1 8 1ZM2 8C2 4.68629 4.68629 2 8 2C11.3137 2 14 4.68629 14 8C14 11.3137 11.3137 14 8 14C4.68629 14 2 11.3137 2 8Z" fill="black"/>
</g>
</svg>
