<svg width="24" height="24" viewBox="0 0 24 24" fill="none" xmlns="http://www.w3.org/2000/svg">
<path opacity="0.9" d="M11 3.50003C11 3.28898 10.8675 3.10066 10.6688 3.0294C10.4702 2.95813 10.2482 3.01926 10.114 3.18217L3.11403 11.6822C2.96199 11.8668 2.96199 12.1333 3.11403 12.3179L10.114 20.8179C10.2482 20.9808 10.4702 21.042 10.6688 20.9707C10.8675 20.8994 11 20.7111 11 20.5001V16.0053C13.2265 16.0526 15.4735 16.4171 17.288 17.1417C19.2489 17.9248 20.6098 19.086 21.0165 20.6276C21.0807 20.8706 21.3151 21.0282 21.5643 20.9959C21.8135 20.9636 22 20.7513 22 20.5001C22 14.2726 18.0766 8.27931 11 8.0095V3.50003Z" fill="black"/>
</svg>
