<svg width="16" height="16" viewBox="0 0 16 16" fill="none" xmlns="http://www.w3.org/2000/svg">
<path opacity="0.9" fill-rule="evenodd" clip-rule="evenodd" d="M7.71685 2.03398C7.90908 2.10869 8.03572 2.29377 8.03572 2.50002V5.01363C10.375 5.14266 12.1003 6.17903 13.2466 7.69896C14.4595 9.30727 15 11.4219 15 13.5C15 13.7496 14.8159 13.961 14.5687 13.9953C14.3214 14.0296 14.0868 13.8762 14.0189 13.6361C13.7546 12.7013 13.0152 12.0441 11.8638 11.6123C10.8231 11.2221 9.49744 11.0388 8.03572 11.0056V13.5C8.03572 13.7063 7.90908 13.8913 7.71685 13.9661C7.52461 14.0408 7.30622 13.9898 7.16695 13.8377L2.13122 8.33767C1.95626 8.14657 1.95626 7.85347 2.13122 7.66237L7.16695 2.16237C7.30622 2.01026 7.52461 1.95927 7.71685 2.03398ZM3.17792 8.00002L7.03572 12.2135V10.5C7.03572 10.2239 7.25958 10 7.53572 10C9.24621 10 10.8946 10.1809 12.2149 10.676C12.8218 10.9036 13.3725 11.2034 13.8278 11.5906C13.6002 10.3657 13.1447 9.22468 12.4482 8.30108C11.4122 6.92735 9.81941 6.00002 7.53572 6.00002C7.25958 6.00002 7.03572 5.77616 7.03572 5.50002V3.78654L3.17792 8.00002Z" fill="black"/>
</svg>
