<svg width="32" height="32" viewBox="0 0 32 32" fill="none" xmlns="http://www.w3.org/2000/svg">
<path opacity="0.9" d="M15 5.50002C15 5.29079 14.8697 5.10368 14.6735 5.03108C14.4772 4.95849 14.2565 5.01576 14.1204 5.17463L5.12037 15.6746C4.95988 15.8619 4.95988 16.1382 5.12037 16.3254L14.1204 26.8254C14.2565 26.9843 14.4772 27.0416 14.6735 26.969C14.8697 26.8964 15 26.7093 15 26.5V21.276C17.7961 21.3126 20.4956 21.6614 22.6439 22.4704C24.9182 23.3269 26.4989 24.666 27.0165 26.6276C27.0807 26.8706 27.3151 27.0282 27.5643 26.9959C27.8135 26.9635 28 26.7513 28 26.5C28 22.5956 26.9002 18.6655 24.6588 15.6986C22.4906 12.8286 19.264 10.8771 15 10.7355V5.50002Z" fill="black"/>
</svg>
