<svg width="16" height="16" viewBox="0 0 16 16" fill="none" xmlns="http://www.w3.org/2000/svg">
<path opacity="0.9" fill-rule="evenodd" clip-rule="evenodd" d="M12.878 9.74655C13.0407 9.90927 13.0407 10.1731 12.878 10.3358L8.29463 14.9191C8.13191 15.0819 7.86809 15.0819 7.70537 14.9191L3.12204 10.3358C2.95932 10.1731 2.95932 9.90927 3.12204 9.74655C3.28476 9.58383 3.54858 9.58383 3.7113 9.74655L8 14.0353L12.2887 9.74655C12.4514 9.58383 12.7152 9.58383 12.878 9.74655Z" fill="black"/>
<path opacity="0.9" fill-rule="evenodd" clip-rule="evenodd" d="M12.878 6.25247C13.0407 6.08975 13.0407 5.82594 12.878 5.66322L8.29463 1.07988C8.13191 0.917166 7.86809 0.917166 7.70537 1.07988L3.12204 5.66322C2.95932 5.82594 2.95932 6.08975 3.12204 6.25247C3.28476 6.41519 3.54858 6.41519 3.7113 6.25247L8 1.96377L12.2887 6.25247C12.4514 6.41519 12.7152 6.41519 12.878 6.25247Z" fill="black"/>
</svg>
