<svg width="32" height="32" viewBox="0 0 32 32" fill="none" xmlns="http://www.w3.org/2000/svg">
<path opacity="0.9" fill-rule="evenodd" clip-rule="evenodd" d="M25.8669 18.825C26.0444 19.0025 26.0444 19.2903 25.8669 19.4679L16.3214 29.0133C16.1439 29.1908 15.8561 29.1908 15.6786 29.0133L6.13313 19.4679C5.95562 19.2903 5.95562 19.0025 6.13313 18.825C6.31064 18.6475 6.59845 18.6475 6.77596 18.825L16 28.0491L25.224 18.825C25.4016 18.6475 25.6894 18.6475 25.8669 18.825Z" fill="black"/>
<path opacity="0.9" fill-rule="evenodd" clip-rule="evenodd" d="M25.8669 13.1745C26.0444 12.997 26.0444 12.7092 25.8669 12.5317L16.3214 2.98621C16.1439 2.80869 15.8561 2.80869 15.6786 2.98621L6.13313 12.5317C5.95562 12.7092 5.95562 12.997 6.13313 13.1745C6.31064 13.352 6.59845 13.352 6.77596 13.1745L16 3.95044L25.224 13.1745C25.4016 13.352 25.6894 13.352 25.8669 13.1745Z" fill="black"/>
</svg>
