<svg width="16" height="17" viewBox="0 0 16 17" fill="none" xmlns="http://www.w3.org/2000/svg">
<g clip-path="url(#clip0)">
<path opacity="0.9" fill-rule="evenodd" clip-rule="evenodd" d="M14 8.21704C14 9.8921 13.3664 11.4192 12.3258 12.5717C12.3422 12.5844 12.358 12.5984 12.3732 12.6135L15.4161 15.6564C15.6113 15.8516 15.6113 16.1682 15.4161 16.3635C15.2208 16.5588 14.9042 16.5588 14.7089 16.3635L11.6661 13.3206C11.6449 13.2995 11.6261 13.277 11.6096 13.2533C10.4897 14.1682 9.05892 14.717 7.5 14.717C3.91015 14.717 1 11.8069 1 8.21704C1 4.62719 3.91015 1.71704 7.5 1.71704C11.0899 1.71704 14 4.62719 14 8.21704ZM4.5 7.71704C4.22386 7.71704 4 7.9409 4 8.21704C4 8.49318 4.22386 8.71704 4.5 8.71704H10.5C10.7761 8.71704 11 8.49318 11 8.21704C11 7.9409 10.7761 7.71704 10.5 7.71704H4.5Z" fill="black"/>
</g>
<defs>
<clipPath id="clip0">
<rect width="16" height="16" fill="white" transform="translate(0 0.717041)"/>
</clipPath>
</defs>
</svg>
