<svg width="16" height="16" viewBox="0 0 16 16" fill="none" xmlns="http://www.w3.org/2000/svg">
<g opacity="0.9">
<path d="M10.5783 0.0899402C9.67171 -0.0625803 9 0.698987 9 1.49987V6.49987C9 6.77601 9.22386 6.99987 9.5 6.99987H14.5C15.3009 6.99987 16.0625 6.32816 15.9099 5.42154C15.8288 4.93921 15.6933 4.46644 15.5052 4.01243C15.1786 3.22381 14.6998 2.50726 14.0962 1.90368C13.4926 1.3001 12.7761 0.821309 11.9874 0.494653C11.5334 0.306597 11.0607 0.171082 10.5783 0.0899402Z" fill="black"/>
<path d="M8 3.49987C8 2.69899 7.32828 1.93742 6.42166 2.08994C5.51982 2.24166 4.65595 2.58273 3.8888 3.09532C2.81988 3.80955 1.98676 4.82471 1.49479 6.01243C1.00282 7.20015 0.874095 8.50708 1.1249 9.76796C1.3757 11.0288 1.99477 12.187 2.90381 13.0961C3.81285 14.0051 4.97104 14.6242 6.23192 14.875C7.49279 15.1258 8.79973 14.9971 9.98744 14.5051C11.1752 14.0131 12.1903 13.18 12.9046 12.1111C13.4171 11.3439 13.7582 10.4801 13.9099 9.57822C14.0625 8.67159 13.3009 7.99987 12.5 7.99987H8.5C8.22386 7.99987 8 7.77602 8 7.49987V3.49987Z" fill="black"/>
</g>
</svg>
