<svg width="24" height="24" viewBox="0 0 24 24" fill="none" xmlns="http://www.w3.org/2000/svg">
<g opacity="0.9">
<path fill-rule="evenodd" clip-rule="evenodd" d="M14.5534 1.05876C13.6708 0.960295 13 1.68875 13 2.50018V10.5002C13 10.7763 13.2239 11.0002 13.5 11.0002H21.5C22.3114 11.0002 23.0399 10.3293 22.9414 9.44679C22.8426 8.56087 22.6193 7.69149 22.2769 6.86469C21.7994 5.71209 21.0997 4.66482 20.2175 3.78267C19.3354 2.90051 18.2881 2.20074 17.1355 1.72332C16.3087 1.38085 15.4393 1.15761 14.5534 1.05876ZM14 2.50018C14 2.20704 14.2273 2.02858 14.4425 2.0526C15.2352 2.14104 16.013 2.34078 16.7528 2.6472C17.7841 3.07437 18.7211 3.70047 19.5104 4.48977C20.2997 5.27907 20.9258 6.2161 21.353 7.24737C21.6594 7.98714 21.8591 8.765 21.9476 9.55767C21.9716 9.77288 21.7931 10.0002 21.5 10.0002H14V2.50018Z" fill="black"/>
<path fill-rule="evenodd" clip-rule="evenodd" d="M12 4.50019C12 3.68875 11.3291 2.9603 10.4466 3.05876C8.94036 3.22681 7.49073 3.75354 6.22209 4.60122C4.65982 5.6451 3.44218 7.12879 2.72315 8.86469C2.00412 10.6006 1.81598 12.5107 2.18254 14.3535C2.5491 16.1964 3.45389 17.8891 4.78249 19.2177C6.11109 20.5463 7.80383 21.4511 9.64665 21.8176C11.4895 22.1842 13.3996 21.9961 15.1355 21.277C16.8714 20.558 18.3551 19.3404 19.399 17.7781C20.2466 16.5095 20.7734 15.0598 20.9414 13.5536C21.0399 12.671 20.3114 12.0002 19.5 12.0002H12.5C12.2239 12.0002 12 11.7763 12 11.5002V4.50019ZM10.5575 4.0526C10.7727 4.02858 11 4.20705 11 4.50019V11.5002C11 12.3286 11.6716 13.0002 12.5 13.0002H19.5C19.7931 13.0002 19.9716 13.2275 19.9476 13.4427C19.7972 14.7904 19.3259 16.0874 18.5675 17.2225C17.6335 18.6203 16.306 19.7098 14.7528 20.3532C13.1996 20.9965 11.4906 21.1648 9.84174 20.8369C8.1929 20.5089 6.67834 19.6993 5.4896 18.5106C4.30085 17.3218 3.4913 15.8073 3.16333 14.1585C2.83535 12.5096 3.00368 10.8005 3.64703 9.24738C4.29037 7.6942 5.37984 6.36669 6.77766 5.43269C7.91276 4.67425 9.20979 4.20296 10.5575 4.0526Z" fill="black"/>
</g>
</svg>
