<svg width="24" height="24" viewBox="0 0 24 24" fill="none" xmlns="http://www.w3.org/2000/svg">
<g opacity="0.9">
<path fill-rule="evenodd" clip-rule="evenodd" d="M19.8536 5.14645C20.0488 5.34171 20.0488 5.65829 19.8536 5.85355L12.3536 13.3536C12.2598 13.4473 12.1326 13.5 12 13.5C11.8674 13.5 11.7402 13.4473 11.6464 13.3536L4.14645 5.85355C3.95118 5.65829 3.95118 5.34171 4.14645 5.14645C4.34171 4.95118 4.65829 4.95118 4.85355 5.14645L12 12.2929L19.1464 5.14645C19.3417 4.95118 19.6583 4.95118 19.8536 5.14645Z" fill="black"/>
<path fill-rule="evenodd" clip-rule="evenodd" d="M19.8536 11.1464C20.0488 11.3417 20.0488 11.6583 19.8536 11.8536L12.3536 19.3536C12.2598 19.4473 12.1326 19.5 12 19.5C11.8674 19.5 11.7402 19.4473 11.6464 19.3536L4.14645 11.8536C3.95118 11.6583 3.95118 11.3417 4.14645 11.1464C4.34171 10.9512 4.65829 10.9512 4.85355 11.1464L12 18.2929L19.1464 11.1464C19.3417 10.9512 19.6583 10.9512 19.8536 11.1464Z" fill="black"/>
</g>
</svg>
