<svg width="16" height="16" viewBox="0 0 16 16" fill="none" xmlns="http://www.w3.org/2000/svg">
<g opacity="0.9">
<path fill-rule="evenodd" clip-rule="evenodd" d="M13.8536 3.14645C14.0488 3.34171 14.0488 3.65829 13.8536 3.85355L8.35355 9.35355C8.15829 9.54882 7.84171 9.54882 7.64645 9.35355L2.14645 3.85355C1.95118 3.65829 1.95118 3.34171 2.14645 3.14645C2.34171 2.95118 2.65829 2.95118 2.85355 3.14645L8 8.29289L13.1464 3.14645C13.3417 2.95118 13.6583 2.95118 13.8536 3.14645Z" fill="black"/>
<path fill-rule="evenodd" clip-rule="evenodd" d="M13.8536 7.14645C14.0488 7.34171 14.0488 7.65829 13.8536 7.85355L8.35355 13.3536C8.15829 13.5488 7.84171 13.5488 7.64645 13.3536L2.14645 7.85355C1.95118 7.65829 1.95118 7.34171 2.14645 7.14645C2.34171 6.95118 2.65829 6.95118 2.85355 7.14645L8 12.2929L13.1464 7.14645C13.3417 6.95118 13.6583 6.95118 13.8536 7.14645Z" fill="black"/>
</g>
</svg>
