<svg width="32" height="32" viewBox="0 0 32 32" fill="none" xmlns="http://www.w3.org/2000/svg">
<g opacity="0.9">
<path fill-rule="evenodd" clip-rule="evenodd" d="M27.2071 14.2929C27.5976 14.6834 27.5976 15.3166 27.2071 15.7071L16.7071 26.2071C16.3166 26.5976 15.6834 26.5976 15.2929 26.2071L4.79289 15.7071C4.40237 15.3166 4.40237 14.6834 4.79289 14.2929C5.18342 13.9024 5.81658 13.9024 6.20711 14.2929L16 24.0858L25.7929 14.2929C26.1834 13.9024 26.8166 13.9024 27.2071 14.2929Z" fill="black"/>
<path fill-rule="evenodd" clip-rule="evenodd" d="M27.2071 6.29289C27.5976 6.68342 27.5976 7.31658 27.2071 7.70711L16.7071 18.2071C16.3166 18.5976 15.6834 18.5976 15.2929 18.2071L4.79289 7.70711C4.40237 7.31658 4.40237 6.68342 4.79289 6.29289C5.18342 5.90237 5.81658 5.90237 6.20711 6.29289L16 16.0858L25.7929 6.29289C26.1834 5.90237 26.8166 5.90237 27.2071 6.29289Z" fill="black"/>
</g>
</svg>
