<svg width="24" height="24" viewBox="0 0 24 24" fill="none" xmlns="http://www.w3.org/2000/svg">
<path opacity="0.9" fill-rule="evenodd" clip-rule="evenodd" d="M14.6437 12.0018C15.4754 11.2689 16 10.1957 16 9C16 6.79086 14.2091 5 12 5C9.79086 5 8 6.79086 8 9C8 10.1957 8.52463 11.2689 9.35627 12.0018C6.38513 12.0781 4 14.5105 4 17.5V20.5C4 20.7761 4.22386 21 4.5 21C4.77614 21 5 20.7761 5 20.5V17.5C5 15.0147 7.01472 13 9.5 13H14.5C16.9853 13 19 15.0147 19 17.5V20.5C19 20.7761 19.2239 21 19.5 21C19.7761 21 20 20.7761 20 20.5V17.5C20 14.5105 17.6149 12.0781 14.6437 12.0018ZM15 9C15 10.6569 13.6569 12 12 12C10.3431 12 9 10.6569 9 9C9 7.34315 10.3431 6 12 6C13.6569 6 15 7.34315 15 9Z" fill="black"/>
</svg>
