<svg width="32" height="32" viewBox="0 0 32 32" fill="none" xmlns="http://www.w3.org/2000/svg">
<g opacity="0.9">
<path d="M10 17H10.5C11.3284 17 12 17.6716 12 18.5V21.5C12 22.3284 11.3284 23 10.5 23H10V17Z" fill="black"/>
<path d="M16 17C15.4477 17 15 17.4477 15 18V22C15 22.5523 15.4477 23 16 23C16.5523 23 17 22.5523 17 22V18C17 17.4477 16.5523 17 16 17Z" fill="black"/>
<path fill-rule="evenodd" clip-rule="evenodd" d="M8.5 3C7.11929 3 6 4.11929 6 5.5V26.5C6 27.8807 7.11929 29 8.5 29H23.4553C24.8334 29 25.9516 27.8848 25.9553 26.5067L26.0006 9.58744L19.4182 3H8.5ZM25 10L19 4V8C19 9.10457 19.8954 10 21 10H25ZM10 16C9.44772 16 9 16.4477 9 17V23C9 23.5523 9.44772 24 10 24H10.5C11.8807 24 13 22.8807 13 21.5V18.5C13 17.1193 11.8807 16 10.5 16H10ZM14 18C14 16.8954 14.8954 16 16 16C17.1046 16 18 16.8954 18 18V22C18 23.1046 17.1046 24 16 24C14.8954 24 14 23.1046 14 22V18ZM21 16C19.8954 16 19 16.8954 19 18V22C19 23.1046 19.8954 24 21 24C21.5924 24 22.1251 23.7418 22.4906 23.3335C22.6748 23.1277 22.6573 22.8116 22.4515 22.6274C22.2457 22.4433 21.9296 22.4608 21.7455 22.6665C21.5617 22.8719 21.2961 23 21 23C20.4477 23 20 22.5523 20 22V18C20 17.4477 20.4477 17 21 17C21.2961 17 21.5617 17.1281 21.7455 17.3335C21.9296 17.5392 22.2457 17.5567 22.4515 17.3726C22.6573 17.1884 22.6748 16.8723 22.4906 16.6665C22.1251 16.2582 21.5924 16 21 16Z" fill="black"/>
</g>
</svg>
