<svg width="16" height="16" viewBox="0 0 16 16" fill="none" xmlns="http://www.w3.org/2000/svg">
<g opacity="0.9">
<path fill-rule="evenodd" clip-rule="evenodd" d="M3.9 7C3.40294 7 3 7.40294 3 7.9V12.1C3 12.5971 3.40294 13 3.9 13C5.0598 13 6 12.0598 6 10.9V9.1C6 7.9402 5.0598 7 3.9 7ZM4 11.9955V8.00448C4.56065 8.05501 5 8.5262 5 9.1V10.9C5 11.4738 4.56065 11.945 4 11.9955Z" fill="black"/>
<path fill-rule="evenodd" clip-rule="evenodd" d="M7 8.5C7 7.67157 7.67157 7 8.5 7C9.32843 7 10 7.67157 10 8.5V11.5C10 12.3284 9.32843 13 8.5 13C7.67157 13 7 12.3284 7 11.5V8.5ZM8.5 8C8.22386 8 8 8.22386 8 8.5V11.5C8 11.7761 8.22386 12 8.5 12C8.77614 12 9 11.7761 9 11.5V8.5C9 8.22386 8.77614 8 8.5 8Z" fill="black"/>
<path d="M12.5 7C11.6716 7 11 7.67157 11 8.5V11.5C11 12.3284 11.6716 13 12.5 13C12.7761 13 13 12.7761 13 12.5C13 12.2239 12.7761 12 12.5 12C12.2239 12 12 11.7761 12 11.5V8.5C12 8.22386 12.2239 8 12.5 8C12.7761 8 13 7.77614 13 7.5C13 7.22386 12.7761 7 12.5 7Z" fill="black"/>
<path fill-rule="evenodd" clip-rule="evenodd" d="M3.5 0C2.11929 0 1 1.11929 1 2.5V13.5C1 14.8807 2.11929 16 3.5 16H12.5C13.8807 16 15 14.8807 15 13.5V3.29289L11.7071 0H3.5ZM2 2.5C2 1.67157 2.67157 1 3.5 1H11V1.5C11 2.88071 12.1193 4 13.5 4H14V13.5C14 14.3284 13.3284 15 12.5 15H3.5C2.67157 15 2 14.3284 2 13.5V2.5ZM12.0166 1.72367L13.2763 2.98344C12.627 2.88635 12.1136 2.37304 12.0166 1.72367Z" fill="black"/>
</g>
</svg>
