<svg width="24" height="24" viewBox="0 0 24 24" fill="none" xmlns="http://www.w3.org/2000/svg">
<path fill-rule="evenodd" clip-rule="evenodd" d="M2 12C2 17.5228 6.47715 22 12 22C17.5228 22 22 17.5228 22 12C22 6.47715 17.5228 2 12 2C6.47715 2 2 6.47715 2 12ZM11.8608 12.8137L7.58124 15.8705C6.91937 16.3433 6 15.8702 6 15.0568L6 8.94319C6 8.12982 6.91937 7.65669 7.58124 8.12946L11.8608 11.1863C11.9119 11.2228 11.9583 11.2628 12 11.3059V8.94319C12 8.12982 12.9194 7.65669 13.5812 8.12946L17.8608 11.1863C18.4191 11.5851 18.4191 12.4149 17.8608 12.8137L13.5812 15.8705C12.9194 16.3433 12 15.8702 12 15.0568V12.6941C11.9583 12.7372 11.9119 12.7772 11.8608 12.8137Z" fill="black"/>
</svg>
