<svg width="32" height="32" viewBox="0 0 32 32" fill="none" xmlns="http://www.w3.org/2000/svg">
<path fill-rule="evenodd" clip-rule="evenodd" d="M4 16C4 22.6274 9.37258 28 16 28C22.6274 28 28 22.6274 28 16C28 9.37258 22.6274 4 16 4C9.37258 4 4 9.37258 4 16ZM16.7519 16.8321L10.5547 20.9635C9.89015 21.4066 9 20.9302 9 20.1315L9 11.8685C9 11.0698 9.89015 10.5934 10.5547 11.0365L16.7519 15.1679C16.8512 15.2341 16.9339 15.3137 17 15.4021V11.8685C17 11.0698 17.8901 10.5934 18.5547 11.0365L24.7519 15.1679C25.3457 15.5638 25.3457 16.4362 24.7519 16.8321L18.5547 20.9635C17.8901 21.4066 17 20.9302 17 20.1315V16.5979C16.9339 16.6863 16.8512 16.7659 16.7519 16.8321Z" fill="black"/>
</svg>
