<svg width="16" height="16" viewBox="0 0 16 16" fill="none" xmlns="http://www.w3.org/2000/svg">
<g opacity="0.9">
<path fill-rule="evenodd" clip-rule="evenodd" d="M8 2C4.68629 2 2 4.68629 2 8C2 11.3137 4.68629 14 8 14C11.3137 14 14 11.3137 14 8C14 4.68629 11.3137 2 8 2ZM1 8C1 4.13401 4.13401 1 8 1C11.866 1 15 4.13401 15 8C15 11.866 11.866 15 8 15C4.13401 15 1 11.866 1 8Z" fill="black"/>
<path fill-rule="evenodd" clip-rule="evenodd" d="M11 10.5C11 10.7761 10.7761 11 10.5 11H5.5C5.22386 11 5 10.7761 5 10.5C5 10.2239 5.22386 10 5.5 10H10.5C10.7761 10 11 10.2239 11 10.5Z" fill="black"/>
<path d="M6.5 6C6.5 6.55228 6.05228 7 5.5 7C4.94772 7 4.5 6.55228 4.5 6C4.5 5.44772 4.94772 5 5.5 5C6.05228 5 6.5 5.44772 6.5 6Z" fill="black"/>
<path d="M11.5 6C11.5 6.55228 11.0523 7 10.5 7C9.94771 7 9.5 6.55228 9.5 6C9.5 5.44772 9.94771 5 10.5 5C11.0523 5 11.5 5.44772 11.5 6Z" fill="black"/>
</g>
</svg>
