<svg width="32" height="32" viewBox="0 0 32 32" fill="none" xmlns="http://www.w3.org/2000/svg">
<g opacity="0.9">
<path fill-rule="evenodd" clip-rule="evenodd" d="M8.5 3C7.11929 3 6 4.11929 6 5.5V26.5C6 27.8807 7.11929 29 8.5 29H20.3464C18.9127 27.8077 18 26.0104 18 24C18 21.9896 18.9127 20.1923 20.3464 19H19.5C19.2239 19 19 18.7761 19 18.5V15C19 13.8954 19.8954 13 21 13C22.1046 13 23 13.8954 23 15V17.6739C23.4815 17.5602 23.9837 17.5 24.5 17.5C25.0088 17.5 25.5039 17.5584 25.979 17.669L26.0006 9.58744L19.4182 3H8.5ZM25 10L19 4V8C19 9.10457 19.8954 10 21 10H25ZM14 10C14 8.89543 14.8954 8 16 8C17.1046 8 18 8.89543 18 10V18.5C18 18.7761 17.7761 19 17.5 19H14.5C14.2239 19 14 18.7761 14 18.5V10ZM9 13C9 11.8954 9.89543 11 11 11C12.1046 11 13 11.8954 13 13V18.5C13 18.7761 12.7761 19 12.5 19H9.5C9.22386 19 9 18.7761 9 18.5V13Z" fill="black"/>
<path fill-rule="evenodd" clip-rule="evenodd" d="M25.5301 19H23.5301V20.4714C22.937 20.6391 22.4049 20.9524 21.975 21.3702L20.7 20.6341L19.7 22.3662L20.9743 23.1019C20.9019 23.3893 20.8635 23.6901 20.8635 24C20.8635 24.3099 20.9019 24.6109 20.9743 24.8984L19.7 25.6341L20.7 27.3662L21.9752 26.6299C22.4051 27.0477 22.9371 27.3609 23.5301 27.5286V29H25.5301V27.5286C26.1232 27.3609 26.6552 27.0477 27.0851 26.63L28.3603 27.3662L29.3603 25.6341L28.086 24.8984C28.1584 24.6109 28.1968 24.3099 28.1968 24C28.1968 23.6901 28.1584 23.3893 28.086 23.1019L29.3603 22.3662L28.3603 20.6341L27.0853 21.3702C26.6553 20.9524 26.1233 20.6391 25.5301 20.4714V19ZM25.8375 24C25.8375 24.6904 25.2778 25.25 24.5875 25.25C23.8971 25.25 23.3375 24.6904 23.3375 24C23.3375 23.3096 23.8971 22.75 24.5875 22.75C25.2778 22.75 25.8375 23.3096 25.8375 24Z" fill="black"/>
</g>
</svg>
