<svg width="32" height="32" viewBox="0 0 32 32" fill="none" xmlns="http://www.w3.org/2000/svg">
<g opacity="0.9">
<path d="M17 10C17 9.44772 16.5523 9 16 9C15.4477 9 15 9.44772 15 10V15H10C9.44771 15 9 15.4477 9 16C9 16.5523 9.44771 17 10 17H15V22C15 22.5523 15.4477 23 16 23C16.5523 23 17 22.5523 17 22V17H22C22.5523 17 23 16.5523 23 16C23 15.4477 22.5523 15 22 15H17V10Z" fill="black"/>
<path fill-rule="evenodd" clip-rule="evenodd" d="M16 2C16.2761 2 16.5 2.22386 16.5 2.5V4.01023C22.7297 4.26556 27.7344 9.27028 27.9898 15.5H29.5C29.7761 15.5 30 15.7239 30 16C30 16.2761 29.7761 16.5 29.5 16.5H27.9898C27.7344 22.7297 22.7297 27.7344 16.5 27.9898V29.5002C16.5 29.7763 16.2761 30.0002 16 30.0002C15.7239 30.0002 15.5 29.7763 15.5 29.5002V27.9898C9.27028 27.7344 4.26556 22.7297 4.01023 16.5H2.5C2.22386 16.5 2 16.2761 2 16C2 15.7239 2.22386 15.5 2.5 15.5H4.01023C4.26556 9.27028 9.27028 4.26556 15.5 4.01023V2.5C15.5 2.22386 15.7239 2 16 2ZM5 16C5 9.92487 9.92487 5 16 5C22.0751 5 27 9.92487 27 16C27 22.0751 22.0751 27 16 27C9.92487 27 5 22.0751 5 16Z" fill="black"/>
</g>
</svg>
