<svg width="24" height="24" viewBox="0 0 24 24" fill="none" xmlns="http://www.w3.org/2000/svg">
<g clip-path="url(#clip0)">
<g opacity="0.9">
<path fill-rule="evenodd" clip-rule="evenodd" d="M21.4667 12C21.4667 11.7239 21.6905 11.5 21.9667 11.5H23.5C23.7761 11.5 24 11.7239 24 12C24 12.2761 23.7761 12.5 23.5 12.5H21.9667C21.6905 12.5 21.4667 12.2761 21.4667 12Z" fill="black"/>
<path fill-rule="evenodd" clip-rule="evenodd" d="M0 12C0 11.7239 0.223858 11.5 0.5 11.5H2.03333C2.30948 11.5 2.53333 11.7239 2.53333 12C2.53333 12.2761 2.30948 12.5 2.03333 12.5H0.5C0.223858 12.5 0 12.2761 0 12Z" fill="black"/>
<path fill-rule="evenodd" clip-rule="evenodd" d="M12 21.4667C12.2761 21.4667 12.5 21.6905 12.5 21.9667V23.5C12.5 23.7761 12.2761 24 12 24C11.7239 24 11.5 23.7761 11.5 23.5V21.9667C11.5 21.6905 11.7239 21.4667 12 21.4667Z" fill="black"/>
<path fill-rule="evenodd" clip-rule="evenodd" d="M12 0C12.2761 1.20706e-08 12.5 0.223858 12.5 0.5V2.03333C12.5 2.30948 12.2761 2.53333 12 2.53333C11.7239 2.53333 11.5 2.30948 11.5 2.03333V0.5C11.5 0.223858 11.7239 -1.20706e-08 12 0Z" fill="black"/>
<path fill-rule="evenodd" clip-rule="evenodd" d="M12 6C12.5523 6 13 6.44772 13 7L13 17C13 17.5523 12.5523 18 12 18C11.4477 18 11 17.5523 11 17L11 7C11 6.44772 11.4477 6 12 6Z" fill="black"/>
<path fill-rule="evenodd" clip-rule="evenodd" d="M18 12C18 12.5523 17.5523 13 17 13L7 13C6.44771 13 6 12.5523 6 12C6 11.4477 6.44771 11 7 11L17 11C17.5523 11 18 11.4477 18 12Z" fill="black"/>
<path fill-rule="evenodd" clip-rule="evenodd" d="M12 3C7.02944 3 3 7.02944 3 12C3 16.9706 7.02944 21 12 21C16.9706 21 21 16.9706 21 12C21 7.02944 16.9706 3 12 3ZM2 12C2 6.47715 6.47715 2 12 2C17.5228 2 22 6.47715 22 12C22 17.5228 17.5228 22 12 22C6.47715 22 2 17.5228 2 12Z" fill="black"/>
</g>
</g>
<defs>
<clipPath id="clip0">
<rect width="24" height="24" fill="white"/>
</clipPath>
</defs>
</svg>
