<svg width="24" height="24" viewBox="0 0 24 24" fill="none" xmlns="http://www.w3.org/2000/svg">
<g opacity="0.9">
<path fill-rule="evenodd" clip-rule="evenodd" d="M9 9.5C9 9.22386 9.22386 9 9.5 9H14.5C14.7761 9 15 9.22386 15 9.5V11.5C15 11.7761 14.7761 12 14.5 12H9.5C9.22386 12 9 11.7761 9 11.5V9.5ZM10 11V10H14V11H10Z" fill="black"/>
<path fill-rule="evenodd" clip-rule="evenodd" d="M1 5C1 3.89543 1.89543 3 3 3H21C22.1046 3 23 3.89543 23 5V7.5C23 7.77614 22.7761 8 22.5 8H22V19C22 20.1046 21.1046 21 20 21H4C2.89543 21 2 20.1046 2 19V8H1.5C1.22386 8 1 7.77614 1 7.5V5ZM3 8H21V19C21 19.5523 20.5523 20 20 20H4C3.44772 20 3 19.5523 3 19V8ZM22 7H2V5C2 4.44772 2.44772 4 3 4H21C21.5523 4 22 4.44772 22 5V7Z" fill="black"/>
</g>
</svg>
