<svg width="16" height="16" viewBox="0 0 16 16" fill="none" xmlns="http://www.w3.org/2000/svg">
<g opacity="0.9">
<path d="M1.5 2C0.671573 2 0 2.67157 0 3.5V4.5C0 4.77614 0.223858 5 0.5 5H15.5C15.7761 5 16 4.77614 16 4.5V3.5C16 2.67157 15.3284 2 14.5 2H1.5Z" fill="black"/>
<path fill-rule="evenodd" clip-rule="evenodd" d="M1 6.5C1 6.22386 1.22386 6 1.5 6H14.5C14.7761 6 15 6.22386 15 6.5V12C15 13.1046 14.1046 14 13 14H3C1.89543 14 1 13.1046 1 12V6.5ZM6 8.5C6 8.22386 6.22386 8 6.5 8H9.5C9.77614 8 10 8.22386 10 8.5C10 8.77614 9.77614 9 9.5 9H6.5C6.22386 9 6 8.77614 6 8.5Z" fill="black"/>
</g>
</svg>
