<svg width="16" height="16" viewBox="0 0 16 16" fill="none" xmlns="http://www.w3.org/2000/svg">
<g clip-path="url(#clip0)">
<g opacity="0.9">
<path fill-rule="evenodd" clip-rule="evenodd" d="M3.5 0C2.11929 0 1 1.11929 1 2.5V13.5C1 14.8807 2.11929 16 3.5 16H12.5C10.567 16 9 14.433 9 12.5C9 10.567 10.567 9 12.5 9C13.4793 9 14.3647 9.40223 15 10.0505V3.58271L11.3918 0H3.5ZM14 4L11 1V3C11 3.55228 11.4477 4 12 4H14ZM8 2C7.44772 2 7 2.44772 7 3V7.5C7 7.77614 7.22386 8 7.5 8H8.5C8.77614 8 9 7.77614 9 7.5V3C9 2.44772 8.55228 2 8 2ZM5 4C4.44772 4 4 4.44772 4 5V7.5C4 7.77614 4.22386 8 4.5 8H5.5C5.77614 8 6 7.77614 6 7.5V5C6 4.44772 5.55228 4 5 4ZM10 6C10 5.44772 10.4477 5 11 5C11.5523 5 12 5.44772 12 6V7.5C12 7.77614 11.7761 8 11.5 8H10.5C10.2239 8 10 7.77614 10 7.5V6Z" fill="black"/>
<path d="M12.5 10C11.1193 10 10 11.1193 10 12.5C10 13.8807 11.1193 15 12.5 15C13.0095 15 13.4835 14.8476 13.8787 14.5858L15.1464 15.8537C15.3417 16.049 15.6583 16.049 15.8535 15.8538C16.0488 15.6585 16.0488 15.3419 15.8536 15.1467L14.5858 13.8787C14.8476 13.4835 15 13.0095 15 12.5C15 11.1193 13.8807 10 12.5 10Z" fill="black"/>
</g>
</g>
<defs>
<clipPath id="clip0">
<rect width="16" height="16" fill="white"/>
</clipPath>
</defs>
</svg>
