<svg width="32" height="32" viewBox="0 0 32 32" fill="none" xmlns="http://www.w3.org/2000/svg">
<path fill-rule="evenodd" clip-rule="evenodd" d="M7 5.5C7 4.67157 7.67157 4 8.5 4H19L19 7.5277C19 8.91528 20.13 10.0374 21.5176 10.0276L24.95 10.0035V18.5C24.95 18.7761 25.1739 19 25.45 19C25.7261 19 25.95 18.7761 25.95 18.5V9.29535L19.9416 3.18508C19.8251 3.06668 19.666 3 19.5 3H8.5C7.11929 3 6 4.11929 6 5.5V26.5C6 27.8807 7.11929 29 8.5 29H18.5C18.7761 29 19 28.7761 19 28.5C19 28.2239 18.7761 28 18.5 28H8.5C7.67157 28 7 27.3284 7 26.5V5.5ZM24.2653 9.00831L20 4.67075L20 7.5277C20 8.36024 20.678 9.03351 21.5105 9.02766L24.2653 9.00831Z" fill="black"/>
<path fill-rule="evenodd" clip-rule="evenodd" d="M24 21C21.7909 21 20 22.7909 20 25C20 27.2091 21.7909 29 24 29C24.9243 29 25.7754 28.6865 26.4528 28.16L28.1464 29.8537C28.3417 30.0489 28.6583 30.0489 28.8536 29.8537C29.0488 29.6584 29.0488 29.3418 28.8536 29.1466L27.1599 27.4529C27.6864 26.7755 28 25.9244 28 25C28 22.7909 26.2091 21 24 21ZM21 25C21 23.3431 22.3431 22 24 22C25.6569 22 27 23.3431 27 25C27 26.6569 25.6569 28 24 28C22.3431 28 21 26.6569 21 25Z" fill="black"/>
<path fill-rule="evenodd" clip-rule="evenodd" d="M11 11C9.89543 11 9 11.8954 9 13V18.5C9 18.7761 9.22386 19 9.5 19H12.5C12.7761 19 13 18.7761 13 18.5V13C13 11.8954 12.1046 11 11 11ZM10 13C10 12.4477 10.4477 12 11 12C11.5523 12 12 12.4477 12 13V18H10V13Z" fill="black"/>
<path fill-rule="evenodd" clip-rule="evenodd" d="M14 10C14 8.89543 14.8954 8 16 8C17.1046 8 18 8.89543 18 10V18.5C18 18.7761 17.7761 19 17.5 19H14.5C14.2239 19 14 18.7761 14 18.5V10ZM16 9C15.4477 9 15 9.44772 15 10V18H17V10C17 9.44772 16.5523 9 16 9Z" fill="black"/>
<path fill-rule="evenodd" clip-rule="evenodd" d="M21 13C19.8954 13 19 13.8954 19 15V18.5C19 18.7761 19.2239 19 19.5 19H22.5C22.7761 19 23 18.7761 23 18.5V15C23 13.8954 22.1046 13 21 13ZM20 15C20 14.4477 20.4477 14 21 14C21.5523 14 22 14.4477 22 15V18H20V15Z" fill="black"/>
</svg>
