<svg width="32" height="32" viewBox="0 0 32 32" fill="none" xmlns="http://www.w3.org/2000/svg">
<path opacity="0.9" fill-rule="evenodd" clip-rule="evenodd" d="M4 11.5C4 9.567 5.567 8 7.5 8H24.5C26.433 8 28 9.567 28 11.5V16.5C28 18.433 26.433 20 24.5 20H19.8506L21.8655 22.1589C22.0091 22.3127 22.041 22.54 21.9453 22.7274C21.8496 22.9148 21.6468 23.0223 21.438 22.9962L18.2493 22.5976L19.9699 27.3291C20.0643 27.5887 19.9304 27.8755 19.6709 27.9699C19.4114 28.0643 19.1245 27.9304 19.0301 27.6709L17.2733 22.8398L14.8201 24.8841C14.6711 25.0083 14.4636 25.0351 14.2879 24.9528C14.1122 24.8705 14 24.694 14 24.5V20H7.5C5.567 20 4 18.433 4 16.5V11.5ZM14 19V15C14 14.7946 14.1256 14.6102 14.3166 14.5349C14.5077 14.4595 14.7254 14.5087 14.8655 14.6589L18.9173 19H24.5C25.8807 19 27 17.8807 27 16.5V11.5C27 10.1193 25.8807 9 24.5 9H7.5C6.11929 9 5 10.1193 5 11.5V16.5C5 17.8807 6.11929 19 7.5 19H14ZM15 23.4325V16.2685L20.1933 21.8328L17.562 21.5039C17.4246 21.4867 17.2863 21.5273 17.1799 21.6159L15 23.4325Z" fill="black"/>
</svg>
