<svg width="16" height="16" viewBox="0 0 16 16" fill="none" xmlns="http://www.w3.org/2000/svg">
<path opacity="0.9" fill-rule="evenodd" clip-rule="evenodd" d="M3 2C1.89543 2 1 2.89543 1 4V8C1 9.10457 1.89543 10 3 10H7V14C7 14.2022 7.12182 14.3846 7.30866 14.4619C7.4955 14.5393 7.71055 14.4966 7.85355 14.3536L9.36302 12.8441L10.5528 15.2236C10.6763 15.4706 10.9766 15.5707 11.2236 15.4472C11.4706 15.3237 11.5707 15.0234 11.4472 14.7764L10.309 12.5H12C12.2076 12.5 12.3936 12.3717 12.4674 12.1777C12.5411 11.9837 12.4873 11.7642 12.3322 11.6263L10.5026 10H13C14.1046 10 15 9.10457 15 8V4C15 2.89543 14.1046 2 13 2H3ZM9.37759 9H13C13.5523 9 14 8.55228 14 8V4C14 3.44772 13.5523 3 13 3H3C2.44772 3 2 3.44772 2 4V8C2 8.55228 2.44772 9 3 9H7V8.00001C7 7.80311 7.11556 7.62455 7.29517 7.54389C7.47479 7.46323 7.68502 7.49549 7.83218 7.6263L9.37759 9ZM8 12.7929V9.11343L10.6849 11.5H9.5C9.36739 11.5 9.24022 11.5527 9.14645 11.6465L8 12.7929Z" fill="black"/>
</svg>
