<svg width="16" height="16" viewBox="0 0 16 16" fill="none" xmlns="http://www.w3.org/2000/svg">
<path opacity="0.9" d="M1.5 4C1.5 3.17157 2.17157 2.5 3 2.5H13C13.8284 2.5 14.5 3.17157 14.5 4V10C14.5 10.8284 13.8284 11.5 13 11.5H5.31946C5.00776 11.5 4.7038 11.5971 4.44983 11.7778L1.5 13.8767V4ZM6.93538 3.25984L5.64156 7.46473C5.48327 7.97917 5.86794 8.5 6.40619 8.5H7.5V10.5049C7.5 11.4232 8.79457 11.6178 9.06462 10.7402L10.3584 6.53527C10.5167 6.02083 10.1321 5.5 9.59381 5.5H8.5V3.49511C8.5 2.57684 7.20543 2.38218 6.93538 3.25984Z" fill="black" stroke="black" stroke-linejoin="bevel"/>
</svg>
