<svg width="32" height="32" viewBox="0 0 32 32" fill="none" xmlns="http://www.w3.org/2000/svg">
<g opacity="0.9">
<path fill-rule="evenodd" clip-rule="evenodd" d="M17 9.50005C17 9.26266 16.8331 9.05799 16.6005 9.01026C16.368 8.96253 16.1339 9.08489 16.0404 9.30309L13.0404 16.3031C12.9742 16.4576 12.9901 16.635 13.0826 16.7753C13.1751 16.9156 13.3319 17 13.5 17H16V21.5C16 21.7374 16.1669 21.9421 16.3995 21.9898C16.632 22.0376 16.8661 21.9152 16.9596 21.697L19.9596 14.697C20.0258 14.5425 20.0099 14.3651 19.9174 14.2248C19.8249 14.0845 19.6681 14 19.5 14H17V9.50005ZM16.5 16H14.2583L16 11.936V14.5C16 14.7762 16.2239 15 16.5 15H18.7417L17 19.0641V16.5C17 16.2239 16.7761 16 16.5 16Z" fill="black"/>
<path fill-rule="evenodd" clip-rule="evenodd" d="M26 24H11.8571L6.51866 27.2385C5.85223 27.6428 5 27.163 5 26.3835V10C5 8.34314 6.34315 7 8 7H26C27.6569 7 29 8.34315 29 10V21C29 22.6569 27.6569 24 26 24ZM26 23H11.5775L6 26.3835L6 10C6 8.89543 6.89543 8 8 8H26C27.1046 8 28 8.89543 28 10V21C28 22.1046 27.1046 23 26 23Z" fill="black"/>
</g>
</svg>
