<svg width="32" height="32" viewBox="0 0 32 32" fill="none" xmlns="http://www.w3.org/2000/svg">
<path opacity="0.9" fill-rule="evenodd" clip-rule="evenodd" d="M25.6862 6.30534C24.5973 5.23155 22.829 5.23155 21.7401 6.30534L7.79512 20.0565C6.06829 21.7593 6.06829 24.5172 7.79512 26.22C9.52583 27.9267 12.3347 27.9267 14.0654 26.22L24.4069 16.0223C24.6035 15.8284 24.9201 15.8306 25.114 16.0272C25.3079 16.2239 25.3056 16.5404 25.109 16.7343L14.7676 26.932C12.6475 29.0227 9.21305 29.0227 7.09298 26.932C4.96901 24.8376 4.96901 21.4389 7.09298 19.3444L21.0379 5.5933C22.5162 4.13557 24.9101 4.13557 26.3884 5.5933C27.8705 7.05487 27.8705 9.42748 26.3884 10.889L14.7676 22.3483C13.9311 23.1732 12.5778 23.1732 11.7413 22.3483C10.9009 21.5196 10.9009 20.1731 11.7413 19.3444L19.7586 11.4386C19.9552 11.2447 20.2718 11.2469 20.4657 11.4435C20.6595 11.6402 20.6573 11.9567 20.4607 12.1506L12.4434 20.0565C12.0002 20.4935 12.0002 21.1992 12.4434 21.6363C12.8905 22.0772 13.6183 22.0772 14.0654 21.6363L25.6862 10.177C26.7713 9.10707 26.7713 7.37528 25.6862 6.30534Z" fill="black"/>
</svg>
