<svg width="32" height="32" viewBox="0 0 32 32" fill="none" xmlns="http://www.w3.org/2000/svg">
<path opacity="0.9" fill-rule="evenodd" clip-rule="evenodd" d="M25.3352 6.66136C24.4409 5.77955 22.9854 5.77955 22.0911 6.66136L8.14619 20.4125C6.61794 21.9195 6.61794 24.357 8.14619 25.864C9.68222 27.3787 12.1783 27.3787 13.7144 25.864L24.0558 15.6663C24.4491 15.2785 25.0822 15.2829 25.47 15.6762C25.8578 16.0694 25.8533 16.7026 25.4601 17.0904L15.1187 27.2881C12.8039 29.5706 9.05666 29.5706 6.7419 27.2881C4.41937 24.9978 4.41937 21.2787 6.7419 18.9884L20.6868 5.23728C22.3598 3.58757 25.0665 3.58757 26.7394 5.23728C28.4202 6.89466 28.4202 9.58769 26.7394 11.2451L15.1187 22.7043C14.0875 23.7212 12.4214 23.7212 11.3902 22.7043C10.3513 21.6798 10.3513 20.0129 11.3902 18.9884L19.4075 11.0826C19.8007 10.6948 20.4339 10.6992 20.8217 11.0925C21.2095 11.4857 21.205 12.1189 20.8118 12.5066L12.7945 20.4125C12.5498 20.6537 12.5498 21.039 12.7945 21.2803C13.0469 21.5292 13.4619 21.5292 13.7144 21.2803L25.3352 9.82099C26.2216 8.94686 26.2216 7.53549 25.3352 6.66136Z" fill="black"/>
</svg>
