<svg width="16" height="16" viewBox="0 0 16 16" fill="none" xmlns="http://www.w3.org/2000/svg">
<path opacity="0.9" fill-rule="evenodd" clip-rule="evenodd" d="M3 3C1.89543 3 1 3.89543 1 5V14.8767C1 15.283 1.45885 15.5197 1.78988 15.2841L4.73971 13.1852C4.90902 13.0647 5.11166 13 5.31946 13H13C14.1046 13 15 12.1046 15 11V5C15 3.89543 14.1046 3 13 3H3ZM11 6C11 6.55228 10.5523 7 10 7C9.79633 7 9.60687 6.93911 9.44885 6.83454L7.11803 7.99995L9.44894 9.1654C9.60694 9.06087 9.79636 9 10 9C10.5523 9 11 9.44772 11 10C11 10.5523 10.5523 11 10 11C9.46781 11 9.03271 10.5843 9.00176 10.0598L6.55115 8.83454C6.39313 8.93911 6.20367 9 6 9C5.44772 9 5 8.55228 5 8C5 7.44772 5.44772 7 6 7C6.20364 7 6.39306 7.06087 6.55106 7.1654L9.00177 5.94005C9.03277 5.41567 9.46784 5 10 5C10.5523 5 11 5.44772 11 6Z" fill="black"/>
</svg>
