<svg width="32" height="32" viewBox="0 0 32 32" fill="none" xmlns="http://www.w3.org/2000/svg">
<path d="M13.5413 17.0796C13.2716 17.3399 12.9045 17.5 12.5 17.5C11.6716 17.5 11 16.8284 11 16C11 15.1716 11.6716 14.5 12.5 14.5C12.9044 14.5 13.2715 14.6601 13.5413 14.9203L17.5012 12.9403C17.5325 12.1396 18.1916 11.5 19 11.5C19.8284 11.5 20.5 12.1716 20.5 13C20.5 13.8284 19.8284 14.5 19 14.5C18.5122 14.5 18.0788 14.2672 17.8048 13.9065L13.9887 15.8146C13.9961 15.8754 14 15.9372 14 16C14 16.0627 13.9961 16.1246 13.9887 16.1853L17.8049 18.0934C18.0788 17.7328 18.5122 17.5 19 17.5C19.8284 17.5 20.5 18.1716 20.5 19C20.5 19.8284 19.8284 20.5 19 20.5C18.1915 20.5 17.5324 19.8604 17.5012 19.0595L13.5413 17.0796Z" fill="black"/>
<path fill-rule="evenodd" clip-rule="evenodd" d="M10.8571 24H25C26.6569 24 28 22.6569 28 21V10C28 8.34315 26.6569 7 25 7H7C5.34315 7 4 8.34314 4 10V26.3835C4 27.163 4.85223 27.6428 5.51866 27.2385L10.8571 24ZM10.5775 23H25C26.1046 23 27 22.1046 27 21V10C27 8.89543 26.1046 8 25 8H7C5.89543 8 5 8.89543 5 10L5 26.3835L10.5775 23Z" fill="black"/>
</svg>
