<svg width="24" height="24" viewBox="0 0 24 24" fill="none" xmlns="http://www.w3.org/2000/svg">
<path d="M9.54134 13.0796C9.27156 13.3399 8.90447 13.5 8.5 13.5C7.67157 13.5 7 12.8284 7 12C7 11.1716 7.67157 10.5 8.5 10.5C8.90444 10.5 9.27149 10.6601 9.54127 10.9203L13.5012 8.94035C13.5325 8.13957 14.1916 7.5 15 7.5C15.8284 7.5 16.5 8.17157 16.5 9C16.5 9.82843 15.8284 10.5 15 10.5C14.5122 10.5 14.0788 10.2672 13.8048 9.90655L9.98866 11.8146C9.99615 11.8754 10 11.9372 10 12C10 12.0627 9.99615 12.1246 9.98867 12.1853L13.8049 14.0934C14.0788 13.7328 14.5122 13.5 15 13.5C15.8284 13.5 16.5 14.1716 16.5 15C16.5 15.8284 15.8284 16.5 15 16.5C14.1915 16.5 13.5324 15.8604 13.5012 15.0595L9.54134 13.0796Z" fill="black"/>
<path fill-rule="evenodd" clip-rule="evenodd" d="M5 5C3.34315 5 2 6.34315 2 8V21.0956C2 21.9014 2.90435 22.3763 3.56773 21.9188L7.45795 19.236C7.62489 19.1208 7.82288 19.0592 8.02567 19.0592H19C20.6569 19.0592 22 17.716 22 16.0592V8C22 6.34315 20.6569 5 19 5H5ZM19 6H5C3.89543 6 3 6.89543 3 8V21.0956L6.89022 18.4127C7.2241 18.1825 7.6201 18.0592 8.02567 18.0592H19C20.1046 18.0592 21 17.1637 21 16.0592V8C21 6.89543 20.1046 6 19 6Z" fill="black"/>
</svg>
