<svg width="16" height="16" viewBox="0 0 16 16" fill="none" xmlns="http://www.w3.org/2000/svg">
<g opacity="0.9">
<path fill-rule="evenodd" clip-rule="evenodd" d="M9.17598 8.06522C9.68666 7.52733 10 6.80026 10 6C10 4.34315 8.65685 3 7 3C5.34315 3 4 4.34315 4 6C4 6.80026 4.31334 7.52733 4.82402 8.06523C3.2145 8.38017 2 9.79825 2 11.5V13.5C2 13.7761 2.22386 14 2.5 14C2.77614 14 3 13.7761 3 13.5V11.5C3 10.1193 4.11929 9 5.5 9H8.5C9.88071 9 11 10.1193 11 11.5V13.5C11 13.7761 11.2239 14 11.5 14C11.7761 14 12 13.7761 12 13.5V11.5C12 9.79825 10.7855 8.38017 9.17598 8.06522ZM7 8C8.10457 8 9 7.10457 9 6C9 4.89543 8.10457 4 7 4C5.89543 4 5 4.89543 5 6C5 7.10457 5.89543 8 7 8Z" fill="black"/>
<path d="M10.5 3C10.2239 3 10 3.22386 10 3.5C10 3.77614 10.2239 4 10.5 4C11.3284 4 12 4.67157 12 5.5C12 6.16358 11.5687 6.72756 10.9705 6.92488C10.8094 6.93716 10.6696 7.02579 10.5873 7.15466C10.5088 7.2695 10.4784 7.41632 10.5158 7.56162C10.5832 7.82354 10.8461 7.98337 11.1081 7.92517C11.8279 7.95055 12.5457 8.2501 13.0899 8.71913C13.6597 9.21021 14 9.85021 14 10.5V12C14 12.2761 14.2238 12.5 14.5 12.5C14.7761 12.5 15 12.2761 15 12V10.5C15 9.49294 14.4772 8.59465 13.7427 7.96164C13.3456 7.61936 12.8751 7.34386 12.3667 7.16291C12.7606 6.72121 13 6.13875 13 5.5C13 4.11929 11.8807 3 10.5 3Z" fill="black"/>
</g>
</svg>
