<svg width="16" height="16" viewBox="0 0 16 16" fill="none" xmlns="http://www.w3.org/2000/svg">
<g clip-path="url(#clip0)">
<path opacity="0.9" fill-rule="evenodd" clip-rule="evenodd" d="M2.14035 3.14035C3.66081 1.61989 6.12598 1.61988 7.64645 3.14035L8 3.4939L8.35355 3.14035C9.87402 1.61989 12.3392 1.61988 13.8597 3.14035C14.9045 4.18517 15.2313 5.67608 14.8402 7H11C10.8328 7 10.6767 7.08355 10.584 7.22265L10.1511 7.87203L8.97434 4.34189C8.9054 4.13507 8.71041 3.99676 8.49243 4.00006C8.27445 4.00336 8.08373 4.14751 8.02109 4.35633L7.04384 7.61381L6.48507 5.37873C6.43432 5.17574 6.26255 5.02582 6.05456 5.00299C5.84657 4.98015 5.64636 5.08925 5.55279 5.27639L4.69098 7H1.1598C0.768679 5.67608 1.09553 4.18517 2.14035 3.14035ZM1.61817 8C1.76579 8.22902 1.93985 8.44595 2.14035 8.64645L8 14.5061L13.8597 8.64645C14.0602 8.44595 14.2342 8.22902 14.3818 8H11.2676L10.416 9.27735C10.3101 9.43624 10.1229 9.52092 9.93363 9.49558C9.74436 9.47023 9.58605 9.33928 9.52566 9.15811L8.52509 6.15641L7.47891 9.64367C7.41423 9.85929 7.21343 10.0051 6.98838 9.99987C6.76333 9.99463 6.56953 9.83966 6.51493 9.62127L5.84275 6.93254L5.44721 7.72361C5.36252 7.893 5.18939 8 5 8H1.61817ZM1.43324 2.43324C3.23042 0.636063 6.07774 0.529028 8 2.11215C9.92226 0.529034 12.7696 0.636057 14.5668 2.43324C16.4778 4.34423 16.4777 7.44257 14.5668 9.35355L8 15.9203L1.43324 9.35355C-0.477751 7.44256 -0.477743 4.34423 1.43324 2.43324Z" fill="black"/>
</g>
<defs>
<clipPath id="clip0">
<rect width="16" height="16" fill="white"/>
</clipPath>
</defs>
</svg>
