<svg width="32" height="32" viewBox="0 0 32 32" fill="none" xmlns="http://www.w3.org/2000/svg">
<path opacity="0.9" fill-rule="evenodd" clip-rule="evenodd" d="M5.2911 7.2911C8.23069 4.35152 12.9278 4.24064 16 6.95849C19.0722 4.24065 23.7693 4.35151 26.7089 7.29111C29.7637 10.3459 29.7637 15.2988 26.7089 18.3536L16 29.0625L5.2911 18.3536C2.23629 15.2987 2.2363 10.3459 5.2911 7.2911ZM16.9865 9.50018C17.194 9.49459 17.3833 9.61773 17.4623 9.80963L20.5441 17.2938L21.5528 15.2764C21.6375 15.107 21.8106 15 22 15H27.5C27.5479 15 27.5943 15.0067 27.6382 15.0193C27.5245 15.3544 27.3841 15.6824 27.2168 16H22.309L20.9472 18.7236C20.8596 18.8989 20.6776 19.0068 20.4817 18.9997C20.2859 18.9925 20.1123 18.8716 20.0377 18.6904L17.0379 11.4053L13.9719 20.1652C13.9048 20.3571 13.7281 20.4892 13.525 20.4994C13.3219 20.5095 13.1329 20.3957 13.0469 20.2114L9.98447 13.6491L8.94721 15.7236C8.86252 15.893 8.68939 16 8.5 16H4.78317C4.61594 15.6824 4.47549 15.3544 4.36182 15.0193C4.40571 15.0067 4.45207 15 4.5 15H8.19098L9.55279 12.2764C9.63857 12.1048 9.81495 11.9975 10.0068 12C10.1986 12.0026 10.372 12.1147 10.4531 12.2886L13.4338 18.6757L16.5281 9.83482C16.5966 9.63894 16.7791 9.50578 16.9865 9.50018Z" fill="black"/>
</svg>
