<svg width="32" height="32" viewBox="0 0 32 32" fill="none" xmlns="http://www.w3.org/2000/svg">
<g opacity="0.9">
<path d="M6.00012 4C6.00012 2.89543 6.89555 2 8.00012 2H21.8788C22.4092 2 22.9179 2.21071 23.293 2.58579L25.8537 5.14645C25.9967 5.28945 26.0394 5.5045 25.9621 5.69134C25.8847 5.87818 25.7023 6 25.5001 6H6.50012C6.22398 6 6.00012 5.77614 6.00012 5.5V4Z" fill="black"/>
<path d="M6.00012 26.5C6.00012 26.2239 6.22398 26 6.50012 26H25.5001C25.7763 26 26.0001 26.2239 26.0001 26.5V28C26.0001 29.1046 25.1047 30 24.0001 30H8.00012C6.89555 30 6.00012 29.1046 6.00012 28V26.5Z" fill="black"/>
<path d="M23.8296 8.01477C24.3089 7.93175 24.7784 8.20566 24.942 8.66376L28.0002 17.2269V9.00009C28.0002 8.44781 28.448 8.00009 29.0002 8.00009C29.5525 8.00009 30.0002 8.44781 30.0002 9.00009V23.0001C30.0002 23.4865 29.6502 23.9024 29.1709 23.9854C28.6916 24.0684 28.2221 23.7945 28.0585 23.3364L25.0002 14.7733V23.0001C25.0002 23.5524 24.5525 24.0001 24.0002 24.0001C23.448 24.0001 23.0002 23.5524 23.0002 23.0001V9.00009C23.0002 8.51366 23.3503 8.09779 23.8296 8.01477Z" fill="black"/>
<path d="M7.00024 8.00009C7.55253 8.00009 8.00024 8.44781 8.00024 9.00009L8.00024 21.0021L8.00024 21.0044L8.00021 21.0095L8.00005 21.022C7.9999 21.0313 7.99964 21.0426 7.9992 21.0559C7.99832 21.0823 7.99671 21.1165 7.9938 21.1573C7.98799 21.2386 7.97687 21.3481 7.95539 21.477C7.91322 21.73 7.82703 22.0826 7.64467 22.4473C7.46036 22.8159 7.16818 23.215 6.71119 23.5196C6.24795 23.8285 5.67523 24.0001 5.00024 24.0001C4.32526 24.0001 3.75254 23.8285 3.28929 23.5196C2.83231 23.215 2.54013 22.8159 2.35582 22.4473C2.17346 22.0826 2.08727 21.73 2.0451 21.477C2.02362 21.3481 2.0125 21.2386 2.00669 21.1573C2.00378 21.1165 2.00217 21.0823 2.00129 21.0559C2.00085 21.0426 2.00059 21.0313 2.00044 21.022L2.00028 21.0095L2.00025 21.0044L2.00025 21.0021L2.00024 21.0011V20.0001C2.00024 19.4478 2.44796 19.0001 3.00024 19.0001C3.55253 19.0001 4.00024 19.4478 4.00024 20.0001V20.9911C4.0004 20.9951 4.00078 21.0031 4.00161 21.0148C4.00362 21.0429 4.00812 21.0896 4.01789 21.1482C4.03822 21.2702 4.07703 21.4176 4.14467 21.5529C4.21036 21.6842 4.29318 21.7852 4.39869 21.8555C4.49795 21.9217 4.67523 22.0001 5.00024 22.0001C5.32526 22.0001 5.50254 21.9217 5.60179 21.8555C5.70731 21.7852 5.79013 21.6842 5.85582 21.5529C5.92346 21.4176 5.96227 21.2702 5.9826 21.1482C5.99237 21.0896 5.99687 21.0429 5.99888 21.0148C5.99971 21.0031 6.00009 20.9951 6.00024 20.9911V9.00009C6.00024 8.44781 6.44796 8.00009 7.00024 8.00009Z" fill="black"/>
<path d="M12.0002 8.00009C11.3253 8.00009 10.7525 8.17171 10.2893 8.48054C9.83231 8.7852 9.54013 9.18425 9.35582 9.55288C9.17346 9.9176 9.08727 10.2702 9.0451 10.5232C9.02362 10.6521 9.0125 10.7616 9.00669 10.8429C9.00378 10.8837 9.00217 10.9179 9.00129 10.9443C9.00085 10.9576 9.00059 10.9689 9.00044 10.9782L9.00028 10.9907L9.00025 10.9958L9.00025 10.998L9.00024 13.0001C9.00024 13.9163 9.37368 14.6576 9.83452 15.2529C10.2694 15.8146 10.8314 16.3063 11.3075 16.7227L11.3417 16.7527C11.8586 17.2049 12.2799 17.5781 12.5845 17.9716C12.8737 18.3451 13.0002 18.6663 13.0002 19.0001V20.9911C13.0001 20.9951 12.9997 21.0031 12.9989 21.0148C12.9969 21.0429 12.9924 21.0896 12.9826 21.1482C12.9623 21.2702 12.9235 21.4176 12.8558 21.5529C12.7901 21.6842 12.7073 21.7852 12.6018 21.8555C12.5025 21.9217 12.3253 22.0001 12.0002 22.0001C11.6752 22.0001 11.4979 21.9217 11.3987 21.8555C11.2932 21.7852 11.2104 21.6842 11.1447 21.5529C11.077 21.4176 11.0382 21.2702 11.0179 21.1482C11.0081 21.0896 11.0036 21.0429 11.0016 21.0148C11.0008 21.0031 11.0004 20.9951 11.0002 20.9911V20.0001C11.0002 19.4478 10.5525 19.0001 10.0002 19.0001C9.44796 19.0001 9.00024 19.4478 9.00024 20.0001L9.00025 21.0021L9.00025 21.0044L9.00028 21.0095L9.00044 21.022C9.00059 21.0313 9.00085 21.0426 9.00129 21.0559C9.00217 21.0823 9.00378 21.1165 9.00669 21.1573C9.0125 21.2386 9.02362 21.3481 9.0451 21.477C9.08727 21.73 9.17346 22.0826 9.35582 22.4473C9.54013 22.8159 9.83231 23.215 10.2893 23.5196C10.7525 23.8285 11.3253 24.0001 12.0002 24.0001C12.6752 24.0001 13.2479 23.8285 13.7112 23.5196C14.1682 23.215 14.4604 22.8159 14.6447 22.4473C14.827 22.0826 14.9132 21.73 14.9554 21.477C14.9769 21.3481 14.988 21.2386 14.9938 21.1573C14.9967 21.1165 14.9983 21.0823 14.9992 21.0559C14.9996 21.0426 14.9999 21.0313 15.0001 21.022L15.0002 21.0095L15.0002 21.0044L15.0002 21.0021L15.0002 21.0011V19.0001C15.0002 18.0839 14.6268 17.3426 14.166 16.7473C13.7311 16.1856 13.169 15.6939 12.693 15.2775L12.6587 15.2475C12.1419 14.7953 11.7206 14.422 11.416 14.0285C11.1268 13.6551 11.0002 13.3339 11.0002 13.0001V11.0091C11.0004 11.0051 11.0008 10.9971 11.0016 10.9854C11.0036 10.9573 11.0081 10.9106 11.0179 10.852C11.0382 10.73 11.077 10.5826 11.1447 10.4473C11.2104 10.3159 11.2932 10.215 11.3987 10.1446C11.4979 10.0785 11.6752 10.0001 12.0002 10.0001C12.3253 10.0001 12.5025 10.0785 12.6018 10.1446C12.7073 10.215 12.7901 10.3159 12.8558 10.4473C12.9235 10.5826 12.9623 10.73 12.9826 10.852C12.9924 10.9106 12.9969 10.9573 12.9989 10.9854C12.9994 10.9931 12.9998 10.9992 13 11.0037C13.0001 11.0059 13.0002 11.0078 13.0002 11.0091V12.0001C13.0002 12.5524 13.448 13.0001 14.0002 13.0001C14.5525 13.0001 15.0002 12.5524 15.0002 12.0001V11.0001L15.0001 11.5C14.9938 11.5 15.0002 10.9991 15.0002 10.9991L15.0002 10.998L15.0002 10.9958L15.0002 10.9907L15.0001 10.9782C14.9999 10.9689 14.9996 10.9576 14.9992 10.9443C14.9983 10.9179 14.9967 10.8837 14.9938 10.8429C14.988 10.7616 14.9769 10.6521 14.9554 10.5232C14.9132 10.2702 14.827 9.9176 14.6447 9.55288C14.4604 9.18425 14.1682 8.7852 13.7112 8.48054C13.2479 8.17171 12.6752 8.00009 12.0002 8.00009Z" fill="black"/>
<path fill-rule="evenodd" clip-rule="evenodd" d="M22.0002 10.9991L22.0002 10.9958L22.0002 10.9907L22.0001 10.9782C21.9999 10.9689 21.9996 10.9576 21.9992 10.9443C21.9983 10.9179 21.9967 10.8837 21.9938 10.8429C21.988 10.7616 21.9769 10.6521 21.9554 10.5232C21.9132 10.2702 21.827 9.9176 21.6447 9.55288C21.4604 9.18425 21.1682 8.7852 20.7112 8.48054C20.2479 8.17171 19.6752 8.00009 19.0002 8.00009C18.3253 8.00009 17.7525 8.17171 17.2893 8.48054C16.8323 8.7852 16.5401 9.18425 16.3558 9.55288C16.1735 9.9176 16.0873 10.2702 16.0451 10.5232C16.0236 10.6521 16.0125 10.7616 16.0067 10.8429C16.0038 10.8837 16.0022 10.9179 16.0013 10.9443C16.0008 10.9576 16.0006 10.9689 16.0004 10.9782L16.0003 10.9907L16.0003 10.9958L16.0002 10.998L16.0002 10.9991L16.0002 21.0021L16.0003 21.0044L16.0003 21.0095L16.0004 21.022C16.0006 21.0313 16.0008 21.0426 16.0013 21.0559C16.0022 21.0823 16.0038 21.1165 16.0067 21.1573C16.0125 21.2386 16.0236 21.3481 16.0451 21.477C16.0873 21.73 16.1735 22.0826 16.3558 22.4473C16.5401 22.8159 16.8323 23.215 17.2893 23.5196C17.7525 23.8285 18.3253 24.0001 19.0002 24.0001C19.6752 24.0001 20.2479 23.8285 20.7112 23.5196C21.1682 23.215 21.4604 22.8159 21.6447 22.4473C21.827 22.0826 21.9132 21.73 21.9554 21.477C21.9769 21.3481 21.988 21.2386 21.9938 21.1573C21.9967 21.1165 21.9983 21.0823 21.9992 21.0559C21.9996 21.0426 21.9999 21.0313 22.0001 21.022L22.0002 21.0095L22.0002 21.0044L22.0002 21.0011V10.9991ZM18.0002 11.0091V20.9911C18.0004 20.9951 18.0008 21.0031 18.0016 21.0148C18.0036 21.0429 18.0081 21.0896 18.0179 21.1482C18.0382 21.2702 18.077 21.4176 18.1447 21.5529C18.2104 21.6842 18.2932 21.7852 18.3987 21.8555C18.4979 21.9217 18.6752 22.0001 19.0002 22.0001C19.3253 22.0001 19.5025 21.9217 19.6018 21.8555C19.7073 21.7852 19.7901 21.6842 19.8558 21.5529C19.9235 21.4176 19.9623 21.2702 19.9826 21.1482C19.9924 21.0896 19.9969 21.0429 19.9989 21.0148L19.9998 21L20.0002 20.9911V11.0091C20.0001 11.0051 19.9997 10.9971 19.9989 10.9854C19.9969 10.9573 19.9924 10.9106 19.9826 10.852C19.9623 10.73 19.9235 10.5826 19.8558 10.4473C19.7901 10.3159 19.7073 10.215 19.6018 10.1446C19.5025 10.0785 19.3253 10.0001 19.0002 10.0001C18.6752 10.0001 18.4979 10.0785 18.3987 10.1446C18.2932 10.215 18.2104 10.3159 18.1447 10.4473C18.077 10.5826 18.0382 10.73 18.0179 10.852C18.0081 10.9106 18.0036 10.9573 18.0016 10.9854C18.0008 10.9971 18.0004 11.0051 18.0002 11.0091Z" fill="black"/>
</g>
</svg>
