<svg width="16" height="16" viewBox="0 0 16 16" fill="none" xmlns="http://www.w3.org/2000/svg">
<g opacity="0.9">
<path d="M4.5 0C3.67157 0 3 0.671573 3 1.5C3 1.77614 3.22386 2 3.5 2C3.77614 2 4 1.77614 4 1.5C4 1.22386 4.22386 1 4.5 1H13.2929L14.1464 1.85355C14.3417 2.04882 14.6583 2.04882 14.8536 1.85355C15.0488 1.65829 15.0488 1.34171 14.8536 1.14645L13.8536 0.146447C13.7598 0.0526784 13.6326 0 13.5 0H4.5Z" fill="black"/>
<path d="M4 14.5C4 14.2239 3.77614 14 3.5 14C3.22386 14 3 14.2239 3 14.5C3 15.3284 3.67157 16 4.5 16H13.5C14.3284 16 15 15.3284 15 14.5C15 14.2239 14.7761 14 14.5 14C14.2239 14 14 14.2239 14 14.5C14 14.7761 13.7761 15 13.5 15H4.5C4.22386 15 4 14.7761 4 14.5Z" fill="black"/>
<path d="M12.9596 4.30309C12.8661 4.08489 12.632 3.96253 12.3995 4.01026C12.1669 4.05799 12 4.26266 12 4.50005V11.5C12 11.7762 12.2239 12 12.5 12C12.7761 12 13 11.7762 13 11.5V6.93601L15.0404 11.697C15.1339 11.9152 15.368 12.0376 15.6005 11.9898C15.8331 11.9421 16 11.7374 16 11.5V4.50005C16 4.22391 15.7761 4.00005 15.5 4.00005C15.2239 4.00005 15 4.22391 15 4.50005V9.06409L12.9596 4.30309Z" fill="black"/>
<path d="M3 4.50005C3 4.22391 2.77614 4.00005 2.5 4.00005C2.22386 4.00005 2 4.22391 2 4.50005V10.4955L1.99932 10.5074C1.99831 10.5214 1.99606 10.5448 1.99118 10.5741C1.98101 10.6351 1.96161 10.7088 1.92779 10.7764C1.89494 10.8421 1.85353 10.8926 1.80077 10.9278C1.75115 10.9609 1.66251 11 1.5 11C1.33749 11 1.24885 10.9609 1.19923 10.9278C1.14647 10.8926 1.10506 10.8421 1.07221 10.7764C1.03839 10.7088 1.01899 10.6351 1.00882 10.5741C1.00162 10.5309 0.999973 10.4948 0.999973 10.4948C0.997166 10.2211 0.774396 10 0.5 10C0.223858 10 0 10.2239 0 10.5V10.5011L4.35114e-06 10.5022L9.55462e-05 10.511L0.00052169 10.5279C0.000962377 10.5412 0.00176641 10.5582 0.00322378 10.5786C0.00612637 10.6193 0.0116892 10.6741 0.022428 10.7385C0.0435107 10.865 0.0866078 11.0413 0.177786 11.2237C0.269944 11.408 0.416032 11.6075 0.644525 11.7598C0.876148 11.9142 1.16251 12 1.5 12C1.83749 12 2.12385 11.9142 2.35547 11.7598C2.58397 11.6075 2.73006 11.408 2.82221 11.2237C2.91339 11.0413 2.95649 10.865 2.97757 10.7385C2.98831 10.6741 2.99387 10.6193 2.99678 10.5786C2.99678 10.5786 2.99322 10.5092 3 10.5022L3 10.5V4.50005Z" fill="black"/>
<path d="M5.5 4.00005C5.16251 4.00005 4.87615 4.08586 4.64453 4.24027C4.41603 4.3926 4.26994 4.59213 4.17779 4.77644C4.08661 4.9588 4.04351 5.1351 4.02243 5.2616C4.01169 5.32603 4.00613 5.38082 4.00322 5.42146C4.00138 5.44724 4.00013 5.47317 4 5.49902L4 6.50005C4 6.9132 4.20346 7.27133 4.4125 7.55005C4.62149 7.8287 4.89259 8.09978 5.13271 8.33986L5.14645 8.3536C5.40298 8.61014 5.62549 8.83403 5.7875 9.05005C5.95346 9.27133 6 9.4132 6 9.50005V10.4955L5.99932 10.5074C5.99831 10.5214 5.99606 10.5448 5.99118 10.5741C5.98101 10.6351 5.96161 10.7088 5.92779 10.7764C5.89494 10.8421 5.85353 10.8926 5.80078 10.9278C5.75115 10.9609 5.66251 11 5.5 11C5.33749 11 5.24885 10.9609 5.19922 10.9278C5.14647 10.8926 5.10506 10.8421 5.07221 10.7764C5.03839 10.7088 5.01899 10.6351 5.00882 10.5741C5.00394 10.5448 5.00169 10.5214 5.00068 10.5074L5 10.4955V10C5 9.72391 4.77614 9.50005 4.5 9.50005C4.22386 9.50005 4 9.72391 4 10L4 10.5011L4 10.5022L4.0001 10.511L4.00052 10.5279C4.00096 10.5412 4.00177 10.5582 4.00322 10.5786C4.00613 10.6193 4.01169 10.6741 4.02243 10.7385C4.04351 10.865 4.08661 11.0413 4.17779 11.2237C4.26994 11.408 4.41603 11.6075 4.64453 11.7598C4.87615 11.9142 5.16251 12 5.5 12C5.83749 12 6.12385 11.9142 6.35547 11.7598C6.58397 11.6075 6.73006 11.408 6.82221 11.2237C6.91339 11.0413 6.95649 10.865 6.97757 10.7385C6.98831 10.6741 6.99387 10.6193 6.99678 10.5786L6.99729 10.5711C6.99843 10.554 6.99909 10.5395 6.99948 10.5279L6.9999 10.511L6.99998 10.5047L7 10.5022C7.00068 10.2714 7.00052 10.1339 7.0003 9.94419C7.00016 9.82743 7 9.6904 7 9.50005C7 9.0869 6.79654 8.72877 6.5875 8.45005C6.37851 8.1714 6.10742 7.90033 5.8673 7.66024L5.85355 7.6465C5.59702 7.38996 5.37451 7.16607 5.2125 6.95005C5.04654 6.72877 5 6.5869 5 6.50005V5.50456L5.00068 5.4927C5.00169 5.47865 5.00394 5.45532 5.00882 5.426C5.01899 5.365 5.03839 5.2913 5.07221 5.22366C5.10506 5.15797 5.14647 5.1075 5.19922 5.07232C5.24885 5.03924 5.33749 5.00005 5.5 5.00005C5.66251 5.00005 5.75115 5.03924 5.80078 5.07232C5.85353 5.1075 5.89494 5.15797 5.92779 5.22366C5.96161 5.2913 5.98101 5.365 5.99118 5.426C5.99606 5.45532 5.99831 5.47865 5.99932 5.4927L6 5.50456V6.00005C6 6.27619 6.22386 6.50005 6.5 6.50005C6.77614 6.50005 7 6.27619 7 6.00005L7 5.49902L7 5.4979L6.99998 5.49536L6.9999 5.48912L6.99948 5.47216C6.99904 5.45894 6.99823 5.44186 6.99678 5.42146C6.99387 5.38082 6.98831 5.32603 6.97757 5.2616C6.95649 5.1351 6.91339 4.9588 6.82221 4.77644C6.73006 4.59213 6.58397 4.3926 6.35547 4.24027C6.12385 4.08586 5.83749 4.00005 5.5 4.00005Z" fill="black"/>
<path fill-rule="evenodd" clip-rule="evenodd" d="M8 5.4979L8 5.49955L8 10.5011L8 10.5022L8.00002 10.5047L8.0001 10.511L8.00052 10.5279C8.00096 10.5412 8.00177 10.5582 8.00322 10.5786C8.00613 10.6193 8.01169 10.6741 8.02243 10.7385C8.04351 10.865 8.08661 11.0413 8.17779 11.2237C8.26994 11.408 8.41603 11.6075 8.64452 11.7598C8.87615 11.9142 9.16251 12 9.5 12C9.83749 12 10.1239 11.9142 10.3555 11.7598C10.584 11.6075 10.7301 11.408 10.8222 11.2237C10.9134 11.0413 10.9565 10.865 10.9776 10.7385C10.9883 10.6741 10.9939 10.6193 10.9968 10.5786C10.9982 10.5582 10.999 10.5412 10.9995 10.5279L10.9999 10.511L11 10.5047L11 10.5022L11 10.5011V5.49902L11 5.4979L11 5.49536L10.9999 5.48912L10.9995 5.47216C10.999 5.45894 10.9982 5.44186 10.9968 5.42146C10.9939 5.38082 10.9883 5.32603 10.9776 5.2616C10.9565 5.1351 10.9134 4.9588 10.8222 4.77644C10.7301 4.59213 10.584 4.3926 10.3555 4.24027C10.1239 4.08586 9.83749 4.00005 9.5 4.00005C9.16251 4.00005 8.87615 4.08586 8.64452 4.24027C8.41603 4.3926 8.26994 4.59213 8.17779 4.77644C8.08661 4.9588 8.04351 5.1351 8.02243 5.2616C8.01169 5.32603 8.00613 5.38082 8.00322 5.42146L8.00271 5.42895C8.00157 5.44607 8.00091 5.46059 8.00052 5.47216L8.0001 5.48912L8.00002 5.49536L8 5.4979ZM9.00068 10.5074L9 10.4955V5.50456L9.00068 5.4927C9.00169 5.47865 9.00394 5.45532 9.00882 5.426C9.01899 5.365 9.03839 5.2913 9.07221 5.22366C9.10506 5.15797 9.14647 5.1075 9.19923 5.07232C9.24885 5.03924 9.33749 5.00005 9.5 5.00005C9.66251 5.00005 9.75115 5.03924 9.80077 5.07232C9.85353 5.1075 9.89494 5.15797 9.92779 5.22366C9.96161 5.2913 9.98101 5.365 9.99118 5.426C9.99606 5.45532 9.99831 5.47865 9.99932 5.4927L10 5.50456V10.4955L9.99932 10.5074C9.99831 10.5214 9.99606 10.5448 9.99118 10.5741C9.98101 10.6351 9.96161 10.7088 9.92779 10.7764C9.89494 10.8421 9.85353 10.8926 9.80077 10.9278C9.75115 10.9609 9.66251 11 9.5 11C9.33749 11 9.24885 10.9609 9.19923 10.9278C9.14647 10.8926 9.10506 10.8421 9.07221 10.7764C9.03839 10.7088 9.01899 10.6351 9.00882 10.5741C9.00394 10.5448 9.00169 10.5214 9.00068 10.5074Z" fill="black"/>
</g>
</svg>
