<svg width="24" height="24" viewBox="0 0 24 24" fill="none" xmlns="http://www.w3.org/2000/svg">
<g opacity="0.9">
<path d="M6.99996 1C5.8954 1 4.99996 1.89543 4.99996 3V3.5C4.99996 3.77614 5.22382 4 5.49996 4C5.77611 4 5.99996 3.77614 5.99996 3.5V3C5.99996 2.44772 6.44768 2 6.99996 2H17.8786C18.1439 2 18.3982 2.10536 18.5858 2.29289L20.1464 3.85355C20.3417 4.04882 20.6583 4.04882 20.8535 3.85355C21.0488 3.65829 21.0488 3.34171 20.8535 3.14645L19.2929 1.58579C18.9178 1.21071 18.4091 1 17.8786 1H6.99996Z" fill="black"/>
<path d="M5.99996 20.5C5.99996 20.2239 5.77611 20 5.49996 20C5.22382 20 4.99996 20.2239 4.99996 20.5V21C4.99996 22.1046 5.8954 23 6.99997 23H19C20.1045 23 21 22.1046 21 21V20.5C21 20.2239 20.7761 20 20.5 20C20.2238 20 20 20.2239 20 20.5V21C20 21.5523 19.5522 22 19 22H6.99997C6.44768 22 5.99996 21.5523 5.99996 21V20.5Z" fill="black"/>
<path d="M5.49996 6C5.77611 6 5.99996 6.22386 5.99996 6.5V16C5.99996 16 5.99988 16 5.96972 15.9969L5.99996 16L5.99996 16.001L5.99996 16.0022L5.99994 16.0051L5.99985 16.0124L5.99932 16.0335C5.99876 16.0504 5.99771 16.0728 5.99576 16.1001C5.99188 16.1544 5.98437 16.2287 5.96972 16.3166C5.94083 16.4899 5.88211 16.7287 5.75968 16.9736C5.63627 17.2204 5.44331 17.4824 5.1445 17.6817C4.84257 17.8829 4.46246 18 3.99996 18C3.53747 18 3.15736 17.8829 2.85543 17.6817C2.55662 17.4824 2.36366 17.2204 2.24025 16.9736C2.11782 16.7287 2.0591 16.4899 2.03021 16.3166C2.01556 16.2287 2.00804 16.1544 2.00416 16.1001C2.00222 16.0728 2.00117 16.0504 2.00061 16.0335L2.00008 16.0124L1.99999 16.0051L1.99997 16.0022L1.99996 16.001L1.99988 16L1.99996 15.5C1.99996 15.2239 2.22382 15 2.49996 15C2.77611 15 2.99996 15.2239 2.99996 15.5V15.9969L3.00005 16.0002C3.00022 16.0053 3.00064 16.0151 3.00162 16.0288C3.0036 16.0566 3.00781 16.0994 3.0166 16.1522C3.03458 16.2601 3.06961 16.3963 3.13468 16.5264C3.19877 16.6546 3.28706 16.7676 3.41013 16.8496C3.53007 16.9296 3.71246 17 3.99996 17C4.28747 17 4.46986 16.9296 4.5898 16.8496C4.71287 16.7676 4.80116 16.6546 4.86525 16.5264C4.93032 16.3963 4.96535 16.2601 4.98333 16.1522C4.99212 16.0994 4.99633 16.0566 4.99831 16.0288C4.99929 16.0151 4.99971 16.0053 4.99988 16.0002L4.99997 15.9983L4.99997 15.9971L4.99988 16.0002L4.99996 6.5C4.99996 6.22386 5.22382 6 5.49996 6Z" fill="black"/>
<path d="M17.4132 6.00763C17.6522 5.96553 17.8869 6.10111 17.9699 6.32918L21 14.662V6.50005C21 6.22391 21.2238 6.00005 21.5 6.00005C21.7761 6.00005 22 6.22391 22 6.50005V17.5C22 17.7427 21.8257 17.9504 21.5867 17.9925C21.3477 18.0346 21.113 17.899 21.0301 17.6709L18 9.33813V17.5C18 17.7762 17.7761 18 17.5 18C17.2238 18 17 17.7762 17 17.5V6.50005C17 6.25737 17.1742 6.04974 17.4132 6.00763Z" fill="black"/>
<path fill-rule="evenodd" clip-rule="evenodd" d="M8.99996 6C8.53747 6 8.15736 6.11706 7.85543 6.31835C7.55662 6.51755 7.36366 6.77958 7.24025 7.02639C7.11782 7.27125 7.0591 7.51005 7.03021 7.68343C7.01556 7.7713 7.00804 7.84562 7.00417 7.89992C7.00222 7.92716 7.00117 7.94961 7.00061 7.9665L7.00008 7.98763L6.99999 7.99494L6.99997 7.99776L6.99997 7.99895L6.99996 8L7.00061 7.9665L7.06257 8.0001C7.00096 8.00013 6.99996 8 6.99996 8V10C6.99996 11.2702 7.96158 11.9098 8.66247 12.376L8.72261 12.416C9.51802 12.9463 9.99996 13.307 9.99996 14L9.99988 16.0002C9.99971 16.0053 9.99929 16.0151 9.99831 16.0288C9.99633 16.0566 9.99212 16.0994 9.98333 16.1522C9.96535 16.2601 9.93032 16.3963 9.86525 16.5264C9.80116 16.6546 9.71287 16.7676 9.5898 16.8496C9.46986 16.9296 9.28747 17 8.99996 17C8.71246 17 8.53007 16.9296 8.41013 16.8496C8.28706 16.7676 8.19877 16.6546 8.13468 16.5264C8.06961 16.3963 8.03458 16.2601 8.0166 16.1522C8.00781 16.0994 8.0036 16.0566 8.00162 16.0288C8.00064 16.0151 8.00022 16.0053 8.00005 16.0002L7.99996 15.9969V15.5C7.99996 15.2239 7.77611 15 7.49996 15C7.22382 15 6.99996 15.2239 6.99996 15.5V16L6.99997 16.001L6.99997 16.0022L6.99999 16.0051L7.00008 16.0124L7.00061 16.0335C7.00117 16.0504 7.00222 16.0728 7.00417 16.1001C7.00804 16.1544 7.01556 16.2287 7.03021 16.3166C7.0591 16.4899 7.11782 16.7287 7.24025 16.9736C7.36366 17.2204 7.55662 17.4824 7.85543 17.6817C8.15736 17.8829 8.53747 18 8.99996 18C9.46246 18 9.84257 17.8829 10.1445 17.6817C10.4433 17.4824 10.6363 17.2204 10.7597 16.9736C10.8821 16.7287 10.9408 16.4899 10.9697 16.3166C10.9844 16.2287 10.9919 16.1544 10.9958 16.1001C10.9977 16.0728 10.9988 16.0504 10.9993 16.0335L10.9999 16.0124L10.9999 16.0051L11 16.0022L11 16.001L11 16V14C11 12.7298 10.0383 12.0902 9.33746 11.624L9.27732 11.584C8.48191 11.0537 7.99996 10.693 7.99996 10V8.00306L8.00005 7.99981C8.00022 7.99472 8.00064 7.98495 8.00162 7.97117C8.0036 7.94345 8.00781 7.90058 8.0166 7.84782C8.03458 7.73995 8.06961 7.60375 8.13468 7.47361C8.19877 7.34542 8.28706 7.23245 8.41013 7.1504C8.53007 7.07044 8.71246 7 8.99996 7C9.28747 7 9.46986 7.07044 9.5898 7.1504C9.71287 7.23245 9.80116 7.34542 9.86525 7.47361C9.93032 7.60375 9.96535 7.73995 9.98333 7.84782C9.99212 7.90058 9.99633 7.94345 9.99831 7.97117C9.99929 7.98495 9.99971 7.99472 9.99988 7.99981L9.99996 8.00305V8.5C9.99996 8.77614 10.2238 9 10.5 9C10.7761 9 11 8.77614 11 8.5V8L10.9999 7.98763L11 7.99895L11 7.99776L10.9999 7.99494L10.9999 7.98763L10.9993 7.9665C10.9988 7.94961 10.9977 7.92716 10.9958 7.89992C10.9919 7.84562 10.9844 7.7713 10.9697 7.68343C10.9408 7.51005 10.8821 7.27125 10.7597 7.02639C10.6363 6.77958 10.4433 6.51755 10.1445 6.31835C9.84257 6.11706 9.46246 6 8.99996 6ZM10.9697 15.9969L11 16C11 16 11 16 10.9697 15.9969ZM9.99988 16.0002L9.99997 15.9971L9.99997 15.9983L9.99988 16.0002Z" fill="black"/>
<path fill-rule="evenodd" clip-rule="evenodd" d="M12 16L12 16.001L12 16.0022L12 16.0051L12.0001 16.0124L12.0006 16.0335C12.0012 16.0504 12.0022 16.0728 12.0042 16.1001C12.008 16.1544 12.0156 16.2287 12.0302 16.3166C12.0591 16.4899 12.1178 16.7287 12.2403 16.9736C12.3637 17.2204 12.5566 17.4824 12.8554 17.6817C13.1574 17.8829 13.5375 18 14 18C14.4625 18 14.8426 17.8829 15.1445 17.6817C15.4433 17.4824 15.6363 17.2204 15.7597 16.9736C15.8821 16.7287 15.9408 16.4899 15.9697 16.3166C15.9844 16.2287 15.9919 16.1544 15.9958 16.1001C15.9977 16.0728 15.9988 16.0504 15.9993 16.0335L15.9999 16.0124L15.9999 16.0051L16 16.0022L16 16.001L15.9999 16L16 7.99949L16 7.99776L15.9999 7.99494L15.9999 7.98763L15.9993 7.9665C15.9988 7.94961 15.9977 7.92716 15.9958 7.89992C15.9919 7.84562 15.9844 7.7713 15.9697 7.68343C15.9408 7.51005 15.8821 7.27125 15.7597 7.02639C15.6363 6.77958 15.4433 6.51755 15.1445 6.31835C14.8426 6.11706 14.4625 6 14 6C13.5375 6 13.1574 6.11706 12.8554 6.31835C12.5566 6.51755 12.3637 6.77958 12.2403 7.02639C12.1178 7.27125 12.0591 7.51005 12.0302 7.68343C12.0156 7.7713 12.008 7.84562 12.0042 7.89992C12.0022 7.92716 12.0012 7.94961 12.0006 7.9665L12.0001 7.98763L12 7.99494L12 7.99776L12 7.99895C12 7.99895 12 8 12.0006 7.9665L12 8V16ZM13 8.00306V15.9969L13.0001 16.0002L13.0003 16.0071C13.0005 16.0102 13.0007 16.014 13.0009 16.0184C13.0011 16.0215 13.0014 16.025 13.0016 16.0288C13.0036 16.0566 13.0078 16.0994 13.0166 16.1522C13.0346 16.2601 13.0696 16.3963 13.1347 16.5264C13.1988 16.6546 13.2871 16.7676 13.4101 16.8496C13.5301 16.9296 13.7125 17 14 17C14.2875 17 14.4699 16.9296 14.5898 16.8496C14.7129 16.7676 14.8012 16.6546 14.8653 16.5264C14.9303 16.3963 14.9654 16.2601 14.9833 16.1522C14.9921 16.0994 14.9963 16.0566 14.9983 16.0288C14.9993 16.0151 14.9997 16.0053 14.9999 16.0002L15 15.9983L15 15.9971L14.9999 16.0002L15 8.00305L14.9999 7.99981C14.9997 7.99472 14.9993 7.98495 14.9983 7.97117C14.9963 7.94345 14.9921 7.90058 14.9833 7.84782C14.9654 7.73995 14.9303 7.60375 14.8653 7.47361C14.8012 7.34542 14.7129 7.23245 14.5898 7.1504C14.4699 7.07044 14.2875 7 14 7C13.7125 7 13.5301 7.07044 13.4101 7.1504C13.2871 7.23245 13.1988 7.34542 13.1347 7.47361C13.0696 7.60375 13.0346 7.73995 13.0166 7.84782C13.0078 7.90058 13.0036 7.94345 13.0016 7.97117C13.0006 7.98495 13.0002 7.99472 13.0001 7.99981L13 8.00306ZM12 16V15.9969C11.9999 16 12 16 12 16Z" fill="black"/>
</g>
</svg>
