<svg width="32" height="32" viewBox="0 0 32 32" fill="none" xmlns="http://www.w3.org/2000/svg">
<g opacity="0.9">
<path d="M8 2C6.89543 2 6 2.89543 6 4V5.5C6 5.77614 6.22386 6 6.5 6C6.77614 6 7 5.77614 7 5.5V4C7 3.44772 7.44772 3 8 3H21.8787C22.1439 3 22.3983 3.10536 22.5858 3.29289L25.1464 5.85355C25.3417 6.04882 25.6583 6.04882 25.8536 5.85355C26.0488 5.65829 26.0488 5.34171 25.8536 5.14645L23.2929 2.58579C22.9178 2.21071 22.4091 2 21.8787 2H8Z" fill="black"/>
<path d="M7 26.5C7 26.2239 6.77614 26 6.5 26C6.22386 26 6 26.2239 6 26.5V28C6 29.1046 6.89543 30 8 30H24C25.1046 30 26 29.1046 26 28V26.5C26 26.2239 25.7761 26 25.5 26C25.2239 26 25 26.2239 25 26.5V28C25 28.5523 24.5523 29 24 29H8C7.44772 29 7 28.5523 7 28V26.5Z" fill="black"/>
<path d="M6.5 8C6.77614 8 7 8.22386 7 8.5L7 21.5011L6.99999 21.5023L6.99998 21.5054L6.99987 21.5138L6.99923 21.5391C6.99855 21.5597 6.99726 21.5875 6.99482 21.6216C6.98997 21.6895 6.9805 21.7834 6.96195 21.8947C6.92524 22.1149 6.85089 22.4162 6.69721 22.7236C6.54256 23.0329 6.30272 23.3574 5.9336 23.6035C5.56135 23.8517 5.08749 24 4.5 24C3.91251 24 3.43865 23.8517 3.0664 23.6035C2.69728 23.3574 2.45744 23.0329 2.30279 22.7236C2.14911 22.4162 2.07476 22.1149 2.03805 21.8947C2.0195 21.7834 2.01003 21.6895 2.00518 21.6216C2.00274 21.5875 2.00145 21.5597 2.00077 21.5391L2.00013 21.5138L2.00002 21.5054L2 21.5023L2 21.5011V20.5C2 20.2239 2.22386 20 2.5 20C2.77614 20 3 20.2239 3 20.5V21.4978L3.00021 21.5058C3.0005 21.5146 3.00116 21.5297 3.00264 21.5503C3.00559 21.5917 3.01175 21.6541 3.02445 21.7303C3.05024 21.8851 3.10089 22.0838 3.19721 22.2764C3.29256 22.4671 3.42772 22.6426 3.6211 22.7715C3.81135 22.8983 4.08749 23 4.5 23C4.91251 23 5.18865 22.8983 5.3789 22.7715C5.57228 22.6426 5.70744 22.4671 5.80279 22.2764C5.89911 22.0838 5.94976 21.8851 5.97555 21.7303C5.98825 21.6541 5.99441 21.5917 5.99736 21.5503C5.99884 21.5297 5.9995 21.5146 5.99979 21.5058L6 21.4978V8.5C6 8.22386 6.22386 8 6.5 8Z" fill="black"/>
<path d="M23.4199 8.0065C23.662 7.96722 23.8968 8.10929 23.9743 8.34193L28 20.4189V8.50005C28 8.2239 28.2239 8.00005 28.5 8.00005C28.7761 8.00005 29 8.2239 29 8.50005V23.5C29 23.7453 28.8222 23.9543 28.5801 23.9936C28.338 24.0329 28.1032 23.8908 28.0257 23.6582L24 11.5812V23.5C24 23.7762 23.7761 24 23.5 24C23.2239 24 23 23.7762 23 23.5V8.50005C23 8.25482 23.1778 8.04578 23.4199 8.0065Z" fill="black"/>
<path d="M10.0664 8.39648C10.4387 8.14831 10.9125 8 11.5 8C12.0875 8 12.5614 8.14831 12.9336 8.39648C13.3028 8.64255 13.5426 8.96708 13.6972 9.27639C13.8509 9.58375 13.9253 9.88505 13.962 10.1053C13.9805 10.2166 13.99 10.3105 13.9949 10.3784C13.9973 10.4125 13.9986 10.4403 13.9993 10.4609L13.9999 10.4862L14 10.4946L14 10.4977L14 10.4989C14 10.4989 13.9993 10.4609 14 10.5V11.5C14 11.7761 13.7762 12 13.5 12C13.2239 12 13 11.7761 13 11.5V10.5022L12.9998 10.4942C12.9995 10.4854 12.9989 10.4703 12.9974 10.4497C12.9944 10.4083 12.9883 10.3459 12.9756 10.2697C12.9498 10.1149 12.8991 9.91625 12.8028 9.72361C12.7075 9.53292 12.5723 9.35745 12.3789 9.22853C12.1887 9.10169 11.9125 9 11.5 9C11.0875 9 10.8114 9.10169 10.6211 9.22853C10.4278 9.35745 10.2926 9.53292 10.1972 9.72361C10.1009 9.91625 10.0503 10.1149 10.0245 10.2697C10.0118 10.3459 10.0056 10.4083 10.0027 10.4497C10.0012 10.4703 10.0005 10.4854 10.0002 10.4942L10 10.5022V13.5C10 13.9695 10.1799 14.3196 10.4857 14.6381C10.8096 14.9755 11.2525 15.2557 11.765 15.576L11.7917 15.5927C12.2728 15.8933 12.8174 16.2336 13.2357 16.6694C13.6799 17.1321 14 17.7195 14 18.5L14 21.5011L14 21.5023L14 21.5054L13.9999 21.5138L13.9993 21.5391C13.9986 21.5597 13.9973 21.5875 13.9949 21.6216C13.99 21.6895 13.9805 21.7834 13.962 21.8947C13.9253 22.1149 13.8509 22.4162 13.6972 22.7236C13.5426 23.0329 13.3028 23.3574 12.9336 23.6035C12.5614 23.8517 12.0875 24 11.5 24C10.9125 24 10.4387 23.8517 10.0664 23.6035C9.69732 23.3574 9.45748 23.0329 9.30282 22.7236C9.14914 22.4162 9.07479 22.1149 9.03809 21.8947C9.01954 21.7834 9.01007 21.6895 9.00521 21.6216C9.00278 21.5875 9.00148 21.5597 9.0008 21.5391L9.00016 21.5138L9.00006 21.5054L9.00004 21.5023L9.00003 21.5011L9 21.5L9.00003 20.5C9.00003 20.2239 9.22389 20 9.50003 20C9.77618 20 10 20.2239 10 20.5V21.4978L10.0002 21.5058C10.0005 21.5146 10.0012 21.5297 10.0027 21.5503C10.0056 21.5917 10.0118 21.6541 10.0245 21.7303C10.0503 21.8851 10.1009 22.0838 10.1972 22.2764C10.2926 22.4671 10.4278 22.6426 10.6211 22.7715C10.8114 22.8983 11.0875 23 11.5 23C11.9125 23 12.1887 22.8983 12.3789 22.7715C12.5723 22.6426 12.7075 22.4671 12.8028 22.2764C12.8991 22.0838 12.9498 21.8851 12.9756 21.7303C12.9883 21.6541 12.9944 21.5917 12.9974 21.5503C12.9989 21.5297 12.9995 21.5146 12.9998 21.5058L13 21.4978V18.5C13 18.0305 12.8201 17.6804 12.5143 17.3619C12.1904 17.0245 11.7475 16.7443 11.235 16.424L11.2084 16.4073C10.7273 16.1067 10.1827 15.7664 9.76434 15.3306C9.32013 14.8679 9.00003 14.2805 9.00003 13.5V10.5L9.00003 10.4989L9.00004 10.4977L9.00006 10.4946L9.00016 10.4862L9.0008 10.4609C9.00148 10.4403 9.00278 10.4125 9.00521 10.3784C9.01007 10.3105 9.01954 10.2166 9.03809 10.1053C9.07479 9.88505 9.14914 9.58375 9.30282 9.27639C9.45748 8.96708 9.69732 8.64255 10.0664 8.39648Z" fill="black"/>
<path fill-rule="evenodd" clip-rule="evenodd" d="M16 21.5011L16 10.5C16 10.5 16.0051 10.3784 16.0008 10.4609C16.0015 10.4403 16.0027 10.4125 16.0052 10.3784C16.01 10.3105 16.0195 10.2166 16.0381 10.1053C16.0748 9.88505 16.1491 9.58375 16.3028 9.27639C16.4574 8.96708 16.6973 8.64255 17.0664 8.39648C17.4386 8.14831 17.9125 8 18.5 8C19.0875 8 19.5614 8.14831 19.9336 8.39648C20.3027 8.64255 20.5426 8.96708 20.6972 9.27639C20.8509 9.58375 20.9252 9.88505 20.9619 10.1053C20.9805 10.2166 20.99 10.3105 20.9948 10.3784C20.9973 10.4125 20.9986 10.4403 20.9992 10.4609L20.9999 10.4862L21 10.4946L21 10.4977L21 10.4989V21.5011L21 21.5023L21 21.5054L20.9999 21.5138L20.9992 21.5391C20.9986 21.5597 20.9973 21.5875 20.9948 21.6216C20.99 21.6895 20.9805 21.7834 20.9619 21.8947C20.9252 22.1149 20.8509 22.4162 20.6972 22.7236C20.5426 23.0329 20.3027 23.3574 19.9336 23.6035C19.5614 23.8517 19.0875 24 18.5 24C17.9125 24 17.4386 23.8517 17.0664 23.6035C16.6973 23.3574 16.4574 23.0329 16.3028 22.7236C16.1491 22.4162 16.0748 22.1149 16.0381 21.8947C16.0195 21.7834 16.01 21.6895 16.0052 21.6216C16.0027 21.5875 16.0015 21.5597 16.0008 21.5391L16.0001 21.5138L16 21.5054L16 21.5023L16 21.5011ZM17 10.5022L17.0002 10.4942C17.0005 10.4854 17.0012 10.4703 17.0026 10.4497C17.0056 10.4083 17.0117 10.3459 17.0244 10.2697C17.0502 10.1149 17.1009 9.91625 17.1972 9.72361C17.2926 9.53292 17.4277 9.35745 17.6211 9.22853C17.8114 9.10169 18.0875 9 18.5 9C18.9125 9 19.1886 9.10169 19.3789 9.22853C19.5723 9.35745 19.7074 9.53292 19.8028 9.72361C19.8991 9.91625 19.9498 10.1149 19.9756 10.2697C19.9883 10.3459 19.9944 10.4083 19.9974 10.4497C19.9988 10.4703 19.9995 10.4854 19.9998 10.4942L20 10.5022V21.4978L19.9998 21.5058C19.9995 21.5146 19.9988 21.5297 19.9974 21.5503C19.9944 21.5917 19.9883 21.6541 19.9756 21.7303C19.9498 21.8851 19.8991 22.0838 19.8028 22.2764C19.7074 22.4671 19.5723 22.6426 19.3789 22.7715C19.1886 22.8983 18.9125 23 18.5 23C18.0875 23 17.8114 22.8983 17.6211 22.7715C17.4277 22.6426 17.2926 22.4671 17.1972 22.2764C17.1009 22.0838 17.0502 21.8851 17.0244 21.7303C17.0117 21.6541 17.0056 21.5917 17.0026 21.5503L17.0013 21.5295C17.0007 21.5192 17.0004 21.5113 17.0002 21.5058L17 21.4978V10.5022Z" fill="black"/>
<path d="M16.0008 10.4609L16 10.5L16 10.4989L16 10.4977L16 10.4946L16.0001 10.4862L16.0008 10.4609Z" fill="black"/>
</g>
</svg>
