<svg width="16" height="16" viewBox="0 0 16 16" fill="none" xmlns="http://www.w3.org/2000/svg">
<path opacity="0.9" fill-rule="evenodd" clip-rule="evenodd" d="M5.5 1C4.67157 1 4 1.67157 4 2.5V13.5C4 14.3284 4.67157 15 5.5 15H10.5C11.3284 15 12 14.3284 12 13.5V2.5C12 1.67157 11.3284 1 10.5 1H5.5ZM6.08535 2H5.5C5.22386 2 5 2.22386 5 2.5V13.5C5 13.7761 5.22386 14 5.5 14H10.5C10.7761 14 11 13.7761 11 13.5V2.5C11 2.22386 10.7761 2 10.5 2H9.91465C9.70873 2.5826 9.15311 3 8.5 3H7.5C6.84689 3 6.29127 2.5826 6.08535 2Z" fill="black"/>
</svg>
