<svg width="32" height="32" viewBox="0 0 32 32" fill="none" xmlns="http://www.w3.org/2000/svg">
<path opacity="0.9" fill-rule="evenodd" clip-rule="evenodd" d="M12 4.5C12 2.567 13.567 1 15.5 1C17.433 1 19 2.567 19 4.5C19 4.66959 18.9879 4.83655 18.9645 5H26C26.5523 5 27 5.44772 27 6V13.0355C27.1635 13.0121 27.3304 13 27.5 13C29.433 13 31 14.567 31 16.5C31 18.433 29.433 20 27.5 20C27.3304 20 27.1635 19.9879 27 19.9645V27C27 27.5523 26.5523 28 26 28H17.622L17.8577 27.3333C17.9497 27.0732 18 26.7928 18 26.4996C18 25.1188 16.8807 23.9996 15.5 23.9996C14.1193 23.9996 13 25.1188 13 26.4996C13 26.7928 13.0503 27.0732 13.1423 27.3333L13.378 28H5C4.44771 28 4 27.5523 4 27V18.6218L4.66662 18.8574C4.92663 18.9493 5.20691 18.9996 5.5 18.9996C6.88071 18.9996 8 17.8803 8 16.4996C8 15.1188 6.88071 13.9996 5.5 13.9996C5.20691 13.9996 4.92663 14.0498 4.66662 14.1417L4 14.3773V6C4 5.44771 4.44772 5 5 5H12.0355C12.0121 4.83655 12 4.66959 12 4.5ZM15.5 2C14.1193 2 13 3.11929 13 4.5C13 4.79309 13.0502 5.07337 13.1421 5.33338L13.3777 6L5 6V13.0351C5.16345 13.0117 5.3304 12.9996 5.5 12.9996C7.43299 12.9996 9 14.5666 9 16.4996C9 18.4326 7.43299 19.9996 5.5 19.9996C5.3304 19.9996 5.16345 19.9875 5 19.964V27H12.0356C12.0121 26.8364 12 26.6693 12 26.4996C12 24.5666 13.567 22.9996 15.5 22.9996C17.433 22.9996 19 24.5666 19 26.4996C19 26.6693 18.9879 26.8364 18.9644 27H26V18.6223L26.6666 18.8579C26.9266 18.9498 27.2069 19 27.5 19C28.8807 19 30 17.8807 30 16.5C30 15.1193 28.8807 14 27.5 14C27.2069 14 26.9266 14.0502 26.6666 14.1421L26 14.3777V6H17.6223L17.8579 5.33338C17.9498 5.07337 18 4.79309 18 4.5C18 3.11929 16.8807 2 15.5 2Z" fill="black"/>
</svg>
