<svg width="24" height="24" viewBox="0 0 24 24" fill="none" xmlns="http://www.w3.org/2000/svg">
<path opacity="0.9" fill-rule="evenodd" clip-rule="evenodd" d="M8 3C8 1.34315 9.34315 0 11 0C12.6569 0 14 1.34315 14 3H20C20.5523 3 21 3.44772 21 4V9.5C22.6569 9.5 24 10.8431 24 12.5C24 14.1569 22.6569 15.5 21 15.5V21C21 21.5523 20.5523 22 20 22H13.0275L13.3336 21.2997C13.4405 21.0553 13.5 20.7851 13.5 20.4996C13.5 19.395 12.6046 18.4996 11.5 18.4996C10.3954 18.4996 9.5 19.395 9.5 20.4996C9.5 20.7851 9.55952 21.0553 9.66635 21.2997L9.97248 22H3C2.44772 22 2 21.5523 2 21V14.0274L2.70019 14.3334C2.94448 14.4401 3.21463 14.4996 3.5 14.4996C4.60457 14.4996 5.5 13.6041 5.5 12.4996C5.5 11.395 4.60457 10.4996 3.5 10.4996C3.21463 10.4996 2.94448 10.559 2.70018 10.6658L2 10.9717V4C2 3.44772 2.44771 3 3 3H8ZM11 1C9.89543 1 9 1.89543 9 3C9 3.13764 9.01383 3.27153 9.04002 3.40053L9.1617 4H3V9.54111C3.16276 9.51377 3.32982 9.49955 3.5 9.49955C5.15685 9.49955 6.5 10.8427 6.5 12.4996C6.5 14.1564 5.15685 15.4996 3.5 15.4996C3.32982 15.4996 3.16276 15.4853 3 15.458V21H8.54163C8.51424 20.8371 8.5 20.6699 8.5 20.4996C8.5 18.8427 9.84314 17.4996 11.5 17.4996C13.1569 17.4996 14.5 18.8427 14.5 20.4996C14.5 20.6699 14.4858 20.8371 14.4584 21H20V14.3383L20.5995 14.46C20.7285 14.4862 20.8624 14.5 21 14.5C22.1046 14.5 23 13.6046 23 12.5C23 11.3954 22.1046 10.5 21 10.5C20.8624 10.5 20.7285 10.5138 20.5995 10.54L20 10.6617V4H12.8383L12.96 3.40053C12.9862 3.27153 13 3.13764 13 3C13 1.89543 12.1046 1 11 1Z" fill="black"/>
</svg>
