<svg width="16" height="16" viewBox="0 0 16 16" fill="none" xmlns="http://www.w3.org/2000/svg">
<path opacity="0.9" fill-rule="evenodd" clip-rule="evenodd" d="M1 3.5C1 2.67157 1.67157 2 2.5 2H13.5C14.3284 2 15 2.67157 15 3.5V12.5C15 13.3284 14.3284 14 13.5 14H2.5C1.67157 14 1 13.3284 1 12.5V3.5ZM13 3H12V4H13V3ZM12 12H13V13H12V12ZM10 3H9V4H10V3ZM9 12H10V13H9V12ZM7 3H6V4H7V3ZM6 12H7V13H6V12ZM4 3H3V4H4V3ZM3 12H4V13H3V12ZM6 6.80902V9.19098C6 9.56267 6.39116 9.80442 6.72361 9.6382L9.10557 8.44721C9.4741 8.26295 9.4741 7.73705 9.10557 7.55279L6.72361 6.3618C6.39116 6.19558 6 6.43733 6 6.80902Z" fill="black"/>
</svg>
