<svg width="24" height="24" viewBox="0 0 24 24" fill="none" xmlns="http://www.w3.org/2000/svg">
<g opacity="0.9">
<path d="M13 6V7H14V6H13Z" fill="black"/>
<path d="M16 7V6H17V7H16Z" fill="black"/>
<path d="M19 6V7H20V6H19Z" fill="black"/>
<path d="M16 18V17H17V18H16Z" fill="black"/>
<path d="M19 17V18H20V17H19Z" fill="black"/>
<path d="M4 18V17H5V18H4Z" fill="black"/>
<path d="M10 6V7H11V6H10Z" fill="black"/>
<path d="M13 18V17H14V18H13Z" fill="black"/>
<path d="M7 6V7H8V6H7Z" fill="black"/>
<path d="M10 18V17H11V18H10Z" fill="black"/>
<path d="M4 6V7H5V6H4Z" fill="black"/>
<path d="M7 18V17H8V18H7Z" fill="black"/>
<path fill-rule="evenodd" clip-rule="evenodd" d="M10 14.1164V9.88261C10 9.49396 10.424 9.2539 10.7572 9.45386L14.2854 11.5708C14.6091 11.765 14.6091 12.2341 14.2854 12.4283L10.7572 14.5452C10.424 14.7451 10 14.5051 10 14.1164ZM13.0563 11.9995L11 13.2333V10.7657L13.0563 11.9995Z" fill="black"/>
<path fill-rule="evenodd" clip-rule="evenodd" d="M3.5 4C2.67157 4 2 4.67157 2 5.5V18.5C2 19.3284 2.67157 20 3.5 20H20.5C21.3284 20 22 19.3284 22 18.5V5.5C22 4.67157 21.3284 4 20.5 4H3.5ZM3 5.5C3 5.22386 3.22386 5 3.5 5H20.5C20.7761 5 21 5.22386 21 5.5V18.5C21 18.7761 20.7761 19 20.5 19H3.5C3.22386 19 3 18.7761 3 18.5V5.5Z" fill="black"/>
</g>
</svg>
