<svg width="16" height="16" viewBox="0 0 16 16" fill="none" xmlns="http://www.w3.org/2000/svg">
<g clip-path="url(#clip0)">
<g opacity="0.9">
<path d="M4.14645 3.85363C4.34171 4.04889 4.65829 4.04889 4.85355 3.85363L7 1.70718L7 11.0001C7 11.2762 7.22386 11.5001 7.5 11.5001C7.77614 11.5001 8 11.2762 8 11.0001L8 1.70718L10.1464 3.85363C10.3417 4.04889 10.6583 4.04889 10.8536 3.85363C11.0488 3.65837 11.0488 3.34178 10.8536 3.14652L7.5 -0.207031L4.14645 3.14652C3.95118 3.34178 3.95118 3.65837 4.14645 3.85363Z" fill="black"/>
<path d="M2 6H4.5C4.77614 6 5 5.77614 5 5.5C5 5.22386 4.77614 5 4.5 5H1V4C1 3.44771 1.44772 3 2 3H2.08909C2.36523 3 2.58909 2.77614 2.58909 2.5C2.58909 2.22386 2.36523 2 2.08909 2H2C0.89543 2 0 2.89543 0 4V5C0 5.55228 0.447715 6 1 6V12C1 13.1046 1.89543 14 3 14H13C14.1046 14 15 13.1046 15 12V6C15.5523 6 16 5.55228 16 5V4C16 2.89543 15.1046 2 14 2H13C12.7239 2 12.5 2.22386 12.5 2.5C12.5 2.77614 12.7239 3 13 3H14C14.5523 3 15 3.44772 15 4V5H10.5C10.2239 5 10 5.22386 10 5.5C10 5.77614 10.2239 6 10.5 6H14V12C14 12.5523 13.5523 13 13 13H3C2.44772 13 2 12.5523 2 12V6Z" fill="black"/>
</g>
</g>
<defs>
<clipPath id="clip0">
<rect width="16" height="16" fill="white"/>
</clipPath>
</defs>
</svg>
