<svg width="24" height="24" viewBox="0 0 24 24" fill="none" xmlns="http://www.w3.org/2000/svg">
<g opacity="0.9">
<path d="M16.3043 0.91094C16.3495 0.70026 16.6501 0.700259 16.6954 0.910939L17.445 4.40165C17.4615 4.47858 17.5216 4.53868 17.5985 4.5552L21.0892 5.30478C21.2999 5.35002 21.2999 5.65063 21.0892 5.69587L17.5985 6.44545C17.5216 6.46197 17.4615 6.52207 17.445 6.59901L16.6954 10.0897C16.6501 10.3004 16.3495 10.3004 16.3043 10.0897L15.5547 6.59901C15.5382 6.52207 15.4781 6.46197 15.4011 6.44545L11.9104 5.69587C11.6998 5.65063 11.6998 5.35003 11.9104 5.30478L15.4011 4.5552C15.4781 4.53868 15.5382 4.47858 15.5547 4.40165L16.3043 0.91094Z" fill="black"/>
<path d="M9.98884 5.89502C9.93936 5.66459 9.73567 5.5 9.49998 5.5C9.2643 5.5 9.06061 5.66459 9.01113 5.89502L7.75316 11.7532L1.89501 13.0111C1.66457 13.0606 1.49998 13.2643 1.49998 13.5C1.49998 13.7357 1.66457 13.9394 1.89501 13.9889L7.75316 15.2468L9.01113 21.105C9.06061 21.3354 9.2643 21.5 9.49998 21.5C9.73567 21.5 9.93936 21.3354 9.98884 21.105L11.2468 15.2468L17.105 13.9889C17.3354 13.9394 17.5 13.7357 17.5 13.5C17.5 13.2643 17.3354 13.0606 17.105 13.0111L11.2468 11.7532L9.98884 5.89502Z" fill="black"/>
<path d="M18.6954 16.9109C18.6501 16.7003 18.3495 16.7003 18.3043 16.9109L17.9082 18.7552C17.8917 18.8321 17.8316 18.8922 17.7547 18.9088L15.9104 19.3048C15.6998 19.35 15.6998 19.6506 15.9104 19.6959L17.7547 20.0919C17.8316 20.1084 17.8917 20.1685 17.9082 20.2455L18.3043 22.0897C18.3495 22.3004 18.6501 22.3004 18.6954 22.0897L19.0914 20.2455C19.1079 20.1685 19.168 20.1084 19.2449 20.0919L21.0892 19.6959C21.2999 19.6506 21.2999 19.35 21.0892 19.3048L19.2449 18.9088C19.168 18.8922 19.1079 18.8321 19.0914 18.7552L18.6954 16.9109Z" fill="black"/>
</g>
</svg>
