<svg width="32" height="32" viewBox="0 0 32 32" fill="none" xmlns="http://www.w3.org/2000/svg">
<g opacity="0.9">
<path fill-rule="evenodd" clip-rule="evenodd" d="M22.5 3.5C22.7357 3.5 22.9394 3.66459 22.9889 3.89502L23.8933 8.10673L28.105 9.01114C28.3354 9.06063 28.5 9.26431 28.5 9.5C28.5 9.73569 28.3354 9.93937 28.105 9.98886L23.8933 10.8933L22.9889 15.105C22.9394 15.3354 22.7357 15.5 22.5 15.5C22.2643 15.5 22.0606 15.3354 22.0111 15.105L21.1067 10.8933L16.895 9.98886C16.6646 9.93937 16.5 9.73569 16.5 9.5C16.5 9.26431 16.6646 9.06063 16.895 9.01114L21.1067 8.10673L22.0111 3.89502C22.0606 3.66459 22.2643 3.5 22.5 3.5ZM22.5 6.38151L22.0166 8.6327C21.9753 8.82504 21.825 8.97528 21.6327 9.01658L19.3815 9.5L21.6327 9.98342C21.825 10.0247 21.9753 10.175 22.0166 10.3673L22.5 12.6185L22.9834 10.3673C23.0247 10.175 23.175 10.0247 23.3673 9.98342L25.6185 9.5L23.3673 9.01658C23.175 8.97528 23.0247 8.82504 22.9834 8.6327L22.5 6.38151Z" fill="black"/>
<path fill-rule="evenodd" clip-rule="evenodd" d="M13 8.5C13.2357 8.5 13.4394 8.66459 13.4889 8.89502L15.012 15.988L22.105 17.5111C22.3354 17.5606 22.5 17.7643 22.5 18C22.5 18.2357 22.3354 18.4394 22.105 18.4889L15.012 20.012L13.4889 27.105C13.4394 27.3354 13.2357 27.5 13 27.5C12.7643 27.5 12.5606 27.3354 12.5111 27.105L10.988 20.012L3.89502 18.4889C3.66459 18.4394 3.5 18.2357 3.5 18C3.5 17.7643 3.66459 17.5606 3.89502 17.5111L10.988 15.988L12.5111 8.89502C12.5606 8.66459 12.7643 8.5 13 8.5ZM13 11.3815L11.8979 16.514C11.8566 16.7063 11.7063 16.8566 11.514 16.8979L6.38151 18L11.514 19.1021C11.7063 19.1434 11.8566 19.2937 11.8979 19.486L13 24.6185L14.1021 19.486C14.1434 19.2937 14.2937 19.1434 14.486 19.1021L19.6185 18L14.486 16.8979C14.2937 16.8566 14.1434 16.7063 14.1021 16.514L13 11.3815Z" fill="black"/>
<path d="M23.6954 20.9109C23.6501 20.7003 23.3495 20.7003 23.3043 20.9109L22.7315 23.5784C22.715 23.6554 22.6549 23.7155 22.5779 23.732L19.9105 24.3048C19.6998 24.35 19.6998 24.6506 19.9104 24.6959L22.5779 25.2687C22.6549 25.2852 22.715 25.3453 22.7315 25.4222L23.3043 28.0897C23.3495 28.3004 23.6501 28.3004 23.6954 28.0897L24.2682 25.4222C24.2847 25.3453 24.3448 25.2852 24.4217 25.2687L27.0892 24.6959C27.2999 24.6506 27.2999 24.35 27.0892 24.3048L24.4217 23.732C24.3448 23.7155 24.2847 23.6554 24.2682 23.5784L23.6954 20.9109Z" fill="black"/>
</g>
</svg>
