<svg width="16" height="16" viewBox="0 0 16 16" fill="none" xmlns="http://www.w3.org/2000/svg">
<g opacity="0.9">
<path fill-rule="evenodd" clip-rule="evenodd" d="M9.17591 8.06529C9.68663 7.52739 10 6.80029 10 6C10 4.34315 8.65685 3 7 3C5.34315 3 4 4.34315 4 6C4 6.80026 4.31334 7.52733 4.82402 8.06523C3.2145 8.38017 2 9.79825 2 11.5V12.5C2 12.7761 2.22386 13 2.5 13C2.77614 13 3 12.7761 3 12.5V11.5C3 10.1193 4.11929 9 5.5 9H8.5C9.11801 9 9.68251 9.2236 10.119 9.59493C10.3293 9.77387 10.6448 9.74843 10.8238 9.53811C11.0027 9.32779 10.9773 9.01223 10.767 8.83329C10.3198 8.45282 9.77504 8.18262 9.17591 8.06529ZM9 6C9 7.10457 8.10457 8 7 8C5.89543 8 5 7.10457 5 6C5 4.89543 5.89543 4 7 4C8.10457 4 9 4.89543 9 6Z" fill="black"/>
<path d="M12.5 10C12.7761 10 13 10.2239 13 10.5V12H14.5C14.7761 12 15 12.2239 15 12.5C15 12.7761 14.7761 13 14.5 13H13V14.5C13 14.7761 12.7761 15 12.5 15C12.2239 15 12 14.7761 12 14.5V13H10.5C10.2239 13 10 12.7761 10 12.5C10 12.2239 10.2239 12 10.5 12H12V10.5C12 10.2239 12.2239 10 12.5 10Z" fill="black"/>
<path d="M10 3.5C10 3.22386 10.2239 3 10.5 3C11.8807 3 13 4.11929 13 5.5C13 6.17935 12.7292 6.79502 12.2898 7.2454C12.931 7.49976 13.479 7.93798 13.8686 8.49424C14.027 8.72043 13.972 9.03221 13.7458 9.19061C13.5197 9.34902 13.2079 9.29407 13.0495 9.06788C12.5966 8.42118 11.8474 8 11 8C10.7239 8 10.5 7.77614 10.5 7.5C10.5 7.48962 10.5003 7.47931 10.5009 7.46909C10.4856 7.23395 10.6388 7.01365 10.8754 6.95277C11.5224 6.78623 12 6.19825 12 5.5C12 4.67157 11.3284 4 10.5 4C10.2239 4 10 3.77614 10 3.5Z" fill="black"/>
</g>
</svg>
