<svg width="16" height="16" viewBox="0 0 16 16" fill="none" xmlns="http://www.w3.org/2000/svg">
<g opacity="0.9">
<path d="M9.17598 8.06523C9.68666 7.52733 10 6.80026 10 6C10 4.34315 8.65685 3 7 3C5.34315 3 4 4.34315 4 6C4 6.80026 4.31334 7.52733 4.82402 8.06523C3.2145 8.38017 2 9.79825 2 11.5V13.5C2 13.7761 2.22386 14 2.5 14H8.79076C8.60325 13.5368 8.5 13.0304 8.5 12.5C8.5 10.8939 9.44655 9.50895 10.8122 8.87246C10.3565 8.47111 9.79549 8.18645 9.17598 8.06523Z" fill="black"/>
<path d="M14.6392 9.1195C14.0205 8.72717 13.2868 8.5 12.5 8.5C12.2941 8.5 12.0919 8.51556 11.8943 8.54556C11.5516 8.15229 11.1417 7.81915 10.6824 7.564C10.8868 7.08344 11 6.55466 11 6C11 4.86312 10.5257 3.83702 9.76421 3.10876C10.0069 3.03797 10.2637 3 10.5293 3C12.0355 3 13.2565 4.22104 13.2565 5.72727C13.2565 6.45478 12.9717 7.11575 12.5074 7.60475C13.4159 7.78251 14.1859 8.34686 14.6392 9.1195Z" fill="black"/>
<path d="M13 10.5C13 10.2239 12.7761 10 12.5 10C12.2239 10 12 10.2239 12 10.5V12H10.5C10.2239 12 10 12.2239 10 12.5C10 12.7761 10.2239 13 10.5 13H12V14.5C12 14.7761 12.2239 15 12.5 15C12.7761 15 13 14.7761 13 14.5V13H14.5C14.7761 13 15 12.7761 15 12.5C15 12.2239 14.7761 12 14.5 12H13V10.5Z" fill="black"/>
</g>
</svg>
