<svg width="32" height="32" viewBox="0 0 32 32" fill="none" xmlns="http://www.w3.org/2000/svg">
<g opacity="0.9">
<path fill-rule="evenodd" clip-rule="evenodd" d="M20 11C20 12.6356 19.2147 14.0878 18.0005 15H18.5C20.9065 15 23.007 16.3081 24.1301 18.2496C24.2684 18.4887 24.1867 18.7945 23.9477 18.9328C23.7086 19.0711 23.4028 18.9894 23.2645 18.7504C22.3128 17.1051 20.5351 16 18.5 16H11.5C8.46243 16 6 18.4624 6 21.5V25.5C6 25.7761 5.77614 26 5.5 26C5.22386 26 5 25.7761 5 25.5V21.5C5 17.9101 7.91015 15 11.5 15H11.9995C10.7853 14.0878 10 12.6356 10 11C10 8.23858 12.2386 6 15 6C17.7614 6 20 8.23858 20 11ZM15 7C12.7909 7 11 8.79086 11 11C11 13.2091 12.7909 15 15 15C17.2091 15 19 13.2091 19 11C19 8.79086 17.2091 7 15 7Z" fill="black"/>
<path d="M22 13.5C21.7239 13.5 21.5 13.7239 21.5 14C21.5 14.2761 21.7239 14.5 22 14.5C25.1354 14.5 27.7479 16.6926 28.3628 19.6033C28.4198 19.8735 28.6851 20.0463 28.9553 19.9892C29.2255 19.9321 29.3982 19.6668 29.3412 19.3967C28.767 16.6786 26.6931 14.5101 24.0187 13.772C24.9282 13.0351 25.5 11.8187 25.5 10.5C25.5 8.36595 24.0025 6.5 22 6.5C21.7239 6.5 21.5 6.72386 21.5 7C21.5 7.27614 21.7239 7.5 22 7.5C23.3112 7.5 24.5 8.76806 24.5 10.5C24.5 12.2319 23.3112 13.5 22 13.5Z" fill="black"/>
<path d="M26 21.5C26 21.2239 25.7761 21 25.5 21C25.2239 21 25 21.2239 25 21.5V24H22.5C22.2239 24 22 24.2239 22 24.5C22 24.7761 22.2239 25 22.5 25H25V27.5C25 27.7761 25.2239 28 25.5 28C25.7761 28 26 27.7761 26 27.5V25H28.5C28.7761 25 29 24.7761 29 24.5C29 24.2239 28.7761 24 28.5 24H26V21.5Z" fill="black"/>
</g>
</svg>
