<svg width="24" height="24" viewBox="0 0 24 24" fill="none" xmlns="http://www.w3.org/2000/svg">
<g opacity="0.9">
<path fill-rule="evenodd" clip-rule="evenodd" d="M12.8536 4.14645C12.6583 3.95118 12.3417 3.95118 12.1464 4.14645L4.64645 11.6464C4.55268 11.7402 4.5 11.8674 4.5 12C4.5 12.1326 4.55268 12.2598 4.64645 12.3536L12.1464 19.8536C12.3417 20.0488 12.6583 20.0488 12.8536 19.8536C13.0488 19.6583 13.0488 19.3417 12.8536 19.1464L5.70711 12L12.8536 4.85355C13.0488 4.65829 13.0488 4.34171 12.8536 4.14645Z" fill="black"/>
<path fill-rule="evenodd" clip-rule="evenodd" d="M18.8536 4.14645C18.6583 3.95118 18.3417 3.95118 18.1464 4.14645L10.6464 11.6464C10.5527 11.7402 10.5 11.8674 10.5 12C10.5 12.1326 10.5527 12.2598 10.6464 12.3536L18.1464 19.8536C18.3417 20.0488 18.6583 20.0488 18.8536 19.8536C19.0488 19.6583 19.0488 19.3417 18.8536 19.1464L11.7071 12L18.8536 4.85355C19.0488 4.65829 19.0488 4.34171 18.8536 4.14645Z" fill="black"/>
</g>
</svg>
