<svg width="32" height="32" viewBox="0 0 32 32" fill="none" xmlns="http://www.w3.org/2000/svg">
<g opacity="0.9">
<path fill-rule="evenodd" clip-rule="evenodd" d="M25.7071 4.79289C25.3166 4.40237 24.6834 4.40237 24.2929 4.79289L13.7929 15.2929C13.4024 15.6834 13.4024 16.3166 13.7929 16.7071L24.2929 27.2071C24.6834 27.5976 25.3166 27.5976 25.7071 27.2071C26.0976 26.8166 26.0976 26.1834 25.7071 25.7929L15.9142 16L25.7071 6.20711C26.0976 5.81658 26.0976 5.18342 25.7071 4.79289Z" fill="black"/>
<path fill-rule="evenodd" clip-rule="evenodd" d="M17.7071 4.79289C17.3166 4.40237 16.6834 4.40237 16.2929 4.79289L5.79289 15.2929C5.40237 15.6834 5.40237 16.3166 5.79289 16.7071L16.2929 27.2071C16.6834 27.5976 17.3166 27.5976 17.7071 27.2071C18.0976 26.8166 18.0976 26.1834 17.7071 25.7929L7.91421 16L17.7071 6.20711C18.0976 5.81658 18.0976 5.18342 17.7071 4.79289Z" fill="black"/>
</g>
</svg>
