<svg width="24" height="24" viewBox="0 0 24 24" fill="none" xmlns="http://www.w3.org/2000/svg">
<g opacity="0.9">
<path d="M10.8322 3.41915C10.535 3.68326 10.3182 4.09021 10.3182 4.6818C10.3182 4.95795 10.0943 5.1818 9.81817 5.1818C9.48128 5.1818 9.00948 5.28291 8.50435 5.52367C8.25507 5.64248 7.95668 5.53672 7.83786 5.28745C7.71905 5.03817 7.82481 4.73978 8.07409 4.62097C8.51033 4.41304 8.94956 4.27855 9.35151 4.21835C9.4473 3.57164 9.74384 3.0486 10.1678 2.67174C10.6797 2.21676 11.348 2 12 2C12.652 2 13.3203 2.21677 13.8322 2.67175C14.2561 3.04861 14.5527 3.57165 14.6485 4.21836C15.4467 4.33788 16.4096 4.75265 17.2232 5.49408C18.2212 6.40373 19 7.80909 19 9.77273V15.1505C19 15.4266 18.7761 15.6505 18.5 15.6505C18.2239 15.6505 18 15.4266 18 15.1505V9.77273C18 8.09999 17.3469 6.95989 16.5496 6.23317C15.7341 5.48995 14.7718 5.1818 14.1818 5.1818C13.9057 5.1818 13.6818 4.95795 13.6818 4.6818C13.6818 4.09022 13.4649 3.68327 13.1678 3.41916C12.8615 3.14687 12.4389 3 12 3C11.5611 3 11.1385 3.14687 10.8322 3.41915Z" fill="black"/>
<path fill-rule="evenodd" clip-rule="evenodd" d="M5.5 9.27273C5.77614 9.27273 6 9.49658 6 9.77273V15.1505C6 15.8056 5.7054 16.3847 5.47108 16.8453L5.44582 16.8949C5.23087 17.3183 5.06619 17.659 5.01593 18H15.5C15.7761 18 16 18.2239 16 18.5C16 18.7761 15.7761 19 15.5 19H15C15 20.6569 13.6569 22 12 22C10.3431 22 9 20.6569 9 19H4.5C4.22386 19 4 18.7761 4 18.5V18.2131C4 17.5329 4.30089 16.9407 4.53916 16.4718L4.55418 16.4422C4.81637 15.9258 5 15.5472 5 15.1505V9.77273C5 9.49658 5.22386 9.27273 5.5 9.27273ZM12 21C10.8954 21 10 20.1046 10 19H14C14 20.1046 13.1046 21 12 21Z" fill="black"/>
<path d="M3.85355 3.14652C3.65829 2.95126 3.34171 2.95126 3.14645 3.14652C2.95118 3.34178 2.95118 3.65837 3.14645 3.85363L20.1464 20.8536C20.3417 21.0489 20.6583 21.0489 20.8536 20.8536C21.0488 20.6584 21.0488 20.3418 20.8536 20.1465L3.85355 3.14652Z" fill="black"/>
</g>
</svg>
