<svg width="32" height="32" viewBox="0 0 32 32" fill="none" xmlns="http://www.w3.org/2000/svg">
<path fill-rule="evenodd" clip-rule="evenodd" d="M4.24803 15.1683C3.6543 15.5641 3.6543 16.4366 4.24803 16.8324L13.4453 22.9639C14.1098 23.4069 15 22.9305 15 22.1318V9.86887C15 9.07017 14.1098 8.59378 13.4453 9.03682L4.24803 15.1683ZM4.80274 16.0004L14 22.1318L14 9.86887L4.80274 16.0004Z" fill="black"/>
<path fill-rule="evenodd" clip-rule="evenodd" d="M16.248 15.1683C15.6543 15.5641 15.6543 16.4366 16.248 16.8324L25.4453 22.9639C26.1098 23.4069 27 22.9305 27 22.1318V9.86887C27 9.07017 26.1098 8.59378 25.4453 9.03682L16.248 15.1683ZM16.8027 16.0004L26 22.1318V9.86887L16.8027 16.0004Z" fill="black"/>
</svg>
