<svg width="16" height="16" viewBox="0 0 16 16" fill="none" xmlns="http://www.w3.org/2000/svg">
<g opacity="0.9">
<path d="M1 3.5C1 2.67157 1.67157 2 2.5 2H13.5C14.3284 2 15 2.67157 15 3.5C15 4.32843 14.3284 5 13.5 5H2.5C1.67157 5 1 4.32843 1 3.5Z" fill="black"/>
<path d="M3.5 8C3.5 7.44772 3.94772 7 4.5 7H10.9458C10.5707 7.38853 10.34 7.91731 10.34 8.49997V9H4.5C3.94772 9 3.5 8.55228 3.5 8Z" fill="black"/>
<path d="M7.39818 11H7C6.44772 11 6 11.4477 6 12C6 12.5523 6.44772 13 7 13H7.94584C7.57076 12.6115 7.34003 12.0827 7.34003 11.5C7.34003 11.3279 7.36015 11.1605 7.39818 11Z" fill="black"/>
<path d="M13 8H12V11H9V12H12V15H13V12H16V11H13V8Z" fill="black"/>
</g>
</svg>
