<svg width="32" height="33" viewBox="0 0 32 33" fill="none" xmlns="http://www.w3.org/2000/svg">
<g opacity="0.9">
<path fill-rule="evenodd" clip-rule="evenodd" d="M4 27.717C4 28.2693 4.44772 28.717 5 28.717H12C12.5523 28.717 13 28.2693 13 27.717C13 27.1648 12.5523 26.717 12 26.717H7.41421L13.7071 20.4241C14.0976 20.0336 14.0976 19.4005 13.7071 19.0099C13.3166 18.6194 12.6834 18.6194 12.2929 19.0099L6 25.3028L6 20.717C6 20.1648 5.55228 19.717 5 19.717C4.44772 19.717 4 20.1648 4 20.717L4 27.717Z" fill="black"/>
<path fill-rule="evenodd" clip-rule="evenodd" d="M28 5.71704C28 5.16476 27.5523 4.71704 27 4.71704H20C19.4477 4.71704 19 5.16476 19 5.71704C19 6.26933 19.4477 6.71704 20 6.71704H24.5858L18.2929 13.0099C17.9024 13.4005 17.9024 14.0336 18.2929 14.4241C18.6834 14.8147 19.3166 14.8147 19.7071 14.4241L26 8.13125V12.717C26 13.2693 26.4477 13.717 27 13.717C27.5523 13.717 28 13.2693 28 12.717V5.71704Z" fill="black"/>
</g>
</svg>
