<svg width="24" height="24" viewBox="0 0 24 24" fill="none" xmlns="http://www.w3.org/2000/svg">
<path d="M14.6437 12.0018C15.4754 11.2689 16 10.1957 16 9C16 6.79086 14.2091 5 12 5C9.79086 5 8 6.79086 8 9C8 10.1957 8.52463 11.2689 9.35627 12.0018C6.38513 12.0781 4 14.5105 4 17.5V20.5C4 20.7761 4.22386 21 4.5 21H11.8736L11.5858 20.7122C10.9163 20.0427 10.9163 18.9573 11.5858 18.2878L11.943 17.9307C12.2644 17.6092 12.7005 17.4286 13.1551 17.4286H16.9716C17.608 16.5633 18.634 16 19.7929 16C19.1525 13.7356 17.0981 12.0648 14.6437 12.0018Z" fill="black"/>
<path d="M22.293 19.5C22.293 18.1193 21.1737 17 19.793 17C18.7957 17 17.9348 17.5839 17.5336 18.4286H13.1552C12.9657 18.4286 12.7841 18.5038 12.6501 18.6378L12.293 18.9949C12.014 19.2739 12.014 19.7261 12.293 20.0051L12.6501 20.3622C12.7841 20.4962 12.9657 20.5714 13.1552 20.5714H13.6372L14.1164 20.811C14.3175 20.9116 14.5542 20.9116 14.7553 20.811L15.1501 20.6136L15.545 20.811C15.746 20.9116 15.9827 20.9116 16.1838 20.811L16.663 20.5714H17.5336C17.9348 21.4161 18.7957 22 19.793 22C21.1737 22 22.293 20.8807 22.293 19.5Z" fill="black"/>
</svg>
