<svg width="24" height="24" viewBox="0 0 24 24" fill="none" xmlns="http://www.w3.org/2000/svg">
<path fill-rule="evenodd" clip-rule="evenodd" d="M16 9C16 10.1958 15.4753 11.269 14.6435 12.002C15.5568 12.0277 16.4549 12.2949 17.1971 12.6816C17.9661 13.0823 18.6319 13.6458 18.9472 14.2764C19.0707 14.5234 18.9706 14.8237 18.7236 14.9472C18.4766 15.0707 18.1763 14.9706 18.0528 14.7236C17.8681 14.3542 17.4053 13.9177 16.735 13.5684C16.0766 13.2254 15.2803 13 14.5 13H9.5C7.01472 13 5 15.0147 5 17.5V19.5C5 19.7761 4.77614 20 4.5 20C4.22386 20 4 19.7761 4 19.5V17.5C4 14.5105 6.38513 12.0781 9.35627 12.0018C8.52463 11.2689 8 10.1957 8 9C8 6.79086 9.79086 5 12 5C14.2091 5 16 6.79086 16 9ZM12 12C13.6569 12 15 10.6569 15 9C15 7.34315 13.6569 6 12 6C10.3431 6 9 7.34315 9 9C9 10.6569 10.3431 12 12 12Z" fill="black"/>
<path fill-rule="evenodd" clip-rule="evenodd" d="M19.543 17C20.9237 17 22.043 18.1193 22.043 19.5C22.043 20.8807 20.9237 22 19.543 22C18.583 22 17.7503 21.4591 17.3314 20.6665H16.661L16.3235 20.8353C16.042 20.976 15.7106 20.976 15.4291 20.8353L15.2096 20.7256L14.9902 20.8353C14.7087 20.976 14.3773 20.976 14.0958 20.8353L13.7583 20.6665H13.4167C13.1515 20.6665 12.8972 20.5612 12.7096 20.3736L12.543 20.207C12.1524 19.8165 12.1524 19.1833 12.543 18.7928L12.7096 18.6261C12.8972 18.4386 13.1515 18.3332 13.4167 18.3332H17.3315C17.7505 17.5408 18.5831 17 19.543 17ZM21.043 19.5C21.043 18.6716 20.3714 18 19.543 18C18.8907 18 18.3344 18.4166 18.1282 18.9999C18.0576 19.1996 17.8687 19.3332 17.6568 19.3332H13.4167L13.2501 19.4999L13.4167 19.6665H13.7583C13.9135 19.6665 14.0666 19.7027 14.2055 19.7721L14.543 19.9409L14.7624 19.8311C15.0439 19.6904 15.3753 19.6904 15.6568 19.8311L15.8763 19.9409L16.2138 19.7721C16.3526 19.7027 16.5058 19.6665 16.661 19.6665H17.6567C17.8686 19.6665 18.0576 19.8001 18.1282 19.9999C18.3343 20.5833 18.8906 21 19.543 21C20.3714 21 21.043 20.3284 21.043 19.5Z" fill="black"/>
</svg>
