<svg width="24" height="24" viewBox="0 0 24 24" fill="none" xmlns="http://www.w3.org/2000/svg">
<g opacity="0.9">
<path fill-rule="evenodd" clip-rule="evenodd" d="M12.0001 9C10.3432 9 9.00006 10.3431 9.00006 12C9.00006 13.6569 10.3432 15 12.0001 15C13.6569 15 15.0001 13.6569 15.0001 12C15.0001 10.3431 13.6569 9 12.0001 9ZM10.0001 12C10.0001 10.8954 10.8955 10 12.0001 10C13.1046 10 14.0001 10.8954 14.0001 12C14.0001 13.1046 13.1046 14 12.0001 14C10.8955 14 10.0001 13.1046 10.0001 12Z" fill="black"/>
<path fill-rule="evenodd" clip-rule="evenodd" d="M21.8632 11.6563C21.8633 11.6564 21.8634 11.6565 21.5001 12C21.8634 12.3435 21.8633 12.3436 21.8632 12.3437L21.8618 12.3451L21.8587 12.3485L21.8477 12.3599C21.8383 12.3696 21.8248 12.3835 21.8074 12.4012C21.7725 12.4367 21.7216 12.4876 21.6556 12.5518C21.5236 12.6802 21.3307 12.8618 21.0833 13.0789C20.589 13.5127 19.8747 14.0904 18.9914 14.6684C17.2332 15.8189 14.7613 17 12.0001 17C9.23881 17 6.76688 15.8189 5.00876 14.6684C4.12546 14.0904 3.41111 13.5127 2.91681 13.0789C2.66943 12.8618 2.47654 12.6802 2.3445 12.5518C2.27847 12.4876 2.22761 12.4367 2.19272 12.4012C2.17527 12.3835 2.16181 12.3696 2.15244 12.3599L2.14146 12.3485L2.13829 12.3451L2.13729 12.3441C2.13716 12.344 2.13668 12.3435 2.50006 12C2.13668 11.6565 2.1368 11.6564 2.13694 11.6563L2.13829 11.6549L2.14146 11.6515L2.15244 11.6401C2.16181 11.6304 2.17527 11.6165 2.19272 11.5988C2.22761 11.5633 2.27847 11.5124 2.3445 11.4482C2.47654 11.3198 2.66943 11.1382 2.91681 10.9211C3.41111 10.4873 4.12546 9.90964 5.00876 9.33162C6.76688 8.18113 9.23881 7 12.0001 7C14.7613 7 17.2332 8.18113 18.9914 9.33162C19.8747 9.90964 20.589 10.4873 21.0833 10.9211C21.3307 11.1382 21.5236 11.3198 21.6556 11.4482C21.7216 11.5124 21.7725 11.5633 21.8074 11.5988C21.8248 11.6165 21.8383 11.6304 21.8477 11.6401L21.8587 11.6515L21.8618 11.6549L21.8632 11.6563ZM3.57641 12.3273C3.43636 12.2044 3.31538 12.094 3.21486 12C3.31538 11.906 3.43636 11.7956 3.57641 11.6727C4.04357 11.2627 4.72047 10.7154 5.55633 10.1684C7.23653 9.06887 9.5146 8 12.0001 8C14.4855 8 16.7636 9.06887 18.4438 10.1684C19.2796 10.7154 19.9565 11.2627 20.4237 11.6727C20.5638 11.7956 20.6847 11.906 20.7852 12C20.6847 12.094 20.5638 12.2044 20.4237 12.3273C19.9565 12.7373 19.2796 13.2846 18.4438 13.8316C16.7636 14.9311 14.4855 16 12.0001 16C9.5146 16 7.23653 14.9311 5.55633 13.8316C4.72047 13.2846 4.04357 12.7373 3.57641 12.3273Z" fill="black"/>
<path d="M2.50006 12L2.13729 12.3441C1.95512 12.1514 1.95477 11.849 2.13694 11.6563L2.50006 12Z" fill="black"/>
<path d="M21.5001 12L21.8632 11.6563C22.0453 11.849 22.0453 12.151 21.8632 12.3437L21.5001 12Z" fill="black"/>
</g>
</svg>
