<svg width="32" height="32" viewBox="0 0 32 32" fill="none" xmlns="http://www.w3.org/2000/svg">
<g opacity="0.9">
<path fill-rule="evenodd" clip-rule="evenodd" d="M15.9999 12C13.7908 12 11.9999 13.7909 11.9999 16C11.9999 18.2091 13.7908 20 15.9999 20C18.2091 20 19.9999 18.2091 19.9999 16C19.9999 13.7909 18.2091 12 15.9999 12ZM12.9999 16C12.9999 14.3431 14.3431 13 15.9999 13C17.6568 13 18.9999 14.3431 18.9999 16C18.9999 17.6569 17.6568 19 15.9999 19C14.3431 19 12.9999 17.6569 12.9999 16Z" fill="black"/>
<path fill-rule="evenodd" clip-rule="evenodd" d="M27.8913 16.3112C28.0354 16.1293 28.0357 15.8711 27.8916 15.6892L27.8902 15.6874L27.8866 15.683L27.8739 15.6671L27.8599 15.6499L27.8263 15.6089C27.7849 15.5586 27.7241 15.486 27.645 15.3943C27.4869 15.2108 27.2553 14.9505 26.9578 14.6391C26.3635 14.0167 25.5034 13.1868 24.4394 12.3559C22.3237 10.7039 19.3398 9 15.9999 9C12.6601 9 9.67615 10.7039 7.56049 12.3559C6.49645 13.1868 5.63642 14.0167 5.04207 14.6391C4.74462 14.9505 4.51297 15.2108 4.35485 15.3943C4.27577 15.486 4.21502 15.5586 4.17357 15.6089C4.15284 15.634 4.13694 15.6536 4.12597 15.6671L4.11324 15.683L4.10968 15.6874L4.10861 15.6888C3.96452 15.8707 3.96392 16.1286 4.10801 16.3105C4.10801 16.3105 4.10801 16.3105 4.49994 16L4.10801 16.3105L4.10968 16.3126L4.11324 16.317L4.12597 16.3329C4.13694 16.3464 4.15284 16.366 4.17357 16.3911C4.21502 16.4414 4.27577 16.514 4.35485 16.6057C4.51297 16.7892 4.74462 17.0495 5.04207 17.3609C5.63642 17.9833 6.49645 18.8132 7.56049 19.6441C9.67615 21.2961 12.6601 23 15.9999 23C19.3398 23 22.3237 21.2961 24.4394 19.6441C25.5034 18.8132 26.3635 17.9833 26.9578 17.3609C27.2553 17.0495 27.4869 16.7892 27.645 16.6057C27.7241 16.514 27.7849 16.4414 27.8263 16.3911C27.847 16.366 27.863 16.3464 27.8739 16.3329L27.8866 16.317L27.8902 16.3126L27.8913 16.3112ZM5.76527 16.6703C5.50582 16.3986 5.29982 16.1688 5.15312 16C5.29982 15.8312 5.50582 15.6014 5.76527 15.3297C6.33479 14.7333 7.15889 13.9382 8.17594 13.1441C10.2225 11.5461 12.9885 10 15.9999 10C19.0114 10 21.7774 11.5461 23.8239 13.1441C24.841 13.9382 25.6651 14.7333 26.2346 15.3297C26.4941 15.6014 26.7001 15.8312 26.8468 16C26.7001 16.1688 26.4941 16.3986 26.2346 16.6703C25.6651 17.2667 24.841 18.0618 23.8239 18.8559C21.7774 20.4539 19.0114 22 15.9999 22C12.9885 22 10.2225 20.4539 8.17594 18.8559C7.15889 18.0618 6.33479 17.2667 5.76527 16.6703ZM27.4999 16C27.8919 15.6895 27.8916 15.6892 27.8916 15.6892L27.4999 16ZM27.8913 16.3112C27.8913 16.3112 27.8919 16.3105 27.4999 16L27.8913 16.3112ZM4.49994 16L4.10861 15.6888C4.10861 15.6888 4.10801 15.6895 4.49994 16Z" fill="black"/>
</g>
</svg>
