<svg width="16" height="16" viewBox="0 0 16 16" fill="none" xmlns="http://www.w3.org/2000/svg">
<g opacity="0.9">
<path fill-rule="evenodd" clip-rule="evenodd" d="M8 6C6.89543 6 6 6.89543 6 8C6 9.10457 6.89543 10 8 10C9.10457 10 10 9.10457 10 8C10 6.89543 9.10457 6 8 6ZM7 8C7 7.44772 7.44772 7 8 7C8.55228 7 9 7.44772 9 8C9 8.55228 8.55228 9 8 9C7.44772 9 7 8.55228 7 8Z" fill="black"/>
<path fill-rule="evenodd" clip-rule="evenodd" d="M14.8839 8.32029C15.038 8.13501 15.0383 7.86534 14.8842 7.68006L14.8832 7.67878L14.8808 7.67595L14.8729 7.66658L14.8445 7.63345C14.82 7.60519 14.7846 7.56485 14.7387 7.51416C14.647 7.41281 14.5134 7.26985 14.3423 7.09915C14.0006 6.75826 13.5064 6.30393 12.8946 5.84882C11.6822 4.94694 9.9515 4 7.99999 4C6.04848 4 4.31778 4.94694 3.10537 5.84882C2.49357 6.30393 1.99937 6.75826 1.65766 7.09915C1.48655 7.26985 1.35296 7.41281 1.26127 7.51416C1.21541 7.56485 1.17997 7.60519 1.15551 7.63345L1.1271 7.66658L1.11919 7.67595L1.11682 7.67878L1.11604 7.67971C0.961989 7.86499 0.961475 8.1344 1.11553 8.31967C1.11553 8.31967 1.11553 8.31967 1.49999 8L1.11553 8.31967L1.11682 8.32122L1.11919 8.32405L1.1271 8.33342L1.15551 8.36655C1.17997 8.39481 1.21541 8.43515 1.26127 8.48584C1.35296 8.58719 1.48655 8.73015 1.65766 8.90085C1.99937 9.24174 2.49357 9.69607 3.10537 10.1512C4.31778 11.0531 6.04848 12 7.99999 12C9.9515 12 11.6822 11.0531 12.8946 10.1512C13.5064 9.69607 14.0006 9.24174 14.3423 8.90085C14.5134 8.73015 14.647 8.58719 14.7387 8.48584C14.7846 8.43515 14.82 8.39481 14.8445 8.36655L14.8729 8.33342L14.8808 8.32405L14.8832 8.32122L14.8839 8.32029ZM2.36392 8.19289C2.29372 8.12287 2.23065 8.05818 2.17508 8C2.23065 7.94182 2.29372 7.87713 2.36392 7.8071C2.68005 7.49174 3.13775 7.07107 3.70222 6.65118C4.84234 5.80306 6.36165 5 7.99999 5C9.63833 5 11.1576 5.80306 12.2978 6.65118C12.8622 7.07107 13.3199 7.49174 13.6361 7.8071C13.7063 7.87713 13.7693 7.94182 13.8249 8C13.7693 8.05817 13.7063 8.12287 13.6361 8.19289C13.3199 8.50826 12.8622 8.92893 12.2978 9.34882C11.1576 10.1969 9.63833 11 7.99999 11C6.36165 11 4.84234 10.1969 3.70222 9.34882C3.13775 8.92893 2.68005 8.50826 2.36392 8.19289ZM14.5 8C14.8845 7.68033 14.8842 7.68006 14.8842 7.68006L14.5 8ZM14.8839 8.32029C14.8839 8.32029 14.8845 8.31967 14.5 8L14.8839 8.32029ZM1.49999 8L1.11604 7.67971C1.11604 7.67971 1.11553 7.68033 1.49999 8Z" fill="black"/>
</g>
</svg>
