<svg width="16" height="17" viewBox="0 0 16 17" fill="none" xmlns="http://www.w3.org/2000/svg">
<g opacity="0.9">
<path d="M1 5.21704C1 4.9409 1.22386 4.71704 1.5 4.71704H14.5C14.7761 4.71704 15 4.9409 15 5.21704C15 5.49318 14.7761 5.71704 14.5 5.71704H1.5C1.22386 5.71704 1 5.49318 1 5.21704Z" fill="black"/>
<path d="M1 9.21704C1 8.9409 1.22386 8.71704 1.5 8.71704H10.5C10.7761 8.71704 11 8.9409 11 9.21704C11 9.49318 10.7761 9.71704 10.5 9.71704H1.5C1.22386 9.71704 1 9.49318 1 9.21704Z" fill="black"/>
<path d="M1.5 12.717C1.22386 12.717 1 12.9409 1 13.217C1 13.4932 1.22386 13.717 1.5 13.717H6.5C6.77614 13.717 7 13.4932 7 13.217C7 12.9409 6.77614 12.717 6.5 12.717H1.5Z" fill="black"/>
</g>
</svg>
