<svg width="16" height="16" viewBox="0 0 16 16" fill="none" xmlns="http://www.w3.org/2000/svg">
<g opacity="0.9" clip-path="url(#clip0)">
<path fill-rule="evenodd" clip-rule="evenodd" d="M8.07166 1C4.30566 1 1.25236 4.0533 1.25236 7.82007C1.25236 9.10838 1.60988 10.3133 2.23067 11.3415L1 15L4.77534 13.7911C5.75209 14.3309 6.87604 14.6394 8.07166 14.6394C11.8384 14.6394 14.8917 11.5861 14.8917 7.81929C14.8917 4.0533 11.8384 1 8.07166 1ZM8.07166 13.4967C6.91888 13.4967 5.84478 13.1509 4.94826 12.5581L2.76655 13.2568L3.47535 11.1483C2.79537 10.2121 2.39424 9.06242 2.39424 7.81929C2.39424 4.68888 4.94125 2.14187 8.07088 2.14187C11.2013 2.14187 13.7483 4.68888 13.7483 7.81929C13.7491 10.9505 11.2021 13.4967 8.07166 13.4967ZM11.2691 9.36931C11.0977 9.27584 10.258 8.82252 10.1007 8.75865C9.94336 8.69478 9.82808 8.66129 9.7058 8.83109C9.58351 9.00089 9.23456 9.38022 9.12941 9.49238C9.02348 9.60454 8.92144 9.61544 8.75008 9.5212C8.5795 9.42773 8.0257 9.22288 7.38233 8.60521C6.88305 8.12462 6.55513 7.542 6.46011 7.36364C6.36508 7.18527 6.45933 7.09491 6.54968 7.01157C6.63069 6.93602 6.73117 6.81451 6.8223 6.71637C6.91265 6.61823 6.94459 6.54657 7.0069 6.43285C7.06921 6.31913 7.04429 6.21631 7.00378 6.12752C6.96328 6.03872 6.64705 5.16947 6.51541 4.81507C6.38378 4.46144 6.23656 4.51363 6.13453 4.50974C6.03327 4.50662 5.91721 4.48715 5.80116 4.48325C5.6851 4.47858 5.49505 4.51519 5.32914 4.68343C5.16324 4.85167 4.69745 5.25593 4.66552 6.11272C4.63358 6.96873 5.22633 7.82007 5.30889 7.93925C5.39145 8.05842 6.44064 9.91532 8.18382 10.6786C9.92778 11.442 9.93635 11.2091 10.2565 11.1919C10.5766 11.1748 11.3018 10.8095 11.4622 10.4084C11.6227 10.0072 11.6351 9.65906 11.5946 9.58507C11.5541 9.51107 11.4404 9.46278 11.2691 9.36931Z" fill="black"/>
</g>
<defs>
<clipPath id="clip0">
<rect width="13.8917" height="14" fill="white" transform="translate(1 1)"/>
</clipPath>
</defs>
</svg>
