<svg width="32" height="32" viewBox="0 0 32 32" fill="none" xmlns="http://www.w3.org/2000/svg">
<path opacity="0.9" fill-rule="evenodd" clip-rule="evenodd" d="M16.628 4C9.90297 4 4.45065 9.45232 4.45065 16.1787C4.45065 18.4792 5.08907 20.631 6.19762 22.467L4 29L10.7417 26.8413C12.4859 27.8052 14.4929 28.356 16.628 28.356C23.3543 28.356 28.8067 22.9037 28.8067 16.1773C28.8067 9.45232 23.3543 4 16.628 4ZM16.628 26.3156C14.5694 26.3156 12.6514 25.698 11.0505 24.6395L7.15456 25.8872L8.42027 22.122C7.20602 20.4501 6.48971 18.3972 6.48971 16.1773C6.48971 10.5873 11.0379 6.03906 16.6266 6.03906C22.2166 6.03906 26.7648 10.5873 26.7648 16.1773C26.7662 21.7687 22.218 26.3156 16.628 26.3156ZM22.3376 18.9452C22.0316 18.7783 20.5322 17.9688 20.2513 17.8547C19.9703 17.7407 19.7644 17.6809 19.5461 17.9841C19.3277 18.2873 18.7046 18.9647 18.5168 19.165C18.3276 19.3652 18.1454 19.3847 17.8394 19.2164C17.5348 19.0495 16.5459 18.6837 15.397 17.5807C14.5055 16.7225 13.9199 15.6822 13.7502 15.3636C13.5805 15.0451 13.7488 14.8838 13.9101 14.735C14.0548 14.6 14.2342 14.3831 14.397 14.2078C14.5583 14.0325 14.6153 13.9046 14.7266 13.7015C14.8379 13.4984 14.7934 13.3148 14.721 13.1563C14.6487 12.9977 14.084 11.4455 13.8489 10.8126C13.6139 10.1811 13.351 10.2743 13.1688 10.2674C12.988 10.2618 12.7807 10.2271 12.5735 10.2201C12.3663 10.2118 12.0269 10.2771 11.7306 10.5776C11.4343 10.878 10.6026 11.5999 10.5456 13.1299C10.4885 14.6585 11.547 16.1787 11.6944 16.3915C11.8419 16.6043 13.7154 19.9202 16.8283 21.2833C19.9425 22.6464 19.9578 22.2305 20.5294 22.1999C21.1011 22.1693 22.396 21.517 22.6825 20.8007C22.9691 20.0843 22.9913 19.4626 22.919 19.3305C22.8467 19.1983 22.6436 19.1121 22.3376 18.9452Z" fill="black"/>
</svg>
