<svg width="32" height="32" viewBox="0 0 32 32" fill="none" xmlns="http://www.w3.org/2000/svg">
<g opacity="0.9">
<path fill-rule="evenodd" clip-rule="evenodd" d="M11 4.56591C9.34315 4.56591 8 5.90906 8 7.56592L8 20.5659L19.5 20.5659C19.7761 20.5659 20 20.7898 20 21.0659C20 21.3421 19.7761 21.5659 19.5 21.5659C18.1193 21.5659 17 22.6852 17 24.0659C17 25.4466 18.1193 26.5659 19.5 26.5659L20 26.5659C21.6569 26.5659 23 25.2228 23 23.5659L23 8.06592C23 7.78977 23.2239 7.56592 23.5 7.56592C23.7761 7.56592 24 7.78977 24 8.06592L24 10.5659L25 10.5659C26.6569 10.5659 28 9.22277 28 7.56592C28 5.90906 26.6569 4.56592 25 4.56592L11 4.56591ZM11.5 8.56592C11.2239 8.56592 11 8.78977 11 9.06592C11 9.34206 11.2239 9.56592 11.5 9.56592L19.5 9.56592C19.7761 9.56592 20 9.34206 20 9.06592C20 8.78977 19.7761 8.56592 19.5 8.56592L11.5 8.56592ZM11.5 11.5659C11.2239 11.5659 11 11.7898 11 12.0659C11 12.3421 11.2239 12.5659 11.5 12.5659L19.5 12.5659C19.7761 12.5659 20 12.3421 20 12.0659C20 11.7898 19.7761 11.5659 19.5 11.5659L11.5 11.5659ZM11.5 14.5659C11.2239 14.5659 11 14.7898 11 15.0659C11 15.3421 11.2239 15.5659 11.5 15.5659L19.5 15.5659C19.7761 15.5659 20 15.3421 20 15.0659C20 14.7898 19.7761 14.5659 19.5 14.5659L11.5 14.5659ZM11.5 17.5659C11.2239 17.5659 11 17.7898 11 18.0659C11 18.3421 11.2239 18.5659 11.5 18.5659L19.5 18.5659C19.7761 18.5659 20 18.3421 20 18.0659C20 17.7898 19.7761 17.5659 19.5 17.5659L11.5 17.5659Z" fill="black"/>
<path d="M17.0505 26.5659C16.4022 25.9307 16 25.0453 16 24.0659C16 23.0866 16.4022 22.2012 17.0505 21.5659L7 21.5659C5.61929 21.5659 4.5 22.6852 4.5 24.0659C4.5 25.4466 5.61929 26.5659 7 26.5659L17.0505 26.5659Z" fill="black"/>
</g>
</svg>
