<svg width="16" height="16" viewBox="0 0 16 16" fill="none" xmlns="http://www.w3.org/2000/svg">
<g opacity="0.9">
<path fill-rule="evenodd" clip-rule="evenodd" d="M3 2.56592C3 1.46135 3.89543 0.565917 5 0.565917L13 0.565917C14.1046 0.565917 15 1.46135 15 2.56592C15 3.67049 14.1046 4.56592 13 4.56592L13 3.06592C13 2.78977 12.7761 2.56592 12.5 2.56592C12.2239 2.56592 12 2.78977 12 3.06592L12 12.5659C12 13.6705 11.1046 14.5659 10 14.5659C9.17157 14.5659 8.5 13.8943 8.5 13.0659C8.5 12.2375 9.17157 11.5659 10 11.5659L10.5 11.5659C10.7761 11.5659 11 11.3421 11 11.0659C11 10.7898 10.7761 10.5659 10.5 10.5659L3 10.5659L3 2.56592ZM5.5 3.56592C5.22386 3.56592 5 3.78977 5 4.06592C5 4.34206 5.22386 4.56592 5.5 4.56592L9.5 4.56592C9.77614 4.56592 10 4.34206 10 4.06592C10 3.78978 9.77614 3.56592 9.5 3.56592L5.5 3.56592ZM5.5 5.56592C5.22386 5.56592 5 5.78977 5 6.06592C5 6.34206 5.22386 6.56592 5.5 6.56592L9.5 6.56592C9.77614 6.56592 10 6.34206 10 6.06592C10 5.78978 9.77614 5.56592 9.5 5.56592L5.5 5.56592ZM5.5 7.56592C5.22386 7.56592 5 7.78977 5 8.06592C5 8.34206 5.22386 8.56592 5.5 8.56592L9.5 8.56592C9.77614 8.56592 10 8.34206 10 8.06592C10 7.78977 9.77614 7.56592 9.5 7.56592L5.5 7.56592Z" fill="black"/>
<path d="M7.99982 14.5659L3 14.5659C2.17157 14.5659 1.5 13.8943 1.5 13.0659C1.5 12.2375 2.17157 11.5659 3 11.5659L7.99982 11.5659C7.68597 11.9837 7.5 12.5031 7.5 13.0659C7.5 13.6287 7.68597 14.1481 7.99982 14.5659Z" fill="black"/>
</g>
</svg>
