<svg width="16" height="16" viewBox="0 0 16 16" fill="none" xmlns="http://www.w3.org/2000/svg">
<g opacity="0.9">
<path fill-rule="evenodd" clip-rule="evenodd" d="M9.55496 7.13564C10.0577 6.63294 10.0577 5.81589 9.55496 5.31249C9.05226 4.80974 8.23521 4.80974 7.73181 5.31249C7.22906 5.81519 7.22906 6.63224 7.73181 7.13564C8.25111 7.63839 9.05216 7.63839 9.55496 7.13564ZM8.17261 5.75264C8.43961 5.48564 8.86381 5.48564 9.13141 5.75264C9.39846 6.01969 9.39846 6.44384 9.13141 6.71149C8.86441 6.97849 8.44026 6.97849 8.17261 6.71149C7.90496 6.44449 7.90496 6.01969 8.17261 5.75264Z" fill="black"/>
<path fill-rule="evenodd" clip-rule="evenodd" d="M2.73529 5.84724C2.95498 2.6098 5.75228 0.09552 9.08356 0.331235C12.0852 0.53568 14.4898 3.06608 14.5684 6.08309C14.6157 7.62324 14.0497 9.03744 13.1228 10.1215V12.7929C13.1228 13.0446 12.9657 13.2643 12.7299 13.3429L5.87819 15.6694C5.62651 15.748 5.35949 15.5595 5.35949 15.2925V13.8623H3.74076C3.1748 13.8623 2.70337 13.4062 2.70337 12.8249V9.98029H1.93362C1.54077 9.98029 1.28971 9.54014 1.50946 9.19454C1.72984 8.84899 1.99685 8.36159 2.26387 7.85884C2.51492 7.37144 2.71933 6.53844 2.71933 6.00439L2.73529 5.84724ZM6.77371 8.14109L6.94681 8.31424C7.00946 8.37689 7.10396 8.39279 7.18131 8.33014L7.59016 8.03184C7.76261 8.12574 7.93571 8.20434 8.12416 8.25159L8.20276 8.73899C8.21811 8.83354 8.29666 8.89614 8.39121 8.89614H8.89456C8.98846 8.89614 9.06701 8.83354 9.08301 8.73899L9.16156 8.23624C9.33466 8.18964 9.52311 8.11104 9.68026 8.01649L10.0891 8.31484C10.1677 8.37744 10.2782 8.36149 10.3408 8.29889L10.5139 8.12574L10.7042 7.95389C10.7674 7.87529 10.7674 7.78079 10.7201 7.70219L10.4218 7.29339C10.5157 7.12089 10.5943 6.94779 10.6416 6.75934L11.1443 6.68079C11.2388 6.66544 11.3014 6.58684 11.3014 6.49234V5.98899C11.3014 5.89504 11.2388 5.81649 11.1443 5.80054L10.6416 5.72194C10.5949 5.53349 10.5163 5.36104 10.4218 5.18794L10.7201 4.7791C10.7827 4.70053 10.7668 4.59003 10.7042 4.52742L10.358 4.18122C10.2794 4.11799 10.1849 4.11799 10.1063 4.16526L9.69746 4.46358C9.52496 4.36967 9.35186 4.2911 9.16341 4.24383L9.08486 3.7411C9.06951 3.64657 8.99091 3.58396 8.89641 3.58396H8.39306C8.29916 3.58396 8.22056 3.64657 8.20461 3.7411L8.12601 4.24383C7.93761 4.2911 7.74916 4.36967 7.57601 4.47955L7.16721 4.19656C7.08866 4.13395 6.97816 4.14991 6.91551 4.21252L6.74241 4.38563L6.55461 4.54216C6.49136 4.62073 6.49136 4.71527 6.53861 4.79384L6.83696 5.20264C6.74306 5.37514 6.66446 5.54824 6.61721 5.73669L6.12981 5.81529C6.03526 5.83059 5.97266 5.90919 5.97266 6.00374V6.50704C5.97266 6.60099 6.03526 6.67954 6.12981 6.69549L6.63256 6.77409C6.67916 6.96254 6.75776 7.13499 6.85231 7.30809L6.56931 7.71694C6.50671 7.79549 6.52266 7.90599 6.58526 7.96859L6.77371 8.14109ZM4.38529 6.25534C4.38529 7.60709 5.04513 8.89554 6.14515 9.68124L6.5067 9.17789C5.57982 8.50204 5.01386 7.40199 5.01386 6.25474C5.01386 4.25918 6.6326 2.64045 8.62815 2.64045V3.00201C8.62815 3.04927 8.67541 3.06523 8.7067 3.04927L9.69685 2.3581C9.72815 2.34214 9.72815 2.29548 9.69685 2.27952L8.7067 1.58835C8.67541 1.573 8.62815 1.58835 8.62815 1.63561V2.0125C6.28705 2.0125 4.38529 3.91425 4.38529 6.25534ZM8.6441 10.8597V10.4982C10.9854 10.4982 12.8869 8.59699 12.9023 6.23984C12.9023 4.8889 12.2425 3.60043 11.1425 2.79875L10.7656 3.31744C11.6925 3.99332 12.2584 5.09334 12.2584 6.24064C12.2584 8.23619 10.6397 9.85489 8.6441 9.85489V9.49334C8.6441 9.44609 8.59685 9.43014 8.56555 9.44609L7.5754 10.1372C7.5441 10.1532 7.5441 10.1999 7.5754 10.2158L8.56555 10.907C8.59685 10.9223 8.6441 10.907 8.6441 10.8597Z" fill="black"/>
</g>
</svg>
