<svg width="24" height="24" viewBox="0 0 24 24" fill="none" xmlns="http://www.w3.org/2000/svg">
<g opacity="0.9">
<path d="M1.5 3.5C1.5 3.22386 1.72386 3 2 3H5.5C6.32843 3 7 3.67157 7 4.5V19.5C7 20.3284 6.32843 21 5.5 21H2C1.72386 21 1.5 20.7761 1.5 20.5C1.5 20.2239 1.72386 20 2 20H5.5C5.77614 20 6 19.7761 6 19.5V4.5C6 4.22386 5.77614 4 5.5 4H2C1.72386 4 1.5 3.77614 1.5 3.5Z" fill="black"/>
<path d="M9 4.5C9 3.67157 9.67157 3 10.5 3H20.5C21.3284 3 22 3.67157 22 4.5V19.5C22 20.3284 21.3284 21 20.5 21H10.5C9.67157 21 9 20.3284 9 19.5V14.5C9 14.2239 9.22386 14 9.5 14C9.77614 14 10 14.2239 10 14.5V19.5C10 19.7761 10.2239 20 10.5 20H20.5C20.7761 20 21 19.7761 21 19.5V4.5C21 4.22386 20.7761 4 20.5 4H10.5C10.2239 4 10 4.22386 10 4.5V8.59091C10 8.86705 9.77614 9.09091 9.5 9.09091C9.22386 9.09091 9 8.86705 9 8.59091V4.5Z" fill="black"/>
<path d="M14.1464 10.3536C13.9512 10.1583 13.9512 9.84171 14.1464 9.64645C14.3417 9.45118 14.6583 9.45118 14.8535 9.64645L16.7071 11.5L14.8535 13.3536C14.6583 13.5488 14.3417 13.5488 14.1464 13.3536C13.9512 13.1583 13.9512 12.8417 14.1464 12.6464L14.7929 12H8.49999C8.22384 12 7.99999 11.7761 7.99999 11.5C7.99999 11.2239 8.22384 11 8.49999 11H14.7929L14.1464 10.3536Z" fill="black"/>
</g>
</svg>
