<svg width="32" height="32" viewBox="0 0 32 32" fill="none" xmlns="http://www.w3.org/2000/svg">
<g opacity="0.9">
<path d="M2.5 5C2.22386 5 2 5.22386 2 5.5V26.5C2 26.7761 2.22386 27 2.5 27H6.5C7.88071 27 9 25.8807 9 24.5V7.5C9 6.11929 7.88071 5 6.5 5H2.5Z" fill="black"/>
<path d="M11 24.5V18H16.0632C15.8928 18.6626 16.067 19.3954 16.5858 19.9142C17.3668 20.6953 18.6332 20.6953 19.4142 19.9142L23.3284 16L19.4142 12.0858C18.6332 11.3047 17.3668 11.3047 16.5858 12.0858C16.067 12.6046 15.8928 13.3374 16.0632 14H11V7.5C11 6.11929 12.1193 5 13.5 5H24.5C25.8807 5 27 6.11929 27 7.5V24.5C27 25.8807 25.8807 27 24.5 27H13.5C12.1193 27 11 25.8807 11 24.5Z" fill="black"/>
<path d="M17.2929 14.2071C16.9024 13.8166 16.9024 13.1834 17.2929 12.7929C17.6834 12.4024 18.3166 12.4024 18.7071 12.7929L21.9142 16L18.7071 19.2071C18.3166 19.5976 17.6834 19.5976 17.2929 19.2071C16.9024 18.8166 16.9024 18.1834 17.2929 17.7929L18.0858 17H11C10.4477 17 10 16.5523 10 16C10 15.4477 10.4477 15 11 15H18.0858L17.2929 14.2071Z" fill="black"/>
</g>
</svg>
