<svg width="32" height="32" viewBox="0 0 32 32" fill="none" xmlns="http://www.w3.org/2000/svg">
<g opacity="0.9">
<path d="M2.5 5.5C2.5 5.22386 2.72386 5 3 5H6.5C7.88071 5 9 6.11929 9 7.5V24.5C9 25.8807 7.88071 27 6.5 27H3C2.72386 27 2.5 26.7761 2.5 26.5C2.5 26.2239 2.72386 26 3 26H6.5C7.32843 26 8 25.3284 8 24.5V7.5C8 6.67157 7.32843 6 6.5 6H3C2.72386 6 2.5 5.77614 2.5 5.5Z" fill="black"/>
<path d="M11 7.5C11 6.11929 12.1193 5 13.5 5H24.5C25.8807 5 27 6.11929 27 7.5V24.5C27 25.8807 25.8807 27 24.5 27H13.5C12.1193 27 11 25.8807 11 24.5V19.0882C11 18.8121 11.2239 18.5882 11.5 18.5882C11.7761 18.5882 12 18.8121 12 19.0882V24.5C12 25.3284 12.6716 26 13.5 26H24.5C25.3284 26 26 25.3284 26 24.5V7.5C26 6.67157 25.3284 6 24.5 6H13.5C12.6716 6 12 6.67157 12 7.5V11.7888C12 12.0649 11.7761 12.2888 11.5 12.2888C11.2239 12.2888 11 12.0649 11 11.7888V7.5Z" fill="black"/>
<path d="M16.1464 14.3536C15.9512 14.1583 15.9512 13.8417 16.1464 13.6464C16.3417 13.4512 16.6583 13.4512 16.8535 13.6464L18.7071 15.5L16.8535 17.3536C16.6583 17.5488 16.3417 17.5488 16.1464 17.3536C15.9512 17.1583 15.9512 16.8417 16.1464 16.6464L16.7929 16H10.5C10.2238 16 9.99999 15.7761 9.99999 15.5C9.99999 15.2239 10.2238 15 10.5 15H16.7929L16.1464 14.3536Z" fill="black"/>
</g>
</svg>
