<svg width="16" height="16" viewBox="0 0 16 16" fill="none" xmlns="http://www.w3.org/2000/svg">
<path d="M14.0474 6.45978C14.0018 6.47864 13.9576 6.50394 13.9158 6.53567L13.173 7.15257C13.1094 7.12235 13.0545 7.09795 13.0017 7.0769L12.9153 6.14233C12.9166 5.87 12.6503 5.63663 12.3587 5.63663L11.0345 5.63732C10.757 5.63732 10.5345 5.84605 10.4823 6.1136L10.3914 7.08296C10.3358 7.10528 10.2791 7.12951 10.2226 7.15502L9.48765 6.54442C9.24343 6.35962 8.90016 6.37805 8.71886 6.6225L7.78634 7.55908C7.59755 7.74621 7.5971 8.06808 7.75857 8.28433L8.37344 9.03812C8.34304 9.10296 8.31854 9.15881 8.29746 9.21228L7.38011 9.27746C7.09997 9.2767 6.86906 9.54488 6.86906 9.83537V11.1971C6.86906 11.4729 7.07546 11.6969 7.3429 11.75L8.30093 11.8415C8.32384 11.8995 8.34879 11.9589 8.37508 12.018L8.00509 12.4714C7.68702 12.5069 7.36216 12.5252 7.03197 12.5252C6.4826 12.5252 5.65854 12.4761 5.14534 12.38L1.37209 14.4164L2.74418 11.1921C1.09807 10.1541 0 8.66925 0 6.85297C0 3.71882 3.14758 1.17997 7.03197 1.1792C10.7529 1.1792 13.7977 3.50884 14.0474 6.45978Z" fill="black"/>
<path fill-rule="evenodd" clip-rule="evenodd" d="M10.947 7.51874C10.6614 7.59348 10.3919 7.70852 10.1448 7.85747L9.1456 7.02772L8.24666 7.93616L9.0704 8.94607C8.92149 9.19999 8.80743 9.47715 8.73486 9.77085L7.46668 9.86242V11.1599L8.73593 11.2807C8.80869 11.5734 8.92267 11.8497 9.0713 12.1028L8.25832 13.0981L9.17039 14.0182L10.1597 13.1987C10.4112 13.3484 10.6857 13.4631 10.9765 13.5361L11.0952 14.8213H12.3716L12.4918 13.5304C12.7797 13.4558 13.0513 13.3403 13.3001 13.1903L14.2959 14.0187L15.209 13.0978L14.3848 12.0851C14.5283 11.8371 14.6386 11.5673 14.7097 11.2817L16 11.1603V9.86703L14.7046 9.74564C14.6281 9.44669 14.5085 9.16519 14.3529 8.90827L15.1572 7.9236L14.247 7.02923L13.2707 7.83942C13.0158 7.68971 12.7376 7.57585 12.443 7.50468L12.3224 6.22743H11.0706L10.947 7.51874ZM13.4153 10.5243C13.4153 11.455 12.6558 12.2214 11.7334 12.2214C10.811 12.2214 10.0514 11.455 10.0514 10.5243C10.0514 9.59367 10.811 8.82731 11.7334 8.82731C12.6558 8.82731 13.4153 9.59367 13.4153 10.5243Z" fill="black"/>
<path d="M11.7334 11.6956C11.0967 11.6956 10.5725 11.1667 10.5725 10.5244C10.5725 9.882 11.0967 9.35307 11.7334 9.35307C12.37 9.35307 12.8942 9.882 12.8942 10.5244C12.8942 11.1667 12.37 11.6956 11.7334 11.6956Z" fill="black"/>
</svg>
