<svg width="32" height="32" viewBox="0 0 32 32" fill="none" xmlns="http://www.w3.org/2000/svg">
<path opacity="0.9" fill-rule="evenodd" clip-rule="evenodd" d="M16 4C9.37258 4 4 9.37258 4 16C4 22.6274 9.37258 28 16 28C22.6274 28 28 22.6274 28 16C28 9.37258 22.6274 4 16 4ZM5 16C5 9.92487 9.92487 5 16 5C18.8577 5 21.4608 6.0897 23.4166 7.87624L7.87624 23.4166C6.0897 21.4608 5 18.8577 5 16ZM8.58335 24.1237C10.5391 25.9103 13.1423 27 16 27C22.0751 27 27 22.0751 27 16C27 13.1423 25.9103 10.5391 24.1237 8.58334L8.58335 24.1237Z" fill="black"/>
</svg>
