<svg width="24" height="24" viewBox="0 0 24 24" fill="none" xmlns="http://www.w3.org/2000/svg">
<path opacity="0.9" d="M13.5 2.5C13.5 2.67265 13.4781 2.84019 13.437 3H20C20.5523 3 21 3.44772 21 4V10.7676C21.2942 10.5974 21.6357 10.5 22 10.5C23.1046 10.5 24 11.3954 24 12.5C24 13.6046 23.1046 14.5 22 14.5C21.6357 14.5 21.2942 14.4026 21 14.2324V21C21 21.5523 20.5523 22 20 22H13.0275L13.3336 21.2997C13.4405 21.0553 13.5 20.7851 13.5 20.4996C13.5 19.395 12.6046 18.4996 11.5 18.4996C10.3954 18.4996 9.5 19.395 9.5 20.4996C9.5 20.7851 9.55952 21.0553 9.66635 21.2997L9.97248 22H3C2.44772 22 2 21.5523 2 21V14.0274L2.70019 14.3334C2.94448 14.4401 3.21463 14.4996 3.5 14.4996C4.60457 14.4996 5.5 13.6041 5.5 12.4996C5.5 11.395 4.60457 10.4996 3.5 10.4996C3.21463 10.4996 2.94448 10.559 2.70019 10.6658L2 10.9717V4C2 3.44772 2.44771 3 3 3H9.56301C9.52188 2.84019 9.5 2.67265 9.5 2.5C9.5 1.39543 10.3954 0.5 11.5 0.5C12.6046 0.5 13.5 1.39543 13.5 2.5Z" fill="black"/>
</svg>
