<svg width="16" height="16" viewBox="0 0 16 16" fill="none" xmlns="http://www.w3.org/2000/svg">
<path d="M6 5C5.44772 5 5 5.44772 5 6V10C5 10.5523 5.44772 11 6 11C6.55228 11 7 10.5523 7 10V6C7 5.44772 6.55228 5 6 5Z" fill="black"/>
<path d="M10 5C9.44772 5 9 5.44772 9 6V10C9 10.5523 9.44772 11 10 11C10.5523 11 11 10.5523 11 10V6C11 5.44772 10.5523 5 10 5Z" fill="black"/>
<path fill-rule="evenodd" clip-rule="evenodd" d="M15 8C15 11.866 11.866 15 8 15C4.13401 15 1 11.866 1 8C1 4.13401 4.13401 1 8 1C11.866 1 15 4.13401 15 8ZM14 8C14 11.3137 11.3137 14 8 14C4.68629 14 2 11.3137 2 8C2 4.68629 4.68629 2 8 2C11.3137 2 14 4.68629 14 8Z" fill="black"/>
</svg>
