<svg width="32" height="32" viewBox="0 0 32 32" fill="none" xmlns="http://www.w3.org/2000/svg">
<path fill-rule="evenodd" clip-rule="evenodd" d="M28 16C28 22.6274 22.6274 28 16 28C9.37258 28 4 22.6274 4 16C4 9.37258 9.37258 4 16 4C22.6274 4 28 9.37258 28 16ZM11 11C11 10.4477 11.4477 10 12 10H14C14.5523 10 15 10.4477 15 11V21C15 21.5523 14.5523 22 14 22H12C11.4477 22 11 21.5523 11 21V11ZM18 10C17.4477 10 17 10.4477 17 11V21C17 21.5523 17.4477 22 18 22H20C20.5523 22 21 21.5523 21 21V11C21 10.4477 20.5523 10 20 10H18Z" fill="black"/>
</svg>
