<svg width="24" height="24" viewBox="0 0 24 24" fill="none" xmlns="http://www.w3.org/2000/svg">
<path fill-rule="evenodd" clip-rule="evenodd" d="M9 7C8.44772 7 8 7.44772 8 8V16C8 16.5523 8.44772 17 9 17H10C10.5523 17 11 16.5523 11 16V8C11 7.44772 10.5523 7 10 7H9ZM10 8H9V16H10V8Z" fill="black"/>
<path fill-rule="evenodd" clip-rule="evenodd" d="M14 7C13.4477 7 13 7.44772 13 8V16C13 16.5523 13.4477 17 14 17H15C15.5523 17 16 16.5523 16 16V8C16 7.44772 15.5523 7 15 7H14ZM15 8H14V16H15V8Z" fill="black"/>
<path fill-rule="evenodd" clip-rule="evenodd" d="M22 12C22 17.5228 17.5228 22 12 22C6.47715 22 2 17.5228 2 12C2 6.47715 6.47715 2 12 2C17.5228 2 22 6.47715 22 12ZM21 12C21 16.9706 16.9706 21 12 21C7.02944 21 3 16.9706 3 12C3 7.02944 7.02944 3 12 3C16.9706 3 21 7.02944 21 12Z" fill="black"/>
</svg>
