<svg width="32" height="32" viewBox="0 0 32 32" fill="none" xmlns="http://www.w3.org/2000/svg">
<g opacity="0.9">
<path d="M14 6.5C14 5.39543 14.8954 4.5 16 4.5C17.1046 4.5 18 5.39543 18 6.5V24C18 24.2761 17.7761 24.5 17.5 24.5H14.5C14.2239 24.5 14 24.2761 14 24V6.5Z" fill="black"/>
<path d="M7 11.5C7 10.3954 7.89543 9.5 9 9.5C10.1046 9.5 11 10.3954 11 11.5V24C11 24.2761 10.7761 24.5 10.5 24.5H7.5C7.22386 24.5 7 24.2761 7 24V11.5Z" fill="black"/>
<path d="M21 15.5C21 14.3954 21.8954 13.5 23 13.5C24.1046 13.5 25 14.3954 25 15.5V24C25 24.2761 24.7761 24.5 24.5 24.5H21.5C21.2239 24.5 21 24.2761 21 24V15.5Z" fill="black"/>
<path d="M5.5 27C5.22386 27 5 27.2239 5 27.5C5 27.7761 5.22386 28 5.5 28H26.5C26.7761 28 27 27.7761 27 27.5C27 27.2239 26.7761 27 26.5 27H5.5Z" fill="black"/>
</g>
</svg>
