<svg width="24" height="24" viewBox="0 0 24 24" fill="none" xmlns="http://www.w3.org/2000/svg">
<g opacity="0.9">
<path d="M10 4C10 3.17157 10.6716 2.5 11.5 2.5C12.3284 2.5 13 3.17157 13 4V19C13 19.2761 12.7761 19.5 12.5 19.5H10.5C10.2239 19.5 10 19.2761 10 19V4Z" fill="black"/>
<path d="M5 8C5 7.17157 5.67157 6.5 6.5 6.5C7.32843 6.5 8 7.17157 8 8V19C8 19.2761 7.77614 19.5 7.5 19.5H5.5C5.22386 19.5 5 19.2761 5 19V8Z" fill="black"/>
<path d="M15 12C15 11.1716 15.6716 10.5 16.5 10.5C17.3284 10.5 18 11.1716 18 12V19C18 19.2761 17.7761 19.5 17.5 19.5H15.5C15.2239 19.5 15 19.2761 15 19V12Z" fill="black"/>
<path d="M3.5 21C3.22386 21 3 21.2239 3 21.5C3 21.7761 3.22386 22 3.5 22H19.5C19.7761 22 20 21.7761 20 21.5C20 21.2239 19.7761 21 19.5 21H3.5Z" fill="black"/>
</g>
</svg>
