<svg width="24" height="24" viewBox="0 0 24 24" fill="none" xmlns="http://www.w3.org/2000/svg">
<path opacity="0.9" d="M12 3C7.03 3 3 7.03 3 12C3 16.97 7.03 21 12 21C12.83 21 13.5 20.33 13.5 19.5C13.5 19.11 13.35 18.76 13.11 18.49C12.88 18.23 12.73 17.88 12.73 17.5C12.73 16.67 13.4 16 14.23 16H16C18.76 16 21 13.76 21 11C21 6.58 16.97 3 12 3ZM6.5 13C5.67 13 5 12.33 5 11.5C5 10.67 5.67 10 6.5 10C7.33 10 8 10.67 8 11.5C8 12.33 7.33 13 6.5 13ZM9.5 9C8.67 9 8 8.33 8 7.5C8 6.67 8.67 6 9.5 6C10.33 6 11 6.67 11 7.5C11 8.33 10.33 9 9.5 9ZM14.5 9C13.67 9 13 8.33 13 7.5C13 6.67 13.67 6 14.5 6C15.33 6 16 6.67 16 7.5C16 8.33 15.33 9 14.5 9ZM17.5 13C16.67 13 16 12.33 16 11.5C16 10.67 16.67 10 17.5 10C18.33 10 19 10.67 19 11.5C19 12.33 18.33 13 17.5 13Z" fill="black"/>
</svg>
