<svg width="16" height="16" viewBox="0 0 16 16" fill="none" xmlns="http://www.w3.org/2000/svg">
<path opacity="0.9" fill-rule="evenodd" clip-rule="evenodd" d="M1 8C1 4.13444 4.13444 1 8 1C11.8656 1 15 3.78444 15 7.22222C15 9.36889 13.2578 11.1111 11.1111 11.1111H9.73444C9.08889 11.1111 8.56778 11.6322 8.56778 12.2778C8.56778 12.5733 8.68444 12.8456 8.86333 13.0478C9.05 13.2578 9.16667 13.53 9.16667 13.8333C9.16667 14.4789 8.64556 15 8 15C4.13444 15 1 11.8656 1 8ZM5 7C5.55228 7 6 6.55228 6 6C6 5.44772 5.55228 5 5 5C4.44772 5 4 5.44772 4 6C4 6.55228 4.44772 7 5 7ZM9 4C9 4.55228 8.55229 5 8 5C7.44772 5 7 4.55228 7 4C7 3.44772 7.44772 3 8 3C8.55229 3 9 3.44772 9 4ZM11 7C11.5523 7 12 6.55228 12 6C12 5.44772 11.5523 5 11 5C10.4477 5 10 5.44772 10 6C10 6.55228 10.4477 7 11 7Z" fill="black"/>
</svg>
