<svg width="32" height="32" viewBox="0 0 32 32" fill="none" xmlns="http://www.w3.org/2000/svg">
<path opacity="0.9" d="M16 4C9.37333 4 4 9.37333 4 16C4 22.6267 9.37333 28 16 28C17.1067 28 18 27.1067 18 26C18 25.48 17.8 25.0133 17.48 24.6533C17.1733 24.3067 16.9733 23.84 16.9733 23.3333C16.9733 22.2267 17.8667 21.3333 18.9733 21.3333H21.3333C25.0133 21.3333 28 18.3467 28 14.6667C28 8.77333 22.6267 4 16 4ZM8.66667 17C7.56 17 6.66667 16.1067 6.66667 15C6.66667 13.8933 7.56 13 8.66667 13C9.77333 13 10.6667 13.8933 10.6667 15C10.6667 16.1067 9.77333 17 8.66667 17ZM12.6667 11.6667C11.56 11.6667 10.6667 10.7733 10.6667 9.66667C10.6667 8.56 11.56 7.66667 12.6667 7.66667C13.7733 7.66667 14.6667 8.56 14.6667 9.66667C14.6667 10.7733 13.7733 11.6667 12.6667 11.6667ZM19.3333 11.6667C18.2267 11.6667 17.3333 10.7733 17.3333 9.66667C17.3333 8.56 18.2267 7.66667 19.3333 7.66667C20.44 7.66667 21.3333 8.56 21.3333 9.66667C21.3333 10.7733 20.44 11.6667 19.3333 11.6667ZM23.3333 17C22.2267 17 21.3333 16.1067 21.3333 15C21.3333 13.8933 22.2267 13 23.3333 13C24.44 13 25.3333 13.8933 25.3333 15C25.3333 16.1067 24.44 17 23.3333 17Z" fill="black"/>
</svg>
