<svg width="32" height="32" viewBox="0 0 32 32" fill="none" xmlns="http://www.w3.org/2000/svg">
<g opacity="0.9">
<path d="M11.5 4C11.7761 4 12 4.22386 12 4.5L12 9H20V4.5C20 4.22386 20.2239 4 20.5 4C20.7761 4 21 4.22386 21 4.5V9H22.5C23.3284 9 24 9.67157 24 10.5V14.5C24 18.1284 21.4234 21.1551 18 21.85V26.5C18 27.3284 17.3284 28 16.5 28H15.5C14.6716 28 14 27.3284 14 26.5L14 21.85C10.5766 21.1551 8 18.1284 8 14.5V10.5C8 9.67157 8.67157 9 9.5 9H11L11 4.5C11 4.22386 11.2239 4 11.5 4Z" fill="black"/>
<path d="M26.5479 27.3831C25.2102 27.7403 23.7238 27.3942 22.6744 26.3448C21.625 25.2954 21.2789 23.8089 21.6361 22.4713L24.092 24.9272L26.5 24.5L26.9272 22.092L24.4713 19.6361C25.8089 19.2789 27.2954 19.625 28.3448 20.6744C29.3942 21.7238 29.7403 23.2102 29.3831 24.5479L30.9128 26.0776C31.6957 26.8605 31.6957 28.1299 30.9128 28.9128C30.1299 29.6957 28.8605 29.6957 28.0776 28.9128L26.5479 27.3831Z" fill="black"/>
</g>
</svg>
