<svg width="16" height="16" viewBox="0 0 16 16" fill="none" xmlns="http://www.w3.org/2000/svg">
<g opacity="0.9">
<path d="M3 8.5C3 5.46243 5.46243 3 8.5 3C11.5376 3 14 5.46243 14 8.5C14 11.5376 11.5376 14 8.5 14C8.22386 14 8 14.2239 8 14.5C8 14.7761 8.22386 15 8.5 15C12.0899 15 15 12.0899 15 8.5C15 4.91015 12.0899 2 8.5 2C4.91015 2 2 4.91015 2 8.5C2 8.52338 2.0016 8.54638 2.00471 8.5689L1.2774 8.08403C1.04764 7.93085 0.737204 7.99294 0.584028 8.2227C0.430852 8.45247 0.492939 8.7629 0.722703 8.91608L2.2227 9.91608C2.39065 10.028 2.60945 10.028 2.7774 9.91608L4.2774 8.91608C4.50717 8.7629 4.56925 8.45247 4.41608 8.2227C4.2629 7.99294 3.95247 7.93085 3.7227 8.08403L2.99528 8.56898C2.99839 8.54643 3 8.5234 3 8.5Z" fill="black"/>
<path d="M9.00006 5.5C9.00006 5.22386 8.7762 5 8.50006 5C8.22392 5 8.00006 5.22386 8.00006 5.5V8.5C8.00006 8.63261 8.05274 8.75979 8.14651 8.85355L9.64651 10.3536C9.84177 10.5488 10.1584 10.5488 10.3536 10.3536C10.5489 10.1583 10.5489 9.84171 10.3536 9.64645L9.00006 8.29289V5.5Z" fill="black"/>
</g>
</svg>
