<svg width="16" height="16" viewBox="0 0 16 16" fill="none" xmlns="http://www.w3.org/2000/svg">
<g opacity="0.9">
<path d="M13.5001 12C14.3285 12 15.0001 11.3284 15.0001 10.5L15.0001 2.5C15.0001 1.67157 14.3285 1 13.5001 1H5.50012C4.67169 1 4.00012 1.67157 4.00012 2.5C4.00012 2.77614 4.22398 3 4.50012 3L10.5001 3C11.8808 3 13.0001 4.11929 13.0001 5.5V11.5C13.0001 11.6326 13.0528 11.7598 13.1466 11.8536C13.2403 11.9473 13.3675 12 13.5001 12Z" fill="black"/>
<path d="M2.50012 4C1.67169 4 1.00012 4.67157 1.00012 5.5V13.5C1.00012 14.3284 1.6717 15 2.50012 15H10.5001C11.3285 15 12.0001 14.3284 12.0001 13.5V5.5C12.0001 4.67157 11.3285 4 10.5001 4H2.50012Z" fill="black"/>
</g>
</svg>
