<svg width="16" height="16" viewBox="0 0 16 16" fill="none" xmlns="http://www.w3.org/2000/svg">
<g opacity="0.9">
<path fill-rule="evenodd" clip-rule="evenodd" d="M13.5 11C13.7761 11 14 10.7761 14 10.5L14 2.5C14 2.22386 13.7761 2 13.5 2L5.5 2C5.22386 2 5 2.22386 5 2.5V4.5C5 4.77614 4.77614 5 4.5 5C4.22386 5 4 4.77614 4 4.5V2.5C4 1.67157 4.67157 1 5.5 1L13.5 1C14.3284 1 15 1.67157 15 2.5L15 10.5C15 11.3284 14.3284 12 13.5 12H11.5C11.2239 12 11 11.7761 11 11.5C11 11.2239 11.2239 11 11.5 11H13.5Z" fill="black"/>
<path fill-rule="evenodd" clip-rule="evenodd" d="M1 5.5C1 4.67157 1.67157 4 2.5 4H10.5C11.3284 4 12 4.67157 12 5.5V13.5C12 14.3284 11.3284 15 10.5 15H2.5C1.67157 15 1 14.3284 1 13.5V5.5ZM2.5 5C2.22386 5 2 5.22386 2 5.5V13.5C2 13.7761 2.22386 14 2.5 14H10.5C10.7761 14 11 13.7761 11 13.5V5.5C11 5.22386 10.7761 5 10.5 5H2.5Z" fill="black"/>
</g>
</svg>
