<svg width="32" height="32" viewBox="0 0 32 32" fill="none" xmlns="http://www.w3.org/2000/svg">
<path opacity="0.9" fill-rule="evenodd" clip-rule="evenodd" d="M8 8V6.5C8 5.11929 9.11929 4 10.5 4H25.5C26.8807 4 28 5.11929 28 6.5L28 21.5C28 22.8807 26.8807 24 25.5 24H24V25.5C24 26.8807 22.8807 28 21.5 28H6.5C5.11929 28 4 26.8807 4 25.5V10.5C4 9.11929 5.11929 8 6.5 8H8ZM27 21.5C27 22.3284 26.3284 23 25.5 23H24V10.5C24 9.11929 22.8807 8 21.5 8H9V6.5C9 5.67157 9.67157 5 10.5 5L25.5 5C26.3284 5 27 5.67157 27 6.5L27 21.5ZM23 10.5C23 9.67157 22.3284 9 21.5 9H6.5C5.67157 9 5 9.67157 5 10.5V25.5C5 26.3284 5.67157 27 6.5 27H21.5C22.3284 27 23 26.3284 23 25.5V10.5Z" fill="black"/>
</svg>
