<svg width="16" height="16" viewBox="0 0 16 16" fill="none" xmlns="http://www.w3.org/2000/svg">
<g opacity="0.9">
<path fill-rule="evenodd" clip-rule="evenodd" d="M12.63 7.33634C12.6353 7.34215 12.6407 7.3478 12.6462 7.35331C12.5525 7.54912 12.5 7.76843 12.5 8C12.5 8.82843 13.1716 9.5 14 9.5C14.8284 9.5 15.5 8.82843 15.5 8C15.5 7.17158 14.8284 6.5 14 6.5C13.7686 6.5 13.5495 6.55238 13.3538 6.64593L8.36997 1.16366C8.27799 1.06249 8.14859 1.00339 8.01189 1.00014C7.87519 0.996889 7.74313 1.04976 7.64644 1.14645L4.64644 4.14645C4.45118 4.34171 4.45118 4.65829 4.64644 4.85355C4.8417 5.04881 5.15829 5.04881 5.35355 4.85355L7.98276 2.22434L12.63 7.33634ZM14 7.5C13.7239 7.5 13.5 7.72386 13.5 8C13.5 8.27615 13.7239 8.5 14 8.5C14.2761 8.5 14.5 8.27615 14.5 8C14.5 7.72386 14.2761 7.5 14 7.5Z" fill="black"/>
<path fill-rule="evenodd" clip-rule="evenodd" d="M0.5 8C0.5 7.17158 1.17157 6.5 2 6.5C2.82843 6.5 3.5 7.17158 3.5 8C3.5 8.23157 3.44753 8.45089 3.35382 8.6467C3.35931 8.65221 3.36469 8.65786 3.36997 8.66367L8.01724 13.7757L10.6465 11.1465C10.8417 10.9512 11.1583 10.9512 11.3536 11.1465C11.5488 11.3417 11.5488 11.6583 11.3536 11.8536L8.35356 14.8536C8.25687 14.9502 8.12481 15.0031 7.98811 14.9999C7.85141 14.9966 7.72201 14.9375 7.63003 14.8363L2.64616 9.35408C2.45048 9.44763 2.23136 9.5 2 9.5C1.17157 9.5 0.5 8.82843 0.5 8ZM1.5 8C1.5 7.72386 1.72386 7.5 2 7.5C2.27614 7.5 2.5 7.72386 2.5 8C2.5 8.27615 2.27614 8.5 2 8.5C1.72386 8.5 1.5 8.27615 1.5 8Z" fill="black"/>
<path fill-rule="evenodd" clip-rule="evenodd" d="M6.58002 6.1331V9.86691C6.58002 10.2556 7.004 10.4956 7.33727 10.2957L10.4488 8.42875C10.7724 8.23455 10.7724 7.76546 10.4488 7.57126L7.33727 5.70435C7.004 5.5044 6.58002 5.74445 6.58002 6.1331ZM9.2197 8L7.58002 8.98381V7.0162L9.2197 8Z" fill="black"/>
</g>
</svg>
