<svg width="24" height="24" viewBox="0 0 24 24" fill="none" xmlns="http://www.w3.org/2000/svg">
<g opacity="0.9">
<path d="M11.6464 2.64645C11.8417 2.45118 12.1583 2.45118 12.3536 2.64645L19.984 10.2769C20.2818 10.101 20.6291 10 21 10C22.1046 10 23 10.8954 23 12C23 13.1046 22.1046 14 21 14C19.8954 14 19 13.1046 19 12C19 11.6291 19.101 11.2818 19.2769 10.984L12 3.70711L8.35355 7.35355C8.15829 7.54882 7.84171 7.54882 7.64645 7.35355C7.45118 7.15829 7.45118 6.84171 7.64645 6.64645L11.6464 2.64645Z" fill="black"/>
<path d="M3 10C1.89543 10 1 10.8954 1 12C1 13.1046 1.89543 14 3 14C3.3709 14 3.71823 13.899 4.01598 13.7231L11.6464 21.3536C11.8417 21.5488 12.1583 21.5488 12.3536 21.3536L16.8536 16.8536C17.0488 16.6583 17.0488 16.3417 16.8536 16.1464C16.6583 15.9512 16.3417 15.9512 16.1464 16.1464L12 20.2929L4.72309 13.016C4.89904 12.7182 5 12.3709 5 12C5 10.8954 4.10457 10 3 10Z" fill="black"/>
<path d="M10 9.3705V14.6295C10 15.0154 10.4186 15.2558 10.7519 15.0614L15.2596 12.4319C15.5904 12.2389 15.5904 11.761 15.2596 11.5681L10.7519 8.93861C10.4186 8.74417 10 8.98461 10 9.3705Z" fill="black"/>
</g>
</svg>
