<svg width="16" height="16" viewBox="0 0 16 16" fill="none" xmlns="http://www.w3.org/2000/svg">
<g opacity="0.9">
<path d="M6 4C6 4.55228 5.55228 5 5 5C4.44772 5 4 4.55228 4 4C4 3.44772 4.44772 3 5 3C5.55228 3 6 3.44772 6 4Z" fill="black"/>
<path fill-rule="evenodd" clip-rule="evenodd" d="M3.5 1C2.11929 1 1 2.11929 1 3.5V12.2071L3 14.2071L4 13.2071L4.5 13.7071L6 12.2071L8.5 14.7071L11 12.2071L12.5 13.7071L15 11.2071V3.5C15 2.11929 13.8807 1 12.5 1H3.5ZM4.5 12.2929L4 11.7929L3 12.7929L2 11.7929V11.2071L5.50004 7.70706L7.29293 9.49996L4.5 12.2929ZM5.50004 6.29285L2 9.79288V3.5C2 2.67157 2.67157 2 3.5 2H12.5C13.3284 2 14 2.67157 14 3.5V7.79281L11.5 5.29285L8.00004 8.79285L5.50004 6.29285ZM6.7071 11.5L8.5 13.2929L11 10.7929L12.5 12.2929L14 10.7929V9.20702L11.5 6.70706L6.7071 11.5Z" fill="black"/>
</g>
</svg>
