<svg width="32" height="32" viewBox="0 0 32 32" fill="none" xmlns="http://www.w3.org/2000/svg">
<g opacity="0.9">
<path d="M6.50001 4C5.1193 4 4.00001 5.11929 4.00001 6.5L4 23.2959L4.64645 23.9423L4.64791 23.9409L6.5 25.793L9.5 22.793L10.2071 23.5001L15.2071 18.5001L12.5 15.793L5.20565 23.0873L5 22.8817L5.00001 6.5C5.00001 5.67157 5.67158 5 6.50001 5H25.5C26.3284 5 27 5.67157 27 6.5V17.293L22.5 12.793L13 22.293L16.5 25.793L20.5 21.793L22.5 23.793L24.5 21.793L25.5 22.793L26.5 21.793L28 23.293L28 6.5C28 5.11929 26.8807 4 25.5 4H6.50001Z" fill="black"/>
<path d="M11.5 13C12.8807 13 14 11.8807 14 10.5C14 9.11929 12.8807 8 11.5 8C10.1193 8 9 9.11929 9 10.5C9 11.8807 10.1193 13 11.5 13Z" fill="black"/>
</g>
</svg>
