<svg width="24" height="24" viewBox="0 0 24 24" fill="none" xmlns="http://www.w3.org/2000/svg">
<g opacity="0.9">
<path fill-rule="evenodd" clip-rule="evenodd" d="M3 6.5C3 5.67157 3.67157 5 4.5 5H19.5C20.3284 5 21 5.67157 21 6.5V17H3V6.5ZM4.5 6C4.22386 6 4 6.22386 4 6.5V16H20V6.5C20 6.22386 19.7761 6 19.5 6H4.5Z" fill="black"/>
<path fill-rule="evenodd" clip-rule="evenodd" d="M1.5 16C1.22386 16 1 16.2239 1 16.5C1 17.8807 2.11929 19 3.5 19H20.7609C21.9975 19 23 17.9975 23 16.7609C23 16.3407 22.6593 16 22.2391 16H1.5Z" fill="black"/>
</g>
</svg>
