<svg width="16" height="16" viewBox="0 0 16 16" fill="none" xmlns="http://www.w3.org/2000/svg">
<g clip-path="url(#clip0)">
<g opacity="0.9">
<path d="M9 8C9 8.55228 8.55228 9 8 9C7.44772 9 7 8.55228 7 8C7 7.44772 7.44772 7 8 7C8.55228 7 9 7.44772 9 8Z" fill="black"/>
<path fill-rule="evenodd" clip-rule="evenodd" d="M12.8889 8.31432C13.0364 8.13119 13.0367 7.86913 12.8891 7.686L12.8882 7.68488L12.8864 7.68259L12.8804 7.67534L12.8598 7.65055C12.8422 7.62959 12.817 7.59997 12.7845 7.56292C12.7196 7.48886 12.6254 7.38488 12.505 7.26096C12.2647 7.01366 11.9172 6.68394 11.4864 6.35335C10.6369 5.70137 9.40412 5 8.00001 5C6.5959 5 5.36311 5.70137 4.51361 6.35335C4.08287 6.68394 3.7353 7.01366 3.49503 7.26096C3.37463 7.38488 3.28044 7.48886 3.2155 7.56292C3.18301 7.59997 3.15779 7.62959 3.14021 7.65055L3.1196 7.67534L3.11367 7.68259L3.11181 7.68488L3.11116 7.68568C2.96358 7.86881 2.96312 8.13061 3.1107 8.31374L3.11181 8.31512L3.11367 8.31741L3.1196 8.32466L3.14021 8.34945C3.15779 8.37041 3.18301 8.40003 3.2155 8.43708C3.28044 8.51114 3.37463 8.61512 3.49503 8.73904C3.7353 8.98634 4.08287 9.31606 4.51361 9.64664C5.36311 10.2986 6.5959 11 8.00001 11C9.40412 11 10.6369 10.2986 11.4864 9.64664C11.9172 9.31606 12.2647 8.98634 12.505 8.73904C12.6254 8.61512 12.7196 8.51114 12.7845 8.43708C12.817 8.40003 12.8422 8.37041 12.8598 8.34945L12.8804 8.32466L12.8864 8.31741L12.8882 8.31512L12.8889 8.31432ZM4.21226 8.04221C4.42742 8.26366 4.73885 8.55894 5.12245 8.85336C5.90164 9.45137 6.91884 10 8.00001 10C9.08118 10 10.0984 9.45137 10.8776 8.85336C11.2612 8.55894 11.5726 8.26366 11.7878 8.04221L11.8285 8L11.7878 7.95779C11.5726 7.73634 11.2612 7.44106 10.8776 7.14664C10.0984 6.54863 9.08118 6 8.00001 6C6.91884 6 5.90164 6.54863 5.12245 7.14664C4.73885 7.44106 4.42742 7.73634 4.21226 7.95779L4.17155 8L4.21226 8.04221ZM12.5 8C12.8893 7.68626 12.8891 7.686 12.8891 7.686L12.5 8ZM3.1107 8.31374L3.50001 8C3.1107 8.31374 3.1107 8.31374 3.1107 8.31374ZM3.11116 7.68568C3.11116 7.68568 3.1107 7.68626 3.50001 8L3.11116 7.68568ZM12.8889 8.31432C12.8889 8.31432 12.8893 8.31374 12.5 8L12.8889 8.31432Z" fill="black"/>
<path fill-rule="evenodd" clip-rule="evenodd" d="M9 1C9 1.37014 8.7989 1.69331 8.5 1.86622V3H13C14.1046 3 15 3.89543 15 5V7C15.5523 7 16 7.44772 16 8V9C16 9.55229 15.5523 10 15 10V11C15 12.1046 14.1046 13 13 13H3C1.89543 13 1 12.1046 1 11V10C0.447715 10 0 9.55228 0 9V8C0 7.44772 0.447715 7 1 7V5C1 3.89543 1.89543 3 3 3H7.5V1.86622C7.2011 1.69331 7 1.37014 7 1C7 0.447715 7.44772 0 8 0C8.55229 0 9 0.447715 9 1ZM2 11C2 11.5523 2.44772 12 3 12H13C13.5523 12 14 11.5523 14 11V5C14 4.44772 13.5523 4 13 4H3C2.44772 4 2 4.44772 2 5V11Z" fill="black"/>
</g>
</g>
<defs>
<clipPath id="clip0">
<rect width="16" height="16" fill="white"/>
</clipPath>
</defs>
</svg>
