<svg width="24" height="24" viewBox="0 0 24 24" fill="none" xmlns="http://www.w3.org/2000/svg">
<g opacity="0.9">
<path fill-rule="evenodd" clip-rule="evenodd" d="M14 12C14 13.1046 13.1046 14 12 14C10.8954 14 10 13.1046 10 12C10 10.8954 10.8954 10 12 10C13.1046 10 14 10.8954 14 12ZM13 12C13 12.5523 12.5523 13 12 13C11.4477 13 11 12.5523 11 12C11 11.4477 11.4477 11 12 11C12.5523 11 13 11.4477 13 12Z" fill="black"/>
<path fill-rule="evenodd" clip-rule="evenodd" d="M19.8602 12.3467C20.0458 12.1533 20.0461 11.847 19.8605 11.6536L19.8593 11.6523L19.8567 11.6496L19.8476 11.6403L19.815 11.6073C19.7869 11.5792 19.7462 11.5391 19.6935 11.4885C19.5881 11.3875 19.4344 11.245 19.2376 11.0749C18.8445 10.735 18.2765 10.2825 17.5742 9.82976C16.1778 8.92951 14.2069 8 12 8C9.79307 8 7.82216 8.92951 6.42576 9.82976C5.72345 10.2825 5.15552 10.735 4.76236 11.0749C4.56555 11.245 4.41192 11.3875 4.30649 11.4885C4.25376 11.5391 4.21303 11.5792 4.18495 11.6073L4.15237 11.6403L4.14332 11.6496L4.14064 11.6523L4.13976 11.6533C3.95416 11.8467 3.95359 12.1527 4.13919 12.3462C4.13919 12.3462 4.13919 12.3462 4.49999 12L4.13919 12.3462L4.14064 12.3477L4.14332 12.3504L4.15237 12.3597L4.18495 12.3927C4.21303 12.4208 4.25376 12.4609 4.30649 12.5115C4.41192 12.6125 4.56555 12.755 4.76236 12.9251C5.15552 13.265 5.72345 13.7175 6.42576 14.1702C7.82216 15.0705 9.79307 16 12 16C14.2069 16 16.1778 15.0705 17.5742 14.1702C18.2765 13.7175 18.8445 13.265 19.2376 12.9251C19.4344 12.755 19.5881 12.6125 19.6935 12.5115C19.7462 12.4609 19.7869 12.4208 19.815 12.3927L19.8476 12.3597L19.8567 12.3504L19.8593 12.3477L19.8602 12.3467ZM5.2253 12C5.28272 12.0518 5.34651 12.1082 5.41639 12.1686C5.78227 12.485 6.31269 12.9075 6.96761 13.3298C8.28568 14.1795 10.0648 15 12 15C13.9352 15 15.7143 14.1795 17.0324 13.3298C17.6873 12.9075 18.2177 12.485 18.5836 12.1686C18.6535 12.1082 18.7173 12.0518 18.7747 12C18.7173 11.9482 18.6535 11.8918 18.5836 11.8314C18.2177 11.515 17.6873 11.0925 17.0324 10.6702C15.7143 9.82049 13.9352 9 12 9C10.0648 9 8.28568 9.82049 6.96761 10.6702C6.31269 11.0925 5.78227 11.515 5.41639 11.8314C5.34651 11.8918 5.28272 11.9482 5.2253 12ZM19.5 12C19.8608 11.6538 19.8605 11.6536 19.8605 11.6536L19.5 12ZM4.13976 11.6533C4.13976 11.6533 4.13919 11.6538 4.49999 12L4.13976 11.6533ZM19.8602 12.3467C19.8602 12.3467 19.8608 12.3462 19.5 12L19.8602 12.3467Z" fill="black"/>
<path fill-rule="evenodd" clip-rule="evenodd" d="M13.5 1.5C13.5 2.15311 13.0826 2.70873 12.5 2.91465V5H19C20.6569 5 22 6.34315 22 8V10C22.5523 10 23 10.4477 23 11V13C23 13.5523 22.5523 14 22 14V16C22 17.6569 20.6569 19 19 19H5C3.34315 19 2 17.6569 2 16V14C1.44772 14 1 13.5523 1 13V11C1 10.4477 1.44772 10 2 10V8C2 6.34315 3.34315 5 5 5H11.5V2.91465C10.9174 2.70873 10.5 2.15311 10.5 1.5C10.5 0.671573 11.1716 0 12 0C12.8284 0 13.5 0.671573 13.5 1.5ZM12.5 1.5C12.5 1.77614 12.2761 2 12 2C11.7239 2 11.5 1.77614 11.5 1.5C11.5 1.22386 11.7239 1 12 1C12.2761 1 12.5 1.22386 12.5 1.5ZM3 16C3 17.1046 3.89543 18 5 18H19C20.1046 18 21 17.1046 21 16V8C21 6.89543 20.1046 6 19 6H5C3.89543 6 3 6.89543 3 8V16Z" fill="black"/>
</g>
</svg>
