<svg width="32" height="32" viewBox="0 0 32 32" fill="none" xmlns="http://www.w3.org/2000/svg">
<g opacity="0.9">
<path fill-rule="evenodd" clip-rule="evenodd" d="M18.5 16.5C18.5 17.8807 17.3807 19 16 19C14.6193 19 13.5 17.8807 13.5 16.5C13.5 15.1193 14.6193 14 16 14C17.3807 14 18.5 15.1193 18.5 16.5ZM17.5 16.5C17.5 17.3284 16.8284 18 16 18C15.1716 18 14.5 17.3284 14.5 16.5C14.5 15.6716 15.1716 15 16 15C16.8284 15 17.5 15.6716 17.5 16.5Z" fill="black"/>
<path fill-rule="evenodd" clip-rule="evenodd" d="M24.8974 16.8035C25.0335 16.6246 25.0338 16.3758 24.8977 16.1969L24.8965 16.1953L24.8937 16.1917L24.8839 16.1791C24.8756 16.1683 24.8636 16.153 24.848 16.1333C24.8169 16.094 24.7714 16.0375 24.7124 15.9662C24.5944 15.8237 24.4218 15.622 24.2004 15.3807C23.7582 14.8988 23.1182 14.2559 22.3257 13.612C20.7545 12.3351 18.518 11 16 11C13.4821 11 11.2455 12.3351 9.67427 13.612C8.88187 14.2559 8.24179 14.8988 7.79958 15.3807C7.57818 15.622 7.40563 15.8237 7.28762 15.9662C7.22859 16.0375 7.18315 16.094 7.15202 16.1333C7.13645 16.153 7.12445 16.1683 7.11611 16.1791L7.10635 16.1917L7.10355 16.1953L7.10267 16.1965C6.96649 16.3754 6.96597 16.6239 7.10214 16.8028L7.10355 16.8047L7.10635 16.8083L7.11611 16.8209C7.12445 16.8317 7.13645 16.847 7.15202 16.8667C7.18315 16.906 7.22859 16.9625 7.28762 17.0338C7.40563 17.1763 7.57818 17.378 7.79958 17.6193C8.24179 18.1012 8.88187 18.7441 9.67427 19.388C11.2455 20.6649 13.4821 22 16 22C18.518 22 20.7545 20.6649 22.3257 19.388C23.1182 18.7441 23.7582 18.1012 24.2004 17.6193C24.4218 17.378 24.5944 17.1763 24.7124 17.0338C24.7714 16.9625 24.8169 16.906 24.848 16.8667C24.8636 16.847 24.8756 16.8317 24.8839 16.8209L24.8937 16.8083L24.8965 16.8047L24.8974 16.8035ZM8.14499 16.5C8.24648 16.6198 8.37778 16.7703 8.53639 16.9432C8.95442 17.3988 9.55914 18.0059 10.3049 18.612C11.8101 19.8351 13.8236 21 16 21C18.1765 21 20.1899 19.8351 21.6951 18.612C22.4409 18.0059 23.0456 17.3988 23.4636 16.9432C23.6222 16.7703 23.7535 16.6198 23.855 16.5C23.7535 16.3802 23.6222 16.2297 23.4636 16.0568C23.0456 15.6012 22.4409 14.9941 21.6951 14.388C20.1899 13.1649 18.1765 12 16 12C13.8236 12 11.8101 13.1649 10.3049 14.388C9.55914 14.9941 8.95442 15.6012 8.53639 16.0568C8.37778 16.2297 8.24648 16.3802 8.14499 16.5ZM24.5 16.5C24.8979 16.1972 24.8977 16.1969 24.8977 16.1969L24.5 16.5ZM7.10214 16.8028L7.50001 16.5C7.10214 16.8028 7.10214 16.8028 7.10214 16.8028ZM7.10267 16.1965C7.10267 16.1965 7.10214 16.1972 7.50001 16.5L7.10267 16.1965ZM24.8974 16.8035C24.8974 16.8035 24.8979 16.8028 24.5 16.5L24.8974 16.8035Z" fill="black"/>
<path fill-rule="evenodd" clip-rule="evenodd" d="M18 4C18 4.93192 17.3626 5.71497 16.5 5.93699V8H25C26.6569 8 28 9.34315 28 11V14H29C29.5523 14 30 14.4477 30 15V18C30 18.5523 29.5523 19 29 19H28V22C28 23.6569 26.6569 25 25 25H7C5.34315 25 4 23.6569 4 22V19H3C2.44772 19 2 18.5523 2 18V15C2 14.4477 2.44772 14 3 14H4V11C4 9.34315 5.34315 8 7 8H15.5V5.93699C14.6374 5.71497 14 4.93192 14 4C14 2.89543 14.8954 2 16 2C17.1046 2 18 2.89543 18 4ZM17 4C17 4.55228 16.5523 5 16 5C15.4477 5 15 4.55228 15 4C15 3.44772 15.4477 3 16 3C16.5523 3 17 3.44772 17 4ZM28 18H29V15H28V18ZM27 11C27 9.89543 26.1046 9 25 9H7C5.89543 9 5 9.89543 5 11V22C5 23.1046 5.89543 24 7 24H25C26.1046 24 27 23.1046 27 22V11ZM4 15H3V18H4V15Z" fill="black"/>
</g>
</svg>
