<svg width="32" height="32" viewBox="0 0 32 32" fill="none" xmlns="http://www.w3.org/2000/svg">
<path opacity="0.9" fill-rule="evenodd" clip-rule="evenodd" d="M9 8C9 5.23858 11.2386 3 14 3H18C20.7614 3 23 5.23858 23 8V12H24C25.6569 12 27 13.3431 27 15V26C27 27.1046 26.1046 28 25 28H7C5.89543 28 5 27.1046 5 26V15C5 13.3431 6.34315 12 8 12H9V8ZM21 8V12H11V8C11 6.34315 12.3431 5 14 5H18C19.6569 5 21 6.34315 21 8ZM18 19C18 19.7403 17.5978 20.3866 17 20.7324V22C17 22.5523 16.5523 23 16 23C15.4477 23 15 22.5523 15 22V20.7324C14.4022 20.3866 14 19.7403 14 19C14 17.8954 14.8954 17 16 17C17.1046 17 18 17.8954 18 19Z" fill="black"/>
</svg>
