<svg width="24" height="24" viewBox="0 0 24 24" fill="none" xmlns="http://www.w3.org/2000/svg">
<path opacity="0.9" fill-rule="evenodd" clip-rule="evenodd" d="M12 8C12.4004 8 12.7734 7.88231 13.0862 7.67964C13.6361 7.32326 14 6.70413 14 6C14 4.89543 13.1046 4 12 4C10.8954 4 10 4.89543 10 6C10 6.52597 10.203 7.00451 10.535 7.36154L4.62305 16.599C4.42697 16.5347 4.21754 16.5 4 16.5C2.89543 16.5 2 17.3954 2 18.5C2 19.6046 2.89543 20.5 4 20.5C4.93191 20.5 5.71496 19.8626 5.93699 19H18.063C18.285 19.8626 19.0681 20.5 20 20.5C21.1046 20.5 22 19.6046 22 18.5C22 17.3954 21.1046 16.5 20 16.5C19.7825 16.5 19.573 16.5347 19.377 16.599L13.465 7.36155C13.3526 7.48249 13.2253 7.58947 13.0862 7.67964C12.9433 7.77221 12.7879 7.84707 12.623 7.90107L18.535 17.1385C18.312 17.3783 18.1472 17.673 18.063 18H5.937C5.85282 17.673 5.68801 17.3783 5.46502 17.1385L11.377 7.90106C11.5508 7.96484 11.7733 8 12 8ZM12 7C12.5523 7 13 6.55228 13 6C13 5.44772 12.5523 5 12 5C11.4477 5 11 5.44772 11 6C11 6.55228 11.4477 7 12 7ZM5 18.5C5 19.0523 4.55228 19.5 4 19.5C3.44772 19.5 3 19.0523 3 18.5C3 17.9477 3.44772 17.5 4 17.5C4.55228 17.5 5 17.9477 5 18.5ZM21 18.5C21 19.0523 20.5523 19.5 20 19.5C19.4477 19.5 19 19.0523 19 18.5C19 17.9477 19.4477 17.5 20 17.5C20.5523 17.5 21 17.9477 21 18.5Z" fill="black"/>
</svg>
