<svg width="32" height="32" viewBox="0 0 32 32" fill="none" xmlns="http://www.w3.org/2000/svg">
<mask id="path-1-inside-1" fill="white">
<path d="M13.5255 25.5C13.5255 25.2248 13.7486 25.0017 14.0238 25.0017H18.0272C18.3024 25.0017 18.5255 25.2248 18.5255 25.5C18.5255 25.7752 18.3024 25.9983 18.0272 25.9983H14.0238C13.7486 25.9983 13.5255 25.7752 13.5255 25.5Z"/>
</mask>
<path d="M14.0238 26.0017H18.0272V24.0017H14.0238V26.0017ZM18.0272 24.9983H14.0238V26.9983H18.0272V24.9983ZM14.0238 24.9983C14.3009 24.9983 14.5255 25.2229 14.5255 25.5H12.5255C12.5255 26.3275 13.1963 26.9983 14.0238 26.9983V24.9983ZM17.5255 25.5C17.5255 25.2229 17.7501 24.9983 18.0272 24.9983V26.9983C18.8547 26.9983 19.5255 26.3275 19.5255 25.5H17.5255ZM18.0272 26.0017C17.7501 26.0017 17.5255 25.7771 17.5255 25.5H19.5255C19.5255 24.6725 18.8547 24.0017 18.0272 24.0017V26.0017ZM14.0238 24.0017C13.1963 24.0017 12.5255 24.6725 12.5255 25.5H14.5255C14.5255 25.7771 14.3009 26.0017 14.0238 26.0017V24.0017Z" fill="black" mask="url(#path-1-inside-1)"/>
<mask id="path-3-inside-2" fill="white">
<path d="M13.5255 25.5C13.5255 25.2248 13.7486 25.0017 14.0238 25.0017H18.0272C18.3024 25.0017 18.5255 25.2248 18.5255 25.5C18.5255 25.7752 18.3024 25.9983 18.0272 25.9983H14.0238C13.7486 25.9983 13.5255 25.7752 13.5255 25.5Z"/>
</mask>
<path d="M14.0238 26.0017H18.0272V24.0017H14.0238V26.0017ZM18.0272 24.9983H14.0238V26.9983H18.0272V24.9983ZM14.0238 24.9983C14.3009 24.9983 14.5255 25.2229 14.5255 25.5H12.5255C12.5255 26.3275 13.1963 26.9983 14.0238 26.9983V24.9983ZM17.5255 25.5C17.5255 25.2229 17.7501 24.9983 18.0272 24.9983V26.9983C18.8547 26.9983 19.5255 26.3275 19.5255 25.5H17.5255ZM18.0272 26.0017C17.7501 26.0017 17.5255 25.7771 17.5255 25.5H19.5255C19.5255 24.6725 18.8547 24.0017 18.0272 24.0017V26.0017ZM14.0238 24.0017C13.1963 24.0017 12.5255 24.6725 12.5255 25.5H14.5255C14.5255 25.7771 14.3009 26.0017 14.0238 26.0017V24.0017Z" fill="black" mask="url(#path-3-inside-2)"/>
<mask id="path-5-inside-3" fill="white">
<path d="M14.5255 27.5C14.5255 27.2248 14.7486 27.0017 15.0238 27.0017H17.0272C17.3024 27.0017 17.5255 27.2248 17.5255 27.5C17.5255 27.7752 17.3024 27.9983 17.0272 27.9983H15.0238C14.7486 27.9983 14.5255 27.7752 14.5255 27.5Z"/>
</mask>
<path d="M15.0238 28.0017H17.0272V26.0017H15.0238V28.0017ZM17.0272 26.9983H15.0238V28.9983H17.0272V26.9983ZM15.0238 26.9983C15.3009 26.9983 15.5255 27.2229 15.5255 27.5H13.5255C13.5255 28.3275 14.1963 28.9983 15.0238 28.9983V26.9983ZM16.5255 27.5C16.5255 27.2229 16.7501 26.9983 17.0272 26.9983V28.9983C17.8547 28.9983 18.5255 28.3275 18.5255 27.5H16.5255ZM17.0272 28.0017C16.7501 28.0017 16.5255 27.7771 16.5255 27.5H18.5255C18.5255 26.6725 17.8547 26.0017 17.0272 26.0017V28.0017ZM15.0238 26.0017C14.1963 26.0017 13.5255 26.6725 13.5255 27.5H15.5255C15.5255 27.7771 15.3009 28.0017 15.0238 28.0017V26.0017Z" fill="black" mask="url(#path-5-inside-3)"/>
<mask id="path-7-inside-4" fill="white">
<path fill-rule="evenodd" clip-rule="evenodd" d="M24.4743 12.4762C24.4743 15.079 23.3009 17.4077 21.4542 18.9623L21.4138 19.007L21.4138 19.007C20.7281 19.7662 20.0512 20.5156 19.5327 21.4012C19.5028 21.4524 19.4719 21.5031 19.4406 21.5545C19.2338 21.8941 19.0087 22.264 18.9018 23.0049C18.823 23.5516 18.3912 24.0024 17.8389 24.0019L17.7978 24.0018C17.2908 24.0014 16.7041 24.0008 15.9998 24.0008H14.1946C13.6423 24.0008 13.2136 23.5474 13.1024 23.0064C12.9725 22.3747 12.7281 21.9849 12.5169 21.6479C12.4638 21.5633 12.4129 21.4821 12.3664 21.4012C11.8776 20.5508 11.2316 19.8181 10.5713 19.0691C10.4617 18.9448 10.3517 18.82 10.242 18.6942C8.57118 17.1463 7.52539 14.9334 7.52539 12.4762C7.52539 12.4384 7.52564 12.4006 7.52613 12.3629C7.52564 12.3208 7.52539 12.2784 7.52539 12.2358L7.52873 12.2361C7.65582 7.66679 11.3998 4.00171 15.9998 4.00171C20.6 4.00171 24.3441 7.66707 24.471 12.2366L24.4742 12.2358C24.4745 12.2898 24.4744 12.3434 24.4739 12.3966C24.4742 12.4231 24.4743 12.4496 24.4743 12.4762ZM16.0962 15.3333C16.5959 15.3333 17.0049 14.9357 17.019 14.4362L17.1711 9.02811C17.1869 8.46504 16.7348 8 16.1715 8H16.0273C15.4645 8 15.0125 8.46431 15.0277 9.02694L15.1734 14.4351C15.1869 14.935 15.5961 15.3333 16.0962 15.3333ZM16.1 19C16.7075 19 17.2 18.5075 17.2 17.9C17.2 17.2925 16.7075 16.8 16.1 16.8C15.4925 16.8 15 17.2925 15 17.9C15 18.5075 15.4925 19 16.1 19Z"/>
</mask>
<path fill-rule="evenodd" clip-rule="evenodd" d="M24.4743 12.4762C24.4743 15.079 23.3009 17.4077 21.4542 18.9623L21.4138 19.007L21.4138 19.007C20.7281 19.7662 20.0512 20.5156 19.5327 21.4012C19.5028 21.4524 19.4719 21.5031 19.4406 21.5545C19.2338 21.8941 19.0087 22.264 18.9018 23.0049C18.823 23.5516 18.3912 24.0024 17.8389 24.0019L17.7978 24.0018C17.2908 24.0014 16.7041 24.0008 15.9998 24.0008H14.1946C13.6423 24.0008 13.2136 23.5474 13.1024 23.0064C12.9725 22.3747 12.7281 21.9849 12.5169 21.6479C12.4638 21.5633 12.4129 21.4821 12.3664 21.4012C11.8776 20.5508 11.2316 19.8181 10.5713 19.0691C10.4617 18.9448 10.3517 18.82 10.242 18.6942C8.57118 17.1463 7.52539 14.9334 7.52539 12.4762C7.52539 12.4384 7.52564 12.4006 7.52613 12.3629C7.52564 12.3208 7.52539 12.2784 7.52539 12.2358L7.52873 12.2361C7.65582 7.66679 11.3998 4.00171 15.9998 4.00171C20.6 4.00171 24.3441 7.66707 24.471 12.2366L24.4742 12.2358C24.4745 12.2898 24.4744 12.3434 24.4739 12.3966C24.4742 12.4231 24.4743 12.4496 24.4743 12.4762ZM16.0962 15.3333C16.5959 15.3333 17.0049 14.9357 17.019 14.4362L17.1711 9.02811C17.1869 8.46504 16.7348 8 16.1715 8H16.0273C15.4645 8 15.0125 8.46431 15.0277 9.02694L15.1734 14.4351C15.1869 14.935 15.5961 15.3333 16.0962 15.3333ZM16.1 19C16.7075 19 17.2 18.5075 17.2 17.9C17.2 17.2925 16.7075 16.8 16.1 16.8C15.4925 16.8 15 17.2925 15 17.9C15 18.5075 15.4925 19 16.1 19Z" fill="black"/>
<path d="M21.4542 18.9623L20.8102 18.1973L20.7579 18.2413L20.7121 18.292L21.4542 18.9623ZM21.4138 19.007L22.1209 19.7141L22.1389 19.6961L22.1559 19.6772L21.4138 19.007ZM21.4138 19.007L20.7067 18.2999L20.6888 18.3178L20.6717 18.3367L21.4138 19.007ZM19.5327 21.4012L20.3957 21.9064L20.3957 21.9064L19.5327 21.4012ZM19.4406 21.5545L18.5864 21.0345L18.5864 21.0345L19.4406 21.5545ZM18.9018 23.0049L19.8916 23.1477L18.9018 23.0049ZM17.8389 24.0019L17.838 25.0019H17.838L17.8389 24.0019ZM17.7978 24.0018L17.7987 23.0018H17.7987L17.7978 24.0018ZM13.1024 23.0064L12.1229 23.2078L13.1024 23.0064ZM12.5169 21.6479L13.3642 21.1168L13.3642 21.1168L12.5169 21.6479ZM12.3664 21.4012L11.4994 21.8995L11.4994 21.8995L12.3664 21.4012ZM10.5713 19.0691L11.3214 18.4078L11.3214 18.4078L10.5713 19.0691ZM10.242 18.6942L10.9956 18.0369L10.9606 17.9968L10.9216 17.9606L10.242 18.6942ZM7.52613 12.3629L8.52605 12.376L8.52621 12.3636L8.52606 12.3512L7.52613 12.3629ZM7.52539 12.2358L7.61228 11.2396L6.52539 11.1448V12.2358H7.52539ZM7.52873 12.2361L7.44184 13.2323L8.49884 13.3245L8.52834 12.2639L7.52873 12.2361ZM24.471 12.2366L23.4714 12.2643L23.5058 13.5067L24.712 13.2071L24.471 12.2366ZM24.4742 12.2358L25.4742 12.2299L25.4667 10.9589L24.2331 11.2653L24.4742 12.2358ZM24.4739 12.3966L23.474 12.3873L23.4739 12.3966L23.474 12.4058L24.4739 12.3966ZM17.019 14.4362L16.0194 14.4081V14.4081L17.019 14.4362ZM17.1711 9.02811L16.1715 9V9L17.1711 9.02811ZM15.0277 9.02694L14.028 9.05389V9.05389L15.0277 9.02694ZM15.1734 14.4351L14.1738 14.462L15.1734 14.4351ZM22.0982 19.7273C24.1609 17.9909 25.4743 15.3864 25.4743 12.4762H23.4743C23.4743 14.7716 22.4408 16.8246 20.8102 18.1973L22.0982 19.7273ZM22.1559 19.6772L22.1963 19.6326L20.7121 18.292L20.6717 18.3367L22.1559 19.6772ZM22.1209 19.7141L22.1209 19.7141L20.7067 18.2998L20.7067 18.2999L22.1209 19.7141ZM20.3957 21.9064C20.8537 21.1241 21.459 20.4489 22.1559 19.6772L20.6717 18.3367C19.9972 19.0834 19.2487 19.9071 18.6698 20.8959L20.3957 21.9064ZM20.2948 22.0745C20.3253 22.0243 20.3607 21.9662 20.3957 21.9064L18.6698 20.8959C18.6448 20.9385 18.6185 20.9819 18.5864 21.0345L20.2948 22.0745ZM19.8916 23.1477C19.9336 22.8561 19.9951 22.661 20.0558 22.5162C20.119 22.3656 20.1904 22.246 20.2948 22.0745L18.5864 21.0345C18.3512 21.4209 18.047 21.9262 17.912 22.8622L19.8916 23.1477ZM17.838 25.0019C18.9835 25.0029 19.7563 24.0856 19.8916 23.1477L17.912 22.8622C17.9033 22.9226 17.8756 22.9676 17.8522 22.9903C17.847 22.9953 17.8428 22.9985 17.84 23.0004C17.8386 23.0013 17.8375 23.0019 17.8368 23.0023C17.8361 23.0027 17.8358 23.0028 17.8358 23.0028C17.8357 23.0028 17.836 23.0027 17.8365 23.0026C17.837 23.0024 17.8376 23.0023 17.8382 23.0021C17.8397 23.0018 17.8405 23.0019 17.8398 23.0019L17.838 25.0019ZM17.7969 25.0018L17.838 25.0019L17.8398 23.0019L17.7987 23.0018L17.7969 25.0018ZM15.9998 25.0008C16.7036 25.0008 17.2899 25.0014 17.7969 25.0018L17.7987 23.0018C17.2917 23.0014 16.7045 23.0008 15.9998 23.0008V25.0008ZM14.1946 25.0008H15.9998V23.0008H14.1946V25.0008ZM12.1229 23.2078C12.3019 24.0783 13.0419 25.0008 14.1946 25.0008V23.0008C14.1943 23.0008 14.1953 23.0008 14.197 23.0012C14.1986 23.0015 14.1992 23.0018 14.1986 23.0016C14.1975 23.0011 14.1878 22.9967 14.1726 22.9822C14.1387 22.9499 14.0988 22.8874 14.0819 22.8049L12.1229 23.2078ZM11.6695 22.179C11.8694 22.4979 12.031 22.761 12.1229 23.2078L14.0819 22.8049C13.9139 21.9885 13.5867 21.4718 13.3642 21.1168L11.6695 22.179ZM11.4994 21.8995C11.5571 21.9999 11.6185 22.0976 11.6696 22.179L13.3642 21.1168C13.3091 21.029 13.2687 20.9642 13.2334 20.9028L11.4994 21.8995ZM9.82123 19.7304C10.4931 20.4925 11.0693 21.1512 11.4994 21.8995L13.2334 20.9028C12.6859 19.9504 11.9701 19.1436 11.3214 18.4078L9.82123 19.7304ZM9.48832 19.3515C9.60012 19.4797 9.7119 19.6064 9.82123 19.7304L11.3214 18.4078C11.2115 18.2832 11.1033 18.1604 10.9956 18.0369L9.48832 19.3515ZM6.52539 12.4762C6.52539 15.2233 7.69586 17.6986 9.56235 19.4278L10.9216 17.9606C9.44651 16.594 8.52539 14.6434 8.52539 12.4762H6.52539ZM6.52622 12.3498C6.52567 12.3919 6.52539 12.434 6.52539 12.4762H8.52539C8.52539 12.4427 8.52561 12.4093 8.52605 12.376L6.52622 12.3498ZM6.52539 12.2358C6.52539 12.2823 6.52566 12.3286 6.5262 12.3746L8.52606 12.3512C8.52562 12.313 8.52539 12.2745 8.52539 12.2358H6.52539ZM7.61562 11.2399L7.61228 11.2396L7.4385 13.232L7.44184 13.2323L7.61562 11.2399ZM15.9998 3.00171C10.8568 3.00171 6.67122 7.09926 6.52911 12.2083L8.52834 12.2639C8.64042 8.23433 11.9428 5.00171 15.9998 5.00171V3.00171ZM25.4706 12.2089C25.3288 7.09956 21.143 3.00171 15.9998 3.00171V5.00171C20.057 5.00171 23.3595 8.23457 23.4714 12.2643L25.4706 12.2089ZM24.2331 11.2653L24.2299 11.2661L24.712 13.2071L24.7152 13.2063L24.2331 11.2653ZM25.4739 12.4058C25.4744 12.3476 25.4745 12.2889 25.4742 12.2299L23.4742 12.2417C23.4745 12.2907 23.4744 12.3392 23.474 12.3873L25.4739 12.4058ZM25.4743 12.4762C25.4743 12.4465 25.4742 12.4169 25.4739 12.3874L23.474 12.4058C23.4742 12.4292 23.4743 12.4527 23.4743 12.4762H25.4743ZM16.0194 14.4081C16.0205 14.3665 16.0546 14.3333 16.0962 14.3333V16.3333C17.1373 16.3333 17.9893 15.5049 18.0186 14.4643L16.0194 14.4081ZM16.1715 9L16.0194 14.4081L18.0186 14.4643L18.1707 9.05623L16.1715 9ZM16.1715 9V9L18.1707 9.05623C18.2024 7.93008 17.2981 7 16.1715 7V9ZM16.0273 9H16.1715V7H16.0273V9ZM16.0273 9V9V7C14.9016 7 13.9977 7.92862 14.028 9.05389L16.0273 9ZM16.1731 14.4081L16.0273 9L14.028 9.05389L14.1738 14.462L16.1731 14.4081ZM16.0962 14.3333C16.1379 14.3333 16.172 14.3665 16.1731 14.4081L14.1738 14.462C14.2019 15.5036 15.0543 16.3333 16.0962 16.3333V14.3333ZM16.2 17.9C16.2 17.9552 16.1552 18 16.1 18V20C17.2598 20 18.2 19.0598 18.2 17.9H16.2ZM16.1 17.8C16.1552 17.8 16.2 17.8448 16.2 17.9H18.2C18.2 16.7402 17.2598 15.8 16.1 15.8V17.8ZM16 17.9C16 17.8448 16.0448 17.8 16.1 17.8V15.8C14.9402 15.8 14 16.7402 14 17.9H16ZM16.1 18C16.0448 18 16 17.9552 16 17.9H14C14 19.0598 14.9402 20 16.1 20V18Z" fill="black" mask="url(#path-7-inside-4)"/>
</svg>
