<svg width="16" height="16" viewBox="0 0 16 16" fill="none" xmlns="http://www.w3.org/2000/svg">
<mask id="path-1-inside-1" fill="white">
<path d="M6.58429 14.5312C6.58429 14.2551 6.80815 14.0312 7.08429 14.0312H9.08429C9.36043 14.0312 9.58429 14.2551 9.58429 14.5312C9.58429 14.8074 9.36043 15.0312 9.08429 15.0312H7.08429C6.80815 15.0312 6.58429 14.8074 6.58429 14.5312Z"/>
</mask>
<path d="M7.08429 15.0312H9.08429V13.0312H7.08429V15.0312ZM9.08429 14.0312H7.08429V16.0312H9.08429V14.0312ZM7.08429 14.0312C7.36043 14.0312 7.58429 14.2551 7.58429 14.5312H5.58429C5.58429 15.3597 6.25586 16.0312 7.08429 16.0312V14.0312ZM8.58429 14.5312C8.58429 14.2551 8.80815 14.0312 9.08429 14.0312V16.0312C9.91272 16.0312 10.5843 15.3597 10.5843 14.5312H8.58429ZM9.08429 15.0312C8.80815 15.0312 8.58429 14.8074 8.58429 14.5312H10.5843C10.5843 13.7028 9.91272 13.0312 9.08429 13.0312V15.0312ZM7.08429 13.0312C6.25586 13.0312 5.58429 13.7028 5.58429 14.5312H7.58429C7.58429 14.8074 7.36043 15.0312 7.08429 15.0312V13.0312Z" fill="black" mask="url(#path-1-inside-1)"/>
<mask id="path-3-inside-2" fill="white">
<path fill-rule="evenodd" clip-rule="evenodd" d="M13.1686 6.08417C13.1686 6.38474 13.1425 6.67922 13.0925 6.96547C12.8487 8.45507 12.0544 9.32089 11.2379 10.2107C10.8829 10.5977 10.5236 10.9893 10.2037 11.4386C10.0932 11.5939 9.9824 11.7505 9.90293 12.0095C9.74091 12.5375 9.33967 12.999 8.78738 12.9986C8.57601 12.9984 8.34334 12.9983 8.08414 12.9983H7.40121C6.84893 12.9983 6.44329 12.5305 6.23852 12.0176C6.1537 11.8051 6.04787 11.6497 5.95172 11.5086C5.9356 11.485 5.91975 11.4617 5.90432 11.4386C5.61769 11.0102 5.27461 10.6259 4.92632 10.2358C4.57223 9.83918 4.21276 9.43654 3.90177 8.97537C3.33329 8.15452 3.00023 7.15824 3.00023 6.08417C3.00023 6.06512 3.00034 6.0461 3.00055 6.0271C3.00018 5.99824 3 5.9692 3 5.93996L3.00224 5.94015C3.07848 3.19884 5.32466 1 8.08441 1C10.8442 1 13.0905 3.19896 13.1666 5.94038L13.1683 5.93996C13.1685 5.96921 13.1684 5.99825 13.1683 6.02709C13.1685 6.0461 13.1686 6.06512 13.1686 6.08417ZM7.99715 6C8.45546 6 8.83477 5.64365 8.86336 5.18624L8.93754 3.99935C8.97139 3.45781 8.5413 3 7.9987 3C7.45707 3 7.02733 3.45625 7.05971 3.99691L7.13081 5.184C7.15827 5.64235 7.53798 6 7.99715 6ZM8 9C8.55228 9 9 8.55228 9 8C9 7.44772 8.55228 7 8 7C7.44772 7 7 7.44772 7 8C7 8.55228 7.44772 9 8 9Z"/>
</mask>
<path fill-rule="evenodd" clip-rule="evenodd" d="M13.1686 6.08417C13.1686 6.38474 13.1425 6.67922 13.0925 6.96547C12.8487 8.45507 12.0544 9.32089 11.2379 10.2107C10.8829 10.5977 10.5236 10.9893 10.2037 11.4386C10.0932 11.5939 9.9824 11.7505 9.90293 12.0095C9.74091 12.5375 9.33967 12.999 8.78738 12.9986C8.57601 12.9984 8.34334 12.9983 8.08414 12.9983H7.40121C6.84893 12.9983 6.44329 12.5305 6.23852 12.0176C6.1537 11.8051 6.04787 11.6497 5.95172 11.5086C5.9356 11.485 5.91975 11.4617 5.90432 11.4386C5.61769 11.0102 5.27461 10.6259 4.92632 10.2358C4.57223 9.83918 4.21276 9.43654 3.90177 8.97537C3.33329 8.15452 3.00023 7.15824 3.00023 6.08417C3.00023 6.06512 3.00034 6.0461 3.00055 6.0271C3.00018 5.99824 3 5.9692 3 5.93996L3.00224 5.94015C3.07848 3.19884 5.32466 1 8.08441 1C10.8442 1 13.0905 3.19896 13.1666 5.94038L13.1683 5.93996C13.1685 5.96921 13.1684 5.99825 13.1683 6.02709C13.1685 6.0461 13.1686 6.06512 13.1686 6.08417ZM7.99715 6C8.45546 6 8.83477 5.64365 8.86336 5.18624L8.93754 3.99935C8.97139 3.45781 8.5413 3 7.9987 3C7.45707 3 7.02733 3.45625 7.05971 3.99691L7.13081 5.184C7.15827 5.64235 7.53798 6 7.99715 6ZM8 9C8.55228 9 9 8.55228 9 8C9 7.44772 8.55228 7 8 7C7.44772 7 7 7.44772 7 8C7 8.55228 7.44772 9 8 9Z" fill="black"/>
<path d="M13.0925 6.96547L12.1073 6.79331L12.1056 6.804L13.0925 6.96547ZM11.2379 10.2107L11.9748 10.8868L11.9748 10.8868L11.2379 10.2107ZM10.2037 11.4386L11.0183 12.0186L11.0183 12.0186L10.2037 11.4386ZM9.90293 12.0095L10.8589 12.3029V12.3029L9.90293 12.0095ZM8.78738 12.9986L8.78664 13.9986H8.78664L8.78738 12.9986ZM6.23852 12.0176L7.16725 11.6468L7.16725 11.6468L6.23852 12.0176ZM5.95172 11.5086L6.77815 10.9456L6.77815 10.9456L5.95172 11.5086ZM5.90432 11.4386L5.07318 11.9947L5.07318 11.9947L5.90432 11.4386ZM4.92632 10.2358L5.67229 9.56982H5.67229L4.92632 10.2358ZM3.90177 8.97537L4.73092 8.41622L4.72387 8.40602L3.90177 8.97537ZM3.00055 6.0271L4.00049 6.0381L4.00062 6.02628L4.00047 6.01446L3.00055 6.0271ZM3 5.93996L3.08691 4.94374L2 4.84891V5.93996H3ZM3.00224 5.94015L2.91532 6.93637L3.97235 7.02859L4.00185 5.96795L3.00224 5.94015ZM13.1666 5.94038L12.167 5.96814L12.2015 7.21023L13.4075 6.91093L13.1666 5.94038ZM13.1683 5.93996L14.1683 5.93405L14.1608 4.66331L12.9274 4.9694L13.1683 5.93996ZM13.1683 6.02709L12.1683 6.02078L12.1682 6.02943L12.1683 6.03809L13.1683 6.02709ZM8.86336 5.18624L9.86141 5.24862V5.24862L8.86336 5.18624ZM8.93754 3.99935L7.93949 3.93697L8.93754 3.99935ZM7.05971 3.99691L6.0615 4.0567V4.0567L7.05971 3.99691ZM7.13081 5.184L6.1326 5.24378V5.24378L7.13081 5.184ZM14.0775 7.13762C14.1375 6.79478 14.1686 6.4427 14.1686 6.08417H12.1686C12.1686 6.32678 12.1475 6.56367 12.1074 6.79332L14.0775 7.13762ZM11.9748 10.8868C12.7875 10.001 13.7827 8.94015 14.0793 7.12694L12.1056 6.804C11.9148 7.97 11.3212 8.64077 10.5011 9.53468L11.9748 10.8868ZM11.0183 12.0186C11.2967 11.6276 11.614 11.2801 11.9748 10.8868L10.5011 9.53468C10.1518 9.9154 9.75052 10.351 9.38907 10.8586L11.0183 12.0186ZM10.8589 12.3029C10.8759 12.2477 10.8935 12.2103 10.9121 12.1775C10.9345 12.1378 10.9609 12.0992 11.0183 12.0186L9.38907 10.8586C9.2684 11.0281 9.07634 11.2944 8.94692 11.7161L10.8589 12.3029ZM8.78664 13.9986C9.97037 13.9994 10.6348 13.0332 10.8589 12.3029L8.94692 11.7161C8.90697 11.8463 8.84583 11.936 8.80036 11.9795C8.78009 11.9988 8.76953 12.003 8.77165 12.002C8.77581 12.0002 8.78338 11.9985 8.78812 11.9986L8.78664 13.9986ZM8.08414 13.9983C8.34303 13.9983 8.57544 13.9984 8.78664 13.9986L8.78812 11.9986C8.57658 11.9984 8.34366 11.9983 8.08414 11.9983V13.9983ZM7.40121 13.9983H8.08414V11.9983H7.40121V13.9983ZM5.3098 12.3883C5.56697 13.0325 6.22551 13.9983 7.40121 13.9983V11.9983C7.429 11.9983 7.42185 12.0154 7.36804 11.9657C7.30583 11.9082 7.22814 11.7993 7.16725 11.6468L5.3098 12.3883ZM5.12528 12.0716C5.22126 12.2125 5.26972 12.2879 5.3098 12.3883L7.16725 11.6468C7.03769 11.3223 6.87447 11.087 6.77815 10.9456L5.12528 12.0716ZM5.07318 11.9947C5.09135 12.0218 5.10959 12.0486 5.12528 12.0716L6.77815 10.9456C6.7616 10.9213 6.74815 10.9015 6.73546 10.8826L5.07318 11.9947ZM4.18035 10.9018C4.53664 11.3009 4.83181 11.6339 5.07318 11.9947L6.73546 10.8826C6.40357 10.3865 6.01258 9.95098 5.67229 9.56982L4.18035 10.9018ZM3.07267 9.53448C3.4276 10.0608 3.8327 10.5124 4.18035 10.9018L5.67229 9.56982C5.31177 9.16599 4.99793 8.8123 4.73086 8.41626L3.07267 9.53448ZM2.00023 6.08417C2.00023 7.36816 2.39908 8.56199 3.07967 9.54471L4.72387 8.40602C4.2675 7.74706 4.00023 6.94833 4.00023 6.08417H2.00023ZM2.00061 6.0161C2.00036 6.03877 2.00023 6.06146 2.00023 6.08417H4.00023C4.00023 6.06879 4.00032 6.05343 4.00049 6.0381L2.00061 6.0161ZM2 5.93996C2 5.97339 2.00021 6.00665 2.00063 6.03974L4.00047 6.01446C4.00016 5.98984 4 5.96501 4 5.93996H2ZM3.08915 4.94393L3.08691 4.94374L2.91309 6.93617L2.91532 6.93637L3.08915 4.94393ZM8.08441 0C4.78169 0 2.09388 2.6313 2.00262 5.91235L4.00185 5.96795C4.06309 3.76637 5.86764 2 8.08441 2V0ZM14.1662 5.91262C14.0751 2.63145 11.3872 0 8.08441 0V2C10.3012 2 12.1058 3.76647 12.167 5.96814L14.1662 5.91262ZM12.9274 4.9694L12.9257 4.96982L13.4075 6.91093L13.4091 6.91051L12.9274 4.9694ZM14.1682 6.03341C14.1685 6.00048 14.1685 5.96736 14.1683 5.93405L12.1683 5.94586C12.1684 5.97105 12.1684 5.99602 12.1683 6.02078L14.1682 6.03341ZM14.1686 6.08417C14.1686 6.06145 14.1685 6.03876 14.1682 6.0161L12.1683 6.03809C12.1685 6.05343 12.1686 6.06879 12.1686 6.08417H14.1686ZM7.86531 5.12386C7.86966 5.05424 7.92739 5 7.99715 5V7C8.98352 7 9.79988 6.23307 9.86141 5.24862L7.86531 5.12386ZM7.93949 3.93697L7.86531 5.12386L9.86141 5.24862L9.93559 4.06173L7.93949 3.93697ZM7.9987 4C7.96448 4 7.93735 3.97113 7.93949 3.93697L9.93559 4.06173C10.0054 2.94449 9.11812 2 7.9987 2V4ZM8.05792 3.93712C8.05996 3.97122 8.03286 4 7.9987 4V2C6.88127 2 5.99469 2.94127 6.0615 4.0567L8.05792 3.93712ZM8.12902 5.12421L8.05792 3.93712L6.0615 4.0567L6.1326 5.24378L8.12902 5.12421ZM7.99715 5C8.06705 5 8.12484 5.05444 8.12902 5.12421L6.1326 5.24378C6.19169 6.23025 7.00892 7 7.99715 7V5ZM8 8V10C9.10457 10 10 9.10457 10 8H8ZM8 8H10C10 6.89543 9.10457 6 8 6V8ZM8 8V6C6.89543 6 6 6.89543 6 8H8ZM8 8H6C6 9.10457 6.89543 10 8 10V8Z" fill="black" mask="url(#path-3-inside-2)"/>
</svg>
