<svg width="32" height="32" viewBox="0 0 32 32" fill="none" xmlns="http://www.w3.org/2000/svg">
<mask id="path-1-inside-1" fill="white">
<path fill-rule="evenodd" clip-rule="evenodd" d="M21.4543 18.9623C23.301 17.4077 24.4744 15.079 24.4744 12.4762C24.4744 12.4496 24.4743 12.4231 24.4741 12.3966C24.4745 12.3434 24.4746 12.2898 24.4743 12.2358C24.4732 12.2361 24.4722 12.2363 24.4711 12.2366C24.3443 7.66707 20.6002 4.00171 16 4.00171C11.3999 4.00171 7.65595 7.66679 7.52885 12.2361C7.52774 12.236 7.52662 12.2359 7.52551 12.2358C7.52551 12.2784 7.52576 12.3208 7.52625 12.3629C7.52576 12.4006 7.52551 12.4384 7.52551 12.4762C7.52551 14.9334 8.57131 17.1463 10.2421 18.6942C10.3518 18.82 10.4618 18.9448 10.5715 19.0691C11.2317 19.8181 11.8777 20.5508 12.3665 21.4012C12.413 21.4821 12.464 21.5633 12.517 21.6479C12.7282 21.9849 12.9726 22.3747 13.1025 23.0064C13.2137 23.5474 13.6424 24.0008 14.1947 24.0008H15.9999C16.7042 24.0008 17.2909 24.0014 17.7979 24.0018L17.839 24.0019C18.3913 24.0024 18.8231 23.5516 18.9019 23.0049C19.0088 22.264 19.234 21.8941 19.4407 21.5545C19.472 21.5031 19.5029 21.4524 19.5329 21.4012C20.0513 20.5156 20.7282 19.7662 21.414 19.007C21.4274 18.9921 21.4409 18.9772 21.4543 18.9623Z"/>
</mask>
<path d="M21.4543 18.9623L20.8103 18.1973L20.758 18.2413L20.7122 18.292L21.4543 18.9623ZM24.4741 12.3966L23.4741 12.3873L23.474 12.3966L23.4741 12.4058L24.4741 12.3966ZM24.4743 12.2358L25.4743 12.2299L25.4668 10.9585L24.233 11.2654L24.4743 12.2358ZM24.4711 12.2366L23.4715 12.2643L23.5059 13.506L24.7116 13.2072L24.4711 12.2366ZM7.52885 12.2361L7.44165 13.2323L8.49895 13.3248L8.52846 12.2639L7.52885 12.2361ZM7.52551 12.2358L7.61266 11.2396L6.52551 11.1445V12.2358H7.52551ZM7.52625 12.3629L8.52617 12.376L8.52633 12.3636L8.52619 12.3512L7.52625 12.3629ZM10.2421 18.6942L10.9957 18.0369L10.9607 17.9968L10.9217 17.9606L10.2421 18.6942ZM10.5715 19.0691L11.3216 18.4078L11.3216 18.4078L10.5715 19.0691ZM12.3665 21.4012L11.4995 21.8995L11.4995 21.8995L12.3665 21.4012ZM12.517 21.6479L13.3643 21.1168L13.3643 21.1168L12.517 21.6479ZM13.1025 23.0064L12.123 23.2078L13.1025 23.0064ZM17.7979 24.0018L17.7989 23.0018H17.7988L17.7979 24.0018ZM17.839 24.0019L17.8381 25.0019H17.8381L17.839 24.0019ZM18.9019 23.0049L19.8917 23.1477L18.9019 23.0049ZM19.4407 21.5545L18.5865 21.0345L18.5865 21.0345L19.4407 21.5545ZM19.5329 21.4012L20.3958 21.9064L20.3958 21.9064L19.5329 21.4012ZM21.414 19.007L20.6719 18.3367L20.6719 18.3367L21.414 19.007ZM23.4744 12.4762C23.4744 14.7716 22.4409 16.8246 20.8103 18.1973L22.0983 19.7273C24.1611 17.9909 25.4744 15.3864 25.4744 12.4762H23.4744ZM23.4741 12.4058C23.4743 12.4292 23.4744 12.4527 23.4744 12.4762H25.4744C25.4744 12.4465 25.4743 12.4169 25.474 12.3874L23.4741 12.4058ZM23.4743 12.2417C23.4746 12.2907 23.4745 12.3392 23.4741 12.3873L25.474 12.4058C25.4745 12.3476 25.4746 12.2889 25.4743 12.2299L23.4743 12.2417ZM24.7116 13.2072C24.7131 13.2069 24.7146 13.2065 24.7156 13.2062L24.233 11.2654C24.2319 11.2656 24.2312 11.2658 24.2306 11.266L24.7116 13.2072ZM16 5.00171C20.0572 5.00171 23.3596 8.23457 23.4715 12.2643L25.4707 12.2089C25.3289 7.09956 21.1431 3.00171 16 3.00171V5.00171ZM8.52846 12.2639C8.64055 8.23433 11.9429 5.00171 16 5.00171V3.00171C10.857 3.00171 6.67135 7.09926 6.52923 12.2083L8.52846 12.2639ZM7.43837 13.232C7.44476 13.2326 7.43639 13.2318 7.44165 13.2323L7.61605 11.2399C7.61523 11.2398 7.61446 11.2398 7.61393 11.2397C7.61333 11.2397 7.61298 11.2396 7.61266 11.2396L7.43837 13.232ZM8.52619 12.3512C8.52574 12.313 8.52551 12.2745 8.52551 12.2358H6.52551C6.52551 12.2823 6.52578 12.3286 6.52632 12.3746L8.52619 12.3512ZM8.52551 12.4762C8.52551 12.4427 8.52573 12.4093 8.52617 12.376L6.52634 12.3498C6.52579 12.3919 6.52551 12.434 6.52551 12.4762H8.52551ZM10.9217 17.9606C9.44663 16.594 8.52551 14.6434 8.52551 12.4762H6.52551C6.52551 15.2233 7.69599 17.6986 9.56247 19.4278L10.9217 17.9606ZM11.3216 18.4078C11.2117 18.2832 11.1034 18.1604 10.9957 18.0369L9.48844 19.3515C9.60024 19.4797 9.71202 19.6064 9.82135 19.7304L11.3216 18.4078ZM13.2335 20.9028C12.6861 19.9504 11.9703 19.1436 11.3216 18.4078L9.82135 19.7304C10.4932 20.4925 11.0694 21.1512 11.4995 21.8995L13.2335 20.9028ZM13.3643 21.1168C13.3093 21.029 13.2688 20.9642 13.2335 20.9028L11.4995 21.8995C11.5573 21.9999 11.6187 22.0976 11.6697 22.179L13.3643 21.1168ZM14.082 22.8049C13.9141 21.9885 13.5868 21.4718 13.3643 21.1168L11.6697 22.179C11.8696 22.4979 12.0311 22.761 12.123 23.2078L14.082 22.8049ZM14.1947 23.0008C14.1944 23.0008 14.1955 23.0008 14.1971 23.0012C14.1987 23.0015 14.1993 23.0018 14.1987 23.0016C14.1976 23.0011 14.188 22.9967 14.1727 22.9822C14.1388 22.9499 14.0989 22.8874 14.082 22.8049L12.123 23.2078C12.302 24.0783 13.042 25.0008 14.1947 25.0008V23.0008ZM15.9999 23.0008H14.1947V25.0008H15.9999V23.0008ZM17.7988 23.0018C17.2918 23.0014 16.7047 23.0008 15.9999 23.0008V25.0008C16.7037 25.0008 17.29 25.0014 17.797 25.0018L17.7988 23.0018ZM17.8399 23.0019L17.7989 23.0018L17.797 25.0018L17.8381 25.0019L17.8399 23.0019ZM17.9122 22.8622C17.9035 22.9226 17.8757 22.9676 17.8523 22.9903C17.8471 22.9953 17.8429 22.9985 17.8401 23.0004C17.8387 23.0013 17.8376 23.0019 17.8369 23.0023C17.8362 23.0027 17.8359 23.0028 17.8359 23.0028C17.8359 23.0028 17.8361 23.0027 17.8366 23.0026C17.8371 23.0024 17.8377 23.0023 17.8383 23.0021C17.8399 23.0018 17.8406 23.0019 17.8399 23.0019L17.8381 25.0019C18.9836 25.0029 19.7564 24.0856 19.8917 23.1477L17.9122 22.8622ZM18.5865 21.0345C18.3513 21.4209 18.0472 21.9262 17.9122 22.8622L19.8917 23.1477C19.9337 22.8561 19.9952 22.661 20.0559 22.5162C20.1191 22.3656 20.1905 22.246 20.2949 22.0745L18.5865 21.0345ZM18.6699 20.8959C18.645 20.9385 18.6186 20.9819 18.5865 21.0345L20.2949 22.0745C20.3254 22.0243 20.3608 21.9662 20.3958 21.9064L18.6699 20.8959ZM20.6719 18.3367C19.9973 19.0834 19.2488 19.9071 18.6699 20.8959L20.3958 21.9064C20.8538 21.1241 21.4591 20.4489 22.1561 19.6772L20.6719 18.3367ZM20.7122 18.292C20.6987 18.3069 20.6853 18.3218 20.6719 18.3367L22.156 19.6772C22.1695 19.6624 22.183 19.6474 22.1964 19.6325L20.7122 18.292Z" fill="black" mask="url(#path-1-inside-1)"/>
<mask id="path-3-inside-2" fill="white">
<path d="M13.5255 25.5C13.5255 25.2248 13.7486 25.0017 14.0238 25.0017H18.0272C18.3024 25.0017 18.5255 25.2248 18.5255 25.5C18.5255 25.7752 18.3024 25.9983 18.0272 25.9983H14.0238C13.7486 25.9983 13.5255 25.7752 13.5255 25.5Z"/>
</mask>
<path d="M14.0238 26.0017H18.0272V24.0017H14.0238V26.0017ZM18.0272 24.9983H14.0238V26.9983H18.0272V24.9983ZM14.0238 24.9983C14.3009 24.9983 14.5255 25.2229 14.5255 25.5H12.5255C12.5255 26.3275 13.1963 26.9983 14.0238 26.9983V24.9983ZM17.5255 25.5C17.5255 25.2229 17.7501 24.9983 18.0272 24.9983V26.9983C18.8547 26.9983 19.5255 26.3275 19.5255 25.5H17.5255ZM18.0272 26.0017C17.7501 26.0017 17.5255 25.7771 17.5255 25.5H19.5255C19.5255 24.6725 18.8547 24.0017 18.0272 24.0017V26.0017ZM14.0238 24.0017C13.1963 24.0017 12.5255 24.6725 12.5255 25.5H14.5255C14.5255 25.7771 14.3009 26.0017 14.0238 26.0017V24.0017Z" fill="black" mask="url(#path-3-inside-2)"/>
<mask id="path-5-inside-3" fill="white">
<path d="M13.5255 25.5C13.5255 25.2248 13.7486 25.0017 14.0238 25.0017H18.0272C18.3024 25.0017 18.5255 25.2248 18.5255 25.5C18.5255 25.7752 18.3024 25.9983 18.0272 25.9983H14.0238C13.7486 25.9983 13.5255 25.7752 13.5255 25.5Z"/>
</mask>
<path d="M14.0238 26.0017H18.0272V24.0017H14.0238V26.0017ZM18.0272 24.9983H14.0238V26.9983H18.0272V24.9983ZM14.0238 24.9983C14.3009 24.9983 14.5255 25.2229 14.5255 25.5H12.5255C12.5255 26.3275 13.1963 26.9983 14.0238 26.9983V24.9983ZM17.5255 25.5C17.5255 25.2229 17.7501 24.9983 18.0272 24.9983V26.9983C18.8547 26.9983 19.5255 26.3275 19.5255 25.5H17.5255ZM18.0272 26.0017C17.7501 26.0017 17.5255 25.7771 17.5255 25.5H19.5255C19.5255 24.6725 18.8547 24.0017 18.0272 24.0017V26.0017ZM14.0238 24.0017C13.1963 24.0017 12.5255 24.6725 12.5255 25.5H14.5255C14.5255 25.7771 14.3009 26.0017 14.0238 26.0017V24.0017Z" fill="black" mask="url(#path-5-inside-3)"/>
<mask id="path-7-inside-4" fill="white">
<path d="M14.5255 27.5C14.5255 27.2248 14.7486 27.0017 15.0238 27.0017H17.0272C17.3024 27.0017 17.5255 27.2248 17.5255 27.5C17.5255 27.7752 17.3024 27.9983 17.0272 27.9983H15.0238C14.7486 27.9983 14.5255 27.7752 14.5255 27.5Z"/>
</mask>
<path d="M15.0238 28.0017H17.0272V26.0017H15.0238V28.0017ZM17.0272 26.9983H15.0238V28.9983H17.0272V26.9983ZM15.0238 26.9983C15.3009 26.9983 15.5255 27.2229 15.5255 27.5H13.5255C13.5255 28.3275 14.1963 28.9983 15.0238 28.9983V26.9983ZM16.5255 27.5C16.5255 27.2229 16.7501 26.9983 17.0272 26.9983V28.9983C17.8547 28.9983 18.5255 28.3275 18.5255 27.5H16.5255ZM17.0272 28.0017C16.7501 28.0017 16.5255 27.7771 16.5255 27.5H18.5255C18.5255 26.6725 17.8547 26.0017 17.0272 26.0017V28.0017ZM15.0238 26.0017C14.1963 26.0017 13.5255 26.6725 13.5255 27.5H15.5255C15.5255 27.7771 15.3009 28.0017 15.0238 28.0017V26.0017Z" fill="black" mask="url(#path-7-inside-4)"/>
<g opacity="0.9">
<path d="M17.019 14.4362C17.0049 14.9357 16.5959 15.3333 16.0962 15.3333C15.5961 15.3333 15.1869 14.935 15.1734 14.4351L15.0277 9.02694C15.0125 8.46431 15.4645 8 16.0273 8H16.1715C16.7348 8 17.1869 8.46504 17.1711 9.02811L17.019 14.4362Z" fill="black"/>
<path d="M17.2 17.9C17.2 18.5075 16.7075 19 16.1 19C15.4925 19 15 18.5075 15 17.9C15 17.2925 15.4925 16.8 16.1 16.8C16.7075 16.8 17.2 17.2925 17.2 17.9Z" fill="black"/>
</g>
</svg>
