<svg width="24" height="24" viewBox="0 0 24 24" fill="none" xmlns="http://www.w3.org/2000/svg">
<mask id="path-1-inside-1" fill="white">
<path d="M9.66992 19.5154C9.66992 19.2464 9.888 19.0283 10.157 19.0283H13.1828C13.4518 19.0283 13.6699 19.2464 13.6699 19.5154C13.6699 19.7844 13.4518 20.0025 13.1828 20.0025H10.157C9.888 20.0025 9.66992 19.7844 9.66992 19.5154Z"/>
</mask>
<path d="M10.157 20.0283H13.1828V18.0283H10.157V20.0283ZM13.1828 19.0025H10.157V21.0025H13.1828V19.0025ZM10.157 19.0025C10.4403 19.0025 10.6699 19.2321 10.6699 19.5154H8.66992C8.66992 20.3367 9.33571 21.0025 10.157 21.0025V19.0025ZM12.6699 19.5154C12.6699 19.2321 12.8996 19.0025 13.1828 19.0025V21.0025C14.0041 21.0025 14.6699 20.3367 14.6699 19.5154H12.6699ZM13.1828 20.0283C12.8996 20.0283 12.6699 19.7987 12.6699 19.5154H14.6699C14.6699 18.6941 14.0041 18.0283 13.1828 18.0283V20.0283ZM10.157 18.0283C9.33571 18.0283 8.66992 18.6941 8.66992 19.5154H10.6699C10.6699 19.7987 10.4403 20.0283 10.157 20.0283V18.0283Z" fill="black" mask="url(#path-1-inside-1)"/>
<mask id="path-3-inside-2" fill="white">
<path d="M10.0865 21.5254C10.0865 21.2492 10.3103 21.0254 10.5865 21.0254H12.5865C12.8626 21.0254 13.0865 21.2492 13.0865 21.5254C13.0865 21.8015 12.8626 22.0254 12.5865 22.0254H10.5865C10.3103 22.0254 10.0865 21.8015 10.0865 21.5254Z"/>
</mask>
<path d="M10.5865 22.0254H12.5865V20.0254H10.5865V22.0254ZM12.5865 21.0254H10.5865V23.0254H12.5865V21.0254ZM10.5865 21.0254C10.8626 21.0254 11.0865 21.2492 11.0865 21.5254H9.08649C9.08649 22.3538 9.75806 23.0254 10.5865 23.0254V21.0254ZM12.0865 21.5254C12.0865 21.2492 12.3103 21.0254 12.5865 21.0254V23.0254C13.4149 23.0254 14.0865 22.3538 14.0865 21.5254H12.0865ZM12.5865 22.0254C12.3103 22.0254 12.0865 21.8015 12.0865 21.5254H14.0865C14.0865 20.697 13.4149 20.0254 12.5865 20.0254V22.0254ZM10.5865 20.0254C9.75806 20.0254 9.08649 20.697 9.08649 21.5254H11.0865C11.0865 21.8015 10.8626 22.0254 10.5865 22.0254V20.0254Z" fill="black" mask="url(#path-3-inside-2)"/>
<mask id="path-5-inside-3" fill="white">
<path fill-rule="evenodd" clip-rule="evenodd" d="M18.5001 8.78165C18.5001 9.34602 18.4311 9.89429 18.3012 10.4185C18.2011 10.8333 18.0668 11.2108 17.9066 11.5601C17.6274 12.181 17.2575 12.7523 16.8137 13.2571C16.5305 13.6025 16.2309 13.9302 15.9312 14.258L15.9312 14.258C15.4468 14.7879 14.962 15.3181 14.5454 15.9239L14.5318 15.9436C14.3519 16.2049 14.1681 16.4719 14.0675 17.0096C13.966 17.5525 13.5424 18.0054 12.9901 18.0049C12.6235 18.0045 12.2061 18.0042 11.7181 18.0042H10.4733C9.92098 18.0042 9.49989 17.5477 9.36202 17.0129C9.23932 16.537 9.03555 16.2457 8.85586 15.9888L8.81052 15.9239C8.39892 15.3304 7.93406 14.8108 7.47289 14.2955L7.47289 14.2955C6.48889 13.1958 5.52176 12.115 5.12485 10.3744C5.00189 9.8636 4.93676 9.33024 4.93676 8.78165C4.93676 8.7557 4.9369 8.72977 4.9372 8.70388C4.93675 8.66595 4.93652 8.62776 4.93652 8.58931L4.93943 8.58956C5.04113 4.93298 8.03725 2 11.7184 2C15.3997 2 18.3959 4.93316 18.4974 8.58989L18.4997 8.58931C18.5 8.62937 18.5 8.66915 18.4997 8.70866C18.4999 8.73296 18.5001 8.75729 18.5001 8.78165ZM11.5831 11C12.0377 11 12.4102 10.639 12.4244 10.1845L12.5552 6.00016C12.5723 5.45291 12.1333 5 11.5858 5C11.0388 5 10.6 5.45213 10.6163 5.9989L10.7417 10.1834C10.7553 10.6383 11.128 11 11.5831 11ZM11.5864 14C12.1387 14 12.5864 13.5523 12.5864 13C12.5864 12.4477 12.1387 12 11.5864 12C11.0341 12 10.5864 12.4477 10.5864 13C10.5864 13.5523 11.0341 14 11.5864 14Z"/>
</mask>
<path fill-rule="evenodd" clip-rule="evenodd" d="M18.5001 8.78165C18.5001 9.34602 18.4311 9.89429 18.3012 10.4185C18.2011 10.8333 18.0668 11.2108 17.9066 11.5601C17.6274 12.181 17.2575 12.7523 16.8137 13.2571C16.5305 13.6025 16.2309 13.9302 15.9312 14.258L15.9312 14.258C15.4468 14.7879 14.962 15.3181 14.5454 15.9239L14.5318 15.9436C14.3519 16.2049 14.1681 16.4719 14.0675 17.0096C13.966 17.5525 13.5424 18.0054 12.9901 18.0049C12.6235 18.0045 12.2061 18.0042 11.7181 18.0042H10.4733C9.92098 18.0042 9.49989 17.5477 9.36202 17.0129C9.23932 16.537 9.03555 16.2457 8.85586 15.9888L8.81052 15.9239C8.39892 15.3304 7.93406 14.8108 7.47289 14.2955L7.47289 14.2955C6.48889 13.1958 5.52176 12.115 5.12485 10.3744C5.00189 9.8636 4.93676 9.33024 4.93676 8.78165C4.93676 8.7557 4.9369 8.72977 4.9372 8.70388C4.93675 8.66595 4.93652 8.62776 4.93652 8.58931L4.93943 8.58956C5.04113 4.93298 8.03725 2 11.7184 2C15.3997 2 18.3959 4.93316 18.4974 8.58989L18.4997 8.58931C18.5 8.62937 18.5 8.66915 18.4997 8.70866C18.4999 8.73296 18.5001 8.75729 18.5001 8.78165ZM11.5831 11C12.0377 11 12.4102 10.639 12.4244 10.1845L12.5552 6.00016C12.5723 5.45291 12.1333 5 11.5858 5C11.0388 5 10.6 5.45213 10.6163 5.9989L10.7417 10.1834C10.7553 10.6383 11.128 11 11.5831 11ZM11.5864 14C12.1387 14 12.5864 13.5523 12.5864 13C12.5864 12.4477 12.1387 12 11.5864 12C11.0341 12 10.5864 12.4477 10.5864 13C10.5864 13.5523 11.0341 14 11.5864 14Z" fill="black"/>
<path d="M18.3012 10.4185L17.3306 10.1779L17.3291 10.1839L18.3012 10.4185ZM17.9066 11.5601L16.9976 11.1433L16.9946 11.15L17.9066 11.5601ZM16.8137 13.2571L16.0627 12.5969L16.0514 12.6098L16.0405 12.623L16.8137 13.2571ZM15.9312 14.258L15.1931 13.5833L15.1709 13.6076L15.1503 13.6333L15.9312 14.258ZM15.9312 14.258L16.6692 14.9328L16.6914 14.9085L16.712 14.8827L15.9312 14.258ZM14.5454 15.9239L15.3691 16.4908L15.3693 16.4906L14.5454 15.9239ZM14.5318 15.9436L15.3555 16.5106L15.3555 16.5105L14.5318 15.9436ZM14.0675 17.0096L13.0846 16.8259L13.0846 16.8259L14.0675 17.0096ZM12.9901 18.0049L12.9892 19.0049L12.9901 18.0049ZM9.36202 17.0129L8.39368 17.2626H8.39368L9.36202 17.0129ZM8.85586 15.9888L8.0357 16.561L8.03646 16.5621L8.85586 15.9888ZM8.81052 15.9239L7.9888 16.4937L7.99036 16.496L8.81052 15.9239ZM7.47289 14.2955L6.67289 14.8955L6.69884 14.9301L6.72768 14.9623L7.47289 14.2955ZM7.47289 14.2955L8.27289 13.6955L8.24694 13.6609L8.2181 13.6286L7.47289 14.2955ZM5.12485 10.3744L6.0999 10.1521L6.09709 10.1404L5.12485 10.3744ZM4.9372 8.70388L5.93713 8.71512L5.93726 8.70361L5.93713 8.69211L4.9372 8.70388ZM4.93652 8.58931L5.02358 7.5931L3.93652 7.49811V8.58931H4.93652ZM4.93943 8.58956L4.85237 9.58576L5.90954 9.67814L5.93904 8.61736L4.93943 8.58956ZM18.4974 8.58989L17.4978 8.61764L17.5323 9.85998L18.7385 9.5604L18.4974 8.58989ZM18.4997 8.58931L19.4997 8.5834L19.4922 7.31242L18.2587 7.61879L18.4997 8.58931ZM18.4997 8.70866L17.4997 8.70156L17.4996 8.71038L17.4997 8.71921L18.4997 8.70866ZM12.4244 10.1845L11.4249 10.1533L12.4244 10.1845ZM12.5552 6.00016L13.5547 6.0314V6.0314L12.5552 6.00016ZM10.6163 5.9989L9.61679 6.02884L10.6163 5.9989ZM10.7417 10.1834L9.74211 10.2134V10.2134L10.7417 10.1834ZM19.2718 10.6591C19.4211 10.0568 19.5001 9.42774 19.5001 8.78165H17.5001C17.5001 9.26431 17.4411 9.73181 17.3306 10.1779L19.2718 10.6591ZM18.8156 11.9769C19.0017 11.5711 19.1576 11.1327 19.2733 10.6531L17.3291 10.1839C17.2447 10.5339 17.1319 10.8505 16.9976 11.1433L18.8156 11.9769ZM17.5648 13.9174C18.0735 13.3386 18.498 12.6832 18.8186 11.9703L16.9946 11.15C16.7567 11.6789 16.4414 12.166 16.0627 12.5969L17.5648 13.9174ZM16.6692 14.9328C16.966 14.6081 17.2839 14.2608 17.5869 13.8913L16.0405 12.623C15.7771 12.9441 15.4958 13.2522 15.1931 13.5833L16.6692 14.9328ZM16.712 14.8827L16.712 14.8827L15.1503 13.6333L15.1503 13.6333L16.712 14.8827ZM15.3693 16.4906C15.7404 15.951 16.1777 15.4704 16.6692 14.9328L15.1931 13.5833C14.7158 14.1054 14.1836 14.6853 13.7214 15.3571L15.3693 16.4906ZM15.3555 16.5105L15.3691 16.4908L13.7216 15.3569L13.7081 15.3766L15.3555 16.5105ZM15.0505 17.1934C15.0851 17.0081 15.1292 16.8926 15.1692 16.8102C15.2131 16.7199 15.2631 16.6448 15.3555 16.5106L13.7081 15.3765C13.5004 15.6782 13.2234 16.0829 13.0846 16.8259L15.0505 17.1934ZM12.9892 19.0049C14.1471 19.0059 14.8854 18.0766 15.0505 17.1934L13.0846 16.8259C13.0697 16.9055 13.0327 16.9632 13.0036 16.9913C12.9906 17.0038 12.9833 17.0068 12.984 17.0064C12.9844 17.0063 12.9858 17.0058 12.9879 17.0053C12.9901 17.0049 12.9913 17.0049 12.991 17.0049L12.9892 19.0049ZM11.7181 19.0042C12.2056 19.0042 12.6227 19.0045 12.9892 19.0049L12.991 17.0049C12.6243 17.0045 12.2065 17.0042 11.7181 17.0042V19.0042ZM10.4733 19.0042H11.7181V17.0042H10.4733V19.0042ZM8.39368 17.2626C8.6017 18.0695 9.31054 19.0042 10.4733 19.0042V17.0042C10.4732 17.0042 10.4737 17.0042 10.4746 17.0043C10.4754 17.0044 10.4764 17.0046 10.4774 17.0048C10.4797 17.0052 10.4807 17.0057 10.4801 17.0055C10.479 17.005 10.4677 16.9999 10.449 16.9823C10.4077 16.9432 10.357 16.8668 10.3304 16.7633L8.39368 17.2626ZM8.03646 16.5621C8.20552 16.8037 8.31857 16.9712 8.39368 17.2626L10.3304 16.7633C10.1601 16.1027 9.86557 15.6877 9.67526 15.4156L8.03646 16.5621ZM7.99036 16.496L8.0357 16.561L9.67602 15.4167L9.63069 15.3517L7.99036 16.496ZM6.72768 14.9623C7.19461 15.4841 7.61799 15.9591 7.9888 16.4937L9.63225 15.354C9.17985 14.7016 8.6735 14.1376 8.2181 13.6287L6.72768 14.9623ZM6.67289 14.8955L6.67289 14.8955L8.27289 13.6955L8.27289 13.6955L6.67289 14.8955ZM4.14988 10.5968C4.61061 12.6172 5.75067 13.8705 6.72768 14.9623L8.2181 13.6286C7.22712 12.5212 6.43291 11.6128 6.09983 10.1521L4.14988 10.5968ZM3.93676 8.78165C3.93676 9.40965 4.01135 10.0216 4.15262 10.6085L6.09709 10.1404C5.99244 9.70565 5.93676 9.25082 5.93676 8.78165H3.93676ZM3.93726 8.69265C3.93693 8.72228 3.93676 8.75195 3.93676 8.78165H5.93676C5.93676 8.75944 5.93688 8.73726 5.93713 8.71512L3.93726 8.69265ZM3.93652 8.58931C3.93652 8.63166 3.93677 8.67378 3.93726 8.71566L5.93713 8.69211C5.93673 8.65813 5.93652 8.62386 5.93652 8.58931H3.93652ZM5.02648 7.59336L5.02358 7.5931L4.84947 9.58551L4.85237 9.58576L5.02648 7.59336ZM11.7184 1C7.49428 1 4.05652 4.36545 3.93981 8.56176L5.93904 8.61736C6.02573 5.50052 8.58022 3 11.7184 3V1ZM19.497 8.56213C19.3805 4.36565 15.9427 1 11.7184 1V3C14.8567 3 17.4112 5.50067 17.4978 8.61764L19.497 8.56213ZM18.2587 7.61879L18.2564 7.61938L18.7385 9.5604L18.7408 9.55982L18.2587 7.61879ZM19.4997 8.71575C19.5 8.67189 19.5 8.62777 19.4997 8.5834L17.4998 8.59521C17.5 8.63097 17.5 8.66642 17.4997 8.70156L19.4997 8.71575ZM19.5001 8.78165C19.5001 8.75379 19.4999 8.72594 19.4996 8.6981L17.4997 8.71921C17.5 8.73997 17.5001 8.76079 17.5001 8.78165H19.5001ZM11.4249 10.1533C11.4276 10.0679 11.4976 10 11.5831 10V12C12.5778 12 13.3928 11.2101 13.4239 10.2158L11.4249 10.1533ZM11.5557 5.96893L11.4249 10.1533L13.4239 10.2158L13.5547 6.0314L11.5557 5.96893ZM11.5858 6C11.5836 6 11.5787 5.99932 11.5735 5.99707C11.569 5.99515 11.5661 5.99285 11.5641 5.99084C11.5622 5.98883 11.56 5.98582 11.5582 5.9813C11.5561 5.97604 11.5556 5.97114 11.5557 5.96893L13.5547 6.0314C13.5894 4.9199 12.6978 4 11.5858 4V6ZM11.6159 5.96897C11.616 5.97119 11.6154 5.97608 11.6133 5.98133C11.6116 5.98584 11.6093 5.98885 11.6074 5.99085C11.6055 5.99286 11.6025 5.99516 11.5981 5.99708C11.5929 5.99932 11.588 6 11.5858 6V4C10.4747 4 9.58353 4.9183 9.61679 6.02884L11.6159 5.96897ZM11.7412 10.1535L11.6159 5.96897L9.61679 6.02884L9.74211 10.2134L11.7412 10.1535ZM11.5831 10C11.6686 10 11.7386 10.068 11.7412 10.1535L9.74211 10.2134C9.77191 11.2086 10.5873 12 11.5831 12V10ZM11.5864 13V15C12.691 15 13.5864 14.1046 13.5864 13H11.5864ZM11.5864 13H13.5864C13.5864 11.8954 12.691 11 11.5864 11V13ZM11.5864 13V11C10.4819 11 9.58643 11.8954 9.58643 13H11.5864ZM11.5864 13H9.58643C9.58643 14.1046 10.4819 15 11.5864 15V13Z" fill="black" mask="url(#path-5-inside-3)"/>
</svg>
