<svg width="32" height="32" viewBox="0 0 32 32" fill="none" xmlns="http://www.w3.org/2000/svg">
<g opacity="0.9">
<path fill-rule="evenodd" clip-rule="evenodd" d="M9.28359 8.70751C9.75024 8.25382 10.3754 8 11.0263 8H26.5C27.8807 8 29 9.11929 29 10.5V16.9314C28.7912 16.7562 28.5764 16.5909 28.3569 16.4352C26.9907 15.4665 25.4816 14.8984 24.1082 14.6021L25.3034 13.425C26.0904 12.6499 26.1001 11.3836 25.325 10.5966C24.5499 9.80963 23.2836 9.79997 22.4966 10.575L16.6498 16.3333L22.4966 22.0916C23.2836 22.8667 24.5499 22.857 25.325 22.07C26.0979 21.2852 26.0904 20.0237 25.3098 19.248C25.5609 19.381 25.8068 19.5306 26.0432 19.6981C27.0496 20.4118 27.9515 21.4932 28.3218 23.2121C27.8658 23.6971 27.2183 24 26.5 24H11.0263C10.3754 24 9.75024 23.7462 9.28359 23.2925L3.62645 17.7925C2.61671 16.8108 2.61671 15.1892 3.62644 14.2075L9.28359 8.70751ZM9.00002 18C10.1046 18 11 17.1046 11 16C11 14.8954 10.1046 14 9.00002 14C7.89545 14 7.00002 14.8954 7.00002 16C7.00002 17.1046 7.89545 18 9.00002 18Z" fill="black"/>
<path d="M24.6017 12.7125C24.9952 12.325 25 11.6918 24.6125 11.2983C24.225 10.9048 23.5918 10.9 23.1983 11.2875L18.0749 16.3333L23.1983 21.3792C23.5918 21.7667 24.225 21.7618 24.6125 21.3684C25 20.9749 24.9952 20.3417 24.6017 19.9542L21.945 17.3378C23.2486 17.3839 25.0927 17.7983 26.6216 18.8824C28.1973 19.9997 29.5 21.8657 29.5 25C29.5 25.5523 29.9477 26 30.5 26C31.0523 26 31.5 25.5523 31.5 25C31.5 21 29.8694 18.7336 27.7785 17.2509C25.8363 15.8738 23.5529 15.3805 21.9372 15.3366L24.6017 12.7125Z" fill="black"/>
</g>
</svg>
