<svg width="24" height="24" viewBox="0 0 24 24" fill="none" xmlns="http://www.w3.org/2000/svg">
<g clip-path="url(#clip0)">
<g opacity="0.9">
<path fill-rule="evenodd" clip-rule="evenodd" d="M5.58883 6.65711C6.04991 6.23446 6.65266 6 7.27814 6H19.5002C20.8809 6 22.0002 7.11929 22.0002 8.5L22.0002 11.8338C21.333 11.4176 20.6265 11.1343 19.9514 10.9512L20.3347 10.5862C20.9346 10.0149 20.9577 9.06542 20.3864 8.46552C19.8151 7.86562 18.8656 7.84247 18.2657 8.4138L14.3252 12.1667L18.2657 15.9195C18.8656 16.4909 19.8151 16.4677 20.3864 15.8678C20.7093 15.5288 20.8423 15.078 20.7886 14.647C21.256 15.0268 21.6577 15.5558 21.8602 16.327C21.5187 17.3013 20.5911 18 19.5002 18H7.27814C6.65266 18 6.04991 17.7655 5.58883 17.3429L1.77065 13.8429C0.689732 12.852 0.689731 11.148 1.77065 10.1571L5.58883 6.65711ZM5.00018 13C5.55247 13 6.00018 12.5523 6.00018 12C6.00018 11.4477 5.55247 11 5.00018 11C4.4479 11 4.00018 11.4477 4.00018 12C4.00018 12.5523 4.4479 13 5.00018 13Z" fill="black"/>
<path d="M21.7031 12.8349C21.804 12.9047 21.9031 12.9781 22.0002 13.0552C23.1413 13.9619 24.0002 15.3851 24.0002 17.5C24.0002 17.7761 23.7763 18 23.5002 18C23.224 18 23.0002 17.7761 23.0002 17.5C23.0002 16.142 22.5946 15.1572 22.0002 14.4436C21.7367 14.1273 21.4362 13.8643 21.1174 13.6457C20.5831 13.2793 19.9909 13.0341 19.4249 12.8807C18.8633 12.7285 18.3276 12.6667 17.9002 12.6667H17.7502L19.645 14.4713C19.67 14.4951 19.692 14.5208 19.711 14.5481C19.8438 14.739 19.8289 15.0032 19.6623 15.1781C19.6623 15.1782 19.6623 15.1781 19.6623 15.1781C19.4718 15.3781 19.1553 15.3858 18.9554 15.1954L15.7752 12.1667L18.9554 9.13793C18.9803 9.11413 19.0072 9.09342 19.0353 9.0758C19.2325 8.95242 19.4956 8.98021 19.6622 9.15518C19.6861 9.18017 19.7068 9.20699 19.7244 9.23515C19.8478 9.43229 19.82 9.69542 19.645 9.86205C19.645 9.86206 19.645 9.86205 19.645 9.86205L17.7502 11.6667H17.9002C17.9434 11.6667 17.9875 11.6672 18.0325 11.6683C18.3472 11.6757 18.7037 11.7099 19.0823 11.7789C19.9126 11.9302 20.8489 12.249 21.6829 12.821C21.6897 12.8256 21.6964 12.8302 21.7031 12.8349Z" fill="black"/>
</g>
</g>
<defs>
<clipPath id="clip0">
<rect width="24" height="24" fill="white"/>
</clipPath>
</defs>
</svg>
