<svg width="16" height="16" viewBox="0 0 16 16" fill="none" xmlns="http://www.w3.org/2000/svg">
<g opacity="0.9">
<path d="M11.5 11C11.7761 11 12 10.7761 12 10.5C12 10.2239 11.7761 10 11.5 10H6.5C6.22386 10 6 10.2239 6 10.5C6 10.7761 6.22386 11 6.5 11H11.5Z" fill="black"/>
<path d="M7.5 6C7.5 6.55228 7.05228 7 6.5 7C5.94772 7 5.5 6.55228 5.5 6C5.5 5.44772 5.94772 5 6.5 5C7.05228 5 7.5 5.44772 7.5 6Z" fill="black"/>
<path d="M11.5 7C12.0523 7 12.5 6.55228 12.5 6C12.5 5.44772 12.0523 5 11.5 5C10.9477 5 10.5 5.44772 10.5 6C10.5 6.55228 10.9477 7 11.5 7Z" fill="black"/>
<path fill-rule="evenodd" clip-rule="evenodd" d="M2 8C2 4.13401 5.13401 1 9 1C12.866 1 16 4.13401 16 8C16 11.866 12.866 15 9 15C5.13401 15 2 11.866 2 8ZM9 2C5.68629 2 3 4.68629 3 8C3 11.3137 5.68629 14 9 14C12.3137 14 15 11.3137 15 8C15 4.68629 12.3137 2 9 2Z" fill="black"/>
<path d="M3.90466 1.17762C4.08272 1.38869 4.05595 1.70414 3.84488 1.88219C2.1043 3.35047 1 5.54603 1 8.00001C1 10.454 2.1043 12.6496 3.84488 14.1178C4.05595 14.2959 4.08272 14.6113 3.90466 14.8224C3.72661 15.0335 3.41116 15.0602 3.20009 14.8822C1.24391 13.232 0 10.761 0 8.00001C0 5.23898 1.24391 2.76798 3.20009 1.11783C3.41116 0.939777 3.72661 0.966545 3.90466 1.17762Z" fill="black"/>
</g>
</svg>
