<svg width="24" height="24" viewBox="0 0 24 24" fill="none" xmlns="http://www.w3.org/2000/svg">
<g opacity="0.9">
<path fill-rule="evenodd" clip-rule="evenodd" d="M13 2C7.47715 2 3 6.47715 3 12C3 17.5228 7.47715 22 13 22C18.5228 22 23 17.5228 23 12C23 6.47715 18.5228 2 13 2ZM11 9.5C11 10.3284 10.3284 11 9.5 11C8.67157 11 8 10.3284 8 9.5C8 8.67157 8.67157 8 9.5 8C10.3284 8 11 8.67157 11 9.5ZM18 9.5C18 10.3284 17.3284 11 16.5 11C15.6716 11 15 10.3284 15 9.5C15 8.67157 15.6716 8 16.5 8C17.3284 8 18 8.67157 18 9.5ZM9.5 15C9.22386 15 9 15.2239 9 15.5C9 15.7761 9.22386 16 9.5 16H16.5C16.7761 16 17 15.7761 17 15.5C17 15.2239 16.7761 15 16.5 15H9.5Z" fill="black"/>
<path d="M5.15191 3.39111C5.3679 3.21905 5.40352 2.90448 5.23147 2.68849C5.05942 2.4725 4.74484 2.43688 4.52885 2.60893C1.76983 4.80668 0 8.19683 0 12C0 15.8032 1.76983 19.1934 4.52885 21.3911C4.74484 21.5632 5.05942 21.5275 5.23147 21.3115C5.40352 21.0956 5.3679 20.781 5.15191 20.6089C2.62083 18.5928 1 15.4858 1 12C1 8.51421 2.62083 5.40729 5.15191 3.39111Z" fill="black"/>
</g>
</svg>
