<svg width="32" height="32" viewBox="0 0 32 32" fill="none" xmlns="http://www.w3.org/2000/svg">
<g opacity="0.9">
<path fill-rule="evenodd" clip-rule="evenodd" d="M17 5C10.9249 5 6 9.92487 6 16C6 22.0751 10.9249 27 17 27C23.0751 27 28 22.0751 28 16C28 9.92487 23.0751 5 17 5ZM5 16C5 9.37258 10.3726 4 17 4C23.6274 4 29 9.37258 29 16C29 22.6274 23.6274 28 17 28C10.3726 28 5 22.6274 5 16Z" fill="black"/>
<path fill-rule="evenodd" clip-rule="evenodd" d="M6.84484 5.63798C7.04478 5.82846 7.05245 6.14495 6.86198 6.34488C4.46855 8.85723 3 12.2566 3 16C3 19.7434 4.46855 23.1428 6.86198 25.6551C7.05245 25.8551 7.04478 26.1715 6.84484 26.362C6.64491 26.5525 6.32842 26.5448 6.13795 26.3449C3.57446 23.654 2 20.0103 2 16C2 11.9897 3.57446 8.34597 6.13795 5.65512C6.32842 5.45518 6.64491 5.44751 6.84484 5.63798Z" fill="black"/>
<path fill-rule="evenodd" clip-rule="evenodd" d="M12 14C12.5523 14 13 13.5523 13 13C13 12.4477 12.5523 12 12 12C11.4477 12 11 12.4477 11 13C11 13.5523 11.4477 14 12 14ZM12 15C13.1046 15 14 14.1046 14 13C14 11.8954 13.1046 11 12 11C10.8954 11 10 11.8954 10 13C10 14.1046 10.8954 15 12 15Z" fill="black"/>
<path fill-rule="evenodd" clip-rule="evenodd" d="M22 14C22.5523 14 23 13.5523 23 13C23 12.4477 22.5523 12 22 12C21.4477 12 21 12.4477 21 13C21 13.5523 21.4477 14 22 14ZM22 15C23.1046 15 24 14.1046 24 13C24 11.8954 23.1046 11 22 11C20.8954 11 20 11.8954 20 13C20 14.1046 20.8954 15 22 15Z" fill="black"/>
<path fill-rule="evenodd" clip-rule="evenodd" d="M11 20.5C11 20.2239 11.2239 20 11.5 20H22.5C22.7761 20 23 20.2239 23 20.5C23 20.7761 22.7761 21 22.5 21H11.5C11.2239 21 11 20.7761 11 20.5Z" fill="black"/>
</g>
</svg>
