<svg width="32" height="33" viewBox="0 0 32 33" fill="none" xmlns="http://www.w3.org/2000/svg">
<g opacity="0.9">
<path fill-rule="evenodd" clip-rule="evenodd" d="M4 25.717C4 26.2693 4.44772 26.717 5 26.717H27C27.5523 26.717 28 26.2693 28 25.717C28 25.1648 27.5523 24.717 27 24.717H5C4.44772 24.717 4 25.1648 4 25.717Z" fill="black"/>
<path fill-rule="evenodd" clip-rule="evenodd" d="M4 17.717C4 18.2693 4.44772 18.717 5 18.717H21C21.5523 18.717 22 18.2693 22 17.717C22 17.1648 21.5523 16.717 21 16.717H5C4.44772 16.717 4 17.1648 4 17.717Z" fill="black"/>
<path fill-rule="evenodd" clip-rule="evenodd" d="M4 9.71704C4 10.2693 4.44772 10.717 5 10.717H15C15.5523 10.717 16 10.2693 16 9.71704C16 9.16476 15.5523 8.71704 15 8.71704H5C4.44772 8.71704 4 9.16476 4 9.71704Z" fill="black"/>
</g>
</svg>
