<svg width="32" height="32" viewBox="0 0 32 32" fill="none" xmlns="http://www.w3.org/2000/svg">
<path opacity="0.9" fill-rule="evenodd" clip-rule="evenodd" d="M14.6735 5.03108C14.8697 5.10368 15 5.29079 15 5.50002V10.7355C19.264 10.8771 22.4906 12.8286 24.6588 15.6986C26.9002 18.6655 28 22.5956 28 26.5C28 26.7513 27.8135 26.9635 27.5643 26.9959C27.3151 27.0282 27.0807 26.8706 27.0165 26.6276C26.4989 24.666 24.9182 23.3269 22.6439 22.4704C20.4956 21.6614 17.7961 21.3126 15 21.276V26.5C15 26.7093 14.8697 26.8964 14.6735 26.969C14.4772 27.0416 14.2565 26.9843 14.1204 26.8254L5.12037 16.3254C4.95988 16.1382 4.95988 15.8619 5.12037 15.6746L14.1204 5.17463C14.2565 5.01576 14.4772 4.95849 14.6735 5.03108ZM6.15854 16L14 25.1484V20.7728C14 20.4966 14.2239 20.2728 14.5 20.2728C17.5305 20.2728 20.5608 20.6174 22.9964 21.5346C24.5683 22.1266 25.924 22.9708 26.8581 24.1382C26.5068 21.2388 25.5041 18.4765 23.8609 16.3014C21.7863 13.5553 18.6805 11.7273 14.5 11.7273C14.2239 11.7273 14 11.5034 14 11.2273V6.85165L6.15854 16Z" fill="black"/>
</svg>
