<svg width="25" height="24" viewBox="0 0 25 24" fill="none" xmlns="http://www.w3.org/2000/svg">
<g opacity="0.9">
<path fill-rule="evenodd" clip-rule="evenodd" d="M17.0352 14C18.1397 14 19.0352 13.1046 19.0352 12C19.0352 10.8954 18.1397 10 17.0352 10C15.9306 10 15.0352 10.8954 15.0352 12C15.0352 13.1046 15.9306 14 17.0352 14ZM17.0352 13C16.4829 13 16.0352 12.5523 16.0352 12C16.0352 11.4477 16.4829 11 17.0352 11C17.5874 11 18.0352 11.4477 18.0352 12C18.0352 12.5523 17.5874 13 17.0352 13Z" fill="black"/>
<path fill-rule="evenodd" clip-rule="evenodd" d="M11.5352 13.5C12.3636 13.5 13.0352 12.8284 13.0352 12C13.0352 11.1716 12.3636 10.5 11.5352 10.5C10.7067 10.5 10.0352 11.1716 10.0352 12C10.0352 12.8284 10.7067 13.5 11.5352 13.5ZM11.0352 12C11.0352 11.7239 11.259 11.5 11.5352 11.5C11.8113 11.5 12.0352 11.7239 12.0352 12C12.0352 12.2761 11.8113 12.5 11.5352 12.5C11.259 12.5 11.0352 12.2761 11.0352 12Z" fill="black"/>
<path fill-rule="evenodd" clip-rule="evenodd" d="M8.03516 12C8.03516 12.8284 7.36358 13.5 6.53516 13.5C5.70673 13.5 5.03516 12.8284 5.03516 12C5.03516 11.1716 5.70673 10.5 6.53516 10.5C7.36358 10.5 8.03516 11.1716 8.03516 12ZM6.53516 11.5C6.25901 11.5 6.03516 11.7239 6.03516 12C6.03516 12.2761 6.25901 12.5 6.53516 12.5C6.8113 12.5 7.03516 12.2761 7.03516 12C7.03516 11.7239 6.8113 11.5 6.53516 11.5Z" fill="black"/>
<path fill-rule="evenodd" clip-rule="evenodd" d="M12.0352 2C6.51231 2 2.03516 6.47715 2.03516 12C2.03516 17.5228 6.51231 22 12.0352 22C17.558 22 22.0352 17.5228 22.0352 12C22.0352 6.47715 17.558 2 12.0352 2ZM3.03516 12C3.03516 7.02944 7.06459 3 12.0352 3C17.0057 3 21.0352 7.02944 21.0352 12C21.0352 16.9706 17.0057 21 12.0352 21C7.06459 21 3.03516 16.9706 3.03516 12Z" fill="black"/>
</g>
</svg>
