<svg width="32" height="32" viewBox="0 0 32 32" fill="none" xmlns="http://www.w3.org/2000/svg">
<g opacity="0.9">
<path d="M7.70707 6.29289C7.31654 5.90237 6.68338 5.90237 6.29286 6.29289C5.90233 6.68342 5.90233 7.31658 6.29286 7.70711L24.2929 25.7071C24.6834 26.0976 25.3165 26.0976 25.7071 25.7071C26.0976 25.3166 26.0976 24.6834 25.7071 24.2929L7.70707 6.29289Z" fill="black"/>
<path d="M7.56049 12.3559C7.91608 12.0783 8.2962 11.7991 8.69841 11.5269L12.1354 14.9639C12.0471 15.2944 11.9999 15.6417 11.9999 16C11.9999 18.2091 13.7908 20 15.9999 20C16.3583 20 16.7056 19.9529 17.036 19.8645L19.5542 22.3826C18.4363 22.7641 17.2428 23 15.9999 23C12.6601 23 9.67615 21.2961 7.56049 19.6441C6.49645 18.8132 5.63642 17.9833 5.04207 17.3609C4.74462 17.0495 4.51297 16.7892 4.35485 16.6057C4.27577 16.514 4.21502 16.4414 4.17357 16.3911C4.15284 16.366 4.13694 16.3464 4.12597 16.3329L4.11324 16.317L4.10968 16.3126L4.10801 16.3105C3.96392 16.1286 3.96452 15.8707 4.10861 15.6888L4.10968 15.6874L4.11324 15.683L4.12597 15.6671C4.13694 15.6536 4.15284 15.634 4.17357 15.6089C4.21502 15.5586 4.27577 15.486 4.35485 15.3943C4.51297 15.2108 4.74462 14.9505 5.04207 14.6391C5.63642 14.0167 6.49645 13.1868 7.56049 12.3559Z" fill="black"/>
<path d="M19.9999 16C19.9999 16.3583 19.9528 16.7056 19.8645 17.0361L23.3015 20.4731C23.7037 20.2009 24.0838 19.9217 24.4394 19.6441C25.5034 18.8132 26.3635 17.9833 26.9578 17.3609C27.2553 17.0495 27.4869 16.7892 27.645 16.6057C27.7241 16.514 27.7849 16.4414 27.8263 16.3911C27.847 16.366 27.863 16.3464 27.8739 16.3329L27.8866 16.317L27.8902 16.3126L27.8913 16.3112C28.0354 16.1293 28.0357 15.8711 27.8916 15.6892L27.8902 15.6874L27.8866 15.683L27.8739 15.6671L27.8599 15.6499L27.8263 15.6089C27.7849 15.5586 27.7241 15.486 27.645 15.3943C27.4869 15.2108 27.2553 14.9505 26.9578 14.6391C26.3635 14.0167 25.5034 13.1868 24.4394 12.3559C22.3237 10.7039 19.3398 9 15.9999 9C14.7571 9 13.5636 9.23594 12.4457 9.61736L14.9639 12.1355C15.2943 12.0471 15.6416 12 15.9999 12C18.2091 12 19.9999 13.7909 19.9999 16Z" fill="black"/>
</g>
</svg>
