<svg width="16" height="16" viewBox="0 0 16 16" fill="none" xmlns="http://www.w3.org/2000/svg">
<g opacity="0.9">
<path d="M3.85346 3.14645C3.6582 2.95118 3.34162 2.95118 3.14636 3.14645C2.95109 3.34171 2.95109 3.65829 3.14636 3.85355L12.1464 12.8536C12.3416 13.0488 12.6582 13.0488 12.8535 12.8536C13.0487 12.6583 13.0487 12.3417 12.8535 12.1464L3.85346 3.14645Z" fill="black"/>
<path fill-rule="evenodd" clip-rule="evenodd" d="M7.99994 3.99992C7.7238 3.99992 7.49994 4.22378 7.49994 4.49992C7.49994 4.77607 7.7238 4.99992 7.99994 4.99992C9.63828 4.99992 11.1576 5.80299 12.2977 6.6511C12.8622 7.071 13.3199 7.49166 13.636 7.80703C13.7062 7.87705 13.7693 7.94175 13.8249 7.99992C13.8 8.02595 13.7736 8.0533 13.7458 8.08183C13.5001 8.3337 13.1416 8.6773 12.6939 9.04071C12.4795 9.21474 12.4467 9.52962 12.6208 9.74403C12.7948 9.95843 13.1097 9.99117 13.3241 9.81715C13.8076 9.42469 14.1946 9.05379 14.4616 8.78012C14.5952 8.64313 14.6992 8.53007 14.7706 8.45029C14.8063 8.41038 14.8339 8.37877 14.8529 8.35661L14.8752 8.33059L14.8814 8.32316L14.8833 8.32089L14.8843 8.3197C15.0384 8.13443 15.0379 7.86491 14.8839 7.67964L14.8831 7.6787L14.8807 7.67588L14.8728 7.6665L14.8444 7.63337C14.82 7.60511 14.7845 7.56477 14.7387 7.51408C14.647 7.41274 14.5134 7.26977 14.3423 7.09907C14.0006 6.75819 13.5064 6.30385 12.8946 5.84875C11.6821 4.94686 9.95145 3.99992 7.99994 3.99992ZM14.4999 7.99992C14.8844 8.31959 14.8843 8.3197 14.8843 8.3197L14.4999 7.99992ZM14.8839 7.67964C14.8839 7.67964 14.8844 7.68025 14.4999 7.99992L14.8839 7.67964Z" fill="black"/>
<path fill-rule="evenodd" clip-rule="evenodd" d="M3.34594 6.92686C3.56108 6.75374 3.59514 6.43899 3.42203 6.22386C3.24891 6.00872 2.93416 5.97465 2.71902 6.14777C2.2225 6.54731 1.8247 6.92693 1.55023 7.2075C1.41284 7.34795 1.3059 7.46404 1.23249 7.546C1.19578 7.58699 1.16742 7.61948 1.1478 7.64225L1.12495 7.66898L1.11853 7.67661L1.11658 7.67894L1.11557 7.68015C0.961521 7.86542 0.961943 8.13494 1.11599 8.32021L1.11677 8.32115L1.11914 8.32397L1.12706 8.33335L1.15547 8.36648C1.17993 8.39474 1.21536 8.43507 1.26123 8.48577C1.35292 8.58711 1.4865 8.73007 1.65762 8.90078C1.99932 9.24166 2.49353 9.696 3.10532 10.1511C4.31774 11.053 6.04843 11.9999 7.99994 11.9999C8.27608 11.9999 8.49994 11.7761 8.49994 11.4999C8.49994 11.2238 8.27608 10.9999 7.99994 10.9999C6.3616 10.9999 4.8423 10.1969 3.70217 9.34875C3.1377 8.92885 2.68 8.50819 2.36387 8.19282C2.29368 8.12279 2.2306 8.0581 2.17503 7.99992C2.20314 7.9705 2.23317 7.9394 2.26507 7.90679C2.51783 7.64841 2.8863 7.29672 3.34594 6.92686ZM1.49994 7.99992C1.11548 7.68025 1.11557 7.68015 1.11557 7.68015L1.49994 7.99992ZM1.11599 8.32021C1.11599 8.32021 1.11548 8.31959 1.49994 7.99992L1.11599 8.32021Z" fill="black"/>
</g>
</svg>
