<svg width="24" height="24" viewBox="0 0 24 24" fill="none" xmlns="http://www.w3.org/2000/svg">
<g opacity="0.9">
<path d="M5.85368 5.14645C5.65841 4.95118 5.34183 4.95118 5.14657 5.14645C4.95131 5.34171 4.95131 5.65829 5.14657 5.85355L18.1466 18.8536C18.3418 19.0488 18.6584 19.0488 18.8537 18.8536C19.0489 18.6583 19.0489 18.3417 18.8537 18.1464L5.85368 5.14645Z" fill="black"/>
<path d="M12.0001 7.99992C11.6764 7.99992 11.356 8.01805 11.0399 8.05206C10.7653 8.0816 10.5188 7.88298 10.4893 7.60842C10.4597 7.33386 10.6583 7.08734 10.9329 7.0578C11.2829 7.02014 11.639 6.99992 12.0001 6.99992C14.7614 6.99992 17.2333 8.18105 18.9914 9.33154C19.8747 9.90957 20.5891 10.4872 21.0834 10.921C21.3307 11.1381 21.5236 11.3197 21.6557 11.4481C21.7217 11.5123 21.7726 11.5632 21.8075 11.5987C21.8249 11.6164 21.8384 11.6303 21.8477 11.64L21.8587 11.6514L21.8619 11.6548L21.8629 11.6558L21.5001 11.9999L21.8634 12.3435L21.8618 12.3452L21.8584 12.3487L21.8467 12.3609C21.8366 12.3714 21.8222 12.3862 21.8035 12.4052C21.7661 12.4432 21.7115 12.4977 21.6407 12.5663C21.499 12.7036 21.2922 12.8974 21.0272 13.128C20.4977 13.5887 19.7333 14.1986 18.791 14.7976C18.5579 14.9457 18.2489 14.8769 18.1008 14.6438C17.9527 14.4108 18.0215 14.1018 18.2546 13.9536C19.1456 13.3873 19.8699 12.8094 20.3707 12.3736C20.5335 12.232 20.6723 12.1057 20.7853 11.9999C20.6848 11.9059 20.5638 11.7955 20.4238 11.6726C19.9566 11.2626 19.2797 10.7153 18.4439 10.1683C16.7636 9.0688 14.4856 7.99992 12.0001 7.99992Z" fill="black"/>
<path d="M21.8634 12.3435C21.8634 12.3435 21.8635 12.3434 21.5001 11.9999C21.8635 11.6565 21.8629 11.6558 21.8629 11.6558C22.0451 11.8486 22.0455 12.1508 21.8634 12.3435Z" fill="black"/>
<path d="M5.92106 9.34317C6.06885 9.57643 5.99956 9.88534 5.7663 10.0331C4.8693 10.6015 4.13987 11.1826 3.63531 11.6212C3.47007 11.7649 3.32927 11.8929 3.21493 11.9999C3.31545 12.094 3.43643 12.2043 3.57648 12.3272C4.04364 12.7372 4.72053 13.2846 5.55639 13.8315C7.2366 14.9311 9.51466 15.9999 12.0001 15.9999C12.3018 15.9999 12.6005 15.9842 12.8955 15.9545C13.1703 15.9269 13.4154 16.1273 13.443 16.402C13.4706 16.6768 13.2703 16.9219 12.9955 16.9495C12.6687 16.9824 12.3366 16.9999 12.0001 16.9999C9.23888 16.9999 6.76694 15.8188 5.00883 14.6683C4.12552 14.0903 3.41117 13.5126 2.91688 13.0789C2.6695 12.8618 2.47661 12.6801 2.34457 12.5518C2.27854 12.4876 2.22768 12.4366 2.19279 12.4012C2.17534 12.3834 2.16188 12.3696 2.15251 12.3598L2.14153 12.3484L2.13836 12.3451L2.13736 12.344L2.50012 11.9999L2.13687 11.6563L2.13846 11.6547L2.14186 11.6511L2.15369 11.6388C2.1638 11.6283 2.17833 11.6133 2.19719 11.5942C2.23489 11.556 2.28987 11.501 2.36123 11.4319C2.50391 11.2937 2.71231 11.0986 2.97924 10.8665C3.51253 10.4029 4.28239 9.7895 5.2311 9.18841C5.46436 9.04062 5.77327 9.1099 5.92106 9.34317Z" fill="black"/>
<path d="M2.13687 11.6563C2.13687 11.6563 2.13675 11.6565 2.50012 11.9999C2.13675 12.3434 2.13736 12.344 2.13736 12.344C1.95519 12.1513 1.9547 11.8491 2.13687 11.6563Z" fill="black"/>
<path d="M11.7221 9.41611C11.7638 9.14313 12.0189 8.95565 12.2919 8.99736C12.4829 9.02656 12.8411 9.11181 13.0324 9.18195C13.7693 9.45222 14.3735 10.0036 14.7103 10.7115C14.8035 10.9074 14.8762 11.1152 14.9255 11.3323C14.9866 11.6016 14.8179 11.8694 14.5486 11.9306C14.2793 11.9917 14.0114 11.823 13.9503 11.5537C13.9175 11.4094 13.8692 11.2713 13.8073 11.1411C13.5828 10.6693 13.1791 10.3009 12.6881 10.1208C12.5721 10.0783 12.2809 10.0073 12.1408 9.98589C11.8678 9.94418 11.6804 9.68908 11.7221 9.41611Z" fill="black"/>
<path d="M9.48255 11.5973C9.75848 11.5865 9.99089 11.8015 10.0017 12.0774C10.0075 12.2283 10.0299 12.374 10.0667 12.5132C10.2686 13.2769 10.9104 13.8562 11.6942 13.9764C11.9672 14.0183 12.1545 14.2735 12.1126 14.5464C12.0708 14.8194 11.8156 15.0067 11.5426 14.9649C10.3644 14.7842 9.40331 13.9162 9.09991 12.7689C9.0445 12.5593 9.01117 12.3409 9.00241 12.1164C8.99165 11.8404 9.20662 11.608 9.48255 11.5973Z" fill="black"/>
</g>
</svg>
