<svg width="32" height="32" viewBox="0 0 32 32" fill="none" xmlns="http://www.w3.org/2000/svg">
<path fill-rule="evenodd" clip-rule="evenodd" d="M4 16C4 22.6274 9.37258 28 16 28C22.6274 28 28 22.6274 28 16C28 9.37258 22.6274 4 16 4C9.37258 4 4 9.37258 4 16ZM13 12C13 11.4477 12.5523 11 12 11H11C10.4477 11 10 11.4477 10 12V20C10 20.5523 10.4477 21 11 21H12C12.5523 21 13 20.5523 13 20V12ZM20.4453 20.9635L14.2481 16.8321C13.6543 16.4362 13.6543 15.5638 14.2481 15.1679L20.4453 11.0365C21.1099 10.5934 22 11.0698 22 11.8685V20.1315C22 20.9302 21.1099 21.4066 20.4453 20.9635Z" fill="black"/>
</svg>
