<svg width="24" height="24" viewBox="0 0 24 24" fill="none" xmlns="http://www.w3.org/2000/svg">
<path fill-rule="evenodd" clip-rule="evenodd" d="M11.1392 12.8137C10.5809 12.4149 10.5809 11.5851 11.1392 11.1862L15.4188 8.12944C16.0806 7.65667 17 8.1298 17 8.94317V15.0568C17 15.8702 16.0806 16.3433 15.4188 15.8705L11.1392 12.8137ZM16 15.0568L11.7205 12L16 8.94317V15.0568Z" fill="black"/>
<path fill-rule="evenodd" clip-rule="evenodd" d="M9 8C9.55228 8 10 8.44772 10 9V15C10 15.5523 9.55228 16 9 16H8C7.44772 16 7 15.5523 7 15V9C7 8.44772 7.44772 8 8 8H9ZM8 9H9V15H8V9Z" fill="black"/>
<path fill-rule="evenodd" clip-rule="evenodd" d="M2 12C2 17.5228 6.47715 22 12 22C17.5228 22 22 17.5228 22 12C22 6.47715 17.5228 2 12 2C6.47715 2 2 6.47715 2 12ZM3 12C3 16.9706 7.02944 21 12 21C16.9706 21 21 16.9706 21 12C21 7.02944 16.9706 3 12 3C7.02944 3 3 7.02944 3 12Z" fill="black"/>
</svg>
