<svg width="16" height="16" viewBox="0 0 16 16" fill="none" xmlns="http://www.w3.org/2000/svg">
<path fill-rule="evenodd" clip-rule="evenodd" d="M7.24808 8.8324C6.65434 8.43658 6.65434 7.56412 7.24808 7.1683L10.4453 5.03682C11.1099 4.59378 12 5.07017 12 5.86887V10.1318C12 10.9305 11.1099 11.4069 10.4453 10.9639L7.24808 8.8324ZM11 10.1318L7.80278 8.00035L11 5.86887L11 10.1318Z" fill="black"/>
<path d="M5 5C5.55228 5 6 5.44772 6 6V10C6 10.5523 5.55228 11 5 11C4.44772 11 4 10.5523 4 10V6C4 5.44772 4.44772 5 5 5Z" fill="black"/>
<path fill-rule="evenodd" clip-rule="evenodd" d="M1 8C1 11.866 4.13401 15 8 15C11.866 15 15 11.866 15 8C15 4.13401 11.866 1 8 1C4.13401 1 1 4.13401 1 8ZM2 8C2 11.3137 4.68629 14 8 14C11.3137 14 14 11.3137 14 8C14 4.68629 11.3137 2 8 2C4.68629 2 2 4.68629 2 8Z" fill="black"/>
</svg>
