<svg width="32" height="32" viewBox="0 0 32 32" fill="none" xmlns="http://www.w3.org/2000/svg">
<path fill-rule="evenodd" clip-rule="evenodd" d="M12 10C11.4477 10 11 10.4477 11 11V21C11 21.5523 11.4477 22 12 22H14C14.5523 22 15 21.5523 15 21V11C15 10.4477 14.5523 10 14 10H12ZM14 11H12V21H14V11Z" fill="black"/>
<path fill-rule="evenodd" clip-rule="evenodd" d="M18 10C17.4477 10 17 10.4477 17 11V21C17 21.5523 17.4477 22 18 22H20C20.5523 22 21 21.5523 21 21V11C21 10.4477 20.5523 10 20 10H18ZM20 11H18V21H20V11Z" fill="black"/>
<path fill-rule="evenodd" clip-rule="evenodd" d="M28 16C28 22.6274 22.6274 28 16 28C9.37258 28 4 22.6274 4 16C4 9.37258 9.37258 4 16 4C22.6274 4 28 9.37258 28 16ZM27 16C27 22.0751 22.0751 27 16 27C9.92487 27 5 22.0751 5 16C5 9.92487 9.92487 5 16 5C22.0751 5 27 9.92487 27 16Z" fill="black"/>
</svg>
