<svg width="24" height="24" viewBox="0 0 24 24" fill="none" xmlns="http://www.w3.org/2000/svg">
<path fill-rule="evenodd" clip-rule="evenodd" d="M22 12C22 17.5228 17.5228 22 12 22C6.47715 22 2 17.5228 2 12C2 6.47715 6.47715 2 12 2C17.5228 2 22 6.47715 22 12ZM8 8C8 7.44772 8.44772 7 9 7H10C10.5523 7 11 7.44772 11 8V16C11 16.5523 10.5523 17 10 17H9C8.44772 17 8 16.5523 8 16V8ZM14 7C13.4477 7 13 7.44772 13 8V16C13 16.5523 13.4477 17 14 17H15C15.5523 17 16 16.5523 16 16V8C16 7.44772 15.5523 7 15 7H14Z" fill="black"/>
</svg>
