<svg width="24" height="24" viewBox="0 0 24 24" fill="none" xmlns="http://www.w3.org/2000/svg">
<g opacity="0.9">
<path fill-rule="evenodd" clip-rule="evenodd" d="M9.73244 13C9.90261 12.7058 10 12.3643 10 12C10 10.8954 9.10457 10 8 10C6.89543 10 6 10.8954 6 12C6 13.1046 6.89543 14 8 14H16C17.1046 14 18 13.1046 18 12C18 10.8954 17.1046 10 16 10C14.8954 10 14 10.8954 14 12C14 12.3643 14.0974 12.7058 14.2676 13H9.73244ZM7 12C7 11.4477 7.44772 11 8 11C8.55228 11 9 11.4477 9 12C9 12.5523 8.55228 13 8 13C7.44772 13 7 12.5523 7 12ZM16 13C16.5523 13 17 12.5523 17 12C17 11.4477 16.5523 11 16 11C15.4477 11 15 11.4477 15 12C15 12.5523 15.4477 13 16 13Z" fill="black"/>
<path fill-rule="evenodd" clip-rule="evenodd" d="M5.5 5C3.567 5 2 6.567 2 8.5V20.5956C2 21.8044 3.35652 22.5167 4.35159 21.8304L8.24181 19.1476C8.32528 19.09 8.42428 19.0592 8.52567 19.0592H18.5C20.433 19.0592 22 17.4922 22 15.5592V8.5C22 6.567 20.433 5 18.5 5H5.5ZM3 8.5C3 7.11929 4.11929 6 5.5 6H18.5C19.8807 6 21 7.11929 21 8.5V15.5592C21 16.9399 19.8807 18.0592 18.5 18.0592H8.52567C8.22149 18.0592 7.92449 18.1517 7.67408 18.3243L3.78386 21.0072C3.45217 21.236 3 20.9985 3 20.5956V8.5Z" fill="black"/>
</g>
</svg>
