<svg width="24" height="24" viewBox="0 0 24 24" fill="none" xmlns="http://www.w3.org/2000/svg">
<g opacity="0.9">
<path d="M7 12C7 11.4477 7.44772 11 8 11C8.55228 11 9 11.4477 9 12C9 12.5523 8.55228 13 8 13C7.44772 13 7 12.5523 7 12Z" fill="black"/>
<path d="M17 12C17 12.5523 16.5523 13 16 13C15.4477 13 15 12.5523 15 12C15 11.4477 15.4477 11 16 11C16.5523 11 17 11.4477 17 12Z" fill="black"/>
<path fill-rule="evenodd" clip-rule="evenodd" d="M2 8.5C2 6.567 3.567 5 5.5 5H18.5C20.433 5 22 6.567 22 8.5V15.5592C22 17.4922 20.433 19.0592 18.5 19.0592H8.52567C8.42428 19.0592 8.32528 19.09 8.24181 19.1476L4.35159 21.8304C3.35652 22.5167 2 21.8044 2 20.5956V8.5ZM10 12C10 12.3643 9.90261 12.7058 9.73244 13H14.2676C14.0974 12.7058 14 12.3643 14 12C14 10.8954 14.8954 10 16 10C17.1046 10 18 10.8954 18 12C18 13.1046 17.1046 14 16 14H8C6.89543 14 6 13.1046 6 12C6 10.8954 6.89543 10 8 10C9.10457 10 10 10.8954 10 12Z" fill="black"/>
</g>
</svg>
