<svg width="32" height="32" viewBox="0 0 32 32" fill="none" xmlns="http://www.w3.org/2000/svg">
<g opacity="0.9">
<path fill-rule="evenodd" clip-rule="evenodd" d="M13.5002 17C13.814 16.5822 14 16.0628 14 15.5C14 14.1193 12.8807 13 11.5 13C10.1193 13 9 14.1193 9 15.5C9 16.8807 10.1193 18 11.5 18H20.5C21.8807 18 23 16.8807 23 15.5C23 14.1193 21.8807 13 20.5 13C19.1193 13 18 14.1193 18 15.5C18 16.0628 18.186 16.5822 18.4998 17H13.5002ZM10 15.5C10 14.6716 10.6716 14 11.5 14C12.3284 14 13 14.6716 13 15.5C13 16.3284 12.3284 17 11.5 17C10.6716 17 10 16.3284 10 15.5ZM20.5 17C21.3284 17 22 16.3284 22 15.5C22 14.6716 21.3284 14 20.5 14C19.6716 14 19 14.6716 19 15.5C19 16.3284 19.6716 17 20.5 17Z" fill="black"/>
<path fill-rule="evenodd" clip-rule="evenodd" d="M7.5 7C5.567 7 4 8.567 4 10.5V25.8835C4 27.0527 5.27834 27.7724 6.27799 27.166L11.4969 24H24.5C26.433 24 28 22.433 28 20.5V10.5C28 8.567 26.433 7 24.5 7H7.5ZM5 10.5C5 9.11929 6.11929 8 7.5 8H24.5C25.8807 8 27 9.11929 27 10.5V20.5C27 21.8807 25.8807 23 24.5 23H11.2173L5.75933 26.311C5.42611 26.5131 5 26.2732 5 25.8835V10.5Z" fill="black"/>
</g>
</svg>
