<svg width="16" height="16" viewBox="0 0 16 16" fill="none" xmlns="http://www.w3.org/2000/svg">
<path fill-rule="evenodd" clip-rule="evenodd" d="M13 4H3C2.44771 4 2 4.44771 2 5V13.9073L4.15995 12.3704C4.49858 12.1295 4.90386 12 5.31946 12H13C13.5523 12 14 11.5523 14 11V5C14 4.44772 13.5523 4 13 4ZM3 3C1.89543 3 1 3.89543 1 5V14.8767C1 15.283 1.45885 15.5197 1.78988 15.2841L4.73971 13.1852C4.90902 13.0647 5.11166 13 5.31946 13H13C14.1046 13 15 12.1046 15 11V5C15 3.89543 14.1046 3 13 3H3Z" fill="black"/>
<path d="M7 8C7 8.55228 6.55228 9 6 9C5.44772 9 5 8.55228 5 8C5 7.44772 5.44772 7 6 7C6.55228 7 7 7.44772 7 8Z" fill="black"/>
<path d="M11 6C11 6.55228 10.5523 7 10 7C9.44771 7 9 6.55228 9 6C9 5.44772 9.44771 5 10 5C10.5523 5 11 5.44772 11 6Z" fill="black"/>
<path d="M11 10C11 10.5523 10.5523 11 10 11C9.44771 11 9 10.5523 9 10C9 9.44772 9.44771 9 10 9C10.5523 9 11 9.44772 11 10Z" fill="black"/>
<path fill-rule="evenodd" clip-rule="evenodd" d="M7.11803 8L10.2236 6.44721L9.77639 5.55279L5.77639 7.55279C5.607 7.63748 5.5 7.81061 5.5 8C5.5 8.18939 5.607 8.36252 5.77639 8.44721L9.77639 10.4472L10.2236 9.55279L7.11803 8Z" fill="black"/>
</svg>
