<svg width="24" height="24" viewBox="0 0 24 24" fill="none" xmlns="http://www.w3.org/2000/svg">
<g opacity="0.9">
<path fill-rule="evenodd" clip-rule="evenodd" d="M4.5 4C3.11929 4 2 5.11929 2 6.5V16.5C2 17.8807 3.11929 19 4.5 19H19.5C20.8807 19 22 17.8807 22 16.5V6.5C22 5.11929 20.8807 4 19.5 4H4.5ZM12.5 8C11.6716 8 11 8.67157 11 9.5V16.5C11 16.7761 11.2239 17 11.5 17H13.5C13.7761 17 14 16.7761 14 16.5V9.5C14 8.67157 13.3284 8 12.5 8ZM7.5 10C6.67157 10 6 10.6716 6 11.5V16.5C6 16.7761 6.22386 17 6.5 17H8.5C8.77614 17 9 16.7761 9 16.5V11.5C9 10.6716 8.32843 10 7.5 10ZM17.5 12C16.6716 12 16 12.6716 16 13.5V16.5C16 16.7761 16.2239 17 16.5 17H18.5C18.7761 17 19 16.7761 19 16.5V13.5C19 12.6716 18.3284 12 17.5 12Z" fill="black"/>
<path d="M8 20C7.72386 20 7.5 20.2239 7.5 20.5C7.5 20.7761 7.72386 21 8 21H16C16.2761 21 16.5 20.7761 16.5 20.5C16.5 20.2239 16.2761 20 16 20H8Z" fill="black"/>
</g>
</svg>
