<svg width="16" height="16" viewBox="0 0 16 16" fill="none" xmlns="http://www.w3.org/2000/svg">
<path d="M4 7C3.44772 7 3 7.44772 3 8V10.5C3 10.7761 3.22386 11 3.5 11H4.5C4.77614 11 5 10.7761 5 10.5V8C5 7.44772 4.55228 7 4 7Z" fill="black"/>
<path d="M7 6C7 5.44772 7.44772 5 8 5C8.55228 5 9 5.44772 9 6V10.5C9 10.7761 8.77614 11 8.5 11H7.5C7.22386 11 7 10.7761 7 10.5V6Z" fill="black"/>
<path d="M12 8C11.4477 8 11 8.44772 11 9V10.5C11 10.7761 11.2239 11 11.5 11H12.5C12.7761 11 13 10.7761 13 10.5V9C13 8.44772 12.5523 8 12 8Z" fill="black"/>
<path fill-rule="evenodd" clip-rule="evenodd" d="M0 4.5C0 3.11929 1.11929 2 2.5 2H13.5C14.8807 2 16 3.11929 16 4.5V11.5C16 12.8807 14.8807 14 13.5 14H2.5C1.11929 14 0 12.8807 0 11.5V4.5ZM2.5 3C1.67157 3 1 3.67157 1 4.5V11.5C1 12.3284 1.67157 13 2.5 13H13.5C14.3284 13 15 12.3284 15 11.5V4.5C15 3.67157 14.3284 3 13.5 3H2.5Z" fill="black"/>
<path d="M5 15.5C5 15.2239 5.22386 15 5.5 15H10.5C10.7761 15 11 15.2239 11 15.5C11 15.7761 10.7761 16 10.5 16H5.5C5.22386 16 5 15.7761 5 15.5Z" fill="black"/>
</svg>
