<svg width="24" height="24" viewBox="0 0 24 24" fill="none" xmlns="http://www.w3.org/2000/svg">
<g opacity="0.9">
<path fill-rule="evenodd" clip-rule="evenodd" d="M11.6464 2.64645C11.8417 2.45118 12.1583 2.45118 12.3536 2.64645L19.984 10.2769C20.2818 10.101 20.6291 10 21 10C22.1046 10 23 10.8954 23 12C23 13.1046 22.1046 14 21 14C19.8954 14 19 13.1046 19 12C19 11.6291 19.101 11.2818 19.2769 10.984L12 3.70711L8.35355 7.35355C8.15829 7.54882 7.84171 7.54882 7.64645 7.35355C7.45118 7.15829 7.45118 6.84171 7.64645 6.64645L11.6464 2.64645ZM21 11C20.4477 11 20 11.4477 20 12C20 12.5523 20.4477 13 21 13C21.5523 13 22 12.5523 22 12C22 11.4477 21.5523 11 21 11Z" fill="black"/>
<path fill-rule="evenodd" clip-rule="evenodd" d="M1 12C1 10.8954 1.89543 10 3 10C4.10457 10 5 10.8954 5 12C5 12.3709 4.89904 12.7182 4.72309 13.016L12 20.2929L16.1464 16.1464C16.3417 15.9512 16.6583 15.9512 16.8536 16.1464C17.0488 16.3417 17.0488 16.6583 16.8536 16.8536L12.3536 21.3536C12.1583 21.5488 11.8417 21.5488 11.6464 21.3536L4.01598 13.7231C3.71823 13.899 3.3709 14 3 14C1.89543 14 1 13.1046 1 12ZM2 12C2 11.4477 2.44772 11 3 11C3.55229 11 4 11.4477 4 12C4 12.5523 3.55229 13 3 13C2.44772 13 2 12.5523 2 12Z" fill="black"/>
<path fill-rule="evenodd" clip-rule="evenodd" d="M10 14.6295V9.3705C10 8.98461 10.4186 8.74417 10.7519 8.93861L15.2596 11.5681C15.5904 11.761 15.5904 12.2389 15.2596 12.4319L10.7519 15.0614C10.4186 15.2558 10 15.0154 10 14.6295ZM11 13.7589L14.0154 12L11 10.241V13.7589Z" fill="black"/>
</g>
</svg>
