<svg width="16" height="16" viewBox="0 0 16 16" fill="none" xmlns="http://www.w3.org/2000/svg">
<path fill-rule="evenodd" clip-rule="evenodd" d="M11 6C11 6.8003 10.6866 7.5274 10.1759 8.0653C10.6215 8.15256 11.0372 8.32439 11.405 8.56343C11.6365 8.7139 11.7023 9.02359 11.5518 9.25513C11.4013 9.48668 11.0916 9.5524 10.8601 9.40193C10.4689 9.14771 10.0025 9 9.5 9H6.5C5.11929 9 4 10.1193 4 11.5V13.5C4 13.7761 3.77614 14 3.5 14C3.22386 14 3 13.7761 3 13.5V11.5C3 9.79825 4.2145 8.38017 5.82402 8.06523C5.31334 7.52733 5 6.80026 5 6C5 4.34315 6.34315 3 8 3C9.65685 3 11 4.34315 11 6ZM8 8C9.10457 8 10 7.10457 10 6C10 4.89543 9.10457 4 8 4C6.89543 4 6 4.89543 6 6C6 7.10457 6.89543 8 8 8Z" fill="black"/>
<path fill-rule="evenodd" clip-rule="evenodd" d="M13.043 11C14.1475 11 15.043 11.8954 15.043 13C15.043 14.1046 14.1475 15 13.043 15C12.3021 15 11.6563 14.5974 11.3107 14H10.911L10.7402 14.0854C10.4587 14.2262 10.1273 14.2262 9.84576 14.0854L9.79297 14.059L9.74018 14.0854C9.45865 14.2262 9.12728 14.2262 8.84576 14.0854L8.67493 14H8.50008C8.23486 14 7.9805 13.8946 7.79297 13.7071C7.40244 13.3166 7.40245 12.6834 7.79297 12.2929C7.98051 12.1054 8.23486 12 8.50008 12H11.3107C11.6563 11.4026 12.3021 11 13.043 11ZM14.043 13C14.043 12.4477 13.5953 12 13.043 12C12.6066 12 12.2344 12.2797 12.0981 12.6712C12.0368 12.8476 11.8847 12.9704 11.7088 13C11.8847 13.0296 12.0368 13.1524 12.0981 13.3288C12.2344 13.7203 12.6066 14 13.043 14C13.5953 14 14.043 13.5523 14.043 13ZM10.911 13H8.67493C8.83018 13 8.98329 13.0361 9.12215 13.1056L9.29297 13.191L9.34576 13.1646C9.62728 13.0238 9.95865 13.0238 10.2402 13.1646L10.293 13.191L10.4638 13.1056C10.6026 13.0361 10.7558 13 10.911 13Z" fill="black"/>
</svg>
