<svg width="32" height="32" viewBox="0 0 32 32" fill="none" xmlns="http://www.w3.org/2000/svg">
<path fill-rule="evenodd" clip-rule="evenodd" d="M21 12C21 13.6356 20.2147 15.0878 19.0005 16H19.5C21.8436 16 23.897 17.2406 25.04 19.0986C25.1847 19.3338 25.1113 19.6418 24.8761 19.7865C24.6409 19.9311 24.3329 19.8578 24.1883 19.6226C23.2196 18.048 21.482 17 19.5 17H12.5C9.46243 17 7 19.4624 7 22.5V26.5C7 26.7761 6.77614 27 6.5 27C6.22386 27 6 26.7761 6 26.5V22.5C6 18.9101 8.91015 16 12.5 16H12.9995C11.7853 15.0878 11 13.6356 11 12C11 9.23858 13.2386 7 16 7C18.7614 7 21 9.23858 21 12ZM16 8C13.7909 8 12 9.79086 12 12C12 14.2091 13.7909 16 16 16C18.2091 16 20 14.2091 20 12C20 9.79086 18.2091 8 16 8Z" fill="black"/>
<path fill-rule="evenodd" clip-rule="evenodd" d="M24 22C25.6569 22 27 23.3431 27 25C27 26.6569 25.6569 28 24 28C22.8213 28 21.8024 27.3205 21.3118 26.3329H20.368L19.8639 26.585C19.5824 26.7258 19.251 26.7258 18.9695 26.585L18.5833 26.3919L18.1972 26.585C17.9157 26.7258 17.5843 26.7258 17.3028 26.585L16.7986 26.3329L16.2904 26.3329C16.0252 26.3329 15.7709 26.2276 15.5833 26.04L15.25 25.7067C14.8595 25.3162 14.8595 24.683 15.25 24.2925L15.5833 23.9592C15.7709 23.7716 16.0252 23.6663 16.2904 23.6663H21.3122C21.8029 22.6792 22.8216 22 24 22ZM26 25C26 23.8954 25.1046 23 24 23C23.1301 23 22.3887 23.5557 22.1138 24.333C22.0431 24.5327 21.8543 24.6663 21.6424 24.6663H16.2904L15.9571 24.9996L16.2904 25.3329H16.7986C16.9539 25.3329 17.107 25.3691 17.2458 25.4385L17.75 25.6906L18.1361 25.4975C18.4176 25.3568 18.749 25.3568 19.0305 25.4975L19.4167 25.6906L19.9208 25.4385C20.0597 25.3691 20.2128 25.3329 20.368 25.3329H21.6421C21.8541 25.3329 22.043 25.4665 22.1136 25.6664C22.3883 26.444 23.1298 27 24 27C25.1046 27 26 26.1046 26 25Z" fill="black"/>
</svg>
