<svg width="16" height="16" viewBox="0 0 16 16" fill="none" xmlns="http://www.w3.org/2000/svg">
<g opacity="0.9">
<path d="M10.176 8.06523C10.6867 7.52733 11 6.80026 11 6C11 4.34315 9.65685 3 8 3C6.34315 3 5 4.34315 5 6C5 6.80026 5.31334 7.52733 5.82402 8.06523C4.2145 8.38017 3 9.79825 3 11.5V13.5C3 13.7761 3.22386 14 3.5 14H7.95913C7.76978 13.4921 7.87925 12.8982 8.28756 12.4898L8.50184 12.2756C8.76975 12.0077 9.13312 11.8571 9.512 11.8571H11.6104C11.959 11.4576 12.4331 11.1694 12.9719 11.0547C12.7816 9.55553 11.6428 8.35225 10.176 8.06523Z" fill="black"/>
<path d="M14.9947 13.5C14.9947 12.6716 14.3231 12 13.4947 12C12.8963 12 12.3798 12.3504 12.139 12.8571H9.512C9.39833 12.8571 9.28932 12.9023 9.20895 12.9827L8.99467 13.197C8.8273 13.3643 8.8273 13.6357 8.99467 13.803L9.20895 14.0173C9.28932 14.0977 9.39833 14.1429 9.512 14.1429H9.80122L10.0887 14.2866C10.2094 14.3469 10.3514 14.3469 10.472 14.2866L10.709 14.1681L10.9459 14.2866C11.0665 14.3469 11.2085 14.3469 11.3292 14.2866L11.6167 14.1429H12.139C12.3798 14.6496 12.8963 15 13.4947 15C14.3231 15 14.9947 14.3284 14.9947 13.5Z" fill="black"/>
</g>
</svg>
