<svg width="32" height="32" viewBox="0 0 32 32" fill="none" xmlns="http://www.w3.org/2000/svg">
<g opacity="0.9">
<path d="M15.7104 19.8356C15.3628 19.8356 15.0789 19.55 15.1127 19.204C15.1625 18.694 15.2633 18.2644 15.415 17.9151C15.6258 17.4299 16.0791 16.8605 16.7747 16.2069C17.4704 15.5465 17.9166 15.0815 18.1133 14.812C18.3171 14.5357 18.4717 14.2359 18.5771 13.9124C18.6895 13.5822 18.7457 13.2082 18.7457 12.7904C18.7457 11.9481 18.5103 11.2877 18.0395 10.8093C17.5758 10.3241 16.9258 10.0815 16.0896 10.0815C15.2464 10.0815 14.5648 10.314 14.0448 10.779C13.6729 11.1112 13.4321 11.5302 13.3224 12.0361C13.2498 12.3711 12.9796 12.6489 12.6367 12.6489C12.2864 12.6489 11.9974 12.3607 12.0532 12.0149C12.1844 11.2009 12.5566 10.5295 13.17 10.0007C13.9359 9.33356 14.9091 9 16.0896 9C17.2982 9 18.2503 9.3403 18.946 10.0209C19.6487 10.6947 20 11.6112 20 12.7702C20 13.498 19.8278 14.1819 19.4835 14.8221C19.1392 15.4555 18.4857 16.1968 17.5231 17.0458C16.8695 17.5727 16.4849 18.2959 16.3693 19.2153C16.3265 19.556 16.0537 19.8356 15.7104 19.8356ZM14.9091 23.2116C14.9091 22.9825 14.9829 22.7904 15.1304 22.6354C15.285 22.4737 15.4993 22.3929 15.7734 22.3929C16.0404 22.3929 16.2512 22.4737 16.4058 22.6354C16.5674 22.7904 16.6482 22.9825 16.6482 23.2116C16.6482 23.434 16.5674 23.6226 16.4058 23.7776C16.2512 23.9259 16.0404 24 15.7734 24C15.4993 24 15.285 23.9259 15.1304 23.7776C14.9829 23.6226 14.9091 23.434 14.9091 23.2116Z" fill="black"/>
<path fill-rule="evenodd" clip-rule="evenodd" d="M16 5C9.92487 5 5 9.92487 5 16C5 22.0751 9.92487 27 16 27C22.0751 27 27 22.0751 27 16C27 9.92487 22.0751 5 16 5ZM4 16C4 9.37258 9.37258 4 16 4C22.6274 4 28 9.37258 28 16C28 22.6274 22.6274 28 16 28C9.37258 28 4 22.6274 4 16Z" fill="black"/>
</g>
</svg>
