<svg width="12" height="12" viewBox="0 0 12 12" fill="none" xmlns="http://www.w3.org/2000/svg">
<g opacity="0.9">
<path d="M6.5 8.5C6.5 8.77614 6.27614 9 6 9C5.72386 9 5.5 8.77614 5.5 8.5C5.5 8.22386 5.72386 8 6 8C6.27614 8 6.5 8.22386 6.5 8.5Z" fill="black"/>
<path d="M5.09646 4.57041C5.25777 4.23209 5.60221 4 5.99987 4C6.55216 4 6.99987 4.44772 6.99987 5C6.99987 5.23705 6.93809 5.3578 6.8755 5.43583C6.80006 5.52986 6.68759 5.60735 6.50652 5.70823C6.48384 5.72087 6.45861 5.73455 6.43145 5.74928C6.2788 5.83206 6.06498 5.94802 5.89921 6.09767C5.66699 6.3073 5.49987 6.59866 5.49987 7C5.49987 7.27614 5.72373 7.5 5.99987 7.5C6.27601 7.5 6.49987 7.27614 6.49987 7C6.49987 6.91588 6.52026 6.88422 6.56929 6.83995C6.63923 6.77682 6.7271 6.72848 6.87851 6.6452C6.91322 6.6261 6.95128 6.60517 6.99323 6.5818C7.18716 6.47375 7.44969 6.31814 7.6555 6.0616C7.87416 5.78905 7.99987 5.44176 7.99987 5C7.99987 3.89543 7.10444 3 5.99987 3C5.2023 3 4.51477 3.46688 4.19381 4.14004C4.07497 4.3893 4.18069 4.68771 4.42995 4.80655C4.67921 4.9254 4.97762 4.81967 5.09646 4.57041Z" fill="black"/>
<path fill-rule="evenodd" clip-rule="evenodd" d="M1 6C1 3.23858 3.23858 1 6 1C8.76142 1 11 3.23858 11 6C11 8.76142 8.76142 11 6 11C3.23858 11 1 8.76142 1 6ZM6 2C3.79086 2 2 3.79086 2 6C2 8.20914 3.79086 10 6 10C8.20914 10 10 8.20914 10 6C10 3.79086 8.20914 2 6 2Z" fill="black"/>
</g>
</svg>
