<svg width="16" height="16" viewBox="0 0 16 16" fill="none" xmlns="http://www.w3.org/2000/svg">
<path opacity="0.9" fill-rule="evenodd" clip-rule="evenodd" d="M7 2C6.44772 2 6 2.44772 6 3V4C6 4.55228 6.44772 5 7 5V7H4.5C3.11929 7 2 8.11929 2 9.5V10C1.44772 10 1 10.4477 1 11V12C1 12.5523 1.44772 13 2 13H3C3.55228 13 4 12.5523 4 12V11C4 10.4477 3.55228 10 3 10V9.5C3 8.67157 3.67157 8 4.5 8H7V10C6.44772 10 6 10.4477 6 11V12C6 12.5523 6.44772 13 7 13H8C8.55228 13 9 12.5523 9 12V11C9 10.4477 8.55228 10 8 10V8H10.5C11.3284 8 12 8.67157 12 9.5V10C11.4477 10 11 10.4477 11 11V12C11 12.5523 11.4477 13 12 13H13C13.5523 13 14 12.5523 14 12V11C14 10.4477 13.5523 10 13 10V9.5C13 8.11929 11.8807 7 10.5 7H8V5C8.55228 5 9 4.55228 9 4V3C9 2.44772 8.55228 2 8 2H7ZM7 3H8V4H7V3ZM2 11H3V12H2V11ZM8 11H7V12H8V11ZM12 11H13V12H12V11Z" fill="black"/>
</svg>
