<svg width="32" height="32" viewBox="0 0 32 32" fill="none" xmlns="http://www.w3.org/2000/svg">
<path opacity="0.9" fill-rule="evenodd" clip-rule="evenodd" d="M14.5 5C13.6716 5 13 5.67157 13 6.5V8.5C13 9.32843 13.6716 10 14.5 10H15V15H8.5C7.11929 15 6 16.1193 6 17.5V21H5.5C4.67157 21 4 21.6716 4 22.5V24.5C4 25.3284 4.67157 26 5.5 26H7.5C8.32843 26 9 25.3284 9 24.5V22.5C9 21.6716 8.32843 21 7.5 21H7V17.5C7 16.6716 7.67157 16 8.5 16H15V21H14.5C13.6716 21 13 21.6716 13 22.5V24.5C13 25.3284 13.6716 26 14.5 26H16.5C17.3284 26 18 25.3284 18 24.5V22.5C18 21.6716 17.3284 21 16.5 21H16V16H22.5C23.3284 16 24 16.6716 24 17.5V21H23.5C22.6716 21 22 21.6716 22 22.5V24.5C22 25.3284 22.6716 26 23.5 26H25.5C26.3284 26 27 25.3284 27 24.5V22.5C27 21.6716 26.3284 21 25.5 21H25V17.5C25 16.1193 23.8807 15 22.5 15H16V10H16.5C17.3284 10 18 9.32843 18 8.5V6.5C18 5.67157 17.3284 5 16.5 5H14.5ZM14 6.5C14 6.22386 14.2239 6 14.5 6H16.5C16.7761 6 17 6.22386 17 6.5V8.5C17 8.77614 16.7761 9 16.5 9H14.5C14.2239 9 14 8.77614 14 8.5V6.5ZM5 22.5C5 22.2239 5.22386 22 5.5 22H7.5C7.77614 22 8 22.2239 8 22.5V24.5C8 24.7761 7.77614 25 7.5 25H5.5C5.22386 25 5 24.7761 5 24.5V22.5ZM14.5 22C14.2239 22 14 22.2239 14 22.5V24.5C14 24.7761 14.2239 25 14.5 25H16.5C16.7761 25 17 24.7761 17 24.5V22.5C17 22.2239 16.7761 22 16.5 22H14.5ZM23 22.5C23 22.2239 23.2239 22 23.5 22H25.5C25.7761 22 26 22.2239 26 22.5V24.5C26 24.7761 25.7761 25 25.5 25H23.5C23.2239 25 23 24.7761 23 24.5V22.5Z" fill="black"/>
</svg>
