<svg width="24" height="24" viewBox="0 0 24 24" fill="none" xmlns="http://www.w3.org/2000/svg">
<path fill-rule="evenodd" clip-rule="evenodd" d="M4.39169 5C4.39169 2.79086 6.18255 1 8.39169 1H16.3917C18.6008 1 20.3917 2.79086 20.3917 5C20.3917 7.20914 18.6008 9 16.3917 9H8.39169C7.91568 9 7.45811 8.91664 7.03345 8.76335C7.00903 8.77116 6.97643 8.78247 6.93312 8.79858C6.89585 8.81244 6.85178 8.8295 6.80217 8.84871C6.65936 8.90401 6.47062 8.9771 6.26581 9.04281C5.691 9.22722 4.89691 9.38889 3.91397 9.21717C3.69454 9.17884 3.52693 8.99997 3.50293 8.77851C3.47893 8.55705 3.60432 8.34642 3.81044 8.26196C4.33379 8.04753 4.62541 7.71767 4.76964 7.42856C4.84309 7.28131 4.87694 7.14749 4.88602 7.04649C4.89381 6.95973 4.88179 6.9219 4.88219 6.92059C4.56938 6.35005 4.39169 5.69503 4.39169 5ZM8.39169 2C6.73484 2 5.39169 3.34315 5.39169 5C5.39169 5.52528 5.52626 6.01763 5.76243 6.44599C5.88002 6.65928 5.90206 6.91271 5.882 7.13597C5.86091 7.37082 5.78913 7.62506 5.66448 7.87494C5.60632 7.99153 5.53631 8.10788 5.45381 8.22165C5.63843 8.18604 5.80725 8.13972 5.96033 8.09061C6.13482 8.03463 6.27804 7.97915 6.41408 7.92645C6.47156 7.90418 6.52777 7.88241 6.58452 7.8613C6.67067 7.82926 6.77088 7.79409 6.86763 7.77298C6.94938 7.75514 7.11996 7.72484 7.29852 7.79475C7.63659 7.9271 8.00503 8 8.39169 8H16.3917C18.0485 8 19.3917 6.65685 19.3917 5C19.3917 3.34315 18.0485 2 16.3917 2H8.39169Z" fill="black"/>
<path d="M13.1458 5.10208C13.1458 5.51629 12.81 5.85208 12.3958 5.85208C11.9816 5.85208 11.6458 5.51629 11.6458 5.10208C11.6458 4.68787 11.9816 4.35208 12.3958 4.35208C12.81 4.35208 13.1458 4.68787 13.1458 5.10208Z" fill="black"/>
<path d="M10.1431 5.10208C10.1431 5.51629 9.80728 5.85208 9.39307 5.85208C8.97885 5.85208 8.64307 5.51629 8.64307 5.10208C8.64307 4.68787 8.97885 4.35208 9.39307 4.35208C9.80728 4.35208 10.1431 4.68787 10.1431 5.10208Z" fill="black"/>
<path d="M16.1488 5.10208C16.1488 5.51629 15.813 5.85208 15.3988 5.85208C14.9846 5.85208 14.6488 5.51629 14.6488 5.10208C14.6488 4.68787 14.9846 4.35208 15.3988 4.35208C15.813 4.35208 16.1488 4.68787 16.1488 5.10208Z" fill="black"/>
<path fill-rule="evenodd" clip-rule="evenodd" d="M11.8917 12.1C10.2349 12.1 8.89172 13.4431 8.89172 15.1C8.89172 16.7568 10.2349 18.1 11.8917 18.1C13.5486 18.1 14.8917 16.7568 14.8917 15.1C14.8917 13.4431 13.5486 12.1 11.8917 12.1ZM7.89172 15.1C7.89172 12.8908 9.68258 11.1 11.8917 11.1C14.1009 11.1 15.8917 12.8908 15.8917 15.1C15.8917 17.3091 14.1009 19.1 11.8917 19.1C9.68258 19.1 7.89172 17.3091 7.89172 15.1Z" fill="black"/>
<path fill-rule="evenodd" clip-rule="evenodd" d="M4.97997 22.2945C6.00582 20.0563 8.26651 18.5 10.8917 18.5H12.8917C15.517 18.5 17.7777 20.0563 18.8035 22.2945C18.9186 22.5455 18.8083 22.8423 18.5573 22.9573C18.3063 23.0724 18.0095 22.9622 17.8944 22.7111C17.0255 20.8152 15.1117 19.5 12.8917 19.5H10.8917C8.6718 19.5 6.758 20.8152 5.88903 22.7111C5.77397 22.9622 5.4772 23.0724 5.22617 22.9573C4.97514 22.8423 4.86491 22.5455 4.97997 22.2945Z" fill="black"/>
</svg>
