<svg width="32" height="32" viewBox="0 0 32 32" fill="none" xmlns="http://www.w3.org/2000/svg">
<path opacity="0.9" fill-rule="evenodd" clip-rule="evenodd" d="M5 7C4.44772 7 4 7.44772 4 8C4 8.55228 4.44772 9 5 9H27C27.5523 9 28 8.55228 28 8C28 7.44772 27.5523 7 27 7H5ZM5 12C4.44772 12 4 12.4477 4 13C4 13.5523 4.44772 14 5 14H27C27.5523 14 28 13.5523 28 13C28 12.4477 27.5523 12 27 12H5ZM4 18C4 17.4477 4.44772 17 5 17H27C27.5523 17 28 17.4477 28 18C28 18.5523 27.5523 19 27 19H5C4.44772 19 4 18.5523 4 18ZM5 22C4.44772 22 4 22.4477 4 23C4 23.5523 4.44772 24 5 24H18.5C19.0523 24 19.5 23.5523 19.5 23C19.5 22.4477 19.0523 22 18.5 22H5Z" fill="black"/>
</svg>
