<svg width="32" height="32" viewBox="0 0 32 32" fill="none" xmlns="http://www.w3.org/2000/svg">
<g opacity="0.9">
<path d="M25.7438 6.14916C25.5501 6.3459 25.5525 6.66248 25.7492 6.85624L29.2798 10.3333H28.3001C26.7549 10.3333 24.4471 10.7858 22.5109 12.1588C20.5487 13.5501 19.0001 15.8671 19.0001 19.5C19.0001 19.7761 19.2239 20 19.5001 20C19.7762 20 20.0001 19.7761 20.0001 19.5C20.0001 16.1995 21.3848 14.1832 23.0893 12.9745C24.8197 11.7475 26.9119 11.3333 28.3001 11.3333H29.2798L25.7492 14.8104C25.5525 15.0042 25.5501 15.3208 25.7438 15.5175C25.9376 15.7143 26.2542 15.7167 26.4509 15.5229L31.2126 10.8333L26.4509 6.14376C26.2542 5.94999 25.9376 5.95241 25.7438 6.14916Z" fill="black"/>
<path d="M11.291 9C10.9099 9 10.5431 9.14505 10.2651 9.40569L4.3984 14.9057C3.76629 15.4983 3.76629 16.5017 4.39841 17.0943L10.2651 22.5943C10.5431 22.8549 10.9099 23 11.291 23H26.5001C27.3285 23 28.0001 22.3284 28.0001 21.5V16.5C28.0001 16.2239 28.2239 16 28.5001 16C28.7762 16 29.0001 16.2239 29.0001 16.5V21.5C29.0001 22.8807 27.8808 24 26.5001 24H11.291C10.6558 24 10.0445 23.7582 9.58113 23.3238L3.71446 17.8238C2.66093 16.8362 2.66093 15.1638 3.71446 14.1762L9.58113 8.67616C10.0445 8.24175 10.6558 8 11.291 8H23.5001C23.7762 8 24.0001 8.22386 24.0001 8.5C24.0001 8.77614 23.7762 9 23.5001 9H11.291Z" fill="black"/>
<path fill-rule="evenodd" clip-rule="evenodd" d="M11.0001 16C11.0001 17.1046 10.1047 18 9.00009 18C7.89552 18 7.00009 17.1046 7.00009 16C7.00009 14.8954 7.89552 14 9.00009 14C10.1047 14 11.0001 14.8954 11.0001 16ZM10.0001 16C10.0001 16.5523 9.55238 17 9.00009 17C8.44781 17 8.00009 16.5523 8.00009 16C8.00009 15.4477 8.44781 15 9.00009 15C9.55238 15 10.0001 15.4477 10.0001 16Z" fill="black"/>
</g>
</svg>
