<svg width="32" height="32" viewBox="0 0 32 32" fill="none" xmlns="http://www.w3.org/2000/svg">
<g opacity="0.9">
<path d="M25.3983 7.21248C25.0048 6.82495 25 6.19181 25.3875 5.79831C25.7751 5.40482 26.4082 5.39998 26.8017 5.78752L31.9252 10.8333L26.8017 15.8792C26.4082 16.2667 25.7751 16.2618 25.3875 15.8684C25 15.4749 25.0048 14.8417 25.3983 14.4542L28.055 11.8378C26.7514 11.8839 24.9074 12.2983 23.3785 13.3824C21.8028 14.4997 20.5 16.3657 20.5 19.5C20.5 20.0523 20.0523 20.5 19.5 20.5C18.9477 20.5 18.5 20.0523 18.5 19.5C18.5 15.7009 20.1306 13.2336 22.2216 11.7509C24.1637 10.3738 26.4472 9.88046 28.0628 9.8366L25.3983 7.21248Z" fill="black"/>
<path fill-rule="evenodd" clip-rule="evenodd" d="M25.8919 9.1021L24.7728 8H11.0263C10.3754 8 9.75024 8.25382 9.28359 8.70751L3.62644 14.2075C2.61671 15.1892 2.61671 16.8108 3.62645 17.7925L9.28359 23.2925C9.75024 23.7462 10.3754 24 11.0263 24H26.5C27.8807 24 29 22.8807 29 21.5V15.1177L27.5034 16.5916C26.7164 17.3667 25.4501 17.357 24.6751 16.57C23.9021 15.7852 23.9096 14.5237 24.6902 13.748C24.4391 13.881 24.1932 14.0306 23.9569 14.1981C22.6388 15.1327 21.5 16.6981 21.5 19.5C21.5 20.6046 20.6046 21.5 19.5 21.5C18.3955 21.5 17.5 20.6046 17.5 19.5C17.5 15.3685 19.2945 12.6006 21.6432 10.9352C23.0094 9.96645 24.5185 9.3984 25.8919 9.1021ZM9.00002 18C10.1046 18 11 17.1046 11 16C11 14.8954 10.1046 14 9.00002 14C7.89545 14 7.00002 14.8954 7.00002 16C7.00002 17.1046 7.89545 18 9.00002 18Z" fill="black"/>
</g>
</svg>
