<svg width="16" height="16" viewBox="0 0 16 16" fill="none" xmlns="http://www.w3.org/2000/svg">
<g opacity="0.9">
<path d="M12.1464 3.85355C11.9512 3.65829 11.9512 3.34171 12.1464 3.14645C12.3417 2.95118 12.6583 2.95118 12.8536 3.14645L15.2071 5.5L12.8536 7.85355C12.6583 8.04882 12.3417 8.04882 12.1464 7.85355C11.9512 7.65829 11.9512 7.34171 12.1464 7.14645L13.2854 6.00745C12.7098 6.04617 11.938 6.24077 11.2922 6.70577C10.5876 7.21307 10 8.06296 10 9.5C10 9.77614 9.77614 10 9.5 10C9.22386 10 9 9.77614 9 9.5C9 7.73704 9.74577 6.58693 10.7078 5.89423C11.5632 5.27835 12.5624 5.04154 13.298 5.00511L12.1464 3.85355Z" fill="black"/>
<path d="M13.5607 8.56066L15 7.12132V9.7C15 10.9703 13.9703 12 12.7 12H5.32812C4.7414 12 4.17211 11.7894 3.73604 11.404L1.75598 9.65399C0.748008 8.76314 0.748008 7.23686 1.75598 6.34601L3.73604 4.59601C4.17211 4.2106 4.7414 4 5.32812 4H11.0854C11.1391 4.15227 11.2181 4.29759 11.3225 4.42944C10.918 4.59041 10.5104 4.80414 10.1235 5.0827C8.90401 5.96077 8 7.41107 8 9.5C8 10.3284 8.67158 11 9.5 11C10.3284 11 11 10.3284 11 9.5C11 8.99279 11.0895 8.60257 11.2293 8.29762C11.288 8.39101 11.358 8.47934 11.4393 8.56066C12.0251 9.14645 12.9749 9.14645 13.5607 8.56066Z" fill="black"/>
</g>
</svg>
