<svg width="16" height="16" viewBox="0 0 16 16" fill="none" xmlns="http://www.w3.org/2000/svg">
<g opacity="0.9">
<path d="M12.1464 3.85355C11.9511 3.65829 11.9511 3.34171 12.1464 3.14645C12.3416 2.95118 12.6582 2.95118 12.8535 3.14645L15.207 5.5L12.8535 7.85355C12.6582 8.04882 12.3416 8.04882 12.1464 7.85355C11.9511 7.65829 11.9511 7.34171 12.1464 7.14645L13.2854 6.00745C12.7097 6.04617 11.9379 6.24077 11.2921 6.70577C10.5875 7.21307 9.99992 8.06296 9.99992 9.5C9.99992 9.77614 9.77607 10 9.49992 10C9.22378 10 8.99992 9.77614 8.99992 9.5C8.99992 7.73704 9.74569 6.58693 10.7078 5.89423C11.5632 5.27835 12.5623 5.04154 13.2979 5.00511L12.1464 3.85355Z" fill="black"/>
<path d="M4.26364 5.37113C4.53708 5.13188 4.88806 5 5.2514 5H9.49992C9.77607 5 9.99992 4.77614 9.99992 4.5C9.99992 4.22386 9.77607 4 9.49992 4H5.2514C4.64584 4 4.06086 4.21979 3.60513 4.61856L1.89085 6.11856C0.752531 7.11459 0.752529 8.88541 1.89085 9.88144L3.60513 11.3814C4.06086 11.7802 4.64584 12 5.2514 12H12.4999C13.8806 12 14.9999 10.8807 14.9999 9.5V8.5C14.9999 8.22386 14.7761 8 14.4999 8C14.2238 8 13.9999 8.22386 13.9999 8.5V9.5C13.9999 10.3284 13.3284 11 12.4999 11H5.2514C4.88806 11 4.53708 10.8681 4.26364 10.6289L2.54935 9.12886C1.86636 8.53125 1.86636 7.46875 2.54935 6.87113L4.26364 5.37113Z" fill="black"/>
</g>
</svg>
