<svg width="32" height="32" viewBox="0 0 32 32" fill="none" xmlns="http://www.w3.org/2000/svg">
<path opacity="0.9" d="M10.207 8.79289C9.81649 8.40237 9.18332 8.40237 8.7928 8.79289C8.40227 9.18342 8.40227 9.81658 8.7928 10.2071L14.5857 16L8.79265 21.793C8.40213 22.1835 8.40212 22.8167 8.79265 23.2072C9.18317 23.5977 9.81634 23.5977 10.2069 23.2072L15.9999 17.4142L21.7929 23.2072C22.1834 23.5977 22.8165 23.5977 23.2071 23.2072C23.5976 22.8166 23.5976 22.1835 23.2071 21.793L17.4141 16L23.2069 10.2072C23.5974 9.81668 23.5974 9.18351 23.2069 8.79299C22.8163 8.40246 22.1832 8.40246 21.7926 8.79299L15.9999 14.5858L10.207 8.79289Z" fill="black"/>
</svg>
