<svg width="24" height="24" viewBox="0 0 24 24" fill="none" xmlns="http://www.w3.org/2000/svg">
<path opacity="0.9" d="M16.8536 7.85355C17.0488 7.65829 17.0488 7.34171 16.8536 7.14645C16.6583 6.95118 16.3417 6.95118 16.1465 7.14645L12 11.2929L7.85364 7.14652C7.65838 6.95126 7.3418 6.95126 7.14654 7.14652C6.95127 7.34178 6.95127 7.65837 7.14654 7.85363L11.2929 12L7.14645 16.1465C6.95118 16.3417 6.95118 16.6583 7.14645 16.8536C7.34171 17.0488 7.65829 17.0488 7.85355 16.8536L12 12.7071L16.1466 16.8537C16.3418 17.0489 16.6584 17.0489 16.8537 16.8537C17.0489 16.6584 17.0489 16.3418 16.8537 16.1466L12.7071 12L16.8536 7.85355Z" fill="black"/>
</svg>
