<svg width="16" height="16" viewBox="0 0 16 16" fill="none" xmlns="http://www.w3.org/2000/svg">
<path opacity="0.9" d="M11.8536 4.85355C12.0488 4.65829 12.0488 4.34171 11.8536 4.14645C11.6583 3.95118 11.3417 3.95118 11.1464 4.14645L8 7.29289L4.85363 4.14652C4.65837 3.95126 4.34178 3.95126 4.14652 4.14652C3.95126 4.34178 3.95126 4.65837 4.14652 4.85363L7.29289 8L4.14645 11.1464C3.95118 11.3417 3.95118 11.6583 4.14645 11.8536C4.34171 12.0488 4.65829 12.0488 4.85355 11.8536L8 8.70711L11.1465 11.8536C11.3418 12.0489 11.6584 12.0489 11.8536 11.8536C12.0489 11.6584 12.0489 11.3418 11.8536 11.1465L8.70711 8L11.8536 4.85355Z" fill="black"/>
</svg>
