<svg width="32" height="32" viewBox="0 0 32 32" fill="none" xmlns="http://www.w3.org/2000/svg">
<path opacity="0.9" d="M9.85363 9.1462C9.65837 8.95094 9.34178 8.95094 9.14652 9.1462C8.95126 9.34146 8.95126 9.65805 9.14652 9.85331L15.293 15.9998L9.14645 22.1464C8.95118 22.3416 8.95118 22.6582 9.14645 22.8535C9.34171 23.0487 9.65829 23.0487 9.85355 22.8535L16.0001 16.7069L22.1466 22.8534C22.3418 23.0486 22.6584 23.0486 22.8537 22.8534C23.049 22.6581 23.049 22.3415 22.8537 22.1463L16.7072 15.9998L22.8536 9.85348C23.0488 9.65822 23.0488 9.34163 22.8536 9.14637C22.6583 8.95111 22.3417 8.95111 22.1464 9.14637L16.0001 15.2927L9.85363 9.1462Z" fill="black"/>
</svg>
