<svg width="16" height="16" viewBox="0 0 16 16" fill="none" xmlns="http://www.w3.org/2000/svg">
<g opacity="0.9">
<path d="M6.5 7.98968C6.49548 7.7602 6.33241 7.55658 6.09806 7.50971C5.82728 7.45555 5.56387 7.63116 5.50971 7.90194L5.19293 9.48583L4.85355 9.14645C4.65829 8.95118 4.34171 8.95118 4.14645 9.14645L3.80707 9.48583L3.49029 7.90194C3.43613 7.63116 3.17272 7.45555 2.90194 7.50971C2.63116 7.56387 2.45555 7.82728 2.50971 8.09806L3.00971 10.5981C3.04587 10.7789 3.17862 10.9251 3.35511 10.9785C3.53159 11.032 3.72316 10.9839 3.85355 10.8536L4.5 10.2071L5.14645 10.8536C5.27684 10.9839 5.46841 11.032 5.64489 10.9785C5.82138 10.9251 5.95413 10.7789 5.99029 10.5981L6.49029 8.09806C6.49625 8.06825 6.49943 8.03854 6.5 8.00918L6.5 7.98968Z" fill="black"/>
<path fill-rule="evenodd" clip-rule="evenodd" d="M15 13V3C15 2.44772 14.5523 2 14 2H2C1.44772 2 1 2.44772 1 3V13C1 13.5523 1.44772 14 2 14H14C14.5523 14 15 13.5523 15 13ZM2 5V13H14V10.5495L13.9903 10.5981C13.9541 10.7789 13.8214 10.9251 13.6449 10.9785C13.4684 11.032 13.2768 10.9839 13.1464 10.8536L12.5 10.2071L11.8536 10.8536C11.7232 10.9839 11.5316 11.032 11.3551 10.9785C11.1786 10.9251 11.0459 10.7789 11.0097 10.5981L10.5097 8.09806C10.5037 8.06826 10.5006 8.03854 10.5 8.00919C10.4994 8.03854 10.4963 8.06826 10.4903 8.09806L9.99029 10.5981C9.95413 10.7789 9.82138 10.9251 9.64489 10.9785C9.46841 11.032 9.27684 10.9839 9.14645 10.8536L8.5 10.2071L7.85355 10.8536C7.72316 10.9839 7.53159 11.032 7.35511 10.9785C7.17862 10.9251 7.04587 10.7789 7.00971 10.5981L6.50971 8.09806C6.50375 8.06825 6.50058 8.03854 6.5 8.00918C6.50013 8.00266 6.50013 7.99616 6.5 7.98968C6.50452 7.7602 6.66759 7.55658 6.90194 7.50971C7.17272 7.45555 7.43613 7.63116 7.49029 7.90194L7.80707 9.48583L8.14645 9.14645C8.34171 8.95118 8.65829 8.95118 8.85355 9.14645L9.19293 9.48583L9.50971 7.90194C9.56387 7.63116 9.82728 7.45555 10.0981 7.50971C10.3325 7.55659 10.4956 7.76029 10.5 7.98983C10.5045 7.76029 10.6675 7.55659 10.9019 7.50971C11.1727 7.45555 11.4361 7.63116 11.4903 7.90194L11.8071 9.48583L12.1464 9.14645C12.3417 8.95118 12.6583 8.95118 12.8536 9.14645L13.1929 9.48583L13.5097 7.90194C13.5573 7.66408 13.7663 7.49965 14 7.4999V5H2ZM3.5 4C3.77614 4 4 3.77614 4 3.5C4 3.22386 3.77614 3 3.5 3C3.22386 3 3 3.22386 3 3.5C3 3.77614 3.22386 4 3.5 4ZM6 3.5C6 3.77614 5.77614 4 5.5 4C5.22386 4 5 3.77614 5 3.5C5 3.22386 5.22386 3 5.5 3C5.77614 3 6 3.22386 6 3.5Z" fill="black"/>
</g>
</svg>
