<svg width="16" height="16" viewBox="0 0 16 16" fill="none" xmlns="http://www.w3.org/2000/svg">
<path fill-rule="evenodd" clip-rule="evenodd" d="M14 3H2V13H14V3ZM2 2C1.44772 2 1 2.44772 1 3V13C1 13.5523 1.44772 14 2 14H14C14.5523 14 15 13.5523 15 13V3C15 2.44772 14.5523 2 14 2H2Z" fill="black"/>
<path fill-rule="evenodd" clip-rule="evenodd" d="M14 3H2V4H14V3ZM2 2C1.44772 2 1 2.44772 1 3V5H15V3C15 2.44772 14.5523 2 14 2H2Z" fill="black"/>
<path d="M4 3.5C4 3.77614 3.77614 4 3.5 4C3.22386 4 3 3.77614 3 3.5C3 3.22386 3.22386 3 3.5 3C3.77614 3 4 3.22386 4 3.5Z" fill="black"/>
<path d="M6 3.5C6 3.77614 5.77614 4 5.5 4C5.22386 4 5 3.77614 5 3.5C5 3.22386 5.22386 3 5.5 3C5.77614 3 6 3.22386 6 3.5Z" fill="black"/>
<path fill-rule="evenodd" clip-rule="evenodd" d="M2.90194 7.50971C3.17272 7.45555 3.43613 7.63116 3.49029 7.90194L3.80707 9.48583L4.14645 9.14645C4.34171 8.95118 4.65829 8.95118 4.85355 9.14645L5.19293 9.48583L5.50971 7.90194C5.56387 7.63116 5.82728 7.45555 6.09806 7.50971C6.36884 7.56387 6.54445 7.82728 6.49029 8.09806L5.99029 10.5981C5.95413 10.7789 5.82138 10.9251 5.64489 10.9785C5.46841 11.032 5.27684 10.9839 5.14645 10.8536L4.5 10.2071L3.85355 10.8536C3.72316 10.9839 3.53159 11.032 3.35511 10.9785C3.17862 10.9251 3.04587 10.7789 3.00971 10.5981L2.50971 8.09806C2.45555 7.82728 2.63116 7.56387 2.90194 7.50971Z" fill="black"/>
<path fill-rule="evenodd" clip-rule="evenodd" d="M6.90194 7.50971C7.17272 7.45555 7.43613 7.63116 7.49029 7.90194L7.80707 9.48583L8.14645 9.14645C8.34171 8.95118 8.65829 8.95118 8.85355 9.14645L9.19293 9.48583L9.50971 7.90194C9.56387 7.63116 9.82728 7.45555 10.0981 7.50971C10.3688 7.56387 10.5444 7.82728 10.4903 8.09806L9.99029 10.5981C9.95413 10.7789 9.82138 10.9251 9.64489 10.9785C9.46841 11.032 9.27683 10.9839 9.14645 10.8536L8.5 10.2071L7.85355 10.8536C7.72317 10.9839 7.53159 11.032 7.35511 10.9785C7.17862 10.9251 7.04587 10.7789 7.00971 10.5981L6.50971 8.09806C6.45555 7.82728 6.63116 7.56387 6.90194 7.50971Z" fill="black"/>
<path fill-rule="evenodd" clip-rule="evenodd" d="M10.9019 7.50971C11.1727 7.45555 11.4361 7.63116 11.4903 7.90194L11.8071 9.48583L12.1464 9.14645C12.3417 8.95118 12.6583 8.95118 12.8536 9.14645L13.1929 9.48583L13.5097 7.90194C13.5639 7.63116 13.8273 7.45555 14.0981 7.50971C14.3688 7.56387 14.5444 7.82728 14.4903 8.09806L13.9903 10.5981C13.9541 10.7789 13.8214 10.9251 13.6449 10.9785C13.4684 11.032 13.2768 10.9839 13.1464 10.8536L12.5 10.2071L11.8536 10.8536C11.7232 10.9839 11.5316 11.032 11.3551 10.9785C11.1786 10.9251 11.0459 10.7789 11.0097 10.5981L10.5097 8.09806C10.4556 7.82728 10.6312 7.56387 10.9019 7.50971Z" fill="black"/>
</svg>
