<svg width="24" height="24" viewBox="0 0 24 24" fill="none" xmlns="http://www.w3.org/2000/svg">
<path opacity="0.9" fill-rule="evenodd" clip-rule="evenodd" d="M22 18.5C22 19.3284 21.3284 20 20.5 20H2.5C1.67157 20 1 19.3284 1 18.5V4.5C1 3.67157 1.67157 3 2.5 3H8.5C9.32843 3 10 3.67157 10 4.5C10 4.77614 10.2239 5 10.5 5H20.5C21.3284 5 22 5.67157 22 6.5V18.5ZM2.5 4C2.22386 4 2 4.22386 2 4.5V7.08535C2.15639 7.03008 2.32468 7 2.5 7H20.5C20.6753 7 20.8436 7.03008 21 7.08535V6.5C21 6.22386 20.7761 6 20.5 6H10.5C9.67157 6 9 5.32843 9 4.5C9 4.22386 8.77614 4 8.5 4H2.5Z" fill="black"/>
</svg>
