<svg width="16" height="16" viewBox="0 0 16 16" fill="none" xmlns="http://www.w3.org/2000/svg">
<path opacity="0.9" fill-rule="evenodd" clip-rule="evenodd" d="M1 3.5C1 2.67157 1.67157 2 2.5 2H6C6.55228 2 7 2.44772 7 3H13.5C14.3284 3 15 3.67157 15 4.5V12.5C15 13.3284 14.3284 14 13.5 14H2.5C1.67157 14 1 13.3284 1 12.5V3.5ZM2 3.5C2 3.22386 2.22386 3 2.5 3H6C6 3.55228 6.44772 4 7 4H13.5C13.7761 4 14 4.22386 14 4.5V5.08535C13.8436 5.03008 13.6753 5 13.5 5H2.5C2.32468 5 2.15639 5.03008 2 5.08535V3.5ZM2 6.5V12.5C2 12.7761 2.22386 13 2.5 13H13.5C13.7761 13 14 12.7761 14 12.5V6.5C14 6.22386 13.7761 6 13.5 6H2.5C2.22386 6 2 6.22386 2 6.5Z" fill="black"/>
</svg>
