<svg width="24" height="24" viewBox="0 0 24 24" fill="none" xmlns="http://www.w3.org/2000/svg">
<g opacity="0.9">
<path fill-rule="evenodd" clip-rule="evenodd" d="M1 4.5C1 3.67157 1.67157 3 2.5 3H8.5C9.32843 3 10 3.67157 10 4.5C10 4.77614 10.2239 5 10.5 5H20.5C21.3284 5 22 5.67157 22 6.5V18.5C22 19.3284 21.3284 20 20.5 20H2.5C1.67157 20 1 19.3284 1 18.5V4.5ZM2 4.5C2 4.22386 2.22386 4 2.5 4H8.5C8.77614 4 9 4.22386 9 4.5C9 5.32843 9.67157 6 10.5 6H20.5C20.7761 6 21 6.22386 21 6.5V7.08535C20.8436 7.03008 20.6753 7 20.5 7H2.5C2.32468 7 2.15639 7.03008 2 7.08535V4.5ZM2 8.5V18.5C2 18.7761 2.22386 19 2.5 19H20.5C20.7761 19 21 18.7761 21 18.5V8.5C21 8.22386 20.7761 8 20.5 8H2.5C2.22386 8 2 8.22386 2 8.5Z" fill="black"/>
</g>
</svg>
