<svg width="32" height="32" viewBox="0 0 32 32" fill="none" xmlns="http://www.w3.org/2000/svg">
<g opacity="0.9">
<path d="M6.5 7C5.11929 7 4 8.11929 4 9.5V22.5C4 23.2468 4.32804 23.9175 4.84622 24.3749C5.05326 24.5576 5.36923 24.5379 5.55196 24.3309C5.73469 24.1238 5.71499 23.8079 5.50795 23.6251C5.19572 23.3495 5 22.9479 5 22.5V9.5C5 8.67157 5.67157 8 6.5 8H25.5C26.3284 8 27 8.67157 27 9.5V22.5C27 23.3284 26.3284 24 25.5 24H18C17.7239 24 17.5 24.2239 17.5 24.5C17.5 24.7761 17.7239 25 18 25H25.5C26.8807 25 28 23.8807 28 22.5V9.5C28 8.11929 26.8807 7 25.5 7H6.5Z" fill="black"/>
<path d="M19 11.5V15H15.5C15.2239 15 15 15.2239 15 15.5C15 15.7761 15.2239 16 15.5 16H19V19.5C19 19.7761 19.2239 20 19.5 20C19.7761 20 20 19.7761 20 19.5V16H23.5C23.7761 16 24 15.7761 24 15.5C24 15.2239 23.7761 15 23.5 15H20V11.5C20 11.2239 19.7761 11 19.5 11C19.2239 11 19 11.2239 19 11.5Z" fill="black"/>
<path d="M11.8932 21.5007C11.693 21.2459 11.307 21.2459 11.1068 21.5007L6.63557 27.1914C6.37781 27.5194 6.61152 28.0003 7.02873 28.0003H15.9713C16.3885 28.0003 16.6222 27.5194 16.3644 27.1914L11.8932 21.5007Z" fill="black"/>
</g>
</svg>
