<svg width="24" height="24" viewBox="0 0 24 24" fill="none" xmlns="http://www.w3.org/2000/svg">
<g opacity="0.9">
<path fill-rule="evenodd" clip-rule="evenodd" d="M2 6C2 4.89543 2.89543 4 4 4H20C21.1046 4 22 4.89543 22 6V18C22 19.1046 21.1046 20 20 20H12.7502L9.7 15.933C9.1 15.133 7.9 15.133 7.3 15.933L4.24976 20H4C2.89543 20 2 19.1046 2 18V6ZM14 11V8.5C14 8.22386 14.2239 8 14.5 8C14.7761 8 15 8.22386 15 8.5V11H17.5C17.7761 11 18 11.2239 18 11.5C18 11.7761 17.7761 12 17.5 12H15V14.5C15 14.7761 14.7761 15 14.5 15C14.2239 15 14 14.7761 14 14.5V12H11.5C11.2239 12 11 11.7761 11 11.5C11 11.2239 11.2239 11 11.5 11H14Z" fill="black"/>
<path d="M8.9 16.5333C8.7 16.2667 8.3 16.2667 8.1 16.5333L4.6 21.2C4.35279 21.5296 4.58798 22 5 22H12C12.412 22 12.6472 21.5296 12.4 21.2L8.9 16.5333Z" fill="black"/>
</g>
</svg>
