<svg width="16" height="16" viewBox="0 0 16 16" fill="none" xmlns="http://www.w3.org/2000/svg">
<g opacity="0.9">
<path d="M8 1C7.44772 1 7 1.44772 7 2V12.5C7 12.7761 7.22386 13 7.5 13H8.5C8.77614 13 9 12.7761 9 12.5V2C9 1.44772 8.55228 1 8 1Z" fill="black"/>
<path d="M4 4C3.44772 4 3 4.44772 3 5V12.5C3 12.7761 3.22386 13 3.5 13H4.5C4.77614 13 5 12.7761 5 12.5V5C5 4.44772 4.55228 4 4 4Z" fill="black"/>
<path d="M11 7C11 6.44772 11.4477 6 12 6C12.5523 6 13 6.44772 13 7V12.5C13 12.7761 12.7761 13 12.5 13H11.5C11.2239 13 11 12.7761 11 12.5V7Z" fill="black"/>
<path d="M2.5 14C2.22386 14 2 14.2239 2 14.5C2 14.7761 2.22386 15 2.5 15H13.5C13.7761 15 14 14.7761 14 14.5C14 14.2239 13.7761 14 13.5 14H2.5Z" fill="black"/>
</g>
</svg>
