<svg width="24" height="24" viewBox="0 0 24 24" fill="none" xmlns="http://www.w3.org/2000/svg">
<g opacity="0.9">
<path fill-rule="evenodd" clip-rule="evenodd" d="M7.5 20.5C7.5 20.2239 7.72386 20 8 20H16C16.2761 20 16.5 20.2239 16.5 20.5C16.5 20.7761 16.2761 21 16 21H8C7.72386 21 7.5 20.7761 7.5 20.5Z" fill="black"/>
<path fill-rule="evenodd" clip-rule="evenodd" d="M2 6.5C2 5.11929 3.11929 4 4.5 4H19.5C20.8807 4 22 5.11929 22 6.5V16.5C22 17.8807 20.8807 19 19.5 19H4.5C3.11929 19 2 17.8807 2 16.5V6.5ZM12 7C12 6.44772 12.4477 6 13 6H19C19.5523 6 20 6.44772 20 7V11C20 11.5523 19.5523 12 19 12H13C12.4477 12 12 11.5523 12 11V7Z" fill="black"/>
</g>
</svg>
