<svg width="24" height="24" viewBox="0 0 24 24" fill="none" xmlns="http://www.w3.org/2000/svg">
<path opacity="0.9" fill-rule="evenodd" clip-rule="evenodd" d="M12 22C17.5228 22 22 17.5228 22 12C22 6.47715 17.5228 2 12 2C6.47715 2 2 6.47715 2 12C2 17.5228 6.47715 22 12 22ZM11.8322 16.8737C11.6258 17.0572 11.3098 17.0386 11.1263 16.8322L7.1263 12.3322C6.9579 12.1427 6.9579 11.8573 7.1263 11.6678L11.1263 7.16782C11.3098 6.96143 11.6258 6.94284 11.8322 7.1263C12.0386 7.30976 12.0572 7.62579 11.8737 7.83218L8.16898 12L11.8737 16.1678C12.0572 16.3742 12.0386 16.6902 11.8322 16.8737ZM15.1263 16.8322C15.3098 17.0386 15.6258 17.0572 15.8322 16.8737C16.0386 16.6902 16.0572 16.3742 15.8737 16.1678L12.169 12L15.8737 7.83218C16.0572 7.62579 16.0386 7.30976 15.8322 7.1263C15.6258 6.94284 15.3098 6.96143 15.1263 7.16782L11.1263 11.6678C10.9579 11.8573 10.9579 12.1427 11.1263 12.3322L15.1263 16.8322Z" fill="black"/>
</svg>
