<svg width="24" height="24" viewBox="0 0 24 24" fill="none" xmlns="http://www.w3.org/2000/svg">
<g opacity="0.9">
<path fill-rule="evenodd" clip-rule="evenodd" d="M4 6C4 4.34315 5.34315 3 7 3H19C20.6569 3 22 4.34315 22 6V13.0592C22 14.716 20.6569 16.0592 19 16.0592H9.00062C8.81349 16.0592 8.63012 16.1117 8.47135 16.2107L5.52927 18.046C4.86319 18.4615 4 17.9826 4 17.1976V6ZM7 4H19C20.1046 4 21 4.89543 21 6V13.0592C21 14.1637 20.1046 15.0592 19 15.0592H9.00062C8.62636 15.0592 8.25961 15.1642 7.94207 15.3623L5 17.1976L5 6C5 4.89543 5.89543 4 7 4Z" fill="black"/>
<path d="M2 4.5C2 4.22386 1.77614 4 1.5 4C1.22386 4 1 4.22386 1 4.5V22H21.5C21.7761 22 22 21.7761 22 21.5C22 21.2239 21.7761 21 21.5 21H2V4.5Z" fill="black"/>
</g>
</svg>
