<svg width="32" height="32" viewBox="0 0 32 32" fill="none" xmlns="http://www.w3.org/2000/svg">
<path opacity="0.9" d="M12.7961 25.6157L12.6092 25.565L12.4369 25.6535L8.64776 27.5987V23.7917V23.5539L8.46325 23.4038C6.02921 21.4241 4.5 18.5106 4.5 15.2696C4.5 9.35081 9.61868 4.5 16 4.5C22.3813 4.5 27.5 9.35081 27.5 15.2696C27.5 21.1883 22.3813 26.0391 16 26.0391C14.8873 26.0391 13.8124 25.8912 12.7961 25.6157ZM8.43996 18.0529L9.03937 18.8388L14.1917 16.029L16.9346 18.7546L17.3024 19.12L17.6543 18.7392L23.5672 12.3392L22.9585 11.5621L17.9629 14.3179L15.3233 11.6483L14.9632 11.2841L14.6077 11.6529L8.43996 18.0529Z" fill="black" stroke="black"/>
</svg>
