<svg width="16" height="16" viewBox="0 0 16 16" fill="none" xmlns="http://www.w3.org/2000/svg">
<g opacity="0.9">
<path d="M3.79999 9.39996L7.39786 5.66663L9.09273 7.38076L12.2 5.66663L8.75078 9.39996L6.99645 7.65677L3.79999 9.39996Z" fill="black"/>
<path fill-rule="evenodd" clip-rule="evenodd" d="M3.41958 12.5452V15.2435L6.05474 13.8907C6.67232 14.0581 7.32501 14.1478 8 14.1478C11.866 14.1478 15 11.2046 15 7.57391C15 3.94324 11.866 1 8 1C4.13401 1 1 3.94324 1 7.57391C1 9.55969 1.93753 11.3398 3.41958 12.5452ZM4.41958 13.606V12.0696L4.05056 11.7694C2.78164 10.7374 2 9.23344 2 7.57391C2 4.55376 4.6262 2 8 2C11.3738 2 14 4.55376 14 7.57391C14 10.5941 11.3738 13.1478 8 13.1478C7.41387 13.1478 6.84917 13.0699 6.31642 12.9255L5.9426 12.8242L4.41958 13.606Z" fill="black"/>
</g>
</svg>
