<svg width="24" height="24" viewBox="0 0 24 24" fill="none" xmlns="http://www.w3.org/2000/svg">
<path opacity="0.9" fill-rule="evenodd" clip-rule="evenodd" d="M13.9304 8.0887C14.2863 7.65677 14.5 7.10335 14.5 6.5C14.5 5.11929 13.3807 4 12 4C10.6193 4 9.5 5.11929 9.5 6.5C9.5 7.10334 9.71373 7.65677 10.0696 8.08869L4.89965 16.1668C4.62049 16.0591 4.31714 16 4 16C2.61929 16 1.5 17.1193 1.5 18.5C1.5 19.8807 2.61929 21 4 21C5.20947 21 6.21835 20.1411 6.44999 19H17.55C17.7817 20.1411 18.7905 21 20 21C21.3807 21 22.5 19.8807 22.5 18.5C22.5 17.1193 21.3807 16 20 16C19.6829 16 19.3795 16.0591 19.1003 16.1668L13.9304 8.0887ZM13.148 8.7214C12.8043 8.89943 12.4139 9 12 9C11.5861 9 11.1957 8.89943 10.8519 8.72139L5.74155 16.7064C6.0955 17.0501 6.34804 17.4977 6.44999 18H17.55C17.652 17.4977 17.9045 17.0501 18.2584 16.7064L13.148 8.7214Z" fill="black"/>
</svg>
