<svg width="16" height="16" viewBox="0 0 16 16" fill="none" xmlns="http://www.w3.org/2000/svg">
<g opacity="0.9">
<path d="M2.5 1C1.67157 1 1 1.67157 1 2.5V8.5C1 8.77614 1.22386 9 1.5 9H14.5C14.7761 9 15 8.77614 15 8.5V2.5C15 1.67157 14.3284 1 13.5 1H2.5Z" fill="black"/>
<path d="M1.5 10C1.22386 10 1 10.2239 1 10.5V11.5C1 11.7761 1.22386 12 1.5 12H14.5C14.7761 12 15 11.7761 15 11.5V10.5C15 10.2239 14.7761 10 14.5 10H1.5Z" fill="black"/>
<path d="M2.5 15C1.67157 15 1 14.3284 1 13.5C1 13.2239 1.22386 13 1.5 13H14.5C14.7761 13 15 13.2239 15 13.5C15 14.3284 14.3284 15 13.5 15H2.5Z" fill="black"/>
</g>
</svg>
