<svg width="32" height="32" viewBox="0 0 32 32" fill="none" xmlns="http://www.w3.org/2000/svg">
<g opacity="0.9">
<path d="M16.5 5C16.7761 5 17 4.77614 17 4.5C17 4.22386 16.7761 4 16.5 4H8.5C7.11929 4 6 5.11929 6 6.5V24.5C6 25.8807 7.11929 27 8.5 27H16.5C16.7761 27 17 26.7761 17 26.5C17 26.2239 16.7761 26 16.5 26H8.5C7.67157 26 7 25.3284 7 24.5L7 6.5C7 5.67157 7.67157 5 8.5 5L16.5 5Z" fill="black"/>
<path d="M21.8065 19.6532C21.6149 19.8521 21.6209 20.1686 21.8198 20.3602C22.0187 20.5517 22.3353 20.5457 22.5268 20.3468L27.1941 15.5L22.5268 10.6532C22.3353 10.4543 22.0187 10.4483 21.8198 10.6398C21.6209 10.8314 21.615 11.1479 21.8065 11.3468L25.3244 15H12C11.7238 15 11.5 15.2239 11.5 15.5C11.5 15.7761 11.7238 16 12 16H25.3244L21.8065 19.6532Z" fill="black"/>
</g>
</svg>
