<svg width="32" height="32" viewBox="0 0 32 32" fill="none" xmlns="http://www.w3.org/2000/svg">
<path opacity="0.9" fill-rule="evenodd" clip-rule="evenodd" d="M12 24C12 26.2091 13.7909 28 16 28C18.2091 28 20 26.2091 20 24L20 13C20 12.4477 20.4477 12 21 12C21.5523 12 22 12.4477 22 13L22 24C22 27.3137 19.3137 30 16 30C12.6863 30 10 27.3137 10 24L10 6.5C10 4.01472 12.0147 2 14.5 2C16.9853 2 19 4.01472 19 6.5L19 22C19 23.6569 17.6569 25 16 25C14.3431 25 13 23.6569 13 22L13 13C13 12.4477 13.4477 12 14 12C14.5523 12 15 12.4477 15 13L15 22C15 22.5523 15.4477 23 16 23C16.5523 23 17 22.5523 17 22L17 6.5C17 5.11929 15.8807 4 14.5 4C13.1193 4 12 5.11929 12 6.5L12 24Z" fill="black"/>
</svg>
