<svg width="16" height="16" viewBox="0 0 16 16" fill="none" xmlns="http://www.w3.org/2000/svg">
<path opacity="0.9" fill-rule="evenodd" clip-rule="evenodd" d="M7.5 1C6.67157 1 6 1.67157 6 2.5L6 12.5C6 13.8807 7.11929 15 8.5 15C9.88071 15 11 13.8807 11 12.5L11 5.5C11 5.22386 11.2239 5 11.5 5C11.7761 5 12 5.22386 12 5.5L12 12.5C12 14.433 10.433 16 8.5 16C6.567 16 5 14.433 5 12.5L5 2.5C5 1.11929 6.11929 5.96046e-08 7.5 0C8.88071 -5.96046e-08 10 1.11929 10 2.5L10 10C10 10.8284 9.32843 11.5 8.5 11.5C7.67157 11.5 7 10.8284 7 10V5.5C7 5.22386 7.22386 5 7.5 5C7.77614 5 8 5.22386 8 5.5V10C8 10.2761 8.22386 10.5 8.5 10.5C8.77614 10.5 9 10.2761 9 10L9 2.5C9 1.67157 8.32843 1 7.5 1Z" fill="black"/>
</svg>
