<svg width="16" height="16" viewBox="0 0 16 16" fill="none" xmlns="http://www.w3.org/2000/svg">
<g opacity="0.9">
<path fill-rule="evenodd" clip-rule="evenodd" d="M1 2.5C1 2.22386 0.776142 2 0.5 2C0.223858 2 0 2.22386 0 2.5V15H0.495019L0.500004 15H14.5C14.7761 15 15 14.7762 15 14.5V3.50003C15 3.24577 14.8092 3.03201 14.5566 3.00324C14.304 2.97447 14.07 3.14027 14.0127 3.38794L14.0121 3.39061L14.0092 3.40281L13.9969 3.45351C13.9858 3.49863 13.9689 3.56578 13.9462 3.65181C13.9008 3.82396 13.8323 4.07128 13.7409 4.36861C13.5574 4.9648 13.2837 5.75477 12.921 6.5405C12.5562 7.33105 12.1134 8.09059 11.6014 8.64526C11.0883 9.2011 10.5554 9.50003 10 9.50003C9.59125 9.50003 9.23319 9.28075 8.86668 8.81709C8.68141 8.58271 8.50985 8.30574 8.34292 8H8.5C8.77614 8 9 7.77614 9 7.5C9 7.22386 8.77614 7 8.5 7H7.84202L7.7826 6.87527C7.47717 6.23377 7.15014 5.54691 6.76322 5.02218C6.34975 4.46145 5.77917 3.96568 4.97828 4.0005C4.48942 4.02175 4.06587 4.26921 3.71445 4.59649C3.36216 4.92457 3.04501 5.36659 2.75976 5.86046C2.55886 6.20829 2.36756 6.59291 2.18644 7H1.5C1.22386 7 1 7.22386 1 7.5V2.5ZM1 10.3464C1.09185 10.0314 1.18944 9.71088 1.29246 9.38989C1.44156 8.92536 1.60311 8.4565 1.77646 8H1.5C1.22386 8 1 7.77614 1 7.5V10.3464ZM4 7.5C4 7.22386 4.22386 7 4.5 7H5.5C5.77614 7 6 7.22386 6 7.5C6 7.77614 5.77614 8 5.5 8H4.5C4.22386 8 4 7.77614 4 7.5ZM13 7.5C13 7.22386 13.2239 7 13.5 7H14.5C14.7761 7 15 7.22386 15 7.5C15 7.77614 14.7761 8 14.5 8H13.5C13.2239 8 13 7.77614 13 7.5Z" fill="black"/>
<path d="M10 7.5C10 7.22386 10.2239 7 10.5 7H11.5C11.7761 7 12 7.22386 12 7.5C12 7.77614 11.7761 8 11.5 8H10.5C10.2239 8 10 7.77614 10 7.5Z" fill="black"/>
</g>
</svg>
