<svg width="32" height="32" viewBox="0 0 32 32" fill="none" xmlns="http://www.w3.org/2000/svg">
<path opacity="0.9" fill-rule="evenodd" clip-rule="evenodd" d="M3.5 6C3.77614 6 4 6.22386 4 6.5V22.8875C4.3272 21.5569 4.72937 20.0504 5.19702 18.5396C5.35604 18.0259 5.52302 17.5103 5.69765 17H5.5C5.22386 17 5 16.7761 5 16.5C5 16.2239 5.22386 16 5.5 16H6.05272C6.54427 14.6672 7.08853 13.4043 7.67936 12.3439C8.15835 11.4842 8.68046 10.7347 9.24751 10.1876C9.81299 9.64208 10.4639 9.25976 11.1924 9.22784C12.3893 9.17541 13.2687 9.91477 13.9506 10.8465C14.5924 11.7235 15.1389 12.8797 15.6675 13.998L15.7636 14.2013C16.1712 15.0621 16.5728 15.8937 17.0119 16.6088C17.0041 16.5738 17 16.5374 17 16.5C17 16.2239 17.2239 16 17.5 16H18.5C18.7761 16 19 16.2239 19 16.5C19 16.7761 18.7761 17 18.5 17H17.5C17.3849 17 17.279 16.9611 17.1945 16.8958C17.3143 17.0772 17.4371 17.2495 17.5639 17.4111C18.2264 18.2556 18.9322 18.7274 19.7857 18.7274C20.8667 18.7274 21.8662 18.1126 22.7848 17.0653C22.8778 16.9594 22.9693 16.8496 23.0593 16.7365C23.0215 16.6661 23 16.5855 23 16.5C23 16.2239 23.2239 16 23.5 16H23.5955C24.169 15.1435 24.6759 14.1608 25.1136 13.1629C25.745 11.7231 26.2202 10.279 26.538 9.19219C26.6966 8.64956 26.8155 8.19779 26.8945 7.88248C26.934 7.72486 26.9635 7.60145 26.983 7.51795C26.9928 7.4762 27.0001 7.44444 27.0048 7.42338L27.0101 7.3999L27.0116 7.39316L27.6071 7.01172C27.8769 7.07086 28.0476 7.33747 27.9884 7.60721L27.9862 7.61733L27.9802 7.64414C27.9749 7.66745 27.9671 7.70154 27.9568 7.74569C27.9361 7.83397 27.9054 7.96251 27.8645 8.12556C27.7828 8.45158 27.6606 8.91601 27.4978 9.4728C27.1727 10.5849 26.6836 12.0726 26.0294 13.5645C25.658 14.4113 25.2296 15.2684 24.7425 16.0627C24.8961 16.148 25 16.3119 25 16.5C25 16.7761 24.7761 17 24.5 17H24.1159C23.93 17.2538 23.7369 17.4963 23.5366 17.7247C22.5267 18.8762 21.2763 19.7274 19.7857 19.7274C18.4964 19.7274 17.5323 18.9909 16.7771 18.0283C16.4747 17.6428 16.1957 17.2084 15.9335 16.7492C15.8472 16.8991 15.6854 17 15.5 17H14.5C14.2239 17 14 16.7761 14 16.5C14 16.2239 14.2239 16 14.5 16H15.5C15.5099 16 15.5196 16.0003 15.5293 16.0008C15.2961 15.5474 15.0748 15.0833 14.8598 14.6292L14.7806 14.4618C14.2354 13.3092 13.7269 12.2341 13.1436 11.4371C12.5333 10.6032 11.9311 10.1964 11.2362 10.2269C10.8431 10.2441 10.4116 10.454 9.94183 10.9073C9.47358 11.3591 9.00743 12.0149 8.55291 12.8306C7.98963 13.8416 7.46339 15.0626 6.98259 16.3687C6.99394 16.4106 7 16.4546 7 16.5C7 16.6689 6.91625 16.8183 6.78801 16.9088C6.56526 17.5401 6.35305 18.1867 6.1523 18.8353C5.4736 21.0279 4.93318 23.2175 4.56217 24.8609C4.37679 25.682 4.23398 26.3656 4.13761 26.8434L4.1062 27H27.5C27.7761 27 28 27.2239 28 27.5C28 27.7761 27.7761 28 27.5 28H3.51394C3.50495 28.0002 3.49591 28.0002 3.48685 28H3V27.5004V6.5C3 6.22386 3.22386 6 3.5 6ZM8.5 16C8.22386 16 8 16.2239 8 16.5C8 16.7761 8.22386 17 8.5 17H9.5C9.77614 17 10 16.7761 10 16.5C10 16.2239 9.77614 16 9.5 16H8.5ZM11.5 16C11.2239 16 11 16.2239 11 16.5C11 16.7761 11.2239 17 11.5 17H12.5C12.7761 17 13 16.7761 13 16.5C13 16.2239 12.7761 16 12.5 16H11.5ZM20.5 16C20.2239 16 20 16.2239 20 16.5C20 16.7761 20.2239 17 20.5 17H21.5C21.7761 17 22 16.7761 22 16.5C22 16.2239 21.7761 16 21.5 16H20.5ZM26.5 16C26.2239 16 26 16.2239 26 16.5C26 16.7761 26.2239 17 26.5 17H27.5C27.7761 17 28 16.7761 28 16.5C28 16.2239 27.7761 16 27.5 16H26.5Z" fill="black"/>
</svg>
