<svg width="24" height="24" viewBox="0 0 24 24" fill="none" xmlns="http://www.w3.org/2000/svg">
<g opacity="0.9">
<path d="M1.5 4C1.77614 4 2 4.22386 2 4.5V12.5V17.3309C2.24062 16.4636 2.52151 15.5234 2.83847 14.5808C3.01604 14.0527 3.20572 13.5214 3.40689 13H2.5C2.22386 13 2 12.7761 2 12.5C2 12.2239 2.22386 12 2.5 12H3.5C3.60264 12 3.69806 12.0309 3.77745 12.084C4.12906 11.2565 4.51054 10.4764 4.91917 9.80104C5.32209 9.13514 5.764 8.5498 6.24687 8.12054C6.72966 7.69135 7.28624 7.38998 7.90804 7.36417C8.93411 7.32159 9.68875 7.92432 10.2684 8.67475C10.81 9.37578 11.27 10.2978 11.7089 11.1777L11.7905 11.3412C11.9023 11.5648 12.0131 11.7851 12.1244 12H12.5C12.7761 12 13 12.2239 13 12.5C13 12.7191 12.8591 12.9052 12.663 12.9728C12.8586 13.2961 13.0612 13.5936 13.2773 13.8546C13.8171 14.5063 14.3851 14.8637 15.0716 14.8637C15.9364 14.8637 16.7481 14.3676 17.5067 13.4946C17.6418 13.3391 17.7734 13.1737 17.9014 13H17.5C17.2239 13 17 12.7761 17 12.5C17 12.2239 17.2239 12 17.5 12H18.5C18.517 12 18.5338 12.0009 18.5504 12.0025C18.8744 11.4443 19.1695 10.8425 19.4345 10.2327C19.9589 9.02563 20.3539 7.81437 20.6182 6.90218C20.75 6.44686 20.8488 6.06784 20.9145 5.80345C20.9473 5.67129 20.9718 5.56787 20.988 5.498C20.9961 5.46307 21.0021 5.43653 21.006 5.41899L21.0104 5.3995L21.0114 5.39496L21.0116 5.39396C21.0702 5.12411 21.3365 4.95288 21.6063 5.0115C21.8762 5.07013 22.0474 5.33641 21.9888 5.60625L21.9882 5.60885L21.9869 5.61501L21.9818 5.63781C21.9774 5.65759 21.9708 5.68644 21.9622 5.72375C21.9449 5.79837 21.9192 5.90687 21.885 6.04442C21.8167 6.31944 21.7146 6.71102 21.5787 7.18041C21.3072 8.11766 20.8986 9.3723 20.3516 10.6312C19.8069 11.8849 19.1132 13.1705 18.2615 14.1505C17.413 15.127 16.3498 15.8637 15.0716 15.8637C13.9724 15.8637 13.1489 15.2673 12.5071 14.4924C12.1441 14.0539 11.8216 13.5373 11.5245 13H11.5C11.2239 13 11 12.7761 11 12.5C11 12.3863 11.0379 12.2815 11.1018 12.1975C11.0322 12.0603 10.9636 11.9235 10.896 11.7882L10.8323 11.6606C10.3758 10.7464 9.9565 9.90671 9.47707 9.28608C8.97993 8.64252 8.4999 8.34047 7.94951 8.36331C7.63658 8.3763 7.29122 8.53015 6.91127 8.86792C6.53139 9.20562 6.14975 9.69895 5.77474 10.3187C5.02505 11.5577 4.3521 13.2168 3.78632 14.8995C3.22239 16.5766 2.77309 18.2521 2.46449 19.5103C2.31416 20.1233 2.19751 20.636 2.11753 21H21.5C21.7761 21 22 21.2239 22 21.5C22 21.7761 21.7761 22 21.5 22H1.51417C1.50516 22.0002 1.4961 22.0002 1.48701 22H1V4.5C1 4.22386 1.22386 4 1.5 4Z" fill="black"/>
<path d="M5.5 12C5.22386 12 5 12.2239 5 12.5C5 12.7761 5.22386 13 5.5 13H6.5C6.77614 13 7 12.7761 7 12.5C7 12.2239 6.77614 12 6.5 12H5.5Z" fill="black"/>
<path d="M8.5 12C8.22386 12 8 12.2239 8 12.5C8 12.7761 8.22386 13 8.5 13H9.5C9.77614 13 10 12.7761 10 12.5C10 12.2239 9.77614 12 9.5 12H8.5Z" fill="black"/>
<path d="M14.5 12C14.2239 12 14 12.2239 14 12.5C14 12.7761 14.2239 13 14.5 13H15.5C15.7761 13 16 12.7761 16 12.5C16 12.2239 15.7761 12 15.5 12H14.5Z" fill="black"/>
<path d="M20.5 12C20.2239 12 20 12.2239 20 12.5C20 12.7761 20.2239 13 20.5 13H21.5C21.7761 13 22 12.7761 22 12.5C22 12.2239 21.7761 12 21.5 12H20.5Z" fill="black"/>
</g>
</svg>
