<svg width="24" height="24" viewBox="0 0 24 24" fill="none" xmlns="http://www.w3.org/2000/svg">
<g opacity="0.9">
<path fill-rule="evenodd" clip-rule="evenodd" d="M2 4.5C2 4.22386 1.77614 4 1.5 4C1.22386 4 1 4.22386 1 4.5V22H1.48611L1.5 22.0002H21.5C21.7761 22.0002 22 21.7763 22 21.5002V5.50019C22 5.25418 21.8211 5.04473 21.5781 5.00632C21.5512 5.00208 21.5243 4.99585 21.4975 4.98964C21.3309 4.95107 21.166 4.91287 21.0226 5.35129C21.0123 5.38256 21.0019 5.41377 20.9913 5.44495C20.9689 5.51135 20.9351 5.6096 20.8905 5.73515C20.8012 5.98632 20.6689 6.34636 20.4973 6.7789C20.1536 7.64528 19.6551 8.79636 19.0336 9.94389C18.6451 10.6612 18.2133 11.3681 17.747 12H18.5C18.7761 12 19 12.2239 19 12.5C19 12.7761 18.7761 13 18.5 13H17.5C17.336 13 17.1905 12.9211 17.0993 12.7992C17.0214 12.8859 16.9427 12.9701 16.8632 13.0514C16.0451 13.8893 15.2136 14.3638 14.3929 14.3638C13.7619 14.3638 13.23 14.0185 12.7154 13.3644C12.6252 13.2497 12.5374 13.1279 12.4516 13H12.5C12.7761 13 13 12.7761 13 12.5C13 12.2239 12.7761 12 12.5 12H11.8681C11.6776 11.6354 11.4914 11.248 11.3026 10.8503L11.2251 10.6868C10.8081 9.80702 10.3714 8.88553 9.85703 8.18468C9.30945 7.43852 8.58444 6.82066 7.58532 6.8643C6.97278 6.89106 6.43438 7.21345 5.97696 7.65675C5.51787 8.10166 5.09882 8.70742 4.71716 9.39559C4.29323 10.16 3.9 11.0546 3.54085 12.0016C3.52738 12.0006 3.51376 12 3.5 12H2.5C2.22386 12 2 12.2239 2 12.5V4.5ZM2 12.5C2 12.7761 2.22386 13 2.5 13H3.18054C3.02748 13.4448 2.88178 13.8949 2.74375 14.343C2.46551 15.2461 2.21654 16.1472 2 16.9885V12.5ZM5.5 12C5.22386 12 5 12.2239 5 12.5C5 12.7761 5.22386 13 5.5 13H6.5C6.77614 13 7 12.7761 7 12.5C7 12.2239 6.77614 12 6.5 12H5.5ZM8.5 12C8.22386 12 8 12.2239 8 12.5C8 12.7761 8.22386 13 8.5 13H9.5C9.77614 13 10 12.7761 10 12.5C10 12.2239 9.77614 12 9.5 12H8.5ZM11.5 12C11.2239 12 11 12.2239 11 12.5C11 12.7761 11.2239 13 11.5 13H11.5776C11.8537 13 12.0776 12.7761 12.0776 12.5C12.0776 12.2239 11.8537 12 11.5776 12H11.5ZM20.5 12C20.2239 12 20 12.2239 20 12.5C20 12.7761 20.2239 13 20.5 13H21.5C21.7761 13 22 12.7761 22 12.5C22 12.2239 21.7761 12 21.5 12H20.5Z" fill="black"/>
<path d="M14 12.5C14 12.2239 14.2239 12 14.5 12H15.5C15.7761 12 16 12.2239 16 12.5C16 12.7761 15.7761 13 15.5 13H14.5C14.2239 13 14 12.7761 14 12.5Z" fill="black"/>
</g>
</svg>
