<svg width="24" height="24" viewBox="0 0 24 24" fill="none" xmlns="http://www.w3.org/2000/svg">
<path opacity="0.9" fill-rule="evenodd" clip-rule="evenodd" d="M18.2215 18.2136C19.9383 16.4947 21 14.1213 21 11.5C21 6.25329 16.7467 2 11.5 2C6.25329 2 2 6.25329 2 11.5C2 16.7467 6.25329 21 11.5 21C13.7652 21 15.8452 20.2072 17.4777 18.884L21.2402 22.6465C21.4355 22.8417 21.7521 22.8417 21.9473 22.6465C22.1426 22.4512 22.1426 22.1346 21.9473 21.9393L18.2215 18.2136ZM17.2305 17.7779C18.9324 16.2236 20 13.9865 20 11.5C20 6.80558 16.1944 3 11.5 3C6.80558 3 3 6.80558 3 11.5C3 16.1944 6.80558 20 11.5 20C13.6502 20 15.614 19.2016 17.111 17.8851C17.122 17.8715 17.1338 17.8583 17.1465 17.8456C17.1725 17.8196 17.2007 17.797 17.2305 17.7779Z" fill="black"/>
</svg>
