<svg width="16" height="16" viewBox="0 0 16 16" fill="none" xmlns="http://www.w3.org/2000/svg">
<g opacity="0.9">
<path d="M5.49992 9.79289L10.1464 5.14645C10.3416 4.95118 10.6582 4.95118 10.8535 5.14645C11.0487 5.34171 11.0487 5.65829 10.8535 5.85355L5.85348 10.8536C5.75971 10.9473 5.63253 11 5.49992 11C5.36732 11 5.24014 10.9473 5.14637 10.8536L3.14637 8.85355C2.95111 8.65829 2.95111 8.34171 3.14637 8.14645C3.34163 7.95118 3.65822 7.95118 3.85348 8.14645L5.49992 9.79289Z" fill="black"/>
<path d="M12.8535 6.14645C13.0487 6.34171 13.0487 6.65829 12.8535 6.85355L8.85348 10.8536C8.65822 11.0488 8.34163 11.0488 8.14637 10.8536C7.95111 10.6583 7.95111 10.3417 8.14637 10.1464L12.1464 6.14645C12.3416 5.95118 12.6582 5.95118 12.8535 6.14645Z" fill="black"/>
<path fill-rule="evenodd" clip-rule="evenodd" d="M8 1C4.13401 1 1 4.13401 1 8C1 11.866 4.13401 15 8 15C11.866 15 15 11.866 15 8C15 4.13401 11.866 1 8 1ZM2 8C2 4.68629 4.68629 2 8 2C11.3137 2 14 4.68629 14 8C14 11.3137 11.3137 14 8 14C4.68629 14 2 11.3137 2 8Z" fill="black"/>
</g>
</svg>
