<svg width="32" height="32" viewBox="0 0 32 32" fill="none" xmlns="http://www.w3.org/2000/svg">
<g opacity="0.9">
<path d="M20.8536 11.8536C21.0488 11.6583 21.0488 11.3417 20.8536 11.1464C20.6583 10.9512 20.3417 10.9512 20.1464 11.1464L15.1464 16.1464C14.9512 16.3417 14.9512 16.6583 15.1464 16.8536C15.3417 17.0488 15.6583 17.0488 15.8536 16.8536L20.8536 11.8536Z" fill="black"/>
<path d="M24.8536 11.8536C25.0488 11.6583 25.0488 11.3417 24.8536 11.1464C24.6583 10.9512 24.3417 10.9512 24.1464 11.1464L15.5 19.7929L10.8536 15.1464C10.6583 14.9512 10.3417 14.9512 10.1464 15.1464C9.95118 15.3417 9.95118 15.6583 10.1464 15.8536L15.1464 20.8536C15.3417 21.0488 15.6583 21.0488 15.8536 20.8536L24.8536 11.8536Z" fill="black"/>
<path d="M6.85355 15.1464C6.65829 14.9512 6.34171 14.9512 6.14645 15.1464C5.95118 15.3417 5.95118 15.6583 6.14645 15.8536L11.1464 20.8536C11.3417 21.0488 11.6583 21.0488 11.8536 20.8536C12.0488 20.6583 12.0488 20.3417 11.8536 20.1464L6.85355 15.1464Z" fill="black"/>
<path fill-rule="evenodd" clip-rule="evenodd" d="M16 4C9.37258 4 4 9.37258 4 16C4 22.6274 9.37258 28 16 28C22.6274 28 28 22.6274 28 16C28 9.37258 22.6274 4 16 4ZM5 16C5 9.92487 9.92487 5 16 5C22.0751 5 27 9.92487 27 16C27 22.0751 22.0751 27 16 27C9.92487 27 5 22.0751 5 16Z" fill="black"/>
</g>
</svg>
