<svg width="24" height="24" viewBox="0 0 24 24" fill="none" xmlns="http://www.w3.org/2000/svg">
<g opacity="0.9">
<path fill-rule="evenodd" clip-rule="evenodd" d="M10.593 1.19539C10.7228 1.02637 10.9456 0.958263 11.1478 1.02576L20.1197 4.02097C20.2504 4.06459 20.3572 4.16017 20.4151 4.28515C20.473 4.41014 20.4767 4.55346 20.4255 4.68131C20.1289 5.42097 20.1008 5.99602 20.2081 6.53539C20.3203 7.09962 20.5828 7.64698 20.9291 8.34884C20.9919 8.47621 20.9976 8.62429 20.9448 8.75612C20.6482 9.49579 20.6201 10.0708 20.7274 10.6102C20.8396 11.1744 21.1021 11.7218 21.4484 12.4237C21.5271 12.5831 21.5152 12.7722 21.4172 12.9205L14.9054 22.7757C14.7752 22.9727 14.525 23.0518 14.3052 22.9653L4.75952 19.2108C4.69939 19.1872 4.64441 19.1521 4.59763 19.1075C3.86634 18.4108 3.42668 17.6757 3.29479 16.9166C3.18504 16.285 3.29587 15.6796 3.56987 15.1211C3.00247 14.5079 2.65627 13.8673 2.54182 13.2087C2.40861 12.442 2.60039 11.7138 3.01448 11.0616C3.02248 11.049 3.03104 11.0368 3.04013 11.0249L10.593 1.19539ZM4.41959 15.6653C4.26386 16.0251 4.21735 16.3847 4.28002 16.7454C4.36174 17.2157 4.63929 17.7456 5.21861 18.3168L14.2943 21.8865L20.4249 12.6083C20.1364 12.0172 19.8709 11.4303 19.7466 10.8053C19.7354 10.749 19.7254 10.6925 19.7165 10.6358L14.1526 19.0674C14.0225 19.2646 13.7721 19.3438 13.5522 19.2574L4.41959 15.6653ZM19.9057 8.53365L13.5411 18.1784L4.46565 14.6088C3.88633 14.0376 3.60877 13.5077 3.52706 13.0375C3.46395 12.6743 3.51154 12.3122 3.66983 11.95L12.882 15.3801C13.0998 15.4612 13.3448 15.3816 13.4732 15.1878L19.1962 6.55446C19.2053 6.61335 19.2157 6.67199 19.2273 6.73044C19.3516 7.35554 19.6172 7.94254 19.9057 8.53365ZM19.1841 4.76288L11.1689 2.08708L4.24564 11.0973L12.859 14.3045L19.1841 4.76288Z" fill="black"/>
<path fill-rule="evenodd" clip-rule="evenodd" d="M11.4723 4.50245C11.7289 4.1632 12.172 4.02337 12.5768 4.15389L15.8018 5.19371C16.2595 5.34127 16.4355 5.89574 16.1468 6.28027L15.3969 7.27891C15.1354 7.62718 14.6785 7.76613 14.2674 7.62246L11.0971 6.51461C10.6489 6.35801 10.4833 5.8102 10.7697 5.43156L11.4723 4.50245ZM15.0944 6.01633L12.2699 5.10564L11.8156 5.7064L14.5973 6.67844L15.0944 6.01633Z" fill="black"/>
</g>
</svg>
