<svg width="32" height="32" viewBox="0 0 32 32" fill="none" xmlns="http://www.w3.org/2000/svg">
<path opacity="0.9" fill-rule="evenodd" clip-rule="evenodd" d="M14.9822 3.02674C14.7777 2.95707 14.5516 3.02666 14.4216 3.19926L5.60994 14.9011C5.60103 14.9129 5.59265 14.9252 5.58482 14.9377C5.11211 15.6975 4.89701 16.5385 5.04727 17.4209C5.17968 18.1985 5.58782 18.9618 6.269 19.6979C5.93445 20.364 5.79792 21.0846 5.92573 21.8352C6.07481 22.7107 6.57343 23.568 7.41774 24.3889C7.46445 24.4343 7.51959 24.4701 7.58005 24.4944L18.7167 28.9641C18.9387 29.0531 19.1926 28.9726 19.3226 28.7718L26.9197 17.0395C27.0146 16.8929 27.0262 16.7073 26.9501 16.5501C26.5474 15.717 26.2345 15.0533 26.1006 14.3659C25.9713 13.7026 26.0067 12.9974 26.3595 12.0996C26.4105 11.9698 26.405 11.8246 26.3443 11.6991C25.9415 10.866 25.6287 10.2023 25.4947 9.51497C25.3655 8.85166 25.4009 8.14643 25.7536 7.24861C25.8036 7.12147 25.7993 6.97942 25.7419 6.85549C25.6844 6.73155 25.5788 6.63652 25.4495 6.59247L14.9822 3.02674ZM6.91154 21.6673C6.8301 21.1891 6.89986 20.7151 7.11482 20.246L17.8382 24.5498C18.0603 24.6389 18.3144 24.5582 18.4443 24.3573L25.0558 14.1338C25.0705 14.2763 25.0918 14.4173 25.1191 14.5572C25.265 15.3062 25.5815 16.0104 25.9276 16.7318L18.707 27.8826L8.04578 23.6038C7.35275 22.9102 7.01208 22.2577 6.91154 21.6673ZM17.8283 23.4683L25.3218 11.881C24.9757 11.1595 24.6592 10.4553 24.5132 9.70625C24.4854 9.56381 24.4639 9.42033 24.4491 9.27524L17.6518 19.7385C17.5236 19.9359 17.275 20.0172 17.0549 19.9335L6.23978 15.8243C6.02214 16.2958 5.95121 16.7723 6.03308 17.253C6.13362 17.8435 6.47429 18.4959 7.16732 19.1895L17.8283 23.4683ZM16.4425 7.20906L20.3058 8.4801C20.4351 8.52262 20.4851 8.67902 20.4044 8.78862L19.4608 10.0709C19.33 10.2487 19.0981 10.3196 18.8902 10.2455L15.0909 8.89077C14.9644 8.84567 14.9174 8.6912 14.9974 8.5833L15.8845 7.3863C16.0129 7.21313 16.2378 7.1417 16.4425 7.20906Z" fill="black"/>
</svg>
