<svg width="24" height="24" viewBox="0 0 24 24" fill="none" xmlns="http://www.w3.org/2000/svg">
<path opacity="0.9" fill-rule="evenodd" clip-rule="evenodd" d="M11.1478 1.02576C10.9456 0.958263 10.7228 1.02637 10.593 1.19539L3.04013 11.0249C3.03104 11.0368 3.02248 11.049 3.01448 11.0616C2.60039 11.7138 2.40861 12.442 2.54182 13.2087C2.65627 13.8673 3.00247 14.5079 3.56987 15.1211C3.29587 15.6796 3.18504 16.285 3.29479 16.9166C3.42668 17.6757 3.86634 18.4107 4.59763 19.1075C4.64441 19.1521 4.69939 19.1872 4.75952 19.2108L14.3052 22.9653C14.525 23.0518 14.7752 22.9727 14.9054 22.7757L21.4172 12.9205C21.5152 12.7722 21.527 12.5831 21.4484 12.4237C21.1021 11.7218 20.8396 11.1744 20.7274 10.6102C20.6201 10.0708 20.6482 9.49579 20.9448 8.75612C20.9976 8.62429 20.9919 8.47621 20.9291 8.34884C20.5828 7.64698 20.3203 7.09962 20.2081 6.53539C20.1008 5.99603 20.1289 5.42097 20.4255 4.68131C20.4767 4.55346 20.473 4.41014 20.4151 4.28515C20.3572 4.16017 20.2504 4.06459 20.1197 4.02097L11.1478 1.02576ZM4.28002 16.7454C4.21735 16.3847 4.26386 16.0251 4.41959 15.6653L13.5522 19.2574C13.7721 19.3438 14.0225 19.2646 14.1526 19.0674L19.7165 10.6358C19.7254 10.6925 19.7354 10.749 19.7466 10.8053C19.8709 11.4303 20.1364 12.0172 20.4249 12.6083L14.2943 21.8865L5.21861 18.3168C4.63929 17.7456 4.36174 17.2157 4.28002 16.7454ZM13.5411 18.1784L19.9057 8.53365C19.6172 7.94254 19.3516 7.35554 19.2273 6.73044C19.2157 6.67199 19.2053 6.61335 19.1962 6.55447L13.4732 15.1878C13.3448 15.3816 13.0998 15.4612 12.882 15.3801L3.66983 11.95C3.51154 12.3122 3.46395 12.6743 3.52706 13.0375C3.60877 13.5077 3.88632 14.0376 4.46565 14.6088L13.5411 18.1784ZM12.4233 4.62976L15.6484 5.66959C15.7792 5.71175 15.8295 5.87017 15.747 5.98003L14.9971 6.97867C14.8663 7.15281 14.6379 7.22229 14.4323 7.15045L11.262 6.0426C11.134 5.99786 11.0866 5.84134 11.1685 5.73316L11.8711 4.80405C11.9994 4.63442 12.2209 4.5645 12.4233 4.62976Z" fill="black"/>
</svg>
