<svg width="32" height="32" viewBox="0 0 32 32" fill="none" xmlns="http://www.w3.org/2000/svg">
<g opacity="0.9">
<path fill-rule="evenodd" clip-rule="evenodd" d="M4 4H13V13H4V4ZM5 5V12H12V5H5Z" fill="black"/>
<path d="M7 7H10V10H7V7Z" fill="black"/>
<path fill-rule="evenodd" clip-rule="evenodd" d="M4 19H13V28H4V19ZM5 20V27H12V20H5Z" fill="black"/>
<path d="M7 22H10V25H7V22Z" fill="black"/>
<path fill-rule="evenodd" clip-rule="evenodd" d="M19 4H28V13H19V4ZM20 5V12H27V5H20Z" fill="black"/>
<path d="M22 7H25V10H22V7Z" fill="black"/>
<path d="M19 19H23V22H19V19Z" fill="black"/>
<path d="M15 26H17V28H15V26Z" fill="black"/>
<path d="M21 22H25V24H21V22Z" fill="black"/>
<path d="M15 10H17V12H15V10Z" fill="black"/>
<path d="M17 19H18V23H17V19Z" fill="black"/>
<path d="M17 24H18V26H17V24Z" fill="black"/>
<path d="M21 25H22V26H21V25Z" fill="black"/>
<path d="M15 20H16V21H15V20Z" fill="black"/>
<path d="M4 15H5V16H4V15Z" fill="black"/>
<path d="M24 25H25V26H24V25Z" fill="black"/>
<path d="M18 15H19V16H18V15Z" fill="black"/>
<path d="M7 15H8V16H7V15Z" fill="black"/>
<path d="M26 23H27V24H26V23Z" fill="black"/>
<path d="M26 20H27V21H26V20Z" fill="black"/>
<path d="M16 8H17V9H16V8Z" fill="black"/>
<path d="M15 4H16V6H15V4Z" fill="black"/>
<path d="M16 6H17V7H16V6Z" fill="black"/>
<path d="M15 9H16V10H15V9Z" fill="black"/>
<path d="M16 12H17V13H16V12Z" fill="black"/>
<path d="M25 21H26V22H25V21Z" fill="black"/>
<path d="M25 18H26V19H25V18Z" fill="black"/>
<path d="M27 21H28V22H27V21Z" fill="black"/>
<path d="M27 18H28V19H27V18Z" fill="black"/>
<path d="M27 16H28V17H27V16Z" fill="black"/>
<path d="M24 17H25V18H24V17Z" fill="black"/>
<path d="M25 17H26V18H25V17Z" fill="black"/>
<path d="M26 15H27V16H26V15Z" fill="black"/>
<path d="M24 15H25V16H24V15Z" fill="black"/>
<path d="M24 27H26V28H24V27Z" fill="black"/>
<path d="M7 16H9V17H7V16Z" fill="black"/>
<path d="M27 25H28V28H27V25Z" fill="black"/>
<path d="M21 15H22V18H21V15Z" fill="black"/>
<path d="M10 15H11V17H10V15Z" fill="black"/>
<path d="M12 15H14V16H12V15Z" fill="black"/>
<path d="M15 17H17V18H15V17Z" fill="black"/>
<path d="M23 25H24V26H23V25Z" fill="black"/>
<path d="M17 15H18V16H17V15Z" fill="black"/>
<path d="M6 15H7V16H6V15Z" fill="black"/>
<path d="M22 26H23V28H22V26Z" fill="black"/>
<path d="M16 16H17V18H16V16Z" fill="black"/>
<path d="M5 16H6V17H5V16Z" fill="black"/>
<path d="M19 26H20V28H19V26Z" fill="black"/>
<path d="M16 21H17V23H16V21Z" fill="black"/>
<path d="M22 17H23V18H22V17Z" fill="black"/>
</g>
</svg>
