<svg width="24" height="24" viewBox="0 0 24 24" fill="none" xmlns="http://www.w3.org/2000/svg">
<path fill-rule="evenodd" clip-rule="evenodd" d="M8 6C4.68629 6 2 8.68629 2 12C2 15.3137 4.68629 18 8 18C9.53671 18 10.9385 17.4223 12 16.4722C13.0615 17.4223 14.4633 18 16 18C19.3137 18 22 15.3137 22 12C22 8.68629 19.3137 6 16 6C14.4633 6 13.0615 6.57771 12 7.52779C10.9385 6.57771 9.53671 6 8 6ZM11.3124 8.2545C10.4303 7.47387 9.2705 7 8 7C5.23858 7 3 9.23858 3 12C3 14.7614 5.23858 17 8 17C9.2705 17 10.4303 16.5261 11.3124 15.7455C10.4911 14.719 10 13.4168 10 12C10 10.5832 10.4911 9.281 11.3124 8.2545ZM12 15.0005C11.3721 14.1647 11 13.1258 11 12C11 10.8742 11.3721 9.83526 12 8.99952C12.6279 9.83526 13 10.8742 13 12C13 13.1258 12.6279 14.1647 12 15.0005ZM12.6876 15.7455C13.5089 14.719 14 13.4168 14 12C14 10.5832 13.5089 9.28101 12.6876 8.2545C13.5697 7.47387 14.7295 7 16 7C18.7614 7 21 9.23858 21 12C21 14.7614 18.7614 17 16 17C14.7295 17 13.5697 16.5261 12.6876 15.7455Z" fill="black"/>
</svg>
