<svg width="16" height="16" viewBox="0 0 16 16" fill="none" xmlns="http://www.w3.org/2000/svg">
<path fill-rule="evenodd" clip-rule="evenodd" d="M5.5 3.5C3.01472 3.5 1 5.51472 1 8C1 10.4853 3.01472 12.5 5.5 12.5C6.42507 12.5 7.28495 12.2209 8 11.7422C8.71505 12.2209 9.57493 12.5 10.5 12.5C12.9853 12.5 15 10.4853 15 8C15 5.51472 12.9853 3.5 10.5 3.5C9.57493 3.5 8.71505 3.77914 8 4.25777C7.28495 3.77914 6.42507 3.5 5.5 3.5ZM7.20043 4.9401C6.69698 4.65973 6.11714 4.5 5.5 4.5C3.567 4.5 2 6.067 2 8C2 9.933 3.567 11.5 5.5 11.5C6.11714 11.5 6.69698 11.3403 7.20043 11.0599C6.45547 10.257 6 9.18167 6 8C6 6.81833 6.45547 5.74303 7.20043 4.9401ZM8 10.4495C7.38141 9.81822 7 8.95365 7 8C7 7.04635 7.38141 6.18178 8 5.55051C8.61859 6.18178 9 7.04635 9 8C9 8.95365 8.61859 9.81822 8 10.4495ZM8.79957 11.0599C9.54453 10.257 10 9.18167 10 8C10 6.81833 9.54453 5.74303 8.79957 4.9401C9.30302 4.65973 9.88286 4.5 10.5 4.5C12.433 4.5 14 6.067 14 8C14 9.933 12.433 11.5 10.5 11.5C9.88286 11.5 9.30302 11.3403 8.79957 11.0599Z" fill="black"/>
</svg>
