<svg width="24" height="24" viewBox="0 0 24 24" fill="none" xmlns="http://www.w3.org/2000/svg">
<path d="M14.5 12C14.5 13.7155 13.8355 15.2757 12.7498 16.4373C13.6603 17.1054 14.7841 17.5 16 17.5C19.0376 17.5 21.5 15.0376 21.5 12C21.5 8.96243 19.0376 6.5 16 6.5C14.7841 6.5 13.6603 6.89457 12.7498 7.56265C13.8355 8.7243 14.5 10.2845 14.5 12Z" fill="black"/>
<path d="M11.2502 7.56265C10.3397 6.89457 9.21592 6.5 8 6.5C4.96243 6.5 2.5 8.96243 2.5 12C2.5 15.0376 4.96243 17.5 8 17.5C9.21592 17.5 10.3397 17.1054 11.2502 16.4373C10.1645 15.2757 9.5 13.7155 9.5 12C9.5 10.2845 10.1645 8.7243 11.2502 7.56265Z" fill="black"/>
<path d="M12 15.7749C11.0701 14.7899 10.5 13.4615 10.5 12C10.5 10.5385 11.0701 9.21007 12 8.22506C12.9299 9.21007 13.5 10.5385 13.5 12C13.5 13.4615 12.9299 14.7899 12 15.7749Z" fill="black"/>
</svg>
