<svg width="16" height="16" viewBox="0 0 16 16" fill="none" xmlns="http://www.w3.org/2000/svg">
<g opacity="0.9">
<path fill-rule="evenodd" clip-rule="evenodd" d="M5.74747 10.2186C5.0379 10.1928 4.11509 10.4438 2.7941 11.4046C2.57077 11.567 2.25806 11.5176 2.09564 11.2943C1.93322 11.071 1.98259 10.7583 2.20591 10.5959C3.63492 9.55655 4.77461 9.18255 5.78379 9.21923C6.76157 9.25477 7.53859 9.67876 8.20618 10.043C8.2173 10.0491 8.22838 10.0551 8.23943 10.0612C8.93941 10.443 9.52786 10.7554 10.2526 10.7817C10.9621 10.8075 11.8849 10.5565 13.2059 9.59586C13.4293 9.43344 13.742 9.48282 13.9044 9.70615C14.0668 9.92948 14.0174 10.2422 13.7941 10.4046C12.3651 11.4438 11.2254 11.8178 10.2162 11.7811C9.23846 11.7455 8.46147 11.3215 7.7939 10.9573C7.78276 10.9512 7.77165 10.9451 7.76058 10.9391C7.06061 10.5573 6.47216 10.2449 5.74747 10.2186Z" fill="black"/>
<path fill-rule="evenodd" clip-rule="evenodd" d="M5.74747 5.21857C5.0379 5.19278 4.11509 5.44384 2.7941 6.40459C2.57077 6.56702 2.25806 6.51765 2.09564 6.29432C1.93322 6.071 1.98259 5.75829 2.20591 5.59587C3.63492 4.55655 4.77461 4.18255 5.78379 4.21923C6.76157 4.25477 7.53859 4.67876 8.20618 5.04304C8.2173 5.0491 8.22838 5.05515 8.23943 5.06118C8.93941 5.44298 9.52786 5.75536 10.2526 5.78173C10.9621 5.80755 11.8849 5.55654 13.2059 4.59586C13.4293 4.43344 13.742 4.48282 13.9044 4.70615C14.0668 4.92948 14.0174 5.24219 13.7941 5.4046C12.3651 6.44385 11.2254 6.81779 10.2162 6.78107C9.23846 6.7455 8.46147 6.32152 7.7939 5.95725C7.78276 5.95117 7.77165 5.94511 7.76058 5.93907C7.06061 5.55727 6.47216 5.24491 5.74747 5.21857Z" fill="black"/>
</g>
</svg>
