<svg width="32" height="32" viewBox="0 0 32 32" fill="none" xmlns="http://www.w3.org/2000/svg">
<g opacity="0.9">
<path fill-rule="evenodd" clip-rule="evenodd" d="M11.51 10.0502C9.95625 10.0326 7.99972 10.6456 5.30064 12.6764C5.07998 12.8424 4.76651 12.7981 4.60049 12.5775C4.43447 12.3568 4.47876 12.0433 4.69942 11.8773C7.50034 9.76989 9.66881 9.02925 11.5213 9.05024C13.364 9.07111 14.809 9.84981 16.1143 10.5613L16.1457 10.5784C17.4654 11.2978 18.6308 11.9331 20.053 11.9505C21.4674 11.9678 23.2302 11.3671 25.6812 9.33852C25.894 9.16246 26.2091 9.19218 26.3852 9.40491C26.5613 9.61764 26.5316 9.93282 26.3188 10.1089C23.7698 12.2186 21.7826 12.9717 20.0408 12.9504C18.3673 12.93 17.008 12.1882 15.7471 11.5001C15.7099 11.4798 15.6728 11.4595 15.6357 11.4394C14.3161 10.72 13.0736 10.0679 11.51 10.0502Z" fill="black"/>
<path fill-rule="evenodd" clip-rule="evenodd" d="M11.51 20.05C9.95625 20.0324 7.99972 20.6455 5.30064 22.6762C5.07998 22.8423 4.76651 22.798 4.60049 22.5773C4.43447 22.3567 4.47876 22.0432 4.69942 21.8772C7.50034 19.7698 9.66881 19.0291 11.5213 19.0501C13.364 19.071 14.809 19.8497 16.1143 20.5612L16.1457 20.5783C17.4654 21.2977 18.6308 21.933 20.053 21.9504C21.4674 21.9676 23.2302 21.367 25.6812 19.3384C25.894 19.1623 26.2091 19.192 26.3852 19.4048C26.5613 19.6175 26.5316 19.9327 26.3188 20.1088C23.7698 22.2185 21.7826 22.9716 20.0408 22.9503C18.3673 22.9298 17.008 22.188 15.7471 21.5C15.7099 21.4797 15.6728 21.4594 15.6357 21.4392C14.3161 20.7199 13.0736 20.0677 11.51 20.05Z" fill="black"/>
</g>
</svg>
