<svg width="24" height="24" viewBox="0 0 24 24" fill="none" xmlns="http://www.w3.org/2000/svg">
<g opacity="0.9">
<path d="M5.40194 11.5097C5.67272 11.4556 5.93613 11.6312 5.99029 11.9019L6.30707 13.4858L6.64645 13.1464C6.84171 12.9512 7.15829 12.9512 7.35355 13.1464L7.69293 13.4858L8.00971 11.9019C8.06387 11.6312 8.32728 11.4556 8.59806 11.5097C8.86884 11.5639 9.04445 11.8273 8.99029 12.0981L8.49029 14.5981C8.45413 14.7789 8.32138 14.9251 8.14489 14.9785C7.96841 15.032 7.77684 14.9839 7.64645 14.8536L7 14.2071L6.35355 14.8536C6.22316 14.9839 6.03159 15.032 5.85511 14.9785C5.67862 14.9251 5.54587 14.7789 5.50971 14.5981L5.00971 12.0981C4.95555 11.8273 5.13116 11.5639 5.40194 11.5097Z" fill="black"/>
<path d="M10.4019 11.5097C10.6727 11.4556 10.9361 11.6312 10.9903 11.9019L11.3071 13.4858L11.6464 13.1464C11.8417 12.9512 12.1583 12.9512 12.3536 13.1464L12.6929 13.4858L13.0097 11.9019C13.0639 11.6312 13.3273 11.4556 13.5981 11.5097C13.8688 11.5639 14.0444 11.8273 13.9903 12.0981L13.4903 14.5981C13.4541 14.7789 13.3214 14.9251 13.1449 14.9785C12.9684 15.032 12.7768 14.9839 12.6464 14.8536L12 14.2071L11.3536 14.8536C11.2232 14.9839 11.0316 15.032 10.8551 14.9785C10.6786 14.9251 10.5459 14.7789 10.5097 14.5981L10.0097 12.0981C9.95555 11.8273 10.1312 11.5639 10.4019 11.5097Z" fill="black"/>
<path d="M15.9903 11.9019C15.9361 11.6312 15.6727 11.4556 15.4019 11.5097C15.1312 11.5639 14.9556 11.8273 15.0097 12.0981L15.5097 14.5981C15.5459 14.7789 15.6786 14.9251 15.8551 14.9785C16.0316 15.032 16.2232 14.9839 16.3536 14.8536L17 14.2071L17.6464 14.8536C17.7768 14.9839 17.9684 15.032 18.1449 14.9785C18.3214 14.9251 18.4541 14.7789 18.4903 14.5981L18.9903 12.0981C19.0444 11.8273 18.8688 11.5639 18.5981 11.5097C18.3273 11.4556 18.0639 11.6312 18.0097 11.9019L17.6929 13.4858L17.3536 13.1464C17.1583 12.9512 16.8417 12.9512 16.6464 13.1464L16.3071 13.4858L15.9903 11.9019Z" fill="black"/>
<path fill-rule="evenodd" clip-rule="evenodd" d="M22 19C22 19.5523 21.5523 20 21 20H3C2.44772 20 2 19.5523 2 19V4C2 3.44772 2.44772 3 3 3H21C21.5523 3 22 3.44772 22 4V19ZM3 19V7H21V19H3ZM4.5 4C4.22386 4 4 4.44772 4 5C4 5.55228 4.22386 6 4.5 6C4.77614 6 5 5.55228 5 5C5 4.44772 4.77614 4 4.5 4ZM6.5 4C6.22386 4 6 4.44772 6 5C6 5.55228 6.22386 6 6.5 6C6.77614 6 7 5.55228 7 5C7 4.44772 6.77614 4 6.5 4ZM8 5C8 4.44772 8.22386 4 8.5 4C8.77614 4 9 4.44772 9 5C9 5.55228 8.77614 6 8.5 6C8.22386 6 8 5.55228 8 5Z" fill="black"/>
</g>
</svg>
