<svg width="32" height="32" viewBox="0 0 32 32" fill="none" xmlns="http://www.w3.org/2000/svg">
<g opacity="0.9">
<path fill-rule="evenodd" clip-rule="evenodd" d="M27 7H5V25H27V7ZM5 6C4.44772 6 4 6.44772 4 7V25C4 25.5523 4.44772 26 5 26H27C27.5523 26 28 25.5523 28 25V7C28 6.44772 27.5523 6 27 6H5Z" fill="black"/>
<path fill-rule="evenodd" clip-rule="evenodd" d="M27 7H5V11H27V7ZM5 6C4.44772 6 4 6.44772 4 7V12H28V7C28 6.44772 27.5523 6 27 6H5Z" fill="black"/>
<path d="M6 9C6 8.44772 6.44772 8 7 8C7.55228 8 8 8.44772 8 9C8 9.55228 7.55228 10 7 10C6.44772 10 6 9.55228 6 9Z" fill="black"/>
<path d="M9 9C9 8.44772 9.44772 8 10 8C10.5523 8 11 8.44772 11 9C11 9.55228 10.5523 10 10 10C9.44772 10 9 9.55228 9 9Z" fill="black"/>
<path d="M12 9C12 8.44772 12.4477 8 13 8C13.5523 8 14 8.44772 14 9C14 9.55228 13.5523 10 13 10C12.4477 10 12 9.55228 12 9Z" fill="black"/>
<path fill-rule="evenodd" clip-rule="evenodd" d="M7.89953 16.5102C8.17004 16.4547 8.43431 16.629 8.4898 16.8995L8.92136 19.0034L9.4971 18.442C9.69129 18.2527 10.001 18.2527 10.1952 18.442L10.771 19.0034L11.2025 16.8995C11.258 16.629 11.5223 16.4547 11.7928 16.5102C12.0633 16.5657 12.2376 16.83 12.1821 17.1005L11.5667 20.1005C11.53 20.2796 11.3984 20.4243 11.2237 20.478C11.0489 20.5316 10.8588 20.4856 10.7279 20.358L9.84615 19.4983L8.96443 20.358C8.83353 20.4856 8.64341 20.5316 8.46864 20.478C8.29387 20.4243 8.16232 20.2796 8.12558 20.1005L7.5102 17.1005C7.45471 16.83 7.62902 16.5657 7.89953 16.5102Z" fill="black"/>
<path fill-rule="evenodd" clip-rule="evenodd" d="M14.0534 16.5102C14.3239 16.4547 14.5882 16.629 14.6436 16.8995L15.0752 19.0034L15.6509 18.442C15.8451 18.2527 16.1549 18.2527 16.3491 18.442L16.9248 19.0034L17.3564 16.8995C17.4118 16.629 17.6761 16.4547 17.9466 16.5102C18.2171 16.5657 18.3914 16.83 18.336 17.1005L17.7206 20.1005C17.6838 20.2796 17.5523 20.4243 17.3775 20.478C17.2027 20.5316 17.0126 20.4856 16.8817 20.358L16 19.4983L15.1183 20.358C14.9874 20.4856 14.7973 20.5316 14.6225 20.478C14.4477 20.4243 14.3162 20.2796 14.2794 20.1005L13.664 17.1005C13.6086 16.83 13.7829 16.5657 14.0534 16.5102Z" fill="black"/>
<path fill-rule="evenodd" clip-rule="evenodd" d="M20.2072 16.5102C20.4777 16.4547 20.742 16.629 20.7975 16.8995L21.229 19.0034L21.8048 18.442C21.999 18.2527 22.3087 18.2527 22.5029 18.442L23.0786 19.0034L23.5102 16.8995C23.5657 16.629 23.83 16.4547 24.1005 16.5102C24.371 16.5657 24.5453 16.83 24.4898 17.1005L23.8744 20.1005C23.8377 20.2796 23.7061 20.4243 23.5314 20.478C23.3566 20.5316 23.1665 20.4856 23.0356 20.358L22.1538 19.4983L21.2721 20.358C21.1412 20.4856 20.9511 20.5316 20.7763 20.478C20.6016 20.4243 20.47 20.2796 20.4333 20.1005L19.8179 17.1005C19.7624 16.83 19.9367 16.5657 20.2072 16.5102Z" fill="black"/>
</g>
</svg>
