<svg width="32" height="32" viewBox="0 0 32 32" fill="none" xmlns="http://www.w3.org/2000/svg">
<g opacity="0.9">
<path d="M7.5 6C5.567 6 4 7.567 4 9.5V19.5C4 21.433 5.567 23 7.5 23H12.5C12.7761 23 13 22.7761 13 22.5C13 22.2239 12.7761 22 12.5 22H7.5C6.11929 22 5 20.8807 5 19.5V9.5C5 8.11929 6.11929 7 7.5 7H23.5C24.8807 7 26 8.11929 26 9.5V19.5C26 20.8807 24.8807 22 23.5 22H18.5C18.2239 22 18 22.2239 18 22.5C18 22.7761 18.2239 23 18.5 23H23.5C25.433 23 27 21.433 27 19.5V9.5C27 7.567 25.433 6 23.5 6H7.5Z" fill="black"/>
<path d="M19.6532 16.6935C19.8521 16.885 20.1686 16.879 20.3602 16.6801C20.5517 16.4812 20.5457 16.1647 20.3468 15.9732L15.5 11.3058L10.6532 15.9732C10.4543 16.1647 10.4483 16.4812 10.6398 16.6801C10.8314 16.879 11.1479 16.885 11.3468 16.6935L15 13.1756V29.5C15 29.7761 15.2239 30 15.5 30C15.7761 30 16 29.7761 16 29.5V13.1756L19.6532 16.6935Z" fill="black"/>
</g>
</svg>
