<svg width="16" height="16" viewBox="0 0 16 16" fill="none" xmlns="http://www.w3.org/2000/svg">
<path opacity="0.9" fill-rule="evenodd" clip-rule="evenodd" d="M3.5 3C2.11929 3 1 4.11929 1 5.5V10.5C1 11.8807 2.11929 13 3.5 13H5.5V11.5C4.98816 11.5 4.47631 11.3047 4.08579 10.9142C3.30474 10.1332 3.30474 8.86683 4.08579 8.08579L7.5 4.67157L10.9142 8.08579C11.6953 8.86684 11.6953 10.1332 10.9142 10.9142C10.5237 11.3047 10.0118 11.5 9.5 11.5V13H11.5C12.8807 13 14 11.8807 14 10.5V5.5C14 4.11929 12.8807 3 11.5 3H3.5ZM9.14645 9.85355C9.34171 10.0488 9.65829 10.0488 9.85355 9.85355C10.0488 9.65829 10.0488 9.34171 9.85355 9.14645L7.5 6.79289L5.14645 9.14645C4.95118 9.34171 4.95118 9.65829 5.14645 9.85355C5.34171 10.0488 5.65829 10.0488 5.85355 9.85355L7 8.70711L7 15.5C7 15.7761 7.22386 16 7.5 16C7.77614 16 8 15.7761 8 15.5L8 8.70711L9.14645 9.85355Z" fill="black"/>
</svg>
