<svg width="16" height="16" viewBox="0 0 16 16" fill="none" xmlns="http://www.w3.org/2000/svg">
<path d="M3.5 3C2.11929 3 1 4.11929 1 5.5V10.5C1 11.8807 2.11929 13 3.5 13H4.5C4.77614 13 5 12.7761 5 12.5C5 12.2239 4.77614 12 4.5 12H3.5C2.67157 12 2 11.3284 2 10.5V5.5C2 4.67157 2.67157 4 3.5 4H11.5C12.3284 4 13 4.67157 13 5.5V10.5C13 11.3284 12.3284 12 11.5 12H10.5C10.2239 12 10 12.2239 10 12.5C10 12.7761 10.2239 13 10.5 13H11.5C12.8807 13 14 11.8807 14 10.5V5.5C14 4.11929 12.8807 3 11.5 3H3.5Z" fill="black"/>
<path d="M9.14645 8.85357C9.34171 9.04883 9.65829 9.04883 9.85355 8.85357C10.0488 8.65831 10.0488 8.34172 9.85355 8.14646L7.5 5.79291L5.14645 8.14646C4.95118 8.34172 4.95118 8.65831 5.14645 8.85357C5.34171 9.04883 5.65829 9.04883 5.85355 8.85357L7 7.70712L7 14.5C7 14.7762 7.22386 15 7.5 15C7.77614 15 8 14.7762 8 14.5L8 7.70712L9.14645 8.85357Z" fill="black"/>
</svg>
