<svg width="32" height="33" viewBox="0 0 32 33" fill="none" xmlns="http://www.w3.org/2000/svg">
<path opacity="0.9" fill-rule="evenodd" clip-rule="evenodd" d="M23.4303 24.5454C25.6294 22.4507 27 19.4939 27 16.217C27 9.86577 21.8513 4.71704 15.5 4.71704C9.14873 4.71704 4 9.86577 4 16.217C4 22.5683 9.14873 27.717 15.5 27.717C18.2202 27.717 20.7198 26.7726 22.6888 25.1937C22.7092 25.2274 22.734 25.2593 22.7631 25.2884L28.8385 31.3637C29.0337 31.559 29.3503 31.559 29.5456 31.3637C29.7408 31.1685 29.7408 30.8519 29.5456 30.6566L23.4702 24.5813C23.4574 24.5685 23.4441 24.5565 23.4303 24.5454ZM16 11.217C16 10.9409 15.7761 10.717 15.5 10.717C15.2239 10.717 15 10.9409 15 11.217V15.717H10.5C10.2239 15.717 10 15.9409 10 16.217C10 16.4932 10.2239 16.717 10.5 16.717H15V21.217C15 21.4932 15.2239 21.717 15.5 21.717C15.7761 21.717 16 21.4932 16 21.217V16.717H20.5C20.7761 16.717 21 16.4932 21 16.217C21 15.9409 20.7761 15.717 20.5 15.717H16V11.217Z" fill="black"/>
</svg>
