<svg width="24" height="25" viewBox="0 0 24 25" fill="none" xmlns="http://www.w3.org/2000/svg">
<g opacity="0.9">
<path d="M11.5 7.71704C11.7761 7.71704 12 7.9409 12 8.21704V11.717H15.5C15.7761 11.717 16 11.9409 16 12.217C16 12.4932 15.7761 12.717 15.5 12.717H12V16.217C12 16.4932 11.7761 16.717 11.5 16.717C11.2239 16.717 11 16.4932 11 16.217V12.717H7.5C7.22386 12.717 7 12.4932 7 12.217C7 11.9409 7.22386 11.717 7.5 11.717H11V8.21704C11 7.9409 11.2239 7.71704 11.5 7.71704Z" fill="black"/>
<path fill-rule="evenodd" clip-rule="evenodd" d="M17.4779 19.6009C15.8453 20.9242 13.7653 21.717 11.5 21.717C6.25329 21.717 2 17.4637 2 12.217C2 6.97034 6.25329 2.71704 11.5 2.71704C16.7467 2.71704 21 6.97034 21 12.217C21 14.8383 19.9384 17.2116 18.2216 18.9304L21.9473 22.6563C22.1426 22.8515 22.1426 23.1681 21.9473 23.3634C21.752 23.5586 21.4354 23.5586 21.2402 23.3634L17.4779 19.6009ZM17.1097 18.6032C15.6129 19.9191 13.6496 20.717 11.5 20.717C6.80558 20.717 3 16.9115 3 12.217C3 7.52262 6.80558 3.71704 11.5 3.71704C16.1944 3.71704 20 7.52262 20 12.217C20 14.7028 18.933 16.9393 17.232 18.4936C17.2016 18.5129 17.1729 18.5358 17.1464 18.5623C17.1333 18.5754 17.1211 18.589 17.1097 18.6032Z" fill="black"/>
</g>
</svg>
