<svg width="16" height="17" viewBox="0 0 16 17" fill="none" xmlns="http://www.w3.org/2000/svg">
<g clip-path="url(#clip0)">
<g opacity="0.9">
<path d="M7.5 4.71704C7.77614 4.71704 8 4.9409 8 5.21704V7.71704H10.5C10.7761 7.71704 11 7.9409 11 8.21704C11 8.49318 10.7761 8.71704 10.5 8.71704H8V11.217C8 11.4932 7.77614 11.717 7.5 11.717C7.22386 11.717 7 11.4932 7 11.217V8.71704H4.5C4.22386 8.71704 4 8.49318 4 8.21704C4 7.9409 4.22386 7.71704 4.5 7.71704H7V5.21704C7 4.9409 7.22386 4.71704 7.5 4.71704Z" fill="black"/>
<path fill-rule="evenodd" clip-rule="evenodd" d="M11.6095 13.2533C10.4896 14.1683 9.0589 14.717 7.5 14.717C3.91015 14.717 1 11.8069 1 8.21704C1 4.62719 3.91015 1.71704 7.5 1.71704C11.0899 1.71704 14 4.62719 14 8.21704C14 9.89213 13.3664 11.4192 12.3257 12.5717C12.3422 12.5845 12.358 12.5984 12.3731 12.6136L15.416 15.6565C15.6113 15.8517 15.6113 16.1683 15.416 16.3636C15.2208 16.5588 14.9042 16.5588 14.7089 16.3636L11.666 13.3207C11.6449 13.2995 11.6261 13.277 11.6095 13.2533ZM13 8.21704C13 11.2546 10.5376 13.717 7.5 13.717C4.46243 13.717 2 11.2546 2 8.21704C2 5.17947 4.46243 2.71704 7.5 2.71704C10.5376 2.71704 13 5.17947 13 8.21704Z" fill="black"/>
</g>
</g>
<defs>
<clipPath id="clip0">
<rect width="16" height="16" fill="white" transform="translate(0 0.717041)"/>
</clipPath>
</defs>
</svg>
