<svg width="24" height="25" viewBox="0 0 24 25" fill="none" xmlns="http://www.w3.org/2000/svg">
<path opacity="0.9" fill-rule="evenodd" clip-rule="evenodd" d="M18.2215 18.9306C19.9383 17.2117 21 14.8384 21 12.217C21 6.97034 16.7467 2.71704 11.5 2.71704C6.25329 2.71704 2 6.97034 2 12.217C2 17.4637 6.25329 21.717 11.5 21.717C13.7652 21.717 15.8452 20.9243 17.4777 19.601L21.2402 23.3637C21.4354 23.559 21.752 23.559 21.9473 23.3637C22.1426 23.1685 22.1426 22.8519 21.9473 22.6566L18.2215 18.9306ZM11.5 7.71704C11.7761 7.71704 12 7.9409 12 8.21704V11.717H15.5C15.7761 11.717 16 11.9409 16 12.217C16 12.4932 15.7761 12.717 15.5 12.717H12V16.217C12 16.4932 11.7761 16.717 11.5 16.717C11.2239 16.717 11 16.4932 11 16.217V12.717H7.5C7.22386 12.717 7 12.4932 7 12.217C7 11.9409 7.22386 11.717 7.5 11.717H11V8.21704C11 7.9409 11.2239 7.71704 11.5 7.71704Z" fill="black"/>
</svg>
