<svg width="32" height="33" viewBox="0 0 32 33" fill="none" xmlns="http://www.w3.org/2000/svg">
<g opacity="0.9">
<path d="M16 11.217C16 10.9409 15.7761 10.717 15.5 10.717C15.2239 10.717 15 10.9409 15 11.217V15.717H10.5C10.2239 15.717 10 15.9409 10 16.217C10 16.4932 10.2239 16.717 10.5 16.717H15V21.217C15 21.4932 15.2239 21.717 15.5 21.717C15.7761 21.717 16 21.4932 16 21.217V16.717H20.5C20.7761 16.717 21 16.4932 21 16.217C21 15.9409 20.7761 15.717 20.5 15.717H16V11.217Z" fill="black"/>
<path fill-rule="evenodd" clip-rule="evenodd" d="M22.6887 25.1938C20.7198 26.7726 18.2202 27.717 15.5 27.717C9.14873 27.717 4 22.5683 4 16.217C4 9.86577 9.14873 4.71704 15.5 4.71704C21.8513 4.71704 27 9.86577 27 16.217C27 19.4939 25.6294 22.4507 23.4302 24.5454C23.444 24.5566 23.4574 24.5685 23.4702 24.5813L29.5456 30.6567C29.7408 30.852 29.7408 31.1685 29.5456 31.3638C29.3503 31.5591 29.0337 31.5591 28.8384 31.3638L22.7631 25.2884C22.734 25.2593 22.7092 25.2275 22.6887 25.1938ZM26 16.217C26 22.016 21.299 26.717 15.5 26.717C9.70101 26.717 5 22.016 5 16.217C5 10.4181 9.70101 5.71704 15.5 5.71704C21.299 5.71704 26 10.4181 26 16.217Z" fill="black"/>
</g>
</svg>
