<svg width="16" height="16" viewBox="0 0 16 16" fill="none" xmlns="http://www.w3.org/2000/svg">
<path opacity="0.9" fill-rule="evenodd" clip-rule="evenodd" d="M5 1.5C5 1.22386 4.77614 1 4.5 1C4.22386 1 4 1.22386 4 1.5V14.5C4 14.7761 4.22386 15 4.5 15C4.77614 15 5 14.7761 5 14.5L5 9H8V10.5C8 10.8177 8.07224 11.1933 8.32702 11.4997C8.5937 11.8205 8.99433 11.9873 9.48715 12H12.6315C13.8295 12 14.5441 10.6648 13.8796 9.66795L13.1009 8.5L13.8796 7.33205C14.5439 6.33561 13.8305 5 12.632 5H10V3.5C10 2.67157 9.32843 2 8.5 2H5V1.5ZM10 9.5V6H12.632C13.0309 6 13.2693 6.44468 13.0475 6.77735L11.8991 8.5L13.0475 10.2227C13.269 10.5549 13.0308 11 12.6315 11H9.50693C9.2349 10.9919 9.13667 10.9094 9.09598 10.8604C9.04999 10.8051 9.0114 10.7113 9.00213 10.5679C9.04451 10.5387 9.11046 10.5038 9.22362 10.4472L9.24147 10.4383C9.35331 10.3825 9.52434 10.2972 9.66385 10.181C9.82749 10.0446 10 9.82256 10 9.5ZM5 8H8.5C8.67614 8 8.84466 8.03668 9 8.09877V3.5C9 3.22386 8.77614 3 8.5 3H5L5 8Z" fill="black"/>
</svg>
