<svg width="24" height="24" viewBox="0 0 24 24" fill="none" xmlns="http://www.w3.org/2000/svg">
<path opacity="0.9" fill-rule="evenodd" clip-rule="evenodd" d="M6 2.5L6.00001 21.5C6.00001 21.7761 6.22387 22 6.50001 22C6.77615 22 7.00001 21.7761 7.00001 21.5L7 14H11L11 16.5C11 17.0061 11.1667 17.4151 11.4979 17.6833C11.8094 17.9354 12.1905 18 12.5 18H18.9194C20.1771 18 20.8764 16.5451 20.0907 15.563L17.6403 12.5L20.0907 9.43704C20.8763 8.45502 20.1775 7 18.9195 7H14V4.5C14 3.67157 13.3284 3 12.5 3H7L7 2.5C7 2.22386 6.77614 2 6.5 2C6.22386 2 6 2.22386 6 2.5ZM12 15.1253V14H12.5C12.5874 14 12.7166 14.0487 12.834 14.1661C12.9316 14.2637 12.9818 14.3697 12.9958 14.4528C12.9716 14.7169 12.8474 14.8319 12.7383 14.8989C12.6662 14.9432 12.59 14.9706 12.5296 14.9864C12.5002 14.9941 12.4771 14.9984 12.4634 15.0006L12.4524 15.0023L12.4433 15.003L12.4289 15.0051L12.4275 15.0053L12.4253 15.0056L12.4198 15.0065L12.4043 15.009C12.3921 15.0111 12.3762 15.014 12.3571 15.0179C12.3189 15.0257 12.2672 15.0376 12.2064 15.0549C12.1471 15.0719 12.0766 15.0948 12 15.1253ZM12.5 15.5C12.4293 15.005 12.4289 15.0051 12.4289 15.0051L12.5 15.5ZM12 16.499L12 16.5C12 16.7796 12.0833 16.8706 12.1271 16.906C12.1906 16.9574 12.3095 17 12.5 17H18.9194C19.3386 17 19.5717 16.515 19.3098 16.1877L16.3597 12.5L19.3098 8.81235C19.5718 8.48485 19.3386 8 18.9195 8H14V14.5H13.9952C13.9513 15.1393 13.6147 15.5342 13.2617 15.751C13.0838 15.8603 12.91 15.9205 12.783 15.9538C12.7185 15.9706 12.6636 15.9813 12.6226 15.9879C12.602 15.9912 12.5847 15.9935 12.5713 15.9952L12.5685 15.9955L12.557 15.9977C12.5405 16.0011 12.514 16.0071 12.4811 16.0165C12.4134 16.0358 12.3284 16.0668 12.2481 16.1127C12.0933 16.2011 12.0004 16.311 12 16.499ZM13 4.5V13.0988C12.8447 13.0367 12.6761 13 12.5 13H7.00001V4H12.5C12.7762 4 13 4.22386 13 4.5Z" fill="black"/>
</svg>
