<svg width="24" height="24" viewBox="0 0 24 24" fill="none" xmlns="http://www.w3.org/2000/svg">
<g opacity="0.9">
<path fill-rule="evenodd" clip-rule="evenodd" d="M4 4C2.89543 4 2 4.89543 2 6V18C2 19.1046 2.89543 20 4 20H14.5247C14.5084 19.8355 14.5 19.6687 14.5 19.5C14.5 16.7386 16.7386 14.5 19.5 14.5C20.4107 14.5 21.2646 14.7435 22 15.1689V6C22 4.89543 21.1046 4 20 4H4ZM12.4755 8.46353C12.3259 8.00287 11.6741 8.00287 11.5245 8.46352L10.9897 10.1094C10.9227 10.3154 10.7308 10.4549 10.5142 10.4549H8.78356C8.2992 10.4549 8.09781 11.0747 8.48967 11.3594L9.88975 12.3766C10.065 12.504 10.1383 12.7296 10.0714 12.9357L9.5366 14.5816C9.38693 15.0422 9.91417 15.4253 10.306 15.1406L11.7061 14.1234C11.8814 13.996 12.1186 13.996 12.2939 14.1234L13.694 15.1406C14.0858 15.4253 14.6131 15.0422 14.4634 14.5816L13.9286 12.9357C13.8617 12.7297 13.935 12.504 14.1102 12.3766L15.5103 11.3594C15.9022 11.0747 15.7008 10.4549 15.2164 10.4549H13.4858C13.2692 10.4549 13.0773 10.3154 13.0103 10.1094L12.4755 8.46353Z" fill="black"/>
<path d="M19.5 16C19.7761 16 20 16.2239 20 16.5V19H22.5C22.7761 19 23 19.2239 23 19.5C23 19.7761 22.7761 20 22.5 20H20V22.5C20 22.7761 19.7761 23 19.5 23C19.2239 23 19 22.7761 19 22.5V20H16.5C16.2239 20 16 19.7761 16 19.5C16 19.2239 16.2239 19 16.5 19H19V16.5C19 16.2239 19.2239 16 19.5 16Z" fill="black"/>
</g>
</svg>
