<svg width="24" height="24" viewBox="0 0 24 24" fill="none" xmlns="http://www.w3.org/2000/svg">
<path opacity="0.9" fill-rule="evenodd" clip-rule="evenodd" d="M9.49735 2C9.22121 2 8.99735 2.22386 8.99735 2.5V5.67376C8.65515 5.83631 8.3283 6.02575 8.01954 6.23933L5.2701 4.65195C5.03096 4.51388 4.72516 4.59581 4.58709 4.83496L2.08709 9.16509C1.94902 9.40423 2.03096 9.71003 2.2701 9.8481L5.0198 11.4356C5.00493 11.6219 4.99735 11.8101 4.99735 12C4.99735 12.1899 5.00493 12.3781 5.0198 12.5644L2.2701 14.1519C2.15526 14.2183 2.07146 14.3275 2.03714 14.4556C2.00282 14.5836 2.02079 14.7201 2.08709 14.835L4.58709 19.1651C4.65339 19.2799 4.7626 19.3637 4.89069 19.3981C5.01878 19.4324 5.15526 19.4144 5.2701 19.3481L8.01957 17.7607C8.32832 17.9743 8.65516 18.1637 8.99735 18.3262V21.5C8.99735 21.7761 9.22121 22 9.49735 22H14.4974C14.7735 22 14.9974 21.7761 14.9974 21.5V18.3262C15.3395 18.1637 15.6664 17.9743 15.9751 17.7607L18.7246 19.3481C18.8394 19.4144 18.9759 19.4324 19.104 19.3981C19.2321 19.3637 19.3413 19.2799 19.4076 19.1651L21.9076 14.835C22.0457 14.5958 21.9637 14.29 21.7246 14.1519L18.9749 12.5644C18.9898 12.3781 18.9974 12.1899 18.9974 12C18.9974 11.8101 18.9898 11.6219 18.9749 11.4356L21.7246 9.8481C21.8394 9.7818 21.9232 9.67259 21.9576 9.5445C21.9919 9.41641 21.9739 9.27993 21.9076 9.16509L19.4076 4.83496C19.2695 4.59581 18.9637 4.51388 18.7246 4.65195L15.9752 6.23933C15.6664 6.02575 15.3396 5.83631 14.9974 5.67376V2.5C14.9974 2.22386 14.7735 2 14.4974 2H9.49735ZM9.99734 12C9.99734 10.8954 10.8928 10 11.9973 10C13.1019 10 13.9973 10.8954 13.9973 12C13.9973 13.1046 13.1019 14 11.9973 14C10.8928 14 9.99734 13.1046 9.99734 12Z" fill="black"/>
</svg>
