<svg width="16" height="16" viewBox="0 0 16 16" fill="none" xmlns="http://www.w3.org/2000/svg">
<path opacity="0.9" fill-rule="evenodd" clip-rule="evenodd" d="M5.99529 0.5C5.99529 0.223858 6.21914 0 6.49529 0H9.49529C9.77143 0 9.99529 0.223858 9.99529 0.5V2.34155C10.6979 2.58991 11.3402 2.96521 11.8945 3.43959L13.4905 2.51816C13.6053 2.45186 13.7418 2.43389 13.8699 2.46821C13.998 2.50253 14.1072 2.58633 14.1735 2.70117L15.6735 5.29925C15.8115 5.53839 15.7296 5.84419 15.4905 5.98226L13.8952 6.90329C13.961 7.25917 13.9953 7.62577 13.9953 8C13.9953 8.37436 13.9609 8.74109 13.8951 9.09709L15.4905 10.0182C15.7296 10.1562 15.8115 10.462 15.6735 10.7012L14.1735 13.2992C14.1072 13.4141 13.998 13.4979 13.8699 13.5322C13.7418 13.5665 13.6053 13.5486 13.4905 13.4823L11.8942 12.5607C11.3399 13.0349 10.6978 13.4101 9.99529 13.6584V15.5C9.99529 15.7761 9.77143 16 9.49529 16H6.49529C6.21914 16 5.99529 15.7761 5.99529 15.5V13.6584C5.29275 13.4101 4.65063 13.0349 4.09636 12.5607L2.50008 13.4823C2.26094 13.6203 1.95514 13.5384 1.81707 13.2992L0.317071 10.7012C0.179 10.462 0.260937 10.1562 0.500083 10.0182L2.09545 9.09708C2.02963 8.74109 1.99529 8.37436 1.99529 8C1.99529 7.62577 2.02961 7.25917 2.09538 6.9033L0.500084 5.98226C0.385241 5.91596 0.301442 5.80675 0.267121 5.67866C0.232799 5.55057 0.250767 5.41409 0.317071 5.29925L1.81707 2.70117C1.95514 2.46202 2.26094 2.38009 2.50008 2.51816L4.09606 3.4396C4.65041 2.96522 5.29263 2.58991 5.99529 2.34155V0.5ZM6.99529 1V2.70703C6.99529 2.93077 6.84666 3.12727 6.63137 3.18816C5.82334 3.4167 5.0978 3.8437 4.51103 4.41392C4.35064 4.56978 4.10625 4.60018 3.91257 4.48836L2.4331 3.63418L1.4331 5.36623L2.91148 6.21978C3.10504 6.33153 3.20092 6.55815 3.14635 6.77488C3.04778 7.16638 2.99529 7.57671 2.99529 8C2.99529 8.42341 3.04781 8.83385 3.14644 9.22545C3.20102 9.44219 3.10514 9.66883 2.91158 9.78058L1.4331 10.6342L2.4331 12.3662L3.91284 11.5119C4.10651 11.4001 4.35089 11.4305 4.51128 11.5863C5.098 12.1564 5.82345 12.5833 6.63137 12.8118C6.84665 12.8727 6.99529 13.0692 6.99529 13.293V15H8.99529V13.293C8.99529 13.0692 9.14392 12.8727 9.35921 12.8118C10.1671 12.5833 10.8926 12.1564 11.4793 11.5863C11.6397 11.4305 11.8841 11.4001 12.0777 11.5119L13.5575 12.3662L14.5575 10.6342L13.079 9.7806C12.8854 9.66884 12.7895 9.4422 12.8441 9.22547C12.9428 8.83386 12.9953 8.42342 12.9953 8C12.9953 7.5767 12.9428 7.16637 12.8442 6.77487C12.7896 6.55814 12.8855 6.33152 13.0791 6.21977L14.5575 5.36624L13.5575 3.63418L12.078 4.48835C11.8843 4.60017 11.6399 4.56977 11.4795 4.41391C10.8928 3.84369 10.1672 3.4167 9.35921 3.18816C9.14392 3.12727 8.99529 2.93077 8.99529 2.70703V1H6.99529ZM7.99526 6C6.89069 6 5.99526 6.89543 5.99526 8C5.99526 9.10457 6.89069 10 7.99526 10C9.09983 10 9.99526 9.10457 9.99526 8C9.99526 6.89543 9.09983 6 7.99526 6ZM4.99526 8C4.99526 6.34315 6.33841 5 7.99526 5C9.65211 5 10.9953 6.34315 10.9953 8C10.9953 9.65685 9.65211 11 7.99526 11C6.33841 11 4.99526 9.65685 4.99526 8Z" fill="black"/>
</svg>
