<svg width="16" height="16" viewBox="0 0 16 16" fill="none" xmlns="http://www.w3.org/2000/svg">
<path opacity="0.9" fill-rule="evenodd" clip-rule="evenodd" d="M6.49529 0C6.21914 0 5.99529 0.223858 5.99529 0.5V2.34155C5.29263 2.58991 4.65041 2.96522 4.09606 3.4396L2.50008 2.51816C2.26094 2.38009 1.95514 2.46202 1.81707 2.70117L0.317071 5.29925C0.250767 5.41409 0.232799 5.55057 0.267121 5.67866C0.301442 5.80675 0.385241 5.91596 0.500084 5.98226L2.09538 6.9033C2.02961 7.25917 1.99529 7.62577 1.99529 8C1.99529 8.37436 2.02963 8.74109 2.09545 9.09708L0.500083 10.0182C0.260937 10.1562 0.179 10.462 0.317071 10.7012L1.81707 13.2992C1.95514 13.5384 2.26094 13.6203 2.50008 13.4823L4.09636 12.5607C4.65063 13.0349 5.29275 13.4101 5.99529 13.6584V15.5C5.99529 15.7761 6.21914 16 6.49529 16H9.49529C9.77143 16 9.99529 15.7761 9.99529 15.5V13.6584C10.6978 13.4101 11.3399 13.0349 11.8942 12.5607L13.4905 13.4823C13.6053 13.5486 13.7418 13.5665 13.8699 13.5322C13.998 13.4979 14.1072 13.4141 14.1735 13.2992L15.6735 10.7012C15.8115 10.462 15.7296 10.1562 15.4905 10.0182L13.8951 9.09709C13.9609 8.74109 13.9953 8.37436 13.9953 8C13.9953 7.62577 13.961 7.25917 13.8952 6.90329L15.4905 5.98226C15.7296 5.84419 15.8115 5.53839 15.6735 5.29925L14.1735 2.70117C14.1072 2.58633 13.998 2.50253 13.8699 2.46821C13.7418 2.43389 13.6053 2.45186 13.4905 2.51816L11.8945 3.43959C11.3402 2.96521 10.6979 2.58991 9.99529 2.34155V0.5C9.99529 0.223858 9.77143 0 9.49529 0H6.49529ZM5.99526 8C5.99526 6.89543 6.89069 6 7.99526 6C9.09983 6 9.99526 6.89543 9.99526 8C9.99526 9.10457 9.09983 10 7.99526 10C6.89069 10 5.99526 9.10457 5.99526 8Z" fill="black"/>
</svg>
