<svg width="16" height="16" viewBox="0 0 16 16" fill="none" xmlns="http://www.w3.org/2000/svg">
<g opacity="0.9">
<path d="M7.42146 4.44675L6.16458 7.58898C6.08575 7.78604 6.23088 8.00039 6.44312 8.00039H7.70001C7.86569 8.00039 8.00001 8.13471 8.00001 8.30039V9.79754C8.00001 10.1332 8.46723 10.2155 8.58195 9.90006L9.85364 6.40292C9.92478 6.20726 9.77989 6.00039 9.5717 6.00039H8.30001C8.13432 6.00039 8.00001 5.86608 8.00001 5.70039V4.55817C8.00001 4.22785 7.54414 4.14006 7.42146 4.44675Z" fill="black"/>
<path fill-rule="evenodd" clip-rule="evenodd" d="M1 4C1 2.89543 1.89543 2 3 2H13C14.1046 2 15 2.89543 15 4V10C15 11.1046 14.1046 12 13 12H5.31946C5.11166 12 4.90902 12.0647 4.73971 12.1852L1.78988 14.2841C1.45885 14.5197 1 14.283 1 13.8767V4ZM3 3H13C13.5523 3 14 3.44772 14 4V10C14 10.5523 13.5523 11 13 11H5.31946C4.90386 11 4.49858 11.1295 4.15995 11.3704L2 12.9073V4C2 3.44771 2.44771 3 3 3Z" fill="black"/>
</g>
</svg>
