<svg width="32" height="32" viewBox="0 0 32 32" fill="none" xmlns="http://www.w3.org/2000/svg">
<path opacity="0.9" d="M11.8571 23.5L11.5978 23.5725L6.25933 26.811C5.92611 27.0131 5.5 26.7733 5.5 26.3835V10C5.5 8.61929 6.61929 7.5 8 7.5H26C27.3807 7.5 28.5 8.61929 28.5 10V21C28.5 22.3807 27.3807 23.5 26 23.5H11.8571ZM15.9509 9.3735L13.6838 15.4191C13.4877 15.9421 13.8743 16.5 14.4329 16.5H16.5V20.3456C16.5 21.2362 17.7363 21.4604 18.0491 20.6265L20.3162 14.5809L19.848 14.4053L20.3162 14.5809C20.5123 14.0579 20.1257 13.5 19.5671 13.5H17.5V9.6544C17.5 8.76376 16.2637 8.53957 15.9509 9.3735Z" fill="black" stroke="black" stroke-linejoin="bevel"/>
</svg>
