<svg width="16" height="16" viewBox="0 0 16 16" fill="none" xmlns="http://www.w3.org/2000/svg">
<g opacity="0.9">
<path d="M0.5 2.5C0.5 2.22386 0.723858 2 1 2H3.5C4.32843 2 5 2.67157 5 3.5V12.5C5 13.3284 4.32843 14 3.5 14H1C0.723858 14 0.5 13.7761 0.5 13.5C0.5 13.2239 0.723858 13 1 13H3.5C3.77614 13 4 12.7761 4 12.5V3.5C4 3.22386 3.77614 3 3.5 3H1C0.723858 3 0.5 2.77614 0.5 2.5Z" fill="black"/>
<path d="M7 3.5C7 2.67157 7.67157 2 8.5 2H13.5C14.3284 2 15 2.67157 15 3.5V12.5C15 13.3284 14.3284 14 13.5 14H8.5C7.67157 14 7 13.3284 7 12.5V10.5C7 10.2239 7.22386 10 7.5 10C7.77614 10 8 10.2239 8 10.5V12.5C8 12.7761 8.22386 13 8.5 13H13.5C13.7761 13 14 12.7761 14 12.5V3.5C14 3.22386 13.7761 3 13.5 3H8.5C8.22386 3 8 3.22386 8 3.5V4.5C8 4.77614 7.77614 5 7.5 5C7.22386 5 7 4.77614 7 4.5V3.5Z" fill="black"/>
<path d="M9.14643 6.35355C8.95117 6.15829 8.95117 5.84171 9.14643 5.64645C9.34169 5.45118 9.65828 5.45118 9.85354 5.64645L11.7071 7.5L9.85354 9.35355C9.65828 9.54882 9.34169 9.54882 9.14643 9.35355C8.95117 9.15829 8.95117 8.84171 9.14643 8.64645L9.79288 8H6.49999C6.22384 8 5.99999 7.77614 5.99999 7.5C5.99999 7.22386 6.22384 7 6.49999 7H9.79288L9.14643 6.35355Z" fill="black"/>
</g>
</svg>
