<svg width="24" height="24" viewBox="0 0 24 24" fill="none" xmlns="http://www.w3.org/2000/svg">
<g opacity="0.9">
<path d="M1.5 3C1.22386 3 1 3.22386 1 3.5V20.5C1 20.6326 1.05268 20.7598 1.14645 20.8536C1.24021 20.9473 1.36739 21 1.5 21H5.5C6.32843 21 7 20.3284 7 19.5V4.5C7 3.67157 6.32843 3 5.5 3H1.5Z" fill="black"/>
<path d="M13 13H9V19.5C9 20.3284 9.67157 21 10.5 21H20.5C21.3284 21 22 20.3284 22 19.5V4.5C22 3.67157 21.3284 3 20.5 3H10.5C9.67157 3 9 3.67157 9 4.5V10H13C13 9.61612 13.1464 9.23223 13.4393 8.93934C14.0251 8.35355 14.9749 8.35355 15.5607 8.93934L18.1213 11.5L15.5607 14.0607C14.9749 14.6464 14.0251 14.6464 13.4393 14.0607C13.1464 13.7678 13 13.3839 13 13Z" fill="black"/>
<path d="M14.1464 10.3536C13.9512 10.1583 13.9512 9.84171 14.1464 9.64645C14.3417 9.45118 14.6583 9.45118 14.8536 9.64645L16.7071 11.5L14.8536 13.3536C14.6583 13.5488 14.3417 13.5488 14.1464 13.3536C13.9512 13.1583 13.9512 12.8417 14.1464 12.6464L14.7929 12H8.5C8.22386 12 8 11.7761 8 11.5C8 11.2239 8.22386 11 8.5 11H14.7929L14.1464 10.3536Z" fill="black"/>
</g>
</svg>
