<svg width="24" height="24" viewBox="0 0 24 24" fill="none" xmlns="http://www.w3.org/2000/svg">
<g opacity="0.9">
<path fill-rule="evenodd" clip-rule="evenodd" d="M14.6435 12.002C15.4753 11.269 16 10.1958 16 9C16 6.79086 14.2091 5 12 5C9.79086 5 8 6.79086 8 9C8 10.1957 8.52463 11.2689 9.35627 12.0018C6.38513 12.0781 4 14.5105 4 17.5V19.5C4 19.7761 4.22386 20 4.5 20C4.77614 20 5 19.7761 5 19.5V17.5C5 15.0147 7.01472 13 9.5 13H14.5C15.2803 13 16.0766 13.2254 16.735 13.5684C17.4053 13.9177 17.8681 14.3542 18.0528 14.7236C18.1763 14.9706 18.4766 15.0707 18.7236 14.9472C18.9706 14.8237 19.0707 14.5234 18.9472 14.2764C18.6319 13.6458 17.9661 13.0823 17.1971 12.6816C16.4549 12.2949 15.5568 12.0277 14.6435 12.002ZM15 9C15 10.6569 13.6569 12 12 12C10.3431 12 9 10.6569 9 9C9 7.34315 10.3431 6 12 6C13.6569 6 15 7.34315 15 9Z" fill="black"/>
<path d="M19.5 17C19.7761 17 20 17.2239 20 17.5V19H21.5C21.7761 19 22 19.2239 22 19.5C22 19.7761 21.7761 20 21.5 20H20V21.5C20 21.7761 19.7761 22 19.5 22C19.2239 22 19 21.7761 19 21.5V20H17.5C17.2239 20 17 19.7761 17 19.5C17 19.2239 17.2239 19 17.5 19H19V17.5C19 17.2239 19.2239 17 19.5 17Z" fill="black"/>
</g>
</svg>
