<svg width="32" height="32" viewBox="0 0 32 32" fill="none" xmlns="http://www.w3.org/2000/svg">
<g opacity="0.9">
<path d="M16 7C13.2386 7 11 9.23858 11 12C11 13.6356 11.7853 15.0878 12.9995 16H12.5C8.91015 16 6 18.9101 6 22.5V25.5C6 26.3284 6.67157 27 7.5 27H20.083C20.0284 26.6748 20 26.3407 20 26C20 22.8513 22.4255 20.269 25.51 20.0197C24.5352 17.6603 22.2115 16 19.5 16H19.0005C20.2147 15.0878 21 13.6356 21 12C21 9.23858 18.7614 7 16 7Z" fill="black"/>
<path d="M25 29V27H23C22.4477 27 22 26.5523 22 26C22 25.4477 22.4477 25 23 25H25V23C25 22.4477 25.4477 22 26 22C26.5523 22 27 22.4477 27 23V25H29C29.5523 25 30 25.4477 30 26C30 26.5523 29.5523 27 29 27H27V29C27 29.5523 26.5523 30 26 30C25.4477 30 25 29.5523 25 29Z" fill="black"/>
</g>
</svg>
