<svg width="16" height="16" viewBox="0 0 16 16" fill="none" xmlns="http://www.w3.org/2000/svg">
<g opacity="0.9">
<path fill-rule="evenodd" clip-rule="evenodd" d="M10.1759 8.0653C10.6866 7.5274 11 6.8003 11 6C11 4.34315 9.65685 3 8 3C6.34315 3 5 4.34315 5 6C5 6.80026 5.31334 7.52733 5.82402 8.06523C4.2145 8.38017 3 9.79825 3 11.5V13.5C3 13.7761 3.22386 14 3.5 14C3.77614 14 4 13.7761 4 13.5V11.5C4 10.1193 5.11929 9 6.5 9H9.5C10.0025 9 10.4689 9.14771 10.8601 9.40193C11.0916 9.5524 11.4013 9.48668 11.5518 9.25513C11.7023 9.02359 11.6365 8.7139 11.405 8.56343C11.0372 8.32439 10.6215 8.15256 10.1759 8.0653ZM10 6C10 7.10457 9.10457 8 8 8C6.89543 8 6 7.10457 6 6C6 4.89543 6.89543 4 8 4C9.10457 4 10 4.89543 10 6Z" fill="black"/>
<path d="M12.5 10C12.7761 10 13 10.2239 13 10.5V12H14.5C14.7761 12 15 12.2239 15 12.5C15 12.7761 14.7761 13 14.5 13H13V14.5C13 14.7761 12.7761 15 12.5 15C12.2239 15 12 14.7761 12 14.5V13H10.5C10.2239 13 10 12.7761 10 12.5C10 12.2239 10.2239 12 10.5 12H12V10.5C12 10.2239 12.2239 10 12.5 10Z" fill="black"/>
</g>
</svg>
