<svg width="24" height="24" viewBox="0 0 24 24" fill="none" xmlns="http://www.w3.org/2000/svg">
<path opacity="0.9" fill-rule="evenodd" clip-rule="evenodd" d="M12 6C9.71204 6 7.78181 7.53718 7.18816 9.63608L7.08523 10H6.5C4.567 10 3 11.567 3 13.5C3 15.433 4.567 17 6.5 17H16.5C18.9853 17 21 14.9853 21 12.5C21 10.0147 18.9853 8 16.5 8C16.4238 8 16.348 8.00189 16.2728 8.00563L16.0218 8.01809L15.862 7.82407C14.9442 6.70938 13.5551 6 12 6ZM6.34058 9.00277C7.16344 6.67128 9.38596 5 12 5C13.7772 5 15.3743 5.77325 16.4723 7.00007C16.4815 7.00002 16.4907 7 16.5 7C19.5376 7 22 9.46243 22 12.5C22 15.5376 19.5376 18 16.5 18H6.5C4.01472 18 2 15.9853 2 13.5C2 11.0681 3.92913 9.08673 6.34058 9.00277Z" fill="black"/>
</svg>
