<svg width="16" height="16" viewBox="0 0 16 16" fill="none" xmlns="http://www.w3.org/2000/svg">
<g opacity="0.9">
<path fill-rule="evenodd" clip-rule="evenodd" d="M8 2C4.68629 2 2 4.68629 2 8C2 11.3137 4.68629 14 8 14C11.3137 14 14 11.3137 14 8C14 4.68629 11.3137 2 8 2ZM1 8C1 4.13401 4.13401 1 8 1C11.866 1 15 4.13401 15 8C15 11.866 11.866 15 8 15C4.13401 15 1 11.866 1 8Z" fill="black"/>
<path fill-rule="evenodd" clip-rule="evenodd" d="M14 8C14 7.72386 14.2239 7.5 14.5 7.5H15.5C15.7761 7.5 16 7.72386 16 8C16 8.27614 15.7761 8.5 15.5 8.5H14.5C14.2239 8.5 14 8.27614 14 8Z" fill="black"/>
<path fill-rule="evenodd" clip-rule="evenodd" d="M0 8C0 7.72386 0.223858 7.5 0.5 7.5H1.5C1.77614 7.5 2 7.72386 2 8C2 8.27614 1.77614 8.5 1.5 8.5H0.5C0.223858 8.5 0 8.27614 0 8Z" fill="black"/>
<path fill-rule="evenodd" clip-rule="evenodd" d="M8 14C8.27614 14 8.5 14.2239 8.5 14.5V15.5C8.5 15.7761 8.27614 16 8 16C7.72386 16 7.5 15.7761 7.5 15.5V14.5C7.5 14.2239 7.72386 14 8 14Z" fill="black"/>
<path fill-rule="evenodd" clip-rule="evenodd" d="M8 0C8.27614 1.20706e-08 8.5 0.223858 8.5 0.5V1.5C8.5 1.77614 8.27614 2 8 2C7.72386 2 7.5 1.77614 7.5 1.5V0.5C7.5 0.223858 7.72386 -1.20706e-08 8 0Z" fill="black"/>
<path fill-rule="evenodd" clip-rule="evenodd" d="M7 11L7 5C7 4.44772 7.44771 4 8 4C8.55228 4 9 4.44772 9 5V11C9 11.5523 8.55229 12 8 12C7.44772 12 7 11.5523 7 11Z" fill="black"/>
<path fill-rule="evenodd" clip-rule="evenodd" d="M5 7H11C11.5523 7 12 7.44771 12 8C12 8.55228 11.5523 9 11 9H5C4.44772 9 4 8.55228 4 8C4 7.44771 4.44772 7 5 7Z" fill="black"/>
</g>
</svg>
