<svg width="32" height="32" viewBox="0 0 32 32" fill="none" xmlns="http://www.w3.org/2000/svg">
<g clip-path="url(#clip0)">
<path opacity="0.9" fill-rule="evenodd" clip-rule="evenodd" d="M16.7071 8.92201C16.3166 9.31254 15.6835 9.31254 15.2929 8.92203C14.9024 8.53151 14.9024 7.89834 15.2929 7.50781L17.0858 5.71484L16.0118 5.71484C16.0079 5.71489 16.0039 5.71491 16 5.71491C10.201 5.71491 5.5 10.4159 5.5 16.2149C5.5 16.7672 5.05228 17.2149 4.5 17.2149C3.94772 17.2149 3.5 16.7672 3.5 16.2149C3.5 9.31544 9.08981 3.72155 15.9877 3.71492C15.9918 3.71487 15.9959 3.71484 16 3.71484H17.0858L15.2929 1.92195C14.9024 1.53143 14.9024 0.898261 15.2929 0.507737C15.6834 0.117213 16.3166 0.117213 16.7071 0.507737L20.2071 4.00774C20.5976 4.39826 20.5976 5.03142 20.2071 5.42194L16.7071 8.92201ZM15.6615 26.7149L16.0019 26.7149C21.8 26.7139 26.5 22.0133 26.5 16.2149C26.5 15.6626 26.9477 15.2149 27.5 15.2149C28.0523 15.2149 28.5 15.6626 28.5 16.2149C28.5 23.1185 22.9036 28.7149 16 28.7149L15.6615 28.7149L17.6585 30.4623C18.0741 30.826 18.1163 31.4578 17.7526 31.8734C17.3889 32.2891 16.7571 32.3312 16.3415 31.9675L12.3415 28.4675C12.1245 28.2776 12 28.0033 12 27.7149C12 27.4265 12.1245 27.1522 12.3415 26.9623L16.3415 23.4623C16.7571 23.0987 17.3889 23.1408 17.7526 23.5564C18.1163 23.972 18.0741 24.6038 17.6585 24.9675L15.6615 26.7149Z" fill="black"/>
</g>
<defs>
<clipPath id="clip0">
<rect width="32" height="32" fill="white"/>
</clipPath>
</defs>
</svg>
