<svg width="24" height="24" viewBox="0 0 24 24" fill="none" xmlns="http://www.w3.org/2000/svg">
<g opacity="0.9">
<path d="M6 12H6.5C7.32843 12 8 12.6716 8 13.5V16.5C8 17.3284 7.32843 18 6.5 18H6V12Z" fill="black"/>
<path d="M12 12C11.4477 12 11 12.4477 11 13V17C11 17.5523 11.4477 18 12 18C12.5523 18 13 17.5523 13 17V13C13 12.4477 12.5523 12 12 12Z" fill="black"/>
<path fill-rule="evenodd" clip-rule="evenodd" d="M5.5 1C4.11929 1 3 2.11929 3 3.5V20.5C3 21.8807 4.11929 23 5.5 23H18.5C19.8807 23 21 21.8807 21 20.5V6.57081L15.4098 1H5.5ZM20 7L15 2V5C15 6.10457 15.8954 7 17 7H20ZM6 11C5.44772 11 5 11.4477 5 12V18C5 18.5523 5.44772 19 6 19H6.5C7.88071 19 9 17.8807 9 16.5V13.5C9 12.1193 7.88071 11 6.5 11H6ZM10 13C10 11.8954 10.8954 11 12 11C13.1046 11 14 11.8954 14 13V17C14 18.1046 13.1046 19 12 19C10.8954 19 10 18.1046 10 17V13ZM17 11C15.8954 11 15 11.8954 15 13V17C15 18.1046 15.8954 19 17 19C17.5924 19 18.1251 18.7418 18.4906 18.3335C18.6748 18.1277 18.6573 17.8116 18.4515 17.6274C18.2457 17.4433 17.9296 17.4608 17.7455 17.6665C17.5617 17.8719 17.2961 18 17 18C16.4477 18 16 17.5523 16 17V13C16 12.4477 16.4477 12 17 12C17.2961 12 17.5617 12.1281 17.7455 12.3335C17.9296 12.5392 18.2457 12.5567 18.4515 12.3726C18.6573 12.1884 18.6748 11.8723 18.4906 11.6665C18.1251 11.2582 17.5924 11 17 11Z" fill="black"/>
</g>
</svg>
