<svg width="24" height="24" viewBox="0 0 24 24" fill="none" xmlns="http://www.w3.org/2000/svg">
<g opacity="0.9">
<path fill-rule="evenodd" clip-rule="evenodd" d="M5 4C4.44772 4 4 4.44772 4 5V6C4 6.55228 4.44772 7 5 7H6C6.55228 7 7 6.55228 7 6V5C7 4.44772 6.55228 4 6 4H5ZM5 5H6V6H5V5Z" fill="black"/>
<path d="M8.5 5C8.22386 5 8 5.22386 8 5.5C8 5.77614 8.22386 6 8.5 6H18.5C18.7761 6 19 5.77614 19 5.5C19 5.22386 18.7761 5 18.5 5H8.5Z" fill="black"/>
<path fill-rule="evenodd" clip-rule="evenodd" d="M4 11C4 10.4477 4.44772 10 5 10H6C6.55228 10 7 10.4477 7 11V12C7 12.5523 6.55228 13 6 13H5C4.44772 13 4 12.5523 4 12V11ZM6 11H5V12H6V11Z" fill="black"/>
<path d="M8.5 11C8.22386 11 8 11.2239 8 11.5C8 11.7761 8.22386 12 8.5 12H18.5C18.7761 12 19 11.7761 19 11.5C19 11.2239 18.7761 11 18.5 11H8.5Z" fill="black"/>
<path fill-rule="evenodd" clip-rule="evenodd" d="M4 17C4 16.4477 4.44772 16 5 16H6C6.55228 16 7 16.4477 7 17V18C7 18.5523 6.55228 19 6 19H5C4.44772 19 4 18.5523 4 18V17ZM6 17H5V18H6V17Z" fill="black"/>
<path d="M8.5 17C8.22386 17 8 17.2239 8 17.5C8 17.7761 8.22386 18 8.5 18H18.5C18.7761 18 19 17.7761 19 17.5C19 17.2239 18.7761 17 18.5 17H8.5Z" fill="black"/>
</g>
</svg>
