<svg width="32" height="32" viewBox="0 0 32 32" fill="none" xmlns="http://www.w3.org/2000/svg">
<g opacity="0.9">
<path fill-rule="evenodd" clip-rule="evenodd" d="M7 7C6.44772 7 6 7.44772 6 8V10C6 10.5523 6.44772 11 7 11H9C9.55228 11 10 10.5523 10 10V8C10 7.44772 9.55228 7 9 7H7ZM7 8H9V10H7V8Z" fill="black"/>
<path d="M12.5 8C12.2239 8 12 8.22386 12 8.5C12 8.77614 12.2239 9 12.5 9H26.5C26.7761 9 27 8.77614 27 8.5C27 8.22386 26.7761 8 26.5 8H12.5Z" fill="black"/>
<path fill-rule="evenodd" clip-rule="evenodd" d="M6 15C6 14.4477 6.44772 14 7 14H9C9.55228 14 10 14.4477 10 15V17C10 17.5523 9.55228 18 9 18H7C6.44772 18 6 17.5523 6 17V15ZM9 15H7V17H9V15Z" fill="black"/>
<path d="M12.5 15C12.2239 15 12 15.2239 12 15.5C12 15.7761 12.2239 16 12.5 16H26.5C26.7761 16 27 15.7761 27 15.5C27 15.2239 26.7761 15 26.5 15H12.5Z" fill="black"/>
<path fill-rule="evenodd" clip-rule="evenodd" d="M6 22C6 21.4477 6.44772 21 7 21H9C9.55228 21 10 21.4477 10 22V24C10 24.5523 9.55228 25 9 25H7C6.44772 25 6 24.5523 6 24V22ZM9 22H7V24H9V22Z" fill="black"/>
<path d="M12.5 22C12.2239 22 12 22.2239 12 22.5C12 22.7761 12.2239 23 12.5 23H26.5C26.7761 23 27 22.7761 27 22.5C27 22.2239 26.7761 22 26.5 22H12.5Z" fill="black"/>
</g>
</svg>
