<svg width="25" height="24" viewBox="0 0 25 24" fill="none" xmlns="http://www.w3.org/2000/svg">
<g opacity="0.9">
<path d="M16.7423 10.2071C17.1328 9.81658 17.1328 9.18342 16.7423 8.79289C16.3517 8.40237 15.7186 8.40237 15.3281 8.79289L10.5352 13.5858L8.74226 11.7929C8.35174 11.4024 7.71858 11.4024 7.32805 11.7929C6.93753 12.1834 6.93753 12.8166 7.32805 13.2071L9.4745 15.3536C10.0603 15.9393 11.01 15.9393 11.5958 15.3536L16.7423 10.2071Z" fill="black"/>
<path fill-rule="evenodd" clip-rule="evenodd" d="M12.0352 2C6.51231 2 2.03516 6.47715 2.03516 12C2.03516 17.5228 6.51231 22 12.0352 22C17.558 22 22.0352 17.5228 22.0352 12C22.0352 6.47715 17.558 2 12.0352 2ZM3.03516 12C3.03516 7.02944 7.06459 3 12.0352 3C17.0057 3 21.0352 7.02944 21.0352 12C21.0352 16.9706 17.0057 21 12.0352 21C7.06459 21 3.03516 16.9706 3.03516 12Z" fill="black"/>
</g>
</svg>
