<svg width="32" height="32" viewBox="0 0 32 32" fill="none" xmlns="http://www.w3.org/2000/svg">
<g opacity="0.9">
<path fill-rule="evenodd" clip-rule="evenodd" d="M17 14C17 14.5523 17.4477 15 18 15H25C25.5523 15 26 14.5523 26 14C26 13.4477 25.5523 13 25 13H20.4142L26.7071 6.70711C27.0976 6.31658 27.0976 5.68342 26.7071 5.29289C26.3166 4.90237 25.6834 4.90237 25.2929 5.29289L19 11.5858L19 7C19 6.44771 18.5523 6 18 6C17.4477 6 17 6.44771 17 7L17 14Z" fill="black"/>
<path fill-rule="evenodd" clip-rule="evenodd" d="M15 18C15 17.4477 14.5523 17 14 17H7C6.44771 17 6 17.4477 6 18C6 18.5523 6.44771 19 7 19H11.5858L5.29289 25.2929C4.90237 25.6834 4.90237 26.3166 5.29289 26.7071C5.68342 27.0976 6.31658 27.0976 6.70711 26.7071L13 20.4142V25C13 25.5523 13.4477 26 14 26C14.5523 26 15 25.5523 15 25V18Z" fill="black"/>
</g>
</svg>
