<svg width="16" height="16" viewBox="0 0 16 16" fill="none" xmlns="http://www.w3.org/2000/svg">
<g opacity="0.9">
<path d="M6.5 9C6.63261 9 6.75979 9.05268 6.85355 9.14645C6.94732 9.24021 7 9.36739 7 9.5V12.5C7 12.7761 6.77614 13 6.5 13C6.22386 13 6 12.7761 6 12.5V10.7071L1.85355 14.8536C1.65829 15.0488 1.34171 15.0488 1.14645 14.8536C0.951185 14.6583 0.951185 14.3417 1.14645 14.1464L5.29289 10H3.5C3.22386 10 3 9.77614 3 9.5C3 9.22386 3.22386 9 3.5 9H6.5Z" fill="black"/>
<path d="M9.5 7C9.36739 7 9.24021 6.94732 9.14645 6.85355C9.05268 6.75979 9 6.63261 9 6.5V3.5C9 3.22386 9.22386 3 9.5 3C9.77614 3 10 3.22386 10 3.5V5.29289L14.1464 1.14645C14.3417 0.951185 14.6583 0.951185 14.8536 1.14645C15.0488 1.34171 15.0488 1.65829 14.8536 1.85355L10.7071 6H12.5C12.7761 6 13 6.22386 13 6.5C13 6.77614 12.7761 7 12.5 7H9.5Z" fill="black"/>
</g>
</svg>
