<svg width="32" height="32" viewBox="0 0 32 32" fill="none" xmlns="http://www.w3.org/2000/svg">
<g opacity="0.9">
<path d="M13.3421 14.3529V13.6257C13.5434 13.5401 13.8117 13.4545 14.1472 13.369C14.4826 13.2692 14.8382 13.1836 15.2138 13.1123C15.5895 13.041 15.9585 12.984 16.3208 12.9412C16.6964 12.8841 17.0252 12.8556 17.3069 12.8556L17.6692 13.1123L15.8579 22.3316H17.2667V23.0588C17.0922 23.1872 16.8843 23.3084 16.6428 23.4225C16.4147 23.5365 16.1665 23.6364 15.8981 23.7219C15.6432 23.8075 15.3815 23.8717 15.1132 23.9144C14.8449 23.9715 14.5899 24 14.3484 24C13.8386 24 13.483 23.9002 13.2818 23.7005C13.0939 23.4866 13 23.2585 13 23.016C13 22.7308 13.0201 22.4528 13.0604 22.1818C13.1006 21.9109 13.1543 21.6114 13.2214 21.2834L14.5899 14.6524L13.3421 14.3529ZM15.0327 9.54011C15.0327 9.05526 15.187 8.67736 15.4956 8.40642C15.8042 8.13547 16.1933 8 16.6629 8C17.1727 8 17.5753 8.13547 17.8704 8.40642C18.179 8.67736 18.3333 9.05526 18.3333 9.54011C18.3333 9.99644 18.179 10.3601 17.8704 10.631C17.5753 10.902 17.1727 11.0374 16.6629 11.0374C16.1933 11.0374 15.8042 10.902 15.4956 10.631C15.187 10.3601 15.0327 9.99644 15.0327 9.54011Z" fill="black"/>
<path fill-rule="evenodd" clip-rule="evenodd" d="M16 5C9.92487 5 5 9.92487 5 16C5 22.0751 9.92487 27 16 27C22.0751 27 27 22.0751 27 16C27 9.92487 22.0751 5 16 5ZM4 16C4 9.37258 9.37258 4 16 4C22.6274 4 28 9.37258 28 16C28 22.6274 22.6274 28 16 28C9.37258 28 4 22.6274 4 16Z" fill="black"/>
</g>
</svg>
