<svg width="16" height="16" viewBox="0 0 16 16" fill="none" xmlns="http://www.w3.org/2000/svg">
<g opacity="0.9">
<path fill-rule="evenodd" clip-rule="evenodd" d="M1 7.5C1 3.91015 3.91015 1 7.5 1C11.0899 1 14 3.91015 14 7.5C14 8.68201 13.6845 9.79034 13.1331 10.7454L11.4998 12.3787L10.5604 11.4393C9.97465 10.8536 9.0249 10.8536 8.43911 11.4393C7.85333 12.0251 7.85333 12.9749 8.43911 13.5607L8.757 13.8786C8.35031 13.9582 7.93003 14 7.5 14C3.91015 14 1 11.0899 1 7.5ZM3.5 6C3.22386 6 3 6.22386 3 6.5V8.5C3 8.77614 3.22386 9 3.5 9H5.5C5.77614 9 6 8.77614 6 8.5V8H9.08535C9.29127 8.5826 9.84689 9 10.5 9C11.3284 9 12 8.32843 12 7.5C12 6.67157 11.3284 6 10.5 6C9.84689 6 9.29127 6.4174 9.08535 7H6V6.5C6 6.22386 5.77614 6 5.5 6H3.5Z" fill="black"/>
<path d="M15.8535 10.8536C16.0487 10.6583 16.0487 10.3417 15.8535 10.1464C15.6582 9.95118 15.3416 9.95118 15.1464 10.1464L11.4999 13.7929L9.85348 12.1464C9.65821 11.9512 9.34163 11.9512 9.14637 12.1464C8.95111 12.3417 8.95111 12.6583 9.14637 12.8536L11.1464 14.8536C11.3416 15.0488 11.6582 15.0488 11.8535 14.8536L15.8535 10.8536Z" fill="black"/>
</g>
</svg>
