<svg width="16" height="16" viewBox="0 0 16 16" fill="none" xmlns="http://www.w3.org/2000/svg">
<g opacity="0.9">
<path fill-rule="evenodd" clip-rule="evenodd" d="M4.61589 9.32009C4.43911 9.10795 4.46777 8.79267 4.67991 8.61589L7.67991 6.11589C7.86533 5.96137 8.13467 5.96137 8.32009 6.11589L11.3201 8.61589C11.5322 8.79267 11.5609 9.10795 11.3841 9.32009C11.2073 9.53223 10.892 9.56089 10.6799 9.38411L8 7.15085L5.32009 9.38411C5.10795 9.56089 4.79267 9.53223 4.61589 9.32009Z" fill="black"/>
<path fill-rule="evenodd" clip-rule="evenodd" d="M2 8C2 11.3137 4.68629 14 8 14C11.3137 14 14 11.3137 14 8C14 4.68629 11.3137 2 8 2C4.68629 2 2 4.68629 2 8ZM8 15C4.13401 15 1 11.866 1 8C1 4.13401 4.13401 1 8 1C11.866 1 15 4.13401 15 8C15 11.866 11.866 15 8 15Z" fill="black"/>
</g>
</svg>
