<svg width="24" height="24" viewBox="0 0 24 24" fill="none" xmlns="http://www.w3.org/2000/svg">
<g opacity="0.9">
<path d="M7.16782 13.1263C6.96143 13.3097 6.94284 13.6258 7.1263 13.8322C7.30976 14.0386 7.6258 14.0572 7.83219 13.8737L12 10.169L16.1678 13.8737C16.3742 14.0572 16.6903 14.0386 16.8737 13.8322C17.0572 13.6258 17.0386 13.3097 16.8322 13.1263L12.3322 9.12629C12.1427 8.9579 11.8573 8.9579 11.6678 9.12629L7.16782 13.1263Z" fill="black"/>
<path fill-rule="evenodd" clip-rule="evenodd" d="M2 12C2 17.5228 6.47715 22 12 22C17.5228 22 22 17.5228 22 12C22 6.47715 17.5228 2 12 2C6.47715 2 2 6.47715 2 12ZM12 21C7.02944 21 3 16.9706 3 12C3 7.02944 7.02944 3 12 3C16.9706 3 21 7.02944 21 12C21 16.9706 16.9706 21 12 21Z" fill="black"/>
</g>
</svg>
