<svg width="16" height="16" viewBox="0 0 16 16" fill="none" xmlns="http://www.w3.org/2000/svg">
<g opacity="0.9">
<path d="M9.4255 4.76268C9.57053 4.52769 9.49761 4.21962 9.26262 4.07459C9.02763 3.92955 8.71956 4.00247 8.57453 4.23746L7.99056 5.18363L7.42927 4.24372C7.28768 4.00664 6.98071 3.92922 6.74363 4.0708C6.50654 4.21238 6.42912 4.51935 6.57071 4.75643L7.39859 6.14276L6.09261 8.25876C5.94757 8.49374 6.02049 8.80181 6.25548 8.94685C6.49047 9.09188 6.79854 9.01896 6.94357 8.78397L9.4255 4.76268Z" fill="black"/>
<path d="M4.51661 11H3.5C3.22386 11 3 10.7761 3 10.5C3 10.2239 3.22386 10 3.5 10H8.49966C8.77581 10 8.99966 10.2239 8.99966 10.5C8.99966 10.7761 8.77581 11 8.49966 11H5.68255L4.92885 12.2572C4.78686 12.494 4.47976 12.5709 4.24292 12.4289C4.00608 12.2869 3.92919 11.9798 4.07118 11.743L4.51661 11Z" fill="black"/>
<path d="M8.81935 7.53235C9.05614 7.39028 9.36327 7.46706 9.50535 7.70385L10.883 10H12.5C12.7761 10 13 10.2239 13 10.5C13 10.7761 12.7761 11 12.5 11H11.483L11.9287 11.7428C12.0708 11.9796 11.994 12.2867 11.7572 12.4288C11.5204 12.5709 11.2133 12.4941 11.0712 12.2573L10.1805 10.7727C10.1737 10.7623 10.1673 10.7516 10.1613 10.7407L8.64785 8.21835C8.50578 7.98156 8.58256 7.67443 8.81935 7.53235Z" fill="black"/>
<path fill-rule="evenodd" clip-rule="evenodd" d="M15 2.5C15 1.67157 14.3284 1 13.5 1H2.5C1.67157 1 1 1.67157 1 2.5V13.5C1 14.3284 1.67157 15 2.5 15H13.5C14.3284 15 15 14.3284 15 13.5L15 2.5ZM13.5 2C13.7761 2 14 2.22386 14 2.5L14 13.5C14 13.7761 13.7761 14 13.5 14H2.5C2.22386 14 2 13.7761 2 13.5L2 2.5C2 2.22386 2.22386 2 2.5 2L13.5 2Z" fill="black"/>
</g>
</svg>
