<svg width="32" height="32" viewBox="0 0 32 32" fill="none" xmlns="http://www.w3.org/2000/svg">
<path d="M18.4278 8.75877C18.5708 8.52252 18.4951 8.2151 18.2589 8.07212C18.0226 7.92915 17.7152 8.00477 17.5722 8.24102L15.9895 10.8563L14.4293 8.24354C14.2877 8.00645 13.9807 7.92903 13.7436 8.07061C13.5065 8.21219 13.4291 8.51916 13.5707 8.75625L15.4033 11.825L11.5412 18.2067C11.3982 18.443 11.4739 18.7504 11.7101 18.8934C11.9463 19.0363 12.2538 18.9607 12.3967 18.7245L18.4278 8.75877Z" fill="black"/>
<path d="M9.91589 20.9998H7C6.72386 20.9998 6.5 20.776 6.5 20.4998C6.5 20.2237 6.72386 19.9998 7 19.9998H18.4969C18.7731 19.9998 18.9969 20.2237 18.9969 20.4998C18.9969 20.776 18.7731 20.9998 18.4969 20.9998H11.0818L9.42885 23.757C9.28686 23.9938 8.97976 24.0707 8.74292 23.9287C8.50608 23.7867 8.42919 23.4796 8.57118 23.2428L9.91589 20.9998Z" fill="black"/>
<path d="M17.2016 13.8315C17.4384 13.6894 17.7455 13.7663 17.8876 14.0031L21.4839 19.9998H25C25.2761 19.9998 25.5 20.2237 25.5 20.4998C25.5 20.776 25.2761 20.9998 25 20.9998H22.0837L23.4288 23.2427C23.5708 23.4796 23.494 23.7867 23.2571 23.9287C23.0203 24.0707 22.7132 23.9939 22.5712 23.7571L20.7905 20.7878C20.7762 20.7676 20.7634 20.7463 20.7522 20.724L17.03 14.5174C16.8879 14.2806 16.9648 13.9735 17.2016 13.8315Z" fill="black"/>
<path fill-rule="evenodd" clip-rule="evenodd" d="M7.5 3.99982C5.567 3.99982 4 5.56682 4 7.49982V24.4998C4 26.4328 5.567 27.9998 7.5 27.9998H24.5C26.433 27.9998 28 26.4328 28 24.4998V7.49982C28 5.56682 26.433 3.99982 24.5 3.99982H7.5ZM5 7.49982C5 6.11911 6.11929 4.99982 7.5 4.99982H24.5C25.8807 4.99982 27 6.11911 27 7.49982V24.4998C27 25.8805 25.8807 26.9998 24.5 26.9998H7.5C6.11929 26.9998 5 25.8805 5 24.4998V7.49982Z" fill="black"/>
</svg>
