<svg width="16" height="16" viewBox="0 0 16 16" fill="none" xmlns="http://www.w3.org/2000/svg">
<path opacity="0.9" fill-rule="evenodd" clip-rule="evenodd" d="M13.5 1C14.3284 1 15 1.67157 15 2.5L15 13.5C15 14.3284 14.3284 15 13.5 15H2.5C1.67157 15 1 14.3284 1 13.5V2.5C1 1.67157 1.67157 1 2.5 1H13.5ZM7.42928 4.24372C7.2877 4.00664 6.98073 3.92921 6.74364 4.0708C6.50656 4.21238 6.42914 4.51935 6.57072 4.75643L7.39859 6.14274L6.09259 8.25876C5.94756 8.49375 6.02048 8.80182 6.25547 8.94686C6.49046 9.09189 6.79853 9.01897 6.94356 8.78398L9.42548 4.76268C9.57052 4.5277 9.4976 4.21963 9.26261 4.07459C9.02762 3.92956 8.71955 4.00248 8.57452 4.23747L7.99056 5.18361L7.42928 4.24372ZM9.50536 7.70385C9.36329 7.46706 9.05616 7.39028 8.81937 7.53235C8.58258 7.67443 8.50579 7.98156 8.64787 8.21835L10.1606 10.7396C10.167 10.7513 10.1739 10.7628 10.1812 10.7739L11.0713 12.2573C11.2133 12.4941 11.5205 12.5709 11.7572 12.4288C11.994 12.2867 12.0708 11.9796 11.9287 11.7428L11.4831 11.0001H12.5C12.7761 11.0001 13 10.7762 13 10.5001C13 10.2239 12.7761 10.0001 12.5 10.0001H10.8831L9.50536 7.70385ZM8.49966 11.0001H5.68249L4.92884 12.2572C4.78685 12.494 4.47974 12.5709 4.2429 12.4289C4.00606 12.2869 3.92917 11.9798 4.07116 11.743L4.51655 11.0001H3.5C3.22386 11.0001 3 10.7762 3 10.5001C3 10.2239 3.22386 10.0001 3.5 10.0001H8.49966C8.77581 10.0001 8.99966 10.2239 8.99966 10.5001C8.99966 10.7762 8.77581 11.0001 8.49966 11.0001Z" fill="black"/>
</svg>
