<svg width="32" height="32" viewBox="0 0 32 32" fill="none" xmlns="http://www.w3.org/2000/svg">
<path opacity="0.9" fill-rule="evenodd" clip-rule="evenodd" d="M4 7.5C4 5.567 5.567 4 7.5 4H24.5C26.433 4 28 5.567 28 7.5V24.5C28 26.433 26.433 28 24.5 28H7.5C5.567 28 4 26.433 4 24.5V7.5ZM18.8555 9.01775C19.1415 8.54525 18.9902 7.93041 18.5177 7.64447C18.0453 7.35852 17.4304 7.50975 17.1445 7.98225L15.9924 9.88594L14.8586 7.98729C14.5754 7.51312 13.9615 7.35828 13.4873 7.64144C13.0131 7.9246 12.8583 8.53854 13.1414 9.01271L14.8199 11.8234L11.1134 17.948C10.8275 18.4205 10.9787 19.0353 11.4512 19.3212C11.9237 19.6072 12.5385 19.456 12.8245 18.9835L18.8555 9.01775ZM9.0331 21.5H7C6.44772 21.5 6 21.0523 6 20.5C6 19.9477 6.44772 19.5 7 19.5H18.4969C19.0492 19.5 19.4969 19.9477 19.4969 20.5C19.4969 21.0523 19.0492 21.5 18.4969 21.5H11.365L9.85767 24.0142C9.57369 24.4879 8.95949 24.6417 8.48581 24.3577C8.01213 24.0737 7.85834 23.4595 8.14233 22.9858L9.0331 21.5ZM16.9445 13.4028C17.4181 13.1187 18.0323 13.2724 18.3164 13.746L21.7672 19.5H25C25.5523 19.5 26 19.9477 26 20.5C26 21.0523 25.5523 21.5 25 21.5H22.9666L23.8576 22.9857C24.1416 23.4593 23.988 24.0735 23.5143 24.3576C23.0407 24.6416 22.4265 24.488 22.1424 24.0143L20.3706 21.06C20.3501 21.0297 20.3312 20.9982 20.3141 20.9657L16.6012 14.7747C16.3171 14.301 16.4708 13.6868 16.9445 13.4028Z" fill="black"/>
</svg>
