<svg width="16" height="16" viewBox="0 0 16 16" fill="none" xmlns="http://www.w3.org/2000/svg">
<path fill-rule="evenodd" clip-rule="evenodd" d="M2.13922 7.18625C1.58087 7.58507 1.58087 8.41489 2.13922 8.81371L6.41876 11.8705C7.08062 12.3433 7.99999 11.8702 7.99999 11.0568V8.69409C8.04173 8.73713 8.08814 8.77723 8.13922 8.81371L12.4188 11.8705C13.0806 12.3433 14 11.8702 14 11.0568V4.94317C14 4.1298 13.0806 3.65667 12.4188 4.12944L8.13922 7.18625C8.08814 7.22273 8.04173 7.26283 7.99999 7.30587V4.94317C7.99999 4.1298 7.08062 3.65667 6.41876 4.12944L2.13922 7.18625ZM2.72046 7.99998L6.99999 11.0568V4.94317L2.72046 7.99998ZM8.72046 7.99998L13 11.0568V4.94317L8.72046 7.99998Z" fill="black"/>
</svg>
