<svg width="24" height="24" viewBox="0 0 24 24" fill="none" xmlns="http://www.w3.org/2000/svg">
<path fill-rule="evenodd" clip-rule="evenodd" d="M3.24803 11.1683C2.6543 11.5641 2.6543 12.4366 3.24803 12.8324L9.44526 16.9639C10.1098 17.4069 11 16.9305 11 16.1318V7.86887C11 7.07017 10.1098 6.59378 9.44526 7.03682L3.24803 11.1683ZM3.80273 12.0004L9.99996 16.1318V7.86887L3.80273 12.0004Z" fill="black"/>
<path fill-rule="evenodd" clip-rule="evenodd" d="M12.248 11.1683C11.6543 11.5641 11.6543 12.4366 12.248 12.8324L18.4453 16.9639C19.1098 17.4069 20 16.9305 20 16.1318V7.86887C20 7.07017 19.1098 6.59378 18.4453 7.03682L12.248 11.1683ZM12.8027 12.0004L19 16.1318V7.86887L12.8027 12.0004Z" fill="black"/>
</svg>
