<svg width="32" height="32" viewBox="0 0 32 32" fill="none" xmlns="http://www.w3.org/2000/svg">
<path opacity="0.9" fill-rule="evenodd" clip-rule="evenodd" d="M4 7.5C4 6.67157 4.67157 6 5.5 6H26.5C27.3284 6 28 6.67157 28 7.5V24.5C28 25.3284 27.3284 26 26.5 26H5.5C4.67157 26 4 25.3284 4 24.5V7.5ZM13 13.7232V18.2768C13 19.0446 13.8295 19.526 14.4961 19.1451L18.4806 16.8682C19.1524 16.4843 19.1524 15.5157 18.4806 15.1318L14.4961 12.8549C13.8295 12.474 13 12.9554 13 13.7232ZM6 8H8V10H6V8ZM8 22H6V24H8V22ZM12 8H14V10H12V8ZM14 24V22H12V24H14ZM21 8H23V10H21V8ZM23 22H21V24H23V22ZM9 8H11V10H9V8ZM11 22H9V24H11V22ZM18 8H20V10H18V8ZM20 22H18V24H20V22ZM15 8H17V10H15V8ZM17 22H15V24H17V22ZM24 8H26V10H24V8ZM26 22H24V24H26V22Z" fill="black"/>
</svg>
