<svg width="24" height="24" viewBox="0 0 24 24" fill="none" xmlns="http://www.w3.org/2000/svg">
<path opacity="0.9" fill-rule="evenodd" clip-rule="evenodd" d="M2 5.5C2 4.67157 2.67157 4 3.5 4H20.5C21.3284 4 22 4.67157 22 5.5V18.5C22 19.3284 21.3284 20 20.5 20H3.5C2.67157 20 2 19.3284 2 18.5V5.5ZM13 6V7H14V6H13ZM16 7V6H17V7H16ZM19 6V7H20V6H19ZM16 18V17H17V18H16ZM19 17V18H20V17H19ZM4 18V17H5V18H4ZM10 6V7H11V6H10ZM13 18V17H14V18H13ZM7 6V7H8V6H7ZM10 18V17H11V18H10ZM4 6V7H5V6H4ZM7 18V17H8V18H7ZM10 9.8831V14.1169C10 14.5056 10.424 14.7456 10.7572 14.5457L14.2854 12.4287C14.6091 12.2345 14.6091 11.7655 14.2854 11.5713L10.7572 9.45435C10.424 9.25439 10 9.49445 10 9.8831Z" fill="black"/>
</svg>
