<svg width="32" height="32" viewBox="0 0 32 32" fill="none" xmlns="http://www.w3.org/2000/svg">
<g opacity="0.9">
<path fill-rule="evenodd" clip-rule="evenodd" d="M13 18.2768V13.7232C13 12.9553 13.8295 12.474 14.4961 12.8549L18.4806 15.1317C19.1524 15.5156 19.1524 16.4843 18.4806 16.8682L14.4961 19.145C13.8295 19.526 13 19.0446 13 18.2768ZM14 18.2768V13.7232L17.9844 16L14 18.2768Z" fill="black"/>
<path d="M6 8H8V10H6V8Z" fill="black"/>
<path d="M8 22H6V24H8V22Z" fill="black"/>
<path d="M12 8H14V10H12V8Z" fill="black"/>
<path d="M14 24V22H12V24H14Z" fill="black"/>
<path d="M21 8H23V10H21V8Z" fill="black"/>
<path d="M23 22H21V24H23V22Z" fill="black"/>
<path d="M9 8H11V10H9V8Z" fill="black"/>
<path d="M11 22H9V24H11V22Z" fill="black"/>
<path d="M18 8H20V10H18V8Z" fill="black"/>
<path d="M20 22H18V24H20V22Z" fill="black"/>
<path d="M15 8H17V10H15V8Z" fill="black"/>
<path d="M17 22H15V24H17V22Z" fill="black"/>
<path d="M24 8H26V10H24V8Z" fill="black"/>
<path d="M26 22H24V24H26V22Z" fill="black"/>
<path fill-rule="evenodd" clip-rule="evenodd" d="M5.5 6C4.67157 6 4 6.67157 4 7.5V24.5C4 25.3284 4.67157 26 5.5 26H26.5C27.3284 26 28 25.3284 28 24.5V7.5C28 6.67157 27.3284 6 26.5 6H5.5ZM5 7.5C5 7.22386 5.22386 7 5.5 7H26.5C26.7761 7 27 7.22386 27 7.5V24.5C27 24.7761 26.7761 25 26.5 25H5.5C5.22386 25 5 24.7761 5 24.5V7.5Z" fill="black"/>
</g>
</svg>
