<svg width="16" height="16" viewBox="0 0 16 16" fill="none" xmlns="http://www.w3.org/2000/svg">
<path opacity="0.9" fill-rule="evenodd" clip-rule="evenodd" d="M1 5.5C1 4.11929 2.11929 3 3.5 3H12.5C13.8807 3 15 4.11929 15 5.5V10.5C15 11.8807 13.8807 13 12.5 13H5.56769C5.45336 13 5.34247 13.0392 5.25352 13.111L2.62834 15.2314C1.97434 15.7596 1 15.2941 1 14.4534V5.5ZM5.5 7C4.67157 7 4 7.67157 4 8.5C4 9.32843 4.67157 10 5.5 10H10.5C11.3284 10 12 9.32843 12 8.5C12 7.67157 11.3284 7 10.5 7C9.67157 7 9 7.67157 9 8.5C9 8.67532 9.03008 8.84361 9.08535 9H6.91465C6.96992 8.84361 7 8.67532 7 8.5C7 7.67157 6.32843 7 5.5 7Z" fill="black"/>
</svg>
