<svg width="32" height="32" viewBox="0 0 32 32" fill="none" xmlns="http://www.w3.org/2000/svg">
<g opacity="0.9">
<path d="M10 15.5C10 14.6716 10.6716 14 11.5 14C12.3284 14 13 14.6716 13 15.5C13 16.3284 12.3284 17 11.5 17C10.6716 17 10 16.3284 10 15.5Z" fill="black"/>
<path d="M22 15.5C22 16.3284 21.3284 17 20.5 17C19.6716 17 19 16.3284 19 15.5C19 14.6716 19.6716 14 20.5 14C21.3284 14 22 14.6716 22 15.5Z" fill="black"/>
<path fill-rule="evenodd" clip-rule="evenodd" d="M4 10.5C4 8.567 5.567 7 7.5 7H24.5C26.433 7 28 8.567 28 10.5V20.5C28 22.433 26.433 24 24.5 24H11.4969L6.27799 27.166C5.27834 27.7724 4 27.0527 4 25.8835V10.5ZM14 15.5C14 16.0628 13.814 16.5822 13.5002 17H18.4998C18.186 16.5822 18 16.0628 18 15.5C18 14.1193 19.1193 13 20.5 13C21.8807 13 23 14.1193 23 15.5C23 16.8807 21.8807 18 20.5 18H11.5C10.1193 18 9 16.8807 9 15.5C9 14.1193 10.1193 13 11.5 13C12.8807 13 14 14.1193 14 15.5Z" fill="black"/>
</g>
</svg>
