<svg width="32" height="32" viewBox="0 0 32 32" fill="none" xmlns="http://www.w3.org/2000/svg">
<g opacity="0.9">
<path fill-rule="evenodd" clip-rule="evenodd" d="M7 7C6.44772 7 6 7.44772 6 8V10C6 10.5523 6.44772 11 7 11H9C9.55228 11 10 10.5523 10 10V8C10 7.44772 9.55228 7 9 7H7ZM7 8H9V10H7V8Z" fill="black"/>
<path d="M13 8C12.4477 8 12 8.44772 12 9C12 9.55228 12.4477 10 13 10H27C27.5523 10 28 9.55228 28 9C28 8.44772 27.5523 8 27 8H13Z" fill="black"/>
<path fill-rule="evenodd" clip-rule="evenodd" d="M6 15C6 14.4477 6.44772 14 7 14H9C9.55228 14 10 14.4477 10 15V17C10 17.5523 9.55228 18 9 18H7C6.44772 18 6 17.5523 6 17V15ZM9 15H7V17H9V15Z" fill="black"/>
<path d="M13 15C12.4477 15 12 15.4477 12 16C12 16.5523 12.4477 17 13 17H27C27.5523 17 28 16.5523 28 16C28 15.4477 27.5523 15 27 15H13Z" fill="black"/>
<path fill-rule="evenodd" clip-rule="evenodd" d="M6 22C6 21.4477 6.44772 21 7 21H9C9.55228 21 10 21.4477 10 22V24C10 24.5523 9.55228 25 9 25H7C6.44772 25 6 24.5523 6 24V22ZM9 22H7V24H9V22Z" fill="black"/>
<path d="M13 22C12.4477 22 12 22.4477 12 23C12 23.5523 12.4477 24 13 24H27C27.5523 24 28 23.5523 28 23C28 22.4477 27.5523 22 27 22H13Z" fill="black"/>
</g>
</svg>
