<svg width="16" height="16" viewBox="0 0 16 16" fill="none" xmlns="http://www.w3.org/2000/svg">
<g opacity="0.9">
<path fill-rule="evenodd" clip-rule="evenodd" d="M3 2C2.44772 2 2 2.44772 2 3V4C2 4.55228 2.44772 5 3 5H4C4.55228 5 5 4.55228 5 4V3C5 2.44772 4.55228 2 4 2H3ZM3 3H4V4H3V3Z" fill="black"/>
<path d="M6.5 3C6.22386 3 6 3.22386 6 3.5C6 3.77614 6.22386 4 6.5 4H12.5C12.7761 4 13 3.77614 13 3.5C13 3.22386 12.7761 3 12.5 3H6.5Z" fill="black"/>
<path fill-rule="evenodd" clip-rule="evenodd" d="M2 7C2 6.44772 2.44772 6 3 6H4C4.55228 6 5 6.44772 5 7V8C5 8.55228 4.55228 9 4 9H3C2.44772 9 2 8.55228 2 8V7ZM4 7H3V8H4V7Z" fill="black"/>
<path d="M6.5 7C6.22386 7 6 7.22386 6 7.5C6 7.77614 6.22386 8 6.5 8H12.5C12.7761 8 13 7.77614 13 7.5C13 7.22386 12.7761 7 12.5 7H6.5Z" fill="black"/>
<path fill-rule="evenodd" clip-rule="evenodd" d="M2 11C2 10.4477 2.44772 10 3 10H4C4.55228 10 5 10.4477 5 11V12C5 12.5523 4.55228 13 4 13H3C2.44772 13 2 12.5523 2 12V11ZM4 11H3V12H4V11Z" fill="black"/>
<path d="M6.5 11C6.22386 11 6 11.2239 6 11.5C6 11.7761 6.22386 12 6.5 12H12.5C12.7761 12 13 11.7761 13 11.5C13 11.2239 12.7761 11 12.5 11H6.5Z" fill="black"/>
</g>
</svg>
