<svg width="24" height="24" viewBox="0 0 24 24" fill="none" xmlns="http://www.w3.org/2000/svg">
<path opacity="0.9" fill-rule="evenodd" clip-rule="evenodd" d="M20.4319 1.74815C20.2927 1.50962 19.9866 1.42905 19.7481 1.56819C19.5095 1.70733 19.429 2.01349 19.5681 2.25202C22.9773 8.09634 22.9773 15.9038 19.5681 21.7481C19.429 21.9867 19.5095 22.2928 19.7481 22.432C19.9866 22.5711 20.2927 22.4905 20.4319 22.252C24.0227 16.0963 24.0227 7.90383 20.4319 1.74815ZM12.7048 4.04389C12.8844 4.12455 13 4.30311 13 4.50001V19.5C13 19.6969 12.8844 19.8755 12.7048 19.9561C12.5252 20.0368 12.315 20.0045 12.1678 19.8737L7.8099 16H4.5C3.67157 16 3 15.3284 3 14.5V9.50001C3 8.67158 3.67157 8.00001 4.5 8.00001H7.8099L12.1678 4.1263C12.315 3.99549 12.5252 3.96323 12.7048 4.04389ZM14.9371 7.25727C14.803 7.01588 14.4986 6.92891 14.2572 7.06301C14.0158 7.19712 13.9288 7.50152 14.0629 7.74291C14.676 8.84639 15 10.4054 15 12.0001C15 13.5948 14.676 15.1538 14.0629 16.2573C13.9288 16.4987 14.0158 16.8031 14.2572 16.9372C14.4986 17.0713 14.803 16.9843 14.9371 16.7429C15.6574 15.4464 16 13.7054 16 12.0001C16 10.2948 15.6574 8.55379 14.9371 7.25727ZM16.735 4.07607C16.9692 3.92971 17.2776 4.0009 17.424 4.23507C18.7374 6.33645 19.375 9.18608 19.375 12.0001C19.375 14.8141 18.7374 17.6637 17.424 19.7651C17.2776 19.9992 16.9692 20.0704 16.735 19.9241C16.5008 19.7777 16.4296 19.4692 16.576 19.2351C17.7626 17.3364 18.375 14.6861 18.375 12.0001C18.375 9.31405 17.7626 6.66369 16.576 4.76507C16.4296 4.5309 16.5008 4.22242 16.735 4.07607Z" fill="black"/>
</svg>
