<svg width="32" height="32" viewBox="0 0 32 32" fill="none" xmlns="http://www.w3.org/2000/svg">
<path opacity="0.9" d="M10.7931 6.79289C11.1837 6.40237 11.8168 6.40237 12.2074 6.79289C12.5979 7.18342 12.5979 7.81658 12.2074 8.20711L9.91446 10.5L11.4799 10.5C11.4866 10.4999 11.4934 10.4998 11.5001 10.4998C19.2321 10.4998 25.5001 16.7678 25.5001 24.4998C25.5001 25.0521 25.0524 25.4998 24.5001 25.4998C23.9478 25.4998 23.5001 25.0521 23.5001 24.4998C23.5001 17.8789 18.1381 12.5104 11.5197 12.4998C11.5132 12.4999 11.5067 12.5 11.5002 12.5H9.91446L12.2074 14.7929C12.5979 15.1834 12.5979 15.8166 12.2074 16.2071C11.8168 16.5976 11.1837 16.5976 10.7931 16.2071L6.79314 12.2071C6.6056 12.0196 6.50024 11.7652 6.50024 11.5C6.50024 11.2348 6.6056 10.9804 6.79314 10.7929L10.7931 6.79289Z" fill="black"/>
</svg>
