<svg width="24" height="24" viewBox="0 0 24 24" fill="none" xmlns="http://www.w3.org/2000/svg">
<path opacity="0.9" fill-rule="evenodd" clip-rule="evenodd" d="M12 2C6.47715 2 2 6.47715 2 12C2 17.5228 6.47715 22 12 22C17.5228 22 22 17.5228 22 12C22 6.47715 17.5228 2 12 2ZM12.1678 7.1263C12.3742 6.94284 12.6902 6.96143 12.8737 7.16782L16.8737 11.6678C17.0421 11.8573 17.0421 12.1427 16.8737 12.3322L12.8737 16.8322C12.6902 17.0386 12.3742 17.0572 12.1678 16.8737C11.9614 16.6902 11.9428 16.3742 12.1263 16.1678L15.831 12L12.1263 7.83218C11.9428 7.62579 11.9614 7.30975 12.1678 7.1263ZM8.8737 7.16782C8.69025 6.96143 8.37421 6.94284 8.16782 7.1263C7.96143 7.30975 7.94284 7.62579 8.1263 7.83218L11.831 12L8.1263 16.1678C7.94284 16.3742 7.96143 16.6902 8.16782 16.8737C8.37421 17.0572 8.69025 17.0386 8.8737 16.8322L12.8737 12.3322C13.0421 12.1427 13.0421 11.8573 12.8737 11.6678L8.8737 7.16782Z" fill="black"/>
</svg>
