<svg width="32" height="32" viewBox="0 0 32 32" fill="none" xmlns="http://www.w3.org/2000/svg">
<g opacity="0.9">
<path d="M11.1621 9.63143C11.3657 9.44483 11.682 9.45858 11.8686 9.66214L17.3686 15.6621C17.5438 15.8533 17.5438 16.1467 17.3686 16.3379L11.8686 22.3379C11.682 22.5414 11.3657 22.5552 11.1621 22.3686C10.9586 22.182 10.9448 21.8657 11.1314 21.6621L16.3217 16L11.1314 10.3379C10.9448 10.1343 10.9586 9.81802 11.1621 9.63143Z" fill="black"/>
<path d="M16.1621 9.63143C16.3657 9.44483 16.682 9.45858 16.8686 9.66214L22.3686 15.6621C22.5438 15.8533 22.5438 16.1467 22.3686 16.3379L16.8686 22.3379C16.682 22.5414 16.3657 22.5552 16.1621 22.3686C15.9586 22.182 15.9448 21.8657 16.1314 21.6621L21.3217 16L16.1314 10.3379C15.9448 10.1343 15.9586 9.81802 16.1621 9.63143Z" fill="black"/>
<path fill-rule="evenodd" clip-rule="evenodd" d="M16 4C9.37258 4 4 9.37258 4 16C4 22.6274 9.37258 28 16 28C22.6274 28 28 22.6274 28 16C28 9.37258 22.6274 4 16 4ZM5 16C5 9.92487 9.92487 5 16 5C22.0751 5 27 9.92487 27 16C27 22.0751 22.0751 27 16 27C9.92487 27 5 22.0751 5 16Z" fill="black"/>
</g>
</svg>
