<svg width="32" height="32" viewBox="0 0 32 32" fill="none" xmlns="http://www.w3.org/2000/svg">
<path opacity="0.9" fill-rule="evenodd" clip-rule="evenodd" d="M16 4C9.37258 4 4 9.37258 4 16C4 22.6274 9.37258 28 16 28C22.6274 28 28 22.6274 28 16C28 9.37258 22.6274 4 16 4ZM16.8243 9.26285C17.2314 8.88966 17.864 8.91716 18.2372 9.32428L23.7372 15.3243C24.0876 15.7066 24.0876 16.2934 23.7372 16.6757L18.2372 22.6757C17.864 23.0828 17.2314 23.1104 16.8243 22.7372C16.4172 22.364 16.3897 21.7314 16.7628 21.3243L21.6434 16L16.7628 10.6757C16.3897 10.2686 16.4172 9.63604 16.8243 9.26285ZM11.2372 9.32428C10.864 8.91716 10.2314 8.88966 9.82427 9.26285C9.41715 9.63604 9.38965 10.2686 9.76284 10.6757L14.6434 16L9.76284 21.3243C9.38965 21.7314 9.41715 22.364 9.82427 22.7372C10.2314 23.1104 10.864 23.0828 11.2372 22.6757L16.7372 16.6757C17.0876 16.2934 17.0876 15.7066 16.7372 15.3243L11.2372 9.32428Z" fill="black"/>
</svg>
