<svg width="32" height="32" viewBox="0 0 32 32" fill="none" xmlns="http://www.w3.org/2000/svg">
<g opacity="0.9">
<path fill-rule="evenodd" clip-rule="evenodd" d="M16 17C16.5523 17 17 16.5523 17 16C17 15.4477 16.5523 15 16 15C15.4477 15 15 15.4477 15 16C15 16.5523 15.4477 17 16 17ZM16 18C17.1046 18 18 17.1046 18 16C18 14.8954 17.1046 14 16 14C14.8954 14 14 14.8954 14 16C14 17.1046 14.8954 18 16 18Z" fill="black"/>
<path fill-rule="evenodd" clip-rule="evenodd" d="M25 17C25.5523 17 26 16.5523 26 16C26 15.4477 25.5523 15 25 15C24.4477 15 24 15.4477 24 16C24 16.5523 24.4477 17 25 17ZM25 18C26.1046 18 27 17.1046 27 16C27 14.8954 26.1046 14 25 14C23.8954 14 23 14.8954 23 16C23 17.1046 23.8954 18 25 18Z" fill="black"/>
<path fill-rule="evenodd" clip-rule="evenodd" d="M7 17C7.55228 17 8 16.5523 8 16C8 15.4477 7.55228 15 7 15C6.44772 15 6 15.4477 6 16C6 16.5523 6.44772 17 7 17ZM7 18C8.10457 18 9 17.1046 9 16C9 14.8954 8.10457 14 7 14C5.89543 14 5 14.8954 5 16C5 17.1046 5.89543 18 7 18Z" fill="black"/>
</g>
</svg>
