<svg width="24" height="24" viewBox="0 0 24 24" fill="none" xmlns="http://www.w3.org/2000/svg">
<g clip-path="url(#clip0)">
<g opacity="0.9">
<path fill-rule="evenodd" clip-rule="evenodd" d="M15.5109 7.83123e-05C15.4645 0.00275741 15.4187 0.0113448 15.3745 0.0256321L14.1814 0.358008C13.9206 0.431868 13.7537 0.685955 13.7893 0.954594L13.8831 1.67048C13.6662 1.80992 13.461 1.97613 13.2695 2.15626L12.6047 1.89206C12.3522 1.79316 12.0653 1.89483 11.9314 2.13069L11.3178 3.21304C11.184 3.44762 11.242 3.74482 11.4542 3.91188L12.0167 4.34653C11.9596 4.60319 11.9321 4.86463 11.9229 5.12207L11.2582 5.41184C11.0091 5.51726 10.875 5.78925 10.9428 6.05102L11.2667 7.24417C11.3371 7.50832 11.5921 7.67956 11.8633 7.64472L12.5791 7.55097C12.7143 7.76424 12.865 7.96779 13.0394 8.15607L12.7666 8.82934C12.6677 9.08188 12.7694 9.36874 13.0053 9.50262L14.0791 10.1162C14.3157 10.2482 14.6133 10.1865 14.7779 9.97135L15.2211 9.39183C15.4719 9.44552 15.7268 9.4785 15.9796 9.48557L16.2608 10.1418C16.3668 10.3948 16.6441 10.5298 16.9086 10.4571L18.1017 10.1248C18.3624 10.0509 18.5294 9.79682 18.4937 9.52818L18.4 8.8123C18.6168 8.67288 18.8306 8.50661 19.0221 8.32652L19.6784 8.59071C19.9333 8.69462 20.2257 8.59228 20.3602 8.35209L20.9738 7.26973C21.1057 7.03313 21.044 6.73553 20.8289 6.57089L20.2664 6.13625C20.3235 5.88026 20.3596 5.61791 20.3687 5.3607L21.0334 5.07094C21.2791 4.96247 21.4093 4.69129 21.3402 4.43175L21.0164 3.23009C20.946 2.96594 20.6909 2.79469 20.4198 2.82953L19.7039 2.9318C19.5693 2.71979 19.4181 2.51473 19.2437 2.32671L19.5164 1.65344C19.6153 1.4009 19.5137 1.11404 19.2778 0.980161L18.204 0.366544C17.9674 0.234582 17.6698 0.29628 17.5051 0.511426L17.062 1.08243C16.8104 1.02822 16.5552 1.0046 16.3035 0.997206L16.0222 0.332454C15.9354 0.127817 15.7331 -0.0036756 15.5109 7.83123e-05ZM16.1074 2.36932C16.5987 2.37298 17.1001 2.50134 17.5563 2.76135C18.9465 3.55165 19.4701 5.31865 18.6898 6.69021C17.9093 8.06183 16.1264 8.51157 14.7353 7.72143C13.3438 6.93105 12.8211 5.16475 13.6018 3.79257C14.1262 2.87101 15.101 2.36185 16.1074 2.36932Z" fill="black"/>
<path fill-rule="evenodd" clip-rule="evenodd" d="M9.93717 8.19016C9.68522 8.20621 9.47721 8.39306 9.43433 8.64185L9.1957 9.94579C8.68056 10.0628 8.18228 10.2408 7.72133 10.4742L6.68159 9.62193C6.4736 9.45317 6.17385 9.46039 5.97424 9.63898L4.52539 10.9514C4.3187 11.1379 4.28565 11.4502 4.4487 11.6758L5.21572 12.7582C4.94429 13.1895 4.72006 13.6545 4.55948 14.1474L3.21296 14.2752C2.94473 14.3045 2.73821 14.5255 2.72717 14.7951L2.64194 16.7297C2.62931 17.0042 2.82286 17.2452 3.09362 17.2922L4.42312 17.5308C4.54214 18.0363 4.71698 18.5204 4.95154 18.9711L4.0993 19.9853C3.92294 20.1983 3.93396 20.5096 4.12493 20.7097L5.45443 22.1414C5.6388 22.3384 5.93949 22.371 6.16178 22.2181L7.26973 21.4597C7.70897 21.7306 8.1814 21.9472 8.68443 22.1074L8.81228 23.4283C8.83761 23.6999 9.05964 23.911 9.33214 23.9226L11.2923 23.9993C11.564 24.0126 11.804 23.8235 11.8547 23.5562L12.0933 22.2522C12.609 22.1347 13.0993 21.949 13.5592 21.7153L14.6075 22.5676C14.8154 22.7364 15.1152 22.7292 15.3149 22.5507L16.7636 21.2382C16.9654 21.0527 16.9983 20.7463 16.8404 20.5223L16.0733 19.4314C16.3448 19.0001 16.5689 18.5352 16.7296 18.0423L18.0676 17.9144C18.3392 17.8891 18.5503 17.6671 18.5619 17.3946L18.6471 15.46C18.6597 15.1855 18.4662 14.9444 18.1954 14.8975L16.8659 14.6674C16.7469 14.1615 16.5636 13.6789 16.329 13.2271L17.1898 12.2044C17.3661 11.9913 17.3551 11.68 17.1642 11.48L15.8347 10.0567C15.6526 9.85695 15.3516 9.82069 15.1273 9.97149L14.0194 10.7385C13.5801 10.4675 13.1078 10.2425 12.6046 10.0823L12.4683 8.76982C12.4429 8.49825 12.2209 8.28714 11.9484 8.27552L9.98825 8.1903C9.97121 8.1895 9.95415 8.1895 9.93711 8.1903L9.93717 8.19016ZM10.6019 11.4372C10.6798 11.4372 10.7533 11.4424 10.832 11.4457C10.8348 11.4456 10.8376 11.4456 10.8405 11.4457C13.3605 11.554 15.3116 13.7291 15.204 16.2865C15.0964 18.8435 12.9666 20.849 10.4484 20.7437C7.92799 20.6384 5.96881 18.4602 6.07642 15.9029C6.1806 13.4258 8.18768 11.4644 10.6018 11.4372L10.6019 11.4372Z" fill="black"/>
</g>
</g>
<defs>
<clipPath id="clip0">
<rect width="24" height="24" fill="white"/>
</clipPath>
</defs>
</svg>
