<svg width="24" height="24" viewBox="0 0 24 24" fill="none" xmlns="http://www.w3.org/2000/svg">
<g opacity="0.9">
<path d="M3.00719 4.44413C2.92649 3.67596 3.56105 3 4.40534 3H7.50702C7.72597 3 7.91946 3.14246 7.98447 3.35154L9.17118 7.16789C9.22828 7.35152 9.17501 7.55161 9.03418 7.68255C8.25486 8.40709 8.00148 9.59968 8.59629 10.5536C8.75419 10.8068 8.91951 11.0553 9.09201 11.2988C9.25165 11.5241 9.56372 11.5774 9.78904 11.4177C10.0144 11.2581 10.0676 10.946 9.90798 10.7207C9.74681 10.4932 9.59236 10.261 9.44483 10.0244C9.13453 9.52681 9.24162 8.8551 9.71508 8.41492C10.1376 8.02212 10.2974 7.42183 10.1261 6.87097L8.93937 3.05461C8.74433 2.42737 8.16388 2 7.50702 2H4.40534C3.0405 2 1.86254 3.11973 2.01267 4.54861C2.20932 6.42031 2.67483 8.25758 3.39776 10.0029C4.03322 11.537 4.85955 12.9807 5.85462 14.301C6.02083 14.5215 6.33434 14.5655 6.55486 14.3993C6.77538 14.2331 6.8194 13.9196 6.65319 13.699C5.70887 12.4462 4.92469 11.0761 4.32164 9.62022C3.63558 7.96391 3.19381 6.22036 3.00719 4.44413Z" fill="black"/>
<path d="M16.1119 15.2105C16.3754 14.9271 16.7781 14.8199 17.1476 14.9348L19.9761 15.8143C20.5918 16.0058 21.0114 16.5755 21.0114 17.2203V19.606C21.0114 20.4503 20.3354 21.0849 19.5672 21.0042C17.791 20.8176 16.0475 20.3758 14.3912 19.6897C12.931 19.0849 11.5571 18.2979 10.3012 17.3498C10.0809 17.1834 9.76731 17.2272 9.60094 17.4476C9.43456 17.668 9.47835 17.9816 9.69875 18.1479C11.0221 19.1469 12.4698 19.9763 14.0085 20.6136C15.7538 21.3365 17.5911 21.8021 19.4628 21.9987C20.8916 22.1488 22.0114 20.9709 22.0114 19.606V17.2203C22.0114 16.1376 21.3069 15.1809 20.2731 14.8594L17.4445 13.9799C16.7078 13.7508 15.9049 13.9645 15.3796 14.5296C15.0701 14.8624 14.6007 14.9349 14.2498 14.7265C13.9213 14.5314 13.6008 14.3231 13.2891 14.1023C13.0638 13.9426 12.7517 13.9958 12.5921 14.2211C12.4324 14.4464 12.4856 14.7585 12.7109 14.9182C13.0445 15.1546 13.3875 15.3775 13.7391 15.5863C14.534 16.0584 15.514 15.8536 16.1119 15.2105Z" fill="black"/>
<path d="M20.8536 3.85355C21.0488 3.65829 21.0488 3.34171 20.8536 3.14645C20.6583 2.95118 20.3417 2.95118 20.1464 3.14645L3.14645 20.1464C2.95118 20.3417 2.95118 20.6583 3.14645 20.8536C3.34171 21.0488 3.65829 21.0488 3.85355 20.8536L20.8536 3.85355Z" fill="black"/>
</g>
</svg>
