<svg width="24" height="24" viewBox="0 0 24 24" fill="none" xmlns="http://www.w3.org/2000/svg">
<path opacity="0.9" fill-rule="evenodd" clip-rule="evenodd" d="M2 4.5C2 3.67157 2.67157 3 3.5 3H20.5C21.3284 3 22 3.67157 22 4.5V19.5C22 20.3284 21.3284 21 20.5 21H3.5C2.67157 21 2 20.3284 2 19.5V4.5ZM3.5 4C3.22386 4 3 4.22386 3 4.5V8H21V4.5C21 4.22386 20.7761 4 20.5 4H3.5ZM3 12V9H9V12H3ZM9 13H3V16H9V13ZM10 16V13H13V16H10ZM9 17H3V19.5C3 19.7761 3.22386 20 3.5 20H9V17ZM10 20V17H13V20H10ZM10 12V9H13V12H10ZM14 12V9H17V12H14ZM14 13V16H17V13H14ZM14 17V20H17V17H14ZM18 16V13H21V16H18ZM18 20V17H21V19.5C21 19.7761 20.7761 20 20.5 20H18ZM18 12V9H21V12H18Z" fill="black"/>
</svg>
