<svg width="32" height="32" viewBox="0 0 32 32" fill="none" xmlns="http://www.w3.org/2000/svg">
<g opacity="0.9">
<path fill-rule="evenodd" clip-rule="evenodd" d="M18.2322 4.8172C18.7639 5.28988 19.1327 5.95431 19.2349 6.78538C20.1626 6.87028 21.2493 7.21585 22.1572 8.03287C23.2371 9.00471 24 10.5858 24 13V20.2573C24 20.4737 24.0793 20.7087 24.2431 20.9861C24.4089 21.267 24.6343 21.5484 24.8901 21.8674L24.8913 21.8689C25.1365 22.1748 25.4107 22.5167 25.62 22.8775C25.8318 23.2426 26 23.664 26 24.1366V24.5C26 24.7761 25.7761 25 25.5 25H6.5C6.22386 25 6 24.7761 6 24.5V24.1366C6 23.6641 6.16822 23.2426 6.38001 22.8775C6.58931 22.5167 6.86346 22.1748 7.10866 21.869L7.1099 21.8674C7.36569 21.5484 7.59111 21.267 7.75693 20.9861C7.92073 20.7087 8 20.4737 8 20.2573V13C8 10.5858 8.76289 9.00471 9.8428 8.03287C10.7507 7.21585 11.8374 6.87028 12.765 6.78538C12.8672 5.9543 13.236 5.28987 13.7678 4.8172C14.3888 4.26525 15.2025 4 16 4C16.7974 4 17.6112 4.26525 18.2322 4.8172ZM14.7251 14.2307V14.7623L15.5459 14.9812L14.6456 19.8282C14.6015 20.0679 14.5662 20.2868 14.5397 20.4849C14.5132 20.6829 14.5 20.8862 14.5 21.0946C14.5 21.2718 14.5618 21.4386 14.6854 21.595C14.8178 21.7409 15.0517 21.8139 15.3871 21.8139C15.5459 21.8139 15.7137 21.793 15.8902 21.7513C16.0667 21.7201 16.2388 21.6731 16.4065 21.6106C16.5831 21.5481 16.7464 21.4751 16.8964 21.3917C17.0553 21.3083 17.1921 21.2197 17.3069 21.1259V20.5943H16.3801L17.5716 13.8555L17.3333 13.6679C17.148 13.6679 16.9317 13.6887 16.6846 13.7304C16.4463 13.7617 16.2035 13.8034 15.9564 13.8555C15.7092 13.9076 15.4753 13.9702 15.2547 14.0431C15.034 14.1057 14.8575 14.1682 14.7251 14.2307ZM16.1417 10.4157C15.9387 10.6138 15.8372 10.89 15.8372 11.2444C15.8372 11.5779 15.9387 11.8437 16.1417 12.0418C16.3448 12.2398 16.6007 12.3389 16.9097 12.3389C17.2451 12.3389 17.5099 12.2398 17.704 12.0418C17.9071 11.8437 18.0086 11.5779 18.0086 11.2444C18.0086 10.89 17.9071 10.6138 17.704 10.4157C17.5099 10.2177 17.2451 10.1187 16.9097 10.1187C16.6007 10.1187 16.3448 10.2177 16.1417 10.4157Z" fill="black"/>
<path d="M12.8368 26C13.3985 27.1825 14.6038 28 16 28C17.3962 28 18.6015 27.1825 19.1632 26H12.8368Z" fill="black"/>
</g>
</svg>
