<svg width="16" height="16" viewBox="0 0 16 16" fill="none" xmlns="http://www.w3.org/2000/svg">
<g opacity="0.9">
<path fill-rule="evenodd" clip-rule="evenodd" d="M9.36343 1.50129C9.6581 1.76322 9.86861 2.11723 9.95562 2.54573C10.5147 2.65234 11.1602 2.94648 11.7095 3.44085C12.4349 4.09375 13 5.10178 13 6.5V10.1972C13 10.4059 13.1196 10.5843 13.393 10.9317L13.4176 10.963C13.65 11.2576 14 11.7012 14 12.3028V12.5C14 12.7761 13.7762 13 13.5 13H2.5C2.22386 13 2 12.7761 2 12.5V12.3028C2 11.7012 2.35001 11.2576 2.58244 10.963L2.60706 10.9317C2.88042 10.5843 3.00002 10.4059 3.00002 10.1972V6.5C3.00002 5.10178 3.56508 4.09375 4.29052 3.44085C4.83981 2.94649 5.48535 2.65234 6.04438 2.54573C6.13139 2.11723 6.3419 1.76322 6.63657 1.50129C7.02059 1.15994 7.51847 1 8 1C8.48154 1 8.97942 1.15995 9.36343 1.50129ZM7.1283 7.10963V7.38235L7.59623 7.49465L7.08302 9.98128C7.05786 10.1043 7.03774 10.2166 7.02264 10.3182C7.00755 10.4198 7 10.5241 7 10.631C7 10.7219 7.03522 10.8075 7.10566 10.8877C7.18113 10.9626 7.31447 11 7.50566 11C7.59623 11 7.69182 10.9893 7.79245 10.9679C7.89308 10.9519 7.9912 10.9278 8.08679 10.8957C8.18742 10.8636 8.2805 10.8262 8.36604 10.7834C8.4566 10.7406 8.53459 10.6952 8.6 10.6471V10.3743H8.0717L8.75094 6.91711L8.61509 6.82086C8.50943 6.82086 8.38616 6.83155 8.24528 6.85294C8.10943 6.86898 7.97107 6.89037 7.83019 6.91711C7.68931 6.94385 7.55597 6.97594 7.43019 7.01337C7.3044 7.04545 7.20377 7.07754 7.1283 7.10963ZM7.93585 5.15241C7.82013 5.25401 7.76226 5.39572 7.76226 5.57754C7.76226 5.74866 7.82013 5.88503 7.93585 5.98663C8.05157 6.08824 8.19748 6.13904 8.37359 6.13904C8.56478 6.13904 8.71572 6.08824 8.82642 5.98663C8.94214 5.88503 9 5.74866 9 5.57754C9 5.39572 8.94214 5.25401 8.82642 5.15241C8.71572 5.0508 8.56478 5 8.37359 5C8.19748 5 8.05157 5.0508 7.93585 5.15241Z" fill="black"/>
<path d="M5.62761 13.9868C6.04891 14.8737 6.95285 15.4868 8 15.4868C9.04715 15.4868 9.95109 14.8737 10.3724 13.9868H5.62761Z" fill="black"/>
</g>
</svg>
