<svg width="16" height="16" viewBox="0 0 16 16" fill="none" xmlns="http://www.w3.org/2000/svg">
<g opacity="0.9">
<path d="M9 3.00001C9 2.806 8.88777 2.6295 8.71208 2.54721C8.53639 2.46492 8.32895 2.49169 8.17991 2.6159L5.31897 5.00001H3.5C2.67157 5.00001 2 5.67158 2 6.50001V9.50001C2 10.3284 2.67157 11 3.5 11H5.31898L8.17991 13.3841C8.32895 13.5083 8.53639 13.5351 8.71208 13.4528C8.88777 13.3705 9 13.194 9 13V3.00001Z" fill="black"/>
<path d="M10.2226 5.08403C10.4524 4.93085 10.7628 4.99294 10.916 5.2227C12.028 6.89065 12.028 9.10945 10.916 10.7774C10.7628 11.0072 10.4524 11.0693 10.2226 10.9161C9.99288 10.7629 9.93079 10.4525 10.084 10.2227C10.972 8.89065 10.972 7.10945 10.084 5.7774C9.93079 5.54764 9.99288 5.2372 10.2226 5.08403Z" fill="black"/>
<path d="M12.399 3.19868C12.2326 2.97833 11.919 2.93461 11.6987 3.10104C11.4783 3.26747 11.4346 3.58102 11.601 3.80137C12.4155 4.87973 12.8519 6.40557 12.8567 7.97263C12.8616 9.53906 12.435 11.0839 11.5996 12.2005C11.4342 12.4216 11.4794 12.735 11.7005 12.9004C11.9216 13.0658 12.2349 13.0207 12.4003 12.7996C13.3944 11.4709 13.8621 9.69979 13.8567 7.96952C13.8514 6.23989 13.373 4.48832 12.399 3.19868Z" fill="black"/>
</g>
</svg>
