<svg width="32" height="32" viewBox="0 0 32 32" fill="none" xmlns="http://www.w3.org/2000/svg">
<g opacity="0.9">
<path d="M23.2071 5.79289C22.8166 5.40237 22.1834 5.40237 21.7929 5.79289C21.4024 6.18342 21.4024 6.81658 21.7929 7.20711C23.7965 9.21073 24.875 12.5434 24.875 16C24.875 19.4566 23.7965 22.7893 21.7929 24.7929C21.4024 25.1834 21.4024 25.8166 21.7929 26.2071C22.1834 26.5976 22.8166 26.5976 23.2071 26.2071C25.7035 23.7107 26.875 19.7934 26.875 16C26.875 12.2066 25.7035 8.28927 23.2071 5.79289Z" fill="black"/>
<path d="M17 6.50001C17 6.3021 16.8833 6.12282 16.7023 6.04275C16.5213 5.96269 16.3101 5.99691 16.1637 6.13004L10.8067 11H6.5C5.67157 11 5 11.6716 5 12.5V19.5C5 20.3284 5.67157 21 6.5 21H10.8067L16.1637 25.87C16.3101 26.0031 16.5213 26.0373 16.7023 25.9573C16.8833 25.8772 17 25.6979 17 25.5V6.50001Z" fill="black"/>
<path d="M18.8273 9.76007C19.236 9.38856 19.8684 9.41868 20.2399 9.82733C21.7666 11.5066 22.5 13.776 22.5 16C22.5 18.224 21.7666 20.4934 20.2399 22.1727C19.8684 22.5813 19.236 22.6115 18.8273 22.2399C18.4187 21.8684 18.3886 21.236 18.7601 20.8273C19.9001 19.5733 20.5 17.8094 20.5 16C20.5 14.1906 19.9001 12.4267 18.7601 11.1727C18.3886 10.764 18.4187 10.1316 18.8273 9.76007Z" fill="black"/>
</g>
</svg>
