<svg width="16" height="16" viewBox="0 0 16 16" fill="none" xmlns="http://www.w3.org/2000/svg">
<g opacity="0.9">
<path d="M7.77254 2.33123C7.97609 1.53159 8.9348 1.20557 9.58363 1.71536C10.4779 2.41802 11.0001 3.49237 11.0001 4.62969V4.74127C11.0001 4.84465 11.0839 4.92845 11.1873 4.92845H11.8574C13.515 4.92845 14.7137 6.5123 14.2634 8.1076L13.3964 11.179C13.0924 12.2561 12.1096 12.9999 10.9904 12.9999H7.87888C7.56601 12.9999 7.25592 12.9412 6.96471 12.8268L5.31727 12.1795C5.12593 12.1043 5.0001 11.9197 5.0001 11.7141V6.37294C5.0001 6.07157 5.18456 5.80092 5.46506 5.69073C6.47821 5.2927 7.23793 4.43147 7.50645 3.37659L7.77254 2.33123Z" fill="black"/>
<path d="M3.5 5C3.77614 5 4 5.22386 4 5.5V12.5C4 12.7761 3.77614 13 3.5 13H1.5C1.22386 13 1 12.7761 1 12.5V5.5C1 5.22386 1.22386 5 1.5 5H3.5Z" fill="black"/>
</g>
</svg>
