<svg width="24" height="24" viewBox="0 0 24 24" fill="none" xmlns="http://www.w3.org/2000/svg">
<g opacity="0.9">
<path d="M7.94493 14.272C7.81892 14.0262 7.51758 13.9292 7.27187 14.0552C7.02615 14.1812 6.9291 14.4825 7.0551 14.7283C7.3202 15.2452 7.67178 15.7214 8.10027 16.136C9.13728 17.1393 10.5404 17.7001 12 17.7001C13.4597 17.7001 14.8627 17.1393 15.8998 16.136C16.3283 15.7214 16.6798 15.2452 16.9449 14.7283C17.0709 14.4825 16.9739 14.1812 16.7282 14.0552C16.4824 13.9292 16.1811 14.0262 16.0551 14.272C15.8401 14.6913 15.5542 15.0789 15.2044 15.4173C14.3573 16.2369 13.2049 16.7001 12 16.7001C10.7951 16.7001 9.64272 16.2369 8.79559 15.4173C8.44579 15.0789 8.15995 14.6913 7.94493 14.272Z" fill="black"/>
<path fill-rule="evenodd" clip-rule="evenodd" d="M8.5 11C9.32843 11 10 10.3284 10 9.5C10 8.67157 9.32843 8 8.5 8C7.67157 8 7 8.67157 7 9.5C7 10.3284 7.67157 11 8.5 11ZM8.5 10C8.77614 10 9 9.77614 9 9.5C9 9.22386 8.77614 9 8.5 9C8.22386 9 8 9.22386 8 9.5C8 9.77614 8.22386 10 8.5 10Z" fill="black"/>
<path fill-rule="evenodd" clip-rule="evenodd" d="M17 9.5C17 10.3284 16.3284 11 15.5 11C14.6716 11 14 10.3284 14 9.5C14 8.67157 14.6716 8 15.5 8C16.3284 8 17 8.67157 17 9.5ZM16 9.5C16 9.77614 15.7761 10 15.5 10C15.2239 10 15 9.77614 15 9.5C15 9.22386 15.2239 9 15.5 9C15.7761 9 16 9.22386 16 9.5Z" fill="black"/>
<path fill-rule="evenodd" clip-rule="evenodd" d="M12 2C6.47715 2 2 6.47715 2 12C2 17.5228 6.47715 22 12 22C17.5228 22 22 17.5228 22 12C22 6.47715 17.5228 2 12 2ZM3 12C3 7.02944 7.02944 3 12 3C16.9706 3 21 7.02944 21 12C21 16.9706 16.9706 21 12 21C7.02944 21 3 16.9706 3 12Z" fill="black"/>
</g>
</svg>
