<svg width="16" height="16" viewBox="0 0 16 16" fill="none" xmlns="http://www.w3.org/2000/svg">
<g clip-path="url(#clip0)">
<g opacity="0.9">
<path d="M9.14645 2.85363C9.34171 3.04889 9.65829 3.04889 9.85355 2.85363C10.0488 2.65837 10.0488 2.34178 9.85355 2.14652L7.5 -0.207031L5.14645 2.14652C4.95118 2.34178 4.95118 2.65837 5.14645 2.85363C5.34171 3.04889 5.65829 3.04889 5.85355 2.85363L7 1.70718V9.50008C7 9.77622 7.22386 10.0001 7.5 10.0001C7.77614 10.0001 8 9.77622 8 9.50008V1.70718L9.14645 2.85363Z" fill="black"/>
<path d="M2 5.50006C2 4.67163 2.67157 4.00006 3.5 4.00006C3.77614 4.00006 4 3.7762 4 3.50006C4 3.22392 3.77614 3.00006 3.5 3.00006C2.11929 3.00006 1 4.11935 1 5.50006V10.5001C1 11.8808 2.11929 13.0001 3.5 13.0001H11.5C12.8807 13.0001 14 11.8808 14 10.5001V5.50006C14 4.11935 12.8807 3.00006 11.5 3.00006C11.2239 3.00006 11 3.22392 11 3.50006C11 3.7762 11.2239 4.00006 11.5 4.00006C12.3284 4.00006 13 4.67163 13 5.50006V10.5001C13 11.3285 12.3284 12.0001 11.5 12.0001H3.5C2.67157 12.0001 2 11.3285 2 10.5001V5.50006Z" fill="black"/>
</g>
</g>
<defs>
<clipPath id="clip0">
<rect width="16" height="16" fill="white"/>
</clipPath>
</defs>
</svg>
