<svg width="32" height="32" viewBox="0 0 32 32" fill="none" xmlns="http://www.w3.org/2000/svg">
<path opacity="0.9" fill-rule="evenodd" clip-rule="evenodd" d="M19.6532 6.69342C19.8521 6.88496 20.1686 6.87899 20.3602 6.68008C20.5517 6.48117 20.5457 6.16464 20.3468 5.9731L15.5 1.30579L10.6532 5.97309C10.4543 6.16464 10.4483 6.48117 10.6398 6.68008C10.8314 6.87899 11.1479 6.88496 11.3468 6.69342L15 3.17554V18.4999C15 18.7761 15.2239 18.9999 15.5 18.9999C15.7761 18.9999 16 18.7761 16 18.4999V3.17554L19.6532 6.69342ZM7.5 9.00001H13.5V18.5C13.5 19.6046 14.3954 20.5 15.5 20.5C16.6046 20.5 17.5 19.6046 17.5 18.5V9.00001H23.5C25.433 9.00001 27 10.567 27 12.5V22.5C27 24.433 25.433 26 23.5 26H7.5C5.567 26 4 24.433 4 22.5V12.5C4 10.567 5.567 9.00001 7.5 9.00001Z" fill="black"/>
</svg>
