<svg width="24" height="24" viewBox="0 0 24 24" fill="none" xmlns="http://www.w3.org/2000/svg">
<g opacity="0.9">
<path d="M6.5 11C6.77614 11 7 11.2239 7 11.5V12.3615L8 14.0282L9 12.3615V11.5C9 11.2239 9.22386 11 9.5 11C9.77614 11 10 11.2239 10 11.5V12.3615C10 12.5428 9.95074 12.7206 9.85749 12.876L8.5831 15L9.85749 17.124C9.95074 17.2794 10 17.4572 10 17.6385V18.5C10 18.7761 9.77614 19 9.5 19C9.22386 19 9 18.7761 9 18.5V17.6385L8 15.9718L7 17.6385V18.5C7 18.7761 6.77614 19 6.5 19C6.22386 19 6 18.7761 6 18.5V17.6385C6 17.4572 6.04926 17.2794 6.14251 17.124L7.4169 15L6.14251 12.876C6.04926 12.7206 6 12.5428 6 12.3615V11.5C6 11.2239 6.22386 11 6.5 11Z" fill="black"/>
<path d="M11.5 11C11.7761 11 12 11.2239 12 11.5V18H13.5C13.7761 18 14 18.2239 14 18.5C14 18.7761 13.7761 19 13.5 19H11.5C11.2239 19 11 18.7761 11 18.5V11.5C11 11.2239 11.2239 11 11.5 11Z" fill="black"/>
<path d="M17.3541 11C16.0479 11 15 12.0774 15 13.3715C15 14.2428 15.4912 15.0546 16.2764 15.4472C16.717 15.6675 17 16.1294 17 16.6285C17 17.3825 16.3877 18 15.6459 18H15.5C15.2239 18 15 18.2239 15 18.5C15 18.7761 15.2239 19 15.5 19H15.6459C16.9521 19 18 17.9226 18 16.6285C18 15.7572 17.5088 14.9454 16.7236 14.5528C16.283 14.3325 16 13.8706 16 13.3715C16 12.6175 16.6123 12 17.3541 12H17.5C17.7761 12 18 11.7761 18 11.5C18 11.2239 17.7761 11 17.5 11H17.3541Z" fill="black"/>
<path fill-rule="evenodd" clip-rule="evenodd" d="M3 3.5C3 2.11929 4.11929 1 5.5 1H15.5C15.6662 1 15.8254 1.0668 15.9418 1.18538L21 6.33724V20.5C21 21.8807 19.8807 23 18.5 23H5.5C4.11929 23 3 21.8807 3 20.5V3.5ZM5.5 2C4.67157 2 4 2.67157 4 3.5V20.5C4 21.3284 4.67157 22 5.5 22H18.5C19.3284 22 20 21.3284 20 20.5V7.04167H17.5C16.1193 7.04167 15 5.92238 15 4.54167V2H5.5ZM16 2.67202L19.3084 6.04167H17.5C16.6716 6.04167 16 5.37009 16 4.54167V2.67202Z" fill="black"/>
</g>
</svg>
