<svg width="24" height="24" viewBox="0 0 24 24" fill="none" xmlns="http://www.w3.org/2000/svg">
<g opacity="0.9">
<path fill-rule="evenodd" clip-rule="evenodd" d="M2.5 13.0001C2.77614 13.0001 3 13.2239 3 13.5001V18.5001C3 19.3285 3.67157 20.0001 4.5 20.0001H18.5C19.3284 20.0001 20 19.3285 20 18.5001V13.5001C20 13.2239 20.2239 13.0001 20.5 13.0001C20.7761 13.0001 21 13.2239 21 13.5001V18.5001C21 19.8808 19.8807 21.0001 18.5 21.0001H4.5C3.11929 21.0001 2 19.8808 2 18.5001V13.5001C2 13.2239 2.22386 13.0001 2.5 13.0001Z" fill="black"/>
<path fill-rule="evenodd" clip-rule="evenodd" d="M15.3589 7.74325C15.1666 7.94146 14.8501 7.94628 14.6519 7.75401L12 5.18165L12 16.5001C12 16.7762 11.7761 17.0001 11.5 17.0001C11.2239 17.0001 11 16.7762 11 16.5001L11 5.18165L8.34813 7.75401C8.14992 7.94628 7.83338 7.94146 7.64111 7.74325C7.44884 7.54504 7.45366 7.22849 7.65187 7.03622L11.5 3.30347L15.3481 7.03622C15.5463 7.22849 15.5512 7.54504 15.3589 7.74325Z" fill="black"/>
</g>
</svg>
