<svg width="32" height="32" viewBox="0 0 32 32" fill="none" xmlns="http://www.w3.org/2000/svg">
<g opacity="0.9">
<path d="M20.3064 9.55374C20.7042 9.93683 21.3372 9.92489 21.7203 9.52706C22.1034 9.12924 22.0915 8.49619 21.6936 8.1131L16.5 3.11182L11.3064 8.1131C10.9085 8.49619 10.8966 9.12924 11.2797 9.52706C11.6628 9.92489 12.2958 9.93683 12.6936 9.55374L15.5 6.85132L15.5 22.0001C15.5 22.5524 15.9477 23.0001 16.5 23.0001C17.0523 23.0001 17.5 22.5524 17.5 22.0001L17.5 6.85132L20.3064 9.55374Z" fill="black"/>
<path d="M6.5 17.5C6.5 16.9477 6.05228 16.5 5.5 16.5C4.94772 16.5 4.5 16.9477 4.5 17.5V24.5C4.5 26.1569 5.84314 27.5 7.5 27.5H25.5C27.1569 27.5 28.5 26.1569 28.5 24.5V17.5C28.5 16.9477 28.0523 16.5 27.5 16.5C26.9477 16.5 26.5 16.9477 26.5 17.5V24.5C26.5 25.0523 26.0523 25.5 25.5 25.5H7.5C6.94772 25.5 6.5 25.0523 6.5 24.5V17.5Z" fill="black"/>
</g>
</svg>
