<svg width="16" height="16" viewBox="0 0 16 16" fill="none" xmlns="http://www.w3.org/2000/svg">
<g opacity="0.9">
<path d="M9.14645 4.85363C9.34171 5.04889 9.65829 5.04889 9.85355 4.85363C10.0488 4.65837 10.0488 4.34178 9.85355 4.14652L7.5 1.79297L5.14645 4.14652C4.95118 4.34178 4.95118 4.65837 5.14645 4.85363C5.34171 5.04889 5.65829 5.04889 5.85355 4.85363L7 3.70718V11.0001C7 11.2762 7.22386 11.5001 7.5 11.5001C7.77614 11.5001 8 11.2762 8 11.0001V3.70718L9.14645 4.85363Z" fill="black"/>
<path d="M2 8.5C2 8.22386 1.77614 8 1.5 8C1.22386 8 1 8.22386 1 8.5V11.5C1 12.8807 2.11929 14 3.5 14H11.5C12.8807 14 14 12.8807 14 11.5V8.5C14 8.22386 13.7761 8 13.5 8C13.2239 8 13 8.22386 13 8.5V11.5C13 12.3284 12.3284 13 11.5 13H3.5C2.67157 13 2 12.3284 2 11.5V8.5Z" fill="black"/>
</g>
</svg>
