<svg width="16" height="16" viewBox="0 0 16 16" fill="none" xmlns="http://www.w3.org/2000/svg">
<g opacity="0.9">
<path fill-rule="evenodd" clip-rule="evenodd" d="M1.5 7.99995C1.77614 7.99995 2 8.22381 2 8.49995V11.5C2 12.3284 2.67157 13 3.5 13H11.5C12.3284 13 13 12.3284 13 11.5V8.49995C13 8.22381 13.2239 7.99995 13.5 7.99995C13.7761 7.99995 14 8.22381 14 8.49995V11.5C14 12.8807 12.8807 14 11.5 14H3.5C2.11929 14 1 12.8807 1 11.5V8.49995C1 8.22381 1.22386 7.99995 1.5 7.99995Z" fill="black"/>
<path fill-rule="evenodd" clip-rule="evenodd" d="M9.85355 4.85351C9.65829 5.04877 9.34171 5.04877 9.14645 4.85351L8 3.70706V11C8 11.2761 7.77614 11.5 7.5 11.5C7.22386 11.5 7 11.2761 7 11V3.70706L5.85355 4.85351C5.65829 5.04877 5.34171 5.04877 5.14645 4.85351C4.95118 4.65825 4.95118 4.34166 5.14645 4.1464L7.5 1.79285L9.85355 4.1464C10.0488 4.34166 10.0488 4.65825 9.85355 4.85351Z" fill="black"/>
</g>
</svg>
