<svg width="32" height="32" viewBox="0 0 32 32" fill="none" xmlns="http://www.w3.org/2000/svg">
<g opacity="0.9">
<path d="M21.8535 10.1464C22.0488 10.3417 22.0488 10.6583 21.8535 10.8536L16.7071 16L21.8536 21.1465C22.0488 21.3418 22.0488 21.6584 21.8536 21.8536C21.6583 22.0489 21.3417 22.0489 21.1464 21.8536L16 16.7071L10.8535 21.8536C10.6583 22.0488 10.3417 22.0488 10.1464 21.8536C9.95117 21.6583 9.95117 21.3417 10.1464 21.1464L15.2928 16L10.1464 10.8536C9.95118 10.6584 9.95118 10.3418 10.1464 10.1465C10.3417 9.95126 10.6583 9.95126 10.8536 10.1465L16 15.2929L21.1464 10.1464C21.3417 9.95119 21.6583 9.95119 21.8535 10.1464Z" fill="black"/>
<path fill-rule="evenodd" clip-rule="evenodd" d="M16 4C9.37258 4 4 9.37258 4 16C4 22.6274 9.37258 28 16 28C22.6274 28 28 22.6274 28 16C28 9.37258 22.6274 4 16 4ZM5 16C5 9.92487 9.92487 5 16 5C22.0751 5 27 9.92487 27 16C27 22.0751 22.0751 27 16 27C9.92487 27 5 22.0751 5 16Z" fill="black"/>
</g>
</svg>
