<svg width="16" height="16" viewBox="0 0 16 16" fill="none" xmlns="http://www.w3.org/2000/svg">
<g opacity="0.9">
<path d="M9.95562 2.54573C9.86861 2.11723 9.6581 1.76322 9.36343 1.50129C8.97942 1.15995 8.48154 1 8 1C7.51847 1 7.02059 1.15994 6.63657 1.50129C6.3419 1.76322 6.13139 2.11723 6.04438 2.54573C5.72503 2.60663 5.37745 2.72873 5.03571 2.91439L13.9147 11.7933C13.7963 11.443 13.5787 11.1672 13.4176 10.963L13.393 10.9317C13.1196 10.5843 13 10.4059 13 10.1972V6.5C13 5.10178 12.4349 4.09375 11.7095 3.44085C11.1602 2.94648 10.5147 2.65234 9.95562 2.54573Z" fill="black"/>
<path d="M3.00002 6.5C3.00002 6.05423 3.05745 5.64812 3.15921 5.28053L10.8787 13H2.5C2.22386 13 2 12.7761 2 12.5V12.3028C2 11.7012 2.35001 11.2576 2.58244 10.963L2.60706 10.9317C2.88042 10.5843 3.00002 10.4059 3.00002 10.1972V6.5Z" fill="black"/>
<path d="M8 15.4868C6.95285 15.4868 6.04891 14.8737 5.62761 13.9868H10.3724C9.95109 14.8737 9.04715 15.4868 8 15.4868Z" fill="black"/>
<path d="M2.85355 2.14652C2.65829 1.95126 2.34171 1.95126 2.14645 2.14652C1.95118 2.34178 1.95118 2.65837 2.14645 2.85363L13.1464 13.8536C13.3417 14.0489 13.6583 14.0489 13.8536 13.8536C14.0488 13.6584 14.0488 13.3418 13.8536 13.1465L2.85355 2.14652Z" fill="black"/>
</g>
</svg>
