<svg width="32" height="32" viewBox="0 0 32 32" fill="none" xmlns="http://www.w3.org/2000/svg">
<g opacity="0.9">
<path d="M14.4322 5.56461C14.026 5.92568 13.7364 6.47809 13.7364 7.26362C13.7364 7.53976 13.5125 7.76362 13.2364 7.76362C12.6779 7.76362 12.0113 7.88023 11.378 8.19163C11.1302 8.31348 10.8305 8.21137 10.7087 7.96357C10.5868 7.71576 10.6889 7.4161 10.9367 7.29425C11.5529 6.99124 12.1884 6.83802 12.765 6.78532C12.8673 5.95428 13.2361 5.28986 13.7678 4.8172C14.3888 4.26525 15.2025 4 16 4C16.7974 4 17.6112 4.26525 18.2322 4.8172C18.7639 5.28988 19.1327 5.95431 19.2349 6.78538C20.1626 6.87028 21.2493 7.21585 22.1572 8.03287C23.2371 9.00471 24 10.5858 24 13V20.2573C24 20.5334 23.7761 20.7573 23.5 20.7573C23.2239 20.7573 23 20.5334 23 20.2573V13C23 10.8081 22.3159 9.52102 21.4883 8.77619C20.6477 8.01974 19.5935 7.76362 18.7636 7.76362C18.4875 7.76362 18.2636 7.53976 18.2636 7.26362C18.2636 6.4781 17.974 5.92569 17.5678 5.56461C17.1524 5.19536 16.5844 5 16 5C15.4156 5 14.8476 5.19535 14.4322 5.56461Z" fill="black"/>
<path fill-rule="evenodd" clip-rule="evenodd" d="M8.6383 11.2885C8.91217 11.3238 9.10555 11.5745 9.07021 11.8483C9.02471 12.201 9 12.5841 9 13V20.2573C9 20.7221 8.82927 21.1367 8.61807 21.4945C8.41514 21.8383 8.15068 22.168 7.91209 22.4655L7.8901 22.4929C7.63562 22.8104 7.41034 23.0943 7.24499 23.3793C7.11355 23.6059 7.03492 23.8089 7.00929 24H21C21.2761 24 21.5 24.2239 21.5 24.5C21.5 24.7761 21.2761 25 21 25H19.4646C19.2219 26.6961 17.7632 28 16 28C14.2368 28 12.7781 26.6961 12.5354 25H6.5C6.22386 25 6 24.7761 6 24.5V24.1366C6 23.6641 6.16822 23.2426 6.38001 22.8775C6.58931 22.5167 6.86346 22.1748 7.10866 21.869L7.1099 21.8674C7.36569 21.5484 7.59111 21.267 7.75693 20.9861C7.92073 20.7087 8 20.4737 8 20.2573V13C8 12.5446 8.02706 12.1186 8.07843 11.7204C8.11377 11.4465 8.36443 11.2531 8.6383 11.2885ZM16 27C14.7905 27 13.7816 26.1411 13.55 25H18.45C18.2184 26.1411 17.2095 27 16 27Z" fill="black"/>
<path d="M5.85355 5.14652C5.65829 4.95126 5.34171 4.95126 5.14645 5.14652C4.95118 5.34178 4.95118 5.65837 5.14645 5.85363L26.1464 26.8536C26.3417 27.0489 26.6583 27.0489 26.8536 26.8536C27.0488 26.6584 27.0488 26.3418 26.8536 26.1465L5.85355 5.14652Z" fill="black"/>
</g>
</svg>
