<svg width="16" height="16" viewBox="0 0 16 16" fill="none" xmlns="http://www.w3.org/2000/svg">
<g opacity="0.9">
<path d="M7.30093 2.2487C7.13165 2.39917 7 2.63567 7 2.99999C7 3.27613 6.77614 3.49999 6.5 3.49999C6.38321 3.49999 6.22945 3.52043 6.05116 3.57111C5.78554 3.64662 5.50901 3.4925 5.4335 3.22688C5.358 2.96126 5.51212 2.68472 5.77774 2.60922C5.86739 2.58373 5.95654 2.5625 6.04438 2.54574C6.13139 2.11723 6.3419 1.76322 6.63657 1.50129C7.02059 1.15994 7.51847 1 8 1C8.48154 1 8.97942 1.15995 9.36343 1.50129C9.6581 1.76322 9.86861 2.11723 9.95562 2.54573C10.5147 2.65234 11.1602 2.94648 11.7095 3.44085C12.4349 4.09375 13 5.10178 13 6.5V10.1972C13 10.4734 12.7762 10.6972 12.5 10.6972C12.2239 10.6972 12 10.4734 12 10.1972V6.5C12 5.39821 11.5651 4.65624 11.0405 4.18414C10.4974 3.69537 9.86379 3.49999 9.5 3.49999C9.22386 3.49999 9 3.27613 9 2.99999C9 2.63568 8.86835 2.39918 8.69907 2.24871C8.52058 2.09005 8.26846 2 8 2C7.73153 2 7.47941 2.09005 7.30093 2.2487Z" fill="black"/>
<path fill-rule="evenodd" clip-rule="evenodd" d="M3.50002 6C3.77616 6 4.00002 6.22386 4.00002 6.5V10.1972C4.00002 10.7824 3.65422 11.2197 3.42558 11.5088L3.39296 11.5501C3.24737 11.7351 3.14416 11.8751 3.08016 12H10C10.2761 12 10.5 12.2239 10.5 12.5C10.5 13.8807 9.38071 15 8 15C6.79052 15 5.78164 14.1411 5.55001 13H2.5C2.22386 13 2 12.7761 2 12.5V12.3028C2 11.7012 2.35001 11.2576 2.58244 10.963L2.60706 10.9317C2.88042 10.5843 3.00002 10.4059 3.00002 10.1972V6.5C3.00002 6.22386 3.22388 6 3.50002 6ZM8 14C7.34689 14 6.79127 13.5826 6.58535 13H9.41465C9.20873 13.5826 8.65311 14 8 14Z" fill="black"/>
<path d="M2.85355 2.14652C2.65829 1.95126 2.34171 1.95126 2.14645 2.14652C1.95118 2.34178 1.95118 2.65837 2.14645 2.85363L13.1464 13.8536C13.3417 14.0489 13.6583 14.0489 13.8536 13.8536C14.0488 13.6584 14.0488 13.3418 13.8536 13.1465L2.85355 2.14652Z" fill="black"/>
</g>
</svg>
