<svg width="32" height="32" viewBox="0 0 32 32" fill="none" xmlns="http://www.w3.org/2000/svg">
<g opacity="0.9">
<path d="M8 13C8 12.2676 8.07021 11.6119 8.19818 11.0266L22.1716 25H6.5C6.22386 25 6 24.7761 6 24.5V24.1366C6 23.6641 6.16822 23.2426 6.38001 22.8775C6.5893 22.5167 6.86346 22.1748 7.10866 21.869L7.1099 21.8674C7.36569 21.5484 7.59111 21.267 7.75693 20.9861C7.92073 20.7087 8 20.4737 8 20.2573V13Z" fill="black"/>
<path d="M24.8913 21.869C25.0844 22.1098 25.2955 22.3731 25.4787 22.6503L10.4182 7.58974C11.1876 7.08565 12.0267 6.85295 12.765 6.78538C12.8672 5.9543 13.236 5.28987 13.7678 4.8172C14.3888 4.26525 15.2025 4 16 4C16.7974 4 17.6112 4.26525 18.2322 4.8172C18.7639 5.28988 19.1327 5.95431 19.2349 6.78538C20.1626 6.87028 21.2493 7.21585 22.1572 8.03287C23.2371 9.00471 24 10.5858 24 13V20.2573C24 20.4737 24.0793 20.7087 24.2431 20.9861C24.4089 21.267 24.6343 21.5484 24.8901 21.8674L24.8913 21.869Z" fill="black"/>
<path d="M16 28C14.6038 28 13.3985 27.1825 12.8368 26H19.1632C18.6015 27.1825 17.3962 28 16 28Z" fill="black"/>
<path d="M6.20711 4.79304C5.81658 4.40252 5.18342 4.40252 4.79289 4.79304C4.40237 5.18357 4.40237 5.81673 4.79289 6.20726L25.7929 27.2073C26.1834 27.5978 26.8166 27.5978 27.2071 27.2073C27.5976 26.8167 27.5976 26.1836 27.2071 25.793L6.20711 4.79304Z" fill="black"/>
</g>
</svg>
