<svg width="32" height="32" viewBox="0 0 32 32" fill="none" xmlns="http://www.w3.org/2000/svg">
<g opacity="0.9">
<path d="M10 7.5C10 7.22386 10.2239 7 10.5 7H25.5C25.7761 7 26 7.22386 26 7.5V8.5C26 8.77614 25.7761 9 25.5 9H10.5C10.2239 9 10 8.77614 10 8.5V7.5Z" fill="black"/>
<path d="M6 7.5C6 7.22386 6.22386 7 6.5 7H7.5C7.77614 7 8 7.22386 8 7.5V8.5C8 8.77614 7.77614 9 7.5 9H6.5C6.22386 9 6 8.77614 6 8.5V7.5Z" fill="black"/>
<path d="M10 12.5C10 12.2239 10.2239 12 10.5 12H25.5C25.7761 12 26 12.2239 26 12.5V13.5C26 13.7761 25.7761 14 25.5 14H10.5C10.2239 14 10 13.7761 10 13.5V12.5Z" fill="black"/>
<path d="M6 12.5C6 12.2239 6.22386 12 6.5 12H7.5C7.77614 12 8 12.2239 8 12.5V13.5C8 13.7761 7.77614 14 7.5 14H6.5C6.22386 14 6 13.7761 6 13.5V12.5Z" fill="black"/>
<path d="M10 17.5C10 17.2239 10.2239 17 10.5 17H25.5C25.7761 17 26 17.2239 26 17.5V18.5C26 18.7761 25.7761 19 25.5 19H10.5C10.2239 19 10 18.7761 10 18.5V17.5Z" fill="black"/>
<path d="M6 17.5C6 17.2239 6.22386 17 6.5 17H7.5C7.77614 17 8 17.2239 8 17.5V18.5C8 18.7761 7.77614 19 7.5 19H6.5C6.22386 19 6 18.7761 6 18.5V17.5Z" fill="black"/>
<path d="M10 22.5C10 22.2239 10.2239 22 10.5 22H25.5C25.7761 22 26 22.2239 26 22.5V23.5C26 23.7761 25.7761 24 25.5 24H10.5C10.2239 24 10 23.7761 10 23.5V22.5Z" fill="black"/>
<path d="M6 22.5C6 22.2239 6.22386 22 6.5 22H7.5C7.77614 22 8 22.2239 8 22.5V23.5C8 23.7761 7.77614 24 7.5 24H6.5C6.22386 24 6 23.7761 6 23.5V22.5Z" fill="black"/>
</g>
</svg>
