<svg width="24" height="24" viewBox="0 0 24 24" fill="none" xmlns="http://www.w3.org/2000/svg">
<g opacity="0.9">
<path d="M7 5.5C7 5.22386 7.22386 5 7.5 5H20.5C20.7761 5 21 5.22386 21 5.5V6.5C21 6.77614 20.7761 7 20.5 7H7.5C7.22386 7 7 6.77614 7 6.5V5.5Z" fill="black"/>
<path d="M7 9.5C7 9.22386 7.22386 9 7.5 9H20.5C20.7761 9 21 9.22386 21 9.5V10.5C21 10.7761 20.7761 11 20.5 11H7.5C7.22386 11 7 10.7761 7 10.5V9.5Z" fill="black"/>
<path d="M7 13.5C7 13.2239 7.22386 13 7.5 13H20.5C20.7761 13 21 13.2239 21 13.5V14.5C21 14.7761 20.7761 15 20.5 15H7.5C7.22386 15 7 14.7761 7 14.5V13.5Z" fill="black"/>
<path d="M7 17.5C7 17.2239 7.22386 17 7.5 17H20.5C20.7761 17 21 17.2239 21 17.5V18.5C21 18.7761 20.7761 19 20.5 19H7.5C7.22386 19 7 18.7761 7 18.5V17.5Z" fill="black"/>
<path d="M3 5.5C3 5.22386 3.22386 5 3.5 5H4.5C4.77614 5 5 5.22386 5 5.5V6.5C5 6.77614 4.77614 7 4.5 7H3.5C3.22386 7 3 6.77614 3 6.5V5.5Z" fill="black"/>
<path d="M3 9.5C3 9.22386 3.22386 9 3.5 9H4.5C4.77614 9 5 9.22386 5 9.5V10.5C5 10.7761 4.77614 11 4.5 11H3.5C3.22386 11 3 10.7761 3 10.5V9.5Z" fill="black"/>
<path d="M3 13.5C3 13.2239 3.22386 13 3.5 13H4.5C4.77614 13 5 13.2239 5 13.5V14.5C5 14.7761 4.77614 15 4.5 15H3.5C3.22386 15 3 14.7761 3 14.5V13.5Z" fill="black"/>
<path d="M3 17.5C3 17.2239 3.22386 17 3.5 17H4.5C4.77614 17 5 17.2239 5 17.5V18.5C5 18.7761 4.77614 19 4.5 19H3.5C3.22386 19 3 18.7761 3 18.5V17.5Z" fill="black"/>
</g>
</svg>
