<svg width="16" height="16" viewBox="0 0 16 16" fill="none" xmlns="http://www.w3.org/2000/svg">
<g opacity="0.9">
<path d="M10.8535 5.14645C11.0488 5.34171 11.0488 5.65829 10.8535 5.85355L8.70711 7.99999L10.8536 10.1464C11.0488 10.3417 11.0488 10.6583 10.8536 10.8536C10.6583 11.0488 10.3417 11.0488 10.1465 10.8536L8 8.70709L5.85354 10.8536C5.65828 11.0488 5.34169 11.0488 5.14643 10.8536C4.95117 10.6583 4.95117 10.3417 5.14643 10.1464L7.29289 7.99999L5.14646 5.85355C4.9512 5.65829 4.9512 5.34171 5.14646 5.14645C5.34172 4.95118 5.65831 4.95118 5.85357 5.14645L8 7.29288L10.1464 5.14645C10.3417 4.95118 10.6583 4.95118 10.8535 5.14645Z" fill="black"/>
<path fill-rule="evenodd" clip-rule="evenodd" d="M8 1C4.13401 1 1 4.13401 1 8C1 11.866 4.13401 15 8 15C11.866 15 15 11.866 15 8C15 4.13401 11.866 1 8 1ZM2 8C2 4.68629 4.68629 2 8 2C11.3137 2 14 4.68629 14 8C14 11.3137 11.3137 14 8 14C4.68629 14 2 11.3137 2 8Z" fill="black"/>
</g>
</svg>
