<svg width="24" height="24" viewBox="0 0 24 24" fill="none" xmlns="http://www.w3.org/2000/svg">
<g opacity="0.9">
<path d="M4.5 2C3.11929 2 2 3.11929 2 4.5V11.5C2 11.7761 2.22386 12 2.5 12H21.5C21.7761 12 22 11.7761 22 11.5V4.5C22 3.11929 20.8807 2 19.5 2H4.5Z" fill="black"/>
<path d="M2.5 13C2.22386 13 2 13.2239 2 13.5V16.5C2 16.7761 2.22386 17 2.5 17H21.5C21.7761 17 22 16.7761 22 16.5V13.5C22 13.2239 21.7761 13 21.5 13H2.5Z" fill="black"/>
<path d="M4.5 22C3.11929 22 2 20.8807 2 19.5V18.5C2 18.2239 2.22386 18 2.5 18H21.5C21.7761 18 22 18.2239 22 18.5V19.5C22 20.8807 20.8807 22 19.5 22H4.5Z" fill="black"/>
</g>
</svg>
