<svg width="16" height="16" viewBox="0 0 16 16" fill="none" xmlns="http://www.w3.org/2000/svg">
<g opacity="0.9">
<path fill-rule="evenodd" clip-rule="evenodd" d="M1 2.5C1 1.67157 1.67157 1 2.5 1H13.5C14.3284 1 15 1.67157 15 2.5V8.5C15 8.77614 14.7761 9 14.5 9H1.5C1.22386 9 1 8.77614 1 8.5V2.5ZM2.5 2C2.22386 2 2 2.22386 2 2.5V8H14V2.5C14 2.22386 13.7761 2 13.5 2H2.5Z" fill="black"/>
<path d="M1.5 10C1.77614 10 2 10.2239 2 10.5V11H14V10.5C14 10.2239 14.2239 10 14.5 10C14.7761 10 15 10.2239 15 10.5V11.5C15 11.7761 14.7761 12 14.5 12H1.5C1.22386 12 1 11.7761 1 11.5V10.5C1 10.2239 1.22386 10 1.5 10Z" fill="black"/>
<path d="M2.5 15C1.67157 15 1 14.3284 1 13.5C1 13.2239 1.22386 13 1.5 13C1.77614 13 2 13.2239 2 13.5C2 13.7761 2.22386 14 2.5 14H13.5C13.7761 14 14 13.7761 14 13.5C14 13.2239 14.2239 13 14.5 13C14.7761 13 15 13.2239 15 13.5C15 14.3284 14.3284 15 13.5 15H2.5Z" fill="black"/>
</g>
</svg>
