<svg width="24" height="24" viewBox="0 0 24 24" fill="none" xmlns="http://www.w3.org/2000/svg">
<g opacity="0.9">
<path d="M12.5 13.8662C12.7989 13.6933 13 13.3701 13 13C13 12.4477 12.5523 12 12 12C11.4477 12 11 12.4477 11 13C11 13.3701 11.2011 13.6933 11.5 13.8662V14.5C11.5 14.7761 11.7239 15 12 15C12.2761 15 12.5 14.7761 12.5 14.5V13.8662Z" fill="black"/>
<path fill-rule="evenodd" clip-rule="evenodd" d="M11 6.5C9.61929 6.5 8.5 7.61929 8.5 9V10H9C7.89543 10 7 10.8954 7 12V16C7 16.5523 7.44772 17 8 17H16C16.5523 17 17 16.5523 17 16V12C17 10.8954 16.1046 10 15 10H15.5V9C15.5 7.61929 14.3807 6.5 13 6.5H11ZM14.5 10V9C14.5 8.17157 13.8284 7.5 13 7.5H11C10.1716 7.5 9.5 8.17157 9.5 9V10H14.5ZM8 12C8 11.4477 8.44772 11 9 11H15C15.5523 11 16 11.4477 16 12V16H8V12Z" fill="black"/>
<path fill-rule="evenodd" clip-rule="evenodd" d="M12 2C6.47715 2 2 6.47715 2 12C2 17.5228 6.47715 22 12 22C17.5228 22 22 17.5228 22 12C22 6.47715 17.5228 2 12 2ZM3 12C3 7.02944 7.02944 3 12 3C16.9706 3 21 7.02944 21 12C21 16.9706 16.9706 21 12 21C7.02944 21 3 16.9706 3 12Z" fill="black"/>
</g>
</svg>
