<svg width="16" height="16" viewBox="0 0 16 16" fill="none" xmlns="http://www.w3.org/2000/svg">
<g opacity="0.9">
<path d="M9.00003 7V5.5C9.00003 5.22386 8.77617 5 8.50003 5H6.50003C6.22389 5 6.00003 5.22386 6.00003 5.5V7H9.00003Z" fill="black"/>
<path d="M7.50003 9C7.22389 9 7.00003 9.22386 7.00003 9.5C7.00003 9.77614 7.22389 10 7.50003 10C7.77617 10 8.00003 9.77614 8.00003 9.5C8.00003 9.22386 7.77617 9 7.50003 9Z" fill="black"/>
<path fill-rule="evenodd" clip-rule="evenodd" d="M7.50003 1.5C3.63404 1.5 0.500031 4.63401 0.500031 8.5C0.500031 12.366 3.63404 15.5 7.50003 15.5C11.366 15.5 14.5 12.366 14.5 8.5C14.5 4.63401 11.366 1.5 7.50003 1.5ZM6.50003 4C5.6716 4 5.00003 4.67157 5.00003 5.5V7C4.44775 7 4.00003 7.44772 4.00003 8V11.5C4.00003 11.7761 4.22389 12 4.50003 12H10.5C10.7762 12 11 11.7761 11 11.5V8C11 7.44772 10.5523 7 10 7V5.5C10 4.67157 9.32846 4 8.50003 4H6.50003Z" fill="black"/>
</g>
</svg>
