<svg width="24" height="24" viewBox="0 0 24 24" fill="none" xmlns="http://www.w3.org/2000/svg">
<g opacity="0.9">
<path d="M14.5 10V9C14.5 8.17157 13.8284 7.5 13 7.5H11C10.1716 7.5 9.5 8.17157 9.5 9V10H14.5Z" fill="black"/>
<path d="M13 13C13 13.3701 12.7989 13.6933 12.5 13.8662V14.5C12.5 14.7761 12.2761 15 12 15C11.7239 15 11.5 14.7761 11.5 14.5V13.8662C11.2011 13.6933 11 13.3701 11 13C11 12.4477 11.4477 12 12 12C12.5523 12 13 12.4477 13 13Z" fill="black"/>
<path fill-rule="evenodd" clip-rule="evenodd" d="M12 2C6.47715 2 2 6.47715 2 12C2 17.5228 6.47715 22 12 22C17.5228 22 22 17.5228 22 12C22 6.47715 17.5228 2 12 2ZM11 6.5C9.61929 6.5 8.5 7.61929 8.5 9V10.063C7.63739 10.285 7 11.0681 7 12V16C7 16.5523 7.44772 17 8 17H16C16.5523 17 17 16.5523 17 16V12C17 11.0681 16.3626 10.285 15.5 10.063V9C15.5 7.61929 14.3807 6.5 13 6.5H11Z" fill="black"/>
</g>
</svg>
