<svg width="16" height="16" viewBox="0 0 16 16" fill="none" xmlns="http://www.w3.org/2000/svg">
<g opacity="0.9">
<path d="M13.2226 2.58403C13.4524 2.43085 13.7628 2.49294 13.916 2.7227C14.483 3.57312 14.75 4.67588 14.75 5.75005C14.75 6.82422 14.483 7.92698 13.916 8.7774C13.7628 9.00717 13.4524 9.06925 13.2226 8.91608C12.9929 8.7629 12.9308 8.45247 13.084 8.2227C13.517 7.57312 13.75 6.67588 13.75 5.75005C13.75 4.82422 13.517 3.92698 13.084 3.2774C12.9308 3.04764 12.9929 2.7372 13.2226 2.58403Z" fill="black"/>
<path d="M8.17598 8.06523C8.68666 7.52733 9 6.80026 9 6C9 4.34315 7.65685 3 6 3C4.34315 3 3 4.34315 3 6C3 6.80026 3.31334 7.52733 3.82402 8.06523C2.2145 8.38017 1 9.79825 1 11.5V13.5C1 13.7761 1.22386 14 1.5 14H10.5C10.7761 14 11 13.7761 11 13.5V11.5C11 9.79825 9.7855 8.38017 8.17598 8.06523Z" fill="black"/>
<path d="M11.9163 3.72308C11.7633 3.49318 11.4529 3.43081 11.223 3.58378C10.9931 3.73674 10.9308 4.04712 11.0837 4.27703C11.6505 5.12891 11.6798 6.28261 11.0777 7.23235C10.9299 7.46557 10.9991 7.7745 11.2323 7.92235C11.4655 8.0702 11.7744 8.00099 11.9223 7.76776C12.7311 6.49187 12.7068 4.91114 11.9163 3.72308Z" fill="black"/>
</g>
</svg>
