<svg width="32" height="32" viewBox="0 0 32 32" fill="none" xmlns="http://www.w3.org/2000/svg">
<g opacity="0.9">
<path d="M26.6772 5.58403C26.907 5.43085 27.2174 5.49294 27.3706 5.7227C28.3012 7.11858 28.75 8.94861 28.75 10.7501C28.75 12.5515 28.3012 14.3815 27.3706 15.7774C27.2174 16.0072 26.907 16.0693 26.6772 15.9161C26.4474 15.7629 26.3853 15.4525 26.5385 15.2227C27.3352 14.0277 27.75 12.4032 27.75 10.7501C27.75 9.09695 27.3352 7.47244 26.5385 6.2774C26.3853 6.04764 26.4474 5.7372 26.6772 5.58403Z" fill="black"/>
<path d="M23.9472 7.50404C23.8237 7.25705 23.5234 7.15694 23.2764 7.28043C23.0294 7.40393 22.9293 7.70427 23.0528 7.95126C23.4428 8.73133 23.6477 9.73093 23.6477 10.7504C23.6477 11.7698 23.4428 12.7694 23.0528 13.5495C22.9293 13.7965 23.0294 14.0968 23.2764 14.2203C23.5234 14.3438 23.8237 14.2437 23.9472 13.9967C24.4208 13.0495 24.6477 11.89 24.6477 10.7504C24.6477 9.61073 24.4208 8.45124 23.9472 7.50404Z" fill="black"/>
<path fill-rule="evenodd" clip-rule="evenodd" d="M10.5 16C6.91015 16 4 18.9101 4 22.5V26.5C4 26.7761 4.22386 27 4.5 27C4.77614 27 5 26.7761 5 26.5V22.5C5 19.4624 7.46243 17 10.5 17H17.5C20.5376 17 23 19.4624 23 22.5V26.5C23 26.7761 23.2239 27 23.5 27C23.7761 27 24 26.7761 24 26.5V22.5C24 18.9102 21.0899 16 17.5 16H17.0005C18.2147 15.0878 19 13.6356 19 12C19 9.23858 16.7614 7 14 7C11.2386 7 9 9.23858 9 12C9 13.6356 9.78534 15.0878 10.9995 16H10.5ZM14 16C16.2091 16 18 14.2091 18 12C18 9.79086 16.2091 8 14 8C11.7909 8 10 9.79086 10 12C10 14.2091 11.7909 16 14 16Z" fill="black"/>
</g>
</svg>
