<svg width="32" height="32" viewBox="0 0 32 32" fill="none" xmlns="http://www.w3.org/2000/svg">
<path fill-rule="evenodd" clip-rule="evenodd" d="M15.7519 15.1683C16.3457 15.5641 16.3457 16.4366 15.7519 16.8324L6.5547 22.9639C5.89014 23.4069 5 22.9305 5 22.1318V9.86887C5 9.07017 5.89015 8.59378 6.5547 9.03682L15.7519 15.1683ZM15.1972 16.0004L6 22.1318L6 9.86887L15.1972 16.0004Z" fill="black"/>
<path fill-rule="evenodd" clip-rule="evenodd" d="M27.7519 15.1683C28.3457 15.5641 28.3457 16.4366 27.7519 16.8324L18.5547 22.9639C17.8901 23.4069 17 22.9305 17 22.1318V9.86887C17 9.07017 17.8901 8.59378 18.5547 9.03682L27.7519 15.1683ZM27.1972 16.0004L18 22.1318L18 9.86887L27.1972 16.0004Z" fill="black"/>
</svg>
