<svg width="16" height="16" viewBox="0 0 16 16" fill="none" xmlns="http://www.w3.org/2000/svg">
<path fill-rule="evenodd" clip-rule="evenodd" d="M8 8.69409C7.95826 8.73713 7.91186 8.77723 7.86077 8.81371L3.58124 11.8705C2.91937 12.3433 2 11.8702 2 11.0568V4.94317C2 4.1298 2.91937 3.65667 3.58124 4.12944L7.86077 7.18625C7.91186 7.22273 7.95826 7.26283 8 7.30587V4.94317C8 4.1298 8.91937 3.65667 9.58124 4.12944L13.8608 7.18625C14.4191 7.58507 14.4191 8.41489 13.8608 8.81371L9.58124 11.8705C8.91937 12.3433 8 11.8702 8 11.0568V8.69409ZM7.27954 7.99998L3 11.0568L3 4.94317L7.27954 7.99998ZM13.2795 7.99998L9 11.0568V4.94317L13.2795 7.99998Z" fill="black"/>
</svg>
