<svg width="24" height="24" viewBox="0 0 24 24" fill="none" xmlns="http://www.w3.org/2000/svg">
<path fill-rule="evenodd" clip-rule="evenodd" d="M11.7519 11.1683C12.3457 11.5641 12.3457 12.4366 11.7519 12.8324L5.5547 16.9639C4.89015 17.4069 4 16.9305 4 16.1318V7.86887C4 7.07017 4.89015 6.59378 5.5547 7.03682L11.7519 11.1683ZM11.1972 12.0004L5 16.1318L5 7.86887L11.1972 12.0004Z" fill="black"/>
<path fill-rule="evenodd" clip-rule="evenodd" d="M20.7519 11.1683C21.3457 11.5641 21.3457 12.4366 20.7519 12.8324L14.5547 16.9639C13.8901 17.4069 13 16.9305 13 16.1318V7.86887C13 7.07017 13.8901 6.59378 14.5547 7.03682L20.7519 11.1683ZM20.1972 12.0004L14 16.1318V7.86887L20.1972 12.0004Z" fill="black"/>
</svg>
