<svg width="16" height="16" viewBox="0 0 16 16" fill="none" xmlns="http://www.w3.org/2000/svg">
<path d="M1 2.5C1 2.22386 0.776142 2 0.5 2C0.223858 2 0 2.22386 0 2.5V15H14.5C14.7761 15 15 14.7761 15 14.5C15 14.2239 14.7761 14 14.5 14H1V2.5Z" fill="black"/>
<path d="M8 5C7.44772 5 7 5.44772 7 6V11.5C7 11.7761 7.22386 12 7.5 12H8.5C8.77614 12 9 11.7761 9 11.5V6C9 5.44772 8.55228 5 8 5Z" fill="black"/>
<path d="M11 4C11 3.44772 11.4477 3 12 3C12.5523 3 13 3.44772 13 4V11.5C13 11.7761 12.7761 12 12.5 12H11.5C11.2239 12 11 11.7761 11 11.5V4Z" fill="black"/>
<path d="M4 8C3.44772 8 3 8.44772 3 9V11.5C3 11.7761 3.22386 12 3.5 12H4.5C4.77614 12 5 11.7761 5 11.5V9C5 8.44772 4.55228 8 4 8Z" fill="black"/>
</svg>
