<svg width="24" height="24" viewBox="0 0 24 24" fill="none" xmlns="http://www.w3.org/2000/svg">
<path opacity="0.9" fill-rule="evenodd" clip-rule="evenodd" d="M2 14C2 8.47715 6.47715 4 12 4C17.5228 4 22 8.47715 22 14C22 15.6846 21.5831 17.2732 20.8463 18.667L20.7055 18.9333H3.29447L3.15368 18.667C2.41694 17.2732 2 15.6846 2 14ZM16.6363 9.23659L13.1207 15.7691C13.0811 15.8543 13.0313 15.9364 12.9712 16.0137C12.5418 16.566 11.746 16.6656 11.1937 16.2362C10.6415 15.8068 10.5419 15.011 10.9713 14.4587C11.0188 14.3975 11.0709 14.3419 11.1266 14.2919L16.6363 9.23659ZM5.66667 15.8999C5.66667 16.2497 5.38312 16.5333 5.03333 16.5333C4.68355 16.5333 4.4 16.2497 4.4 15.8999C4.4 15.5502 4.68355 15.2666 5.03333 15.2666C5.38312 15.2666 5.66667 15.5502 5.66667 15.8999ZM5.03333 11.4669C5.38312 11.4669 5.66667 11.1833 5.66667 10.8335C5.66667 10.4837 5.38312 10.2002 5.03333 10.2002C4.68355 10.2002 4.4 10.4837 4.4 10.8335C4.4 11.1833 4.68355 11.4669 5.03333 11.4669ZM9.46666 7.03372C9.46666 7.3835 9.18311 7.66706 8.83333 7.66706C8.48355 7.66706 8.2 7.3835 8.2 7.03372C8.2 6.68394 8.48355 6.40039 8.83333 6.40039C9.18311 6.40039 9.46666 6.68394 9.46666 7.03372ZM15.1667 7.66706C15.5164 7.66706 15.8 7.3835 15.8 7.03372C15.8 6.68394 15.5164 6.40039 15.1667 6.40039C14.8169 6.40039 14.5333 6.68394 14.5333 7.03372C14.5333 7.3835 14.8169 7.66706 15.1667 7.66706ZM19.6 10.8335C19.6 11.1833 19.3164 11.4669 18.9667 11.4669C18.6169 11.4669 18.3333 11.1833 18.3333 10.8335C18.3333 10.4837 18.6169 10.2002 18.9667 10.2002C19.3164 10.2002 19.6 10.4837 19.6 10.8335ZM18.9667 16.5333C19.3164 16.5333 19.6 16.2497 19.6 15.8999C19.6 15.5502 19.3164 15.2666 18.9667 15.2666C18.6169 15.2666 18.3333 15.5502 18.3333 15.8999C18.3333 16.2497 18.6169 16.5333 18.9667 16.5333Z" fill="black"/>
</svg>
