<svg width="24" height="24" viewBox="0 0 24 24" fill="none" xmlns="http://www.w3.org/2000/svg">
<path opacity="0.9" d="M21.9842 11.4382C22.0933 13.3773 21.6356 15.3162 20.6531 17.0123C19.4618 19.069 17.5769 20.6341 15.3363 21.427C13.0957 22.22 10.6459 22.189 8.42614 21.3396C6.20633 20.4901 4.36165 18.8778 3.22278 16.7917C2.08391 14.7055 1.72531 12.2819 2.21128 9.95537C2.69724 7.6288 3.99599 5.55139 5.8747 4.09554C7.75341 2.63969 10.0892 1.9006 12.4635 2.01075C14.8377 2.12091 17.095 3.07311 18.8309 4.69666L16.3469 7.35241C15.2094 6.28801 13.6808 5.63638 12 5.63638C8.48547 5.63638 5.63637 8.48548 5.63637 12C5.63637 15.5146 8.48547 18.3636 12 18.3636C14.8827 18.3636 17.3178 16.4468 18.1001 13.8182H12V10.1818H21.8324C21.8337 10.1893 21.835 10.1966 21.8363 10.204L21.8373 10.2038C21.871 10.3879 21.8993 10.5726 21.9225 10.7575C21.9533 10.992 21.9724 11.2052 21.9842 11.4382Z" fill="black"/>
</svg>
