<svg width="16" height="16" viewBox="0 0 16 16" fill="none" xmlns="http://www.w3.org/2000/svg">
<path opacity="0.9" fill-rule="evenodd" clip-rule="evenodd" d="M5 1.5C5 1.22386 4.77614 1 4.5 1C4.22386 1 4 1.22386 4 1.5V14.5C4 14.7761 4.22386 15 4.5 15C4.77614 15 5 14.7761 5 14.5L5 9H8V10.5C8 10.8177 8.07224 11.1933 8.32702 11.4997C8.59369 11.8205 8.99433 11.9873 9.48714 12L12.6315 12C13.8295 12 14.5441 10.6648 13.8796 9.66795L13.1009 8.5L13.8796 7.33205C14.5439 6.33561 13.8305 5 12.632 5H10V3.5C10 2.67157 9.32843 2 8.5 2H5V1.5Z" fill="black"/>
</svg>
