<svg width="32" height="32" viewBox="0 0 32 32" fill="none" xmlns="http://www.w3.org/2000/svg">
<path opacity="0.9" d="M27.9811 15.3258C28.112 17.6527 27.5627 19.9794 26.3838 22.0147C24.9542 24.4827 22.6923 26.3608 20.0036 27.3124C17.3149 28.264 14.3751 28.2267 11.7114 27.2074C9.04761 26.1881 6.83399 24.2534 5.46734 21.75C4.10069 19.2466 3.67037 16.3383 4.25353 13.5464C4.83669 10.7545 6.39519 8.26166 8.64965 6.51464C10.9041 4.76763 13.7071 3.88072 16.5562 4.0129C19.4052 4.14509 22.1141 5.28773 24.1971 7.23599L21.2164 10.4229C19.8513 9.1456 18.017 8.36365 16 8.36365C11.7826 8.36365 8.36366 11.7826 8.36366 16C8.36366 20.2174 11.7826 23.6363 16 23.6363C19.4593 23.6363 22.5612 21.1543 23.5 18H16V14H27.799C27.8005 14.0089 27.8021 14.0178 27.8036 14.0266L27.8048 14.0264C27.8452 14.2473 27.8792 14.2871 27.907 14.5089C27.944 14.7904 27.967 15.0462 27.9811 15.3258Z" fill="black"/>
</svg>
