<svg width="16" height="16" viewBox="0 0 16 16" fill="none" xmlns="http://www.w3.org/2000/svg">
<path opacity="0.9" d="M14.9889 7.60673C15.0653 8.96411 14.7449 10.3214 14.0572 11.5086C13.2233 12.9483 11.9038 14.0438 10.3354 14.5989C8.767 15.154 7.05216 15.1323 5.4983 14.5377C3.94443 13.9431 2.65316 12.8145 1.85595 11.3542C1.05874 9.89387 0.807718 8.19735 1.14789 6.56876C1.48807 4.94016 2.39719 3.48597 3.71229 2.46688C5.02739 1.44778 6.66247 0.930418 8.32443 1.00753C9.98638 1.08464 11.5665 1.75118 12.7816 2.88766L11.0429 4.74669C10.2466 4.00161 9.17655 3.54547 8 3.54547C5.53983 3.54547 3.54546 5.53983 3.54546 8.00001C3.54546 10.4602 5.53983 12.4546 8 12.4546C10.0179 12.4546 11.7224 11.1128 12.2701 9.27274H7.99999V6.72729H14.8827C14.8836 6.73248 14.8845 6.73765 14.8854 6.74279L14.8861 6.74266C14.9097 6.87157 14.9295 7.0008 14.9457 7.13022C14.9673 7.29441 14.9807 7.44362 14.9889 7.60673Z" fill="black"/>
</svg>
