<svg width="24" height="24" viewBox="0 0 24 24" fill="none" xmlns="http://www.w3.org/2000/svg">
<g opacity="0.9">
<path fill-rule="evenodd" clip-rule="evenodd" d="M10.1678 7.1263C10.3742 6.94284 10.6903 6.96143 10.8737 7.16782L14.8737 11.6678C15.0421 11.8573 15.0421 12.1427 14.8737 12.3322L10.8737 16.8322C10.6903 17.0386 10.3742 17.0572 10.1678 16.8737C9.96143 16.6903 9.94284 16.3742 10.1263 16.1678L13.831 12L10.1263 7.83219C9.94284 7.6258 9.96143 7.30976 10.1678 7.1263Z" fill="black"/>
<path fill-rule="evenodd" clip-rule="evenodd" d="M12 3C7.02944 3 3 7.02944 3 12C3 16.9706 7.02944 21 12 21C16.9706 21 21 16.9706 21 12C21 7.02944 16.9706 3 12 3ZM2 12C2 6.47715 6.47715 2 12 2C17.5228 2 22 6.47715 22 12C22 17.5228 17.5228 22 12 22C6.47715 22 2 17.5228 2 12Z" fill="black"/>
</g>
</svg>
