<svg width="16" height="16" viewBox="0 0 16 16" fill="none" xmlns="http://www.w3.org/2000/svg">
<g opacity="0.9">
<path fill-rule="evenodd" clip-rule="evenodd" d="M6.67991 4.61589C6.89205 4.43911 7.20733 4.46777 7.38411 4.67991L9.88411 7.67991C10.0386 7.86533 10.0386 8.13467 9.88411 8.32009L7.38411 11.3201C7.20733 11.5322 6.89205 11.5609 6.67991 11.3841C6.46777 11.2073 6.43911 10.892 6.61589 10.6799L8.84915 8L6.61589 5.32009C6.43911 5.10795 6.46777 4.79267 6.67991 4.61589Z" fill="black"/>
<path fill-rule="evenodd" clip-rule="evenodd" d="M8 2C4.68629 2 2 4.68629 2 8C2 11.3137 4.68629 14 8 14C11.3137 14 14 11.3137 14 8C14 4.68629 11.3137 2 8 2ZM1 8C1 4.13401 4.13401 1 8 1C11.866 1 15 4.13401 15 8C15 11.866 11.866 15 8 15C4.13401 15 1 11.866 1 8Z" fill="black"/>
</g>
</svg>
