<svg width="24" height="24" viewBox="0 0 24 24" fill="none" xmlns="http://www.w3.org/2000/svg">
<path opacity="0.9" fill-rule="evenodd" clip-rule="evenodd" d="M11.5 3C6.80558 3 3 6.80558 3 11.5C3 16.1944 6.80558 20 11.5 20C11.7761 20 12 20.2239 12 20.5C12 20.7761 11.7761 21 11.5 21C6.25329 21 2 16.7467 2 11.5C2 6.25329 6.25329 2 11.5 2C16.7467 2 21 6.25329 21 11.5C21 11.7761 20.7761 12 20.5 12C20.2239 12 20 11.7761 20 11.5C20 6.80558 16.1944 3 11.5 3ZM6 10H9V11H14.0854C14.2913 10.4174 14.8469 10 15.5 10C16.3284 10 17 10.6716 17 11.5C17 12.3284 16.3284 13 15.5 13C14.8469 13 14.2913 12.5826 14.0854 12H9V13H6V10ZM7 12H8V11H7V12ZM15.5 11C15.2239 11 15 11.2239 15 11.5C15 11.7761 15.2239 12 15.5 12C15.7761 12 16 11.7761 16 11.5C16 11.2239 15.7761 11 15.5 11ZM19.1953 16.22L17.9898 15.0145C18.5863 15.0766 19.1656 15.3363 19.6223 15.793C20.3305 16.5012 20.565 17.5045 20.3234 18.4092C20.2773 18.5817 20.3267 18.7656 20.4529 18.8918L21.6767 20.1156C22.1078 20.5466 22.1078 21.2456 21.6767 21.6766C21.2456 22.1077 20.5467 22.1077 20.1156 21.6766L18.8918 20.4528C18.7656 20.3266 18.5817 20.2773 18.4093 20.3233C17.5045 20.5649 16.5013 20.3304 15.793 19.6222C15.3364 19.1655 15.0767 18.5862 15.0146 17.9898L16.22 19.1952C16.3138 19.289 16.441 19.3417 16.5736 19.3417C16.7062 19.3417 16.8334 19.289 16.9271 19.1952L19.1953 16.9271C19.2891 16.8333 19.3417 16.7061 19.3417 16.5735C19.3417 16.4409 19.2891 16.3137 19.1953 16.22ZM20.3294 15.0859C19.3585 14.115 17.9835 13.7958 16.748 14.1257C16.5754 14.1718 16.4404 14.3066 16.3941 14.4792C16.3478 14.6518 16.3971 14.836 16.5235 14.9623L18.1346 16.5735L16.5736 18.1346L14.9624 16.5234C14.836 16.397 14.6518 16.3477 14.4792 16.394C14.3066 16.4404 14.1719 16.5753 14.1258 16.7479C13.7958 17.9834 14.1151 19.3585 15.0859 20.3293C15.9819 21.2252 17.222 21.5662 18.379 21.3542L19.4085 22.3837C20.2301 23.2053 21.5622 23.2053 22.3838 22.3837C23.2054 21.5621 23.2054 20.2301 22.3838 19.4085L21.3543 18.379C21.5663 17.222 21.2253 15.9818 20.3294 15.0859Z" fill="black"/>
</svg>
