<svg width="24" height="24" viewBox="0 0 24 24" fill="none" xmlns="http://www.w3.org/2000/svg">
<g opacity="0.9">
<path fill-rule="evenodd" clip-rule="evenodd" d="M11.5 2C6.25329 2 2 6.25329 2 11.5C2 16.7467 6.25329 21 11.5 21C12.3656 21 13.2042 20.8842 14.0012 20.6673C13.3738 19.8622 13 18.8498 13 17.75C13 15.1266 15.1266 13 17.75 13C18.8498 13 19.8622 13.3738 20.6673 14.0012C20.8842 13.2042 21 12.3656 21 11.5C21 6.25329 16.7467 2 11.5 2ZM6 10.5C6 10.2239 6.22386 10 6.5 10H8.5C8.77614 10 9 10.2239 9 10.5V11H14.0854C14.2913 10.4174 14.8469 10 15.5 10C16.3284 10 17 10.6716 17 11.5C17 12.3284 16.3284 13 15.5 13C14.8469 13 14.2913 12.5826 14.0854 12H9V12.5C9 12.7761 8.77614 13 8.5 13H6.5C6.22386 13 6 12.7761 6 12.5V10.5Z" fill="black"/>
<path d="M15.4395 19.9758C16.279 20.8154 17.4682 21.0922 18.5383 20.8065L19.7621 22.0302C20.3884 22.6566 21.4039 22.6566 22.0302 22.0302C22.6566 21.4039 22.6566 20.3884 22.0302 19.7621L20.8065 18.5383C21.0922 17.4682 20.8154 16.279 19.9758 15.4395C19.1363 14.6 17.9472 14.3231 16.877 14.6089L18.8417 16.5736L16.5736 18.8417L14.6089 16.877C14.3231 17.9472 14.6 19.1363 15.4395 19.9758Z" fill="black"/>
</g>
</svg>
