<svg width="32" height="32" viewBox="0 0 32 32" fill="none" xmlns="http://www.w3.org/2000/svg">
<g opacity="0.9">
<path fill-rule="evenodd" clip-rule="evenodd" d="M16.5 4C10.1487 4 5 9.14873 5 15.5C5 21.8513 10.1487 27 16.5 27C17.986 27 19.4062 26.7181 20.71 26.205C20.258 25.4062 20 24.4833 20 23.5C20 20.4624 22.4624 18 25.5 18C26.2531 18 26.9709 18.1514 27.6246 18.4254C27.8696 17.4913 28 16.5109 28 15.5C28 9.14873 22.8513 4 16.5 4ZM9 14C9 13.4477 9.44772 13 10 13H13C13.5523 13 14 13.4477 14 14V15H19.05C19.2816 13.8589 20.2905 13 21.5 13C22.8807 13 24 14.1193 24 15.5C24 16.8807 22.8807 18 21.5 18C20.2905 18 19.2816 17.1411 19.05 16H14V17C14 17.5523 13.5523 18 13 18H10C9.44772 18 9 17.5523 9 17V14Z" fill="black"/>
<path d="M22.6744 26.3448C23.7238 27.3942 25.2102 27.7403 26.5479 27.3831L28.0776 28.9128C28.8605 29.6957 30.1299 29.6957 30.9128 28.9128C31.6957 28.1299 31.6957 26.8605 30.9128 26.0776L29.3831 24.5479C29.7403 23.2102 29.3942 21.7238 28.3448 20.6744C27.2954 19.625 25.8089 19.2789 24.4713 19.6361L26.9272 22.092L26.5 24.5L24.092 24.9272L21.6361 22.4713C21.2789 23.8089 21.625 25.2954 22.6744 26.3448Z" fill="black"/>
</g>
</svg>
