<svg width="24" height="24" viewBox="0 0 24 24" fill="none" xmlns="http://www.w3.org/2000/svg">
<path opacity="0.9" fill-rule="evenodd" clip-rule="evenodd" d="M18.5578 3.63777C17.7075 2.78741 16.3287 2.78741 15.4784 3.63777L4.11875 14.9974C2.74557 16.3706 2.74557 18.5969 4.11875 19.9701C5.49193 21.3433 7.71828 21.3433 9.09146 19.9701L17.5157 11.5459C17.7109 11.3507 18.0275 11.3507 18.2228 11.5459C18.418 11.7412 18.418 12.0578 18.2228 12.253L9.79857 20.6772C8.03487 22.4409 5.17534 22.4409 3.41164 20.6772C1.64794 18.9135 1.64794 16.054 3.41164 14.2903L14.7713 2.93067C16.0122 1.68978 18.024 1.68978 19.2649 2.93067C20.5058 4.17155 20.5058 6.18343 19.2649 7.42432L9.79857 16.8907C9.08049 17.6088 7.91626 17.6088 7.19819 16.8907C6.48011 16.1726 6.48011 15.0084 7.19819 14.2903L13.7291 7.75938C13.9244 7.56412 14.241 7.56412 14.4362 7.75938C14.6315 7.95464 14.6315 8.27122 14.4362 8.46649L7.90529 14.9974C7.57774 15.325 7.57774 15.856 7.90529 16.1836C8.23284 16.5111 8.76391 16.5111 9.09146 16.1836L18.5578 6.71721C19.4082 5.86685 19.4082 4.48814 18.5578 3.63777Z" fill="black"/>
</svg>
