<svg width="16" height="16" viewBox="0 0 16 16" fill="none" xmlns="http://www.w3.org/2000/svg">
<g opacity="0.9">
<path fill-rule="evenodd" clip-rule="evenodd" d="M5 15.5C5 15.2239 5.22386 15 5.5 15H7.5C7.77614 15 8 15.2239 8 15.5C8 15.7761 7.77614 16 7.5 16H5.5C5.22386 16 5 15.7761 5 15.5Z" fill="black"/>
<path fill-rule="evenodd" clip-rule="evenodd" d="M0 4.5C0 3.11929 1.11929 2 2.5 2H13.5C14.8807 2 16 3.11929 16 4.5V8C16 8.27614 15.7761 8.5 15.5 8.5C15.2239 8.5 15 8.27614 15 8V4.5C15 3.67157 14.3284 3 13.5 3H2.5C1.67157 3 1 3.67157 1 4.5V11.5C1 12.3284 1.67157 13 2.5 13H8C8.27614 13 8.5 13.2239 8.5 13.5C8.5 13.7761 8.27614 14 8 14H2.5C1.11929 14 0 12.8807 0 11.5V4.5Z" fill="black"/>
<path fill-rule="evenodd" clip-rule="evenodd" d="M13.5805 10.5585C13.938 10.201 14.5583 9.96388 15.1287 10.2821C15.2367 10.3424 15.362 10.4241 15.4689 10.5311C15.5759 10.638 15.6576 10.7633 15.7179 10.8713C16.0361 11.4417 15.799 12.062 15.4415 12.4195L11.861 16H10V14.139L13.5805 10.5585ZM14.3333 12.1134L13.8866 11.6667L11 14.5533V15H11.4467L14.3333 12.1134Z" fill="black"/>
<path fill-rule="evenodd" clip-rule="evenodd" d="M8 5C8 4.44772 8.44772 4 9 4H13C13.5523 4 14 4.44772 14 5V8C14 8.55228 13.5523 9 13 9H9C8.44772 9 8 8.55228 8 8V5ZM13 5H9V8H13V5Z" fill="black"/>
</g>
</svg>
