<svg width="32" height="32" viewBox="0 0 32 32" fill="none" xmlns="http://www.w3.org/2000/svg">
<g opacity="0.9">
<path fill-rule="evenodd" clip-rule="evenodd" d="M4 9.5C4 8.11929 5.11929 7 6.5 7H25.5C26.8807 7 28 8.11929 28 9.5V17.1942C27.6948 17.2955 27.4114 17.4672 27.1754 17.7032L20 24.879V25H6.5C5.11929 25 4 23.8807 4 22.5V9.5ZM16 10C16 9.44772 16.4477 9 17 9H25C25.5523 9 26 9.44772 26 10V16C26 16.5523 25.5523 17 25 17H17C16.4477 17 16 16.5523 16 16V10Z" fill="black"/>
<path d="M11 27C10.7239 27 10.5 27.2239 10.5 27.5C10.5 27.7761 10.7239 28 11 28H19.5C19.7761 28 20 27.7761 20 27.5C20 27.2239 19.7761 27 19.5 27H11Z" fill="black"/>
<path d="M21.5 27.5004V25.5004L27.5 19.5L28.2361 18.7639C28.3978 18.6022 28.6371 18.5457 28.8541 18.618C29.5755 18.8585 30.1415 19.4245 30.382 20.1459C30.4543 20.3629 30.3978 20.6022 30.2361 20.7639L29.5 21.5L23.5 27.5004H21.5Z" fill="black"/>
<path d="M21.5 25.5004V27.5004H23.5L29.5 21.5L27.5 19.5L21.5 25.5004Z" fill="black"/>
<path d="M29.5 21.5L30.2361 20.7639C30.3978 20.6022 30.4543 20.3629 30.382 20.1459C30.1415 19.4245 29.5755 18.8585 28.8541 18.618C28.6371 18.5457 28.3978 18.6022 28.2361 18.7639L27.5 19.5M29.5 21.5L23.5 27.5004H21.5V25.5004L27.5 19.5M29.5 21.5L27.5 19.5M4 9.5C4 8.11929 5.11929 7 6.5 7H25.5C26.8807 7 28 8.11929 28 9.5V17.1942C27.6948 17.2955 27.4114 17.4672 27.1754 17.7032L20 24.879V25H6.5C5.11929 25 4 23.8807 4 22.5V9.5ZM16 10C16 9.44772 16.4477 9 17 9H25C25.5523 9 26 9.44772 26 10V16C26 16.5523 25.5523 17 25 17H17C16.4477 17 16 16.5523 16 16V10ZM11 27C10.7239 27 10.5 27.2239 10.5 27.5C10.5 27.7761 10.7239 28 11 28H19.5C19.7761 28 20 27.7761 20 27.5C20 27.2239 19.7761 27 19.5 27H11Z" stroke="black"/>
</g>
</svg>
