<svg width="24" height="24" viewBox="0 0 24 24" fill="none" xmlns="http://www.w3.org/2000/svg">
<g opacity="0.9">
<path fill-rule="evenodd" clip-rule="evenodd" d="M2 6.5C2 5.11929 3.11929 4 4.5 4H19.5C20.8807 4 22 5.11929 22 6.5V12.1429L21.495 12.0707C21.1834 12.0262 20.869 12.131 20.6464 12.3536L15 18V19H4.5C3.11929 19 2 17.8807 2 16.5V6.5ZM12 7C12 6.44772 12.4477 6 13 6H19C19.5523 6 20 6.44772 20 7V11C20 11.5523 19.5523 12 19 12H13C12.4477 12 12 11.5523 12 11V7Z" fill="black"/>
<path fill-rule="evenodd" clip-rule="evenodd" d="M23.5896 16.1174C23.8853 15.8217 23.9885 15.3844 23.8563 14.9877C23.5661 14.117 22.8829 13.4338 22.0122 13.1436C21.6155 13.0114 21.1782 13.1146 20.8825 13.4103L16 18.2932V21.0003L18.7071 21.0005L23.5896 16.1174ZM21.696 14.0923C21.6586 14.0798 21.6175 14.0895 21.5896 14.1174L21.2071 14.4999L22.5 15.7928L22.8825 15.4103C22.9104 15.3824 22.9201 15.3413 22.9076 15.3039C22.7169 14.7319 22.268 14.283 21.696 14.0923Z" fill="black"/>
<path d="M7.5 20.5C7.5 20.2239 7.72386 20 8 20H14.5C14.7761 20 15 20.2239 15 20.5C15 20.7761 14.7761 21 14.5 21H8C7.72386 21 7.5 20.7761 7.5 20.5Z" fill="black"/>
</g>
</svg>
