<svg width="25" height="24" viewBox="0 0 25 24" fill="none" xmlns="http://www.w3.org/2000/svg">
<g opacity="0.9">
<path d="M13.0352 6C13.0352 5.44772 12.5874 5 12.0352 5C11.4829 5 11.0352 5.44772 11.0352 6V12.5146L14.9539 15.3137C15.4033 15.6347 16.0279 15.5307 16.3489 15.0812C16.6699 14.6318 16.5658 14.0073 16.1164 13.6863L13.0352 11.4854V6Z" fill="black"/>
<path fill-rule="evenodd" clip-rule="evenodd" d="M12.0352 2C6.51231 2 2.03516 6.47715 2.03516 12C2.03516 17.5228 6.51231 22 12.0352 22C17.558 22 22.0352 17.5228 22.0352 12C22.0352 6.47715 17.558 2 12.0352 2ZM3.03516 12C3.03516 7.02944 7.06459 3 12.0352 3C17.0057 3 21.0352 7.02944 21.0352 12C21.0352 16.9706 17.0057 21 12.0352 21C7.06459 21 3.03516 16.9706 3.03516 12Z" fill="black"/>
</g>
</svg>
