<svg width="24" height="24" viewBox="0 0 24 24" fill="none" xmlns="http://www.w3.org/2000/svg">
<g opacity="0.9">
<path fill-rule="evenodd" clip-rule="evenodd" d="M13.6437 12.0018C14.4754 11.2689 15 10.1957 15 9C15 6.79086 13.2091 5 11 5C8.79086 5 7 6.79086 7 9C7 10.1957 7.52463 11.2689 8.35627 12.0018C5.38513 12.0781 3 14.5105 3 17.5V19.5C3 19.7761 3.22386 20 3.5 20C3.77614 20 4 19.7761 4 19.5V17.5C4 15.0147 6.01472 13 8.5 13H13.5C15.0487 13 16.415 13.782 17.2254 14.9749C17.3805 15.2033 17.6915 15.2627 17.9199 15.1075C18.1483 14.9524 18.2077 14.6414 18.0526 14.413C17.0891 12.9946 15.4783 12.0489 13.6437 12.0018ZM14 9C14 10.6569 12.6569 12 11 12C9.34315 12 8 10.6569 8 9C8 7.34315 9.34315 6 11 6C12.6569 6 14 7.34315 14 9Z" fill="black"/>
<path d="M19.5 17C19.7761 17 20 17.2239 20 17.5V19H21.5C21.7761 19 22 19.2239 22 19.5C22 19.7761 21.7761 20 21.5 20H20V21.5C20 21.7761 19.7761 22 19.5 22C19.2239 22 19 21.7761 19 21.5V20H17.5C17.2239 20 17 19.7761 17 19.5C17 19.2239 17.2239 19 17.5 19H19V17.5C19 17.2239 19.2239 17 19.5 17Z" fill="black"/>
<path d="M15.5 5.5C15.5 5.22386 15.7239 5 16 5C17.933 5 19.5 6.567 19.5 8.5C19.5 9.6903 18.9058 10.7418 17.9979 11.3741C19.3606 11.9057 20.4589 12.9649 21.0421 14.2998C21.1527 14.5529 21.0372 14.8476 20.7841 14.9582C20.5311 15.0687 20.2363 14.9532 20.1258 14.7002C19.4309 13.1098 17.8445 12 16 12C15.7239 12 15.5 11.7761 15.5 11.5C15.5 11.2239 15.7239 11 16 11C17.3807 11 18.5 9.88071 18.5 8.5C18.5 7.11929 17.3807 6 16 6C15.7239 6 15.5 5.77614 15.5 5.5Z" fill="black"/>
</g>
</svg>
