<svg width="32" height="32" viewBox="0 0 32 32" fill="none" xmlns="http://www.w3.org/2000/svg">
<g opacity="0.9">
<path d="M15 6C12.2386 6 10 8.23858 10 11C10 12.6356 10.7853 14.0878 11.9995 15H11.5C7.91015 15 5 17.9101 5 21.5V24.5C5 25.3284 5.67157 26 6.5 26H20C20 23.0793 22.087 20.6459 24.851 20.1099C24.2144 17.188 21.6127 15 18.5 15H18.0005C19.2147 14.0878 20 12.6356 20 11C20 8.23858 17.7614 6 15 6Z" fill="black"/>
<path d="M30 21.5278C28.9385 20.5777 27.5367 20 26 20C25.95 20 25.9001 20.0006 25.8503 20.0018C25.2608 17.094 22.9891 14.7967 20.095 14.17C20.6682 13.2504 21 12.1639 21 11C21 9.20114 20.2084 7.58718 18.9545 6.48747C19.5689 6.17571 20.2639 6 21 6C23.4998 6 25.5263 8.0265 25.5263 10.5263C25.5263 11.9562 24.8633 13.2313 23.8279 14.0608C27.2654 14.2315 30 17.0727 30 20.5526V21.5278Z" fill="black"/>
<path d="M25 27V29C25 29.5523 25.4477 30 26 30C26.5523 30 27 29.5523 27 29V27H29C29.5523 27 30 26.5523 30 26C30 25.4477 29.5523 25 29 25H27V23C27 22.4477 26.5523 22 26 22C25.4477 22 25 22.4477 25 23V25H23C22.4477 25 22 25.4477 22 26C22 26.5523 22.4477 27 23 27H25Z" fill="black"/>
</g>
</svg>
