<svg width="16" height="16" viewBox="0 0 16 16" fill="none" xmlns="http://www.w3.org/2000/svg">
<path opacity="0.9" fill-rule="evenodd" clip-rule="evenodd" d="M5.88998 3.18711C6.0628 3.40249 6.02829 3.71719 5.81291 3.89L4.42632 5.00255L5.5 5.00002C9.64214 5.00002 13 8.35788 13 12.5C13 12.7762 12.7761 13 12.5 13C12.2239 13 12 12.7762 12 12.5C12 8.91039 9.09021 6.00038 5.50066 6.00002L4.42448 6.00256L5.8118 7.10913C6.02768 7.28133 6.0631 7.59592 5.8909 7.8118C5.71871 8.02768 5.40411 8.0631 5.18823 7.8909L2.68822 5.89681C2.56947 5.80209 2.50022 5.65854 2.5 5.50665C2.49978 5.35475 2.56862 5.211 2.68709 5.11594L5.18709 3.11003C5.40247 2.93722 5.71717 2.97173 5.88998 3.18711Z" fill="black"/>
</svg>
