<svg width="24" height="24" viewBox="0 0 24 24" fill="none" xmlns="http://www.w3.org/2000/svg">
<g opacity="0.9">
<path d="M6 7C6.55228 7 7 6.55228 7 6C7 5.44772 6.55228 5 6 5C5.44772 5 5 5.44772 5 6C5 6.55228 5.44772 7 6 7Z" fill="black"/>
<path fill-rule="evenodd" clip-rule="evenodd" d="M4 2C2.89543 2 2 2.89543 2 4V17C2 18.1046 2.89543 19 4 19H17C18.1046 19 19 18.1046 19 17V4C19 2.89543 18.1046 2 17 2H4ZM17 3H4C3.44772 3 3 3.44772 3 4V12.793L7.50001 8.29297L10.5482 11.3411L14.8478 6.77051L18 10.1214V4C18 3.44772 17.5523 3 17 3ZM9.86267 12.0698L7.50001 9.70718L3 14.2072V17C3 17.5523 3.44772 18 4 18H4.2841L9.86267 12.0698ZM17 18H5.65703L14.8478 8.22997L18 11.5808V17C18 17.5523 17.5523 18 17 18Z" fill="black"/>
<path d="M22 6.5C22 6.22386 21.7761 6 21.5 6C21.2239 6 21 6.22386 21 6.5V18.5C21 19.8807 19.8807 21 18.5 21H6.5C6.22386 21 6 21.2239 6 21.5C6 21.7761 6.22386 22 6.5 22H18.5C20.433 22 22 20.433 22 18.5V6.5Z" fill="black"/>
</g>
</svg>
