<svg width="32" height="32" viewBox="0 0 32 32" fill="none" xmlns="http://www.w3.org/2000/svg">
<g opacity="0.9">
<path fill-rule="evenodd" clip-rule="evenodd" d="M18 4C18 4.93192 17.3626 5.71497 16.5 5.93699V8H24.5C26.433 8 28 9.567 28 11.5V14H29C29.5523 14 30 14.4477 30 15V18C30 18.5523 29.5523 19 29 19H28V22.5C28 22.7761 27.7761 23 27.5 23C27.2239 23 27 22.7761 27 22.5V11.5C27 10.1193 25.8807 9 24.5 9H7.5C6.11929 9 5 10.1193 5 11.5V21.5C5 22.8807 6.11929 24 7.5 24H15.5C15.7761 24 16 24.2239 16 24.5C16 24.7761 15.7761 25 15.5 25H7.5C5.567 25 4 23.433 4 21.5V19H3C2.44772 19 2 18.5523 2 18V15C2 14.4477 2.44772 14 3 14H4V11.5C4 9.567 5.567 8 7.5 8H15.5V5.93699C14.6374 5.71497 14 4.93192 14 4C14 2.89543 14.8954 2 16 2C17.1046 2 18 2.89543 18 4ZM17 4C17 4.55228 16.5523 5 16 5C15.4477 5 15 4.55228 15 4C15 3.44772 15.4477 3 16 3C16.5523 3 17 3.44772 17 4ZM28 18H29V15H28V18ZM4 15H3V18H4V15Z" fill="black"/>
<path d="M21.5 21C21.7761 21 22 21.2239 22 21.5V24H24.5C24.7761 24 25 24.2239 25 24.5C25 24.7761 24.7761 25 24.5 25H22V27.5C22 27.7761 21.7761 28 21.5 28C21.2239 28 21 27.7761 21 27.5V25H18.5C18.2239 25 18 24.7761 18 24.5C18 24.2239 18.2239 24 18.5 24H21V21.5C21 21.2239 21.2239 21 21.5 21Z" fill="black"/>
<path fill-rule="evenodd" clip-rule="evenodd" d="M11 17C12.1046 17 13 16.1046 13 15C13 13.8954 12.1046 13 11 13C9.89543 13 9 13.8954 9 15C9 16.1046 9.89543 17 11 17ZM11 16C11.5523 16 12 15.5523 12 15C12 14.4477 11.5523 14 11 14C10.4477 14 10 14.4477 10 15C10 15.5523 10.4477 16 11 16Z" fill="black"/>
<path fill-rule="evenodd" clip-rule="evenodd" d="M23 15C23 16.1046 22.1046 17 21 17C19.8954 17 19 16.1046 19 15C19 13.8954 19.8954 13 21 13C22.1046 13 23 13.8954 23 15ZM22 15C22 15.5523 21.5523 16 21 16C20.4477 16 20 15.5523 20 15C20 14.4477 20.4477 14 21 14C21.5523 14 22 14.4477 22 15Z" fill="black"/>
</g>
</svg>
