<svg width="16" height="16" viewBox="0 0 16 16" fill="none" xmlns="http://www.w3.org/2000/svg">
<g opacity="0.9">
<path d="M9 1C9 1.37014 8.7989 1.69331 8.5 1.86622V3H12.5C13.8807 3 15 4.11929 15 5.5V7C15.5523 7 16 7.44772 16 8V9C16 9.55229 15.5523 10 15 10H14.5C14.2239 10 14 9.77614 14 9.5V5.5C14 4.67157 13.3284 4 12.5 4H3.5C2.67157 4 2 4.67157 2 5.5V10.5C2 11.3284 2.67157 12 3.5 12H5.5C5.77614 12 6 12.2239 6 12.5C6 12.7761 5.77614 13 5.5 13H3.5C2.11929 13 1 11.8807 1 10.5V10C0.447715 10 0 9.55228 0 9V8C0 7.44772 0.447715 7 1 7V5.5C1 4.11929 2.11929 3 3.5 3H7.5V1.86622C7.2011 1.69331 7 1.37014 7 1C7 0.447715 7.44772 0 8 0C8.55229 0 9 0.447715 9 1Z" fill="black"/>
<path d="M10.5 10C10.7761 10 11 10.2239 11 10.5V12H12.5C12.7761 12 13 12.2239 13 12.5C13 12.7761 12.7761 13 12.5 13H11V14.5C11 14.7761 10.7761 15 10.5 15C10.2239 15 10 14.7761 10 14.5V13H8.5C8.22386 13 8 12.7761 8 12.5C8 12.2239 8.22386 12 8.5 12H10V10.5C10 10.2239 10.2239 10 10.5 10Z" fill="black"/>
<path d="M5 8C5.55228 8 6 7.55228 6 7C6 6.44772 5.55228 6 5 6C4.44772 6 4 6.44772 4 7C4 7.55228 4.44772 8 5 8Z" fill="black"/>
<path d="M12 7C12 7.55228 11.5523 8 11 8C10.4477 8 10 7.55228 10 7C10 6.44772 10.4477 6 11 6C11.5523 6 12 6.44772 12 7Z" fill="black"/>
</g>
</svg>
