<svg width="32" height="32" viewBox="0 0 32 32" fill="none" xmlns="http://www.w3.org/2000/svg">
<path opacity="0.9" fill-rule="evenodd" clip-rule="evenodd" d="M3 19C3 11.8203 8.8203 6 16 6C23.1797 6 29 11.8203 29 19C29 21.0516 28.5244 22.9935 27.677 24.7203L27.5397 25H4.46031L4.32304 24.7203C3.47561 22.9935 3 21.0516 3 19ZM22.1038 13.5363L17.457 21.3647C17.408 21.4638 17.3483 21.5594 17.2779 21.65C16.7129 22.3767 15.6658 22.5077 14.9391 21.9427C14.2124 21.3777 14.0814 20.3306 14.6464 19.604C14.709 19.5234 14.7776 19.4501 14.8511 19.3843L21.3206 12.9272C21.7367 12.5118 22.4039 13.0307 22.1038 13.5363Z" fill="black"/>
</svg>
