<svg width="32" height="32" viewBox="0 0 32 32" fill="none" xmlns="http://www.w3.org/2000/svg">
<path d="M22.1038 13.5363L17.457 21.3647C17.408 21.4638 17.3484 21.5594 17.2779 21.65C16.7129 22.3767 15.6658 22.5077 14.9391 21.9427C14.2124 21.3777 14.0814 20.3306 14.6464 19.604C14.709 19.5234 14.7777 19.4501 14.8511 19.3843L21.3206 12.9272C21.7367 12.5118 22.4039 13.0307 22.1038 13.5363Z" fill="black"/>
<path fill-rule="evenodd" clip-rule="evenodd" d="M16 6C8.8203 6 3 11.8203 3 19C3 21.0516 3.47561 22.9935 4.32304 24.7203L4.46031 25H27.5397L27.677 24.7203C28.5244 22.9935 29 21.0516 29 19C29 11.8203 23.1797 6 16 6ZM4 19C4 12.3726 9.37258 7 16 7C22.6274 7 28 12.3726 28 19C28 20.7853 27.6104 22.4784 26.9121 24H5.08795C4.38957 22.4784 4 20.7853 4 19Z" fill="black"/>
</svg>
