<svg width="16" height="16" viewBox="0 0 16 16" fill="none" xmlns="http://www.w3.org/2000/svg">
<path opacity="0.9" fill-rule="evenodd" clip-rule="evenodd" d="M4 3.5C4 2.11929 5.11929 1 6.5 1H9.5C10.8807 1 12 2.11929 12 3.5V6C13.1046 6 14 6.89543 14 8V14C14 14.5523 13.5523 15 13 15H3C2.44772 15 2 14.5523 2 14V8C2 6.89543 2.89543 6 4 6V3.5ZM11 3.5V6H5V3.5C5 2.67157 5.67157 2 6.5 2H9.5C10.3284 2 11 2.67157 11 3.5ZM9 10C9 10.3702 8.79889 10.6933 8.49997 10.8662V11.5001C8.49997 11.7763 8.27611 12.0001 7.99997 12.0001C7.72383 12.0001 7.49997 11.7763 7.49997 11.5001V10.8662C7.20109 10.6933 7 10.3701 7 10C7 9.44771 7.44772 9 8 9C8.55228 9 9 9.44771 9 10Z" fill="black"/>
</svg>
