<svg width="32" height="32" viewBox="0 0 32 32" fill="none" xmlns="http://www.w3.org/2000/svg">
<path opacity="0.9" fill-rule="evenodd" clip-rule="evenodd" d="M3 16C3 12.134 6.13401 9 10 9C12.7924 9 15.2029 10.6351 16.3264 13H27.2597C27.5635 13 27.8508 13.1381 28.0406 13.3753L29.6406 15.3753C29.9327 15.7405 29.9327 16.2595 29.6406 16.6247L28.0406 18.6247C27.8508 18.8619 27.5635 19 27.2597 19H25.7071L25.2071 19.5C24.8166 19.8905 24.1834 19.8905 23.7929 19.5L23.5 19.2071L23.2071 19.5C22.8166 19.8905 22.1834 19.8905 21.7929 19.5L20.5 18.2071L20 18.7071C19.8125 18.8946 19.5581 19 19.2929 19H16.3264C15.2029 21.3649 12.7924 23 10 23C6.13401 23 3 19.866 3 16ZM7.5 18C8.60457 18 9.5 17.1046 9.5 16C9.5 14.8954 8.60457 14 7.5 14C6.39543 14 5.5 14.8954 5.5 16C5.5 17.1046 6.39543 18 7.5 18Z" fill="black"/>
</svg>
