<svg width="25" height="24" viewBox="0 0 25 24" fill="none" xmlns="http://www.w3.org/2000/svg">
<g opacity="0.9">
<path d="M6.53516 11C5.98287 11 5.53516 11.4477 5.53516 12C5.53516 12.5523 5.98287 13 6.53516 13H17.5352C18.0874 13 18.5352 12.5523 18.5352 12C18.5352 11.4477 18.0874 11 17.5352 11H6.53516Z" fill="black"/>
<path fill-rule="evenodd" clip-rule="evenodd" d="M12.0352 2C6.51231 2 2.03516 6.47715 2.03516 12C2.03516 17.5228 6.51231 22 12.0352 22C17.558 22 22.0352 17.5228 22.0352 12C22.0352 6.47715 17.558 2 12.0352 2ZM3.03516 12C3.03516 7.02944 7.06459 3 12.0352 3C17.0057 3 21.0352 7.02944 21.0352 12C21.0352 16.9706 17.0057 21 12.0352 21C7.06459 21 3.03516 16.9706 3.03516 12Z" fill="black"/>
</g>
</svg>
