<svg width="33" height="32" viewBox="0 0 33 32" fill="none" xmlns="http://www.w3.org/2000/svg">
<g opacity="0.9">
<path d="M9.53516 15C8.98287 15 8.53516 15.4477 8.53516 16C8.53516 16.5523 8.98287 17 9.53516 17H22.5352C23.0874 17 23.5352 16.5523 23.5352 16C23.5352 15.4477 23.0874 15 22.5352 15H9.53516Z" fill="black"/>
<path fill-rule="evenodd" clip-rule="evenodd" d="M16.0352 4C9.40774 4 4.03516 9.37258 4.03516 16C4.03516 22.6274 9.40774 28 16.0352 28C22.6626 28 28.0352 22.6274 28.0352 16C28.0352 9.37258 22.6626 4 16.0352 4ZM5.03516 16C5.03516 9.92487 9.96002 5 16.0352 5C22.1103 5 27.0352 9.92487 27.0352 16C27.0352 22.0751 22.1103 27 16.0352 27C9.96002 27 5.03516 22.0751 5.03516 16Z" fill="black"/>
</g>
</svg>
