<svg width="24" height="24" viewBox="0 0 24 24" fill="none" xmlns="http://www.w3.org/2000/svg">
<path opacity="0.9" fill-rule="evenodd" clip-rule="evenodd" d="M18 18H20C21.1046 18 22 17.1046 22 16L22 4C22 2.89543 21.1046 2 20 2H8C6.89543 2 6 2.89543 6 4L6 6H4C2.89543 6 2 6.89543 2 8V20C2 21.1046 2.89543 22 4 22H16C17.1046 22 18 21.1046 18 20V18ZM21 16C21 16.5523 20.5523 17 20 17H18V8C18 6.89543 17.1046 6 16 6H7L7 4C7 3.44772 7.44771 3 8 3L20 3C20.5523 3 21 3.44772 21 4L21 16ZM6.5007 7C6.50093 7 6.50046 7 6.5007 7C6.50046 7 6.49953 7 6.4993 7H4C3.44772 7 3 7.44772 3 8V20C3 20.5523 3.44772 21 4 21H16C16.5523 21 17 20.5523 17 20V8C17 7.44772 16.5523 7 16 7H6.5007Z" fill="black"/>
</svg>
