<svg width="24" height="24" viewBox="0 0 24 24" fill="none" xmlns="http://www.w3.org/2000/svg">
<path opacity="0.9" fill-rule="evenodd" clip-rule="evenodd" d="M10.9476 1.8803C11.403 1.04901 12.597 1.04901 13.0524 1.8803L14.3652 4.27672C14.416 4.36952 14.5304 4.40667 14.626 4.36147L17.0967 3.19436C17.9537 2.7895 18.9198 3.49137 18.7996 4.43157L18.453 7.14194C18.4396 7.2469 18.5103 7.34415 18.6142 7.36382L21.299 7.87182C22.2304 8.04803 22.5994 9.18367 21.9495 9.87366L20.076 11.8627C20.0035 11.9397 20.0035 12.06 20.076 12.137L21.9495 14.126C22.5994 14.816 22.2304 15.9517 21.299 16.1279L18.6142 16.6359C18.5103 16.6555 18.4396 16.7528 18.453 16.8578L18.7996 19.5681C18.9198 20.5083 17.9537 21.2102 17.0967 20.8053L14.626 19.6382C14.5304 19.593 14.416 19.6302 14.3652 19.723L13.0524 22.1194C12.597 22.9507 11.403 22.9507 10.9476 22.1194L9.63479 19.723C9.58395 19.6302 9.46963 19.593 9.37396 19.6382L6.90332 20.8053C6.04628 21.2102 5.08024 20.5083 5.20045 19.5681L5.54696 16.8578C5.56038 16.7528 5.48973 16.6555 5.38576 16.6359L2.70096 16.1279C1.76963 15.9517 1.40064 14.816 2.05052 14.126L3.92398 12.137C3.99653 12.06 3.99653 11.9397 3.92398 11.8627L2.05052 9.87366C1.40064 9.18367 1.76963 8.04803 2.70096 7.87182L5.38576 7.36382C5.48973 7.34415 5.56038 7.2469 5.54696 7.14194L5.20045 4.43157C5.08024 3.49137 6.04628 2.78951 6.90332 3.19436L9.37396 4.36147C9.46963 4.40667 9.58395 4.36952 9.63479 4.27672L10.9476 1.8803ZM13 8.5C13 8.29777 12.8782 8.11545 12.6913 8.03806C12.5045 7.96067 12.2894 8.00345 12.1464 8.14645L10.1464 10.1464C9.95118 10.3417 9.95118 10.6583 10.1464 10.8536C10.3417 11.0488 10.6583 11.0488 10.8536 10.8536L12 9.70711V15.5C12 15.7761 12.2239 16 12.5 16C12.7761 16 13 15.7761 13 15.5V8.5Z" fill="black"/>
</svg>
