<svg width="16" height="16" viewBox="0 0 16 16" fill="none" xmlns="http://www.w3.org/2000/svg">
<g opacity="0.9">
<path fill-rule="evenodd" clip-rule="evenodd" d="M1.99902 6.62402C1.99902 5.24331 3.11831 4.12402 4.49902 4.12402H9.49902C10.8797 4.12402 11.999 5.24331 11.999 6.62402V9.62402C11.999 11.0047 10.8797 12.124 9.49902 12.124H4.49902C3.11831 12.124 1.99902 11.0047 1.99902 9.62402V6.62402ZM4.49902 5.12402C3.6706 5.12402 2.99902 5.7956 2.99902 6.62402V9.62402C2.99902 10.4525 3.6706 11.124 4.49902 11.124H9.49902C10.3275 11.124 10.999 10.4525 10.999 9.62402V6.62402C10.999 5.7956 10.3275 5.12402 9.49902 5.12402H4.49902Z" fill="black"/>
<path fill-rule="evenodd" clip-rule="evenodd" d="M14.999 4.93031V11.3177L10.999 9.9844V6.26364L14.999 4.93031ZM11.999 6.9844V9.26364L13.999 9.93031V6.31774L11.999 6.9844Z" fill="black"/>
</g>
</svg>
