<svg width="32" height="32" viewBox="0 0 32 32" fill="none" xmlns="http://www.w3.org/2000/svg">
<g opacity="0.9">
<path d="M8 20.5659L8 10.3506L12.659 14.5659L11.5 14.5659C11.2239 14.5659 11 14.7898 11 15.0659C11 15.3421 11.2239 15.5659 11.5 15.5659L13.7642 15.5659L15.9748 17.5659L11.5 17.5659C11.2239 17.5659 11 17.7898 11 18.0659C11 18.3421 11.2239 18.5659 11.5 18.5659L17.08 18.5659L19.2906 20.5659L8 20.5659Z" fill="black"/>
<path d="M19.5 15.5659L18.2358 15.5659L23 19.8764L23 8.06592C23 7.78977 23.2239 7.56592 23.5 7.56592C23.7761 7.56592 24 7.78977 24 8.06592L24 10.5659L25 10.5659C26.6569 10.5659 28 9.22277 28 7.56592C28 5.90906 26.6569 4.56592 25 4.56592L11 4.56591C9.7238 4.56591 8.63372 5.3628 8.2002 6.48612L11.002 9.02107C11.0247 8.76594 11.239 8.56592 11.5 8.56592L19.5 8.56592C19.7761 8.56592 20 8.78977 20 9.06592C20 9.34206 19.7761 9.56592 19.5 9.56592L11.6042 9.56592L13.8147 11.5659L19.5 11.5659C19.7761 11.5659 20 11.7898 20 12.0659C20 12.3421 19.7761 12.5659 19.5 12.5659L14.92 12.5659L17.1305 14.5659L19.5 14.5659C19.7761 14.5659 20 14.7898 20 15.0659C20 15.3421 19.7761 15.5659 19.5 15.5659Z" fill="black"/>
<path d="M19.9837 21.193L22.9811 23.9049C22.8127 25.4022 21.5422 26.5659 20 26.5659L19.5 26.5659C18.1193 26.5659 17 25.4466 17 24.0659C17 22.6852 18.1193 21.5659 19.5 21.5659C19.7322 21.5659 19.9275 21.4076 19.9837 21.193Z" fill="black"/>
<path d="M17.0505 26.5659C16.4022 25.9307 16 25.0453 16 24.0659C16 23.0866 16.4022 22.2012 17.0505 21.5659L7 21.5659C5.61929 21.5659 4.5 22.6852 4.5 24.0659C4.5 25.4466 5.61929 26.5659 7 26.5659L17.0505 26.5659Z" fill="black"/>
<path d="M5.83546 5.69515C5.63069 5.50988 5.31451 5.52569 5.12924 5.73046C4.94397 5.93523 4.95978 6.25142 5.16455 6.43669L26.1645 25.4367C26.3693 25.622 26.6855 25.6061 26.8708 25.4014C27.056 25.1966 27.0402 24.8804 26.8355 24.6952L5.83546 5.69515Z" fill="black"/>
</g>
</svg>
