<svg width="24" height="24" viewBox="0 0 24 24" fill="none" xmlns="http://www.w3.org/2000/svg">
<g opacity="0.9">
<path d="M5 15.5658L5 7.38976L8.00079 10.0375C8.00027 10.0469 8 10.0563 8 10.0658C8 10.3419 8.22386 10.5658 8.5 10.5658L8.59952 10.5658L10.8662 12.5658L8.5 12.5658C8.22386 12.5658 8.00001 12.7897 8.00001 13.0658C8.00001 13.3419 8.22386 13.5658 8.50001 13.5658L11.9995 13.5658L14.2662 15.5658L5 15.5658Z" fill="black"/>
<path d="M14.5 10.5658L13.1338 10.5658L18 14.8595L18 5.0658C18 4.78966 18.2239 4.5658 18.5 4.5658C18.7761 4.5658 19 4.78966 19 5.0658L19 7.48888L19.4615 7.48888C20.821 7.48888 21.9231 6.38681 21.9231 5.02734C21.9231 3.66787 20.821 2.5658 19.4615 2.5658L7.46154 2.56592C6.58238 2.56592 5.81087 3.02682 5.37545 3.72017L8.60049 6.5658L14.5 6.5658C14.7761 6.5658 15 6.78966 15 7.0658C15 7.34195 14.7761 7.5658 14.5 7.5658L9.73383 7.5658L12.0005 9.5658L14.5 9.5658C14.7761 9.5658 15 9.78966 15 10.0658C15 10.3419 14.7761 10.5658 14.5 10.5658Z" fill="black"/>
<path d="M15.4022 16.5682L17.9067 18.778C17.6137 19.81 16.6644 20.5659 15.5385 20.5659L15.5 20.5659C14.3954 20.5659 13.5 19.6704 13.5 18.5658C13.5 17.494 14.343 16.6192 15.4022 16.5682Z" fill="black"/>
<path d="M12.5 18.5658C12.5 19.3342 12.7889 20.0351 13.264 20.5659L4.5 20.5659C3.39543 20.5659 2.5 19.6704 2.5 18.5658C2.5 17.4612 3.39543 16.5658 4.5 16.5658L13.2639 16.5658C12.7889 17.0966 12.5 17.7974 12.5 18.5658Z" fill="black"/>
<path d="M3.83082 3.69089C3.62376 3.50819 3.30779 3.52794 3.12509 3.735C2.94239 3.94206 2.96214 4.25802 3.1692 4.44073L20.1692 19.4407C20.3763 19.6234 20.6922 19.6037 20.8749 19.3966C21.0576 19.1896 21.0379 18.8736 20.8308 18.6909L3.83082 3.69089Z" fill="black"/>
</g>
</svg>
