<svg width="24" height="24" viewBox="0 0 24 24" fill="none" xmlns="http://www.w3.org/2000/svg">
<g opacity="0.9">
<path fill-rule="evenodd" clip-rule="evenodd" d="M17.4806 3.56582L7.46153 3.56592C6.96655 3.56592 6.52887 3.81151 6.26369 4.18974C6.10517 4.41584 5.79336 4.47063 5.56725 4.31211C5.34114 4.15358 5.28636 3.84178 5.44488 3.61567C5.8892 2.98192 6.62675 2.56592 7.46152 2.56592L19.4615 2.5658C20.821 2.5658 21.9231 3.66787 21.9231 5.02734C21.9231 6.38681 20.821 7.48888 19.4615 7.48888L18 7.48888L18 14.0658C18 14.3419 17.7761 14.5658 17.5 14.5658C17.2238 14.5658 17 14.3419 17 14.0658L17 5.02734C17 4.48009 17.1786 3.97455 17.4806 3.56582ZM19.4615 3.5658C18.6543 3.5658 18 4.22016 18 5.02734L18 6.48888L19.4615 6.48888C20.2687 6.48888 20.9231 5.83453 20.9231 5.02734C20.9231 4.22016 20.2687 3.5658 19.4615 3.5658Z" fill="black"/>
<path fill-rule="evenodd" clip-rule="evenodd" d="M5.49999 7.5658C5.77613 7.5658 5.99999 7.78966 5.99999 8.0658L5.99999 15.6428L15.5385 15.6428C15.8146 15.6428 16.0385 15.8667 16.0385 16.1428C16.0385 16.419 15.8146 16.6428 15.5385 16.6428C14.7313 16.6428 14.0769 17.2972 14.0769 18.1044C14.0769 18.9116 14.7313 19.5659 15.5385 19.5659C16.1131 19.5659 16.6113 19.2343 16.8503 18.7498C16.9724 18.5021 17.2722 18.4004 17.5199 18.5225C17.7675 18.6447 17.8693 18.9445 17.7471 19.1921C17.3462 20.005 16.5083 20.5659 15.5385 20.5659L4.46153 20.5659C3.10206 20.5659 1.99999 19.4638 1.99999 18.1044C1.99999 16.7449 3.10206 15.6428 4.46153 15.6428L4.99999 15.6428L4.99999 8.0658C4.99999 7.78966 5.22385 7.5658 5.49999 7.5658ZM13.5576 19.5659C13.2555 19.1572 13.0769 18.6516 13.0769 18.1044C13.0769 17.5571 13.2555 17.0516 13.5576 16.6428L4.46153 16.6428C3.65434 16.6428 2.99999 17.2972 2.99999 18.1044C2.99999 18.9116 3.65434 19.5659 4.46153 19.5659L13.5576 19.5659Z" fill="black"/>
<path d="M9.49999 7.0658C9.49999 6.78966 9.72385 6.5658 9.99999 6.5658L14.5 6.5658C14.7761 6.5658 15 6.78966 15 7.0658C15 7.34195 14.7761 7.5658 14.5 7.5658L9.99999 7.5658C9.72385 7.5658 9.49999 7.34194 9.49999 7.0658Z" fill="black"/>
<path d="M13 10.0658C13 9.78966 13.2238 9.5658 13.5 9.5658L14.5 9.5658C14.7761 9.5658 15 9.78966 15 10.0658C15 10.3419 14.7761 10.5658 14.5 10.5658L13.5 10.5658C13.2238 10.5658 13 10.3419 13 10.0658Z" fill="black"/>
<path d="M7.99999 13.0658C7.99999 12.7897 8.22385 12.5658 8.49999 12.5658L10.5 12.5658C10.7761 12.5658 11 12.7897 11 13.0658C11 13.3419 10.7761 13.5658 10.5 13.5658L8.49999 13.5658C8.22385 13.5658 7.99999 13.3419 7.99999 13.0658Z" fill="black"/>
<path d="M3.83081 3.69089C3.62374 3.50819 3.30778 3.52794 3.12508 3.735C2.94237 3.94206 2.96212 4.25802 3.16919 4.44073L20.1692 19.4407C20.3762 19.6234 20.6922 19.6037 20.8749 19.3966C21.0576 19.1896 21.0379 18.8736 20.8308 18.6909L3.83081 3.69089Z" fill="black"/>
</g>
</svg>
