<svg width="32" height="32" viewBox="0 0 32 32" fill="none" xmlns="http://www.w3.org/2000/svg">
<g opacity="0.9">
<path d="M19.2349 6.78538C19.4924 6.80894 19.7622 6.85259 20.0369 6.92083C20.0126 7.11045 20 7.30376 20 7.5C20 9.79901 21.724 11.6954 23.9498 11.9667C23.9827 12.2928 24 12.637 24 13V20.2573C24 20.4737 24.0793 20.7087 24.2431 20.9861C24.4089 21.267 24.6343 21.5484 24.8901 21.8674L24.8913 21.8689C25.1365 22.1748 25.4107 22.5167 25.62 22.8775C25.8318 23.2426 26 23.664 26 24.1366V24.5C26 24.7761 25.7761 25 25.5 25H6.5C6.22386 25 6 24.7761 6 24.5V24.1366C6 23.6641 6.16822 23.2426 6.38001 22.8775C6.58931 22.5167 6.86346 22.1748 7.10866 21.869L7.1099 21.8674C7.36569 21.5484 7.59111 21.267 7.75693 20.9861C7.92073 20.7087 8 20.4737 8 20.2573V13C8 10.5858 8.76289 9.00471 9.8428 8.03287C10.7507 7.21585 11.8374 6.87028 12.765 6.78538C12.8672 5.9543 13.236 5.28987 13.7678 4.8172C14.3888 4.26525 15.2025 4 16 4C16.7974 4 17.6112 4.26525 18.2322 4.8172C18.7639 5.28988 19.1327 5.95431 19.2349 6.78538Z" fill="black"/>
<path d="M21 7.5C21 7.42178 21.0026 7.34415 21.0076 7.26721C21.1274 5.44274 22.6452 4 24.5 4C26.433 4 28 5.567 28 7.5C28 9.433 26.433 11 24.5 11C24.2529 11 24.0117 10.9744 23.779 10.9257C22.1919 10.5933 21 9.18585 21 7.5Z" fill="black"/>
<path d="M16 28C14.6038 28 13.3985 27.1825 12.8368 26H19.1632C18.6015 27.1825 17.3962 28 16 28Z" fill="black"/>
</g>
</svg>
