<svg width="16" height="16" viewBox="0 0 16 16" fill="none" xmlns="http://www.w3.org/2000/svg">
<g opacity="0.9">
<path d="M9.95562 2.54573C9.98086 2.55055 10.0063 2.55574 10.0318 2.56132C10.0109 2.70451 10 2.85099 10 3C10 4.64849 11.3296 5.98643 12.9749 5.9999C12.9914 6.1607 13 6.32737 13 6.5V10.1972C13 10.4059 13.1196 10.5843 13.393 10.9317L13.4176 10.963C13.65 11.2576 14 11.7012 14 12.3028V12.5C14 12.7761 13.7762 13 13.5 13H2.5C2.22386 13 2 12.7761 2 12.5V12.3028C2 11.7012 2.35001 11.2576 2.58244 10.963L2.60706 10.9317C2.88042 10.5843 3.00002 10.4059 3.00002 10.1972V6.5C3.00002 5.10178 3.56508 4.09375 4.29052 3.44085C4.83981 2.94649 5.48535 2.65234 6.04438 2.54573C6.13139 2.11723 6.3419 1.76322 6.63657 1.50129C7.02059 1.15994 7.51847 1 8 1C8.48154 1 8.97942 1.15995 9.36343 1.50129C9.6581 1.76322 9.86861 2.11723 9.95562 2.54573Z" fill="black"/>
<path d="M11 2.99156C11.0001 2.97251 11.0004 2.95353 11.001 2.93462C11.0356 1.86031 11.9173 1 13 1C14.1046 1 15 1.89543 15 3C15 4.10457 14.1046 5 13 5C12.9141 5 12.8295 4.99458 12.7464 4.98407C11.7616 4.85945 11 4.01866 11 3C11 2.99718 11 2.99437 11 2.99156Z" fill="black"/>
<path d="M8 15.4868C6.95285 15.4868 6.04891 14.8737 5.62761 13.9868H10.3724C9.95109 14.8737 9.04715 15.4868 8 15.4868Z" fill="black"/>
</g>
</svg>
