<svg width="24" height="24" viewBox="0 0 24 24" fill="none" xmlns="http://www.w3.org/2000/svg">
<g opacity="0.9">
<path fill-rule="evenodd" clip-rule="evenodd" d="M13.8322 2.67175C14.2561 3.04861 14.5527 3.57165 14.6485 4.21836C15.4467 4.33788 16.4096 4.75265 17.2232 5.49408C18.2212 6.40373 19 7.80909 19 9.77273V15.1505C19 15.5472 19.1836 15.9258 19.4458 16.4422L19.4608 16.4718C19.6991 16.9407 20 17.5329 20 18.2131V18.5C20 18.7761 19.7761 19 19.5 19H4.5C4.22386 19 4 18.7761 4 18.5V18.2131C4 17.5329 4.30089 16.9407 4.53916 16.4718L4.55418 16.4422C4.81637 15.9258 5 15.5472 5 15.1505V9.77273C5 7.80909 5.77875 6.40373 6.77683 5.49408C7.59034 4.75265 8.55326 4.33788 9.35151 4.21836C9.4473 3.57165 9.74384 3.04861 10.1678 2.67174C10.6797 2.21676 11.348 2 12 2C12.652 2 13.3203 2.21677 13.8322 2.67175ZM10.734 10.4837L10.7398 10.9298L11.432 11.1046L10.7283 15.1821C10.6938 15.3838 10.6665 15.5679 10.6464 15.7344C10.6263 15.9009 10.6174 16.0716 10.6197 16.2466C10.6216 16.3953 10.6754 16.5346 10.7809 16.6644C10.8938 16.7855 11.0911 16.8441 11.373 16.8405C11.5065 16.8387 11.6472 16.8194 11.7951 16.7825C11.9431 16.7543 12.0872 16.7131 12.2275 16.6588C12.3752 16.6044 12.5116 16.5413 12.6368 16.4697C12.7694 16.398 12.8834 16.3221 12.9788 16.2422L12.973 15.796L12.1942 15.8061L13.122 10.1377L12.9197 9.98284C12.764 9.98486 12.5825 10.0047 12.3752 10.0424C12.1753 10.0713 11.9718 10.1089 11.7646 10.1553C11.5575 10.2018 11.3616 10.2568 11.177 10.3205C10.9922 10.3754 10.8446 10.4298 10.734 10.4837ZM11.8829 7.26654C11.7145 7.43497 11.6322 7.66789 11.636 7.96531C11.6397 8.24524 11.7279 8.4672 11.9006 8.63119C12.0734 8.79519 12.2896 8.87549 12.5492 8.87212C12.8311 8.86846 13.0525 8.78246 13.2135 8.61413C13.382 8.44571 13.4644 8.22153 13.4607 7.9416C13.4569 7.64418 13.3686 7.41347 13.1958 7.24948C13.0304 7.08539 12.8068 7.00518 12.525 7.00884C12.2654 7.01222 12.0513 7.09812 11.8829 7.26654Z" fill="black"/>
<path d="M9.62761 20C10.0489 20.8869 10.9528 21.5 12 21.5C13.0471 21.5 13.9511 20.8869 14.3724 20H9.62761Z" fill="black"/>
</g>
</svg>
