<svg width="24" height="24" viewBox="0 0 24 24" fill="none" xmlns="http://www.w3.org/2000/svg">
<g opacity="0.9">
<path d="M10.734 10.4837L10.7398 10.9298L11.432 11.1046L10.7283 15.1821C10.6938 15.3838 10.6665 15.5679 10.6464 15.7344C10.6263 15.9009 10.6174 16.0716 10.6197 16.2466C10.6216 16.3953 10.6754 16.5346 10.7809 16.6644C10.8938 16.7855 11.0911 16.8441 11.373 16.8405C11.5065 16.8387 11.6472 16.8194 11.7951 16.7825C11.9431 16.7543 12.0872 16.7131 12.2275 16.6588C12.3752 16.6044 12.5116 16.5413 12.6368 16.4697C12.7694 16.398 12.8834 16.3221 12.9788 16.2422L12.973 15.796L12.1942 15.8061L13.122 10.1377L12.9197 9.98284C12.764 9.98486 12.5825 10.0047 12.3752 10.0424C12.1753 10.0713 11.9718 10.1089 11.7646 10.1553C11.5575 10.2018 11.3616 10.2568 11.177 10.3205C10.9922 10.3754 10.8446 10.4298 10.734 10.4837Z" fill="black"/>
<path d="M11.8829 7.26654C11.7145 7.43497 11.6322 7.66789 11.636 7.96531C11.6397 8.24524 11.7279 8.4672 11.9006 8.63119C12.0734 8.79519 12.2896 8.87549 12.5492 8.87212C12.8311 8.86846 13.0525 8.78246 13.2135 8.61413C13.382 8.44571 13.4644 8.22153 13.4607 7.9416C13.4569 7.64418 13.3686 7.41347 13.1958 7.24948C13.0304 7.08539 12.8068 7.00518 12.525 7.00884C12.2654 7.01222 12.0513 7.09812 11.8829 7.26654Z" fill="black"/>
<path fill-rule="evenodd" clip-rule="evenodd" d="M14.6485 4.21836C14.5527 3.57165 14.2561 3.04861 13.8322 2.67175C13.3203 2.21677 12.652 2 12 2C11.348 2 10.6797 2.21676 10.1678 2.67174C9.74384 3.04861 9.4473 3.57165 9.35151 4.21836C8.55326 4.33788 7.59034 4.75265 6.77683 5.49408C5.77875 6.40373 5 7.80909 5 9.77273V15.1505C5 15.5472 4.81637 15.9258 4.55418 16.4422L4.53916 16.4718C4.30089 16.9407 4 17.5329 4 18.2131V18.5C4 18.7761 4.22386 19 4.5 19H9C9 20.6569 10.3431 22 12 22C13.6569 22 15 20.6569 15 19H19.5C19.7761 19 20 18.7761 20 18.5V18.2131C20 17.5329 19.6991 16.9407 19.4608 16.4718L19.4458 16.4422C19.1836 15.9258 19 15.5472 19 15.1505V9.77273C19 7.80909 18.2212 6.40373 17.2232 5.49408C16.4096 4.75265 15.4467 4.33788 14.6485 4.21836ZM10.8322 3.41915C10.535 3.68326 10.3182 4.09021 10.3182 4.6818C10.3182 4.95795 10.0943 5.1818 9.81817 5.1818C9.22821 5.1818 8.26591 5.48995 7.45044 6.23317C6.65307 6.95989 6 8.09999 6 9.77273V15.1505C6 15.8056 5.7054 16.3847 5.47108 16.8453L5.44582 16.8949C5.23087 17.3183 5.06619 17.659 5.01593 18H18.9841C18.9338 17.659 18.7691 17.3183 18.5542 16.8949L18.5289 16.8453C18.2946 16.3847 18 15.8056 18 15.1505V9.77273C18 8.09999 17.3469 6.95989 16.5496 6.23317C15.7341 5.48995 14.7718 5.1818 14.1818 5.1818C13.9057 5.1818 13.6818 4.95795 13.6818 4.6818C13.6818 4.09022 13.4649 3.68327 13.1678 3.41916C12.8615 3.14687 12.4389 3 12 3C11.5611 3 11.1385 3.14687 10.8322 3.41915ZM12 21C10.8954 21 10 20.1046 10 19H14C14 20.1046 13.1046 21 12 21Z" fill="black"/>
</g>
</svg>
