<svg width="25" height="24" viewBox="0 0 25 24" fill="none" xmlns="http://www.w3.org/2000/svg">
<g opacity="0.9">
<path fill-rule="evenodd" clip-rule="evenodd" d="M13.6789 12.0018C14.5105 11.2689 15.0352 10.1957 15.0352 9C15.0352 6.79086 13.2443 5 11.0352 5C8.82602 5 7.03516 6.79086 7.03516 9C7.03516 10.1957 7.55979 11.2689 8.39142 12.0018C5.42029 12.0781 3.03516 14.5105 3.03516 17.5V19.5C3.03516 19.7761 3.25901 20 3.53516 20C3.8113 20 4.03516 19.7761 4.03516 19.5V17.5C4.03516 15.0147 6.04988 13 8.53516 13H13.5352C16.0204 13 18.0352 15.0147 18.0352 17.5V19.5C18.0352 19.7761 18.259 20 18.5352 20C18.8113 20 19.0352 19.7761 19.0352 19.5V17.5C19.0352 14.5105 16.65 12.0781 13.6789 12.0018ZM14.0352 9C14.0352 10.6569 12.692 12 11.0352 12C9.3783 12 8.03516 10.6569 8.03516 9C8.03516 7.34315 9.3783 6 11.0352 6C12.692 6 14.0352 7.34315 14.0352 9Z" fill="black"/>
<path d="M15.5352 5.5C15.5352 5.22386 15.759 5 16.0352 5C17.9682 5 19.5352 6.567 19.5352 8.5C19.5352 9.61822 19.0108 10.614 18.1945 11.2547C20.4211 11.9584 22.0352 14.0407 22.0352 16.5V18C22.0352 18.2761 21.8113 18.5 21.5352 18.5C21.259 18.5 21.0352 18.2761 21.0352 18V16.5C21.0352 14.0147 19.0204 12 16.5352 12C16.488 12 16.4424 11.9935 16.3992 11.9813C16.2795 11.9937 16.1581 12 16.0352 12C15.759 12 15.5352 11.7761 15.5352 11.5C15.5352 11.2239 15.759 11 16.0352 11C17.4159 11 18.5352 9.88071 18.5352 8.5C18.5352 7.11929 17.4159 6 16.0352 6C15.759 6 15.5352 5.77614 15.5352 5.5Z" fill="black"/>
</g>
</svg>
