<svg width="33" height="32" viewBox="0 0 33 32" fill="none" xmlns="http://www.w3.org/2000/svg">
<g opacity="0.9">
<path d="M10.0352 11C10.0352 8.23858 12.2737 6 15.0352 6C17.7966 6 20.0352 8.23858 20.0352 11C20.0352 12.6356 19.2498 14.0878 18.0356 15H18.5352C22.125 15 25.0352 17.9101 25.0352 21.5V24.5C25.0352 25.3284 24.3636 26 23.5352 26H6.53516C5.70673 26 5.03516 25.3284 5.03516 24.5V21.5C5.03516 17.9101 7.94531 15 11.5352 15H12.0347C10.8205 14.0878 10.0352 12.6356 10.0352 11Z" fill="black"/>
<path d="M26.0352 21.5V24H28.5352C29.3636 24 30.0352 23.3284 30.0352 22.5V20.5526C30.0352 17.0727 27.3005 14.2315 23.863 14.0608C24.8984 13.2313 25.5615 11.9562 25.5615 10.5263C25.5615 8.0265 23.535 6 21.0352 6C20.2991 6 19.604 6.17571 18.9897 6.48747C20.2435 7.58718 21.0352 9.20114 21.0352 11C21.0352 12.1639 20.7034 13.2504 20.1301 14.17C23.5061 14.9011 26.0352 17.9052 26.0352 21.5Z" fill="black"/>
</g>
</svg>
