<svg width="16" height="16" viewBox="0 0 16 16" fill="none" xmlns="http://www.w3.org/2000/svg">
<path opacity="0.9" fill-rule="evenodd" clip-rule="evenodd" d="M10 6C10 6.80026 9.68666 7.52733 9.17598 8.06523C10.7855 8.38017 12 9.79825 12 11.5V13.5C12 13.7761 11.7761 14 11.5 14H2.5C2.22386 14 2 13.7761 2 13.5V11.5C2 9.79825 3.2145 8.38017 4.82402 8.06523C4.31334 7.52733 4 6.80026 4 6C4 4.34315 5.34315 3 7 3C8.65685 3 10 4.34315 10 6ZM13 11.5C13 9.80604 12.0646 8.33188 10.6824 7.564C10.8868 7.08344 11 6.55466 11 6C11 4.86312 10.5257 3.83702 9.76421 3.10876C10.0069 3.03797 10.2637 3 10.5293 3C12.0355 3 13.2565 4.22104 13.2565 5.72727C13.2565 6.45478 12.9717 7.11575 12.5074 7.60475C13.9706 7.89106 15.0747 9.18023 15.0747 10.7273V12.5455C15.0747 12.7965 14.8712 13 14.6202 13H13V11.5Z" fill="black"/>
</svg>
