<svg width="33" height="32" viewBox="0 0 33 32" fill="none" xmlns="http://www.w3.org/2000/svg">
<g opacity="0.9">
<path fill-rule="evenodd" clip-rule="evenodd" d="M18.0356 15C19.2498 14.0878 20.0352 12.6356 20.0352 11C20.0352 8.23858 17.7966 6 15.0352 6C12.2737 6 10.0352 8.23858 10.0352 11C10.0352 12.6356 10.8205 14.0878 12.0347 15H11.5352C7.94531 15 5.03516 17.9101 5.03516 21.5V25.5C5.03516 25.7761 5.25901 26 5.53516 26C5.8113 26 6.03516 25.7761 6.03516 25.5V21.5C6.03516 18.4624 8.49759 16 11.5352 16H18.5352C21.5727 16 24.0352 18.4624 24.0352 21.5V25.5C24.0352 25.7761 24.259 26 24.5352 26C24.8113 26 25.0352 25.7761 25.0352 25.5V21.5C25.0352 17.9102 22.125 15 18.5352 15H18.0356ZM11.0352 11C11.0352 8.79086 12.826 7 15.0352 7C17.2443 7 19.0352 8.79086 19.0352 11C19.0352 13.2091 17.2443 15 15.0352 15C12.826 15 11.0352 13.2091 11.0352 11Z" fill="black"/>
<path d="M21.5352 7C21.5352 6.72386 21.759 6.5 22.0352 6.5C24.0377 6.5 25.5352 8.36595 25.5352 10.5C25.5352 11.7632 25.0105 12.9324 24.167 13.6763C27.5214 14.4133 30.0352 17.3742 30.0352 20.9231V23C30.0352 23.2761 29.8113 23.5 29.5352 23.5C29.259 23.5 29.0352 23.2761 29.0352 23V20.9231C29.0352 17.3809 26.1302 14.5 22.5352 14.5C22.4861 14.5 22.4387 14.4929 22.3938 14.4798C22.2763 14.4931 22.1567 14.5 22.0352 14.5C21.759 14.5 21.5352 14.2761 21.5352 14C21.5352 13.7239 21.759 13.5 22.0352 13.5C23.3463 13.5 24.5352 12.2319 24.5352 10.5C24.5352 8.76806 23.3463 7.5 22.0352 7.5C21.759 7.5 21.5352 7.27614 21.5352 7Z" fill="black"/>
</g>
</svg>
