<svg width="16" height="16" viewBox="0 0 16 16" fill="none" xmlns="http://www.w3.org/2000/svg">
<path fill-rule="evenodd" clip-rule="evenodd" d="M10.7519 7.1683C11.3457 7.56412 11.3457 8.43658 10.7519 8.8324L7.5547 10.9639C6.89014 11.4069 6 10.9305 6 10.1318V5.86887C6 5.07017 6.89015 4.59378 7.5547 5.03682L10.7519 7.1683ZM10.1972 8.00035L7 10.1318L7 5.86887L10.1972 8.00035Z" fill="black"/>
<path fill-rule="evenodd" clip-rule="evenodd" d="M15 8C15 11.866 11.866 15 8 15C4.13401 15 1 11.866 1 8C1 4.13401 4.13401 1 8 1C11.866 1 15 4.13401 15 8ZM14 8C14 11.3137 11.3137 14 8 14C4.68629 14 2 11.3137 2 8C2 4.68629 4.68629 2 8 2C11.3137 2 14 4.68629 14 8Z" fill="black"/>
</svg>
