<svg width="24" height="24" viewBox="0 0 24 24" fill="none" xmlns="http://www.w3.org/2000/svg">
<path fill-rule="evenodd" clip-rule="evenodd" d="M16.5708 11.1425C17.2182 11.5309 17.2182 12.4691 16.5708 12.8575L9.5145 17.0913C8.84797 17.4912 8 17.0111 8 16.2338V7.76619C8 6.9889 8.84797 6.50879 9.5145 6.9087L16.5708 11.1425ZM16.0563 12L9 16.2338L9 7.76619L16.0563 12Z" fill="black"/>
<path fill-rule="evenodd" clip-rule="evenodd" d="M22 12C22 17.5228 17.5228 22 12 22C6.47715 22 2 17.5228 2 12C2 6.47715 6.47715 2 12 2C17.5228 2 22 6.47715 22 12ZM21 12C21 16.9706 16.9706 21 12 21C7.02944 21 3 16.9706 3 12C3 7.02944 7.02944 3 12 3C16.9706 3 21 7.02944 21 12Z" fill="black"/>
</svg>
