<svg width="32" height="32" viewBox="0 0 32 32" fill="none" xmlns="http://www.w3.org/2000/svg">
<path fill-rule="evenodd" clip-rule="evenodd" d="M22.5192 15.1359C23.1807 15.5218 23.1807 16.4776 22.5192 16.8635L13.5039 22.1225C12.8372 22.5114 12 22.0305 12 21.2587V10.7408C12 9.96897 12.8372 9.4881 13.5039 9.87699L22.5192 15.1359ZM22.0154 15.9997L13 21.2587L13 10.7408L22.0154 15.9997Z" fill="black"/>
<path fill-rule="evenodd" clip-rule="evenodd" d="M28 16C28 22.6274 22.6274 28 16 28C9.37258 28 4 22.6274 4 16C4 9.37258 9.37258 4 16 4C22.6274 4 28 9.37258 28 16ZM27 16C27 22.0751 22.0751 27 16 27C9.92487 27 5 22.0751 5 16C5 9.92487 9.92487 5 16 5C22.0751 5 27 9.92487 27 16Z" fill="black"/>
</svg>
