<svg width="32" height="32" viewBox="0 0 32 32" fill="none" xmlns="http://www.w3.org/2000/svg">
<path opacity="0.9" fill-rule="evenodd" clip-rule="evenodd" d="M25 24H10.8571L5.51866 27.2385C4.85223 27.6428 4 27.163 4 26.3835V10C4 8.34314 5.34315 7 7 7H25C26.6569 7 28 8.34315 28 10V21C28 22.6569 26.6569 24 25 24ZM25 23H10.5775L5 26.3835L5 10C5 9.62066 5.10561 9.26599 5.28902 8.96379L15.7094 16.4069C15.8832 16.5311 16.1168 16.5311 16.2906 16.4069L26.711 8.9638C26.8944 9.266 27 9.62067 27 10V21C27 22.1046 26.1046 23 25 23ZM25.9807 8.25653L16 15.3856L6.01933 8.25653C6.30909 8.09319 6.64366 8 7 8H25C25.3563 8 25.6909 8.09319 25.9807 8.25653Z" fill="black"/>
</svg>
