<svg width="32" height="32" viewBox="0 0 32 32" fill="none" xmlns="http://www.w3.org/2000/svg">
<path opacity="0.9" fill-rule="evenodd" clip-rule="evenodd" d="M23.4305 23.8282C25.6295 21.7335 27 18.7768 27 15.5C27 9.14873 21.8513 4 15.5 4C9.14873 4 4 9.14873 4 15.5C4 21.8513 9.14873 27 15.5 27C18.2202 27 20.7199 26.0555 22.6889 24.4766C22.7093 24.5102 22.734 24.542 22.7631 24.571L28.8385 30.6464C29.0337 30.8417 29.3503 30.8417 29.5456 30.6464C29.7408 30.4511 29.7408 30.1346 29.5456 29.9393L23.4702 23.8639C23.4575 23.8512 23.4442 23.8393 23.4305 23.8282ZM16 7.5C15.7239 7.5 15.5 7.72386 15.5 8C15.5 8.27614 15.7239 8.5 16 8.5C17.5623 8.5 19.1857 9.40005 20.4362 10.8293C21.6827 12.2538 22.5 14.1405 22.5 16C22.5 16.2761 22.7239 16.5 23 16.5C23.2761 16.5 23.5 16.2761 23.5 16C23.5 13.8595 22.5673 11.7462 21.1888 10.1707C19.8143 8.59995 17.9377 7.5 16 7.5Z" fill="black"/>
</svg>
