<svg width="32" height="32" viewBox="0 0 32 32" fill="none" xmlns="http://www.w3.org/2000/svg">
<g opacity="0.9">
<path d="M11 9.06592C11 8.78977 11.2239 8.56592 11.5 8.56592L19.5 8.56592C19.7761 8.56592 20 8.78977 20 9.06592C20 9.34206 19.7761 9.56592 19.5 9.56592L11.5 9.56592C11.2239 9.56592 11 9.34206 11 9.06592Z" fill="black"/>
<path d="M11 12.0659C11 11.7898 11.2239 11.5659 11.5 11.5659L19.5 11.5659C19.7761 11.5659 20 11.7898 20 12.0659C20 12.3421 19.7761 12.5659 19.5 12.5659L11.5 12.5659C11.2239 12.5659 11 12.3421 11 12.0659Z" fill="black"/>
<path d="M11 15.0659C11 14.7898 11.2239 14.5659 11.5 14.5659L19.5 14.5659C19.7761 14.5659 20 14.7898 20 15.0659C20 15.3421 19.7761 15.5659 19.5 15.5659L11.5 15.5659C11.2239 15.5659 11 15.3421 11 15.0659Z" fill="black"/>
<path d="M11 18.0659C11 17.7898 11.2239 17.5659 11.5 17.5659L19.5 17.5659C19.7761 17.5659 20 17.7898 20 18.0659C20 18.3421 19.7761 18.5659 19.5 18.5659L11.5 18.5659C11.2239 18.5659 11 18.3421 11 18.0659Z" fill="black"/>
<path fill-rule="evenodd" clip-rule="evenodd" d="M11 4.56591C9.34315 4.56591 8 5.90906 8 7.56592L8 20.5659L7 20.5659C5.34315 20.5659 4 21.9091 4 23.5659C4 25.2228 5.34315 26.5659 7 26.5659L20 26.5659C21.6569 26.5659 23 25.2228 23 23.5659L23 10.5659L25 10.5659C26.6569 10.5659 28 9.22277 28 7.56592C28 5.90906 26.6569 4.56592 25 4.56592L11 4.56591ZM22.7639 5.56592L11 5.56591C9.89543 5.56591 9 6.46135 9 7.56592L9 20.5659L20 20.5659C20.2761 20.5659 20.5 20.7898 20.5 21.0659C20.5 21.3421 20.2761 21.5659 20 21.5659C18.8954 21.5659 18 22.4613 18 23.5659C18 24.6705 18.8954 25.5659 20 25.5659C21.1046 25.5659 22 24.6705 22 23.5659L22 7.56592C22 6.79756 22.2889 6.09667 22.7639 5.56592ZM23 7.56592C23 6.46135 23.8954 5.56592 25 5.56592C26.1046 5.56592 27 6.46135 27 7.56592C27 8.67049 26.1046 9.56592 25 9.56592L23 9.56592L23 7.56592ZM17 23.5659C17 24.3343 17.2889 25.0352 17.7639 25.5659L7 25.5659C5.89543 25.5659 5 24.6705 5 23.5659C5 22.4613 5.89543 21.5659 7 21.5659L17.7639 21.5659C17.2889 22.0967 17 22.7976 17 23.5659Z" fill="black"/>
</g>
</svg>
