<svg width="24" height="24" viewBox="0 0 24 24" fill="none" xmlns="http://www.w3.org/2000/svg">
<g opacity="0.9">
<path d="M8.49999 6.5658C8.22385 6.5658 7.99999 6.78966 7.99999 7.0658C7.99999 7.34194 8.22385 7.5658 8.49999 7.5658L14.5 7.5658C14.7761 7.5658 15 7.34195 15 7.0658C15 6.78966 14.7761 6.5658 14.5 6.5658L8.49999 6.5658Z" fill="black"/>
<path d="M8.49999 9.5658C8.22385 9.5658 7.99999 9.78966 7.99999 10.0658C7.99999 10.3419 8.22385 10.5658 8.49999 10.5658L14.5 10.5658C14.7761 10.5658 15 10.3419 15 10.0658C15 9.78966 14.7761 9.5658 14.5 9.5658L8.49999 9.5658Z" fill="black"/>
<path d="M8.49999 12.5658C8.22385 12.5658 7.99999 12.7897 7.99999 13.0658C7.99999 13.3419 8.22385 13.5658 8.49999 13.5658L14.5 13.5658C14.7761 13.5658 15 13.3419 15 13.0658C15 12.7897 14.7761 12.5658 14.5 12.5658L8.49999 12.5658Z" fill="black"/>
<path fill-rule="evenodd" clip-rule="evenodd" d="M7.46152 2.56592L19.4615 2.5658C20.821 2.5658 21.9231 3.66787 21.9231 5.02734C21.9231 6.38681 20.821 7.48888 19.4615 7.48888L18 7.48888L18 18.1044C18 19.4638 16.8979 20.5659 15.5385 20.5659L4.46153 20.5659C3.10206 20.5659 1.99999 19.4638 1.99999 18.1044C1.99999 16.7449 3.10206 15.6428 4.46153 15.6428L4.99999 15.6428L4.99999 5.02745C4.99999 3.66798 6.10206 2.56592 7.46152 2.56592ZM7.46153 3.56592L17.4806 3.56582C17.1786 3.97455 17 4.48009 17 5.02734L17 18.1044C17 18.9116 16.3456 19.5659 15.5385 19.5659C14.7313 19.5659 14.0769 18.9116 14.0769 18.1044C14.0769 17.2972 14.7313 16.6428 15.5385 16.6428C15.8146 16.6428 16.0385 16.419 16.0385 16.1428C16.0385 15.8667 15.8146 15.6428 15.5385 15.6428L5.99999 15.6428L5.99999 5.02745C5.99999 4.22027 6.65434 3.56592 7.46153 3.56592ZM19.4615 6.48888L18 6.48888L18 5.02734C18 4.22016 18.6543 3.5658 19.4615 3.5658C20.2687 3.5658 20.9231 4.22016 20.9231 5.02734C20.9231 5.83453 20.2687 6.48888 19.4615 6.48888ZM13.0769 18.1044C13.0769 18.6516 13.2555 19.1572 13.5576 19.5659L4.46153 19.5659C3.65434 19.5659 2.99999 18.9116 2.99999 18.1044C2.99999 17.2972 3.65434 16.6428 4.46153 16.6428L13.5576 16.6428C13.2555 17.0516 13.0769 17.5571 13.0769 18.1044Z" fill="black"/>
</g>
</svg>
