<svg width="24" height="24" viewBox="0 0 24 24" fill="none" xmlns="http://www.w3.org/2000/svg">
<g opacity="0.9">
<path fill-rule="evenodd" clip-rule="evenodd" d="M7.46154 2.56592L19.4615 2.5658C20.821 2.5658 21.9231 3.66787 21.9231 5.02734C21.9231 6.38681 20.821 7.48888 19.4615 7.48888L19 7.48888L19 5.0658C19 4.78966 18.7761 4.5658 18.5 4.5658C18.2239 4.5658 18 4.78966 18 5.0658L18 18.1044C18 19.4638 16.8979 20.5659 15.5385 20.5659L15.5 20.5659C14.3954 20.5659 13.5 19.6704 13.5 18.5658C13.5 17.4612 14.3954 16.5658 15.5 16.5658C15.7761 16.5658 16 16.3419 16 16.0658C16 15.7897 15.7761 15.5658 15.5 15.5658L5 15.5658L5.00001 5.02745C5.00001 3.66798 6.10207 2.56592 7.46154 2.56592ZM8.50001 6.5658C8.22386 6.5658 8.00001 6.78966 8 7.0658C8 7.34194 8.22386 7.5658 8.5 7.5658L14.5 7.5658C14.7761 7.5658 15 7.34195 15 7.0658C15 6.78966 14.7761 6.5658 14.5 6.5658L8.50001 6.5658ZM8.5 9.5658C8.22386 9.5658 8 9.78966 8 10.0658C8 10.3419 8.22386 10.5658 8.5 10.5658L14.5 10.5658C14.7761 10.5658 15 10.3419 15 10.0658C15 9.78966 14.7761 9.5658 14.5 9.5658L8.5 9.5658ZM8.5 12.5658C8.22386 12.5658 8.00001 12.7897 8.00001 13.0658C8.00001 13.3419 8.22386 13.5658 8.50001 13.5658L14.5 13.5658C14.7761 13.5658 15 13.3419 15 13.0658C15 12.7897 14.7761 12.5658 14.5 12.5658L8.5 12.5658Z" fill="black"/>
<path d="M12.5 18.5658C12.5 19.3342 12.7889 20.0351 13.264 20.5659L4.5 20.5659C3.39543 20.5659 2.5 19.6704 2.5 18.5658C2.5 17.4612 3.39543 16.5658 4.5 16.5658L13.2639 16.5658C12.7889 17.0966 12.5 17.7974 12.5 18.5658Z" fill="black"/>
</g>
</svg>
