<svg width="24" height="24" viewBox="0 0 24 24" fill="none" xmlns="http://www.w3.org/2000/svg">
<g opacity="0.9">
<path fill-rule="evenodd" clip-rule="evenodd" d="M22 12C22 6.47715 17.5228 2 12 2C6.47715 2 2 6.47715 2 12C2 17.5228 6.47715 22 12 22C17.5228 22 22 17.5228 22 12ZM16.8737 12.1678C17.0572 12.3742 17.0386 12.6902 16.8322 12.8737L12.3322 16.8737C12.1427 17.0421 11.8573 17.0421 11.6678 16.8737L7.16782 12.8737C6.96143 12.6902 6.94284 12.3742 7.1263 12.1678C7.30975 11.9614 7.62579 11.9428 7.83218 12.1263L12 15.831L16.1678 12.1263C16.3742 11.9428 16.6902 11.9614 16.8737 12.1678ZM16.8322 8.8737C17.0386 8.69025 17.0572 8.37421 16.8737 8.16782C16.6902 7.96143 16.3742 7.94284 16.1678 8.1263L12 11.831L7.83218 8.1263C7.62579 7.94284 7.30975 7.96143 7.1263 8.16782C6.94284 8.37421 6.96143 8.69025 7.16782 8.87371L11.6678 12.8737C11.8573 13.0421 12.1427 13.0421 12.3322 12.8737L16.8322 8.8737Z" fill="black"/>
</g>
</svg>
