<svg width="16" height="16" viewBox="0 0 16 16" fill="none" xmlns="http://www.w3.org/2000/svg">
<path opacity="0.9" fill-rule="evenodd" clip-rule="evenodd" d="M15 8C15 4.13401 11.866 1 8 1C4.13401 1 1 4.13401 1 8C1 11.866 4.13401 15 8 15C11.866 15 15 11.866 15 8ZM11.3841 8.17991C11.5609 8.39205 11.5322 8.70733 11.3201 8.88411L8.32009 11.3841C8.13467 11.5386 7.86533 11.5386 7.67991 11.3841L4.67991 8.88411C4.46777 8.70733 4.43911 8.39205 4.61589 8.17991C4.79267 7.96777 5.10795 7.93911 5.32009 8.11589L8 10.3491L10.6799 8.11589C10.892 7.93911 11.2073 7.96777 11.3841 8.17991ZM11.3201 5.88411C11.5322 5.70733 11.5609 5.39205 11.3841 5.17991C11.2073 4.96777 10.892 4.93911 10.6799 5.11589L8 7.34915L5.32009 5.11589C5.10795 4.93911 4.79267 4.96777 4.61589 5.17991C4.43911 5.39205 4.46777 5.70733 4.67991 5.88411L7.67991 8.38411C7.86533 8.53863 8.13467 8.53863 8.32009 8.38411L11.3201 5.88411Z" fill="black"/>
</svg>
