<svg width="24" height="24" viewBox="0 0 24 24" fill="none" xmlns="http://www.w3.org/2000/svg">
<g opacity="0.9">
<path d="M16.8737 8.16782C17.0572 8.37421 17.0386 8.69025 16.8322 8.87371L12.3322 12.8737C12.1427 13.0421 11.8573 13.0421 11.6678 12.8737L7.16781 8.87371C6.96142 8.69025 6.94283 8.37421 7.12629 8.16782C7.30975 7.96143 7.62578 7.94284 7.83218 8.1263L12 11.831L16.1678 8.1263C16.3742 7.94284 16.6902 7.96143 16.8737 8.16782Z" fill="black"/>
<path d="M16.8737 12.1678C17.0572 12.3742 17.0386 12.6903 16.8322 12.8737L12.3322 16.8737C12.1427 17.0421 11.8573 17.0421 11.6678 16.8737L7.16781 12.8737C6.96142 12.6903 6.94283 12.3742 7.12629 12.1678C7.30975 11.9614 7.62578 11.9428 7.83218 12.1263L12 15.831L16.1678 12.1263C16.3742 11.9428 16.6902 11.9614 16.8737 12.1678Z" fill="black"/>
<path fill-rule="evenodd" clip-rule="evenodd" d="M22 12C22 6.47715 17.5228 2 12 2C6.47715 2 2 6.47715 2 12C2 17.5228 6.47715 22 12 22C17.5228 22 22 17.5228 22 12ZM12 3C16.9706 3 21 7.02944 21 12C21 16.9706 16.9706 21 12 21C7.02944 21 3 16.9706 3 12C3 7.02944 7.02944 3 12 3Z" fill="black"/>
</g>
</svg>
