<svg width="24" height="24" viewBox="0 0 24 24" fill="none" xmlns="http://www.w3.org/2000/svg">
<g opacity="0.9">
<path d="M7.27814 7C6.90285 7 6.5412 7.14068 6.26456 7.39427L2.44637 10.8943C1.79782 11.4888 1.79782 12.5112 2.44637 13.1057L6.26456 16.6057C6.5412 16.8593 6.90285 17 7.27814 17H19.5002C20.1557 17 20.7142 16.5792 20.9179 15.9916C21.0084 15.7307 21.2932 15.5925 21.5541 15.6829C21.815 15.7734 21.9532 16.0582 21.8628 16.3191C21.5238 17.2969 20.5948 18 19.5002 18H7.27814C6.65266 18 6.04991 17.7655 5.58883 17.3429L1.77065 13.8429C0.689732 12.852 0.689731 11.148 1.77065 10.1571L5.58883 6.65711C6.04991 6.23446 6.65266 6 7.27814 6H19.5002C20.8809 6 22.0002 7.11929 22.0002 8.5V10.5257C22.0002 10.8018 21.7763 11.0257 21.5002 11.0257C21.224 11.0257 21.0002 10.8018 21.0002 10.5257V8.5C21.0002 7.67157 20.3286 7 19.5002 7H7.27814Z" fill="black"/>
<path d="M19.6622 9.15517C19.8527 9.35514 19.845 9.67163 19.645 9.86207L17.7502 11.6667H17.9002C18.9088 11.6667 20.4141 11.9509 21.6829 12.821C22.9783 13.7092 24.0002 15.1932 24.0002 17.5C24.0002 17.7761 23.7763 18 23.5002 18C23.224 18 23.0002 17.7761 23.0002 17.5C23.0002 15.5401 22.1554 14.3574 21.1174 13.6457C20.0529 12.9158 18.7583 12.6667 17.9002 12.6667H17.7502L19.645 14.4713C19.845 14.6617 19.8527 14.9782 19.6622 15.1782C19.4718 15.3781 19.1553 15.3858 18.9553 15.1954L15.7752 12.1667L18.9553 9.13793C19.1553 8.94749 19.4718 8.95521 19.6622 9.15517Z" fill="black"/>
<path d="M6.00018 12C6.00018 12.5523 5.55247 13 5.00018 13C4.4479 13 4.00018 12.5523 4.00018 12C4.00018 11.4477 4.4479 11 5.00018 11C5.55247 11 6.00018 11.4477 6.00018 12Z" fill="black"/>
</g>
</svg>
