<svg width="16" height="16" viewBox="0 0 16 16" fill="none" xmlns="http://www.w3.org/2000/svg">
<g opacity="0.9">
<path d="M5.32812 4C4.7414 4 4.17211 4.2106 3.73604 4.59601L1.75598 6.34601C0.748008 7.23686 0.748008 8.76314 1.75598 9.65399L3.73604 11.404C4.17211 11.7894 4.7414 12 5.32812 12H10.8787L8.37868 9.5L11.4393 6.43934C12.0251 5.85355 12.9749 5.85355 13.5607 6.43934C14.1045 6.98317 14.1434 7.84068 13.6775 8.42944C14.082 8.59041 14.4896 8.80414 14.8765 9.0827C14.918 9.11262 14.9592 9.1432 15 9.17445V6.25C15 4.98202 13.9227 4 12.6519 4H5.32812Z" fill="black"/>
<path d="M12.8536 11.8536C12.756 11.9511 12.6282 11.9999 12.5003 12C12.5006 12 12.5001 12 12.5003 12C12.3725 11.9999 12.244 11.9511 12.1464 11.8536L9.79289 9.5L12.1464 7.14645C12.1709 7.12204 12.1972 7.10068 12.2249 7.08238C12.419 6.95424 12.6827 6.97559 12.8536 7.14645C12.878 7.17085 12.8993 7.19716 12.9176 7.22488C13.0458 7.41896 13.0244 7.6827 12.8536 7.85355L11.702 9.00511C11.7282 9.00641 11.7548 9.00796 11.7817 9.00978C12.0276 9.0264 12.3 9.06501 12.5847 9.13182C12.6897 9.15644 12.7963 9.18489 12.9038 9.21748C13.3674 9.35791 13.8491 9.57522 14.2922 9.89423C14.3053 9.9037 14.3184 9.91324 14.3315 9.92288C14.5274 10.0674 14.7139 10.2312 14.8865 10.4156C15.5446 11.119 16 12.1224 16 13.5C16 13.7761 15.7761 14 15.5 14C15.2239 14 15 13.7761 15 13.5C15 12.5277 14.731 11.8242 14.3388 11.3138C14.1833 11.1114 14.0085 10.9393 13.8233 10.7929C13.7852 10.7628 13.7467 10.7338 13.7078 10.7058C13.6263 10.647 13.5427 10.5926 13.4577 10.5423C12.8702 10.1941 12.2175 10.0413 11.7146 10.0075L12.8536 11.1464C12.8636 11.1565 12.8731 11.1668 12.8821 11.1774C12.945 11.2518 12.9827 11.3402 12.9953 11.4314C13.0133 11.5624 12.9794 11.6992 12.8935 11.8085C12.8813 11.8241 12.8679 11.8392 12.8536 11.8536Z" fill="black"/>
</g>
</svg>
