<svg width="32" height="32" viewBox="0 0 32 32" fill="none" xmlns="http://www.w3.org/2000/svg">
<path opacity="0.9" fill-rule="evenodd" clip-rule="evenodd" d="M18 4C18 4.93192 17.3626 5.71497 16.5 5.93699V8H25C26.6569 8 28 9.34315 28 11V14H29C29.5523 14 30 14.4477 30 15V18C30 18.5523 29.5523 19 29 19H28V22C28 23.6569 26.6569 25 25 25H7C5.34315 25 4 23.6569 4 22V19H3C2.44772 19 2 18.5523 2 18V15C2 14.4477 2.44772 14 3 14H4V11C4 9.34315 5.34315 8 7 8H15.5V5.93699C14.6374 5.71497 14 4.93192 14 4C14 2.89543 14.8954 2 16 2C17.1046 2 18 2.89543 18 4ZM20 15C20 16.1947 19.4762 17.2671 18.6458 18H18.8333C21.1345 18 23 19.8655 23 22.1667C23 22.6269 22.6269 23 22.1667 23H9.83333C9.3731 23 9 22.6269 9 22.1667C9 19.8655 10.8655 18 13.1667 18H13.3542C12.5238 17.2671 12 16.1947 12 15C12 12.7909 13.7909 11 16 11C18.2091 11 20 12.7909 20 15Z" fill="black"/>
</svg>
