<svg width="24" height="24" viewBox="0 0 24 24" fill="none" xmlns="http://www.w3.org/2000/svg">
<path opacity="0.9" fill-rule="evenodd" clip-rule="evenodd" d="M12.5 1.5C12.5 1.77614 12.2761 2 12 2C11.7239 2 11.5 1.77614 11.5 1.5C11.5 1.22386 11.7239 1 12 1C12.2761 1 12.5 1.22386 12.5 1.5ZM13.5 1.5C13.5 2.15311 13.0826 2.70873 12.5 2.91465V5H19C20.6569 5 22 6.34315 22 8V10C22.5523 10 23 10.4477 23 11V13C23 13.5523 22.5523 14 22 14V16C22 17.6569 20.6569 19 19 19H16.5H7.5H5C3.34315 19 2 17.6569 2 16V14C1.44772 14 1 13.5523 1 13V11C1 10.4477 1.44772 10 2 10V8C2 6.34315 3.34315 5 5 5H11.5V2.91465C10.9174 2.70873 10.5 2.15311 10.5 1.5C10.5 0.671573 11.1716 0 12 0C12.8284 0 13.5 0.671573 13.5 1.5ZM8 18H16V17.5C16 16.1193 14.8807 15 13.5 15H12H10.5C9.11929 15 8 16.1193 8 17.5V18ZM9.82402 14.0652C8.2145 14.3802 7 15.7983 7 17.5V18H5C3.89543 18 3 17.1046 3 16V14V10V8C3 6.89543 3.89543 6 5 6H11.5H12.5H19C20.1046 6 21 6.89543 21 8V10V14V16C21 17.1046 20.1046 18 19 18H17V17.5C17 15.7983 15.7855 14.3802 14.176 14.0652C14.6867 13.5273 15 12.8003 15 12C15 10.3431 13.6569 9 12 9C10.3431 9 9 10.3431 9 12C9 12.8003 9.31334 13.5273 9.82402 14.0652ZM12 14C13.1046 14 14 13.1046 14 12C14 10.8954 13.1046 10 12 10C10.8954 10 10 10.8954 10 12C10 13.1046 10.8954 14 12 14Z" fill="black"/>
</svg>
