<svg width="24" height="24" viewBox="0 0 24 24" fill="none" xmlns="http://www.w3.org/2000/svg">
<path opacity="0.9" fill-rule="evenodd" clip-rule="evenodd" d="M2 8C2 6.34315 3.34315 5 5 5H19C20.6569 5 22 6.34315 22 8V16C22 17.6569 20.6569 19 19 19H5C3.34315 19 2 17.6569 2 16V8ZM5 6H19C19.4513 6 19.8676 6.14946 20.2023 6.40158L12.0076 11.4095L4.03257 6.24913C4.31926 6.09038 4.64908 6 5 6ZM3.29107 6.96043C3.10639 7.26336 3 7.61926 3 8V16C3 17.1046 3.89543 18 5 18H19C20.1046 18 21 17.1046 21 16V8C21 7.71181 20.939 7.43787 20.8293 7.19034L12.2607 12.4267C12.0967 12.5269 11.8898 12.5243 11.7284 12.4199L3.29107 6.96043Z" fill="black"/>
</svg>
