<svg width="16" height="16" viewBox="0 0 16 16" fill="none" xmlns="http://www.w3.org/2000/svg">
<path opacity="0.9" fill-rule="evenodd" clip-rule="evenodd" d="M1 5C1 3.89543 1.89543 3 3 3H13C14.1046 3 15 3.89543 15 5V11C15 12.1046 14.1046 13 13 13H3C1.89543 13 1 12.1046 1 11V5ZM3 4H13C13.0026 4 13.0052 4.00001 13.0078 4.00003L7.99999 6.92123L2.99222 4.00003C2.99481 4.00001 2.9974 4 3 4ZM2.07389 4.62204C2.02626 4.73865 2 4.86626 2 5V11C2 11.5523 2.44772 12 3 12H13C13.5523 12 14 11.5523 14 11V5C14 4.86625 13.9737 4.73864 13.9261 4.62203L8.25193 7.93197C8.09624 8.02279 7.90374 8.02279 7.74805 7.93197L2.07389 4.62204Z" fill="black"/>
</svg>
