<svg width="16" height="16" viewBox="0 0 16 16" fill="none" xmlns="http://www.w3.org/2000/svg">
<path opacity="0.9" fill-rule="evenodd" clip-rule="evenodd" d="M1 5C1 3.89543 1.89543 3 3 3H13C14.1046 3 15 3.89543 15 5V11C15 12.1046 14.1046 13 13 13H3C1.89543 13 1 12.1046 1 11V5ZM2.99237 4.00003C2.57713 4.00313 2.22211 4.25932 2.07392 4.62197L7.74806 7.93189C7.90375 8.0227 8.09625 8.0227 8.25194 7.93189L13.9261 4.62197C13.7779 4.25932 13.4229 4.00313 13.0076 4.00003L8 6.92115L2.99237 4.00003Z" fill="black"/>
</svg>
