<svg width="16" height="16" viewBox="0 0 16 16" fill="none" xmlns="http://www.w3.org/2000/svg">
<g opacity="0.9">
<path d="M5.5 3.56592C5.22386 3.56592 5 3.78977 5 4.06592C5 4.34206 5.22386 4.56592 5.5 4.56592L9.5 4.56592C9.77614 4.56592 10 4.34206 10 4.06592C10 3.78978 9.77614 3.56592 9.5 3.56592L5.5 3.56592Z" fill="black"/>
<path d="M5.5 5.56592C5.22386 5.56592 5 5.78977 5 6.06592C5 6.34206 5.22386 6.56592 5.5 6.56592L9.5 6.56592C9.77614 6.56592 10 6.34206 10 6.06592C10 5.78978 9.77614 5.56592 9.5 5.56592L5.5 5.56592Z" fill="black"/>
<path d="M5.5 7.56592C5.22386 7.56592 5 7.78977 5 8.06592C5 8.34206 5.22386 8.56592 5.5 8.56592L9.5 8.56592C9.77614 8.56592 10 8.34206 10 8.06592C10 7.78977 9.77614 7.56592 9.5 7.56592L5.5 7.56592Z" fill="black"/>
<path fill-rule="evenodd" clip-rule="evenodd" d="M5 0.565917C3.89543 0.565917 3 1.46135 3 2.56592L3 10.5659C1.89543 10.5659 1 11.4613 1 12.5659C1 13.6705 1.89543 14.5659 3 14.5659L10 14.5659C11.1046 14.5659 12 13.6705 12 12.5659L12 4.56592L13 4.56592C14.1046 4.56592 15 3.67049 15 2.56592C15 1.46135 14.1046 0.565917 13 0.565917L5 0.565917ZM10 10.5659L4 10.5659L4 2.56592C4 2.01363 4.44772 1.56592 5 1.56592L11.2676 1.56592C11.0974 1.86009 11 2.20163 11 2.56592L11 12.5659C11 13.1182 10.5523 13.5659 10 13.5659C9.44772 13.5659 9 13.1182 9 12.5659C9 12.0136 9.44772 11.5659 10 11.5659C10.2761 11.5659 10.5 11.3421 10.5 11.0659C10.5 10.7898 10.2761 10.5659 10 10.5659ZM12 2.56592C12 2.01363 12.4477 1.56592 13 1.56592C13.5523 1.56592 14 2.01363 14 2.56592C14 3.1182 13.5523 3.56592 13 3.56592L12 3.56592L12 2.56592ZM8 12.5659C8 12.9302 8.0974 13.2717 8.26757 13.5659L3 13.5659C2.44772 13.5659 2 13.1182 2 12.5659C2 12.0136 2.44772 11.5659 3 11.5659L8.26757 11.5659C8.09739 11.8601 8 12.2016 8 12.5659Z" fill="black"/>
</g>
</svg>
