<svg width="16" height="16" viewBox="0 0 16 16" fill="none" xmlns="http://www.w3.org/2000/svg">
<path opacity="0.9" fill-rule="evenodd" clip-rule="evenodd" d="M1 5C1 3.89543 1.89543 3 3 3H13C14.1046 3 15 3.89543 15 5V11C15 12.1046 14.1046 13 13 13H5.31946C5.11166 13 4.90902 13.0647 4.73971 13.1852L1.78988 15.2841C1.45885 15.5197 1 15.283 1 14.8767V5ZM2.90769 4.0042L7.72265 7.21417C7.8906 7.32614 8.1094 7.32614 8.27735 7.21417L13.0923 4.0042C13.479 4.03959 13.802 4.2951 13.9349 4.64433L8.83205 8.04623C8.3282 8.38212 7.6718 8.38212 7.16795 8.04623L2.0651 4.64433C2.19804 4.2951 2.52103 4.03959 2.90769 4.0042Z" fill="black"/>
</svg>
