<svg width="24" height="24" viewBox="0 0 24 24" fill="none" xmlns="http://www.w3.org/2000/svg">
<path opacity="0.9" fill-rule="evenodd" clip-rule="evenodd" d="M2 8C2 6.34315 3.34315 5 5 5H19C20.6569 5 22 6.34315 22 8V16.0592C22 17.716 20.6569 19.0592 19 19.0592H8.02567C7.82288 19.0592 7.62489 19.1208 7.45795 19.236L3.56773 21.9188C2.90435 22.3763 2 21.9014 2 21.0956V8ZM4.03263 6.2491C3.72796 6.41778 3.47199 6.66368 3.2911 6.96037L11.7284 12.4198C11.8937 12.5267 12.1063 12.5267 12.2716 12.4198L20.7089 6.96037C20.528 6.66368 20.272 6.41778 19.9674 6.2491L12 11.4045L4.03263 6.2491Z" fill="black"/>
</svg>
