<svg width="24" height="24" viewBox="0 0 24 24" fill="none" xmlns="http://www.w3.org/2000/svg">
<g opacity="0.9">
<path d="M14.6383 5.01192C14.829 5.21167 15.1455 5.21903 15.3452 5.02836C15.545 4.83769 15.5523 4.5212 15.3617 4.32145L11.5 0.275879L7.63832 4.32145C7.44765 4.52119 7.45501 4.83769 7.65476 5.02836C7.85451 5.21903 8.17101 5.21167 8.36168 5.01192L11 2.24797V14.5C11 14.7762 11.2239 15 11.5 15C11.7761 15 12 14.7762 12 14.5V2.24797L14.6383 5.01192Z" fill="black"/>
<path d="M3 9.5C3 8.17013 4.22356 7 5.85294 7H6.41176C6.68791 7 6.91176 6.77614 6.91176 6.5C6.91176 6.22386 6.68791 6 6.41176 6H5.85294C3.77877 6 2 7.51616 2 9.5V16.5C2 18.4838 3.77877 20 5.85294 20H17.1471C19.2212 20 21 18.4838 21 16.5V9.5C21 7.51616 19.2212 6 17.1471 6C16.8709 6 16.6471 6.22386 16.6471 6.5C16.6471 6.77614 16.8709 7 17.1471 7C18.7764 7 20 8.17013 20 9.5V16.5C20 17.8299 18.7764 19 17.1471 19H5.85294C4.22356 19 3 17.8299 3 16.5V9.5Z" fill="black"/>
</g>
</svg>
