<svg width="24" height="24" viewBox="0 0 24 24" fill="none" xmlns="http://www.w3.org/2000/svg">
<g clip-path="url(#clip0)">
<path opacity="0.9" fill-rule="evenodd" clip-rule="evenodd" d="M14.6464 4.35351C14.8417 4.54877 15.1583 4.54877 15.3536 4.35351C15.5488 4.15824 15.5488 3.84166 15.3536 3.6464L11.5 -0.207153L7.64645 3.6464C7.45118 3.84166 7.45118 4.15824 7.64645 4.35351C7.84171 4.54877 8.15829 4.54877 8.35355 4.35351L11 1.70706V14.5C11 14.7761 11.2239 15 11.5 15C11.7761 15 12 14.7761 12 14.5V1.70706L14.6464 4.35351ZM5.5 6.00003H9.5V14.5C9.5 15.6046 10.3954 16.5 11.5 16.5C12.6046 16.5 13.5 15.6046 13.5 14.5V6.00003H17.5C19.433 6.00003 21 7.56703 21 9.50003V16.5C21 18.433 19.433 20 17.5 20H5.5C3.567 20 2 18.433 2 16.5V9.50003C2 7.56703 3.567 6.00003 5.5 6.00003Z" fill="black"/>
</g>
<defs>
<clipPath id="clip0">
<rect width="24" height="24" fill="white"/>
</clipPath>
</defs>
</svg>
