<svg width="24" height="24" viewBox="0 0 24 24" fill="none" xmlns="http://www.w3.org/2000/svg">
<g opacity="0.9">
<path fill-rule="evenodd" clip-rule="evenodd" d="M3.14645 2.89645C3.34171 2.70118 3.65829 2.70118 3.85355 2.89645L20.8536 19.8964C21.0488 20.0917 21.0488 20.4083 20.8536 20.6036C20.6583 20.7988 20.3417 20.7988 20.1464 20.6036L3.14645 3.60355C2.95118 3.40829 2.95118 3.09171 3.14645 2.89645Z" fill="black"/>
<path d="M7 8.87132V13C7 15.7614 9.23858 18 12 18C13.1587 18 14.2253 17.6059 15.0731 16.9444L14.3592 16.2305C13.6978 16.7144 12.8823 17 12 17C9.79086 17 8 15.2091 8 13V9.87132L7 8.87132Z" fill="black"/>
<path d="M8.18031 5.80899L7.40253 5.03121C8.16688 3.24865 9.93762 2 12 2C14.7614 2 17 4.23858 17 7V13C17 13.4945 16.9282 13.9721 16.7945 14.4232L15.9574 13.5861C15.9855 13.3948 16 13.1991 16 13V7C16 4.79086 14.2091 3 12 3C10.2056 3 8.68723 4.18151 8.18031 5.80899Z" fill="black"/>
<path d="M15.7847 17.656C14.7522 18.4963 13.4349 19 12 19C8.68629 19 6 16.3137 6 13V10C6 9.72386 5.77614 9.5 5.5 9.5C5.22386 9.5 5 9.72386 5 10V13C5 16.6979 7.86736 19.726 11.5 19.9824V22.5C11.5 22.7761 11.7239 23 12 23C12.2761 23 12.5 22.7761 12.5 22.5V19.9824C14.0158 19.8754 15.3984 19.2858 16.495 18.3663L15.7847 17.656Z" fill="black"/>
<path d="M18.3408 15.9695L17.5803 15.209C17.8511 14.5253 18 13.78 18 13V10C18 9.72386 18.2239 9.5 18.5 9.5C18.7761 9.5 19 9.72386 19 10V13C19 14.0616 18.7637 15.068 18.3408 15.9695Z" fill="black"/>
</g>
</svg>
