<svg width="350" height="350" viewBox="0 0 350 350" fill="none" xmlns="http://www.w3.org/2000/svg">
<mask id="mask0" mask-type="alpha" maskUnits="userSpaceOnUse" x="0" y="0" width="350" height="350">
<path d="M0 127.96C0 22.5849 22.5849 0 127.96 0H222.04C327.415 0 350 22.5849 350 127.96V222.04C350 327.415 327.415 350 222.04 350H127.96C22.5849 350 0 327.415 0 222.04V127.96Z" fill="#C4C4C4"/>
</mask>
<g mask="url(#mask0)">
<rect width="350" height="350" fill="#5970AB"/>
<rect opacity="0.2" width="350" height="23" fill="#0C50FF"/>
<rect opacity="0.2" y="45" width="350" height="150" fill="#D65800"/>
<path opacity="0.4" d="M0 76H350V195H0V76Z" fill="#D65800"/>
<rect opacity="0.2" y="151" width="350" height="35" fill="#FA6700"/>
<circle opacity="0.5" cx="177" cy="156" r="122" fill="url(#paint0_radial)"/>
<circle opacity="0.8" cx="177" cy="156" r="61" fill="url(#paint1_radial)"/>
<circle cx="177" cy="156" r="41" fill="#F4D676"/>
<rect y="195" width="355" height="87" fill="#040E29"/>
<rect y="225" width="355" height="125" fill="#13244A"/>
<rect opacity="0.8" y="225" width="355" height="4" fill="#F5E3A8"/>
<path d="M40.793 298V295.522L43.0161 295.055V280.356L40.793 279.875V277.383H49.8413C51.6821 277.383 53.3058 277.817 54.7124 278.686C56.119 279.545 57.214 280.739 57.9976 282.268C58.7905 283.788 59.187 285.534 59.187 287.507V287.89C59.187 289.844 58.7952 291.585 58.0117 293.115C57.2376 294.635 56.152 295.829 54.7549 296.697C53.3577 297.566 51.7388 298 49.8979 298H40.793ZM47.1509 294.842H49.6855C50.8278 294.842 51.7954 294.545 52.5884 293.95C53.3908 293.346 53.9997 292.52 54.415 291.472C54.8304 290.424 55.0381 289.23 55.0381 287.89V287.493C55.0381 286.134 54.8304 284.935 54.415 283.896C53.9997 282.849 53.3908 282.032 52.5884 281.447C51.7954 280.852 50.8278 280.555 49.6855 280.555H47.1509V294.842ZM63.3054 298V295.522L65.5002 295.097V280.3L63.3054 279.875V277.383H79.3063V282.948H76.1345L75.9504 280.569H69.6349V285.751H76.6159V288.938H69.6349V294.828H76.2902L76.4743 292.364H79.6179V298H63.3054ZM92.558 298.297C91.0381 298.297 89.6551 298.127 88.409 297.788C87.1629 297.448 85.9357 296.858 84.7274 296.018V291.033H87.9276L88.3666 293.964C88.7819 294.323 89.3625 294.616 90.1083 294.842C90.8635 295.059 91.68 295.168 92.558 295.168C93.6813 295.168 94.5404 294.941 95.1351 294.488C95.7298 294.026 96.0272 293.403 96.0272 292.619C96.0272 291.883 95.744 291.264 95.1776 290.764C94.6206 290.254 93.6389 289.782 92.2323 289.348C89.7873 288.64 87.9654 287.8 86.7665 286.828C85.5676 285.855 84.9681 284.524 84.9681 282.834C84.9681 281.721 85.2749 280.739 85.8885 279.889C86.5116 279.03 87.3706 278.355 88.4657 277.864C89.5607 277.373 90.8257 277.118 92.2606 277.1C93.8465 277.081 95.2484 277.27 96.4662 277.666C97.6934 278.062 98.7507 278.615 99.638 279.323V283.967H96.537L95.9989 281.135C95.6402 280.909 95.154 280.71 94.5404 280.541C93.9362 280.371 93.2471 280.286 92.473 280.286C91.4818 280.286 90.6699 280.507 90.0375 280.951C89.405 281.395 89.0887 282.018 89.0887 282.82C89.0887 283.509 89.3814 284.085 89.9667 284.548C90.5614 285.001 91.6517 285.482 93.2377 285.992C95.5127 286.625 97.2355 287.46 98.4061 288.499C99.5861 289.537 100.176 290.901 100.176 292.591C100.176 293.771 99.8599 294.786 99.2274 295.635C98.5949 296.485 97.7028 297.141 96.5511 297.604C95.4089 298.066 94.0778 298.297 92.558 298.297ZM104.139 298V295.522L106.334 295.097V280.3L104.139 279.875V277.383H112.663V279.875L110.468 280.3V295.097L112.663 295.522V298H104.139ZM126.155 298.297C124.107 298.297 122.361 297.873 120.916 297.023C119.472 296.173 118.363 294.993 117.589 293.483C116.824 291.972 116.442 290.221 116.442 288.229V287.521C116.442 285.464 116.824 283.651 117.589 282.084C118.353 280.517 119.434 279.294 120.831 278.417C122.238 277.529 123.899 277.085 125.816 277.085C127.288 277.085 128.676 277.288 129.979 277.694C131.291 278.1 132.428 278.709 133.391 279.521V284.095H130.333L129.752 281.333C129.375 281.013 128.874 280.758 128.251 280.569C127.638 280.371 126.93 280.271 126.127 280.271C124.966 280.271 123.97 280.574 123.139 281.178C122.309 281.782 121.671 282.627 121.228 283.712C120.784 284.798 120.562 286.058 120.562 287.493V288.229C120.562 290.325 121.053 292.001 122.035 293.256C123.017 294.502 124.433 295.125 126.283 295.125C127.01 295.125 127.675 295.055 128.28 294.913C128.893 294.771 129.398 294.606 129.795 294.417V290.92L126.849 290.693V287.791H133.944V296.131C133.028 296.782 131.923 297.306 130.63 297.703C129.337 298.099 127.845 298.297 126.155 298.297ZM138.345 298V295.522L140.54 295.097V280.3L138.345 279.875V277.383H144.731L153.709 291.685L153.794 291.67V280.3L151.16 279.875V277.383H159.699V279.875L157.49 280.3V298H153.496L144.321 283.84L144.236 283.854V295.097L146.884 295.522V298H138.345ZM181.218 298.297C179.698 298.297 178.315 298.127 177.069 297.788C175.823 297.448 174.595 296.858 173.387 296.018V291.033H176.587L177.026 293.964C177.442 294.323 178.022 294.616 178.768 294.842C179.523 295.059 180.34 295.168 181.218 295.168C182.341 295.168 183.2 294.941 183.795 294.488C184.389 294.026 184.687 293.403 184.687 292.619C184.687 291.883 184.404 291.264 183.837 290.764C183.28 290.254 182.298 289.782 180.892 289.348C178.447 288.64 176.625 287.8 175.426 286.828C174.227 285.855 173.628 284.524 173.628 282.834C173.628 281.721 173.935 280.739 174.548 279.889C175.171 279.03 176.03 278.355 177.125 277.864C178.22 277.373 179.485 277.118 180.92 277.1C182.506 277.081 183.908 277.27 185.126 277.666C186.353 278.062 187.41 278.615 188.298 279.323V283.967H185.197L184.658 281.135C184.3 280.909 183.814 280.71 183.2 280.541C182.596 280.371 181.907 280.286 181.133 280.286C180.141 280.286 179.33 280.507 178.697 280.951C178.065 281.395 177.748 282.018 177.748 282.82C177.748 283.509 178.041 284.085 178.626 284.548C179.221 285.001 180.311 285.482 181.897 285.992C184.172 286.625 185.895 287.46 187.066 288.499C188.246 289.537 188.836 290.901 188.836 292.591C188.836 293.771 188.519 294.786 187.887 295.635C187.254 296.485 186.362 297.141 185.211 297.604C184.068 298.066 182.737 298.297 181.218 298.297ZM198.406 298V295.522L200.615 295.097V290.934L194.497 280.158L192.515 279.875V277.383H200.742V279.875L199.057 280.116L202.484 286.7L202.795 287.366L202.88 287.352L203.192 286.729L207.001 280.116L204.735 279.875V277.383H212.807V279.875L210.768 280.158L204.735 290.608V295.097L206.944 295.522V298H198.406ZM224.656 298.297C223.137 298.297 221.754 298.127 220.507 297.788C219.261 297.448 218.034 296.858 216.826 296.018V291.033H220.026L220.465 293.964C220.88 294.323 221.461 294.616 222.207 294.842C222.962 295.059 223.778 295.168 224.656 295.168C225.78 295.168 226.639 294.941 227.234 294.488C227.828 294.026 228.126 293.403 228.126 292.619C228.126 291.883 227.842 291.264 227.276 290.764C226.719 290.254 225.737 289.782 224.331 289.348C221.886 288.64 220.064 287.8 218.865 286.828C217.666 285.855 217.067 284.524 217.067 282.834C217.067 281.721 217.373 280.739 217.987 279.889C218.61 279.03 219.469 278.355 220.564 277.864C221.659 277.373 222.924 277.118 224.359 277.1C225.945 277.081 227.347 277.27 228.565 277.666C229.792 278.062 230.849 278.615 231.736 279.323V283.967H228.635L228.097 281.135C227.739 280.909 227.252 280.71 226.639 280.541C226.035 280.371 225.345 280.286 224.571 280.286C223.58 280.286 222.768 280.507 222.136 280.951C221.503 281.395 221.187 282.018 221.187 282.82C221.187 283.509 221.48 284.085 222.065 284.548C222.66 285.001 223.75 285.482 225.336 285.992C227.611 286.625 229.334 287.46 230.505 288.499C231.685 289.537 232.275 290.901 232.275 292.591C232.275 293.771 231.958 294.786 231.326 295.635C230.693 296.485 229.801 297.141 228.65 297.604C227.507 298.066 226.176 298.297 224.656 298.297ZM240.981 298V295.522L243.19 295.097V280.569H239.437L239.211 283.033H236.081V277.383H254.475V283.033H251.332L251.105 280.569H247.325V295.097L249.548 295.522V298H240.981ZM258.24 298V295.522L260.435 295.097V280.3L258.24 279.875V277.383H274.241V282.948H271.069L270.885 280.569H264.569V285.751H271.55V288.938H264.569V294.828H271.225L271.409 292.364H274.552V298H258.24ZM279.081 298V295.522L281.276 295.097V280.3L279.081 279.875V277.383H287.393L293.015 291.755H293.1L298.537 277.383H306.863V279.875L304.654 280.3V295.097L306.863 295.522V298H298.325V295.522L300.633 295.097V291.146L300.704 281.843L300.619 281.829L294.459 297.717H291.33L285.028 281.957L284.944 281.971L285.184 290.722V295.097L287.62 295.522V298H279.081Z" fill="#FA6700"/>
<path d="M45.0136 271V267.832L47.8192 267.289V248.375L45.0136 247.832V244.646H56.2902V247.832L53.1045 248.375V266.946H60.5437L60.7971 263.09H64.8335V271H45.0136ZM69.3289 271V267.832L72.1345 267.289V248.375L69.3289 247.832V244.646H80.2254V247.832L77.4198 248.375V267.289L80.2254 267.832V271H69.3289ZM95.2733 271L86.8023 248.121L84.4493 247.832V244.646H94.9294V247.832L92.5582 248.194L97.7349 263.742L98.1331 265.19H98.2418L98.6219 263.778L103.799 248.194L101.029 247.832V244.646H111.021V247.832L108.631 248.121L100.685 271H95.2733ZM115.245 271V267.832L118.05 267.289V248.375L115.245 247.832V244.646H135.698V251.759H131.643L131.408 248.718H123.335V255.343H132.259V259.416H123.335V266.946H131.843L132.078 263.796H136.096V271H115.245ZM141.515 271V267.832L144.32 267.289V248.375L141.515 247.832V244.646H154.058C156.073 244.646 157.811 245.002 159.271 245.714C160.731 246.414 161.853 247.397 162.638 248.664C163.422 249.919 163.814 251.385 163.814 253.063C163.814 254.74 163.422 256.212 162.638 257.479C161.853 258.734 160.731 259.711 159.271 260.411C157.811 261.099 156.073 261.443 154.058 261.443H149.606V267.289L152.429 267.832V271H141.515ZM149.606 257.37H154.058C155.53 257.37 156.641 256.972 157.389 256.176C158.149 255.367 158.529 254.342 158.529 253.099C158.529 251.832 158.149 250.788 157.389 249.967C156.641 249.135 155.53 248.718 154.058 248.718H149.606V257.37ZM168.111 271V267.832L170.916 267.289V248.375L168.111 247.832V244.646H188.564V251.759H184.51L184.274 248.718H176.202V255.343H185.125V259.416H176.202V266.946H184.709L184.944 263.796H188.962V271H168.111ZM194.381 271V267.832L197.186 267.289V248.375L194.381 247.832V244.646H206.87C209.899 244.646 212.276 245.346 214.002 246.745C215.727 248.133 216.59 250.052 216.59 252.501C216.59 254.058 216.192 255.452 215.395 256.683C214.611 257.913 213.531 258.873 212.155 259.561L215.504 267.308L217.748 267.832V271H211.341L207.286 260.592H202.472V267.289L205.295 267.832V271H194.381ZM202.472 256.52H206.78C209.808 256.52 211.323 255.259 211.323 252.737C211.323 251.518 210.949 250.547 210.201 249.823C209.452 249.086 208.342 248.718 206.87 248.718H202.472V256.52ZM233.213 271.38C231.27 271.38 229.502 271.163 227.909 270.728C226.316 270.294 224.748 269.54 223.203 268.466V262.095H227.294L227.855 265.841C228.386 266.3 229.128 266.674 230.081 266.964C231.047 267.241 232.09 267.38 233.213 267.38C234.649 267.38 235.747 267.09 236.507 266.511C237.267 265.92 237.647 265.123 237.647 264.122C237.647 263.181 237.285 262.39 236.561 261.751C235.849 261.099 234.594 260.496 232.796 259.941C229.671 259.036 227.342 257.962 225.81 256.719C224.277 255.476 223.511 253.774 223.511 251.615C223.511 250.191 223.903 248.936 224.687 247.85C225.484 246.752 226.582 245.889 227.982 245.261C229.381 244.634 230.998 244.308 232.833 244.284C234.86 244.26 236.652 244.501 238.208 245.008C239.777 245.515 241.129 246.221 242.263 247.126V253.063H238.299L237.611 249.442C237.152 249.153 236.531 248.899 235.747 248.682C234.974 248.465 234.094 248.356 233.104 248.356C231.837 248.356 230.799 248.64 229.991 249.207C229.182 249.774 228.778 250.571 228.778 251.596C228.778 252.477 229.152 253.213 229.9 253.805C230.66 254.384 232.054 254.999 234.081 255.651C236.99 256.459 239.192 257.527 240.688 258.855C242.196 260.182 242.951 261.926 242.951 264.086C242.951 265.594 242.546 266.891 241.738 267.977C240.929 269.063 239.789 269.902 238.317 270.493C236.857 271.084 235.155 271.38 233.213 271.38ZM259.718 271.38C257.341 271.38 255.259 270.807 253.473 269.661C251.688 268.502 250.294 266.915 249.292 264.9C248.303 262.885 247.808 260.592 247.808 258.022V257.624C247.808 255.066 248.303 252.779 249.292 250.764C250.294 248.749 251.682 247.162 253.455 246.003C255.241 244.845 257.323 244.266 259.7 244.266C262.077 244.266 264.165 244.845 265.963 246.003C267.773 247.162 269.179 248.749 270.18 250.764C271.194 252.779 271.701 255.066 271.701 257.624V258.022C271.701 260.592 271.2 262.885 270.198 264.9C269.197 266.915 267.791 268.502 265.981 269.661C264.183 270.807 262.095 271.38 259.718 271.38ZM259.718 267.271C261.95 267.271 263.628 266.427 264.75 264.737C265.872 263.036 266.433 260.797 266.433 258.022V257.588C266.433 255.766 266.18 254.167 265.673 252.791C265.166 251.403 264.412 250.323 263.411 249.551C262.421 248.779 261.184 248.393 259.7 248.393C257.48 248.393 255.82 249.237 254.722 250.927C253.636 252.616 253.093 254.836 253.093 257.588V258.022C253.093 260.797 253.642 263.036 254.74 264.737C255.851 266.427 257.51 267.271 259.718 267.271ZM276.413 271V267.832L279.219 267.289V248.375L276.413 247.832V244.646H284.576L296.052 262.927L296.161 262.909V248.375L292.794 247.832V244.646H303.709V247.832L300.885 248.375V271H295.781L284.051 252.9L283.943 252.918V267.289L287.328 267.832V271H276.413Z" fill="white"/>
</g>
<defs>
<radialGradient id="paint0_radial" cx="0" cy="0" r="1" gradientUnits="userSpaceOnUse" gradientTransform="translate(177 156) rotate(90) scale(122)">
<stop stop-color="#F4C276"/>
<stop offset="1" stop-color="#F4D676" stop-opacity="0"/>
</radialGradient>
<radialGradient id="paint1_radial" cx="0" cy="0" r="1" gradientUnits="userSpaceOnUse" gradientTransform="translate(177 156) rotate(90) scale(61)">
<stop stop-color="#F4D776"/>
<stop offset="1" stop-color="#F4D676" stop-opacity="0"/>
</radialGradient>
</defs>
</svg>
