<svg width="32" height="32" viewBox="0 0 32 32" fill="none" xmlns="http://www.w3.org/2000/svg">
<path opacity="0.9" fill-rule="evenodd" clip-rule="evenodd" d="M12 5V4.5C12 3.67157 12.6716 3 13.5 3H18.5C19.3284 3 20 3.67157 20 4.5V5H25.5C26.8807 5 28 6.11929 28 7.5V9.5C28 9.77614 27.7761 10 27.5 10H26V25.5C26 26.8807 24.8807 28 23.5 28H8.5C7.11929 28 6 26.8807 6 25.5V10H4.5C4.22386 10 4 9.77614 4 9.5V7.5C4 6.11929 5.11929 5 6.5 5H12ZM13 4.5C13 4.22386 13.2239 4 13.5 4H18.5C18.7761 4 19 4.22386 19 4.5V5H13V4.5ZM6.5 6C5.67157 6 5 6.67157 5 7.5V9H27V7.5C27 6.67157 26.3284 6 25.5 6H6.5ZM25 25.5V10H21V22.5C21 23.3284 20.3284 24 19.5 24C18.6716 24 18 23.3284 18 22.5L18 10H14V22.5C14 23.3284 13.3284 24 12.5 24C11.6716 24 11 23.3284 11 22.5L11 10H7V25.5C7 26.3284 7.67157 27 8.5 27H23.5C24.3284 27 25 26.3284 25 25.5ZM19 10H20V22.5C20 22.7761 19.7761 23 19.5 23C19.2239 23 19 22.7761 19 22.5L19 10ZM12 10H13V22.5C13 22.7761 12.7761 23 12.5 23C12.2239 23 12 22.7761 12 22.5L12 10Z" fill="black"/>
</svg>
