<svg width="32" height="32" viewBox="0 0 32 32" fill="none" xmlns="http://www.w3.org/2000/svg">
<path opacity="0.9" fill-rule="evenodd" clip-rule="evenodd" d="M17.4497 7.55025C14.7161 4.81658 10.2839 4.81658 7.55025 7.55025C4.81658 10.2839 4.81658 14.7161 7.55025 17.4497C9.91984 19.8193 13.5656 20.1349 16.2751 18.3965L19.9246 22.0461C20.1199 22.2413 20.1199 22.5579 19.9246 22.7532C19.3389 23.3389 19.3389 24.2887 19.9246 24.8745L20.2782 25.228C20.6687 25.6186 21.3019 25.6186 21.6924 25.228L22.3995 25.9351C22.009 26.3257 22.009 26.9588 22.3995 27.3494L22.7531 27.7029C23.3389 28.2887 24.2886 28.2887 24.8744 27.7029L25.2279 27.3494C25.6185 27.7399 26.2516 27.7399 26.6422 27.3494L26.9957 26.9958C27.5815 26.41 27.5815 25.4603 26.9957 24.8745L18.3965 16.2752C20.1349 13.5657 19.8194 9.91987 17.4497 7.55025ZM10.0251 10.0253C10.6109 9.43949 11.5607 9.43949 12.1464 10.0253C12.7322 10.6111 12.7322 11.5608 12.1464 12.1466C11.5607 12.7324 10.6109 12.7324 10.0251 12.1466C9.43934 11.5608 9.43934 10.6111 10.0251 10.0253Z" fill="black"/>
</svg>
