<svg width="16" height="16" viewBox="0 0 16 16" fill="none" xmlns="http://www.w3.org/2000/svg">
<path opacity="0.9" d="M6.18558 13.4081L5.99867 13.3574L5.82639 13.4459L3.91958 14.4248V12.5452V12.3074L3.73507 12.1573C2.35958 11.0386 1.5 9.39656 1.5 7.57391C1.5 4.2485 4.3801 1.5 8 1.5C11.6199 1.5 14.5 4.2485 14.5 7.57391C14.5 10.8993 11.6199 13.6478 8 13.6478C7.36944 13.6478 6.76074 13.564 6.18558 13.4081ZM3.43998 9.053L4.03939 9.83893L6.90852 8.27425L8.39837 9.75464L8.76619 10.1201L9.11805 9.73926L12.5673 6.00593L11.9585 5.22882L9.18238 6.76028L7.75343 5.31508L7.39329 4.95085L7.03785 5.31966L3.43998 9.053Z" fill="black" stroke="black"/>
</svg>
