<svg width="32" height="32" viewBox="0 0 32 32" fill="none" xmlns="http://www.w3.org/2000/svg">
<g opacity="0.9">
<path d="M8.79999 18.3999L14.9678 11.9999L17.8733 14.9384L23.2 11.9999L17.2871 18.3999L14.2796 15.4116L8.79999 18.3999Z" fill="black"/>
<path fill-rule="evenodd" clip-rule="evenodd" d="M8.14776 28.4174L12.6653 26.0983C13.724 26.3853 14.8429 26.5391 16 26.5391C22.6274 26.5391 28 21.4936 28 15.2696C28 9.04556 22.6274 4 16 4C9.37258 4 4 9.04556 4 15.2696C4 18.6737 5.60716 21.7253 8.14776 23.7917V28.4174ZM9.14776 23.3161L8.77875 23.0159C6.45126 21.1229 5 18.3475 5 15.2696C5 9.65607 9.86478 5 16 5C22.1352 5 27 9.65607 27 15.2696C27 20.8831 22.1352 25.5391 16 25.5391C14.9317 25.5391 13.9008 25.3972 12.927 25.1331L12.5531 25.0318L9.14776 26.78V23.3161Z" fill="black"/>
</g>
</svg>
