<svg width="24" height="24" viewBox="0 0 24 24" fill="none" xmlns="http://www.w3.org/2000/svg">
<g opacity="0.9">
<path d="M11.1398 8.66661L5.99998 13.9999L10.5664 11.5097L13.0725 13.9999L18 8.66661L13.561 11.1154L11.1398 8.66661Z" fill="black"/>
<path fill-rule="evenodd" clip-rule="evenodd" d="M6.45651 18.0175V20.7104L9.10895 19.3487L9.48277 19.4501C10.2802 19.6663 11.1246 19.7826 12 19.7826C17.0307 19.7826 21 15.9675 21 11.3913C21 6.81515 17.0307 3 12 3C6.96935 3 3 6.81515 3 11.3913C3 13.9019 4.18342 16.1687 6.08749 17.7173L6.45651 18.0175ZM5.45651 22.3479V18.4931C3.33931 16.7711 2 14.2281 2 11.3913C2 6.20463 6.47715 2 12 2C17.5228 2 22 6.20463 22 11.3913C22 16.578 17.5228 20.7826 12 20.7826C11.0357 20.7826 10.1033 20.6544 9.2211 20.4152L5.45651 22.3479Z" fill="black"/>
</g>
</svg>
