<svg width="32" height="32" viewBox="0 0 32 32" fill="none" xmlns="http://www.w3.org/2000/svg">
<path opacity="0.9" fill-rule="evenodd" clip-rule="evenodd" d="M4 16C4 9.37258 9.37258 4 16 4C22.6274 4 28 9.37258 28 16C28 22.6274 22.6274 28 16 28C9.37258 28 4 22.6274 4 16ZM17.2628 9.32428C17.636 8.91716 18.2686 8.88965 18.6757 9.26285C19.0828 9.63604 19.1103 10.2686 18.7372 10.6757L13.8566 16L18.7372 21.3243C19.1103 21.7314 19.0828 22.364 18.6757 22.7372C18.2686 23.1103 17.636 23.0828 17.2628 22.6757L11.7628 16.6757C11.4124 16.2934 11.4124 15.7066 11.7628 15.3243L17.2628 9.32428Z" fill="black"/>
</svg>
