<svg width="32" height="32" viewBox="0 0 32 32" fill="none" xmlns="http://www.w3.org/2000/svg">
<path opacity="0.9" fill-rule="evenodd" clip-rule="evenodd" d="M4.5 11.5C4.5 9.84315 5.84315 8.5 7.5 8.5H24.5C26.1569 8.5 27.5 9.84315 27.5 11.5V16.5C27.5 18.1569 26.1569 19.5 24.5 19.5H19.3839L21.8655 22.1589C22.0091 22.3127 22.041 22.54 21.9453 22.7274C21.8496 22.9148 21.6468 23.0223 21.438 22.9962L18.2493 22.5976L19.9699 27.3291C20.0643 27.5887 19.9304 27.8755 19.6709 27.9699C19.4114 28.0643 19.1245 27.9304 19.0301 27.6709L17.2733 22.8398L14.8201 24.8841C14.6711 25.0083 14.4636 25.0351 14.2879 24.9528C14.1122 24.8705 14 24.694 14 24.5V19.5H7.5C5.84315 19.5 4.5 18.1569 4.5 16.5V11.5ZM15 23.4325V16.2685L20.1933 21.8328L17.562 21.5039C17.4246 21.4867 17.2863 21.5273 17.1799 21.6159L15 23.4325Z" fill="black"/>
</svg>
