<svg width="16" height="16" viewBox="0 0 16 16" fill="none" xmlns="http://www.w3.org/2000/svg">
<g opacity="0.9">
<path fill-rule="evenodd" clip-rule="evenodd" d="M2.5 2C1.11929 2 0 3.11929 0 4.5V11.5C0 12.8807 1.11929 14 2.5 14H13.5C14.8807 14 16 12.8807 16 11.5V4.5C16 3.11929 14.8807 2 13.5 2H2.5ZM9 4C8.44772 4 8 4.44772 8 5V8C8 8.55228 8.44772 9 9 9H13C13.5523 9 14 8.55228 14 8V5C14 4.44772 13.5523 4 13 4H9Z" fill="black"/>
<path d="M5.5 15C5.22386 15 5 15.2239 5 15.5C5 15.7761 5.22386 16 5.5 16H10.5C10.7761 16 11 15.7761 11 15.5C11 15.2239 10.7761 15 10.5 15H5.5Z" fill="black"/>
</g>
</svg>
