<svg width="32" height="32" viewBox="0 0 32 32" fill="none" xmlns="http://www.w3.org/2000/svg">
<g opacity="0.9">
<path d="M11.5 5C10.1193 5 9.00001 6.11929 9.00001 7.5V11.7888C9.00001 12.0649 9.22387 12.2888 9.50001 12.2888C9.77616 12.2888 10 12.0649 10 11.7888V7.5C10 6.67157 10.6716 6 11.5 6H22.5C23.3284 6 24 6.67157 24 7.5V24.5C24 25.3284 23.3284 26 22.5 26H11.5C10.6716 26 10 25.3284 10 24.5V19.0882C10 18.8121 9.77616 18.5882 9.50001 18.5882C9.22387 18.5882 9.00001 18.8121 9.00001 19.0882V24.5C9.00001 25.8807 10.1193 27 11.5 27H22.5C23.8807 27 25 25.8807 25 24.5V7.5C25 6.11929 23.8807 5 22.5 5H11.5Z" fill="black"/>
<path d="M12.1464 12.3536C11.9512 12.1583 11.9512 11.8417 12.1464 11.6464C12.3417 11.4512 12.6583 11.4512 12.8536 11.6464L16.7071 15.5L12.8536 19.3536C12.6583 19.5488 12.3417 19.5488 12.1464 19.3536C11.9512 19.1583 11.9512 18.8417 12.1464 18.6464L14.7929 16H4.5C4.22386 16 4 15.7761 4 15.5C4 15.2239 4.22386 15 4.5 15H14.7929L12.1464 12.3536Z" fill="black"/>
</g>
</svg>
