<svg width="24" height="24" viewBox="0 0 24 24" fill="none" xmlns="http://www.w3.org/2000/svg">
<g opacity="0.9">
<path d="M7.50001 3C6.67159 3 6.00001 3.67157 6.00001 4.5V8.59091C6.00001 8.86705 6.22387 9.09091 6.50001 9.09091C6.77616 9.09091 7.00001 8.86705 7.00001 8.59091V4.5C7.00001 4.22386 7.22387 4 7.50001 4H17.5C17.7762 4 18 4.22386 18 4.5V19.5C18 19.7761 17.7762 20 17.5 20H7.50001C7.22387 20 7.00001 19.7761 7.00001 19.5V14.5C7.00001 14.2239 6.77616 14 6.50001 14C6.22387 14 6.00001 14.2239 6.00001 14.5V19.5C6.00001 20.3284 6.67159 21 7.50001 21H17.5C18.3284 21 19 20.3284 19 19.5V4.5C19 3.67157 18.3284 3 17.5 3H7.50001Z" fill="black"/>
<path d="M10.1464 9.35355C9.95118 9.15829 9.95118 8.84171 10.1464 8.64645C10.3417 8.45118 10.6583 8.45118 10.8536 8.64645L13.7071 11.5L10.8536 14.3536C10.6583 14.5488 10.3417 14.5488 10.1464 14.3536C9.95118 14.1583 9.95118 13.8417 10.1464 13.6464L11.7929 12H3.5C3.22386 12 3 11.7761 3 11.5C3 11.2239 3.22386 11 3.5 11H11.7929L10.1464 9.35355Z" fill="black"/>
</g>
</svg>
