<svg width="32" height="32" viewBox="0 0 32 32" fill="none" xmlns="http://www.w3.org/2000/svg">
<g opacity="0.9">
<path d="M11.5 5C10.1193 5 9 6.11929 9 7.5V14H11.1716L11.0858 13.9142C10.3047 13.1332 10.3047 11.8668 11.0858 11.0858C11.8668 10.3047 13.1332 10.3047 13.9142 11.0858L18.8284 16L13.9142 20.9142C13.1332 21.6953 11.8668 21.6953 11.0858 20.9142C10.3047 20.1332 10.3047 18.8668 11.0858 18.0858L11.1716 18H9V24.5C9 25.8807 10.1193 27 11.5 27H22.5C23.8807 27 25 25.8807 25 24.5V7.5C25 6.11929 23.8807 5 22.5 5H11.5Z" fill="black"/>
<path d="M11.7929 13.2071C11.4024 12.8166 11.4024 12.1834 11.7929 11.7929C12.1834 11.4024 12.8166 11.4024 13.2071 11.7929L17.4142 16L13.2071 20.2071C12.8166 20.5976 12.1834 20.5976 11.7929 20.2071C11.4024 19.8166 11.4024 19.1834 11.7929 18.7929L13.5858 17H4.5C3.94771 17 3.5 16.5523 3.5 16C3.5 15.4477 3.94771 15 4.5 15H13.5858L11.7929 13.2071Z" fill="black"/>
</g>
</svg>
