<svg width="31" height="32" viewBox="0 0 31 32" fill="none" xmlns="http://www.w3.org/2000/svg">
<g opacity="0.9">
<path d="M18 4C18 4.93192 17.3626 5.71497 16.5 5.93699V8H25C26.6569 8 28 9.34315 28 11V14H29C29.5523 14 30 14.4477 30 15V18C30 18.5523 29.5523 19 29 19H28V22C28 23.6569 26.6569 25 25 25H16.5V20H17C18.6569 20 20 18.6569 20 17V14.5C20 14.2239 19.7761 14 19.5 14H19V12.5C19 12.2239 18.7761 12 18.5 12C18.2239 12 18 12.2239 18 12.5V14H14V12.5C14 12.2239 13.7761 12 13.5 12C13.2239 12 13 12.2239 13 12.5V14H12.5C12.2239 14 12 14.2239 12 14.5V17C12 18.6569 13.3431 20 15 20H15.5V25H7C5.34315 25 4 23.6569 4 22V19H3C2.44772 19 2 18.5523 2 18V15C2 14.4477 2.44772 14 3 14H4V11C4 9.34315 5.34315 8 7 8H15.5V5.93699C14.6374 5.71497 14 4.93192 14 4C14 2.89543 14.8954 2 16 2C17.1046 2 18 2.89543 18 4Z" fill="black"/>
<path d="M16 18C16.5523 18 17 17.5523 17 17C17 16.4477 16.5523 16 16 16C15.4477 16 15 16.4477 15 17C15 17.5523 15.4477 18 16 18Z" fill="black"/>
</g>
</svg>
