<svg width="23" height="24" viewBox="0 0 23 24" fill="none" xmlns="http://www.w3.org/2000/svg">
<g opacity="0.9">
<path d="M12 14C12.5523 14 13 13.5523 13 13C13 12.4477 12.5523 12 12 12C11.4477 12 11 12.4477 11 13C11 13.5523 11.4477 14 12 14Z" fill="black"/>
<path fill-rule="evenodd" clip-rule="evenodd" d="M12.5 2.91465C13.0826 2.70873 13.5 2.15311 13.5 1.5C13.5 0.671573 12.8284 0 12 0C11.1716 0 10.5 0.671573 10.5 1.5C10.5 2.15311 10.9174 2.70873 11.5 2.91465V5H5C3.34315 5 2 6.34315 2 8V10C1.44772 10 1 10.4477 1 11V13C1 13.5523 1.44772 14 2 14V16C2 17.6569 3.34315 19 5 19H19C20.6569 19 22 17.6569 22 16V14C22.5523 14 23 13.5523 23 13V11C23 10.4477 22.5523 10 22 10V8C22 6.34315 20.6569 5 19 5H12.5V2.91465ZM12 2C12.2761 2 12.5 1.77614 12.5 1.5C12.5 1.22386 12.2761 1 12 1C11.7239 1 11.5 1.22386 11.5 1.5C11.5 1.77614 11.7239 2 12 2ZM21 8C21 6.89543 20.1046 6 19 6H5C3.89543 6 3 6.89543 3 8V16C3 17.1046 3.89543 18 5 18H11.5V16H11C9.34315 16 8 14.6569 8 13V10.5C8 10.2239 8.22386 10 8.5 10H9V8.5C9 8.22386 9.22386 8 9.5 8C9.77614 8 10 8.22386 10 8.5V10H14V8.5C14 8.22386 14.2239 8 14.5 8C14.7761 8 15 8.22386 15 8.5V10H15.5C15.7761 10 16 10.2239 16 10.5V13C16 14.6569 14.6569 16 13 16H12.5V18H19C20.1046 18 21 17.1046 21 16V8ZM9 11H15V13C15 14.1046 14.1046 15 13 15H11C9.89543 15 9 14.1046 9 13V11Z" fill="black"/>
</g>
</svg>
