<svg width="31" height="32" viewBox="0 0 31 32" fill="none" xmlns="http://www.w3.org/2000/svg">
<g opacity="0.9">
<path d="M16 18C16.5523 18 17 17.5523 17 17C17 16.4477 16.5523 16 16 16C15.4477 16 15 16.4477 15 17C15 17.5523 15.4477 18 16 18Z" fill="black"/>
<path fill-rule="evenodd" clip-rule="evenodd" d="M16.5 5.93699C17.3626 5.71497 18 4.93192 18 4C18 2.89543 17.1046 2 16 2C14.8954 2 14 2.89543 14 4C14 4.93192 14.6374 5.71497 15.5 5.93699V8H7C5.34315 8 4 9.34315 4 11V14H3C2.44772 14 2 14.4477 2 15V18C2 18.5523 2.44772 19 3 19H4V22C4 23.6569 5.34315 25 7 25H25C26.6569 25 28 23.6569 28 22V19H29C29.5523 19 30 18.5523 30 18V15C30 14.4477 29.5523 14 29 14H28V11C28 9.34315 26.6569 8 25 8H16.5V5.93699ZM16 5C16.5523 5 17 4.55228 17 4C17 3.44772 16.5523 3 16 3C15.4477 3 15 3.44772 15 4C15 4.55228 15.4477 5 16 5ZM29 18H28V15H29V18ZM27 22C27 23.1046 26.1046 24 25 24H16.5V20H17C18.6569 20 20 18.6569 20 17V14.5C20 14.2239 19.7761 14 19.5 14H19V12.5C19 12.2239 18.7761 12 18.5 12C18.2239 12 18 12.2239 18 12.5V14H14V12.5C14 12.2239 13.7761 12 13.5 12C13.2239 12 13 12.2239 13 12.5V14H12.5C12.2239 14 12 14.2239 12 14.5V17C12 18.6569 13.3431 20 15 20H15.5V24H7C5.89543 24 5 23.1046 5 22V11C5 9.89543 5.89543 9 7 9H25C26.1046 9 27 9.89543 27 11V22ZM19 15H13V17C13 18.1046 13.8954 19 15 19H17C18.1046 19 19 18.1046 19 17V15ZM3 15H4V18H3V15Z" fill="black"/>
</g>
</svg>
