<svg width="23" height="24" viewBox="0 0 23 24" fill="none" xmlns="http://www.w3.org/2000/svg">
<path opacity="0.9" d="M12.3334 2.44323L12 2.56106L11.6666 2.44323C11.2776 2.30571 11 1.93462 11 1.5C11 0.947715 11.4477 0.5 12 0.5C12.5523 0.5 13 0.947715 13 1.5C13 1.93462 12.7224 2.30571 12.3334 2.44323ZM11.5 5.5H12H12.5H19C20.3807 5.5 21.5 6.61929 21.5 8V10V10.5H22C22.2761 10.5 22.5 10.7239 22.5 11V13C22.5 13.2761 22.2761 13.5 22 13.5H21.5V14V16C21.5 17.3807 20.3807 18.5 19 18.5H13V16.5C14.933 16.5 16.5 14.933 16.5 13V10.5C16.5 9.94772 16.0523 9.5 15.5 9.5V8.5C15.5 7.94772 15.0523 7.5 14.5 7.5C13.9477 7.5 13.5 7.94772 13.5 8.5V9.5H10.5V8.5C10.5 7.94772 10.0523 7.5 9.5 7.5C8.94772 7.5 8.5 7.94772 8.5 8.5V9.5C7.94771 9.5 7.5 9.94772 7.5 10.5V13C7.5 14.933 9.067 16.5 11 16.5V18.5H5C3.61929 18.5 2.5 17.3807 2.5 16V14V13.5H2C1.72386 13.5 1.5 13.2761 1.5 13V11C1.5 10.7239 1.72386 10.5 2 10.5H2.5V10V8C2.5 6.61929 3.61929 5.5 5 5.5H11.5ZM12.5 13C12.5 13.2761 12.2761 13.5 12 13.5C11.7239 13.5 11.5 13.2761 11.5 13C11.5 12.7239 11.7239 12.5 12 12.5C12.2761 12.5 12.5 12.7239 12.5 13Z" fill="black" stroke="black"/>
</svg>
