<svg width="24" height="24" viewBox="0 0 24 24" fill="none" xmlns="http://www.w3.org/2000/svg">
<path fill-rule="evenodd" clip-rule="evenodd" d="M14.5 10H9.5C8.11929 10 7 11.1193 7 12.5C7 13.8807 8.11929 15 9.5 15H14.5C15.8807 15 17 13.8807 17 12.5C17 11.1193 15.8807 10 14.5 10ZM9.5 9C7.567 9 6 10.567 6 12.5C6 14.433 7.567 16 9.5 16H14.5C16.433 16 18 14.433 18 12.5C18 10.567 16.433 9 14.5 9H9.5Z" fill="black"/>
<path fill-rule="evenodd" clip-rule="evenodd" d="M9.5 13C9.77614 13 10 12.7761 10 12.5C10 12.2239 9.77614 12 9.5 12C9.22386 12 9 12.2239 9 12.5C9 12.7761 9.22386 13 9.5 13ZM9.5 14C10.3284 14 11 13.3284 11 12.5C11 11.6716 10.3284 11 9.5 11C8.67157 11 8 11.6716 8 12.5C8 13.3284 8.67157 14 9.5 14Z" fill="black"/>
<path fill-rule="evenodd" clip-rule="evenodd" d="M5.95203 21.1154C6.22817 21.1154 6.45203 20.8916 6.45203 20.6154C6.45203 20.3393 6.22817 20.1154 5.95203 20.1154C5.67588 20.1154 5.45203 20.3393 5.45203 20.6154C5.45203 20.8916 5.67588 21.1154 5.95203 21.1154ZM5.95203 22.1154C6.78045 22.1154 7.45203 21.4438 7.45203 20.6154C7.45203 19.787 6.78045 19.1154 5.95203 19.1154C5.1236 19.1154 4.45203 19.787 4.45203 20.6154C4.45203 21.4438 5.1236 22.1154 5.95203 22.1154Z" fill="black"/>
<path fill-rule="evenodd" clip-rule="evenodd" d="M18.0352 3.91786C18.3113 3.91786 18.5352 3.694 18.5352 3.41786C18.5352 3.14172 18.3113 2.91786 18.0352 2.91786C17.759 2.91786 17.5352 3.14172 17.5352 3.41786C17.5352 3.694 17.759 3.91786 18.0352 3.91786ZM18.0352 4.91786C18.8636 4.91786 19.5352 4.24629 19.5352 3.41786C19.5352 2.58943 18.8636 1.91786 18.0352 1.91786C17.2067 1.91786 16.5352 2.58943 16.5352 3.41786C16.5352 4.24629 17.2067 4.91786 18.0352 4.91786Z" fill="black"/>
<path fill-rule="evenodd" clip-rule="evenodd" d="M14.5 13C14.7761 13 15 12.7761 15 12.5C15 12.2239 14.7761 12 14.5 12C14.2239 12 14 12.2239 14 12.5C14 12.7761 14.2239 13 14.5 13ZM14.5 14C15.3284 14 16 13.3284 16 12.5C16 11.6716 15.3284 11 14.5 11C13.6716 11 13 11.6716 13 12.5C13 13.3284 13.6716 14 14.5 14Z" fill="black"/>
<path fill-rule="evenodd" clip-rule="evenodd" d="M12 6.59805C12.2761 6.59805 12.5 6.3742 12.5 6.09805C12.5 5.82191 12.2761 5.59805 12 5.59805C11.7239 5.59805 11.5 5.82191 11.5 6.09805C11.5 6.3742 11.7239 6.59805 12 6.59805ZM12 7.59805C12.8284 7.59805 13.5 6.92648 13.5 6.09805C13.5 5.26963 12.8284 4.59805 12 4.59805C11.1716 4.59805 10.5 5.26963 10.5 6.09805C10.5 6.92648 11.1716 7.59805 12 7.59805Z" fill="black"/>
<path fill-rule="evenodd" clip-rule="evenodd" d="M12.5 7.5V9.5C12.5 9.77614 12.2761 10 12 10C11.7239 10 11.5 9.77614 11.5 9.5V7.5C11.5 7.22386 11.7239 7 12 7C12.2761 7 12.5 7.22386 12.5 7.5Z" fill="black"/>
<path fill-rule="evenodd" clip-rule="evenodd" d="M12 2C6.47715 2 2 6.47715 2 12C2 13.7936 2.47175 15.4755 3.29758 16.93C3.43392 17.1701 3.34979 17.4753 3.10965 17.6116C2.86952 17.748 2.56432 17.6638 2.42798 17.4237C1.51893 15.8227 1 13.9712 1 12C1 5.92487 5.92487 1 12 1C13.9712 1 15.8227 1.51893 17.4237 2.42798C17.6638 2.56432 17.748 2.86952 17.6116 3.10965C17.4753 3.34979 17.1701 3.43392 16.93 3.29758C15.4755 2.47175 13.7936 2 12 2ZM20.8903 6.38833C21.1305 6.25198 21.4357 6.33612 21.572 6.57625C22.4811 8.17731 23 10.0288 23 12C23 18.0751 18.0751 23 12 23C10.0288 23 8.17731 22.4811 6.57625 21.572C6.33612 21.4357 6.25198 21.1305 6.38833 20.8903C6.52468 20.6502 6.82987 20.5661 7.07001 20.7024C8.52449 21.5282 10.2064 22 12 22C17.5228 22 22 17.5228 22 12C22 10.2064 21.5282 8.52449 20.7024 7.07001C20.5661 6.82987 20.6502 6.52468 20.8903 6.38833Z" fill="black"/>
</svg>
