<svg width="24" height="24" viewBox="0 0 24 24" fill="none" xmlns="http://www.w3.org/2000/svg">
<g opacity="0.9">
<path d="M9.14645 12.3536C8.95118 12.1583 8.95118 11.8417 9.14645 11.6464C9.34171 11.4512 9.65829 11.4512 9.85355 11.6464L12 13.7929L12 1.5C12 1.22386 12.2239 1 12.5 1C12.7761 1 13 1.22386 13 1.5L13 13.7929L15.1464 11.6464C15.3417 11.4512 15.6583 11.4512 15.8536 11.6464C16.0488 11.8417 16.0488 12.1583 15.8536 12.3536L12.5 15.7071L9.14645 12.3536Z" fill="black"/>
<path d="M3 8.00008V19.0001C3 19.5524 3.44772 20.0001 4 20.0001H20C20.5523 20.0001 21 19.5524 21 19.0001V8.00008H15.5C15.2239 8.00008 15 7.77622 15 7.50008C15 7.22393 15.2239 7.00008 15.5 7.00008H22V5.00008C22 4.44779 21.5523 4.00008 21 4.00008H15.5C15.2239 4.00008 15 3.77622 15 3.50008C15 3.22393 15.2239 3.00008 15.5 3.00008H21C22.1046 3.00008 23 3.89551 23 5.00008V7.50008C23 7.77622 22.7761 8.00008 22.5 8.00008H22V19.0001C22 20.1046 21.1046 21.0001 20 21.0001H4C2.89543 21.0001 2 20.1046 2 19.0001V8.00008H1.5C1.22386 8.00008 1 7.77622 1 7.50008V5.00008C1 3.89551 1.89543 3.00008 3 3.00008H9.5C9.77614 3.00008 10 3.22393 10 3.50008C10 3.77622 9.77614 4.00008 9.5 4.00008H3C2.44772 4.00008 2 4.44779 2 5.00008V7.00008H9.5C9.77614 7.00008 10 7.22393 10 7.50008C10 7.77622 9.77614 8.00008 9.5 8.00008H3Z" fill="black"/>
</g>
</svg>
