<svg width="32" height="32" viewBox="0 0 32 32" fill="none" xmlns="http://www.w3.org/2000/svg">
<path opacity="0.9" fill-rule="evenodd" clip-rule="evenodd" d="M11.7071 15.2929C11.3166 14.9024 10.6834 14.9024 10.2929 15.2929C9.90237 15.6834 9.90237 16.3166 10.2929 16.7071L16 22.4142L21.7071 16.7071C22.0976 16.3166 22.0976 15.6834 21.7071 15.2929C21.3166 14.9024 20.6834 14.9024 20.2929 15.2929L17 18.5858L17 2.5C17 1.94772 16.5523 1.5 16 1.5C15.4477 1.5 15 1.94772 15 2.5L15 18.5858L11.7071 15.2929ZM9.23223 14.232C8.25592 15.2083 8.25592 16.7912 9.23223 17.7675L16 24.5353L22.7678 17.7675C23.7441 16.7912 23.7441 15.2083 22.7678 14.232C21.7915 13.2557 20.2085 13.2557 19.2322 14.232L18.5 14.9642V12H27.5C27.7761 12 28 12.2239 28 12.5V24C28 25.1046 27.1046 26 26 26H6C4.89543 26 4 25.1046 4 24V12.5C4 12.2239 4.22386 12 4.5 12H13.5V14.9642L12.7678 14.232C11.7915 13.2557 10.2085 13.2557 9.23223 14.232ZM28.5 11H18.5L18.5 6H27C28.1046 6 29 6.89543 29 8V10.5C29 10.7761 28.7761 11 28.5 11ZM5 6H13.5L13.5 11H3.5C3.22386 11 3 10.7761 3 10.5V8C3 6.89543 3.89543 6 5 6Z" fill="black"/>
</svg>
