<svg width="25" height="24" viewBox="0 0 25 24" fill="none" xmlns="http://www.w3.org/2000/svg">
<g opacity="0.9">
<path d="M6.1816 6.14645C6.37686 5.95118 6.69345 5.95118 6.88871 6.14645L17.8887 17.1464C18.084 17.3417 18.084 17.6583 17.8887 17.8536C17.6934 18.0488 17.3769 18.0488 17.1816 17.8536L6.1816 6.85355C5.98634 6.65829 5.98634 6.34171 6.1816 6.14645Z" fill="black"/>
<path d="M12.0352 9C11.7321 9 11.4327 9.02011 11.138 9.05738C10.8641 9.09204 10.6139 8.89805 10.5792 8.62409C10.5446 8.35014 10.7386 8.09995 11.0125 8.06529C11.3465 8.02305 11.6878 8 12.0352 8C14.2421 8 16.213 8.92951 17.6094 9.82976C18.3117 10.2825 18.8796 10.735 19.2728 11.0749C19.4696 11.245 19.6232 11.3875 19.7287 11.4885C19.7814 11.5391 19.8221 11.5792 19.8502 11.6073L19.8828 11.6403L19.8918 11.6496L19.8945 11.6523L19.8954 11.6533L19.5352 12L19.8959 12.3463L19.8945 12.3477L19.8918 12.3505L19.8826 12.3599L19.8494 12.3934C19.8208 12.422 19.7794 12.4629 19.7257 12.5143C19.6184 12.617 19.4621 12.7618 19.2618 12.9346C18.8618 13.2797 18.284 13.7385 17.5702 14.1954C17.3376 14.3443 17.0284 14.2765 16.8795 14.0439C16.7306 13.8113 16.7985 13.5021 17.031 13.3532C17.6966 12.9272 18.2362 12.4987 18.6086 12.1775C18.6825 12.1137 18.7497 12.0543 18.8099 12C18.7524 11.9482 18.6887 11.8918 18.6188 11.8314C18.2529 11.515 17.7225 11.0925 17.0675 10.6702C15.7495 9.82049 13.9704 9 12.0352 9Z" fill="black"/>
<path d="M19.8959 12.3463C19.8959 12.3463 19.896 12.3462 19.5352 12C19.896 11.6538 19.8954 11.6533 19.8954 11.6533C20.081 11.8467 20.0815 12.1528 19.8959 12.3463Z" fill="black"/>
<path d="M7.73136 9.65396C7.86944 9.8931 7.7875 10.1989 7.54835 10.337C6.73625 10.8058 6.06929 11.3116 5.60557 11.7003C5.47319 11.8112 5.35771 11.9124 5.26049 12C5.3179 12.0518 5.38169 12.1082 5.45157 12.1686C5.81745 12.485 6.34787 12.9075 7.0028 13.3298C8.32087 14.1795 10.1 15 12.0352 15C12.3256 15 12.6126 14.9815 12.8952 14.9472C13.1694 14.9139 13.4186 15.1092 13.4519 15.3833C13.4852 15.6574 13.2899 15.9066 13.0158 15.9399C12.6953 15.9788 12.368 16 12.0352 16C9.82825 16 7.85734 15.0705 6.46095 14.1702C5.75863 13.7175 5.19071 13.265 4.79754 12.9251C4.60074 12.755 4.4471 12.6125 4.34167 12.5115C4.28894 12.4609 4.24822 12.4208 4.22013 12.3927L4.18755 12.3597L4.17851 12.3504L4.17582 12.3477L4.17494 12.3467L4.53517 12L4.1745 11.6537L4.17611 11.652L4.17943 11.6486L4.19077 11.637C4.2004 11.6272 4.21418 11.6132 4.23197 11.5955C4.26756 11.5601 4.31926 11.5095 4.38615 11.4462C4.51989 11.3197 4.71469 11.1422 4.96321 10.9339C5.4595 10.5179 6.17413 9.97568 7.04835 9.47095C7.2875 9.33287 7.59329 9.41481 7.73136 9.65396Z" fill="black"/>
<path d="M4.1745 11.6537C4.1745 11.6537 4.17437 11.6538 4.53517 12C4.17437 12.3462 4.17494 12.3467 4.17494 12.3467C3.98934 12.1533 3.9889 11.8472 4.1745 11.6537Z" fill="black"/>
<path fill-rule="evenodd" clip-rule="evenodd" d="M12.0352 2C6.51231 2 2.03516 6.47715 2.03516 12C2.03516 17.5228 6.51231 22 12.0352 22C17.558 22 22.0352 17.5228 22.0352 12C22.0352 6.47715 17.558 2 12.0352 2ZM3.03516 12C3.03516 7.02944 7.06459 3 12.0352 3C17.0057 3 21.0352 7.02944 21.0352 12C21.0352 16.9706 17.0057 21 12.0352 21C7.06459 21 3.03516 16.9706 3.03516 12Z" fill="black"/>
</g>
</svg>
