<svg width="24" height="24" viewBox="0 0 24 24" fill="none" xmlns="http://www.w3.org/2000/svg">
<g opacity="0.9">
<path d="M4.5 4C3.11929 4 2 5.11929 2 6.5V16.5C2 17.8807 3.11929 19 4.5 19H14.5C14.7761 19 15 18.7761 15 18.5C15 18.2239 14.7761 18 14.5 18H4.5C3.67157 18 3 17.3284 3 16.5V6.5C3 5.67157 3.67157 5 4.5 5H19.5C20.3284 5 21 5.67157 21 6.5V11.5C21 11.7761 21.2239 12 21.5 12C21.7761 12 22 11.7761 22 11.5V6.5C22 5.11929 20.8807 4 19.5 4H4.5Z" fill="black"/>
<path d="M8 20C7.72386 20 7.5 20.2239 7.5 20.5C7.5 20.7761 7.72386 21 8 21H14.5C14.7761 21 15 20.7761 15 20.5C15 20.2239 14.7761 20 14.5 20H8Z" fill="black"/>
<path fill-rule="evenodd" clip-rule="evenodd" d="M12 7C12 6.44772 12.4477 6 13 6H19C19.5523 6 20 6.44772 20 7V11C20 11.5523 19.5523 12 19 12H13C12.4477 12 12 11.5523 12 11V7ZM19 7H13V11H19V7Z" fill="black"/>
<path fill-rule="evenodd" clip-rule="evenodd" d="M23.8563 14.9877C23.9885 15.3844 23.8853 15.8217 23.5896 16.1174L18.7071 21.0003H16V18.2932L20.8825 13.4103C21.1782 13.1146 21.6155 13.0114 22.0122 13.1436C22.8829 13.4338 23.5661 14.117 23.8563 14.9877ZM21.5896 14.1174C21.6175 14.0895 21.6586 14.0798 21.696 14.0923C22.268 14.283 22.7169 14.7319 22.9076 15.3039C22.9201 15.3413 22.9104 15.3824 22.8825 15.4103L22.5 15.7928L21.2071 14.4999L21.5896 14.1174ZM20.5 15.207L21.7929 16.4999L18.2929 20.0003H17V18.7074L20.5 15.207Z" fill="black"/>
</g>
</svg>
