<svg width="24" height="25" viewBox="0 0 24 25" fill="none" xmlns="http://www.w3.org/2000/svg">
<g opacity="0.9">
<path d="M7.5 11.717C7.22386 11.717 7 11.9409 7 12.217C7 12.4932 7.22386 12.717 7.5 12.717H15.5C15.7761 12.717 16 12.4932 16 12.217C16 11.9409 15.7761 11.717 15.5 11.717H7.5Z" fill="black"/>
<path fill-rule="evenodd" clip-rule="evenodd" d="M11.5 21.717C13.7653 21.717 15.8453 20.9242 17.4779 19.6009L21.2402 23.3634C21.4354 23.5586 21.752 23.5586 21.9473 23.3634C22.1426 23.1681 22.1426 22.8515 21.9473 22.6563L18.2216 18.9304C19.9384 17.2116 21 14.8383 21 12.217C21 6.97034 16.7467 2.71704 11.5 2.71704C6.25329 2.71704 2 6.97034 2 12.217C2 17.4637 6.25329 21.717 11.5 21.717ZM11.5 20.717C13.6496 20.717 15.6129 19.9191 17.1097 18.6032C17.1211 18.589 17.1333 18.5754 17.1464 18.5623C17.1729 18.5358 17.2016 18.5129 17.232 18.4936C18.933 16.9393 20 14.7028 20 12.217C20 7.52262 16.1944 3.71704 11.5 3.71704C6.80558 3.71704 3 7.52262 3 12.217C3 16.9115 6.80558 20.717 11.5 20.717Z" fill="black"/>
</g>
</svg>
