<svg width="32" height="33" viewBox="0 0 32 33" fill="none" xmlns="http://www.w3.org/2000/svg">
<g opacity="0.9">
<path d="M10 16.217C10 15.9409 10.2239 15.717 10.5 15.717H20.5C20.7761 15.717 21 15.9409 21 16.217C21 16.4932 20.7761 16.717 20.5 16.717H10.5C10.2239 16.717 10 16.4932 10 16.217Z" fill="black"/>
<path fill-rule="evenodd" clip-rule="evenodd" d="M23.4302 24.5454C25.6294 22.4507 27 19.4939 27 16.217C27 9.86577 21.8513 4.71704 15.5 4.71704C9.14873 4.71704 4 9.86577 4 16.217C4 22.5683 9.14873 27.717 15.5 27.717C18.2202 27.717 20.7198 26.7726 22.6887 25.1938C22.7092 25.2275 22.734 25.2593 22.7631 25.2884L28.8384 31.3638C29.0337 31.5591 29.3503 31.5591 29.5456 31.3638C29.7408 31.1685 29.7408 30.852 29.5456 30.6567L23.4702 24.5813C23.4574 24.5685 23.444 24.5566 23.4302 24.5454ZM15.5 26.717C21.299 26.717 26 22.016 26 16.217C26 10.4181 21.299 5.71704 15.5 5.71704C9.70101 5.71704 5 10.4181 5 16.217C5 22.016 9.70101 26.717 15.5 26.717Z" fill="black"/>
</g>
</svg>
