<svg width="24" height="25" viewBox="0 0 24 25" fill="none" xmlns="http://www.w3.org/2000/svg">
<path opacity="0.9" fill-rule="evenodd" clip-rule="evenodd" d="M21 12.217C21 14.8384 19.9383 17.2117 18.2215 18.9306L21.9473 22.6566C22.1426 22.8519 22.1426 23.1685 21.9473 23.3637C21.752 23.559 21.4354 23.559 21.2402 23.3637L17.4777 19.601C15.8452 20.9243 13.7652 21.717 11.5 21.717C6.25329 21.717 2 17.4637 2 12.217C2 6.97034 6.25329 2.71704 11.5 2.71704C16.7467 2.71704 21 6.97034 21 12.217ZM7.5 11.717C7.22386 11.717 7 11.9409 7 12.217C7 12.4932 7.22386 12.717 7.5 12.717H15.5C15.7761 12.717 16 12.4932 16 12.217C16 11.9409 15.7761 11.717 15.5 11.717H7.5Z" fill="black"/>
</svg>
