<svg width="16" height="17" viewBox="0 0 16 17" fill="none" xmlns="http://www.w3.org/2000/svg">
<g clip-path="url(#clip0)">
<g opacity="0.9">
<path d="M4.5 7.71704C4.22386 7.71704 4 7.9409 4 8.21704C4 8.49318 4.22386 8.71704 4.5 8.71704H10.5C10.7761 8.71704 11 8.49318 11 8.21704C11 7.9409 10.7761 7.71704 10.5 7.71704H4.5Z" fill="black"/>
<path fill-rule="evenodd" clip-rule="evenodd" d="M7.5 14.717C9.0589 14.717 10.4896 14.1683 11.6095 13.2533C11.6261 13.277 11.6449 13.2995 11.666 13.3207L14.7089 16.3636C14.9042 16.5588 15.2208 16.5588 15.416 16.3636C15.6113 16.1683 15.6113 15.8517 15.416 15.6565L12.3731 12.6136C12.358 12.5984 12.3422 12.5845 12.3257 12.5717C13.3664 11.4192 14 9.89213 14 8.21704C14 4.62719 11.0899 1.71704 7.5 1.71704C3.91015 1.71704 1 4.62719 1 8.21704C1 11.8069 3.91015 14.717 7.5 14.717ZM7.5 13.717C10.5376 13.717 13 11.2546 13 8.21704C13 5.17947 10.5376 2.71704 7.5 2.71704C4.46243 2.71704 2 5.17947 2 8.21704C2 11.2546 4.46243 13.717 7.5 13.717Z" fill="black"/>
</g>
</g>
<defs>
<clipPath id="clip0">
<rect width="16" height="16" fill="white" transform="translate(0 0.717041)"/>
</clipPath>
</defs>
</svg>
