<svg width="32" height="32" viewBox="0 0 32 32" fill="none" xmlns="http://www.w3.org/2000/svg">
<g opacity="0.9">
<path d="M15.2929 4.29289C15.6834 3.90237 16.3166 3.90237 16.7071 4.29289L25.7066 13.2924C26.0982 13.105 26.5369 13 27 13C28.6569 13 30 14.3431 30 16C30 17.6569 28.6569 19 27 19C25.3431 19 24 17.6569 24 16C24 15.5369 24.105 15.0982 24.2924 14.7066L16 6.41421L11.2071 11.2071C10.8166 11.5976 10.1834 11.5976 9.79289 11.2071C9.40237 10.8166 9.40237 10.1834 9.79289 9.79289L15.2929 4.29289Z" fill="black"/>
<path d="M5 13C3.34315 13 2 14.3431 2 16C2 17.6569 3.34315 19 5 19C5.46315 19 5.90178 18.895 6.29342 18.7076L15.2929 27.7071C15.6834 28.0976 16.3166 28.0976 16.7071 27.7071L22.2071 22.2071C22.5976 21.8166 22.5976 21.1834 22.2071 20.7929C21.8166 20.4024 21.1834 20.4024 20.7929 20.7929L16 25.5858L7.70763 17.2934C7.89505 16.9018 8 16.4631 8 16C8 14.3431 6.65686 13 5 13Z" fill="black"/>
<path d="M14 12.4158V19.5842C14 19.9797 14.4376 20.2187 14.7704 20.0047L20.3457 16.4206C20.6519 16.2238 20.6519 15.7762 20.3457 15.5794L14.7704 11.9952C14.4376 11.7813 14 12.0202 14 12.4158Z" fill="black"/>
</g>
</svg>
