<svg width="32" height="32" viewBox="0 0 32 32" fill="none" xmlns="http://www.w3.org/2000/svg">
<g opacity="0.9">
<path fill-rule="evenodd" clip-rule="evenodd" d="M15.6464 4.64645C15.8417 4.45118 16.1583 4.45118 16.3536 4.64645L25.2617 13.5546C25.7521 13.2054 26.3521 13 27 13C28.6569 13 30 14.3431 30 16C30 17.6569 28.6569 19 27 19C25.3431 19 24 17.6569 24 16C24 15.3521 24.2054 14.7521 24.5546 14.2617L16 5.70711L10.8536 10.8536C10.6583 11.0488 10.3417 11.0488 10.1464 10.8536C9.95118 10.6583 9.95118 10.3417 10.1464 10.1464L15.6464 4.64645ZM27 14C25.8954 14 25 14.8954 25 16C25 17.1046 25.8954 18 27 18C28.1046 18 29 17.1046 29 16C29 14.8954 28.1046 14 27 14Z" fill="black"/>
<path fill-rule="evenodd" clip-rule="evenodd" d="M2 16C2 14.3431 3.34315 13 5 13C6.65686 13 8 14.3431 8 16C8 16.6479 7.79461 17.2479 7.44537 17.7383L16 26.2929L21.1464 21.1464C21.3417 20.9512 21.6583 20.9512 21.8536 21.1464C22.0488 21.3417 22.0488 21.6583 21.8536 21.8536L16.3536 27.3536C16.1583 27.5488 15.8417 27.5488 15.6464 27.3536L6.73827 18.4454C6.24786 18.7946 5.64792 19 5 19C3.34315 19 2 17.6569 2 16ZM3 16C3 14.8954 3.89543 14 5 14C6.10457 14 7 14.8954 7 16C7 17.1046 6.10457 18 5 18C3.89543 18 3 17.1046 3 16Z" fill="black"/>
<path fill-rule="evenodd" clip-rule="evenodd" d="M14 19.5842V12.4158C14 12.0202 14.4376 11.7813 14.7704 11.9952L20.3457 15.5794C20.6519 15.7762 20.6519 16.2238 20.3457 16.4206L14.7704 20.0047C14.4376 20.2187 14 19.9797 14 19.5842ZM15 18.6683L19.1507 16L15 13.3317V18.6683Z" fill="black"/>
</g>
</svg>
