<svg width="16" height="16" viewBox="0 0 16 16" fill="none" xmlns="http://www.w3.org/2000/svg">
<g opacity="0.9">
<path d="M14 6.5C13.7897 6.5 13.5895 6.54327 13.4079 6.6214L8.3674 1.16086C8.2751 1.06087 8.14604 1.00282 8.00999 1.0001C7.87394 0.997381 7.74266 1.05023 7.64644 1.14645L4.64644 4.14645C4.45118 4.34171 4.45118 4.65829 4.64644 4.85355C4.84171 5.04882 5.15829 5.04882 5.35355 4.85355L7.98557 2.22153L12.6731 7.29974C12.5626 7.50877 12.5 7.74708 12.5 8C12.5 8.82843 13.1716 9.5 14 9.5C14.8284 9.5 15.5 8.82843 15.5 8C15.5 7.17158 14.8284 6.5 14 6.5Z" fill="black"/>
<path d="M3.5 8C3.5 8.25293 3.4374 8.49123 3.32685 8.70027L8.01442 13.7785L10.6464 11.1465C10.8417 10.9512 11.1583 10.9512 11.3536 11.1465C11.5488 11.3417 11.5488 11.6583 11.3536 11.8536L8.35355 14.8536C8.25733 14.9498 8.12605 15.0026 7.99 14.9999C7.85396 14.9972 7.72489 14.9391 7.6326 14.8391L2.59211 9.37861C2.41045 9.45673 2.21028 9.5 2 9.5C1.17157 9.5 0.5 8.82843 0.5 8C0.5 7.17158 1.17157 6.5 2 6.5C2.82843 6.5 3.5 7.17158 3.5 8Z" fill="black"/>
<path d="M6.58002 9.86691V6.1331C6.58002 5.74445 7.004 5.5044 7.33727 5.70435L10.4488 7.57126C10.7724 7.76546 10.7724 8.23455 10.4488 8.42875L7.33727 10.2957C7.004 10.4956 6.58002 10.2556 6.58002 9.86691Z" fill="black"/>
</g>
</svg>
