<svg width="32" height="32" viewBox="0 0 32 32" fill="none" xmlns="http://www.w3.org/2000/svg">
<g opacity="0.9">
<path d="M22.2069 12.2071C22.5974 11.8166 22.5974 11.1834 22.2069 10.7929C21.8163 10.4024 21.1832 10.4024 20.7926 10.7929L14.7926 16.7929C14.4021 17.1834 14.4021 17.8166 14.7926 18.2071C15.1832 18.5976 15.8163 18.5976 16.2069 18.2071L22.2069 12.2071Z" fill="black"/>
<path d="M9.79265 23.2071C10.1832 23.5976 10.8163 23.5976 11.2069 23.2071C11.5974 22.8166 11.5974 22.1834 11.2069 21.7929L5.20686 15.7929C4.81634 15.4024 4.18317 15.4024 3.79265 15.7929C3.40213 16.1834 3.40212 16.8166 3.79265 17.2071L9.79265 23.2071Z" fill="black"/>
<path d="M27.2069 12.2071C27.5974 11.8166 27.5974 11.1834 27.2069 10.7929C26.8163 10.4024 26.1832 10.4024 25.7926 10.7929L15.4998 21.0858L10.2069 15.7929C9.81634 15.4024 9.18317 15.4024 8.79265 15.7929C8.40212 16.1834 8.40212 16.8166 8.79265 17.2071L15.4998 23.9142L27.2069 12.2071Z" fill="black"/>
</g>
</svg>
