<svg width="32" height="32" viewBox="0 0 32 32" fill="none" xmlns="http://www.w3.org/2000/svg">
<g opacity="0.9">
<path fill-rule="evenodd" clip-rule="evenodd" d="M26.8536 11.1464C27.0488 11.3417 27.0488 11.6583 26.8536 11.8536L15.5 23.2071L9.14645 16.8536C8.95118 16.6583 8.95118 16.3417 9.14645 16.1464C9.34171 15.9512 9.65829 15.9512 9.85355 16.1464L15.5 21.7929L26.1464 11.1464C26.3417 10.9512 26.6583 10.9512 26.8536 11.1464Z" fill="black"/>
<path fill-rule="evenodd" clip-rule="evenodd" d="M21.8536 11.1464C22.0488 11.3417 22.0488 11.6583 21.8536 11.8536L15.8536 17.8536C15.6583 18.0488 15.3417 18.0488 15.1464 17.8536C14.9512 17.6583 14.9512 17.3417 15.1464 17.1464L21.1464 11.1464C21.3417 10.9512 21.6583 10.9512 21.8536 11.1464ZM10.8536 22.8536C10.6583 23.0488 10.3417 23.0488 10.1464 22.8536L4.14645 16.8536C3.95118 16.6583 3.95118 16.3417 4.14645 16.1464C4.34171 15.9512 4.65829 15.9512 4.85355 16.1464L10.8536 22.1464C11.0488 22.3417 11.0488 22.6583 10.8536 22.8536Z" fill="black"/>
</g>
</svg>
