<svg width="16" height="16" viewBox="0 0 16 16" fill="none" xmlns="http://www.w3.org/2000/svg">
<path d="M5 4C4.44772 4 4 4.44772 4 5V7.5C4 7.77614 4.22386 8 4.5 8H5.5C5.77614 8 6 7.77614 6 7.5V5C6 4.44772 5.55228 4 5 4Z" fill="black"/>
<path d="M7 3C7 2.44772 7.44772 2 8 2C8.55228 2 9 2.44772 9 3V7.5C9 7.77614 8.77614 8 8.5 8H7.5C7.22386 8 7 7.77614 7 7.5V3Z" fill="black"/>
<path d="M11 5C10.4477 5 10 5.44772 10 6V7.5C10 7.77614 10.2239 8 10.5 8H11.5C11.7761 8 12 7.77614 12 7.5V6C12 5.44772 11.5523 5 11 5Z" fill="black"/>
<path fill-rule="evenodd" clip-rule="evenodd" d="M3.5 0C2.11929 0 1 1.11929 1 2.5V13.5C1 14.8807 2.11929 16 3.5 16H12.5C13.8807 16 15 14.8807 15 13.5V3.29289L11.7071 0H3.5ZM2 2.5C2 1.67157 2.67157 1 3.5 1H11V1.5C11 2.88071 12.1193 4 13.5 4H14V13.5C14 14.3284 13.3284 15 12.5 15H3.5C2.67157 15 2 14.3284 2 13.5V2.5ZM12.0166 1.72367L13.2763 2.98344C12.627 2.88635 12.1136 2.37304 12.0166 1.72367Z" fill="black"/>
</svg>
