<svg width="16" height="16" viewBox="0 0 16 16" fill="none" xmlns="http://www.w3.org/2000/svg">
<g opacity="0.9">
<path d="M4.5 1C4.77614 1 5 1.22386 5 1.5L5 2.5C5 2.77614 4.77614 3 4.5 3C4.22386 3 4 2.77614 4 2.5L4 1.5C4 1.22386 4.22386 1 4.5 1Z" fill="black"/>
<path d="M11 7.5V1.5C11 1.22386 11.2239 1 11.5 1C11.7761 1 12 1.22386 12 1.5V7.5C12 7.77614 11.7761 8 11.5 8C11.2239 8 11 7.77614 11 7.5Z" fill="black"/>
<path d="M12 14.5C12 14.7761 11.7761 15 11.5 15C11.2239 15 11 14.7761 11 14.5V13.5C11 13.2239 11.2239 13 11.5 13C11.7761 13 12 13.2239 12 13.5V14.5Z" fill="black"/>
<path d="M13 10.5C13 9.67157 12.3284 9 11.5 9C10.6716 9 10 9.67157 10 10.5C10 11.3284 10.6716 12 11.5 12C12.3284 12 13 11.3284 13 10.5Z" fill="black"/>
<path d="M4 8.5L4 14.5C4 14.7761 4.22386 15 4.5 15C4.77614 15 5 14.7761 5 14.5V8.5C5 8.22386 4.77614 8 4.5 8C4.22386 8 4 8.22386 4 8.5Z" fill="black"/>
<path d="M4.5 7C5.32843 7 6 6.32843 6 5.5C6 4.67157 5.32843 4 4.5 4C3.67157 4 3 4.67157 3 5.5C3 6.32843 3.67157 7 4.5 7Z" fill="black"/>
</g>
</svg>
