<svg width="24" height="24" viewBox="0 0 24 24" fill="none" xmlns="http://www.w3.org/2000/svg">
<g opacity="0.9">
<path fill-rule="evenodd" clip-rule="evenodd" d="M18 13.95V21.5C18 21.7761 18.2239 22 18.5 22C18.7761 22 19 21.7761 19 21.5V13.95C20.1411 13.7184 21 12.7095 21 11.5C21 10.2905 20.1411 9.28164 19 9.05001V2.5C19 2.22386 18.7761 2 18.5 2C18.2239 2 18 2.22386 18 2.5V9.05001C16.8589 9.28164 16 10.2905 16 11.5C16 12.7095 16.8589 13.7184 18 13.95ZM18.5 10C17.6716 10 17 10.6716 17 11.5C17 12.3284 17.6716 13 18.5 13C19.3284 13 20 12.3284 20 11.5C20 10.6716 19.3284 10 18.5 10Z" fill="black"/>
<path fill-rule="evenodd" clip-rule="evenodd" d="M4 21.5L4 9.94999C2.85888 9.71836 2 8.70948 2 7.5C2 6.29052 2.85888 5.28164 4 5.05001L4 2.5C4 2.22386 4.22386 2 4.5 2C4.77614 2 5 2.22386 5 2.5V5.05001C6.14112 5.28164 7 6.29052 7 7.5C7 8.70948 6.14112 9.71836 5 9.94999L5 21.5C5 21.7761 4.77614 22 4.5 22C4.22386 22 4 21.7761 4 21.5ZM6 7.5C6 8.32843 5.32843 9 4.5 9C3.67157 9 3 8.32843 3 7.5C3 6.67157 3.67157 6 4.5 6C5.32843 6 6 6.67157 6 7.5Z" fill="black"/>
<path fill-rule="evenodd" clip-rule="evenodd" d="M11 14.05L11 2.5C11 2.22386 11.2239 2 11.5 2C11.7761 2 12 2.22386 12 2.5L12 14.05C13.1411 14.2816 14 15.2905 14 16.5C14 17.7095 13.1411 18.7184 12 18.95V21.5C12 21.7761 11.7761 22 11.5 22C11.2239 22 11 21.7761 11 21.5V18.95C9.85888 18.7184 9 17.7095 9 16.5C9 15.2905 9.85888 14.2816 11 14.05ZM11.5 18C12.3284 18 13 17.3284 13 16.5C13 15.6716 12.3284 15 11.5 15C10.6716 15 10 15.6716 10 16.5C10 17.3284 10.6716 18 11.5 18Z" fill="black"/>
</g>
</svg>
