<svg width="32" height="32" viewBox="0 0 32 32" fill="none" xmlns="http://www.w3.org/2000/svg">
<g opacity="0.9">
<path d="M6 6L6 5C6 4.44772 6.44771 4 7 4C7.55228 4 8 4.44771 8 5L8 6C8 6.55228 7.55229 7 7 7C6.44772 7 6 6.55229 6 6Z" fill="black"/>
<path d="M6 26.9998V16C6 15.4477 6.44771 15 7 15C7.55228 15 8 15.4477 8 16V26.9998C8 27.5521 7.55228 27.9998 7 27.9998C6.44771 27.9998 6 27.5521 6 26.9998Z" fill="black"/>
<path d="M7 14C8.65685 14 10 12.6569 10 11C10 9.34315 8.65685 8 7 8C5.34315 8 4 9.34315 4 11C4 12.6569 5.34315 14 7 14Z" fill="black"/>
<path d="M15 5V16C15 16.5523 15.4477 17 16 17C16.5523 17 17 16.5523 17 16L17 5C17 4.44772 16.5523 4 16 4C15.4477 4 15 4.44771 15 5Z" fill="black"/>
<path d="M15 27V26C15 25.4477 15.4477 25 16 25C16.5523 25 17 25.4477 17 26V27C17 27.5523 16.5523 28 16 28C15.4477 28 15 27.5523 15 27Z" fill="black"/>
<path d="M19 21C19 19.3431 17.6569 18 16 18C14.3431 18 13 19.3431 13 21C13 22.6569 14.3431 24 16 24C17.6569 24 19 22.6569 19 21Z" fill="black"/>
<path d="M24 20V27C24 27.5523 24.4477 28 25 28C25.5523 28 26 27.5523 26 27V20C26 19.4477 25.5523 19 25 19C24.4477 19 24 19.4477 24 20Z" fill="black"/>
<path d="M25 4C25.5523 4 26 4.44772 26 5V10C26 10.5523 25.5523 11 25 11C24.4477 11 24 10.5523 24 10V5C24 4.44772 24.4477 4 25 4Z" fill="black"/>
<path d="M25 18C26.6569 18 28 16.6569 28 15C28 13.3431 26.6569 12 25 12C23.3431 12 22 13.3431 22 15C22 16.6569 23.3431 18 25 18Z" fill="black"/>
</g>
</svg>
