<svg width="16" height="16" viewBox="0 0 16 16" fill="none" xmlns="http://www.w3.org/2000/svg">
<g opacity="0.9">
<path fill-rule="evenodd" clip-rule="evenodd" d="M11 14.5V12.95C9.85888 12.7184 9 11.7095 9 10.5C9 9.29052 9.85888 8.28164 11 8.05001V1.5C11 1.22386 11.2239 1 11.5 1C11.7761 1 12 1.22386 12 1.5V8.05001C13.1411 8.28164 14 9.29052 14 10.5C14 11.7095 13.1411 12.7184 12 12.95V14.5C12 14.7761 11.7761 15 11.5 15C11.2239 15 11 14.7761 11 14.5ZM10 10.5C10 9.67157 10.6716 9 11.5 9C12.3284 9 13 9.67157 13 10.5C13 11.3284 12.3284 12 11.5 12C10.6716 12 10 11.3284 10 10.5Z" fill="black"/>
<path fill-rule="evenodd" clip-rule="evenodd" d="M4 7.94999V14.5C4 14.7761 4.22386 15 4.5 15C4.77614 15 5 14.7761 5 14.5L5 7.94999C6.14112 7.71836 7 6.70948 7 5.5C7 4.29052 6.14112 3.28164 5 3.05001L5 1.5C5 1.22386 4.77614 1 4.5 1C4.22386 1 4 1.22386 4 1.5L4 3.05001C2.85888 3.28164 2 4.29052 2 5.5C2 6.70948 2.85888 7.71836 4 7.94999ZM4.5 4C3.67157 4 3 4.67157 3 5.5C3 6.32843 3.67157 7 4.5 7C5.32843 7 6 6.32843 6 5.5C6 4.67157 5.32843 4 4.5 4Z" fill="black"/>
</g>
</svg>
