<svg width="32" height="32" viewBox="0 0 32 32" fill="none" xmlns="http://www.w3.org/2000/svg">
<path d="M11 12C11 9.23858 13.2386 7 16 7C18.7614 7 21 9.23858 21 12C21 13.6356 20.2147 15.0878 19.0005 16H19.5C22.2115 16 24.5352 17.6603 25.51 20.0197C25.4044 20.0283 25.2996 20.0395 25.1957 20.0534C24.9689 20.0183 24.7366 20 24.5 20C22.9386 20 21.5644 20.7953 20.758 22H15.2071C14.6767 22 14.168 22.2107 13.7929 22.5858L13.2929 23.0858C13.2294 23.1493 13.171 23.216 13.1178 23.2854C12.517 24.0696 12.5753 25.1967 13.2929 25.9142L13.7929 26.4142C14.168 26.7893 14.6767 27 15.2071 27H7.5C6.67157 27 6 26.3284 6 25.5V22.5C6 18.9101 8.91015 16 12.5 16H12.9995C11.7853 15.0878 11 13.6356 11 12Z" fill="black"/>
<path d="M28 24.5C28 22.567 26.433 21 24.5 21C23.1038 21 21.8985 21.8175 21.3368 23H15.2071C14.9419 23 14.6875 23.1054 14.5 23.2929L14 23.7929C13.6095 24.1834 13.6095 24.8166 14 25.2071L14.5 25.7071C14.6875 25.8946 14.9419 26 15.2071 26H15.882L16.5528 26.3354C16.8343 26.4762 17.1657 26.4762 17.4472 26.3354L18 26.059L18.5528 26.3354C18.8343 26.4762 19.1657 26.4762 19.4472 26.3354L20.118 26H21.3368C21.8985 27.1825 23.1038 28 24.5 28C26.433 28 28 26.433 28 24.5Z" fill="black"/>
</svg>
