<svg width="16" height="16" viewBox="0 0 16 16" fill="none" xmlns="http://www.w3.org/2000/svg">
<path opacity="0.9" fill-rule="evenodd" clip-rule="evenodd" d="M1 8C1 4.13401 4.13401 1 8 1C11.866 1 15 4.13401 15 8C15 11.866 11.866 15 8 15C4.13401 15 1 11.866 1 8ZM11.3536 6.35355C11.5488 6.15829 11.5488 5.84171 11.3536 5.64645C11.1583 5.45118 10.8417 5.45118 10.6464 5.64645L7 9.29289L5.35355 7.64645C5.15829 7.45119 4.84171 7.45119 4.64645 7.64645C4.45118 7.84171 4.45118 8.15829 4.64645 8.35355L7 10.7071L11.3536 6.35355Z" fill="black"/>
</svg>
