<svg width="24" height="24" viewBox="0 0 24 24" fill="none" xmlns="http://www.w3.org/2000/svg">
<g opacity="0.9">
<path d="M17.3535 8.85355C17.5488 8.65829 17.5488 8.34171 17.3535 8.14645C17.1583 7.95118 16.8417 7.95118 16.6464 8.14645L9.99999 14.7929L7.35354 12.1464C7.15828 11.9512 6.84169 11.9512 6.64643 12.1464C6.45117 12.3417 6.45117 12.6583 6.64643 12.8536L9.99999 16.2071L17.3535 8.85355Z" fill="black"/>
<path fill-rule="evenodd" clip-rule="evenodd" d="M12 2C6.47715 2 2 6.47715 2 12C2 17.5228 6.47715 22 12 22C17.5228 22 22 17.5228 22 12C22 6.47715 17.5228 2 12 2ZM3 12C3 7.02944 7.02944 3 12 3C16.9706 3 21 7.02944 21 12C21 16.9706 16.9706 21 12 21C7.02944 21 3 16.9706 3 12Z" fill="black"/>
</g>
</svg>
