<svg width="32" height="32" viewBox="0 0 32 32" fill="none" xmlns="http://www.w3.org/2000/svg">
<g opacity="0.9">
<path d="M22.8535 12.8536C23.0488 12.6583 23.0488 12.3417 22.8535 12.1464C22.6583 11.9512 22.3417 11.9512 22.1464 12.1464L14 20.2929L10.8535 17.1464C10.6583 16.9512 10.3417 16.9512 10.1464 17.1464C9.95117 17.3417 9.95117 17.6583 10.1464 17.8536L14 21.7071L22.8535 12.8536Z" fill="black"/>
<path fill-rule="evenodd" clip-rule="evenodd" d="M16 4C9.37258 4 4 9.37258 4 16C4 22.6274 9.37258 28 16 28C22.6274 28 28 22.6274 28 16C28 9.37258 22.6274 4 16 4ZM5 16C5 9.92487 9.92487 5 16 5C22.0751 5 27 9.92487 27 16C27 22.0751 22.0751 27 16 27C9.92487 27 5 22.0751 5 16Z" fill="black"/>
</g>
</svg>
