<svg width="24" height="24" viewBox="0 0 24 24" fill="none" xmlns="http://www.w3.org/2000/svg">
<g opacity="0.9">
<path d="M14.6485 4.21836C14.5527 3.57165 14.2561 3.04861 13.8322 2.67175C13.3203 2.21677 12.652 2 12 2C11.348 2 10.6797 2.21676 10.1678 2.67174C9.74384 3.04861 9.4473 3.57165 9.35151 4.21836C8.70014 4.31588 7.93912 4.61001 7.23911 5.11779L19.9723 17.851C19.8927 17.3216 19.6558 16.8555 19.4608 16.4718L19.4458 16.4422C19.1836 15.9258 19 15.5472 19 15.1505V9.77273C19 7.80909 18.2212 6.40373 17.2232 5.49408C16.4096 4.75265 15.4467 4.33788 14.6485 4.21836Z" fill="black"/>
<path d="M5 9.77273C5 8.91709 5.14786 8.16744 5.39731 7.51863L16.8787 19H4.5C4.22386 19 4 18.7761 4 18.5V18.2131C4 17.5329 4.30089 16.9407 4.53916 16.4718L4.55418 16.4422C4.81637 15.9258 5 15.5472 5 15.1505V9.77273Z" fill="black"/>
<path d="M12 21.5C10.9528 21.5 10.0489 20.8869 9.62761 20H14.3724C13.9511 20.8869 13.0471 21.5 12 21.5Z" fill="black"/>
<path d="M3.85355 3.14652C3.65829 2.95126 3.34171 2.95126 3.14645 3.14652C2.95118 3.34178 2.95118 3.65837 3.14645 3.85363L20.1464 20.8536C20.3417 21.0489 20.6583 21.0489 20.8536 20.8536C21.0488 20.6584 21.0488 20.3418 20.8536 20.1465L3.85355 3.14652Z" fill="black"/>
</g>
</svg>
