<svg width="24" height="24" viewBox="0 0 24 24" fill="none" xmlns="http://www.w3.org/2000/svg">
<path opacity="0.9" d="M12.3334 2.44323L12 2.56106L11.6666 2.44323C11.2776 2.30571 11 1.93462 11 1.5C11 0.947715 11.4477 0.5 12 0.5C12.5523 0.5 13 0.947715 13 1.5C13 1.93462 12.7224 2.30571 12.3334 2.44323ZM11.5 5.5H12H12.5H19C20.3807 5.5 21.5 6.61929 21.5 8V10V10.5H22C22.2761 10.5 22.5 10.7239 22.5 11V13C22.5 13.2761 22.2761 13.5 22 13.5H21.5V14V16C21.5 17.3807 20.3807 18.5 19 18.5H5C3.61929 18.5 2.5 17.3807 2.5 16V14V13.5H2C1.72386 13.5 1.5 13.2761 1.5 13V11C1.5 10.7239 1.72386 10.5 2 10.5H2.5V10V8C2.5 6.61929 3.61929 5.5 5 5.5H11.5ZM13.4615 7.22528C13.3341 6.77935 12.9168 6.47953 12.4535 6.50108C11.9903 6.52263 11.6026 6.85988 11.5171 7.31571L10.8604 10.8184L10.4701 9.25746C10.3623 8.82614 9.98265 8.5178 9.53837 8.50074C9.09409 8.48368 8.69191 8.76198 8.55131 9.18377L7.77923 11.5H5.49999C4.94771 11.5 4.49999 11.9477 4.49999 12.5C4.49999 13.0523 4.94771 13.5 5.49999 13.5H8.49999C8.8518 13.5 9.17135 13.316 9.35067 13.0258L10.0299 15.7425C10.1438 16.1985 10.56 16.5136 11.0298 16.4996C11.4996 16.4855 11.8962 16.1462 11.9829 15.6843L12.7022 11.8478L13.5385 14.7747C13.6518 15.1712 13.9968 15.4575 14.4075 15.4957C14.8181 15.5339 15.21 15.3161 15.3944 14.9472L16.118 13.5H18.5C19.0523 13.5 19.5 13.0523 19.5 12.5C19.5 11.9477 19.0523 11.5 18.5 11.5H15.5C15.2205 11.5 14.9586 11.6166 14.7725 11.8138L13.4615 7.22528Z" fill="black" stroke="black"/>
</svg>
