<svg width="24" height="24" viewBox="0 0 24 24" fill="none" xmlns="http://www.w3.org/2000/svg">
<path opacity="0.9" fill-rule="evenodd" clip-rule="evenodd" d="M12 2C12.2761 2 12.5 1.77614 12.5 1.5C12.5 1.22386 12.2761 1 12 1C11.7239 1 11.5 1.22386 11.5 1.5C11.5 1.77614 11.7239 2 12 2ZM12.5 2.91465C13.0826 2.70873 13.5 2.15311 13.5 1.5C13.5 0.671573 12.8284 0 12 0C11.1716 0 10.5 0.671573 10.5 1.5C10.5 2.15311 10.9174 2.70873 11.5 2.91465V5H5C3.34315 5 2 6.34315 2 8V10C1.44772 10 1 10.4477 1 11V13C1 13.5523 1.44772 14 2 14V16C2 17.6569 3.34315 19 5 19H19C20.6569 19 22 17.6569 22 16V14C22.5523 14 23 13.5523 23 13V11C23 10.4477 22.5523 10 22 10V8C22 6.34315 20.6569 5 19 5H12.5V2.91465ZM3 14V10V8C3 6.89543 3.89543 6 5 6H11.5H12.5H19C20.1046 6 21 6.89543 21 8V10V14V16C21 17.1046 20.1046 18 19 18H5C3.89543 18 3 17.1046 3 16V14ZM12.9808 7.36264C12.9171 7.13968 12.7084 6.98977 12.4768 7.00055C12.2451 7.01132 12.0513 7.17994 12.0086 7.40786L10.9302 13.1592L9.98507 9.37874C9.93116 9.16307 9.74133 9.0089 9.51919 9.00037C9.29705 8.99184 9.09596 9.131 9.02566 9.34189L8.13962 12H5.5C5.22386 12 5 12.2239 5 12.5C5 12.7761 5.22386 13 5.5 13H8.5C8.71522 13 8.90628 12.8623 8.97434 12.6581L9.43137 11.287L10.5149 15.6213C10.5719 15.8493 10.78 16.0068 11.0149 15.9998C11.2498 15.9928 11.4481 15.8231 11.4914 15.5921L12.6011 9.67391L14.0192 14.6374C14.0759 14.8356 14.2484 14.9788 14.4537 14.9979C14.659 15.0169 14.855 14.908 14.9472 14.7236L15.809 13H18.5C18.7761 13 19 12.7761 19 12.5C19 12.2239 18.7761 12 18.5 12H15.5C15.3106 12 15.1375 12.107 15.0528 12.2764L14.6276 13.1267L12.9808 7.36264Z" fill="black"/>
</svg>
