<svg width="32" height="32" viewBox="0 0 32 32" fill="none" xmlns="http://www.w3.org/2000/svg">
<g opacity="0.9">
<path d="M17.4851 11.3787C17.4283 11.1518 17.2219 10.9946 16.9881 11.0001C16.7543 11.0057 16.5556 11.1726 16.5097 11.4019L14.9458 19.2216L13.4851 13.3787C13.4294 13.1562 13.2294 13 13 13C12.7706 13 12.5706 13.1562 12.5149 13.3787L11.6096 17H8.5C8.22386 17 8 17.2239 8 17.5C8 17.7761 8.22386 18 8.5 18H12C12.2294 18 12.4294 17.8439 12.4851 17.6213L13 15.5616L14.5149 21.6213C14.5717 21.8482 14.7781 22.0054 15.0119 21.9999C15.2457 21.9943 15.4444 21.8274 15.4903 21.5981L17.0542 13.7784L18.5149 19.6213C18.5706 19.8439 18.7706 20 19 20C19.2294 20 19.4294 19.8439 19.4851 19.6213L19.8904 18H23.5C23.7761 18 24 17.7761 24 17.5C24 17.2239 23.7761 17 23.5 17H19.5C19.2706 17 19.0706 17.1562 19.0149 17.3787L19 17.4384L17.4851 11.3787Z" fill="black"/>
<path fill-rule="evenodd" clip-rule="evenodd" d="M16.5 5.93699C17.3626 5.71497 18 4.93192 18 4C18 2.89543 17.1046 2 16 2C14.8954 2 14 2.89543 14 4C14 4.93192 14.6374 5.71497 15.5 5.93699V8H7C5.34315 8 4 9.34315 4 11V14H3C2.44772 14 2 14.4477 2 15V18C2 18.5523 2.44772 19 3 19H4V22C4 23.6569 5.34315 25 7 25H25C26.6569 25 28 23.6569 28 22V19H29C29.5523 19 30 18.5523 30 18V15C30 14.4477 29.5523 14 29 14H28V11C28 9.34315 26.6569 8 25 8H16.5V5.93699ZM16 5C16.5523 5 17 4.55228 17 4C17 3.44772 16.5523 3 16 3C15.4477 3 15 3.44772 15 4C15 4.55228 15.4477 5 16 5ZM29 18H28V15H29V18ZM27 11V22C27 23.1046 26.1046 24 25 24H7C5.89543 24 5 23.1046 5 22V11C5 9.89543 5.89543 9 7 9H25C26.1046 9 27 9.89543 27 11ZM3 15H4V18H3V15Z" fill="black"/>
</g>
</svg>
