<svg width="16" height="16" viewBox="0 0 16 16" fill="none" xmlns="http://www.w3.org/2000/svg">
<path opacity="0.9" fill-rule="evenodd" clip-rule="evenodd" d="M9 1C9 1.37014 8.7989 1.69331 8.5 1.86622V3H13C14.1046 3 15 3.89543 15 5V7C15.5523 7 16 7.44772 16 8V9C16 9.55229 15.5523 10 15 10V11C15 12.1046 14.1046 13 13 13H3C1.89543 13 1 12.1046 1 11V10C0.447715 10 0 9.55228 0 9V8C0 7.44772 0.447715 7 1 7V5C1 3.89543 1.89543 3 3 3H7.5V1.86622C7.2011 1.69331 7 1.37014 7 1C7 0.447715 7.44772 0 8 0C8.55229 0 9 0.447715 9 1ZM8.97434 5.34189C8.9054 5.13507 8.71041 4.99676 8.49243 5.00006C8.27445 5.00336 8.08373 5.14751 8.02109 5.35633L7.04384 8.61381L6.48507 6.37873C6.43432 6.17574 6.26255 6.02582 6.05456 6.00299C5.84657 5.98015 5.64636 6.08924 5.55279 6.27639L4.69098 8H3.5C3.22386 8 3 8.22386 3 8.5C3 8.77614 3.22386 9 3.5 9H5C5.18939 9 5.36252 8.893 5.44721 8.72361L5.84275 7.93254L6.51493 10.6213C6.56953 10.8397 6.76333 10.9946 6.98838 10.9999C7.21343 11.0051 7.41423 10.8593 7.47891 10.6437L8.52509 7.15641L9.52566 10.1581C9.58605 10.3393 9.74436 10.4702 9.93363 10.4956C10.1229 10.5209 10.3101 10.4362 10.416 10.2773L11.2676 9H12.5C12.7761 9 13 8.77614 13 8.5C13 8.22386 12.7761 8 12.5 8H11C10.8328 8 10.6767 8.08355 10.584 8.22265L10.1511 8.87203L8.97434 5.34189Z" fill="black"/>
</svg>
