<svg width="32" height="32" viewBox="0 0 32 32" fill="none" xmlns="http://www.w3.org/2000/svg">
<path opacity="0.9" fill-rule="evenodd" clip-rule="evenodd" d="M18 4C18 4.93192 17.3626 5.71497 16.5 5.93699V8H25C26.6569 8 28 9.34315 28 11V14H29C29.5523 14 30 14.4477 30 15V18C30 18.5523 29.5523 19 29 19H28V22C28 23.6569 26.6569 25 25 25H7C5.34315 25 4 23.6569 4 22V19H3C2.44772 19 2 18.5523 2 18V15C2 14.4477 2.44772 14 3 14H4V11C4 9.34315 5.34315 8 7 8H15.5V5.93699C14.6374 5.71497 14 4.93192 14 4C14 2.89543 14.8954 2 16 2C17.1046 2 18 2.89543 18 4ZM17.4851 11.3787C17.4283 11.1518 17.2219 10.9946 16.9881 11.0001C16.7543 11.0057 16.5556 11.1726 16.5097 11.4019L14.9458 19.2216L13.4851 13.3787C13.4294 13.1561 13.2294 13 13 13C12.7706 13 12.5706 13.1561 12.5149 13.3787L11.6096 17H8.5C8.22386 17 8 17.2239 8 17.5C8 17.7761 8.22386 18 8.5 18H12C12.2294 18 12.4294 17.8439 12.4851 17.6213L13 15.5616L14.5149 21.6213C14.5717 21.8482 14.7781 22.0054 15.0119 21.9999C15.2457 21.9943 15.4444 21.8274 15.4903 21.5981L17.0542 13.7784L18.5149 19.6213C18.5706 19.8439 18.7706 20 19 20C19.2294 20 19.4294 19.8439 19.4851 19.6213L19.8904 18H23.5C23.7761 18 24 17.7761 24 17.5C24 17.2239 23.7761 17 23.5 17H19.5C19.2706 17 19.0706 17.1561 19.0149 17.3787L19 17.4384L17.4851 11.3787Z" fill="black"/>
</svg>
