<svg width="16" height="16" viewBox="0 0 16 16" fill="none" xmlns="http://www.w3.org/2000/svg">
<path opacity="0.9" fill-rule="evenodd" clip-rule="evenodd" d="M2.5 1C1.11929 1 0 2.11929 0 3.5V10.5C0 11.8807 1.11929 13 2.5 13H6V13.2929L5.14645 14.1464C5.00345 14.2894 4.96067 14.5045 5.03806 14.6913C5.11545 14.8782 5.29777 15 5.5 15H10.5C10.7022 15 10.8845 14.8782 10.9619 14.6913C11.0393 14.5045 10.9966 14.2894 10.8536 14.1464L10 13.2929V13H13.5C14.8807 13 16 11.8807 16 10.5V3.5C16 2.11929 14.8807 1 13.5 1H2.5ZM15 10V3.5C15 2.67157 14.3284 2 13.5 2H2.5C1.67157 2 1 2.67157 1 3.5V10H15Z" fill="black"/>
</svg>
