<svg width="32" height="32" viewBox="0 0 32 32" fill="none" xmlns="http://www.w3.org/2000/svg">
<g opacity="0.9">
<path fill-rule="evenodd" clip-rule="evenodd" d="M7.5 8C6.67157 8 6 8.67157 6 9.5V19.5C6 20.3284 6.67157 21 7.5 21H24.5C25.3284 21 26 20.3284 26 19.5V9.5C26 8.67157 25.3284 8 24.5 8H7.5ZM7 9.5C7 9.22386 7.22386 9 7.5 9H24.5C24.7761 9 25 9.22386 25 9.5V19.5C25 19.7761 24.7761 20 24.5 20H7.5C7.22386 20 7 19.7761 7 19.5V9.5Z" fill="black"/>
<path fill-rule="evenodd" clip-rule="evenodd" d="M4 8.5C4 7.11929 5.11929 6 6.5 6H25.5C26.8807 6 28 7.11929 28 8.5V21.5C28 22.8807 26.8807 24 25.5 24H18V25.1396L20.6581 26.0257C20.8907 26.1032 21.0328 26.338 20.9935 26.5801C20.9542 26.8222 20.7452 27 20.5 27H11.5C11.2548 27 11.0457 26.8222 11.0064 26.5801C10.9672 26.338 11.1092 26.1032 11.3419 26.0257L14 25.1396V24H6.5C5.11929 24 4 22.8807 4 21.5V8.5ZM15 24H17V25.5C17 25.7152 17.1377 25.9063 17.3419 25.9743L17.4188 26H14.5811L14.6581 25.9743C14.8623 25.9063 15 25.7152 15 25.5V24ZM25.5 23H6.5C5.67157 23 5 22.3284 5 21.5V8.5C5 7.67157 5.67157 7 6.5 7H25.5C26.3284 7 27 7.67157 27 8.5V21.5C27 22.3284 26.3284 23 25.5 23Z" fill="black"/>
</g>
</svg>
