<svg width="16" height="16" viewBox="0 0 16 16" fill="none" xmlns="http://www.w3.org/2000/svg">
<path opacity="0.9" fill-rule="evenodd" clip-rule="evenodd" d="M0 3.5C0 2.11929 1.11929 1 2.5 1H13.5C14.8807 1 16 2.11929 16 3.5V10.5C16 11.8807 14.8807 13 13.5 13H10V13.2929L10.8536 14.1464C10.9966 14.2894 11.0393 14.5045 10.962 14.6913C10.8846 14.8782 10.7022 15 10.5 15H5.50001C5.29778 15 5.11547 14.8782 5.03807 14.6913C4.96068 14.5045 5.00346 14.2894 5.14646 14.1464L6.00001 13.2929V13H2.5C1.11929 13 0 11.8807 0 10.5V3.5ZM7.00001 13H9.00002V13.5C9.00002 13.6326 9.05269 13.7598 9.14646 13.8536L9.29291 14H6.70712L6.85357 13.8536C6.94734 13.7598 7.00001 13.6326 7.00001 13.5V13ZM13.5 12H2.5C1.84689 12 1.29127 11.5826 1.08535 11H14.9146C14.7087 11.5826 14.1531 12 13.5 12ZM15 10H1V3.5C1 2.67157 1.67157 2 2.5 2H13.5C14.3284 2 15 2.67157 15 3.5V10Z" fill="black"/>
</svg>
