<svg width="32" height="32" viewBox="0 0 32 32" fill="none" xmlns="http://www.w3.org/2000/svg">
<path opacity="0.9" fill-rule="evenodd" clip-rule="evenodd" d="M4 8.5C4 7.11929 5.11929 6 6.5 6H25.5C26.8807 6 28 7.11929 28 8.5V21.5C28 22.8807 26.8807 24 25.5 24H18V25.1396L20.6581 26.0257C20.8908 26.1032 21.0328 26.338 20.9935 26.5801C20.9543 26.8222 20.7452 27 20.5 27H11.5C11.2548 27 11.0457 26.8222 11.0065 26.5801C10.9672 26.338 11.1092 26.1032 11.3419 26.0257L14 25.1396V24H6.5C5.11929 24 4 22.8807 4 21.5V8.5ZM6 9C6 8.44772 6.44772 8 7 8H25C25.5523 8 26 8.44771 26 9V20C26 20.5523 25.5523 21 25 21H7C6.44772 21 6 20.5523 6 20V9Z" fill="black"/>
</svg>
