<svg width="32" height="32" viewBox="0 0 32 32" fill="none" xmlns="http://www.w3.org/2000/svg">
<g opacity="0.9">
<path fill-rule="evenodd" clip-rule="evenodd" d="M18.2322 4.8172C18.7639 5.28988 19.1327 5.95431 19.2349 6.78538C20.1626 6.87028 21.2493 7.21585 22.1572 8.03287C23.2371 9.00471 24 10.5858 24 13V20.2573C24 20.4737 24.0793 20.7087 24.2431 20.9861C24.4089 21.267 24.6343 21.5484 24.8901 21.8674L24.8913 21.8689C25.1365 22.1748 25.4107 22.5167 25.62 22.8775C25.8318 23.2426 26 23.664 26 24.1366V24.5C26 24.7761 25.7761 25 25.5 25H6.5C6.22386 25 6 24.7761 6 24.5V24.1366C6 23.6641 6.16822 23.2426 6.38001 22.8775C6.58931 22.5167 6.86346 22.1748 7.10866 21.869L7.1099 21.8674C7.36569 21.5484 7.59111 21.267 7.75693 20.9861C7.92073 20.7087 8 20.4737 8 20.2573V13C8 10.5858 8.76289 9.00471 9.8428 8.03287C10.7507 7.21585 11.8374 6.87028 12.765 6.78538C12.8672 5.9543 13.236 5.28987 13.7678 4.8172C14.3888 4.26525 15.2025 4 16 4C16.7974 4 17.6112 4.26525 18.2322 4.8172ZM13.2939 19.9928C13.6847 20.3837 14.319 20.3837 14.7098 19.9928L21.3558 13.347C21.5511 13.1517 21.5509 12.8353 21.3554 12.6403C21.1599 12.4453 20.8431 12.4454 20.6479 12.6407L14.0019 19.2866L11.3559 16.6405C11.1606 16.4453 10.8438 16.4451 10.6483 16.6401C10.4528 16.8351 10.4526 17.1515 10.6479 17.3468L13.2939 19.9928Z" fill="black"/>
<path d="M12.8368 26C13.3985 27.1825 14.6038 28 16 28C17.3962 28 18.6015 27.1825 19.1632 26H12.8368Z" fill="black"/>
</g>
</svg>
