<svg width="24" height="24" viewBox="0 0 24 24" fill="none" xmlns="http://www.w3.org/2000/svg">
<path opacity="0.9" fill-rule="evenodd" clip-rule="evenodd" d="M2 12C2 6.47715 6.47715 2 12 2C17.5228 2 22 6.47715 22 12C22 17.5228 17.5228 22 12 22C6.47715 22 2 17.5228 2 12ZM12 5.5C12 5.22386 11.7761 5 11.5 5C11.2239 5 11 5.22386 11 5.5V12.5C11 12.6894 11.107 12.8625 11.2764 12.9472L15.2764 14.9472C15.5234 15.0707 15.8237 14.9706 15.9472 14.7236C16.0707 14.4766 15.9706 14.1763 15.7236 14.0528L12 12.191V5.5Z" fill="black"/>
</svg>
