<svg width="32" height="32" viewBox="0 0 32 32" fill="none" xmlns="http://www.w3.org/2000/svg">
<path opacity="0.9" d="M13.5 26.5C12.9477 26.5 12.5 26.9477 12.5 27.5C12.5 28.0523 12.9477 28.5 13.5 28.5H11C10.1716 28.5 9.5 27.8284 9.5 27V5C9.5 4.17157 10.1716 3.5 11 3.5H21C21.8284 3.5 22.5 4.17157 22.5 5V27C22.5 27.8284 21.8284 28.5 21 28.5H18.5C19.0523 28.5 19.5 28.0523 19.5 27.5C19.5 26.9477 19.0523 26.5 18.5 26.5M13.5 26.5H15.5C14.9477 26.5 14.5 26.0523 14.5 25.5C14.5 26.0523 14.0523 26.5 13.5 26.5ZM13.5 26.5H12.5C11.9477 26.5 11.5 26.0523 11.5 25.5V24.5C11.5 23.9477 11.9477 23.5 12.5 23.5H13.5C14.0523 23.5 14.5 23.9477 14.5 24.5C14.5 23.9477 14.9477 23.5 15.5 23.5H16.5C17.0523 23.5 17.5 23.9477 17.5 24.5C17.5 23.9477 17.9477 23.5 18.5 23.5H19.5C20.0523 23.5 20.5 23.9477 20.5 24.5V25.5C20.5 26.0523 20.0523 26.5 19.5 26.5H18.5M18.5 26.5C17.9477 26.5 17.5 26.0523 17.5 25.5C17.5 26.0523 17.0523 26.5 16.5 26.5H18.5ZM15.5 6.5C14.9477 6.5 14.5 6.94772 14.5 7.5C14.5 6.94772 14.0523 6.5 13.5 6.5H12.5C11.9477 6.5 11.5 6.94771 11.5 7.5V8.5C11.5 9.05229 11.9477 9.5 12.5 9.5C11.9477 9.5 11.5 9.94771 11.5 10.5V11.5C11.5 12.0523 11.9477 12.5 12.5 12.5H13.5C14.0523 12.5 14.5 12.0523 14.5 11.5C14.5 12.0523 14.9477 12.5 15.5 12.5H16.5C17.0523 12.5 17.5 12.0523 17.5 11.5V10.5C17.5 9.94771 17.0523 9.5 16.5 9.5C17.0523 9.5 17.5 9.05229 17.5 8.5C17.5 9.05229 17.9477 9.5 18.5 9.5H19.5C20.0523 9.5 20.5 9.05229 20.5 8.5V7.5C20.5 6.94771 20.0523 6.5 19.5 6.5H18.5C17.9477 6.5 17.5 6.94771 17.5 7.5C17.5 6.94772 17.0523 6.5 16.5 6.5H15.5ZM14.5 8.5C14.5 9.05229 14.9477 9.5 15.5 9.5C14.9477 9.5 14.5 9.94771 14.5 10.5C14.5 9.94771 14.0523 9.5 13.5 9.5C14.0523 9.5 14.5 9.05229 14.5 8.5Z" fill="black" stroke="black"/>
</svg>
