<svg width="16" height="16" viewBox="0 0 16 16" fill="none" xmlns="http://www.w3.org/2000/svg">
<path opacity="0.9" d="M6.5 13.5C5.94772 13.5 5.5 13.9477 5.5 14.5C5.5 15.0523 5.94772 15.5 6.5 15.5H4.5C3.94772 15.5 3.5 15.0523 3.5 14.5V1.5C3.5 0.947715 3.94772 0.5 4.5 0.5H10.5C11.0523 0.5 11.5 0.947715 11.5 1.5V14.5C11.5 15.0523 11.0523 15.5 10.5 15.5H8.5C9.05228 15.5 9.5 15.0523 9.5 14.5C9.5 13.9477 9.05228 13.5 8.5 13.5M6.5 13.5H8.5M6.5 13.5H5.5C4.94772 13.5 4.5 13.0523 4.5 12.5V11.5C4.5 10.9477 4.94772 10.5 5.5 10.5H6.5C7.05228 10.5 7.5 10.9477 7.5 11.5C7.5 10.9477 7.94771 10.5 8.5 10.5H9.5C10.0523 10.5 10.5 10.9477 10.5 11.5V12.5C10.5 13.0523 10.0523 13.5 9.5 13.5H8.5M6.5 13.5C7.05228 13.5 7.5 13.0523 7.5 12.5C7.5 13.0523 7.94771 13.5 8.5 13.5M5.5 2.5C4.94772 2.5 4.5 2.94772 4.5 3.5V4.5C4.5 5.05229 4.94772 5.5 5.5 5.5C4.94772 5.5 4.5 5.94771 4.5 6.5V7.5C4.5 8.05229 4.94772 8.5 5.5 8.5H6.5C7.05228 8.5 7.5 8.05229 7.5 7.5V6.5C7.5 5.94771 7.05228 5.5 6.5 5.5C7.05228 5.5 7.5 5.05229 7.5 4.5C7.5 5.05229 7.94771 5.5 8.5 5.5H9.5C10.0523 5.5 10.5 5.05229 10.5 4.5V3.5C10.5 2.94772 10.0523 2.5 9.5 2.5H8.5C7.94771 2.5 7.5 2.94772 7.5 3.5C7.5 2.94772 7.05228 2.5 6.5 2.5H5.5Z" fill="black" stroke="black"/>
</svg>
