<svg width="16" height="16" viewBox="0 0 16 16" fill="none" xmlns="http://www.w3.org/2000/svg">
<g opacity="0.9">
<path d="M5.5 11C5.22386 11 5 11.2239 5 11.5V12.5C5 12.7761 5.22386 13 5.5 13H6.5C6.77614 13 7 12.7761 7 12.5V11.5C7 11.2239 6.77614 11 6.5 11H5.5Z" fill="black"/>
<path d="M5 3.5C5 3.22386 5.22386 3 5.5 3H6.5C6.77614 3 7 3.22386 7 3.5V4.5C7 4.77614 6.77614 5 6.5 5H5.5C5.22386 5 5 4.77614 5 4.5V3.5Z" fill="black"/>
<path d="M8.5 11C8.22386 11 8 11.2239 8 11.5V12.5C8 12.7761 8.22386 13 8.5 13H9.5C9.77614 13 10 12.7761 10 12.5V11.5C10 11.2239 9.77614 11 9.5 11H8.5Z" fill="black"/>
<path d="M8 3.5C8 3.22386 8.22386 3 8.5 3H9.5C9.77614 3 10 3.22386 10 3.5V4.5C10 4.77614 9.77614 5 9.5 5H8.5C8.22386 5 8 4.77614 8 4.5V3.5Z" fill="black"/>
<path d="M5.5 6C5.22386 6 5 6.22386 5 6.5V7.5C5 7.77614 5.22386 8 5.5 8H6.5C6.77614 8 7 7.77614 7 7.5V6.5C7 6.22386 6.77614 6 6.5 6H5.5Z" fill="black"/>
<path fill-rule="evenodd" clip-rule="evenodd" d="M10.5 0C11.3284 0 12 0.671573 12 1.5V14.5C12 15.3284 11.3284 16 10.5 16H4.5C3.67157 16 3 15.3284 3 14.5V1.5C3 0.671573 3.67157 0 4.5 0H10.5ZM9 1H10.5C10.7761 1 11 1.22386 11 1.5V14.5C11 14.7761 10.7761 15 10.5 15H8.5C8.77614 15 9 14.7761 9 14.5C9 14.2239 8.77614 14 8.5 14H6.5C6.22386 14 6 14.2239 6 14.5C6 14.7761 6.22386 15 6.5 15H4.5C4.22386 15 4 14.7761 4 14.5V1.5C4 1.22386 4.22386 1 4.5 1H6C6 1.55228 6.44772 2 7 2H8C8.55228 2 9 1.55228 9 1Z" fill="black"/>
</g>
</svg>
