<svg width="16" height="16" viewBox="0 0 16 16" fill="none" xmlns="http://www.w3.org/2000/svg">
<path opacity="0.9" fill-rule="evenodd" clip-rule="evenodd" d="M12.3258 11.8546C13.3664 10.7021 14 9.17505 14 7.5C14 3.91015 11.0899 1 7.5 1C3.91015 1 1 3.91015 1 7.5C1 11.0899 3.91015 14 7.5 14C9.05893 14 10.4897 13.4512 11.6096 12.5363C11.6261 12.5599 11.645 12.5824 11.6661 12.6035L14.7089 15.6464C14.9042 15.8417 15.2208 15.8417 15.4161 15.6464C15.6113 15.4511 15.6113 15.1346 15.4161 14.9393L12.3732 11.8964C12.3581 11.8813 12.3422 11.8674 12.3258 11.8546Z" fill="black"/>
</svg>
