<svg width="16" height="16" viewBox="0 0 16 16" fill="none" xmlns="http://www.w3.org/2000/svg">
<path fill-rule="evenodd" clip-rule="evenodd" d="M5.62469 5.30011L8 7.20035V6.08098C8 5.24247 8.96993 4.7763 9.62469 5.30011L12.0239 7.21949C12.5243 7.61981 12.5243 8.3809 12.0239 8.78122L9.6247 10.7006C8.96993 11.2244 8 10.7582 8 9.91973V8.80035L5.6247 10.7006C4.96993 11.2244 4 10.7582 4 9.91973V6.08098C4 5.24247 4.96993 4.7763 5.62469 5.30011ZM5 9.91973L7.39922 8.00035L5 6.08098L5 9.91973ZM9 9.91973L11.3992 8.00035L9 6.08098V9.91973Z" fill="black"/>
<path fill-rule="evenodd" clip-rule="evenodd" d="M1 8C1 11.866 4.13401 15 8 15C11.866 15 15 11.866 15 8C15 4.13401 11.866 1 8 1C4.13401 1 1 4.13401 1 8ZM2 8C2 11.3137 4.68629 14 8 14C11.3137 14 14 11.3137 14 8C14 4.68629 11.3137 2 8 2C4.68629 2 2 4.68629 2 8Z" fill="black"/>
</svg>
