<svg width="16" height="16" viewBox="0 0 16 16" fill="none" xmlns="http://www.w3.org/2000/svg">
<g opacity="0.9">
<path d="M9 9.5C9 9.36739 9.05268 9.24022 9.14645 9.14645C9.24021 9.05268 9.36739 9 9.5 9H12.5C12.7761 9 13 9.22386 13 9.5C13 9.77614 12.7761 10 12.5 10H10.7071L14.8536 14.1464C15.0488 14.3417 15.0488 14.6583 14.8536 14.8536C14.6583 15.0488 14.3417 15.0488 14.1464 14.8536L10 10.7071V12.5C10 12.7761 9.77614 13 9.5 13C9.22386 13 9 12.7761 9 12.5V9.5Z" fill="black"/>
<path d="M7 6.5C7 6.63261 6.94732 6.75979 6.85355 6.85355C6.75979 6.94732 6.63261 7 6.5 7H3.5C3.22386 7 3 6.77614 3 6.5C3 6.22386 3.22386 6 3.5 6H5.29289L1.14645 1.85355C0.951185 1.65829 0.951185 1.34171 1.14645 1.14645C1.34171 0.951184 1.65829 0.951184 1.85355 1.14645L6 5.29289V3.5C6 3.22386 6.22386 3 6.5 3C6.77614 3 7 3.22386 7 3.5V6.5Z" fill="black"/>
</g>
</svg>
