<svg width="32" height="32" viewBox="0 0 32 32" fill="none" xmlns="http://www.w3.org/2000/svg">
<g opacity="0.9">
<path d="M17 17.5C17 17.2239 17.2239 17 17.5 17H24.5C24.7761 17 25 17.2239 25 17.5C25 17.7761 24.7761 18 24.5 18H18.7071L26.8536 26.1464C27.0488 26.3417 27.0488 26.6583 26.8536 26.8536C26.6583 27.0488 26.3417 27.0488 26.1464 26.8536L18 18.7071V24.5C18 24.7761 17.7761 25 17.5 25C17.2239 25 17 24.7761 17 24.5V17.5Z" fill="black"/>
<path d="M15 14.5C15 14.7761 14.7761 15 14.5 15H7.5C7.22386 15 7 14.7761 7 14.5C7 14.2239 7.22386 14 7.5 14L13.2929 14L5.14645 5.85355C4.95118 5.65829 4.95118 5.34171 5.14645 5.14645C5.34171 4.95118 5.65829 4.95118 5.85355 5.14645L14 13.2929V7.5C14 7.22385 14.2239 7 14.5 7C14.7761 7 15 7.22385 15 7.5V14.5Z" fill="black"/>
</g>
</svg>
