<svg width="24" height="24" viewBox="0 0 24 24" fill="none" xmlns="http://www.w3.org/2000/svg">
<g opacity="0.9">
<path d="M18.5 14H14.7071L20.8536 20.1465C21.0488 20.3417 21.0488 20.6583 20.8536 20.8536C20.6583 21.0488 20.3417 21.0488 20.1465 20.8536L14 14.7071L14 18.5C14 18.7761 13.7761 19 13.5 19C13.2239 19 13 18.7761 13 18.5V13.5C13 13.2239 13.2239 13 13.5 13H18.5C18.7761 13 19 13.2239 19 13.5C19 13.7761 18.7761 14 18.5 14Z" fill="black"/>
<path d="M5.5 10H9.29289L3.14645 3.85355C2.95118 3.65829 2.95118 3.34171 3.14645 3.14645C3.34171 2.95118 3.65829 2.95118 3.85355 3.14645L10 9.29289V5.5C10 5.22386 10.2239 5 10.5 5C10.7761 5 11 5.22386 11 5.5V10.5C11 10.7761 10.7761 11 10.5 11H5.5C5.22386 11 5 10.7761 5 10.5C5 10.2239 5.22386 10 5.5 10Z" fill="black"/>
</g>
</svg>
