<svg width="16" height="16" viewBox="0 0 16 16" fill="none" xmlns="http://www.w3.org/2000/svg">
<g opacity="0.9">
<path fill-rule="evenodd" clip-rule="evenodd" d="M12.8536 2.14645C12.6583 1.95118 12.3417 1.95118 12.1464 2.14645L6.64645 7.64645C6.45118 7.84171 6.45118 8.15829 6.64645 8.35355L12.1464 13.8536C12.3417 14.0488 12.6583 14.0488 12.8536 13.8536C13.0488 13.6583 13.0488 13.3417 12.8536 13.1464L7.70711 8L12.8536 2.85355C13.0488 2.65829 13.0488 2.34171 12.8536 2.14645Z" fill="black"/>
<path fill-rule="evenodd" clip-rule="evenodd" d="M8.85355 2.14645C8.65829 1.95118 8.34171 1.95118 8.14645 2.14645L2.64645 7.64645C2.45118 7.84171 2.45118 8.15829 2.64645 8.35355L8.14645 13.8536C8.34171 14.0488 8.65829 14.0488 8.85355 13.8536C9.04882 13.6583 9.04882 13.3417 8.85355 13.1464L3.70711 8L8.85355 2.85355C9.04882 2.65829 9.04882 2.34171 8.85355 2.14645Z" fill="black"/>
</g>
</svg>
