<svg width="16" height="16" viewBox="0 0 16 16" fill="none" xmlns="http://www.w3.org/2000/svg">
<g opacity="0.9">
<path d="M8 9.79289L5.85355 7.64645C5.65829 7.45118 5.34171 7.45118 5.14645 7.64645C4.95118 7.84171 4.95118 8.15829 5.14645 8.35355L8.5 11.7071L11.8536 8.35355C12.0488 8.15829 12.0488 7.84171 11.8536 7.64645C11.6583 7.45118 11.3417 7.45118 11.1464 7.64645L9 9.79289L9 0.5C9 0.223858 8.77614 -1.20708e-08 8.5 0C8.22386 1.20708e-08 8 0.223858 8 0.5L8 9.79289Z" fill="black"/>
<path d="M2 3.00008C1.44772 3.00008 1 3.44779 1 4.00008V5.00008H5.5C5.77614 5.00008 6 5.22393 6 5.50008C6 5.77622 5.77614 6.00008 5.5 6.00008H2V12.0001C2 12.5524 2.44772 13.0001 3 13.0001H13C13.5523 13.0001 14 12.5524 14 12.0001V6.00008H11.5C11.2239 6.00008 11 5.77622 11 5.50008C11 5.22393 11.2239 5.00008 11.5 5.00008H15V4.00008C15 3.44779 14.5523 3.00008 14 3.00008H11.5C11.2239 3.00008 11 2.77622 11 2.50008C11 2.22393 11.2239 2.00008 11.5 2.00008H14C15.1046 2.00008 16 2.89551 16 4.00008V5.00008C16 5.55236 15.5523 6.00008 15 6.00008V12.0001C15 13.1046 14.1046 14.0001 13 14.0001H3C1.89543 14.0001 1 13.1046 1 12.0001L1 6.00008C0.447716 6.00008 0 5.55236 0 5.00008V4.00008C0 2.89551 0.895431 2.00008 2 2.00008H5.5C5.77614 2.00008 6 2.22393 6 2.50008C6 2.77622 5.77614 3.00008 5.5 3.00008H2Z" fill="black"/>
</g>
</svg>
