<svg width="24" height="24" viewBox="0 0 24 24" fill="none" xmlns="http://www.w3.org/2000/svg">
<path opacity="0.9" fill-rule="evenodd" clip-rule="evenodd" d="M9.85355 12.1464C9.65829 11.9512 9.34171 11.9512 9.14645 12.1464C8.95118 12.3417 8.95118 12.6583 9.14645 12.8536L12.5 16.2071L15.8536 12.8536C16.0488 12.6583 16.0488 12.3417 15.8536 12.1464C15.6583 11.9512 15.3417 11.9512 15.1464 12.1464L13 14.2929L13 1.5C13 1.22386 12.7761 1 12.5 1C12.2239 1 12 1.22386 12 1.5L12 14.2929L9.85355 12.1464ZM8.08579 11.0858C7.30474 11.8669 7.30474 13.1332 8.08579 13.9142L12.5 18.3284L16.9142 13.9142C17.6953 13.1332 17.6953 11.8669 16.9142 11.0858C16.2598 10.4314 15.2649 10.3253 14.5 10.7674V8H21.5C21.7761 8 22 8.22386 22 8.5V19C22 20.1046 21.1046 21 20 21H4C2.89543 21 2 20.1046 2 19V8.5C2 8.22386 2.22386 8 2.5 8H10.5V10.7674C9.73514 10.3253 8.74015 10.4314 8.08579 11.0858ZM22.5 7H14.5V3H21C22.1046 3 23 3.89543 23 5V6.5C23 6.77614 22.7761 7 22.5 7ZM3 3H10.5V7H1.5C1.22386 7 1 6.77614 1 6.5V5C1 3.89543 1.89543 3 3 3Z" fill="black"/>
</svg>
