<svg width="16" height="16" viewBox="0 0 16 16" fill="none" xmlns="http://www.w3.org/2000/svg">
<g opacity="0.9">
<path fill-rule="evenodd" clip-rule="evenodd" d="M7.5 0C6.82312 0 6.25095 0.448346 6.06427 1.06427C5.44835 1.25095 5 1.82312 5 2.5C5 3.32843 5.67157 4 6.5 4H9.5C10.3284 4 11 3.32843 11 2.5C11 1.82312 10.5517 1.25095 9.93573 1.06427C9.74905 0.448346 9.17688 0 8.5 0H7.5ZM6.35433 2.02128C6.67411 1.92435 6.92435 1.67411 7.02128 1.35433C7.08374 1.14825 7.27586 1 7.5 1H8.5C8.72414 1 8.91626 1.14825 8.97872 1.35433C9.07565 1.67411 9.32589 1.92435 9.64567 2.02128C9.85175 2.08374 10 2.27586 10 2.5C10 2.77614 9.77614 3 9.5 3H6.5C6.22386 3 6 2.77614 6 2.5C6 2.27586 6.14825 2.08374 6.35433 2.02128Z" fill="black"/>
<path d="M3.5 2H4.04998C4.01721 2.16151 4 2.32872 4 2.5C4 3.88071 5.11929 5 6.5 5H9.5C10.8807 5 12 3.88071 12 2.5C12 2.32872 11.9828 2.16151 11.95 2H12.5C13.3284 2 14 2.67157 14 3.5V14.5C14 15.3284 13.3284 16 12.5 16H3.5C2.67157 16 2 15.3284 2 14.5V3.5C2 2.67157 2.67157 2 3.5 2Z" fill="black"/>
</g>
</svg>
