<svg width="24" height="24" viewBox="0 0 24 24" fill="none" xmlns="http://www.w3.org/2000/svg">
<g opacity="0.9">
<path fill-rule="evenodd" clip-rule="evenodd" d="M5.5 1C4.11929 1 3 2.11929 3 3.5V20.5C3 21.8807 4.11929 23 5.5 23H15.7251C14.6629 21.9972 14 20.576 14 19C14 15.9624 16.4624 13.5 19.5 13.5C20.02 13.5 20.5232 13.5722 21 13.707V6.57081L15.4098 1H5.5ZM20 7L15 2V5C15 6.10457 15.8954 7 17 7H20ZM10 6.5C10 5.67157 10.6716 5 11.5 5C12.3284 5 13 5.67157 13 6.5V13.5C13 13.7761 12.7761 14 12.5 14H10.5C10.2239 14 10 13.7761 10 13.5V6.5ZM6 8.5C6 7.67157 6.67157 7 7.5 7C8.32843 7 9 7.67157 9 8.5V13.5C9 13.7761 8.77614 14 8.5 14H6.5C6.22386 14 6 13.7761 6 13.5V8.5ZM14 10.5C14 9.67157 14.6716 9 15.5 9C16.3284 9 17 9.67157 17 10.5V13.5C17 13.7761 16.7761 14 16.5 14H14.5C14.2239 14 14 13.7761 14 13.5V10.5Z" fill="black"/>
<path fill-rule="evenodd" clip-rule="evenodd" d="M20.3641 15H18.7641V16.1771C18.2896 16.3113 17.864 16.5619 17.52 16.8962L16.5 16.3073L15.7 17.6929L16.7194 18.2815C16.6615 18.5114 16.6308 18.7521 16.6308 19C16.6308 19.248 16.6616 19.4887 16.7195 19.7187L15.7 20.3073L16.5 21.6929L17.5201 21.104C17.8641 21.4381 18.2897 21.6887 18.7641 21.8229V23H20.3641V21.8229C20.8386 21.6887 21.2642 21.4381 21.6081 21.104L22.6282 21.6929L23.4282 20.3073L22.4088 19.7187C22.4667 19.4887 22.4975 19.248 22.4975 19C22.4975 18.7521 22.4667 18.5114 22.4088 18.2815L23.4282 17.6929L22.6282 16.3073L21.6082 16.8962C21.2643 16.5619 20.8386 16.3113 20.3641 16.1771V15ZM20.61 19C20.61 19.5523 20.1623 20 19.61 20C19.0577 20 18.61 19.5523 18.61 19C18.61 18.4477 19.0577 18 19.61 18C20.1623 18 20.61 18.4477 20.61 19Z" fill="black"/>
</g>
</svg>
