<svg width="16" height="16" viewBox="0 0 16 16" fill="none" xmlns="http://www.w3.org/2000/svg">
<g opacity="0.9">
<path fill-rule="evenodd" clip-rule="evenodd" d="M3.5 0C2.11929 0 1 1.11929 1 2.5V13.5C1 14.8807 2.11929 16 3.5 16H10.6962C9.67979 15.3876 9 14.2732 9 13C9 11.067 10.567 9.5 12.5 9.5C13.4793 9.5 14.3647 9.90223 15 10.5505V3.58271L11.3918 0H3.5ZM14 4L11 1V3C11 3.55228 11.4477 4 12 4H14ZM8 2C7.44772 2 7 2.44772 7 3V7.5C7 7.77614 7.22386 8 7.5 8H8.5C8.77614 8 9 7.77614 9 7.5V3C9 2.44772 8.55228 2 8 2ZM5 4C4.44772 4 4 4.44772 4 5V7.5C4 7.77614 4.22386 8 4.5 8H5.5C5.77614 8 6 7.77614 6 7.5V5C6 4.44772 5.55228 4 5 4ZM10 6C10 5.44772 10.4477 5 11 5C11.5523 5 12 5.44772 12 6V7.5C12 7.77614 11.7761 8 11.5 8H10.5C10.2239 8 10 7.77614 10 7.5V6Z" fill="black"/>
<path fill-rule="evenodd" clip-rule="evenodd" d="M12.4981 10C12.222 10 11.9981 10.2239 11.9981 10.5V10.6757C11.9981 10.9039 11.8401 11.0973 11.6343 11.196C11.5411 11.2407 11.4519 11.2924 11.3674 11.3504C11.1796 11.4793 10.9335 11.519 10.7361 11.405L10.5831 11.3166C10.3439 11.1784 10.0381 11.2604 9.89999 11.4996C9.76194 11.7387 9.84393 12.0445 10.0831 12.1825L10.2355 12.2704C10.4329 12.3843 10.5216 12.6173 10.5041 12.8445C10.5001 12.8958 10.4981 12.9477 10.4981 13C10.4981 13.0523 10.5001 13.1042 10.5041 13.1555C10.5216 13.3827 10.4329 13.6157 10.2355 13.7296L10.0831 13.8175C9.84393 13.9555 9.76194 14.2613 9.89999 14.5004C10.0381 14.7396 10.3439 14.8216 10.5831 14.6834L10.7361 14.595C10.9335 14.481 11.1796 14.5207 11.3674 14.6496C11.4519 14.7076 11.5411 14.7593 11.6343 14.804C11.8401 14.9027 11.9981 15.0961 11.9981 15.3243V15.5C11.9981 15.7761 12.222 16 12.4981 16C12.7742 16 12.9981 15.7761 12.9981 15.5V15.3244C12.9981 15.0961 13.1562 14.9027 13.362 14.804C13.4552 14.7593 13.5445 14.7076 13.629 14.6495C13.8172 14.5202 14.0637 14.4803 14.2613 14.5945L14.4131 14.6823C14.6522 14.8205 14.9582 14.7386 15.0963 14.4994C15.2343 14.2603 15.1523 13.9545 14.9132 13.8165L14.7612 13.7288C14.5637 13.6148 14.475 13.3816 14.4923 13.1542C14.4961 13.1033 14.4981 13.0519 14.4981 13C14.4981 12.9481 14.4961 12.8967 14.4923 12.8458C14.475 12.6184 14.5637 12.3852 14.7612 12.2712L14.9132 12.1835C15.1523 12.0455 15.2343 11.7397 15.0963 11.5006C14.9582 11.2614 14.6522 11.1795 14.4131 11.3177L14.2613 11.4055C14.0637 11.5197 13.8172 11.4798 13.629 11.3505C13.5445 11.2924 13.4552 11.2407 13.362 11.196C13.1562 11.0973 12.9981 10.9039 12.9981 10.6756V10.5C12.9981 10.2239 12.7742 10 12.4981 10ZM13.4981 13C13.4981 13.5523 13.0504 14 12.4981 14C11.9458 14 11.4981 13.5523 11.4981 13C11.4981 12.4477 11.9458 12 12.4981 12C13.0504 12 13.4981 12.4477 13.4981 13Z" fill="black"/>
</g>
</svg>
