<svg width="32" height="32" viewBox="0 0 32 32" fill="none" xmlns="http://www.w3.org/2000/svg">
<path opacity="0.9" d="M9 12.5H9.5V12V7C9.5 4.51472 11.5147 2.5 14 2.5H18C20.4853 2.5 22.5 4.51472 22.5 7V8C22.5 8.27614 22.2761 8.5 22 8.5C21.7239 8.5 21.5 8.27614 21.5 8V7C21.5 5.067 19.933 3.5 18 3.5H14C12.067 3.5 10.5 5.067 10.5 7V12V12.5H11H24C25.3807 12.5 26.5 13.6193 26.5 15V26C26.5 26.8284 25.8284 27.5 25 27.5H7C6.17157 27.5 5.5 26.8284 5.5 26V15C5.5 13.6193 6.61929 12.5 8 12.5H9ZM17.5 21.0001C18.1065 20.5446 18.5 19.8185 18.5 19C18.5 17.6193 17.3807 16.5 16 16.5C14.6193 16.5 13.5 17.6193 13.5 19C13.5 19.8185 13.8935 20.5446 14.5 21.0001V22C14.5 22.8284 15.1716 23.5 16 23.5C16.8284 23.5 17.5 22.8284 17.5 22V21.0001Z" fill="black" stroke="black"/>
</svg>
