<svg width="24" height="24" viewBox="0 0 24 24" fill="none" xmlns="http://www.w3.org/2000/svg">
<g opacity="0.9">
<path d="M13.5 14.5C13.5 15.0552 13.1984 15.54 12.75 15.7993V16.75C12.75 17.1642 12.4142 17.5 12 17.5C11.5858 17.5 11.25 17.1642 11.25 16.75V15.7993C10.8016 15.54 10.5 15.0552 10.5 14.5C10.5 13.6716 11.1716 13 12 13C12.8284 13 13.5 13.6716 13.5 14.5Z" fill="black"/>
<path fill-rule="evenodd" clip-rule="evenodd" d="M6 4.5C6 2.567 7.567 1 9.5 1H14.5C16.433 1 18 2.567 18 4.5V5.5C18 5.77614 17.7761 6 17.5 6C17.2239 6 17 5.77614 17 5.5V4.5C17 3.11929 15.8807 2 14.5 2H9.5C8.11929 2 7 3.11929 7 4.5V9H18C19.6569 9 21 10.3431 21 12V20C21 21.1046 20.1046 22 19 22H5C3.89543 22 3 21.1046 3 20V12C3 10.3431 4.34315 9 6 9V4.5ZM6 10H18C19.1046 10 20 10.8954 20 12V20C20 20.5523 19.5523 21 19 21H5C4.44772 21 4 20.5523 4 20V12C4 10.8954 4.89543 10 6 10Z" fill="black"/>
</g>
</svg>
