<svg width="24" height="24" viewBox="0 0 24 24" fill="none" xmlns="http://www.w3.org/2000/svg">
<g opacity="0.9">
<path d="M4.5 2C3.11929 2 2 3.11929 2 4.5V16.2891L2.50185 16.791L2.5 16.7928L4.49983 18.7927L6.99964 16.2925L7.70709 16.9999L11.207 13.5001L8.49985 10.793L3.20896 16.0839L3 15.8749V4.5C3 3.67157 3.67157 3 4.5 3H19.5C20.3284 3 21 3.67157 21 4.5V13.2931L16.9998 9.29297L10.5 15.7928L13.4999 18.7927L17.4999 14.7927L19.9998 17.2927L21.9998 15.2926L22 4.5C22 3.11929 20.8807 2 19.5 2H4.5Z" fill="black"/>
<path d="M8 9C9.10457 9 10 8.10457 10 7C10 5.89543 9.10457 5 8 5C6.89543 5 6 5.89543 6 7C6 8.10457 6.89543 9 8 9Z" fill="black"/>
</g>
</svg>
