<svg width="16" height="16" viewBox="0 0 16 16" fill="none" xmlns="http://www.w3.org/2000/svg">
<g opacity="0.9">
<path d="M1 3.5C1 2.11929 2.11929 1 3.5 1H12.5C13.8807 1 15 2.11929 15 3.5V9.793L12.5 12.2931L11 10.7931L8.5 13.2931L6 10.7931L11.5 5.29297L14 7.79297V3.5C14 2.67157 13.3284 2 12.5 2H3.5C2.67157 2 2 2.67157 2 3.5V9.79307L5.5 6.29297L7.20711 8.00008L2.70704 12.5001L1 10.7931L1.00353 10.7896L1 10.7861V3.5Z" fill="black"/>
<path d="M5 5C5.55228 5 6 4.55228 6 4C6 3.44772 5.55228 3 5 3C4.44772 3 4 3.44772 4 4C4 4.55228 4.44772 5 5 5Z" fill="black"/>
</g>
</svg>
