<svg width="24" height="24" viewBox="0 0 24 24" fill="none" xmlns="http://www.w3.org/2000/svg">
<path opacity="0.9" fill-rule="evenodd" clip-rule="evenodd" d="M2 12C2 6.47715 6.47715 2 12 2C17.5228 2 22 6.47715 22 12C22 17.5228 17.5228 22 12 22C6.47715 22 2 17.5228 2 12ZM8.5 11C9.32843 11 10 10.3284 10 9.5C10 8.67157 9.32843 8 8.5 8C7.67157 8 7 8.67157 7 9.5C7 10.3284 7.67157 11 8.5 11ZM12 13C13.4597 13 14.8627 13.5608 15.8997 14.5641C16.3282 14.9787 16.6798 15.4549 16.9449 15.9719C17.0709 16.2176 16.9739 16.5189 16.7281 16.6449C16.4824 16.7709 16.1811 16.6739 16.0551 16.4281C15.8401 16.0088 15.5542 15.6212 15.2044 15.2828C14.3573 14.4632 13.2049 14 12 14C10.7951 14 9.64271 14.4632 8.79558 15.2828C8.44577 15.6212 8.15994 16.0088 7.94491 16.4281C7.81891 16.6739 7.51757 16.7709 7.27185 16.6449C7.02613 16.5189 6.92908 16.2176 7.05509 15.9719C7.32018 15.4549 7.67176 14.9787 8.10026 14.5641C9.13727 13.5608 10.5403 13 12 13ZM17 9.5C17 10.3284 16.3284 11 15.5 11C14.6716 11 14 10.3284 14 9.5C14 8.67157 14.6716 8 15.5 8C16.3284 8 17 8.67157 17 9.5Z" fill="black"/>
</svg>
