<svg width="16" height="16" viewBox="0 0 16 16" fill="none" xmlns="http://www.w3.org/2000/svg">
<path opacity="0.9" fill-rule="evenodd" clip-rule="evenodd" d="M1 8C1 4.13401 4.13401 1 8 1C11.866 1 15 4.13401 15 8C15 11.866 11.866 15 8 15C4.13401 15 1 11.866 1 8ZM5.5 7C6.05229 7 6.5 6.55228 6.5 6C6.5 5.44772 6.05229 5 5.5 5C4.94772 5 4.5 5.44772 4.5 6C4.5 6.55228 4.94772 7 5.5 7ZM10.5 7C11.0523 7 11.5 6.55228 11.5 6C11.5 5.44772 11.0523 5 10.5 5C9.94772 5 9.5 5.44772 9.5 6C9.5 6.55228 9.94772 7 10.5 7ZM5.39523 9.58679C6.11181 9.20164 7.04915 9 8 9C8.95085 9 9.8882 9.20164 10.6048 9.58679C10.903 9.74707 11.1627 9.93904 11.3674 10.1609C11.5547 10.3638 11.542 10.6801 11.3391 10.8674C11.1362 11.0547 10.8199 11.042 10.6326 10.8391C10.5173 10.7142 10.352 10.5862 10.1313 10.4676C9.59182 10.1776 8.82554 10 8 10C7.17447 10 6.40818 10.1776 5.86866 10.4676C5.64799 10.5862 5.48274 10.7142 5.36741 10.8391C5.18012 11.042 4.86379 11.0547 4.66087 10.8674C4.45796 10.6801 4.44529 10.3638 4.63259 10.1609C4.83735 9.93904 5.09704 9.74707 5.39523 9.58679Z" fill="black"/>
</svg>
