<svg width="32" height="32" viewBox="0 0 32 32" fill="none" xmlns="http://www.w3.org/2000/svg">
<g opacity="0.9">
<path fill-rule="evenodd" clip-rule="evenodd" d="M13 13C13 14.1046 12.1046 15 11 15C9.89543 15 9 14.1046 9 13C9 11.8954 9.89543 11 11 11C12.1046 11 13 11.8954 13 13ZM12 13C12 13.5523 11.5523 14 11 14C10.4477 14 10 13.5523 10 13C10 12.4477 10.4477 12 11 12C11.5523 12 12 12.4477 12 13Z" fill="black"/>
<path fill-rule="evenodd" clip-rule="evenodd" d="M21 15C22.1046 15 23 14.1046 23 13C23 11.8954 22.1046 11 21 11C19.8954 11 19 11.8954 19 13C19 14.1046 19.8954 15 21 15ZM21 14C21.5523 14 22 13.5523 22 13C22 12.4477 21.5523 12 21 12C20.4477 12 20 12.4477 20 13C20 13.5523 20.4477 14 21 14Z" fill="black"/>
<path d="M16 18C17.7483 18 19.4325 18.6396 20.6802 19.7892C21.196 20.2645 21.6201 20.8112 21.9402 21.4058C22.0711 21.649 21.9802 21.9522 21.737 22.0831C21.4939 22.214 21.1907 22.123 21.0598 21.8799C20.7931 21.3847 20.4381 20.9259 20.0026 20.5246C18.9475 19.5525 17.5083 19 16 19C14.4916 19 13.0525 19.5525 11.9974 20.5246C11.5619 20.9259 11.2069 21.3847 10.9402 21.8799C10.8093 22.123 10.5061 22.214 10.263 22.0831C10.0198 21.9522 9.92884 21.649 10.0598 21.4058C10.3799 20.8112 10.804 20.2645 11.3198 19.7892C12.5675 18.6396 14.2516 18 16 18Z" fill="black"/>
<path fill-rule="evenodd" clip-rule="evenodd" d="M16 4C9.37258 4 4 9.37258 4 16C4 22.6274 9.37258 28 16 28C22.6274 28 28 22.6274 28 16C28 9.37258 22.6274 4 16 4ZM5 16C5 9.92487 9.92487 5 16 5C22.0751 5 27 9.92487 27 16C27 22.0751 22.0751 27 16 27C9.92487 27 5 22.0751 5 16Z" fill="black"/>
</g>
</svg>
