<svg width="16" height="16" viewBox="0 0 16 16" fill="none" xmlns="http://www.w3.org/2000/svg">
<path opacity="0.9" fill-rule="evenodd" clip-rule="evenodd" d="M8 15C11.866 15 15 11.866 15 8C15 4.13401 11.866 1 8 1C4.13401 1 1 4.13401 1 8C1 11.866 4.13401 15 8 15ZM7.82009 11.3841C7.60795 11.5609 7.29267 11.5322 7.11589 11.3201L4.61589 8.32009C4.46137 8.13467 4.46137 7.86533 4.61589 7.67991L7.11589 4.67991C7.29267 4.46777 7.60795 4.43911 7.82009 4.61589C8.03223 4.79267 8.06089 5.10795 7.88411 5.32009L5.65085 8L7.88411 10.6799C8.06089 10.892 8.03223 11.2073 7.82009 11.3841ZM10.1159 11.3201C10.2927 11.5322 10.608 11.5609 10.8201 11.3841C11.0322 11.2073 11.0609 10.892 10.8841 10.6799L8.65085 8L10.8841 5.32009C11.0609 5.10795 11.0322 4.79267 10.8201 4.61589C10.608 4.43911 10.2927 4.46777 10.1159 4.67991L7.61589 7.67991C7.46137 7.86533 7.46137 8.13467 7.61589 8.32009L10.1159 11.3201Z" fill="black"/>
</svg>
