<svg width="32" height="32" viewBox="0 0 32 32" fill="none" xmlns="http://www.w3.org/2000/svg">
<g opacity="0.9">
<path fill-rule="evenodd" clip-rule="evenodd" d="M15.8379 9.63142C15.6343 9.44483 15.318 9.45858 15.1314 9.66214L9.63142 15.6621C9.45619 15.8533 9.45619 16.1467 9.63142 16.3379L15.1314 22.3379C15.318 22.5414 15.6343 22.5552 15.8379 22.3686C16.0414 22.182 16.0552 21.8657 15.8686 21.6621L10.6783 16L15.8686 10.3379C16.0552 10.1343 16.0414 9.81802 15.8379 9.63142Z" fill="black"/>
<path fill-rule="evenodd" clip-rule="evenodd" d="M20.8379 9.63142C20.6343 9.44483 20.318 9.45858 20.1314 9.66214L14.6314 15.6621C14.4562 15.8533 14.4562 16.1467 14.6314 16.3379L20.1314 22.3379C20.318 22.5414 20.6343 22.5552 20.8379 22.3686C21.0414 22.182 21.0552 21.8657 20.8686 21.6621L15.6783 16L20.8686 10.3379C21.0552 10.1343 21.0414 9.81802 20.8379 9.63142Z" fill="black"/>
<path fill-rule="evenodd" clip-rule="evenodd" d="M16 5C22.0751 5 27 9.92487 27 16C27 22.0751 22.0751 27 16 27C9.92487 27 5 22.0751 5 16C5 9.92487 9.92487 5 16 5ZM28 16C28 9.37258 22.6274 4 16 4C9.37258 4 4 9.37258 4 16C4 22.6274 9.37258 28 16 28C22.6274 28 28 22.6274 28 16Z" fill="black"/>
</g>
</svg>
