<svg width="24" height="24" viewBox="0 0 24 24" fill="none" xmlns="http://www.w3.org/2000/svg">
<path opacity="0.9" fill-rule="evenodd" clip-rule="evenodd" d="M2 12C2 6.47715 6.47715 2 12 2C17.5228 2 22 6.47715 22 12C22 17.5228 17.5228 22 12 22C6.47715 22 2 17.5228 2 12ZM15.8536 8.85355C16.0488 8.65829 16.0488 8.34171 15.8536 8.14645C15.6583 7.95118 15.3417 7.95118 15.1464 8.14645L11.1464 12.1464C10.9512 12.3417 10.9512 12.6583 11.1464 12.8536C11.3417 13.0488 11.6583 13.0488 11.8536 12.8536L15.8536 8.85355ZM18.8536 8.85355C19.0488 8.65829 19.0488 8.34171 18.8536 8.14645C18.6583 7.95118 18.3417 7.95118 18.1464 8.14645L11.5 14.7929L8.85355 12.1464C8.65829 11.9512 8.34171 11.9512 8.14645 12.1464C7.95118 12.3417 7.95118 12.6583 8.14645 12.8536L11.1464 15.8536C11.2402 15.9473 11.3674 16 11.5 16C11.6326 16 11.7598 15.9473 11.8536 15.8536L18.8536 8.85355ZM5.85355 12.1464C5.65829 11.9512 5.34171 11.9512 5.14645 12.1464C4.95118 12.3417 4.95118 12.6583 5.14645 12.8536L8.14645 15.8536C8.34171 16.0488 8.65829 16.0488 8.85355 15.8536C9.04882 15.6583 9.04882 15.3417 8.85355 15.1464L5.85355 12.1464Z" fill="black"/>
</svg>
