<svg width="24" height="24" viewBox="0 0 24 24" fill="none" xmlns="http://www.w3.org/2000/svg">
<path fill-rule="evenodd" clip-rule="evenodd" d="M22.1059 13.6482L10.8354 5L4.00011 5.89989L4.89999 12.7352L16.1711 21.3826L22.1059 13.6482ZM11.4442 4.20665L22.7147 12.8548C23.1528 13.191 23.2355 13.8188 22.8993 14.2569L16.9644 21.9914C16.6282 22.4295 16.0005 22.5122 15.5624 22.176L4.29128 13.5286C4.08085 13.3671 3.94317 13.1287 3.90855 12.8657L3.00867 6.03041C2.93658 5.48285 3.32203 4.98053 3.86959 4.90844L10.7049 4.00856C10.9678 3.97394 11.2338 4.0452 11.4442 4.20665Z" fill="black"/>
<path fill-rule="evenodd" clip-rule="evenodd" d="M8.14939 9.84245C8.55512 9.84245 8.88403 9.51355 8.88403 9.10782C8.88403 8.70209 8.55512 8.37318 8.14939 8.37318C7.74366 8.37318 7.41476 8.70209 7.41476 9.10782C7.41476 9.51355 7.74366 9.84245 8.14939 9.84245ZM8.14939 10.8425C9.10741 10.8425 9.88403 10.0658 9.88403 9.10782C9.88403 8.1498 9.10741 7.37318 8.14939 7.37318C7.19138 7.37318 6.41476 8.1498 6.41476 9.10782C6.41476 10.0658 7.19138 10.8425 8.14939 10.8425Z" fill="black"/>
</svg>
