<svg width="16" height="16" viewBox="0 0 16 16" fill="none" xmlns="http://www.w3.org/2000/svg">
<path opacity="0.9" fill-rule="evenodd" clip-rule="evenodd" d="M11.6088 2.50952C11.8795 2.45482 12.1433 2.62989 12.198 2.90056L12.8244 6.00017H9.69721C9.42106 6.00017 9.19721 5.77631 9.19721 5.50017C9.19721 5.22403 9.42106 5.00017 9.69721 5.00017H11.0015C9.0431 3.52631 6.24755 3.68128 4.46447 5.46437C2.51184 7.41699 2.51184 10.5828 4.46447 12.5354C4.65973 12.7307 4.65973 13.0473 4.46447 13.2425C4.2692 13.4378 3.95262 13.4378 3.75736 13.2425C1.41421 10.8994 1.41421 7.10041 3.75736 4.75726C5.84064 2.67398 9.07402 2.44308 11.4129 4.06392L11.2178 3.09865C11.1631 2.82798 11.3382 2.56422 11.6088 2.50952Z" fill="black"/>
</svg>
