<svg width="32" height="32" viewBox="0 0 32 32" fill="none" xmlns="http://www.w3.org/2000/svg">
<path opacity="0.9" fill-rule="evenodd" clip-rule="evenodd" d="M4 16C4 9.37258 9.37258 4 16 4C22.6274 4 28 9.37258 28 16C28 22.6274 22.6274 28 16 28C9.37258 28 4 22.6274 4 16ZM11 15C12.1046 15 13 14.1046 13 13C13 11.8954 12.1046 11 11 11C9.89543 11 9 11.8954 9 13C9 14.1046 9.89543 15 11 15ZM23 13C23 14.1046 22.1046 15 21 15C19.8954 15 19 14.1046 19 13C19 11.8954 19.8954 11 21 11C22.1046 11 23 11.8954 23 13ZM10.4745 21.3912C11.94 22.7414 13.9275 23.5 16 23.5C18.0724 23.5 20.06 22.7414 21.5255 21.3912C22.1308 20.8334 22.6266 20.1935 23 19.5H9C9.37343 20.1935 9.86919 20.8334 10.4745 21.3912Z" fill="black"/>
</svg>
