<svg width="32" height="32" viewBox="0 0 32 32" fill="none" xmlns="http://www.w3.org/2000/svg">
<g opacity="0.9">
<path fill-rule="evenodd" clip-rule="evenodd" d="M13 13C13 14.1046 12.1046 15 11 15C9.89543 15 9 14.1046 9 13C9 11.8954 9.89543 11 11 11C12.1046 11 13 11.8954 13 13ZM12 13C12 13.5523 11.5523 14 11 14C10.4477 14 10 13.5523 10 13C10 12.4477 10.4477 12 11 12C11.5523 12 12 12.4477 12 13Z" fill="black"/>
<path fill-rule="evenodd" clip-rule="evenodd" d="M21 15C22.1046 15 23 14.1046 23 13C23 11.8954 22.1046 11 21 11C19.8954 11 19 11.8954 19 13C19 14.1046 19.8954 15 21 15ZM21 14C21.5523 14 22 13.5523 22 13C22 12.4477 21.5523 12 21 12C20.4477 12 20 12.4477 20 13C20 13.5523 20.4477 14 21 14Z" fill="black"/>
<path fill-rule="evenodd" clip-rule="evenodd" d="M16 23C18.1924 23 20.3025 22.1979 21.8643 20.7589C22.5098 20.1641 23.0401 19.4803 23.4402 18.737C23.5237 18.5821 23.5195 18.3947 23.4293 18.2436C23.339 18.0925 23.176 18 23 18H9C8.82402 18 8.66099 18.0925 8.57074 18.2436C8.4805 18.3947 8.47633 18.5821 8.55976 18.737C8.95994 19.4803 9.49024 20.1641 10.1357 20.7589C11.6975 22.1979 13.8075 23 16 23ZM21.1867 20.0235C19.8175 21.285 17.9524 22 16 22C14.0476 22 12.1825 21.285 10.8133 20.0235C10.4708 19.7079 10.1665 19.3647 9.90272 19H22.0973C21.8335 19.3647 21.5292 19.7079 21.1867 20.0235Z" fill="black"/>
<path fill-rule="evenodd" clip-rule="evenodd" d="M16 4C9.37258 4 4 9.37258 4 16C4 22.6274 9.37258 28 16 28C22.6274 28 28 22.6274 28 16C28 9.37258 22.6274 4 16 4ZM5 16C5 9.92487 9.92487 5 16 5C22.0751 5 27 9.92487 27 16C27 22.0751 22.0751 27 16 27C9.92487 27 5 22.0751 5 16Z" fill="black"/>
</g>
</svg>
