<svg width="16" height="16" viewBox="0 0 16 16" fill="none" xmlns="http://www.w3.org/2000/svg">
<g opacity="0.9">
<path fill-rule="evenodd" clip-rule="evenodd" d="M11.9249 9.23647C11.8337 9.08944 11.673 9 11.5 9H4.5C4.32699 9 4.16627 9.08944 4.07509 9.23647C3.9839 9.3835 3.9752 9.56723 4.05209 9.72221C4.24079 10.1026 4.50408 10.3498 4.72822 10.5602C4.78294 10.6116 4.83532 10.6608 4.88372 10.7092C5.71021 11.5357 6.83117 12 8 12C9.16883 12 10.2898 11.5357 11.1163 10.7092C11.1647 10.6608 11.2171 10.6116 11.2718 10.5602C11.4959 10.3498 11.7592 10.1026 11.9479 9.72221C12.0248 9.56723 12.0161 9.3835 11.9249 9.23647ZM5.59082 10.0021L5.58874 10H10.4113L10.4092 10.0021C9.77022 10.641 8.90362 11 8 11C7.09638 11 6.22978 10.641 5.59082 10.0021Z" fill="black"/>
<path d="M6.5 6C6.5 6.55228 6.05228 7 5.5 7C4.94772 7 4.5 6.55228 4.5 6C4.5 5.44772 4.94772 5 5.5 5C6.05228 5 6.5 5.44772 6.5 6Z" fill="black"/>
<path d="M10.5 7C11.0523 7 11.5 6.55228 11.5 6C11.5 5.44772 11.0523 5 10.5 5C9.94771 5 9.5 5.44772 9.5 6C9.5 6.55228 9.94771 7 10.5 7Z" fill="black"/>
<path fill-rule="evenodd" clip-rule="evenodd" d="M8 1C4.13401 1 1 4.13401 1 8C1 11.866 4.13401 15 8 15C11.866 15 15 11.866 15 8C15 4.13401 11.866 1 8 1ZM2 8C2 4.68629 4.68629 2 8 2C11.3137 2 14 4.68629 14 8C14 11.3137 11.3137 14 8 14C4.68629 14 2 11.3137 2 8Z" fill="black"/>
</g>
</svg>
