<svg width="16" height="16" viewBox="0 0 16 16" fill="none" xmlns="http://www.w3.org/2000/svg">
<g opacity="0.9">
<path d="M2.85355 2.14657C2.65829 1.95131 2.34171 1.95131 2.14645 2.14657C1.95118 2.34183 1.95118 2.65841 2.14645 2.85368L13.1464 13.8537C13.3417 14.0489 13.6583 14.0489 13.8536 13.8537C14.0488 13.6584 14.0488 13.3418 13.8536 13.1466L2.85355 2.14657Z" fill="black"/>
<path d="M2 6.50005C2 5.85684 2.40485 5.30818 2.97364 5.095L9 11.1214V13.0001C9 13.1941 8.88777 13.3706 8.71208 13.4528C8.53639 13.5351 8.32895 13.5084 8.17991 13.3842L5.31898 11.0001H3.5C2.67157 11.0001 2 10.3285 2 9.50005V6.50005Z" fill="black"/>
<path d="M10.7358 8.61455L11.1081 8.98685C11.1277 8.99143 11.1477 8.99488 11.1682 8.99712C11.4427 9.02721 11.6896 8.82907 11.7197 8.55457C11.8456 7.40631 11.5792 6.2176 10.916 5.22275C10.7628 4.99299 10.4524 4.9309 10.2226 5.08407C9.99288 5.23725 9.93079 5.54769 10.084 5.77745C10.6115 6.56881 10.827 7.52082 10.7257 8.44562C10.7193 8.50377 10.7232 8.56068 10.7358 8.61455Z" fill="black"/>
<path d="M6.30208 4.1808L9 6.87873V3.00005C9 2.80604 8.88777 2.62955 8.71208 2.54726C8.53639 2.46497 8.32895 2.49174 8.17991 2.61594L6.30208 4.1808Z" fill="black"/>
<path d="M12.399 3.19873C12.2326 2.97837 11.919 2.93466 11.6987 3.10109C11.4783 3.26752 11.4346 3.58107 11.601 3.80142C12.7596 5.33535 13.1429 7.76251 12.6409 9.88499C12.5774 10.1537 12.7437 10.4231 13.0124 10.4866C13.2811 10.5502 13.5505 10.3839 13.6141 10.1152C14.1698 7.76542 13.7725 5.0173 12.399 3.19873Z" fill="black"/>
</g>
</svg>
