<svg width="24" height="24" viewBox="0 0 24 24" fill="none" xmlns="http://www.w3.org/2000/svg">
<g opacity="0.9">
<path fill-rule="evenodd" clip-rule="evenodd" d="M5.87869 8.00001H4.5C3.67157 8.00001 3 8.67158 3 9.50001V14.5C3 15.3284 3.67157 16 4.5 16H7.8099L12.1678 19.8737C12.315 20.0045 12.5252 20.0368 12.7048 19.9561C12.8844 19.8755 13 19.6969 13 19.5V15.1213L5.87869 8.00001ZM13 10.8787V4.50001C13 4.30311 12.8844 4.12455 12.7048 4.04389C12.5252 3.96323 12.315 3.99549 12.1678 4.1263L9.0336 6.91228L13 10.8787ZM16.735 4.07607C16.9692 3.92971 17.2776 4.0009 17.424 4.23507C19.135 6.97263 19.7053 10.9898 19.1949 14.5706C19.1559 14.844 18.9027 15.034 18.6293 14.9951C18.3559 14.9561 18.1659 14.7029 18.2049 14.4295C18.692 11.0123 18.1291 7.25001 16.576 4.76507C16.4296 4.5309 16.5008 4.22242 16.735 4.07607ZM14.9371 7.25727C14.803 7.01588 14.4986 6.92891 14.2572 7.06301C14.0158 7.19712 13.9288 7.50152 14.0629 7.74291C14.6761 8.84659 15.0001 10.4059 15 12.0009C15 12.2771 15.2238 12.5009 15.5 12.5009C15.7761 12.501 16 12.2771 16 12.001C16.0001 10.2954 15.6575 8.55401 14.9371 7.25727Z" fill="black"/>
<path fill-rule="evenodd" clip-rule="evenodd" d="M3.14645 3.14645C3.34171 2.95118 3.65829 2.95118 3.85355 3.14645L20.8536 20.1464C21.0488 20.3417 21.0488 20.6583 20.8536 20.8536C20.6583 21.0488 20.3417 21.0488 20.1464 20.8536L3.14645 3.85355C2.95118 3.65829 2.95118 3.34171 3.14645 3.14645Z" fill="black"/>
</g>
</svg>
