<svg width="32" height="32" viewBox="0 0 32 32" fill="none" xmlns="http://www.w3.org/2000/svg">
<path opacity="0.9" d="M23.8558 8.29809C19.6635 4.10572 12.8663 4.10572 8.6739 8.29809C8.64974 8.32225 8.62372 8.34342 8.59631 8.3616L6.1082 10.7781L10.8758 10.7782C11.1519 10.7783 11.3758 11.0021 11.3758 11.2783C11.3758 11.5544 11.1519 11.7783 10.8757 11.7782L4.87574 11.778C4.59961 11.778 4.37576 11.5542 4.37576 11.278L4.37573 5.27788C4.37573 5.00174 4.59959 4.77788 4.87573 4.77788C5.15187 4.77788 5.37573 5.00174 5.37573 5.27788L5.37576 10.0954L8.01966 7.52764C8.04064 7.50726 8.06295 7.4891 8.08629 7.47314C12.678 3.00843 20.0197 3.04771 24.5629 7.59098C29.1458 12.1739 29.1458 19.6042 24.5629 24.1871C19.98 28.77 12.5497 28.77 7.96679 24.1871C7.77153 23.9919 7.77153 23.6753 7.96679 23.48C8.16205 23.2848 8.47863 23.2848 8.6739 23.48C12.8663 27.6724 19.6635 27.6724 23.8558 23.48C28.0482 19.2876 28.0482 12.4905 23.8558 8.29809Z" fill="black"/>
</svg>
