<svg width="16" height="16" viewBox="0 0 16 16" fill="none" xmlns="http://www.w3.org/2000/svg">
<path opacity="0.9" d="M11.5355 4.46471C9.58293 2.51209 6.4171 2.51209 4.46448 4.46471C4.43695 4.49224 4.40702 4.51588 4.37535 4.53565L3.83955 5.00039L5.50003 5.00037C5.77617 5.00037 6.00003 5.22423 6.00003 5.50037C6.00003 5.77651 5.77618 6.00037 5.50004 6.00037L2.5 6.0004C2.3674 6.00041 2.24022 5.94773 2.14645 5.85396C2.05268 5.76019 2 5.63301 2 5.5004V2.50041C2 2.22426 2.22386 2.0004 2.5 2.00041C2.77614 2.00041 3 2.22426 3 2.50041V4.40483L3.80663 3.70518C3.81441 3.69843 3.82234 3.69197 3.83041 3.68578C6.17881 1.41471 9.9237 1.43865 12.2427 3.7576C14.5858 6.10075 14.5858 9.89974 12.2427 12.2429C9.89951 14.586 6.10052 14.586 3.75737 12.2429C3.56211 12.0476 3.56211 11.731 3.75737 11.5358C3.95264 11.3405 4.26922 11.3405 4.46448 11.5358C6.4171 13.4884 9.58293 13.4884 11.5355 11.5358C13.4882 9.58316 13.4882 6.41733 11.5355 4.46471Z" fill="black"/>
</svg>
