<svg width="24" height="24" viewBox="0 0 24 24" fill="none" xmlns="http://www.w3.org/2000/svg">
<path opacity="0.9" d="M3.20386 3.48218C3.20386 3.20604 3.42772 2.98218 3.70386 2.98218C3.98 2.98218 4.20386 3.20604 4.20386 3.48218V6.97215L5.87421 5.52332C5.88615 5.51297 5.89843 5.50328 5.91103 5.49425C9.39652 2.11317 14.963 2.14548 18.4088 5.59119C21.8871 9.06952 21.8871 14.709 18.4088 18.1873C14.9304 21.6657 9.29094 21.6657 5.81261 18.1873C5.61734 17.9921 5.61734 17.6755 5.81261 17.4802C6.00787 17.285 6.32445 17.285 6.51971 17.4802C9.60752 20.568 14.6138 20.568 17.7016 17.4802C20.7894 14.3924 20.7894 9.3861 17.7016 6.2983C14.6138 3.21049 9.60752 3.21049 6.51971 6.2983C6.48718 6.33083 6.45127 6.35795 6.41312 6.37964L5.0434 7.5677L8.28944 7.56767C8.56558 7.56767 8.78944 7.79152 8.78944 8.06766C8.78945 8.34381 8.56559 8.56767 8.28945 8.56767L3.70386 8.56772C3.57125 8.56772 3.44408 8.51504 3.35031 8.42127C3.25654 8.3275 3.20386 8.20032 3.20386 8.06772V3.48218Z" fill="black"/>
</svg>
