<svg width="32" height="32" viewBox="0 0 32 32" fill="none" xmlns="http://www.w3.org/2000/svg">
<g clip-path="url(#clip0)">
<path opacity="0.9" fill-rule="evenodd" clip-rule="evenodd" d="M17.7526 0.341509C17.3889 -0.0741275 16.7571 -0.116245 16.3415 0.247437L12.3415 3.74744C12.1245 3.93732 12 4.21165 12 4.50001C12 4.78838 12.1245 5.0627 12.3415 5.25259L16.3415 8.75259C16.7571 9.11627 17.3889 9.07415 17.7526 8.65852C18.1163 8.24288 18.0741 7.61112 17.6585 7.24744L15.6615 5.50001L16 5.50001C21.7986 5.50053 26.5 10.2013 26.5 16C26.5 16.5523 26.9477 17 27.5 17C28.0523 17 28.5 16.5523 28.5 16C28.5 9.09645 22.9036 3.50001 16 3.50001L15.6615 3.50001L17.6585 1.75259C18.0741 1.38891 18.1163 0.757146 17.7526 0.341509ZM5.5 16C5.5 21.799 10.201 26.5 16 26.5C16.0039 26.5 16.0078 26.5 16.0117 26.5001H17.0858L15.2929 24.7071C14.9024 24.3166 14.9024 23.6834 15.2929 23.2929C15.6835 22.9024 16.3166 22.9024 16.7071 23.2929L20.2071 26.793C20.5976 27.1835 20.5976 27.8167 20.2071 28.2072L16.7071 31.7072C16.3166 32.0977 15.6834 32.0977 15.2929 31.7072C14.9024 31.3167 14.9024 30.6835 15.2929 30.293L17.0858 28.5001H16C15.9959 28.5001 15.9919 28.5001 15.9878 28.5C9.08987 28.4934 3.5 22.8995 3.5 16C3.5 15.4477 3.94772 15 4.5 15C5.05228 15 5.5 15.4477 5.5 16Z" fill="black"/>
</g>
<defs>
<clipPath id="clip0">
<rect width="32" height="32" fill="white"/>
</clipPath>
</defs>
</svg>
