<svg width="33" height="32" viewBox="0 0 33 32" fill="none" xmlns="http://www.w3.org/2000/svg">
<path opacity="0.9" fill-rule="evenodd" clip-rule="evenodd" d="M4.03516 16C4.03516 9.37258 9.40774 4 16.0352 4C22.6626 4 28.0352 9.37258 28.0352 16C28.0352 22.6274 22.6626 28 16.0352 28C9.40774 28 4.03516 22.6274 4.03516 16ZM11.745 16.2874L14.037 18.5795L20.329 12.2876C20.7196 11.8971 21.3531 11.8967 21.7441 12.2867C22.1351 12.6768 22.1355 13.3096 21.745 13.7001L15.099 20.346C14.5127 20.9323 13.5613 20.9322 12.975 20.3459L10.329 17.6999C9.93852 17.3094 9.93891 16.6766 10.3299 16.2865C10.7209 15.8965 11.3545 15.8969 11.745 16.2874Z" fill="black"/>
</svg>
