<svg width="32" height="32" viewBox="0 0 32 32" fill="none" xmlns="http://www.w3.org/2000/svg">
<g opacity="0.9">
<path fill-rule="evenodd" clip-rule="evenodd" d="M10 10C10 6.68629 12.6863 4 16 4C19.3137 4 22 6.68629 22 10V16C22 19.3137 19.3137 22 16 22C12.6863 22 10 19.3137 10 16V10ZM16 5C13.2386 5 11 7.23858 11 10V16C11 18.7614 13.2386 21 16 21C18.7614 21 21 18.7614 21 16V10C21 7.23858 18.7614 5 16 5Z" fill="black"/>
<path d="M8.5 12.5C8.77614 12.5 9 12.7239 9 13V16C9 19.866 12.134 23 16 23C19.866 23 23 19.866 23 16V13C23 12.7239 23.2239 12.5 23.5 12.5C23.7761 12.5 24 12.7239 24 13V16C24 20.2504 20.6852 23.7267 16.4998 23.9846C16.4999 23.9897 16.5 23.9949 16.5 24V28.5C16.5 28.7761 16.2761 29 16 29C15.7239 29 15.5 28.7761 15.5 28.5V24C15.5 23.9949 15.5001 23.9897 15.5002 23.9846C11.3148 23.7267 8 20.2504 8 16V13C8 12.7239 8.22386 12.5 8.5 12.5Z" fill="black"/>
</g>
</svg>
