<svg width="16" height="17" viewBox="0 0 16 17" fill="none" xmlns="http://www.w3.org/2000/svg">
<path opacity="0.9" fill-rule="evenodd" clip-rule="evenodd" d="M13.9441 3.54508L9.66599 7.83033V14.2777C9.66599 14.5205 9.55253 14.6932 9.32895 14.7912C9.25331 14.8202 9.18101 14.8347 9.11204 14.8347C8.9552 14.8347 8.82506 14.7801 8.7205 14.6687L6.50027 13.4178C6.39014 13.3075 6.33564 13.1783 6.33564 13.0257V7.83033L2.05535 3.54508C1.87738 3.37688 1.83622 3.17415 1.93411 2.93688C2.03199 2.71187 2.20107 2.59937 2.44689 2.59937H13.5525C13.7983 2.59937 13.9674 2.71187 14.0653 2.93688C14.1632 3.17415 14.1243 3.37688 13.9441 3.54508Z" fill="black"/>
</svg>
