<svg width="24" height="24" viewBox="0 0 24 24" fill="none" xmlns="http://www.w3.org/2000/svg">
<g opacity="0.9">
<path d="M4 2C2.89543 2 2 2.89543 2 4V9.87149L7.04342 8.70762C7.16848 8.29799 7.54944 8.00001 8 8.00001C8.48364 8.00001 8.8871 8.34336 8.97991 8.79961L13.3365 10.2518C13.513 10.0951 13.7454 10 14 10C14.2483 10 14.4754 10.0905 14.6503 10.2403L22 7.64626V4C22 2.89543 21.1046 2 20 2H4Z" fill="black"/>
<path d="M22 8.70671L14.9833 11.1832C14.8972 11.648 14.4897 12 14 12C13.5163 12 13.1129 11.6567 13.0201 11.2004L8.66348 9.74822C8.48695 9.90488 8.25458 10 8 10C7.71127 10 7.45111 9.87765 7.26857 9.68194L2 10.8978V16.6629L7.00043 13.9704C7.01611 13.4318 7.45763 13 8 13C8.48364 13 8.8871 13.3434 8.97991 13.7996L13.3365 15.2518C13.513 15.0951 13.7454 15 14 15C14.1641 15 14.319 15.0396 14.4557 15.1096L22 10.228V8.70671Z" fill="black"/>
<path d="M22 11.4191L14.9987 15.9493C14.9996 15.9661 15 15.983 15 16C15 16.5523 14.5523 17 14 17C13.5163 17 13.1129 16.6567 13.0201 16.2004L8.66348 14.7482C8.48695 14.9049 8.25458 15 8 15C7.80718 15 7.62712 14.9454 7.47439 14.8509L2 17.7987V20C2 21.1046 2.89543 22 4 22H20C21.1046 22 22 21.1046 22 20V11.4191Z" fill="black"/>
</g>
</svg>
