<svg width="32" height="32" viewBox="0 0 32 32" fill="none" xmlns="http://www.w3.org/2000/svg">
<g opacity="0.9">
<path d="M6 4C4.89543 4 4 4.89543 4 6V13.6545L10.0108 12.3187C10.1003 11.5758 10.7329 11 11.5 11C12.3284 11 13 11.6716 13 12.5C13 12.5328 12.9989 12.5653 12.9969 12.5975L17.3971 14.4833C17.6712 14.1862 18.0638 14 18.5 14C18.9362 14 19.3288 14.1862 19.6029 14.4833L28 10.8846V6C28 4.89543 27.1046 4 26 4H6Z" fill="black"/>
<path d="M28 11.9726L19.9969 15.4025C19.9989 15.4347 20 15.4672 20 15.5C20 16.3284 19.3284 17 18.5 17C17.6716 17 17 16.3284 17 15.5C17 15.4672 17.0011 15.4347 17.0031 15.4025L12.6029 13.5167C12.3288 13.8139 11.9362 14 11.5 14C10.9635 14 10.4929 13.7184 10.2277 13.2949L4 14.6789V21.9048L10.016 18.7199C10.0055 18.6481 10 18.5747 10 18.5C10 17.6716 10.6716 17 11.5 17C12.3284 17 13 17.6716 13 18.5C13 18.5328 12.9989 18.5653 12.9969 18.5975L17.3971 20.4833C17.6712 20.1862 18.0638 20 18.5 20C18.8374 20 19.1488 20.1114 19.3994 20.2995L28 14.5657V11.9726Z" fill="black"/>
<path d="M28 15.7676L19.9544 21.1314C19.9842 21.2493 20 21.3728 20 21.5C20 22.3284 19.3284 23 18.5 23C17.6716 23 17 22.3284 17 21.5C17 21.4672 17.0011 21.4347 17.0031 21.4025L12.6029 19.5167C12.3288 19.8139 11.9362 20 11.5 20C11.1081 20 10.7513 19.8497 10.4841 19.6036L4 23.0363V26C4 27.1046 4.89543 28 6 28H26C27.1046 28 28 27.1046 28 26V15.7676Z" fill="black"/>
</g>
</svg>
