<svg width="32" height="32" viewBox="0 0 32 32" fill="none" xmlns="http://www.w3.org/2000/svg">
<path opacity="0.9" d="M6.42031 4C5.05241 4 3.88528 5.11928 4.00881 6.5408C4.21704 8.93715 4.79119 11.2916 5.71476 13.5213C6.89946 16.3814 8.6359 18.9802 10.8249 21.1692C13.014 23.3583 15.6127 25.0947 18.4728 26.2794C20.7025 27.203 23.057 27.7771 25.4534 27.9854C26.8749 28.1089 27.9942 26.9418 27.9942 25.5739V21.9961C27.9942 20.9013 27.2819 19.9339 26.2365 19.6088L22.552 18.4631C21.7003 18.1983 20.7723 18.4453 20.165 19.0985C19.7613 19.5327 19.1414 19.634 18.6715 19.3549C17.4374 18.622 16.2967 17.7364 15.2772 16.717C14.2315 15.6713 13.3268 14.498 12.583 13.2273C12.3395 12.8113 12.4282 12.2638 12.8123 11.9067C13.5164 11.2521 13.7827 10.2516 13.4973 9.33347L12.3854 5.75768C12.0603 4.71229 11.0929 4 9.99811 4L6.42031 4Z" fill="black"/>
</svg>
