<svg width="32" height="32" viewBox="0 0 32 32" fill="none" xmlns="http://www.w3.org/2000/svg">
<path opacity="0.9" fill-rule="evenodd" clip-rule="evenodd" d="M6.42032 5C5.57908 5 4.93735 5.6749 5.00507 6.45423C5.20447 8.74893 5.75426 11.0035 6.63865 13.1386C7.7731 15.8774 9.43588 18.366 11.5321 20.4621C13.6282 22.5583 16.1168 24.2211 18.8555 25.3555C20.9907 26.2399 23.2453 26.7897 25.54 26.9891C26.3193 27.0569 26.9942 26.4151 26.9942 25.5739V21.9961C26.9942 21.3392 26.5668 20.7588 25.9396 20.5637L22.255 19.418C21.7707 19.2674 21.2428 19.4079 20.8974 19.7794C20.2053 20.5239 19.0747 20.7575 18.1609 20.2147C16.8554 19.4393 15.6486 18.5026 14.5701 17.4241C13.4639 16.3179 12.5068 15.0767 11.72 13.7324C11.2188 12.8761 11.4358 11.8211 12.1314 11.1744C12.5539 10.7815 12.7137 10.1813 12.5424 9.63039L11.4305 6.05461C11.2354 5.42737 10.655 5 9.99811 5L6.42032 5ZM4.00882 6.5408C3.8853 5.11928 5.05242 4 6.42032 4L9.99812 4C11.0929 4 12.0603 4.71229 12.3854 5.75768L13.4973 9.33347C13.7828 10.2516 13.5164 11.2521 12.8123 11.9067C12.4282 12.2638 12.3395 12.8113 12.583 13.2273C13.3268 14.498 14.2315 15.6713 15.2772 16.717C16.2967 17.7364 17.4374 18.622 18.6715 19.3549C19.1414 19.634 19.7613 19.5327 20.165 19.0985C20.7723 18.4453 21.7003 18.1983 22.552 18.4631L26.2365 19.6088C27.2819 19.9339 27.9942 20.9013 27.9942 21.9961V25.5739C27.9942 26.9418 26.8749 28.1089 25.4534 27.9854C23.057 27.7771 20.7026 27.203 18.4729 26.2794C15.6127 25.0947 13.014 23.3583 10.8249 21.1692C8.63591 18.9802 6.89947 16.3814 5.71478 13.5213C4.79121 11.2916 4.21706 8.93715 4.00882 6.5408Z" fill="black"/>
</svg>
