<svg width="24" height="24" viewBox="0 0 24 24" fill="none" xmlns="http://www.w3.org/2000/svg">
<path opacity="0.9" fill-rule="evenodd" clip-rule="evenodd" d="M4.40534 3C3.56105 3 2.92649 3.67596 3.00719 4.44413C3.19381 6.22036 3.63558 7.96391 4.32164 9.62022C5.25668 11.8776 6.62719 13.9287 8.35492 15.6564C10.0827 17.3842 12.1338 18.7547 14.3912 19.6897C16.0475 20.3758 17.791 20.8176 19.5672 21.0042C20.3354 21.0849 21.0114 20.4503 21.0114 19.606V17.2203C21.0114 16.5755 20.5918 16.0058 19.9761 15.8143L17.1476 14.9348C16.7781 14.8199 16.3754 14.9271 16.1119 15.2105C15.514 15.8536 14.534 16.0584 13.7391 15.5863C12.652 14.9406 11.6471 14.1605 10.749 13.2624C9.92884 12.4423 9.20712 11.5331 8.59629 10.5536C8.00148 9.59968 8.25486 8.40709 9.03418 7.68255C9.17501 7.55161 9.22828 7.35152 9.17118 7.16789L7.98447 3.35154C7.91946 3.14246 7.72597 3 7.50702 3H4.40534ZM2.01267 4.54861C1.86254 3.11973 3.0405 2 4.40534 2H7.50702C8.16388 2 8.74433 2.42737 8.93937 3.05461L10.1261 6.87097C10.2974 7.42183 10.1376 8.02212 9.71508 8.41492C9.24163 8.8551 9.13453 9.52681 9.44483 10.0244C10.0155 10.9396 10.6898 11.7891 11.4561 12.5553C12.2952 13.3944 13.234 14.1232 14.2498 14.7265C14.6007 14.9349 15.0701 14.8624 15.3796 14.5296C15.9049 13.9645 16.7078 13.7508 17.4445 13.9799L20.2731 14.8594C21.3069 15.1809 22.0114 16.1376 22.0114 17.2203V19.606C22.0114 20.9709 20.8916 22.1488 19.4628 21.9987C17.5911 21.8021 15.7538 21.3365 14.0085 20.6136C11.6298 19.6283 9.4684 18.1841 7.64782 16.3636C5.82723 14.543 4.38306 12.3816 3.39776 10.0029C2.67483 8.25758 2.20932 6.42031 2.01267 4.54861Z" fill="black"/>
</svg>
