<svg width="16" height="16" viewBox="0 0 16 16" fill="none" xmlns="http://www.w3.org/2000/svg">
<path opacity="0.9" fill-rule="evenodd" clip-rule="evenodd" d="M1 8C1 4.13401 4.13401 1 8 1C11.866 1 15 4.13401 15 8C15 11.866 11.866 15 8 15C4.13401 15 1 11.866 1 8ZM7.38246 9.40007C7.34126 9.69072 7.58681 9.93011 7.88037 9.93011C8.17108 9.93011 8.39553 9.69249 8.4669 9.41067C8.51901 9.20489 8.60368 9.03462 8.72093 8.89987L9.29302 8.33065C9.76434 7.83513 10 7.33177 10 6.82056C10 6.24664 9.82481 5.79973 9.47442 5.47984C9.12713 5.15995 8.64186 5 8.0186 5C7.41395 5 6.92713 5.16151 6.55814 5.48454C6.3257 5.68975 6.16584 5.94179 6.07856 6.24066C5.99087 6.54093 6.25546 6.80175 6.56827 6.80175C6.87863 6.80175 7.10183 6.51999 7.29128 6.27415C7.31549 6.24274 7.34243 6.21318 7.37209 6.18548C7.53643 6.03181 7.75194 5.95497 8.0186 5.95497C8.29767 5.95497 8.50853 6.03338 8.65116 6.19019C8.7969 6.34386 8.86977 6.5681 8.86977 6.8629C8.86977 7.08557 8.80775 7.29256 8.68372 7.48387C8.6031 7.60932 8.41085 7.82101 8.10698 8.11895C7.8062 8.41375 7.60465 8.68504 7.50233 8.9328C7.44789 9.06459 7.40794 9.22035 7.38246 9.40007ZM7.44186 10.9462C7.32713 11.0591 7.26977 11.2081 7.26977 11.3931C7.26977 11.5656 7.32403 11.7099 7.43256 11.8259C7.54419 11.942 7.70233 12 7.90698 12C8.11163 12 8.26977 11.942 8.3814 11.8259C8.49302 11.7099 8.54884 11.5656 8.54884 11.3931C8.54884 11.2144 8.49147 11.067 8.37674 10.9509C8.26202 10.8318 8.10543 10.7722 7.90698 10.7722C7.71163 10.7722 7.55659 10.8302 7.44186 10.9462Z" fill="black"/>
</svg>
