<svg width="33" height="32" viewBox="0 0 33 32" fill="none" xmlns="http://www.w3.org/2000/svg">
<g opacity="0.9">
<path d="M17.0541 17.4362C17.0401 17.9357 16.6311 18.3333 16.1314 18.3333C15.6312 18.3333 15.2221 17.935 15.2086 17.4351L15.0628 12.0269C15.0477 11.4643 15.4996 11 16.0625 11H16.2066C16.7699 11 17.2221 11.465 17.2062 12.0281L17.0541 17.4362Z" fill="black"/>
<path d="M17.2352 20.9C17.2352 21.5075 16.7427 22 16.1352 22C15.5276 22 15.0352 21.5075 15.0352 20.9C15.0352 20.2925 15.5276 19.8 16.1352 19.8C16.7427 19.8 17.2352 20.2925 17.2352 20.9Z" fill="black"/>
<path fill-rule="evenodd" clip-rule="evenodd" d="M16.0352 4C9.40774 4 4.03516 9.37258 4.03516 16C4.03516 22.6274 9.40774 28 16.0352 28C22.6626 28 28.0352 22.6274 28.0352 16C28.0352 9.37258 22.6626 4 16.0352 4ZM5.03516 16C5.03516 9.92487 9.96002 5 16.0352 5C22.1103 5 27.0352 9.92487 27.0352 16C27.0352 22.0751 22.1103 27 16.0352 27C9.96002 27 5.03516 22.0751 5.03516 16Z" fill="black"/>
</g>
</svg>
