<svg width="25" height="24" viewBox="0 0 25 24" fill="none" xmlns="http://www.w3.org/2000/svg">
<path opacity="0.9" fill-rule="evenodd" clip-rule="evenodd" d="M2.03516 12C2.03516 6.47715 6.51231 2 12.0352 2C17.558 2 22.0352 6.47715 22.0352 12C22.0352 17.5228 17.558 22 12.0352 22C6.51231 22 2.03516 17.5228 2.03516 12ZM12.8731 13.1845C12.8589 13.639 12.4864 14 12.0318 14C11.5767 14 11.204 13.6383 11.1904 13.1834L11.0651 8.9989C11.0487 8.45213 11.4875 8 12.0345 8C12.582 8 13.021 8.45291 13.0039 9.00016L12.8731 13.1845ZM13.0352 16C13.0352 16.5523 12.5874 17 12.0352 17C11.4829 17 11.0352 16.5523 11.0352 16C11.0352 15.4477 11.4829 15 12.0352 15C12.5874 15 13.0352 15.4477 13.0352 16Z" fill="black"/>
</svg>
