<svg width="33" height="32" viewBox="0 0 33 32" fill="none" xmlns="http://www.w3.org/2000/svg">
<path opacity="0.9" fill-rule="evenodd" clip-rule="evenodd" d="M4.03516 16C4.03516 9.37258 9.40774 4 16.0352 4C22.6626 4 28.0352 9.37258 28.0352 16C28.0352 22.6274 22.6626 28 16.0352 28C9.40774 28 4.03516 22.6274 4.03516 16ZM17.0541 17.4362C17.0401 17.9357 16.6311 18.3333 16.1314 18.3333C15.6312 18.3333 15.2221 17.935 15.2086 17.4351L15.0628 12.0269C15.0477 11.4643 15.4996 11 16.0625 11H16.2066C16.7699 11 17.2221 11.465 17.2062 12.0281L17.0541 17.4362ZM17.2352 20.9C17.2352 21.5075 16.7427 22 16.1352 22C15.5276 22 15.0352 21.5075 15.0352 20.9C15.0352 20.2925 15.5276 19.8 16.1352 19.8C16.7427 19.8 17.2352 20.2925 17.2352 20.9Z" fill="black"/>
</svg>
