<svg width="24" height="24" viewBox="0 0 24 24" fill="none" xmlns="http://www.w3.org/2000/svg">
<path opacity="0.9" fill-rule="evenodd" clip-rule="evenodd" d="M6 8C3.79086 8 2 9.79086 2 12C2 14.2091 3.79086 16 6 16H15.5C15.7761 16 16 16.2239 16 16.5C16 16.7761 15.7761 17 15.5 17H6C3.23858 17 1 14.7614 1 12C1 9.23858 3.23858 7 6 7H19.5C21.433 7 23 8.567 23 10.5C23 12.433 21.433 14 19.5 14H8C6.89543 14 6 13.1046 6 12C6 10.8954 6.89543 10 8 10H15.5C15.7761 10 16 10.2239 16 10.5C16 10.7761 15.7761 11 15.5 11H8C7.44772 11 7 11.4477 7 12C7 12.5523 7.44772 13 8 13H19.5C20.8807 13 22 11.8807 22 10.5C22 9.11929 20.8807 8 19.5 8H6Z" fill="black"/>
</svg>
