<svg width="32" height="32" viewBox="0 0 32 32" fill="none" xmlns="http://www.w3.org/2000/svg">
<path opacity="0.9" fill-rule="evenodd" clip-rule="evenodd" d="M8 12C5.79086 12 4 13.7909 4 16C4 18.2091 5.79086 20 8 20H18.5C18.7761 20 19 20.2239 19 20.5C19 20.7761 18.7761 21 18.5 21H8C5.23858 21 3 18.7614 3 16C3 13.2386 5.23858 11 8 11H25.5C27.433 11 29 12.567 29 14.5C29 16.433 27.433 18 25.5 18H10C8.89543 18 8 17.1046 8 16C8 14.8954 8.89543 14 10 14H18.5C18.7761 14 19 14.2239 19 14.5C19 14.7761 18.7761 15 18.5 15H10C9.44772 15 9 15.4477 9 16C9 16.5523 9.44772 17 10 17H25.5C26.8807 17 28 15.8807 28 14.5C28 13.1193 26.8807 12 25.5 12H8Z" fill="black"/>
</svg>
