<svg width="24" height="24" viewBox="0 0 24 24" fill="none" xmlns="http://www.w3.org/2000/svg">
<g opacity="0.9">
<path d="M14.3597 6.62953C14.4311 6.3628 14.2728 6.08863 14.0061 6.01716C13.7394 5.94569 13.4652 6.10398 13.3937 6.37071L13.0186 7.77082C12.9471 8.03755 13.1054 8.31172 13.3721 8.38319C13.6389 8.45466 13.913 8.29637 13.9845 8.02964L14.3597 6.62953Z" fill="black"/>
<path d="M16.3472 13.4985C16.3472 15.8999 14.4005 17.8466 11.9991 17.8466C9.59771 17.8466 7.651 15.8999 7.651 13.4985C7.651 11.0971 9.59771 9.15045 11.9991 9.15045C14.4005 9.15045 16.3472 11.0971 16.3472 13.4985Z" fill="black"/>
<path d="M19.484 11.4938C19.5555 11.7605 19.3972 12.0347 19.1304 12.1061L17.7303 12.4813C17.4636 12.5528 17.1894 12.3945 17.118 12.1277C17.0465 11.861 17.2048 11.5868 17.4715 11.5154L18.8716 11.1402C19.1384 11.0687 19.4125 11.227 19.484 11.4938Z" fill="black"/>
<path d="M6.88305 14.8702C6.95452 15.1369 6.79623 15.4111 6.52949 15.4825L5.12939 15.8577C4.86265 15.9292 4.58849 15.7709 4.51702 15.5042C4.44555 15.2374 4.60384 14.9633 4.87057 14.8918L6.27067 14.5166C6.53741 14.4452 6.81158 14.6034 6.88305 14.8702Z" fill="black"/>
<path d="M16.7718 18.9757C16.9671 19.1709 17.2837 19.1709 17.4789 18.9757C17.6742 18.7804 17.6742 18.4638 17.4789 18.2686L16.454 17.2436C16.2587 17.0484 15.9421 17.0484 15.7469 17.2436C15.5516 17.4389 15.5516 17.7555 15.7469 17.9507L16.7718 18.9757Z" fill="black"/>
<path d="M7.54729 9.75114C7.74255 9.94641 8.05913 9.94641 8.2544 9.75114C8.44966 9.55588 8.44966 9.2393 8.2544 9.04404L7.22945 8.01909C7.03419 7.82383 6.7176 7.82383 6.52234 8.01909C6.32708 8.21435 6.32708 8.53093 6.52234 8.7262L7.54729 9.75114Z" fill="black"/>
<path fill-rule="evenodd" clip-rule="evenodd" d="M1 4.5C1 3.11929 2.11929 2 3.5 2H20.5C21.8807 2 23 3.11929 23 4.5V19.5C23 20.8807 21.8807 22 20.5 22H3.5C2.11929 22 1 20.8807 1 19.5V4.5ZM22 19.5V6H2V19.5C2 20.3284 2.67157 21 3.5 21H10.0895C10.0584 20.9977 10.027 20.9925 9.99572 20.9841C9.72899 20.9127 9.5707 20.6385 9.64217 20.3718L10.0173 18.9717C10.0888 18.7049 10.363 18.5466 10.6297 18.6181C10.8964 18.6896 11.0547 18.9637 10.9833 19.2305L10.6081 20.6306C10.5515 20.8418 10.3678 20.985 10.1614 21H20.5C21.3284 21 22 20.3284 22 19.5Z" fill="black"/>
</g>
</svg>
