<svg width="24" height="24" viewBox="0 0 24 24" fill="none" xmlns="http://www.w3.org/2000/svg">
<g opacity="0.9">
<path fill-rule="evenodd" clip-rule="evenodd" d="M16.3472 13.4985C16.3472 15.8998 14.4005 17.8465 11.9991 17.8465C9.5977 17.8465 7.651 15.8998 7.651 13.4985C7.651 11.0971 9.5977 9.15039 11.9991 9.15039C14.4005 9.15039 16.3472 11.0971 16.3472 13.4985ZM15.3472 13.4985C15.3472 15.3476 13.8482 16.8465 11.9991 16.8465C10.15 16.8465 8.651 15.3476 8.651 13.4985C8.651 11.6494 10.15 10.1504 11.9991 10.1504C13.8482 10.1504 15.3472 11.6494 15.3472 13.4985Z" fill="black"/>
<path d="M19.484 11.4937C19.5555 11.7604 19.3972 12.0346 19.1304 12.1061L17.7303 12.4812C17.4636 12.5527 17.1894 12.3944 17.118 12.1277C17.0465 11.8609 17.2048 11.5868 17.4715 11.5153L18.8716 11.1402C19.1384 11.0687 19.4125 11.227 19.484 11.4937Z" fill="black"/>
<path d="M6.88304 14.8701C6.95451 15.1369 6.79622 15.411 6.52949 15.4825L5.12938 15.8576C4.86265 15.9291 4.58848 15.7708 4.51701 15.5041C4.44554 15.2374 4.60383 14.9632 4.87057 14.8917L6.27067 14.5166C6.5374 14.4451 6.81157 14.6034 6.88304 14.8701Z" fill="black"/>
<path d="M16.7718 18.9756C16.9671 19.1709 17.2837 19.1709 17.4789 18.9756C17.6742 18.7804 17.6742 18.4638 17.4789 18.2685L16.454 17.2436C16.2587 17.0483 15.9421 17.0483 15.7469 17.2436C15.5516 17.4388 15.5516 17.7554 15.7469 17.9507L16.7718 18.9756Z" fill="black"/>
<path d="M7.54729 9.75109C7.74256 9.94635 8.05914 9.94635 8.2544 9.75109C8.44966 9.55583 8.44966 9.23924 8.2544 9.04398L7.22945 8.01903C7.03419 7.82377 6.71761 7.82377 6.52235 8.01903C6.32708 8.2143 6.32708 8.53088 6.52235 8.72614L7.54729 9.75109Z" fill="black"/>
<path fill-rule="evenodd" clip-rule="evenodd" d="M1 4.5C1 3.11929 2.11929 2 3.5 2H20.5C21.8807 2 23 3.11929 23 4.5V19.5C23 20.8807 21.8807 22 20.5 22H3.5C2.11929 22 1 20.8807 1 19.5V4.5ZM3.5 3C2.67157 3 2 3.67157 2 4.5V5H22V4.5C22 3.67157 21.3284 3 20.5 3H3.5ZM22 6H13.8839C13.9243 6.00061 13.9653 6.00617 14.0061 6.0171C14.2729 6.08858 14.4312 6.36274 14.3597 6.62948L13.9845 8.02958C13.9131 8.29632 13.6389 8.45461 13.3721 8.38314C13.1054 8.31167 12.9471 8.0375 13.0186 7.77076L13.3938 6.37066C13.4529 6.1498 13.6511 6.00329 13.8689 6H2V19.5C2 20.3284 2.67157 21 3.5 21H10.0903C10.0589 20.9978 10.0273 20.9925 9.99574 20.9841C9.729 20.9126 9.57071 20.6384 9.64218 20.3717L10.0173 18.9716C10.0888 18.7049 10.363 18.5466 10.6297 18.6181C10.8964 18.6895 11.0547 18.9637 10.9833 19.2304L10.6081 20.6305C10.5514 20.842 10.3674 20.9853 10.1606 21H20.5C21.3284 21 22 20.3284 22 19.5V6Z" fill="black"/>
</g>
</svg>
