<svg width="16" height="16" viewBox="0 0 16 16" fill="none" xmlns="http://www.w3.org/2000/svg">
<g opacity="0.9">
<path d="M4.5 10H4V8.5C4 8.22386 4.22386 8 4.5 8C4.77614 8 5 8.22386 5 8.5V9.5C5 9.77614 4.77614 10 4.5 10Z" fill="black"/>
<path d="M9 10.9C9 11.4738 8.56065 11.945 8 11.9955V8.00448C8.56065 8.05501 9 8.5262 9 9.1V10.9Z" fill="black"/>
<path fill-rule="evenodd" clip-rule="evenodd" d="M3.5 0C2.11929 0 1 1.11929 1 2.5V13.5C1 14.8807 2.11929 16 3.5 16H12.5C13.8807 16 15 14.8807 15 13.5V3.58271L11.3918 0H3.5ZM14 4L11 1V3C11 3.55228 11.4477 4 12 4H14ZM4.5 7C3.67157 7 3 7.67157 3 8.5V12.5C3 12.7761 3.22386 13 3.5 13C3.77614 13 4 12.7761 4 12.5V11H4.5C5.32843 11 6 10.3284 6 9.5V8.5C6 7.67157 5.32843 7 4.5 7ZM7.9 7C7.40294 7 7 7.40294 7 7.9V12.1C7 12.5971 7.40294 13 7.9 13C9.0598 13 10 12.0598 10 10.9V9.1C10 7.9402 9.0598 7 7.9 7ZM11 7V12.5C11 12.7761 11.2239 13 11.5 13C11.7761 13 12 12.7761 12 12.5V10H12.5C12.7761 10 13 9.77614 13 9.5C13 9.22386 12.7761 9 12.5 9H12V8H12.5C12.7761 8 13 7.77614 13 7.5C13 7.22386 12.7761 7 12.5 7H11Z" fill="black"/>
</g>
</svg>
