<svg width="16" height="16" viewBox="0 0 16 16" fill="none" xmlns="http://www.w3.org/2000/svg">
<g opacity="0.9">
<path d="M2.85355 2.14657C2.65829 1.95131 2.34171 1.95131 2.14645 2.14657C1.95118 2.34183 1.95118 2.65841 2.14645 2.85368L13.1464 13.8537C13.3417 14.0489 13.6583 14.0489 13.8536 13.8537C14.0488 13.6584 14.0488 13.3418 13.8536 13.1466L2.85355 2.14657Z" fill="black"/>
<path d="M9 3.00005C9 2.80604 8.88777 2.62955 8.71208 2.54726C8.53639 2.46497 8.32895 2.49174 8.17991 2.61594L6.67991 3.86594C6.46777 4.04272 6.43911 4.35801 6.61589 4.57014C6.79267 4.78228 7.10795 4.81095 7.32009 4.63416L8 4.06757V5.50005C8 5.7762 8.22386 6.00005 8.5 6.00005C8.77614 6.00005 9 5.7762 9 5.50005V3.00005Z" fill="black"/>
<path d="M3.14213 6.15087C3.33501 5.95325 3.33117 5.63669 3.13356 5.44381C2.93594 5.25093 2.61938 5.25477 2.4265 5.45239C2.16312 5.72224 2 6.0926 2 6.50005V9.50005C2 10.3285 2.67157 11.0001 3.5 11.0001H5.31898L8.17991 13.3842C8.32895 13.5084 8.53639 13.5351 8.71208 13.4528C8.88777 13.3706 9 13.1941 9 13.0001V11.5001C9 11.2239 8.77614 11.0001 8.5 11.0001C8.22386 11.0001 8 11.2239 8 11.5001V11.9325L5.82009 10.1159C5.73023 10.0411 5.61697 10.0001 5.5 10.0001H3.5C3.22386 10.0001 3 9.7762 3 9.50005V6.50005C3 6.364 3.05368 6.24149 3.14213 6.15087Z" fill="black"/>
<path d="M10.916 5.22275C10.7628 4.99299 10.4524 4.9309 10.2226 5.08407C9.99288 5.23725 9.93079 5.54769 10.084 5.77745C10.6115 6.56881 10.827 7.52082 10.7257 8.44562C10.6956 8.72012 10.8937 8.96704 11.1682 8.99712C11.4427 9.02721 11.6896 8.82907 11.7197 8.55457C11.8456 7.40631 11.5792 6.2176 10.916 5.22275Z" fill="black"/>
<path d="M11.6987 3.10109C11.919 2.93466 12.2326 2.97837 12.399 3.19873C13.7725 5.0173 14.1698 7.76542 13.6141 10.1152C13.5505 10.3839 13.2811 10.5502 13.0124 10.4866C12.7437 10.4231 12.5774 10.1537 12.6409 9.88499C13.1429 7.76251 12.7596 5.33535 11.601 3.80142C11.4346 3.58107 11.4783 3.26752 11.6987 3.10109Z" fill="black"/>
</g>
</svg>
