<svg width="32" height="32" viewBox="0 0 32 32" fill="none" xmlns="http://www.w3.org/2000/svg">
<g opacity="0.9">
<path d="M6.20711 4.79302C5.81658 4.40249 5.18342 4.40249 4.79289 4.79302C4.40237 5.18354 4.40237 5.8167 4.79289 6.20723L25.7929 27.2072C26.1834 27.5978 26.8166 27.5978 27.2071 27.2072C27.5976 26.8167 27.5976 26.1835 27.2071 25.793L6.20711 4.79302Z" fill="black"/>
<path d="M6.5 11H8.17158L17 19.8284V25.5C17 25.6979 16.8833 25.8772 16.7023 25.9572C16.5213 26.0373 16.3101 26.0031 16.1637 25.87L10.8067 21H6.5C5.67157 21 5 20.3284 5 19.5V12.5C5 11.6716 5.67157 11 6.5 11Z" fill="black"/>
<path d="M20.3548 17.5264L21.7233 18.8949C21.9819 18.7657 22.1828 18.5259 22.252 18.222C22.9069 15.3459 22.2714 12.0619 20.2399 9.82731C19.8684 9.41865 19.236 9.38853 18.8273 9.76004C18.4187 10.1315 18.3886 10.764 18.7601 11.1727C20.2313 12.7911 20.7945 15.2539 20.3548 17.5264Z" fill="black"/>
<path d="M24.1851 21.3567L24.7627 21.9342C24.7794 21.9406 24.7965 21.9466 24.8138 21.9521C25.3397 22.1209 25.9028 21.8314 26.0716 21.3056C26.9074 18.7013 27.0884 15.7428 26.627 12.9948C26.1666 10.2533 25.0512 7.637 23.2071 5.79286C22.8166 5.40234 22.1834 5.40234 21.7929 5.79286C21.4024 6.18339 21.4024 6.81655 21.7929 7.20708C23.2634 8.67756 24.2418 10.8679 24.6546 13.326C25.0663 15.7777 24.8998 18.4119 24.1672 20.6944C24.0949 20.9196 24.1067 21.1517 24.1851 21.3567Z" fill="black"/>
<path d="M12.3895 9.56106L17 14.1715V6.49998C17 6.30207 16.8833 6.12279 16.7023 6.04272C16.5213 5.96266 16.3101 5.99688 16.1637 6.13001L12.3895 9.56106Z" fill="black"/>
</g>
</svg>
