<svg width="24" height="24" viewBox="0 0 24 24" fill="none" xmlns="http://www.w3.org/2000/svg">
<g opacity="0.9">
<path d="M3.85355 3.14657C3.65829 2.95131 3.34171 2.95131 3.14645 3.14657C2.95118 3.34183 2.95118 3.65841 3.14645 3.85368L20.1464 20.8537C20.3417 21.0489 20.6583 21.0489 20.8536 20.8537C21.0488 20.6584 21.0488 20.3418 20.8536 20.1466L3.85355 3.14657Z" fill="black"/>
<path d="M13 4.50005C13 4.30604 12.8878 4.12955 12.7121 4.04726C12.5364 3.96497 12.3289 3.99174 12.1799 4.11594L9.50583 6.34434C9.2937 6.52112 9.26503 6.8364 9.44182 7.04854C9.6186 7.26068 9.93388 7.28934 10.146 7.11256L12 5.56757V9.50005C12 9.7762 12.2239 10.0001 12.5 10.0001C12.7761 10.0001 13 9.7762 13 9.50005V4.50005Z" fill="black"/>
<path d="M4.5 8.00005C3.67157 8.00005 3 8.67163 3 9.50005V14.5001C3 15.3285 3.67157 16.0001 4.5 16.0001H7.8099L12.1678 19.8738C12.315 20.0046 12.5252 20.0368 12.7048 19.9562C12.8844 19.8755 13 19.6969 13 19.5001V15.5001C13 15.2239 12.7761 15.0001 12.5 15.0001C12.2239 15.0001 12 15.2239 12 15.5001V18.3866L8.33218 15.1263C8.24066 15.045 8.12246 15.0001 8 15.0001H4.5C4.22386 15.0001 4 14.7762 4 14.5001V9.50005C4 9.22391 4.22386 9.00005 4.5 9.00005C4.77614 9.00005 5 8.7762 5 8.50005C5 8.22391 4.77614 8.00005 4.5 8.00005Z" fill="black"/>
<path d="M14.2572 7.06306C14.4986 6.92895 14.803 7.01592 14.9371 7.25732C15.6575 8.55406 16.0001 10.2955 16 12.001C16 12.2772 15.7761 12.501 15.5 12.501C15.2238 12.501 15 12.2771 15 12.001C15.0001 10.4059 14.6761 8.84663 14.0629 7.74296C13.9288 7.50157 14.0158 7.19717 14.2572 7.06306Z" fill="black"/>
<path d="M17.424 4.23511C17.2776 4.00095 16.9692 3.92976 16.735 4.07611C16.5008 4.22247 16.4297 4.53094 16.576 4.76511C18.1291 7.25006 18.692 11.0123 18.2049 14.4296C18.1659 14.7029 18.3559 14.9561 18.6293 14.9951C18.9027 15.0341 19.1559 14.8441 19.1949 14.5707C19.7053 10.9899 19.135 6.97267 17.424 4.23511Z" fill="black"/>
</g>
</svg>
