<svg width="16" height="16" viewBox="0 0 16 16" fill="none" xmlns="http://www.w3.org/2000/svg">
<g opacity="0.9">
<path d="M6.64663 4.35404C6.84189 4.5493 7.15848 4.5493 7.35374 4.35404L8.85374 2.85404C8.94751 2.76027 9.00019 2.6331 9.00019 2.50049C9.00019 2.4647 8.99635 2.42931 8.9889 2.39487C8.9675 2.29497 8.91627 2.20614 8.84497 2.13817L7.35374 0.646935C7.15848 0.451673 6.84189 0.451673 6.64663 0.646935C6.45137 0.842197 6.45137 1.15878 6.64663 1.35404L7.29269 2.0001H7C4.23858 2.0001 2 4.23868 2 7.0001C2 7.27624 2.22386 7.5001 2.5 7.5001C2.77614 7.5001 3 7.27624 3 7.0001C3 4.79096 4.79086 3.0001 7 3.0001H7.29347L6.64663 3.64694C6.45137 3.8422 6.45137 4.15878 6.64663 4.35404Z" fill="black"/>
<path fill-rule="evenodd" clip-rule="evenodd" d="M12.3509 1.28374C12.2677 1.11038 12.0924 1.0001 11.9001 1.0001C11.7078 1.0001 11.5326 1.11038 11.4494 1.28374L9.04935 6.28374C8.92986 6.53268 9.0348 6.83137 9.28375 6.95086C9.5327 7.07036 9.83138 6.96542 9.95088 6.71647L10.5004 5.57153H13.2998L13.8494 6.71647C13.9688 6.96542 14.2675 7.07036 14.5165 6.95086C14.7654 6.83137 14.8704 6.53268 14.7509 6.28374L12.3509 1.28374ZM11.9001 2.65555L12.8198 4.57153H10.9804L11.9001 2.65555Z" fill="black"/>
<path d="M5 8.5001C5 8.22396 4.77614 8.0001 4.5 8.0001C4.22386 8.0001 4 8.22396 4 8.5001V9.0001H1.5C1.22386 9.0001 1 9.22396 1 9.5001C1 9.77624 1.22386 10.0001 1.5 10.0001H5.9387C5.79282 10.6359 5.39351 11.3783 4.81586 12.0856C4.6272 12.3166 4.42487 12.5373 4.21416 12.7429C3.61552 12.2105 3.13838 11.6588 2.94721 11.2765C2.82372 11.0295 2.52338 10.9294 2.27639 11.0529C2.0294 11.1764 1.92929 11.4767 2.05279 11.7237C2.31308 12.2443 2.85284 12.8559 3.44659 13.3974C3.06945 13.6749 2.68607 13.8942 2.32201 14.0329C2.06395 14.1312 1.93445 14.42 2.03275 14.6781C2.13106 14.9361 2.41994 15.0656 2.67799 14.9673C3.20351 14.7672 3.73515 14.4471 4.23596 14.0531C4.78056 14.4636 5.35339 14.8105 5.84091 14.9741C6.1027 15.062 6.38615 14.921 6.47401 14.6592C6.56188 14.3974 6.42089 14.114 6.15909 14.0261C5.84542 13.9208 5.43334 13.6856 4.99889 13.3731C5.2077 13.1637 5.40603 12.9439 5.59039 12.7181C6.26163 11.8962 6.80552 10.9236 6.95753 10.0001H7.5C7.77614 10.0001 8 9.77624 8 9.5001C8 9.22396 7.77614 9.0001 7.5 9.0001H5V8.5001Z" fill="black"/>
<path d="M9.44565 11.5544C9.25039 11.3591 8.93381 11.3591 8.73855 11.5544L7.23855 13.0544C7.22768 13.0652 7.21736 13.0765 7.20762 13.0883C7.1353 13.175 7.0918 13.2866 7.0918 13.4083C7.0918 13.5544 7.15441 13.6858 7.25427 13.7772L8.73855 15.2615C8.93381 15.4567 9.25039 15.4567 9.44565 15.2615C9.64092 15.0662 9.64092 14.7496 9.44565 14.5544L8.79959 13.9083H9.0918C11.8532 13.9083 14.0918 11.6697 14.0918 8.9083C14.0918 8.63216 13.8679 8.4083 13.5918 8.4083C13.3157 8.4083 13.0918 8.63216 13.0918 8.9083C13.0918 11.1174 11.3009 12.9083 9.0918 12.9083H8.79882L9.44565 12.2615C9.64092 12.0662 9.64092 11.7496 9.44565 11.5544Z" fill="black"/>
</g>
</svg>
