<svg width="32" height="32" viewBox="0 0 32 32" fill="none" xmlns="http://www.w3.org/2000/svg">
<g opacity="0.9">
<path fill-rule="evenodd" clip-rule="evenodd" d="M10.5 27.5C10.5 27.2239 10.7239 27 11 27H16.5C16.7761 27 17 27.2239 17 27.5C17 27.7761 16.7761 28 16.5 28H11C10.7239 28 10.5 27.7761 10.5 27.5Z" fill="black"/>
<path fill-rule="evenodd" clip-rule="evenodd" d="M4 9.5C4 8.11929 5.11929 7 6.5 7H25.5C26.8807 7 28 8.11929 28 9.5V17.5C28 17.7761 27.7761 18 27.5 18C27.2239 18 27 17.7761 27 17.5V9.5C27 8.67157 26.3284 8 25.5 8H6.5C5.67157 8 5 8.67157 5 9.5V22.5C5 23.3284 5.67157 24 6.5 24H16.5C16.7761 24 17 24.2239 17 24.5C17 24.7761 16.7761 25 16.5 25H6.5C5.11929 25 4 23.8807 4 22.5V9.5Z" fill="black"/>
<path fill-rule="evenodd" clip-rule="evenodd" d="M16 10C16 9.44772 16.4477 9 17 9H25C25.5523 9 26 9.44772 26 10V16C26 16.5523 25.5523 17 25 17H17C16.4477 17 16 16.5523 16 16V10ZM25 10L17 10V16H25V10Z" fill="black"/>
<path fill-rule="evenodd" clip-rule="evenodd" d="M23.5424 20.0001L25.2807 21.7384C25.3962 21.8539 25.448 22.0185 25.4195 22.1793L24.9923 24.5873C24.9557 24.7939 24.7939 24.9557 24.5873 24.9923L22.1793 25.4195C22.0185 25.448 21.8539 25.3962 21.7384 25.2807L20.0001 23.5424C20.0083 24.4301 20.3512 25.3145 21.0279 25.9912C21.946 26.9093 23.2466 27.2131 24.4189 26.9C24.5913 26.854 24.7752 26.9033 24.9014 27.0295L26.4312 28.5593C27.0188 29.1469 27.9716 29.1469 28.5593 28.5593C29.1469 27.9716 29.1469 27.0188 28.5593 26.4312L27.0295 24.9014C26.9033 24.7752 26.854 24.5913 26.9 24.4189C27.2131 23.2466 26.9093 21.946 25.9912 21.0279C25.3145 20.3512 24.4301 20.0083 23.5424 20.0001ZM22.3423 19.153C23.8453 18.7516 25.5176 19.1401 26.6983 20.3208C27.8045 21.427 28.2153 22.9647 27.9327 24.3904L29.2664 25.7241C30.2445 26.7022 30.2445 28.2882 29.2664 29.2664C28.2882 30.2445 26.7022 30.2445 25.7241 29.2664L24.3904 27.9327C22.9647 28.2153 21.427 27.8045 20.3208 26.6983C19.1401 25.5176 18.7516 23.8453 19.153 22.3423C19.1991 22.1696 19.3339 22.0347 19.5065 21.9884C19.6791 21.942 19.8633 21.9914 19.9896 22.1177L22.2612 24.3893L24.0687 24.0687L24.3893 22.2612L22.1177 19.9896C21.9914 19.8633 21.942 19.6791 21.9884 19.5065C22.0347 19.3339 22.1696 19.1991 22.3423 19.153Z" fill="black"/>
</g>
</svg>
