<svg width="24" height="24" viewBox="0 0 24 24" fill="none" xmlns="http://www.w3.org/2000/svg">
<g opacity="0.9">
<path fill-rule="evenodd" clip-rule="evenodd" d="M4.5 4C3.11929 4 2 5.11929 2 6.5V16.5C2 17.8807 3.11929 19 4.5 19H13.1662C13.0578 18.6017 13 18.1826 13 17.75L13.0002 17.7061C13.0003 17.2966 13.0535 16.8874 13.1596 16.4898C13.1782 16.4203 13.2015 16.3529 13.2293 16.2879C13.6969 14.8409 14.84 13.6976 16.2868 13.2296C16.3522 13.2016 16.4201 13.1781 16.49 13.1594C16.8948 13.0514 17.3116 12.9982 17.7285 13L17.75 13C19.61 13 21.2204 14.0691 22 15.6264V6.5C22 5.11929 20.8807 4 19.5 4H4.5ZM13 6C12.4477 6 12 6.44772 12 7V11C12 11.5523 12.4477 12 13 12H19C19.5523 12 20 11.5523 20 11V7C20 6.44772 19.5523 6 19 6H13Z" fill="black"/>
<path d="M7.5 20.5C7.5 20.2239 7.72386 20 8 20H13C13.2761 20 13.5 20.2239 13.5 20.5C13.5 20.7761 13.2761 21 13 21H8C7.72386 21 7.5 20.7761 7.5 20.5Z" fill="black"/>
<path d="M18.5383 20.8065C17.4682 21.0922 16.279 20.8154 15.4395 19.9758C14.6 19.1363 14.3231 17.9472 14.6089 16.877L16.5736 18.8417L18.8417 16.5736L16.877 14.6089C17.9472 14.3231 19.1363 14.6 19.9758 15.4395C20.8154 16.279 21.0922 17.4682 20.8065 18.5383L22.0302 19.7621C22.6566 20.3884 22.6566 21.4039 22.0302 22.0302C21.4039 22.6566 20.3884 22.6566 19.7621 22.0302L18.5383 20.8065Z" fill="black"/>
</g>
</svg>
