<svg width="16" height="16" viewBox="0 0 16 16" fill="none" xmlns="http://www.w3.org/2000/svg">
<path opacity="0.9" fill-rule="evenodd" clip-rule="evenodd" d="M12.7208 11.5146C12.5601 11.5243 12.3983 11.5291 12.2354 11.5291C7.81707 11.5291 4.23535 7.94743 4.23535 3.52915C4.23535 3.36621 4.24024 3.20436 4.24987 3.04373C3.01345 4.14327 2.23535 5.74594 2.23535 7.52915C2.23535 10.8429 4.92164 13.5291 8.23535 13.5291C10.0186 13.5291 11.6212 12.751 12.7208 11.5146ZM13.4969 10.4158C13.0877 10.4902 12.6661 10.5291 12.2354 10.5291C8.36936 10.5291 5.23535 7.39514 5.23535 3.52915C5.23535 3.09844 5.27425 2.67682 5.34873 2.26761C5.42846 1.82949 5.54898 1.4056 5.7062 1C5.26837 1.16972 4.85186 1.3822 4.4618 1.63233C2.52128 2.87671 1.23535 5.05276 1.23535 7.52915C1.23535 11.3951 4.36936 14.5291 8.23535 14.5291C10.7117 14.5291 12.8878 13.2432 14.1322 11.3027C14.3823 10.9126 14.5948 10.4961 14.7645 10.0583C14.3589 10.2155 13.935 10.336 13.4969 10.4158Z" fill="black"/>
</svg>
