<svg width="16" height="16" viewBox="0 0 16 16" fill="none" xmlns="http://www.w3.org/2000/svg">
<g opacity="0.9">
<path d="M6.50001 2C5.67159 2 5.00001 2.67157 5.00001 3.5V4.5C5.00001 4.77614 5.22387 5 5.50001 5C5.77616 5 6.00001 4.77614 6.00001 4.5V3.5C6.00001 3.22386 6.22387 3 6.50001 3H11.5C11.7762 3 12 3.22386 12 3.5V12.5C12 12.7761 11.7762 13 11.5 13H6.50001C6.22387 13 6.00001 12.7761 6.00001 12.5V10.5C6.00001 10.2239 5.77616 10 5.50001 10C5.22387 10 5.00001 10.2239 5.00001 10.5V12.5C5.00001 13.3284 5.67159 14 6.50001 14H11.5C12.3284 14 13 13.3284 13 12.5V3.5C13 2.67157 12.3284 2 11.5 2H6.50001Z" fill="black"/>
<path d="M7.14645 6.35355C6.95118 6.15829 6.95118 5.84171 7.14645 5.64645C7.34171 5.45118 7.65829 5.45118 7.85355 5.64645L9.70711 7.5L7.85355 9.35355C7.65829 9.54882 7.34171 9.54882 7.14645 9.35355C6.95118 9.15829 6.95118 8.84171 7.14645 8.64645L7.79289 8H2.5C2.22386 8 2 7.77614 2 7.5C2 7.22386 2.22386 7 2.5 7H7.79289L7.14645 6.35355Z" fill="black"/>
</g>
</svg>
