<svg width="16" height="16" viewBox="0 0 16 16" fill="none" xmlns="http://www.w3.org/2000/svg">
<g opacity="0.9">
<path d="M6.5 2C5.67157 2 5 2.67157 5 3.5V6H6C6 5.61612 6.14645 5.23223 6.43934 4.93934C7.02513 4.35355 7.97487 4.35355 8.56066 4.93934L11.1213 7.5L8.56066 10.0607C7.97487 10.6464 7.02513 10.6464 6.43934 10.0607C6.14645 9.76777 6 9.38388 6 9H5V12.5C5 13.3284 5.67157 14 6.5 14H11.5C12.3284 14 13 13.3284 13 12.5V3.5C13 2.67157 12.3284 2 11.5 2H6.5Z" fill="black"/>
<path d="M7.79289 7L7.14645 6.35355C6.95118 6.15829 6.95118 5.84171 7.14645 5.64645C7.34171 5.45118 7.65829 5.45118 7.85355 5.64645L9.70711 7.5L7.85355 9.35355C7.65829 9.54882 7.34171 9.54882 7.14645 9.35355C6.95118 9.15829 6.95118 8.84171 7.14645 8.64645L7.79289 8H2.5C2.22386 8 2 7.77614 2 7.5C2 7.22386 2.22386 7 2.5 7H7.79289Z" fill="black"/>
</g>
</svg>
