<svg width="32" height="32" viewBox="0 0 32 32" fill="none" xmlns="http://www.w3.org/2000/svg">
<g opacity="0.9">
<path d="M19.5 13C19.2239 13 19 13.2239 19 13.5C19 13.7761 19.2239 14 19.5 14H24.5C24.7761 14 25 13.7761 25 13.5C25 13.2239 24.7761 13 24.5 13H19.5Z" fill="black"/>
<path d="M19 15.5C19 15.2239 19.2239 15 19.5 15H24.5C24.7761 15 25 15.2239 25 15.5C25 15.7761 24.7761 16 24.5 16H19.5C19.2239 16 19 15.7761 19 15.5Z" fill="black"/>
<path d="M19.5 17C19.2239 17 19 17.2239 19 17.5C19 17.7761 19.2239 18 19.5 18H22.5C22.7761 18 23 17.7761 23 17.5C23 17.2239 22.7761 17 22.5 17H19.5Z" fill="black"/>
<path fill-rule="evenodd" clip-rule="evenodd" d="M26 25C27.1046 25 28 24.1046 28 23V9C28 7.89543 27.1046 7 26 7H6C4.89543 7 4 7.89543 4 9V23C4 24.1046 4.89543 25 6 25H26ZM6 8H26C26.5523 8 27 8.44772 27 9V23C27 23.5523 26.5523 24 26 24H18V22C18 20.0836 16.6523 18.4819 14.8529 18.0911C15.5576 17.4509 16 16.5271 16 15.5C16 13.567 14.433 12 12.5 12C10.567 12 9 13.567 9 15.5C9 16.5271 9.44242 17.4509 10.1471 18.0911C8.34772 18.4819 7 20.0836 7 22V24H6C5.44772 24 5 23.5523 5 23V9C5 8.44772 5.44772 8 6 8ZM8 24V22C8 20.3431 9.34315 19 11 19H14C15.6569 19 17 20.3431 17 22V24H8ZM12.5 18C13.8807 18 15 16.8807 15 15.5C15 14.1193 13.8807 13 12.5 13C11.1193 13 10 14.1193 10 15.5C10 16.8807 11.1193 18 12.5 18Z" fill="black"/>
</g>
</svg>
