<svg width="32" height="32" viewBox="0 0 32 32" fill="none" xmlns="http://www.w3.org/2000/svg">
<path opacity="0.9" fill-rule="evenodd" clip-rule="evenodd" d="M4 9C4 7.89543 4.89543 7 6 7H26C27.1046 7 28 7.89543 28 9V23C28 24.1046 27.1046 25 26 25H6C4.89543 25 4 24.1046 4 23V9ZM7 24H18V22C18 20.0836 16.6523 18.4819 14.8529 18.0911C15.5576 17.4509 16 16.5271 16 15.5C16 13.567 14.433 12 12.5 12C10.567 12 9 13.567 9 15.5C9 16.5271 9.44242 17.4509 10.1471 18.0911C8.34772 18.4819 7 20.0836 7 22V24ZM19.5 13C19.2239 13 19 13.2239 19 13.5C19 13.7761 19.2239 14 19.5 14H24.5C24.7761 14 25 13.7761 25 13.5C25 13.2239 24.7761 13 24.5 13H19.5ZM19.5 15C19.2239 15 19 15.2239 19 15.5C19 15.7761 19.2239 16 19.5 16H24.5C24.7761 16 25 15.7761 25 15.5C25 15.2239 24.7761 15 24.5 15H19.5ZM19 17.5C19 17.2239 19.2239 17 19.5 17H22.5C22.7761 17 23 17.2239 23 17.5C23 17.7761 22.7761 18 22.5 18H19.5C19.2239 18 19 17.7761 19 17.5Z" fill="black"/>
</svg>
