<svg width="32" height="32" viewBox="0 0 32 32" fill="none" xmlns="http://www.w3.org/2000/svg">
<g opacity="0.9">
<g opacity="0.9">
<path fill-rule="evenodd" clip-rule="evenodd" d="M10 6C7.79086 6 6 7.79086 6 10V11C6 13.2091 7.79086 15 10 15H11C13.2091 15 15 13.2091 15 11V10C15 7.79086 13.2091 6 11 6H10ZM11 7H10C8.34315 7 7 8.34315 7 10V11C7 12.6569 8.34315 14 10 14H11C12.6569 14 14 12.6569 14 11V10C14 8.34315 12.6569 7 11 7Z" fill="black"/>
<path fill-rule="evenodd" clip-rule="evenodd" d="M21 17C18.7909 17 17 18.7909 17 21V22C17 24.2091 18.7909 26 21 26H22C24.2091 26 26 24.2091 26 22V21C26 18.7909 24.2091 17 22 17H21ZM22 18H21C19.3431 18 18 19.3431 18 21V22C18 23.6569 19.3431 25 21 25H22C23.6569 25 25 23.6569 25 22V21C25 19.3431 23.6569 18 22 18Z" fill="black"/>
<path d="M24.3536 8.35355C24.5488 8.15829 24.5488 7.84171 24.3536 7.64645C24.1583 7.45118 23.8417 7.45118 23.6464 7.64645L7.64645 23.6464C7.45118 23.8417 7.45118 24.1583 7.64645 24.3536C7.84171 24.5488 8.15829 24.5488 8.35355 24.3536L24.3536 8.35355Z" fill="black"/>
</g>
</g>
</svg>
