<svg width="32" height="32" viewBox="0 0 32 32" fill="none" xmlns="http://www.w3.org/2000/svg">
<g opacity="0.9">
<path fill-rule="evenodd" clip-rule="evenodd" d="M11 16C11 17.1046 10.1046 18 9.00003 18C7.89546 18 7.00003 17.1046 7.00003 16C7.00003 14.8954 7.89546 14 9.00003 14C10.1046 14 11 14.8954 11 16ZM10 16C10 16.5523 9.55232 17 9.00003 17C8.44775 17 8.00003 16.5523 8.00003 16C8.00003 15.4477 8.44775 15 9.00003 15C9.55232 15 10 15.4477 10 16Z" fill="black"/>
<path fill-rule="evenodd" clip-rule="evenodd" d="M11.0263 8C10.3754 8 9.75024 8.25382 9.28359 8.70751L3.62644 14.2075C2.61671 15.1892 2.61671 16.8108 3.62645 17.7925L9.28359 23.2925C9.75024 23.7462 10.3754 24 11.0263 24H26.5C27.8807 24 29 22.8807 29 21.5V10.5C29 9.11929 27.8807 8 26.5 8H11.0263ZM9.98067 9.42451C10.2607 9.15229 10.6358 9 11.0263 9H26.5C27.3284 9 28 9.67157 28 10.5V21.5C28 22.3284 27.3284 23 26.5 23H11.0263C10.6358 23 10.2607 22.8477 9.98067 22.5755L4.32352 17.0755C3.71768 16.4865 3.71768 15.5135 4.32352 14.9245L9.98067 9.42451Z" fill="black"/>
</g>
</svg>
