<svg width="32" height="32" viewBox="0 0 32 32" fill="none" xmlns="http://www.w3.org/2000/svg">
<path opacity="0.9" fill-rule="evenodd" clip-rule="evenodd" d="M4 16C4 9.37258 9.37258 4 16 4C22.6274 4 28 9.37258 28 16C28 22.6274 22.6274 28 16 28C9.37258 28 4 22.6274 4 16ZM23.2071 13.2071C23.5976 12.8166 23.5976 12.1834 23.2071 11.7929C22.8166 11.4024 22.1834 11.4024 21.7929 11.7929L14 19.5858L11.2071 16.7929C10.8166 16.4024 10.1834 16.4024 9.79289 16.7929C9.40237 17.1834 9.40237 17.8166 9.79289 18.2071L14 22.4142L23.2071 13.2071Z" fill="black"/>
</svg>
