<svg width="16" height="16" viewBox="0 0 16 16" fill="none" xmlns="http://www.w3.org/2000/svg">
<path opacity="0.9" fill-rule="evenodd" clip-rule="evenodd" d="M1 4C1 3.44772 1.44772 3 2 3H14C14.5523 3 15 3.44772 15 4V12C15 12.5523 14.5523 13 14 13H2C1.44772 13 1 12.5523 1 12V4ZM3 12H9V11.5C9 10.502 8.41519 9.64054 7.56955 9.23969C7.83909 8.8989 8 8.46824 8 8C8 6.89543 7.10457 6 6 6C4.89543 6 4 6.89543 4 8C4 8.46824 4.16091 8.8989 4.43045 9.23969C3.58481 9.64054 3 10.502 3 11.5V12ZM10 7.5C10 7.22386 10.2239 7 10.5 7H12.5C12.7761 7 13 7.22386 13 7.5C13 7.77614 12.7761 8 12.5 8H10.5C10.2239 8 10 7.77614 10 7.5ZM10.5 9C10.2239 9 10 9.22386 10 9.5C10 9.77614 10.2239 10 10.5 10H11.5C11.7761 10 12 9.77614 12 9.5C12 9.22386 11.7761 9 11.5 9H10.5Z" fill="black"/>
</svg>
