<svg width="24" height="24" viewBox="0 0 24 24" fill="none" xmlns="http://www.w3.org/2000/svg">
<path opacity="0.9" fill-rule="evenodd" clip-rule="evenodd" d="M2 7C2 5.89543 2.89543 5 4 5H20C21.1046 5 22 5.89543 22 7V17C22 18.1046 21.1046 19 20 19H4C2.89543 19 2 18.1046 2 17V7ZM4 18H14V16.5C14 14.7983 12.7855 13.3802 11.176 13.0652C11.6867 12.5273 12 11.8003 12 11C12 9.34315 10.6569 8 9 8C7.34315 8 6 9.34315 6 11C6 11.8003 6.31334 12.5273 6.82402 13.0652C5.2145 13.3802 4 14.7983 4 16.5L4 18ZM15.5 9C15.2239 9 15 9.22386 15 9.5C15 9.77614 15.2239 10 15.5 10H18.5C18.7761 10 19 9.77614 19 9.5C19 9.22386 18.7761 9 18.5 9H15.5ZM15 11.5C15 11.2239 15.2239 11 15.5 11H18.5C18.7761 11 19 11.2239 19 11.5C19 11.7761 18.7761 12 18.5 12H15.5C15.2239 12 15 11.7761 15 11.5ZM15.5 13C15.2239 13 15 13.2239 15 13.5C15 13.7761 15.2239 14 15.5 14H17.5C17.7761 14 18 13.7761 18 13.5C18 13.2239 17.7761 13 17.5 13H15.5Z" fill="black"/>
</svg>
