<svg width="16" height="16" viewBox="0 0 16 16" fill="none" xmlns="http://www.w3.org/2000/svg">
<g opacity="0.9">
<path d="M3.99634 6.5C4.82476 6.5 5.49634 7.17157 5.49634 8C5.49634 8.82843 4.82477 9.5 3.99634 9.5C3.16791 9.5 2.49634 8.82843 2.49634 8C2.49634 7.17157 3.16791 6.5 3.99634 6.5Z" fill="black"/>
<path d="M7.99636 6.5C8.82479 6.5 9.49636 7.17157 9.49636 8C9.49636 8.82843 8.82479 9.5 7.99636 9.5C7.16793 9.5 6.49636 8.82843 6.49636 8C6.49636 7.17157 7.16793 6.5 7.99636 6.5Z" fill="black"/>
<path d="M11.9963 6.5C12.8248 6.5 13.4963 7.17157 13.4963 8C13.4963 8.82843 12.8248 9.5 11.9963 9.5C11.1679 9.5 10.4963 8.82843 10.4963 8C10.4963 7.17157 11.1679 6.5 11.9963 6.5Z" fill="black"/>
</g>
</svg>
