<svg width="32" height="32" viewBox="0 0 32 32" fill="none" xmlns="http://www.w3.org/2000/svg">
<g opacity="0.9">
<path d="M23 16C23 15.4477 22.5523 15 22 15H10C9.44771 15 9 15.4477 9 16C9 16.5523 9.44772 17 10 17H22C22.5523 17 23 16.5523 23 16Z" fill="black"/>
<path fill-rule="evenodd" clip-rule="evenodd" d="M16 4C9.37258 4 4 9.37258 4 16C4 22.6274 9.37258 28 16 28C22.6274 28 28 22.6274 28 16C28 9.37258 22.6274 4 16 4ZM5 16C5 9.92487 9.92487 5 16 5C22.0751 5 27 9.92487 27 16C27 22.0751 22.0751 27 16 27C9.92487 27 5 22.0751 5 16Z" fill="black"/>
</g>
</svg>
