<svg width="32" height="32" viewBox="0 0 32 32" fill="none" xmlns="http://www.w3.org/2000/svg">
<g opacity="0.9">
<path fill-rule="evenodd" clip-rule="evenodd" d="M17 6.50001C17 6.3021 16.8833 6.12282 16.7023 6.04275C16.5213 5.96269 16.3101 5.99691 16.1637 6.13004L10.8067 11H6.5C5.67157 11 5 11.6716 5 12.5V19.5C5 20.3284 5.67157 21 6.5 21H10.8067L16.1637 25.87C16.3101 26.0031 16.5213 26.0373 16.7023 25.9573C16.8833 25.8772 17 25.6979 17 25.5V6.50001ZM11.3363 11.87L16 7.63029V24.3697L11.3363 20.13C11.2443 20.0464 11.1244 20 11 20H6.5C6.22386 20 6 19.7762 6 19.5V12.5C6 12.2239 6.22386 12 6.5 12H11C11.1244 12 11.2443 11.9536 11.3363 11.87Z" fill="black"/>
<path d="M19.87 10.1637C19.6842 9.95934 19.368 9.94428 19.1637 10.13C18.9593 10.3158 18.9443 10.632 19.13 10.8363C20.3667 12.1967 21 14.087 21 16C21 17.913 20.3667 19.8033 19.13 21.1637C18.9443 21.368 18.9593 21.6842 19.1637 21.87C19.368 22.0557 19.6842 22.0407 19.87 21.8363C21.2999 20.2634 22 18.1203 22 16C22 13.8797 21.2999 11.7366 19.87 10.1637Z" fill="black"/>
</g>
</svg>
