<svg width="32" height="32" viewBox="0 0 32 32" fill="none" xmlns="http://www.w3.org/2000/svg">
<g opacity="0.9">
<path d="M16.7023 6.04275C16.8833 6.12282 17 6.3021 17 6.50001V25.5C17 25.6979 16.8833 25.8772 16.7023 25.9573C16.5213 26.0373 16.3101 26.0031 16.1637 25.87L10.8067 21H6.5C5.67157 21 5 20.3284 5 19.5V12.5C5 11.6716 5.67157 11 6.5 11H10.8067L16.1637 6.13004C16.3101 5.99691 16.5213 5.96269 16.7023 6.04275Z" fill="black"/>
<path d="M20.2399 9.82733C19.8684 9.41868 19.236 9.38856 18.8273 9.76007C18.4187 10.1316 18.3886 10.764 18.7601 11.1727C19.9001 12.4267 20.5 14.1906 20.5 16C20.5 17.8094 19.9001 19.5733 18.7601 20.8273C18.3886 21.236 18.4187 21.8684 18.8273 22.2399C19.236 22.6115 19.8684 22.5813 20.2399 22.1727C21.7666 20.4934 22.5 18.224 22.5 16C22.5 13.776 21.7666 11.5066 20.2399 9.82733Z" fill="black"/>
</g>
</svg>
