<svg width="32" height="32" viewBox="0 0 32 32" fill="none" xmlns="http://www.w3.org/2000/svg">
<g opacity="0.9">
<path fill-rule="evenodd" clip-rule="evenodd" d="M14.4322 5.56461C14.026 5.92568 13.7364 6.47809 13.7364 7.26362C13.7364 7.53976 13.5125 7.76362 13.2364 7.76362C12.4065 7.76362 11.3523 8.01974 10.5117 8.77619C9.68408 9.52102 9 10.8081 9 13V20.2573C9 20.7221 8.82927 21.1367 8.61807 21.4945C8.41515 21.8382 8.1507 22.168 7.91213 22.4655L7.8901 22.4929C7.63562 22.8104 7.41034 23.0943 7.24499 23.3793C7.11355 23.6059 7.03492 23.8089 7.00929 24H24.9907C24.9651 23.8089 24.8865 23.6059 24.755 23.3793C24.5897 23.0943 24.3644 22.8104 24.1099 22.4929L24.0879 22.4656C23.8494 22.1681 23.5849 21.8383 23.3819 21.4945C23.1707 21.1367 23 20.7221 23 20.2573V13C23 12.7239 23.2239 12.5 23.5 12.5C23.7761 12.5 24 12.7239 24 13V20.2573C24 20.4737 24.0793 20.7087 24.2431 20.9861C24.4089 21.267 24.6343 21.5484 24.8901 21.8674L24.8913 21.8689C25.1365 22.1748 25.4107 22.5167 25.62 22.8775C25.8318 23.2426 26 23.664 26 24.1366V24.5C26 24.7761 25.7761 25 25.5 25H19.4646C19.2219 26.6961 17.7632 28 16 28C14.2368 28 12.7781 26.6961 12.5354 25H6.5C6.22386 25 6 24.7761 6 24.5V24.1366C6 23.6641 6.16822 23.2426 6.38001 22.8775C6.58931 22.5167 6.86346 22.1748 7.10866 21.869L7.1099 21.8674C7.36569 21.5484 7.59111 21.267 7.75693 20.9861C7.92073 20.7087 8 20.4737 8 20.2573V13C8 10.5858 8.76289 9.00471 9.8428 8.03287C10.7507 7.21585 11.8374 6.87028 12.765 6.78538C12.8672 5.9543 13.236 5.28987 13.7678 4.8172C14.3888 4.26525 15.2025 4 16 4C16.7974 4 17.6112 4.26525 18.2322 4.8172C18.7639 5.28987 19.1327 5.95428 19.2349 6.78532C19.3472 6.79558 19.4617 6.80964 19.5776 6.82785C19.8504 6.87068 20.0368 7.12656 19.9939 7.39936C19.9511 7.67216 19.6952 7.85858 19.4224 7.81574C19.1918 7.77952 18.9697 7.76362 18.7636 7.76362C18.4875 7.76362 18.2636 7.53976 18.2636 7.26362C18.2636 6.4781 17.974 5.92569 17.5678 5.56461C17.1524 5.19536 16.5844 5 16 5C15.4156 5 14.8476 5.19535 14.4322 5.56461ZM16 27C14.7905 27 13.7816 26.1411 13.55 25H18.45C18.2184 26.1411 17.2095 27 16 27Z" fill="black"/>
<path d="M24.5 11C26.433 11 28 9.433 28 7.5C28 5.567 26.433 4 24.5 4C22.567 4 21 5.567 21 7.5C21 9.433 22.567 11 24.5 11Z" fill="black"/>
</g>
</svg>
