<svg width="24" height="24" viewBox="0 0 24 24" fill="none" xmlns="http://www.w3.org/2000/svg">
<g opacity="0.9">
<path d="M14.6485 4.21836C14.7817 4.23831 14.9195 4.26649 15.0605 4.30304C15.0207 4.52938 15 4.76227 15 5C15 7.19509 16.7682 8.97721 18.9579 8.99978C18.9855 9.24714 19 9.50473 19 9.77273V15.1505C19 15.5472 19.1836 15.9258 19.4458 16.4422L19.4608 16.4718C19.6991 16.9407 20 17.5329 20 18.2131V18.5C20 18.7761 19.7761 19 19.5 19H4.5C4.22386 19 4 18.7761 4 18.5V18.2131C4 17.5329 4.30089 16.9407 4.53916 16.4718L4.55418 16.4422C4.81637 15.9258 5 15.5472 5 15.1505V9.77273C5 7.80909 5.77875 6.40373 6.77683 5.49408C7.59034 4.75265 8.55326 4.33788 9.35151 4.21836C9.4473 3.57165 9.74384 3.04861 10.1678 2.67174C10.6797 2.21676 11.348 2 12 2C12.652 2 13.3203 2.21677 13.8322 2.67175C14.2561 3.04861 14.5527 3.57165 14.6485 4.21836Z" fill="black"/>
<path d="M16 5C16 4.88718 16.0062 4.77581 16.0184 4.66622C16.1844 3.16645 17.456 2 19 2C20.6569 2 22 3.34315 22 5C22 6.65685 20.6569 8 19 8C18.9194 8 18.8395 7.99682 18.7605 7.99058C17.2156 7.86854 16 6.57623 16 5Z" fill="black"/>
<path d="M12 21.5C10.9528 21.5 10.0489 20.8869 9.62761 20H14.3724C13.9511 20.8869 13.0471 21.5 12 21.5Z" fill="black"/>
</g>
</svg>
