<svg width="32" height="32" viewBox="0 0 32 32" fill="none" xmlns="http://www.w3.org/2000/svg">
<g opacity="0.9">
<path fill-rule="evenodd" clip-rule="evenodd" d="M4 7.5C4 5.567 5.567 4 7.5 4H24.5C26.433 4 28 5.567 28 7.5V15.5C28 15.7761 27.7761 16 27.5 16H4.5C4.22386 16 4 15.7761 4 15.5V7.5ZM7.5 5C6.11929 5 5 6.11929 5 7.5V15H27V7.5C27 6.11929 25.8807 5 24.5 5H7.5Z" fill="black"/>
<path fill-rule="evenodd" clip-rule="evenodd" d="M4 17.5C4 17.2239 4.22386 17 4.5 17H27.5C27.7761 17 28 17.2239 28 17.5V21.5C28 21.7761 27.7761 22 27.5 22H4.5C4.22386 22 4 21.7761 4 21.5V17.5ZM5 18V21H27V18H5Z" fill="black"/>
<path fill-rule="evenodd" clip-rule="evenodd" d="M7.5 28C5.567 28 4 26.433 4 24.5V23.5C4 23.2239 4.22386 23 4.5 23H27.5C27.7761 23 28 23.2239 28 23.5V24.5C28 26.433 26.433 28 24.5 28H7.5ZM5 24.5C5 25.8807 6.11929 27 7.5 27H24.5C25.8807 27 27 25.8807 27 24.5V24H5V24.5Z" fill="black"/>
</g>
</svg>
