<svg width="24" height="24" viewBox="0 0 24 24" fill="none" xmlns="http://www.w3.org/2000/svg">
<g opacity="0.9">
<path fill-rule="evenodd" clip-rule="evenodd" d="M2 4.5C2 3.11929 3.11929 2 4.5 2H19.5C20.8807 2 22 3.11929 22 4.5V11.5C22 11.7761 21.7761 12 21.5 12H2.5C2.22386 12 2 11.7761 2 11.5V4.5ZM4.5 3C3.67157 3 3 3.67157 3 4.5V11H21V4.5C21 3.67157 20.3284 3 19.5 3H4.5Z" fill="black"/>
<path fill-rule="evenodd" clip-rule="evenodd" d="M2 13.5C2 13.2239 2.22386 13 2.5 13H21.5C21.7761 13 22 13.2239 22 13.5V16.5C22 16.7761 21.7761 17 21.5 17H2.5C2.22386 17 2 16.7761 2 16.5V13.5ZM3 14V16H21V14H3Z" fill="black"/>
<path fill-rule="evenodd" clip-rule="evenodd" d="M4.5 22C3.11929 22 2 20.8807 2 19.5V18.5C2 18.2239 2.22386 18 2.5 18H21.5C21.7761 18 22 18.2239 22 18.5V19.5C22 20.8807 20.8807 22 19.5 22H4.5ZM3 19.5C3 20.3284 3.67157 21 4.5 21H19.5C20.3284 21 21 20.3284 21 19.5V19H3V19.5Z" fill="black"/>
</g>
</svg>
