<svg width="32" height="32" viewBox="0 0 32 32" fill="none" xmlns="http://www.w3.org/2000/svg">
<g opacity="0.9">
<path d="M7.5 4C5.567 4 4 5.567 4 7.5V15.5C4 15.7761 4.22386 16 4.5 16H27.5C27.7761 16 28 15.7761 28 15.5V7.5C28 5.567 26.433 4 24.5 4H7.5Z" fill="black"/>
<path d="M4.5 17C4.22386 17 4 17.2239 4 17.5V21.5C4 21.7761 4.22386 22 4.5 22H27.5C27.7761 22 28 21.7761 28 21.5V17.5C28 17.2239 27.7761 17 27.5 17H4.5Z" fill="black"/>
<path d="M7.5 28C5.567 28 4 26.433 4 24.5V23.5C4 23.2239 4.22386 23 4.5 23H27.5C27.7761 23 28 23.2239 28 23.5V24.5C28 26.433 26.433 28 24.5 28H7.5Z" fill="black"/>
</g>
</svg>
