<svg width="32" height="32" viewBox="0 0 32 32" fill="none" xmlns="http://www.w3.org/2000/svg">
<path opacity="0.9" fill-rule="evenodd" clip-rule="evenodd" d="M16.5 8C13.5562 8 11.0683 9.95732 10.2691 12.6426L10.1627 13H9.5C7.01472 13 5 15.0147 5 17.5C5 19.9853 7.01472 22 9.5 22H20.5C20.6452 22 20.7886 21.9931 20.93 21.9798L20.975 21.9755L21.0201 21.9794C21.1782 21.993 21.3382 22 21.5 22C24.5376 22 27 19.5376 27 16.5C27 13.7051 24.9149 11.3965 22.2157 11.0461L21.9938 11.0173L21.8675 10.8327C20.6957 9.12125 18.7287 8 16.5 8ZM9.42674 12.0005C10.4561 9.08766 13.2337 7 16.5 7C18.9931 7 21.2018 8.21682 22.5648 10.0869C25.6483 10.5952 28 13.2726 28 16.5C28 20.0899 25.0899 23 21.5 23C21.3247 23 21.151 22.9931 20.979 22.9794C20.821 22.993 20.6613 23 20.5 23H9.5C6.46243 23 4 20.5376 4 17.5C4 14.4869 6.42294 12.0397 9.42674 12.0005Z" fill="black"/>
</svg>
