<svg width="16" height="16" viewBox="0 0 16 16" fill="none" xmlns="http://www.w3.org/2000/svg">
<path opacity="0.9" fill-rule="evenodd" clip-rule="evenodd" d="M8 4C6.25916 4 4.77683 5.11236 4.22748 6.66662L4.10965 7H3.5C2.11929 7 1 8.11929 1 9.5C1 10.8807 2.11929 12 3.5 12H12C13.6569 12 15 10.6569 15 9C15 7.34315 13.6569 6 12 6C11.9272 6 11.855 6.00259 11.7836 6.00766L11.4933 6.0283L11.332 5.78606C10.6143 4.70836 9.38978 4 8 4ZM3.41576 6.00099C4.18685 4.23513 5.94862 3 8 3C9.63634 3 11.0888 3.78643 12.0003 5C14.2093 5.00017 16 6.79097 16 9C16 11.2091 14.2091 13 12 13H3.5C1.567 13 0 11.433 0 9.5C0 7.59516 1.52168 6.04573 3.41576 6.00099Z" fill="black"/>
</svg>
