<svg width="24" height="24" viewBox="0 0 24 24" fill="none" xmlns="http://www.w3.org/2000/svg">
<path opacity="0.9" d="M8.17436 5.12038C8.38402 4.94067 8.69967 4.96495 8.87938 5.17461C9.0591 5.38428 9.03481 5.69993 8.82515 5.87964L6.35139 8.00001L8.49976 8.00001C8.50636 8.00001 8.51294 8.00014 8.51949 8.00039C14.3095 8.01093 19 12.7079 19 18.5004C19 18.7765 18.7761 19.0004 18.5 19.0004C18.2238 19.0004 18 18.7765 18 18.5004C18 13.2537 13.7467 9.00037 8.49996 9.00037C8.49351 9.00037 8.48709 9.00025 8.4807 9.00001L6.35138 9.00001L8.82515 11.1204C9.03481 11.3001 9.0591 11.6157 8.87938 11.8254C8.69967 12.0351 8.38402 12.0593 8.17436 11.8796L4.67436 8.87964C4.56354 8.78465 4.49976 8.64597 4.49976 8.50001C4.49976 8.35405 4.56354 8.21537 4.67436 8.12038L8.17436 5.12038Z" fill="black"/>
</svg>
