<svg width="32" height="32" viewBox="0 0 32 32" fill="none" xmlns="http://www.w3.org/2000/svg">
<path opacity="0.9" d="M11.1464 7.14645C11.3417 6.95118 11.6583 6.95118 11.8536 7.14645C12.0488 7.34171 12.0488 7.65829 11.8536 7.85355L8.70711 11L11.5 11C11.5068 11 11.5135 11.0001 11.5203 11.0004C18.9669 11.0112 25.0002 17.0512 25.0002 24.5004C25.0002 24.7765 24.7763 25.0004 24.5002 25.0004C24.224 25.0004 24.0002 24.7765 24.0002 24.5004C24.0002 17.5968 18.4037 12.0004 11.5002 12.0004C11.4935 12.0004 11.4869 12.0003 11.4803 12H8.70711L11.8536 15.1464C12.0488 15.3417 12.0488 15.6583 11.8536 15.8536C11.6583 16.0488 11.3417 16.0488 11.1464 15.8536L7.14645 11.8536C7.05268 11.7598 7 11.6326 7 11.5C7 11.3674 7.05268 11.2402 7.14645 11.1464L11.1464 7.14645Z" fill="black"/>
</svg>
