<svg width="16" height="16" viewBox="0 0 16 16" fill="none" xmlns="http://www.w3.org/2000/svg">
<g opacity="0.9">
<path d="M3.5 7C3.77614 7 4 7.22386 4 7.5V8.03917L4.56829 9.08103L5 8.36151V7.5C5 7.22386 5.22386 7 5.5 7C5.77614 7 6 7.22386 6 7.5V8.36151C6 8.54275 5.95074 8.72059 5.85749 8.876L5.12362 10.0991L5.8779 11.482C5.95802 11.6289 6 11.7935 6 11.9608V12.5C6 12.7761 5.77614 13 5.5 13C5.22386 13 5 12.7761 5 12.5V11.9608L4.52695 11.0936L4 11.9718V12.5C4 12.7761 3.77614 13 3.5 13C3.22386 13 3 12.7761 3 12.5V11.9718C3 11.7906 3.04926 11.6127 3.14251 11.4573L3.97162 10.0755L3.1221 8.51802C3.04198 8.37113 3 8.20649 3 8.03917V7.5C3 7.22386 3.22386 7 3.5 7Z" fill="black"/>
<path d="M7.5 7C7.77614 7 8 7.22386 8 7.5V12H9.5C9.77614 12 10 12.2239 10 12.5C10 12.7761 9.77614 13 9.5 13H7.5C7.22386 13 7 12.7761 7 12.5V7.5C7 7.22386 7.22386 7 7.5 7Z" fill="black"/>
<path d="M11.75 7C10.7835 7 10 7.7835 10 8.75V9C10 9.82843 10.6716 10.5 11.5 10.5C11.7761 10.5 12 10.7239 12 11V11.25C12 11.6642 11.6642 12 11.25 12H11C10.7239 12 10.5 12.2239 10.5 12.5C10.5 12.7761 10.7239 13 11 13H11.25C12.2165 13 13 12.2165 13 11.25V11C13 10.1716 12.3284 9.5 11.5 9.5C11.2239 9.5 11 9.27614 11 9V8.75C11 8.33579 11.3358 8 11.75 8H12C12.2761 8 12.5 7.77614 12.5 7.5C12.5 7.22386 12.2761 7 12 7H11.75Z" fill="black"/>
<path fill-rule="evenodd" clip-rule="evenodd" d="M1 2.5C1 1.11929 2.11929 0 3.5 0H11.7071L15 3.29289V13.5C15 14.8807 13.8807 16 12.5 16H3.5C2.11929 16 1 14.8807 1 13.5V2.5ZM3.5 1C2.67157 1 2 1.67157 2 2.5V13.5C2 14.3284 2.67157 15 3.5 15H12.5C13.3284 15 14 14.3284 14 13.5V4H13.5C12.1193 4 11 2.88071 11 1.5V1H3.5ZM12.0166 1.72367L13.2763 2.98344C12.627 2.88635 12.1136 2.37304 12.0166 1.72367Z" fill="black"/>
</g>
</svg>
