<svg width="24" height="24" viewBox="0 0 24 24" fill="none" xmlns="http://www.w3.org/2000/svg">
<g opacity="0.9">
<path d="M3.5 2C3.22386 2 3 2.22386 3 2.5C3 2.77614 3.22386 3 3.5 3H20.5C20.7761 3 21 2.77614 21 2.5C21 2.22386 20.7761 2 20.5 2H3.5Z" fill="black"/>
<path fill-rule="evenodd" clip-rule="evenodd" d="M12.3474 4.14037C12.1536 3.95321 11.8464 3.95321 11.6526 4.14037L3.65262 11.8676C3.50602 12.0092 3.46005 12.2256 3.5364 12.4146C3.61276 12.6036 3.79618 12.7273 3.99999 12.7273H7.86362V21.5C7.86362 21.7761 8.08748 22 8.36362 22H15.6363C15.9125 22 16.1363 21.7761 16.1363 21.5V12.7273H20C20.2038 12.7273 20.3872 12.6036 20.4636 12.4146C20.5399 12.2256 20.4939 12.0092 20.3474 11.8676L12.3474 4.14037ZM8.36362 11.7273H5.23733L12 5.19516L18.7626 11.7273H15.6363C15.3602 11.7273 15.1363 11.9511 15.1363 12.2273V21H8.86362V12.2273C8.86362 11.9511 8.63977 11.7273 8.36362 11.7273Z" fill="black"/>
</g>
</svg>
