<svg width="16" height="16" viewBox="0 0 16 16" fill="none" xmlns="http://www.w3.org/2000/svg">
<g opacity="0.9">
<path d="M2.50002 1C2.22387 1 2.00002 1.22386 2.00002 1.5C2.00002 1.77614 2.22387 2 2.50002 2H13.5C13.7762 2 14 1.77614 14 1.5C14 1.22386 13.7762 1 13.5 1H2.50002Z" fill="black"/>
<path d="M7.66368 3.13003C7.85439 2.95666 8.14565 2.95666 8.33636 3.13003L13.8364 8.13003C13.9892 8.26898 14.0409 8.48763 13.9664 8.6803C13.8919 8.87297 13.7066 9 13.5 9H11V14.5C11 14.7761 10.7762 15 10.5 15H5.50002C5.22388 15 5.00002 14.7761 5.00002 14.5V9H2.50002C2.29345 9 2.10815 8.87297 2.03366 8.6803C1.95917 8.48763 2.01084 8.26898 2.16368 8.13003L7.66368 3.13003Z" fill="black"/>
</g>
</svg>
