<svg width="32" height="32" viewBox="0 0 32 32" fill="none" xmlns="http://www.w3.org/2000/svg">
<path opacity="0.9" fill-rule="evenodd" clip-rule="evenodd" d="M9 7.5C9 6.67157 9.67157 6 10.5 6H12.5C13.3284 6 14 6.67157 14 7.5V9.5C14 10.3284 13.3284 11 12.5 11H12V17.8369C12.9954 16.4234 14.6398 15.5 16.5 15.5C18.9853 15.5 21 13.4853 21 11H20.5C19.6716 11 19 10.3284 19 9.5V7.5C19 6.67157 19.6716 6 20.5 6H22.5C23.3284 6 24 6.67157 24 7.5V9.5C24 10.3284 23.3284 11 22.5 11H22C22 14.0376 19.5376 16.5 16.5 16.5C14.0147 16.5 12 18.5147 12 21V22H12.5C13.3284 22 14 22.6716 14 23.5V25.5C14 26.3284 13.3284 27 12.5 27H10.5C9.67157 27 9 26.3284 9 25.5V23.5C9 22.6716 9.67157 22 10.5 22H11V11H10.5C9.67157 11 9 10.3284 9 9.5V7.5ZM10.5 7C10.2239 7 10 7.22386 10 7.5V9.5C10 9.77614 10.2239 10 10.5 10H12.5C12.7761 10 13 9.77614 13 9.5V7.5C13 7.22386 12.7761 7 12.5 7H10.5ZM20.5 7C20.2239 7 20 7.22386 20 7.5V9.5C20 9.77614 20.2239 10 20.5 10H22.5C22.7761 10 23 9.77614 23 9.5V7.5C23 7.22386 22.7761 7 22.5 7H20.5ZM10 23.5C10 23.2239 10.2239 23 10.5 23H12.5C12.7761 23 13 23.2239 13 23.5V25.5C13 25.7761 12.7761 26 12.5 26H10.5C10.2239 26 10 25.7761 10 25.5V23.5Z" fill="black"/>
</svg>
