<svg width="24" height="24" viewBox="0 0 24 24" fill="none" xmlns="http://www.w3.org/2000/svg">
<g opacity="0.9">
<path d="M5 3C5 1.89543 5.89543 1 7 1H17.8787C18.4091 1 18.9178 1.21071 19.2929 1.58579L20.8536 3.14645C20.9966 3.28945 21.0393 3.5045 20.9619 3.69134C20.8845 3.87818 20.7022 4 20.5 4H5.5C5.22386 4 5 3.77614 5 3.5V3Z" fill="black"/>
<path d="M5 20.5C5 20.2239 5.22386 20 5.5 20H20.5C20.7761 20 21 20.2239 21 20.5V21C21 22.1046 20.1046 23 19 23H7C5.89543 23 5 22.1046 5 21V20.5Z" fill="black"/>
<path fill-rule="evenodd" clip-rule="evenodd" d="M6.00009 6.5C6.00009 6.22386 5.77623 6 5.50009 6C5.22394 6 5.00009 6.22386 5.00009 6.5L5 16.0002C4.99983 16.0053 4.99941 16.0151 4.99843 16.0288C4.99645 16.0566 4.99224 16.0994 4.98345 16.1522C4.96547 16.2601 4.93044 16.3963 4.86537 16.5264C4.80128 16.6546 4.71299 16.7676 4.58992 16.8496C4.46998 16.9296 4.28759 17 4.00009 17C3.71258 17 3.53019 16.9296 3.41025 16.8496C3.28718 16.7676 3.19889 16.6546 3.1348 16.5264C3.06973 16.3963 3.0347 16.2601 3.01672 16.1522C3.00793 16.0994 3.00373 16.0566 3.00175 16.0288C3.00076 16.0151 3.00035 16.0053 3.00018 16.0002L3.00009 15.9969V15.5C3.00009 15.2239 2.77623 15 2.50009 15C2.22394 15 2.00009 15.2239 2.00009 15.5L2 16L2.00009 16.001L2.00009 16.0022L2.00011 16.0051L2.0002 16.0124L2.00073 16.0335C2.00129 16.0504 2.00234 16.0728 2.00429 16.1001C2.00817 16.1544 2.01568 16.2287 2.03033 16.3166C2.05922 16.4899 2.11794 16.7287 2.24037 16.9736C2.36378 17.2204 2.55674 17.4824 2.85555 17.6817C3.15748 17.8829 3.53759 18 4.00009 18C4.46258 18 4.84269 17.8829 5.14462 17.6817C5.44343 17.4824 5.63639 17.2204 5.7598 16.9736C5.88223 16.7287 5.94095 16.4899 5.96985 16.3166C5.98449 16.2287 5.99201 16.1544 5.99589 16.1001C5.99783 16.0728 5.99888 16.0504 5.99944 16.0335L5.99998 16.0124L6.00007 16.0051L6.00008 16.0022L6.00009 16.001L6.00009 6.5ZM5 16.0002L5.0001 15.9971L5.00009 15.9983L5 16.0002Z" fill="black"/>
<path d="M17.97 6.32918C17.887 6.10111 17.6523 5.96553 17.4133 6.00763C17.1743 6.04974 17.0001 6.25737 17.0001 6.50005V17.5C17.0001 17.7762 17.2239 18 17.5001 18C17.7762 18 18.0001 17.7762 18.0001 17.5V9.33813L21.0302 17.6709C21.1131 17.899 21.3478 18.0346 21.5868 17.9925C21.8258 17.9504 22.0001 17.7427 22.0001 17.5V6.50005C22.0001 6.22391 21.7762 6.00005 21.5001 6.00005C21.2239 6.00005 21.0001 6.22391 21.0001 6.50005V14.662L17.97 6.32918Z" fill="black"/>
<path fill-rule="evenodd" clip-rule="evenodd" d="M9.00009 6C8.53759 6 8.15748 6.11706 7.85555 6.31835C7.55674 6.51755 7.36378 6.77958 7.24037 7.02639C7.11794 7.27125 7.05922 7.51005 7.03033 7.68343C7.01568 7.7713 7.00817 7.84562 7.00429 7.89992C7.00234 7.92716 7.00129 7.94961 7.00073 7.9665L7.0002 7.98763L7.00011 7.99494L7.00009 7.99776L7.00009 7.99895L7.00009 8V10C7.00009 11.2702 7.9617 11.9098 8.66259 12.376L8.72274 12.416C9.51814 12.9463 10.0001 13.307 10.0001 14L10 16.0002C9.99983 16.0053 9.99941 16.0151 9.99843 16.0288C9.99645 16.0566 9.99224 16.0994 9.98345 16.1522C9.96547 16.2601 9.93044 16.3963 9.86537 16.5264C9.80128 16.6546 9.71299 16.7676 9.58992 16.8496C9.46998 16.9296 9.28759 17 9.00009 17C8.71258 17 8.53019 16.9296 8.41025 16.8496C8.28718 16.7676 8.19889 16.6546 8.1348 16.5264C8.06973 16.3963 8.0347 16.2601 8.01672 16.1522C8.00793 16.0994 8.00373 16.0566 8.00175 16.0288C8.00076 16.0151 8.00035 16.0053 8.00018 16.0002L8.00009 15.9969V15.5C8.00009 15.2239 7.77623 15 7.50009 15C7.22394 15 7.00009 15.2239 7.00009 15.5L7.00009 16.001L7.00009 16.0022L7.00011 16.0051L7.0002 16.0124L7.00073 16.0335C7.00129 16.0504 7.00234 16.0728 7.00429 16.1001C7.00817 16.1544 7.01568 16.2287 7.03033 16.3166C7.05922 16.4899 7.11794 16.7287 7.24037 16.9736C7.36378 17.2204 7.55674 17.4824 7.85555 17.6817C8.15748 17.8829 8.53759 18 9.00009 18C9.46258 18 9.84269 17.8829 10.1446 17.6817C10.4434 17.4824 10.6364 17.2204 10.7598 16.9736C10.8822 16.7287 10.941 16.4899 10.9698 16.3166C10.9845 16.2287 10.992 16.1544 10.9959 16.1001C10.9978 16.0728 10.9989 16.0504 10.9994 16.0335L11 16.0124L11.0001 16.0051L11.0001 16.0022L11.0001 16.001L11.0001 14C11.0001 12.7298 10.0385 12.0902 9.33758 11.624L9.27744 11.584C8.48203 11.0537 8.00009 10.693 8.00009 10V8.00306L8.00018 7.99981C8.00035 7.99472 8.00076 7.98495 8.00175 7.97117C8.00373 7.94345 8.00793 7.90058 8.01672 7.84782C8.0347 7.73995 8.06973 7.60375 8.1348 7.47361C8.19889 7.34542 8.28718 7.23245 8.41025 7.1504C8.53019 7.07044 8.71258 7 9.00009 7C9.28759 7 9.46998 7.07044 9.58992 7.1504C9.71299 7.23245 9.80128 7.34542 9.86537 7.47361C9.93044 7.60375 9.96547 7.73995 9.98345 7.84782C9.99224 7.90058 9.99645 7.94345 9.99843 7.97117C9.99941 7.98495 9.99983 7.99472 10 7.99981L10.0001 8.00305V8.5C10.0001 8.77614 10.2239 9 10.5001 9C10.7762 9 11.0001 8.77614 11.0001 8.5L11.0001 7.99895L11.0001 7.99776L11.0001 7.99494L11 7.98763L10.9994 7.9665C10.9989 7.94961 10.9978 7.92716 10.9959 7.89992C10.992 7.84562 10.9845 7.7713 10.9698 7.68343C10.941 7.51005 10.8822 7.27125 10.7598 7.02639C10.6364 6.77958 10.4434 6.51755 10.1446 6.31835C9.84269 6.11706 9.46258 6 9.00009 6ZM10 16.0002L10.0001 15.9971L10.0001 15.9983L10 16.0002ZM7.00009 8L7.00073 7.9665L7.0627 8.0001C7.00108 8.00013 7.00009 8 7.00009 8Z" fill="black"/>
<path fill-rule="evenodd" clip-rule="evenodd" d="M12.0001 16.001L12.0001 8L12.0007 7.9665C12.0013 7.94961 12.0023 7.92716 12.0043 7.89992C12.0082 7.84562 12.0157 7.7713 12.0303 7.68343C12.0592 7.51005 12.1179 7.27125 12.2404 7.02639C12.3638 6.77958 12.5567 6.51755 12.8555 6.31835C13.1575 6.11706 13.5376 6 14.0001 6C14.4626 6 14.8427 6.11706 15.1446 6.31835C15.4434 6.51755 15.6364 6.77958 15.7598 7.02639C15.8822 7.27125 15.941 7.51005 15.9698 7.68343C15.9845 7.7713 15.992 7.84562 15.9959 7.89992C15.9978 7.92716 15.9989 7.94961 15.9994 7.9665L16 7.98763L16.0001 7.99494L16.0001 7.99776L16.0001 7.99949L16 16L16.0001 16.001L16.0001 16.0022L16.0001 16.0051L16 16.0124L15.9994 16.0335C15.9989 16.0504 15.9978 16.0728 15.9959 16.1001C15.992 16.1544 15.9845 16.2287 15.9698 16.3166C15.941 16.4899 15.8822 16.7287 15.7598 16.9736C15.6364 17.2204 15.4434 17.4824 15.1446 17.6817C14.8427 17.8829 14.4626 18 14.0001 18C13.5376 18 13.1575 17.8829 12.8555 17.6817C12.5567 17.4824 12.3638 17.2204 12.2404 16.9736C12.1179 16.7287 12.0592 16.4899 12.0303 16.3166C12.0157 16.2287 12.0082 16.1544 12.0043 16.1001C12.0023 16.0728 12.0013 16.0504 12.0007 16.0335L12.0002 16.0124L12.0001 16.0051L12.0001 16.0022L12.0001 16.001ZM13.0001 15.9969V8.00306L13.0002 7.99981C13.0003 7.99472 13.0008 7.98495 13.0017 7.97117C13.0037 7.94345 13.0079 7.90058 13.0167 7.84782C13.0347 7.73995 13.0697 7.60375 13.1348 7.47361C13.1989 7.34542 13.2872 7.23245 13.4102 7.1504C13.5302 7.07044 13.7126 7 14.0001 7C14.2876 7 14.47 7.07044 14.5899 7.1504C14.713 7.23245 14.8013 7.34542 14.8654 7.47361C14.9304 7.60375 14.9655 7.73995 14.9835 7.84782C14.9922 7.90058 14.9964 7.94345 14.9984 7.97117C14.9994 7.98495 14.9998 7.99472 15 7.99981L15.0001 8.00305L15 16.0002L14.9995 16.0118L14.9984 16.0288C14.9964 16.0566 14.9922 16.0994 14.9835 16.1522C14.9655 16.2601 14.9304 16.3963 14.8654 16.5264C14.8013 16.6546 14.713 16.7676 14.5899 16.8496C14.47 16.9296 14.2876 17 14.0001 17C13.7126 17 13.5302 16.9296 13.4102 16.8496C13.2872 16.7676 13.1989 16.6546 13.1348 16.5264C13.0697 16.3963 13.0347 16.2601 13.0167 16.1522C13.0079 16.0994 13.0037 16.0566 13.0017 16.0288L13.0011 16.0184L13.0005 16.0071L13.0002 16.0002L13.0001 15.9969ZM15 16.0002L15.0001 15.9971L15.0001 15.9983L15 16.0002Z" fill="black"/>
<path d="M12.0007 7.9665C12.0001 8 12.0001 7.99895 12.0001 7.99895L12.0001 7.99776L12.0001 7.99494L12.0002 7.98763L12.0007 7.9665Z" fill="black"/>
</g>
</svg>
