<svg width="32" height="32" viewBox="0 0 32 32" fill="none" xmlns="http://www.w3.org/2000/svg">
<g opacity="0.9">
<path fill-rule="evenodd" clip-rule="evenodd" d="M5.5 17C5.77614 17 6 17.2239 6 17.5V24.5C6 25.3285 6.67157 26 7.5 26H25.5C26.3284 26 27 25.3285 27 24.5V17.5C27 17.2239 27.2239 17 27.5 17C27.7761 17 28 17.2239 28 17.5V24.5C28 25.8808 26.8807 27 25.5 27H7.5C6.11929 27 5 25.8808 5 24.5V17.5C5 17.2239 5.22386 17 5.5 17Z" fill="black"/>
<path fill-rule="evenodd" clip-rule="evenodd" d="M21.3602 9.1802C21.1686 9.37911 20.8521 9.38508 20.6532 9.19354L17 5.67566V22C17 22.2762 16.7761 22.5 16.5 22.5C16.2239 22.5 16 22.2762 16 22V5.67566L12.3468 9.19354C12.1479 9.38508 11.8314 9.37911 11.6398 9.1802C11.4483 8.98129 11.4543 8.66476 11.6532 8.47322L16.5 3.80591L21.3468 8.47322C21.5457 8.66476 21.5517 8.98129 21.3602 9.1802Z" fill="black"/>
</g>
</svg>
