<svg width="24" height="24" viewBox="0 0 24 24" fill="none" xmlns="http://www.w3.org/2000/svg">
<g opacity="0.9">
<path d="M14.6519 7.75401C14.8501 7.94628 15.1666 7.94146 15.3589 7.74325C15.5512 7.54504 15.5463 7.22849 15.3481 7.03622L11.5 3.30347L7.65187 7.03622C7.45366 7.22849 7.44884 7.54504 7.64111 7.74325C7.83338 7.94146 8.14992 7.94628 8.34813 7.75401L11 5.18165L11 16.5001C11 16.7762 11.2239 17.0001 11.5 17.0001C11.7761 17.0001 12 16.7762 12 16.5001L12 5.18165L14.6519 7.75401Z" fill="black"/>
<path d="M3 13.5C3 13.2239 2.77614 13 2.5 13C2.22386 13 2 13.2239 2 13.5V18.5C2 19.8807 3.11929 21 4.5 21H18.5C19.8807 21 21 19.8807 21 18.5V13.5C21 13.2239 20.7761 13 20.5 13C20.2239 13 20 13.2239 20 13.5V18.5C20 19.3284 19.3284 20 18.5 20H4.5C3.67157 20 3 19.3284 3 18.5V13.5Z" fill="black"/>
</g>
</svg>
