<svg width="24" height="24" viewBox="0 0 24 24" fill="none" xmlns="http://www.w3.org/2000/svg">
<g opacity="0.9">
<path fill-rule="evenodd" clip-rule="evenodd" d="M13.8322 2.67175C14.2561 3.04861 14.5527 3.57165 14.6485 4.21836C15.4467 4.33788 16.4096 4.75265 17.2232 5.49408C18.2212 6.40373 19 7.80909 19 9.77273V15.1505C19 15.5472 19.1836 15.9258 19.4458 16.4422L19.4608 16.4718C19.6991 16.9407 20 17.5329 20 18.2131V18.5C20 18.7761 19.7761 19 19.5 19H4.5C4.22386 19 4 18.7761 4 18.5V18.2131C4 17.5329 4.30089 16.9407 4.53916 16.4718L4.55418 16.4422C4.81637 15.9258 5 15.5472 5 15.1505V9.77273C5 7.80909 5.77875 6.40373 6.77683 5.49408C7.59034 4.75265 8.55326 4.33788 9.35151 4.21836C9.4473 3.57165 9.74384 3.04861 10.1678 2.67174C10.6797 2.21676 11.348 2 12 2C12.652 2 13.3203 2.21677 13.8322 2.67175ZM12.838 12.1845C12.8238 12.639 12.4513 13 11.9966 13C11.5415 13 11.1689 12.6383 11.1552 12.1834L11.0299 7.9989C11.0135 7.45213 11.4523 7 11.9993 7C12.5469 7 12.9858 7.45291 12.9687 8.00016L12.838 12.1845ZM13 15C13 15.5523 12.5523 16 12 16C11.4477 16 11 15.5523 11 15C11 14.4477 11.4477 14 12 14C12.5523 14 13 14.4477 13 15Z" fill="black"/>
<path d="M9.62761 20C10.0489 20.8869 10.9528 21.5 12 21.5C13.0471 21.5 13.9511 20.8869 14.3724 20H9.62761Z" fill="black"/>
</g>
</svg>
