<svg width="24" height="24" viewBox="0 0 24 24" fill="none" xmlns="http://www.w3.org/2000/svg">
<path fill-rule="evenodd" clip-rule="evenodd" d="M7 15.0568L11.2795 12L7 8.94319V15.0568ZM11.8608 12.8137C12.4191 12.4149 12.4191 11.5851 11.8608 11.1863L7.58124 8.12946C6.91937 7.65669 6 8.12982 6 8.94319V15.0568C6 15.8702 6.91937 16.3433 7.58124 15.8705L11.8608 12.8137Z" fill="black"/>
<path fill-rule="evenodd" clip-rule="evenodd" d="M13 15.0568L17.2795 12L13 8.94319V15.0568ZM17.8608 12.8137C18.4191 12.4149 18.4191 11.5851 17.8608 11.1863L13.5812 8.12946C12.9194 7.65669 12 8.12982 12 8.94319V15.0568C12 15.8702 12.9194 16.3433 13.5812 15.8705L17.8608 12.8137Z" fill="black"/>
<path fill-rule="evenodd" clip-rule="evenodd" d="M12 21C7.02944 21 3 16.9706 3 12C3 7.02944 7.02944 3 12 3C16.9706 3 21 7.02944 21 12C21 16.9706 16.9706 21 12 21ZM12 22C6.47715 22 2 17.5228 2 12C2 6.47715 6.47715 2 12 2C17.5228 2 22 6.47715 22 12C22 17.5228 17.5228 22 12 22Z" fill="black"/>
</svg>
