<svg width="16" height="16" viewBox="0 0 16 16" fill="none" xmlns="http://www.w3.org/2000/svg">
<path fill-rule="evenodd" clip-rule="evenodd" d="M1 8C1 11.866 4.13401 15 8 15C11.866 15 15 11.866 15 8C15 4.13401 11.866 1 8 1C4.13401 1 1 4.13401 1 8ZM8 8.8L5.6247 10.7002C4.96993 11.2241 4 10.7579 4 9.91938L4 6.08062C4 5.24212 4.96993 4.77595 5.6247 5.29976L8 7.2V6.08062C8 5.24212 8.96993 4.77595 9.62469 5.29976L12.0239 7.21913C12.5243 7.61946 12.5243 8.38054 12.0239 8.78087L9.6247 10.7002C8.96993 11.2241 8 10.7579 8 9.91938V8.8Z" fill="black"/>
</svg>
