<svg width="32" height="32" viewBox="0 0 32 32" fill="none" xmlns="http://www.w3.org/2000/svg">
<path fill-rule="evenodd" clip-rule="evenodd" d="M16.7519 16.8324C16.8512 16.7662 16.9339 16.6867 17 16.5983V20.1318C17 20.9305 17.8901 21.4069 18.5547 20.9639L24.7519 16.8324C25.3457 16.4366 25.3457 15.5641 24.7519 15.1683L18.5547 11.0368C17.8901 10.5938 17 11.0702 17 11.8689V15.4024C16.9339 15.314 16.8512 15.2345 16.7519 15.1683L10.5547 11.0368C9.89015 10.5938 9 11.0702 9 11.8689V20.1318C9 20.9305 9.89015 21.4069 10.5547 20.9639L16.7519 16.8324ZM10 20.1318L16.1972 16.0004L10 11.8689V20.1318ZM18 20.1318L24.1972 16.0004L18 11.8689V20.1318Z" fill="black"/>
<path fill-rule="evenodd" clip-rule="evenodd" d="M4 16C4 22.6274 9.37258 28 16 28C22.6274 28 28 22.6274 28 16C28 9.37258 22.6274 4 16 4C9.37258 4 4 9.37258 4 16ZM5 16C5 22.0751 9.92487 27 16 27C22.0751 27 27 22.0751 27 16C27 9.92487 22.0751 5 16 5C9.92487 5 5 9.92487 5 16Z" fill="black"/>
</svg>
