<svg width="16" height="16" viewBox="0 0 16 16" fill="none" xmlns="http://www.w3.org/2000/svg">
<g clip-path="url(#clip0)">
<g opacity="0.9">
<path fill-rule="evenodd" clip-rule="evenodd" d="M2.5 2C1.11929 2 0 3.11929 0 4.5V11.5C0 12.8807 1.11929 14 2.5 14H9.00011L13.2784 9.73104C13.5546 9.45537 13.9206 9.288 14.3099 9.25938C14.9455 9.21263 15.5389 9.41256 16 9.77553V4.5C16 3.11929 14.8807 2 13.5 2H2.5ZM9 4C8.44772 4 8 4.44772 8 5V8C8 8.55228 8.44772 9 9 9H13C13.5523 9 14 8.55228 14 8V5C14 4.44772 13.5523 4 13 4H9Z" fill="black"/>
<path d="M5 15.5C5 15.2239 5.22386 15 5.5 15H7.5C7.77614 15 8 15.2239 8 15.5C8 15.7761 7.77614 16 7.5 16H5.5C5.22386 16 5 15.7761 5 15.5Z" fill="black"/>
<path fill-rule="evenodd" clip-rule="evenodd" d="M15.1287 10.2821C14.5583 9.96382 13.938 10.201 13.5805 10.5585L10 14.1394V16.0004H11.8609L15.2734 12.5885L15.4415 12.4194C15.799 12.0619 16.0361 11.4417 15.7179 10.8712C15.6576 10.7632 15.5759 10.638 15.4689 10.531C15.362 10.424 15.2367 10.3423 15.1287 10.2821ZM14.119 11.4342L14.5658 11.8809L14.7344 11.7123C14.8022 11.6445 14.8434 11.5668 14.8587 11.5004C14.873 11.4384 14.8643 11.3937 14.8446 11.3584C14.8078 11.2925 14.7783 11.2546 14.7618 11.2381C14.7454 11.2216 14.7074 11.1921 14.6415 11.1554C14.6062 11.1357 14.5615 11.127 14.4995 11.1413C14.4332 11.1566 14.3555 11.1977 14.2876 11.2656L14.119 11.4342Z" fill="black"/>
</g>
</g>
<defs>
<clipPath id="clip0">
<rect width="16" height="16" fill="white"/>
</clipPath>
</defs>
</svg>
