<svg width="32" height="32" viewBox="0 0 32 32" fill="none" xmlns="http://www.w3.org/2000/svg">
<g opacity="0.9">
<path fill-rule="evenodd" clip-rule="evenodd" d="M10.5 27.5C10.5 27.2239 10.7239 27 11 27H19.5C19.7761 27 20 27.2239 20 27.5C20 27.7761 19.7761 28 19.5 28H11C10.7239 28 10.5 27.7761 10.5 27.5Z" fill="black"/>
<path fill-rule="evenodd" clip-rule="evenodd" d="M4 9.5C4 8.11929 5.11929 7 6.5 7H25.5C26.8807 7 28 8.11929 28 9.5V16.5C28 16.7761 27.7761 17 27.5 17C27.2239 17 27 16.7761 27 16.5V9.5C27 8.67157 26.3284 8 25.5 8H6.5C5.67157 8 5 8.67157 5 9.5V22.5C5 23.3284 5.67157 24 6.5 24H19.5C19.7761 24 20 24.2239 20 24.5C20 24.7761 19.7761 25 19.5 25H6.5C5.11929 25 4 23.8807 4 22.5V9.5Z" fill="black"/>
<path fill-rule="evenodd" clip-rule="evenodd" d="M16 10C16 9.44772 16.4477 9 17 9H25C25.5523 9 26 9.44772 26 10V16C26 16.5523 25.5523 17 25 17H17C16.4477 17 16 16.5523 16 16V10ZM25 10L17 10V16H25V10Z" fill="black"/>
<path fill-rule="evenodd" clip-rule="evenodd" d="M28.696 19.0924C28.6586 19.0799 28.6175 19.0896 28.5896 19.1175L28.2071 19.5L29.5 20.7929L29.8825 20.4104C29.9104 20.3825 29.9201 20.3414 29.9076 20.304C29.7169 19.732 29.268 19.2831 28.696 19.0924ZM28.7929 21.5L27.5 20.2071L22 25.7075V27.0004H23.2929L28.7929 21.5ZM27.8825 18.4104C28.1782 18.1147 28.6155 18.0115 29.0122 18.1437C29.8829 18.4339 30.5661 19.1171 30.8563 19.9878C30.9885 20.3845 30.8853 20.8218 30.5896 21.1175L23.7071 28.0004H21V25.2933L27.8825 18.4104Z" fill="black"/>
</g>
</svg>
