<svg width="32" height="32" viewBox="0 0 32 32" fill="none" xmlns="http://www.w3.org/2000/svg">
<path opacity="0.9" fill-rule="evenodd" clip-rule="evenodd" d="M16 4C22.6274 4 28 9.37258 28 16C28 22.6274 22.6274 28 16 28C9.37258 28 4 22.6274 4 16C4 9.37258 9.37258 4 16 4ZM22.6757 14.7372C23.0828 14.364 23.1103 13.7314 22.7372 13.3243C22.364 12.9172 21.7314 12.8897 21.3243 13.2628L16 18.1434L10.6757 13.2628C10.2686 12.8897 9.63604 12.9172 9.26285 13.3243C8.88965 13.7314 8.91716 14.364 9.32428 14.7372L15.3243 20.2372C15.7066 20.5876 16.2934 20.5876 16.6757 20.2372L22.6757 14.7372Z" fill="black"/>
</svg>
