<svg width="16" height="16" viewBox="0 0 16 16" fill="none" xmlns="http://www.w3.org/2000/svg">
<g opacity="0.9">
<path d="M5.5 0C5.77614 0 6 0.223858 6 0.5L6 3H10V0.5C10 0.223858 10.2239 0 10.5 0C10.7761 0 11 0.223858 11 0.5V3H13C13.5523 3 14 3.44772 14 4V8C14 8.34247 13.9656 8.67689 13.9 9H12C10.3431 9 9 10.3431 9 12V15C9 15.5523 8.55228 16 8 16C7.44772 16 7 15.5523 7 15L7 13C4.23858 13 2 10.7614 2 8V4C2 3.44772 2.44771 3 3 3H5L5 0.5C5 0.223858 5.22386 0 5.5 0Z" fill="black"/>
<path d="M13.0179 14.4321C12.3507 14.6103 11.6092 14.4377 11.0858 13.9142C10.5623 13.3908 10.3897 12.6493 10.5679 11.9821L11.7929 13.2071L13.2071 11.7929L11.9821 10.5679C12.6493 10.3897 13.3908 10.5623 13.9142 11.0858C14.4377 11.6092 14.6103 12.3507 14.4321 13.0179L15.1952 13.781C15.5857 14.1715 15.5857 14.8046 15.1952 15.1952C14.8046 15.5857 14.1715 15.5857 13.781 15.1952L13.0179 14.4321Z" fill="black"/>
</g>
</svg>
