<svg width="24" height="24" viewBox="0 0 24 24" fill="none" xmlns="http://www.w3.org/2000/svg">
<g opacity="0.9">
<path d="M8.5 2C8.77614 2 9 2.22386 9 2.5L9 6H15V2.5C15 2.22386 15.2239 2 15.5 2C15.7761 2 16 2.22386 16 2.5V6H17.5C18.3284 6 19 6.67157 19 7.5V11.5C19 11.8685 18.9693 12.2303 18.9102 12.5827C18.8645 12.8551 18.6067 13.0388 18.3343 12.9931C18.062 12.9474 17.8782 12.6896 17.9239 12.4173C17.9739 12.1193 18 11.8129 18 11.5V7.5C18 7.22386 17.7761 7 17.5 7H6.5C6.22386 7 6 7.22386 6 7.5V11.5C6 14.5376 8.46243 17 11.5 17H13V21C13 21.5523 12.5523 22 12 22C11.4477 22 11 21.5523 11 21L11 17.9811C7.64378 17.7257 5 14.9216 5 11.5V7.5C5 6.67157 5.67157 6 6.5 6H8L8 2.5C8 2.22386 8.22386 2 8.5 2Z" fill="black"/>
<path fill-rule="evenodd" clip-rule="evenodd" d="M20.3294 15.0859C19.3585 14.115 17.9835 13.7958 16.748 14.1257C16.5754 14.1718 16.4404 14.3066 16.3941 14.4792C16.3478 14.6518 16.3971 14.836 16.5235 14.9623L18.1346 16.5735L16.5736 18.1346L14.9624 16.5234C14.836 16.397 14.6518 16.3477 14.4792 16.394C14.3066 16.4404 14.1719 16.5753 14.1258 16.7479C13.7958 17.9834 14.1151 19.3585 15.0859 20.3293C15.9819 21.2252 17.222 21.5662 18.379 21.3542L19.4085 22.3837C20.2301 23.2053 21.5622 23.2053 22.3838 22.3837C23.2054 21.5621 23.2054 20.2301 22.3838 19.4085L21.3543 18.379C21.5663 17.222 21.2253 15.9818 20.3294 15.0859ZM19.1953 16.22L17.9898 15.0145C18.5863 15.0766 19.1656 15.3363 19.6223 15.793C20.3305 16.5012 20.565 17.5045 20.3234 18.4092C20.2773 18.5817 20.3267 18.7656 20.4529 18.8918L21.6767 20.1156C22.1078 20.5466 22.1078 21.2456 21.6767 21.6766C21.2456 22.1077 20.5467 22.1077 20.1156 21.6766L18.8918 20.4528C18.7656 20.3266 18.5817 20.2773 18.4093 20.3233C17.5045 20.5649 16.5013 20.3304 15.793 19.6222C15.3364 19.1655 15.0767 18.5862 15.0146 17.9898L16.22 19.1952C16.3138 19.289 16.441 19.3417 16.5736 19.3417C16.7062 19.3417 16.8334 19.289 16.9271 19.1952L19.1953 16.9271C19.2891 16.8333 19.3417 16.7061 19.3417 16.5735C19.3417 16.4409 19.2891 16.3137 19.1953 16.22Z" fill="black"/>
</g>
</svg>
