<svg width="16" height="16" viewBox="0 0 16 16" fill="none" xmlns="http://www.w3.org/2000/svg">
<g opacity="0.9">
<path fill-rule="evenodd" clip-rule="evenodd" d="M5 2C3.89543 2 3 2.89543 3 4V7.5C3 7.77614 3.22386 8 3.5 8C3.77614 8 4 7.77614 4 7.5V6H6V7.5C6 7.77614 6.22386 8 6.5 8C6.77614 8 7 7.77614 7 7.5V4C7 2.89543 6.10457 2 5 2ZM6 4V5H4V4C4 3.44772 4.44772 3 5 3C5.55228 3 6 3.44772 6 4Z" fill="black"/>
<path fill-rule="evenodd" clip-rule="evenodd" d="M3 11.5C3 10.1193 4.11929 9 5.5 9C6.70948 9 7.71836 9.85888 7.94999 11H14V13.5C14 13.7761 13.7761 14 13.5 14C13.2239 14 13 13.7761 13 13.5V12H12V12.5C12 12.7761 11.7761 13 11.5 13C11.2239 13 11 12.7761 11 12.5V12H7.94999C7.71836 13.1411 6.70948 14 5.5 14C4.11929 14 3 12.8807 3 11.5ZM5.5 10C6.32843 10 7 10.6716 7 11.5C7 12.3284 6.32843 13 5.5 13C4.67157 13 4 12.3284 4 11.5C4 10.6716 4.67157 10 5.5 10Z" fill="black"/>
<path fill-rule="evenodd" clip-rule="evenodd" d="M8 2.5C8 2.22386 8.22386 2 8.5 2H10C11.1046 2 12 2.89543 12 4C12 5.10457 11.1046 6 10 6H9V7.5C9 7.77614 8.77614 8 8.5 8C8.22386 8 8 7.77614 8 7.5V2.5ZM9 5H10C10.5523 5 11 4.55228 11 4C11 3.44772 10.5523 3 10 3H9V5Z" fill="black"/>
<path d="M14 2.5C14 2.22386 13.7761 2 13.5 2C13.2239 2 13 2.22386 13 2.5V7.5C13 7.77614 13.2239 8 13.5 8C13.7761 8 14 7.77614 14 7.5V2.5Z" fill="black"/>
</g>
</svg>
