<svg width="32" height="32" viewBox="0 0 32 32" fill="none" xmlns="http://www.w3.org/2000/svg">
<g opacity="0.9">
<path fill-rule="evenodd" clip-rule="evenodd" d="M8 8.5C8 7.11929 9.11929 6 10.5 6C11.8807 6 13 7.11929 13 8.5V13.5C13 13.7761 12.7761 14 12.5 14C12.2239 14 12 13.7761 12 13.5V11H9V13.5C9 13.7761 8.77614 14 8.5 14C8.22386 14 8 13.7761 8 13.5V8.5ZM12 10V8.5C12 7.67157 11.3284 7 10.5 7C9.67157 7 9 7.67157 9 8.5V10H12Z" fill="black"/>
<path d="M8.5 23C8.77614 23 9 22.7761 9 22.5C9 22.2239 8.77614 22 8.5 22C8.22386 22 8 22.2239 8 22.5C8 22.7761 8.22386 23 8.5 23Z" fill="black"/>
<path fill-rule="evenodd" clip-rule="evenodd" d="M10.5 18C8.01472 18 6 20.0147 6 22.5C6 24.9853 8.01472 27 10.5 27C12.8163 27 14.7238 25.25 14.9725 23H21V25.5C21 25.7761 21.2239 26 21.5 26C21.7761 26 22 25.7761 22 25.5V23H23V24.5C23 24.7761 23.2239 25 23.5 25C23.7761 25 24 24.7761 24 24.5V23H25V25.5C25 25.7761 25.2239 26 25.5 26C25.7761 26 26 25.7761 26 25.5V22.5C26 22.3674 25.9473 22.2402 25.8536 22.1464C25.7598 22.0527 25.6326 22 25.5 22H14.9725C14.7238 19.75 12.8163 18 10.5 18ZM14 22.5C14 20.567 12.433 19 10.5 19C8.567 19 7 20.567 7 22.5C7 24.433 8.567 26 10.5 26C12.433 26 14 24.433 14 22.5Z" fill="black"/>
<path fill-rule="evenodd" clip-rule="evenodd" d="M16.5 6C16.2239 6 16 6.22386 16 6.5V13.5C16 13.7761 16.2239 14 16.5 14C16.7761 14 17 13.7761 17 13.5V11H18.5C19.8807 11 21 9.88071 21 8.5C21 7.11929 19.8807 6 18.5 6H16.5ZM18.5 10H17V7H18.5C19.3284 7 20 7.67157 20 8.5C20 9.32843 19.3284 10 18.5 10Z" fill="black"/>
<path d="M24.5 6C24.7761 6 25 6.22386 25 6.5V13.5C25 13.7761 24.7761 14 24.5 14C24.2239 14 24 13.7761 24 13.5V6.5C24 6.22386 24.2239 6 24.5 6Z" fill="black"/>
</g>
</svg>
