<svg width="24" height="24" viewBox="0 0 24 24" fill="none" xmlns="http://www.w3.org/2000/svg">
<g opacity="0.9">
<path fill-rule="evenodd" clip-rule="evenodd" d="M6.5 4C5.11929 4 4 5.11929 4 6.5V11.5C4 11.7761 4.22386 12 4.5 12C4.77614 12 5 11.7761 5 11.5V9H8V11.5C8 11.7761 8.22386 12 8.5 12C8.77614 12 9 11.7761 9 11.5V6.5C9 5.11929 7.88071 4 6.5 4ZM8 6.5V8H5V6.5C5 5.67157 5.67157 5 6.5 5C7.32843 5 8 5.67157 8 6.5Z" fill="black"/>
<path fill-rule="evenodd" clip-rule="evenodd" d="M4 17.5C4 15.567 5.567 14 7.5 14C9.26324 14 10.7219 15.3039 10.9646 17H20.5C20.6326 17 20.7598 17.0527 20.8536 17.1464C20.9473 17.2402 21 17.3674 21 17.5V19.5C21 19.7761 20.7761 20 20.5 20C20.2239 20 20 19.7761 20 19.5V18H19V18.5C19 18.7761 18.7761 19 18.5 19C18.2239 19 18 18.7761 18 18.5V18H17V19.5C17 19.7761 16.7761 20 16.5 20C16.2239 20 16 19.7761 16 19.5V18H10.9646C10.7219 19.6961 9.26324 21 7.5 21C5.567 21 4 19.433 4 17.5ZM7.5 15C8.88071 15 10 16.1193 10 17.5C10 18.8807 8.88071 20 7.5 20C6.11929 20 5 18.8807 5 17.5C5 16.1193 6.11929 15 7.5 15Z" fill="black"/>
<path fill-rule="evenodd" clip-rule="evenodd" d="M12 4.5C12 4.22386 12.2239 4 12.5 4H14.5C15.8807 4 17 5.11929 17 6.5C17 7.88071 15.8807 9 14.5 9H13V11.5C13 11.7761 12.7761 12 12.5 12C12.2239 12 12 11.7761 12 11.5V4.5ZM13 8H14.5C15.3284 8 16 7.32843 16 6.5C16 5.67157 15.3284 5 14.5 5H13V8Z" fill="black"/>
<path d="M21 4.5C21 4.22386 20.7761 4 20.5 4C20.2239 4 20 4.22386 20 4.5V11.5C20 11.7761 20.2239 12 20.5 12C20.7761 12 21 11.7761 21 11.5V4.5Z" fill="black"/>
</g>
</svg>
