<svg width="16" height="16" viewBox="0 0 16 16" fill="none" xmlns="http://www.w3.org/2000/svg">
<path opacity="0.9" fill-rule="evenodd" clip-rule="evenodd" d="M8 15C4.13401 15 1 11.866 1 8C1 4.13401 4.13401 1 8 1C11.866 1 15 4.13401 15 8C15 11.866 11.866 15 8 15ZM4.67991 8.61589C4.46777 8.79267 4.43911 9.10795 4.61589 9.32009C4.79267 9.53223 5.10795 9.56089 5.32009 9.38411L8 7.15085L10.6799 9.38411C10.892 9.56089 11.2073 9.53223 11.3841 9.32009C11.5609 9.10795 11.5322 8.79267 11.3201 8.61589L8.32009 6.11589C8.13467 5.96137 7.86533 5.96137 7.67991 6.11589L4.67991 8.61589Z" fill="black"/>
</svg>
