<svg width="24" height="24" viewBox="0 0 24 24" fill="none" xmlns="http://www.w3.org/2000/svg">
<path opacity="0.9" fill-rule="evenodd" clip-rule="evenodd" d="M12 22C6.47715 22 2 17.5228 2 12C2 6.47715 6.47715 2 12 2C17.5228 2 22 6.47715 22 12C22 17.5228 17.5228 22 12 22ZM7.16782 13.1263C6.96143 13.3098 6.94284 13.6258 7.1263 13.8322C7.30975 14.0386 7.62579 14.0572 7.83218 13.8737L12 10.169L16.1678 13.8737C16.3742 14.0572 16.6902 14.0386 16.8737 13.8322C17.0572 13.6258 17.0386 13.3098 16.8322 13.1263L12.3322 9.1263C12.1427 8.9579 11.8573 8.9579 11.6678 9.1263L7.16782 13.1263Z" fill="black"/>
</svg>
