<svg width="16" height="16" viewBox="0 0 16 16" fill="none" xmlns="http://www.w3.org/2000/svg">
<g opacity="0.9">
<path d="M9.49634 4C9.49634 4.82843 8.82476 5.5 7.99634 5.5C7.16791 5.5 6.49634 4.82843 6.49634 4C6.49634 3.17157 7.16791 2.5 7.99634 2.5C8.82476 2.5 9.49634 3.17157 9.49634 4Z" fill="black"/>
<path d="M9.49634 8.00002C9.49634 8.82845 8.82476 9.50002 7.99634 9.50002C7.16791 9.50002 6.49634 8.82845 6.49634 8.00002C6.49634 7.1716 7.16791 6.50002 7.99634 6.50002C8.82476 6.50002 9.49634 7.1716 9.49634 8.00002Z" fill="black"/>
<path d="M9.49634 12C9.49634 12.8284 8.82476 13.5 7.99634 13.5C7.16791 13.5 6.49634 12.8284 6.49634 12C6.49634 11.1716 7.16791 10.5 7.99634 10.5C8.82476 10.5 9.49634 11.1716 9.49634 12Z" fill="black"/>
</g>
</svg>
