<svg width="32" height="32" viewBox="0 0 32 32" fill="none" xmlns="http://www.w3.org/2000/svg">
<g opacity="0.9">
<g opacity="0.9">
<path fill-rule="evenodd" clip-rule="evenodd" d="M10 6C7.79086 6 6 7.79086 6 10V11C6 13.2091 7.79086 15 10 15H11C13.2091 15 15 13.2091 15 11V10C15 7.79086 13.2091 6 11 6H10ZM11 8H10C8.89543 8 8 8.89543 8 10V11C8 12.1046 8.89543 13 10 13H11C12.1046 13 13 12.1046 13 11V10C13 8.89543 12.1046 8 11 8Z" fill="black"/>
<path fill-rule="evenodd" clip-rule="evenodd" d="M21 17C18.7909 17 17 18.7909 17 21V22C17 24.2091 18.7909 26 21 26H22C24.2091 26 26 24.2091 26 22V21C26 18.7909 24.2091 17 22 17H21ZM22 19H21C19.8954 19 19 19.8954 19 21V22C19 23.1046 19.8954 24 21 24H22C23.1046 24 24 23.1046 24 22V21C24 19.8954 23.1046 19 22 19Z" fill="black"/>
<path d="M24.7071 8.70711C25.0976 8.31658 25.0976 7.68342 24.7071 7.29289C24.3166 6.90237 23.6834 6.90237 23.2929 7.29289L7.29289 23.2929C6.90237 23.6834 6.90237 24.3166 7.29289 24.7071C7.68342 25.0976 8.31658 25.0976 8.70711 24.7071L24.7071 8.70711Z" fill="black"/>
</g>
</g>
</svg>
