<svg width="24" height="24" viewBox="0 0 24 24" fill="none" xmlns="http://www.w3.org/2000/svg">
<path opacity="0.9" d="M6.5 3C5.67157 3 5 3.67157 5 4.5V6.5C5 7.32843 5.67157 8 6.5 8H7V16H6.5C5.67157 16 5 16.6716 5 17.5V19.5C5 20.3284 5.67157 21 6.5 21H8.5C9.32843 21 10 20.3284 10 19.5V17.5C10 16.6716 9.32843 16 8.5 16H8C8 14.067 9.567 12.5 11.5 12.5H12.5C14.9853 12.5 17 10.4853 17 8H17.5C18.3284 8 19 7.32843 19 6.5V4.5C19 3.67157 18.3284 3 17.5 3H15.5C14.6716 3 14 3.67157 14 4.5V6.5C14 7.32843 14.6716 8 15.5 8H16C16 9.933 14.433 11.5 12.5 11.5H11.5C10.0864 11.5 8.82498 12.1518 8 13.1713V8H8.5C9.32843 8 10 7.32843 10 6.5V4.5C10 3.67157 9.32843 3 8.5 3H6.5Z" fill="black"/>
</svg>
