<svg width="16" height="16" viewBox="0 0 16 16" fill="none" xmlns="http://www.w3.org/2000/svg">
<path opacity="0.9" fill-rule="evenodd" clip-rule="evenodd" d="M4 4C4 3.44772 4.44772 3 5 3H6C6.55228 3 7 3.44772 7 4V5C7 5.55228 6.55228 6 6 6V8.76389C6.53076 8.28885 7.23165 8 8 8C9.10457 8 10 7.10457 10 6C9.44772 6 9 5.55228 9 5V4C9 3.44772 9.44772 3 10 3H11C11.5523 3 12 3.44772 12 4V5C12 5.55228 11.5523 6 11 6C11 7.65685 9.65685 9 8 9C6.89543 9 6 9.89543 6 11C6.55228 11 7 11.4477 7 12V13C7 13.5523 6.55228 14 6 14H5C4.44772 14 4 13.5523 4 13V12C4 11.4477 4.44772 11 5 11V6C4.44772 6 4 5.55228 4 5V4ZM6 4H5V5H6V4ZM6 12H5V13H6V12ZM10 4H11V5H10V4Z" fill="black"/>
</svg>
