<svg width="16" height="16" viewBox="0 0 16 16" fill="none" xmlns="http://www.w3.org/2000/svg">
<path opacity="0.9" d="M5 3C4.44772 3 4 3.44772 4 4V5C4 5.55228 4.44772 6 5 6V11C4.44772 11 4 11.4477 4 12V13C4 13.5523 4.44772 14 5 14H6C6.55228 14 7 13.5523 7 13V12C7 11.4477 6.55228 11 6 11C6 9.89543 6.89543 9 8 9C9.65685 9 11 7.65685 11 6C11.5523 6 12 5.55228 12 5V4C12 3.44772 11.5523 3 11 3H10C9.44772 3 9 3.44772 9 4V5C9 5.55228 9.44772 6 10 6C10 7.10457 9.10457 8 8 8C7.23165 8 6.53076 8.28885 6 8.76389V6C6.55228 6 7 5.55228 7 5V4C7 3.44772 6.55228 3 6 3H5Z" fill="black"/>
</svg>
