<svg width="24" height="24" viewBox="0 0 24 24" fill="none" xmlns="http://www.w3.org/2000/svg">
<path opacity="0.9" fill-rule="evenodd" clip-rule="evenodd" d="M5 4.5C5 3.67157 5.67157 3 6.5 3H8.5C9.32843 3 10 3.67157 10 4.5V6.5C10 7.32843 9.32843 8 8.5 8H8V13.1713C8.82498 12.1518 10.0864 11.5 11.5 11.5H12.5C14.433 11.5 16 9.933 16 8H15.5C14.6716 8 14 7.32843 14 6.5V4.5C14 3.67157 14.6716 3 15.5 3H17.5C18.3284 3 19 3.67157 19 4.5V6.5C19 7.32843 18.3284 8 17.5 8H17C17 10.4853 14.9853 12.5 12.5 12.5H11.5C9.567 12.5 8 14.067 8 16H8.5C9.32843 16 10 16.6716 10 17.5V19.5C10 20.3284 9.32843 21 8.5 21H6.5C5.67157 21 5 20.3284 5 19.5V17.5C5 16.6716 5.67157 16 6.5 16H7V8H6.5C5.67157 8 5 7.32843 5 6.5V4.5ZM6.5 4C6.22386 4 6 4.22386 6 4.5V6.5C6 6.77614 6.22386 7 6.5 7H8.5C8.77614 7 9 6.77614 9 6.5V4.5C9 4.22386 8.77614 4 8.5 4H6.5ZM15.5 4C15.2239 4 15 4.22386 15 4.5V6.5C15 6.77614 15.2239 7 15.5 7H17.5C17.7761 7 18 6.77614 18 6.5V4.5C18 4.22386 17.7761 4 17.5 4H15.5ZM6 17.5C6 17.2239 6.22386 17 6.5 17H8.5C8.77614 17 9 17.2239 9 17.5V19.5C9 19.7761 8.77614 20 8.5 20H6.5C6.22386 20 6 19.7761 6 19.5V17.5Z" fill="black"/>
</svg>
