<svg width="16" height="16" viewBox="0 0 16 16" fill="none" xmlns="http://www.w3.org/2000/svg">
<g opacity="0.9">
<path d="M6 4C6 4.55228 5.55228 5 5 5C4.44772 5 4 4.55228 4 4C4 3.44772 4.44772 3 5 3C5.55228 3 6 3.44772 6 4Z" fill="black"/>
<path fill-rule="evenodd" clip-rule="evenodd" d="M1 3C1 1.89543 1.89543 1 3 1H13C14.1046 1 15 1.89543 15 3V13C15 14.1046 14.1046 15 13 15H3C1.89543 15 1 14.1046 1 13V3ZM3 2H13C13.5523 2 14 2.44772 14 3V7.79284L11.5 5.29285L8.00001 8.79285L5.50001 6.29285L2 9.79285V3C2 2.44772 2.44772 2 3 2ZM5.50001 7.70706L7.2929 9.49995L2.81074 13.9821C2.34895 13.8937 2 13.4876 2 13V11.2071L5.50001 7.70706ZM4.20707 14H13C13.5523 14 14 13.5523 14 13V9.20705L11.5 6.70706L4.20707 14Z" fill="black"/>
</g>
</svg>
