<svg width="32" height="32" viewBox="0 0 32 32" fill="none" xmlns="http://www.w3.org/2000/svg">
<g opacity="0.9">
<path d="M14 10.5C14 11.8807 12.8807 13 11.5 13C10.1193 13 9 11.8807 9 10.5C9 9.11929 10.1193 8 11.5 8C12.8807 8 14 9.11929 14 10.5Z" fill="black"/>
<path fill-rule="evenodd" clip-rule="evenodd" d="M4 6C4 4.89543 4.89543 4 6 4H26C27.1046 4 28 4.89543 28 6V26C28 27.1046 27.1046 28 26 28H25.5088L25.5 28L6 28C4.89543 28 4 27.1046 4 26V6ZM26 5H6C5.44772 5 5 5.44772 5 6V23.7928L12.5 16.2928L15.7071 19.5L8.20706 27H9.53966L23.2361 13.3036L27 16.8434V6C27 5.44772 26.5523 5 26 5Z" fill="black"/>
</g>
</svg>
