<svg width="24" height="24" viewBox="0 0 24 24" fill="none" xmlns="http://www.w3.org/2000/svg">
<g opacity="0.9">
<path d="M10 7C10 8.10457 9.10457 9 8 9C6.89543 9 6 8.10457 6 7C6 5.89543 6.89543 5 8 5C9.10457 5 10 5.89543 10 7Z" fill="black"/>
<path fill-rule="evenodd" clip-rule="evenodd" d="M19.5 22L19.5156 22H20C21.1046 22 22 21.1046 22 20V4C22 2.89543 21.1046 2 20 2H4C2.89543 2 2 2.89543 2 4V20C2 21.1046 2.89543 22 4 22H4.48832L4.5 22L19.5 22ZM20 3H4C3.44772 3 3 3.44772 3 4V16.7929L8.00141 11.7915L11.3928 15.2101L5.69377 21H7.29294L17.5039 10.7891L21 14.3623V4C21 3.44772 20.5523 3 20 3Z" fill="black"/>
</g>
</svg>
