<svg width="24" height="24" viewBox="0 0 24 24" fill="none" xmlns="http://www.w3.org/2000/svg">
<g opacity="0.9">
<path fill-rule="evenodd" clip-rule="evenodd" d="M2 11.5C2 6.25329 6.25329 2 11.5 2C16.7467 2 21 6.25329 21 11.5C21 12.637 20.8003 13.7273 20.434 14.7378L16.5002 18.6716L14.9144 17.0858C14.1334 16.3047 12.867 16.3047 12.086 17.0858C11.3049 17.8668 11.3049 19.1332 12.086 19.9142L13.0465 20.8748C12.5432 20.9572 12.0266 21 11.5 21C6.25329 21 2 16.7467 2 11.5ZM6.5 10C6.22386 10 6 10.2239 6 10.5V12.5C6 12.7761 6.22386 13 6.5 13H8.5C8.77614 13 9 12.7761 9 12.5V12H14.0854C14.2913 12.5826 14.8469 13 15.5 13C16.3284 13 17 12.3284 17 11.5C17 10.6716 16.3284 10 15.5 10C14.8469 10 14.2913 10.4174 14.0854 11H9V10.5C9 10.2239 8.77614 10 8.5 10H6.5Z" fill="black"/>
<path d="M22.8535 15.8536C23.0487 15.6583 23.0487 15.3417 22.8535 15.1464C22.6582 14.9512 22.3416 14.9512 22.1464 15.1464L16.4999 20.7929L13.8535 18.1464C13.6582 17.9512 13.3416 17.9512 13.1464 18.1464C12.9511 18.3417 12.9511 18.6583 13.1464 18.8536L16.1464 21.8536C16.3416 22.0488 16.6582 22.0488 16.8535 21.8536L22.8535 15.8536Z" fill="black"/>
</g>
</svg>
