<svg width="32" height="32" viewBox="0 0 32 32" fill="none" xmlns="http://www.w3.org/2000/svg">
<g opacity="0.9">
<path fill-rule="evenodd" clip-rule="evenodd" d="M5 15.5C5 9.14873 10.1487 4 16.5 4C22.8513 4 28 9.14873 28 15.5C28 17.3753 27.5511 19.1458 26.755 20.7098L23.5001 23.9647L22.2701 22.7345C21.2938 21.7582 19.7099 21.7572 18.7324 22.7323C17.7549 23.7074 17.7538 25.2893 18.7301 26.2657L19.1562 26.6917C18.3035 26.8933 17.4142 27 16.5 27C10.1487 27 5 21.8513 5 15.5ZM10 13C9.44772 13 9 13.4477 9 14V17C9 17.5523 9.44772 18 10 18H13C13.5523 18 14 17.5523 14 17V16H19.05C19.2816 17.1411 20.2905 18 21.5 18C22.8807 18 24 16.8807 24 15.5C24 14.1193 22.8807 13 21.5 13C20.2905 13 19.2816 13.8589 19.05 15H14V14C14 13.4477 13.5523 13 13 13H10Z" fill="black"/>
<path d="M22.7922 28.2065C22.9799 28.3942 23.2346 28.4996 23.5002 28.4996C23.7658 28.4996 24.0205 28.3942 24.2081 28.2065L30.2081 22.2064C30.5987 21.8159 30.5983 21.1831 30.2073 20.7931C29.8163 20.4031 29.1827 20.4034 28.7922 20.794L23.5002 26.086L21.2082 23.7939C20.8176 23.4033 20.1841 23.4029 19.7931 23.793C19.4021 24.183 19.4017 24.8158 19.7922 25.2063L22.7922 28.2065Z" fill="black"/>
</g>
</svg>
