<svg width="32" height="32" viewBox="0 0 32 32" fill="none" xmlns="http://www.w3.org/2000/svg">
<path opacity="0.9" fill-rule="evenodd" clip-rule="evenodd" d="M4.5 7.38592C4.5 6.34935 5.59524 5.74138 6.50149 6.11062L27.623 14.7252C28.7922 15.2019 28.7923 16.7981 27.6231 17.2748L6.50166 25.8893C5.59559 26.2585 4.5 25.6509 4.5 24.6146C4.5 24.5586 4.5094 24.503 4.52781 24.4501L7.47055 16L4.52782 7.55037C4.5094 7.49749 4.5 7.44191 4.5 7.38592ZM8.35533 16.5L5.50702 24.679C5.55315 24.8927 5.82059 25.087 6.12418 24.9633L27.2454 16.3489C27.5847 16.2106 27.5848 15.7895 27.2455 15.6512L6.12418 7.0367C5.82078 6.9132 5.55309 7.10732 5.507 7.32144L8.35532 15.5H19.5C19.7761 15.5 20 15.7239 20 16C20 16.2762 19.7761 16.5 19.5 16.5H8.35533Z" fill="black"/>
</svg>
