<svg width="32" height="32" viewBox="0 0 32 32" fill="none" xmlns="http://www.w3.org/2000/svg">
<path opacity="0.9" fill-rule="evenodd" clip-rule="evenodd" d="M29 9C29 9.55229 29.4477 10 30 10C30.5523 10 31 9.55229 31 9L31 2C31 1.44771 30.5523 1 30 1H23C22.4477 1 22 1.44771 22 2C22 2.55228 22.4477 3 23 3L27.5858 3L14.2929 16.2929C13.9024 16.6834 13.9024 17.3166 14.2929 17.7071C14.6834 18.0976 15.3166 18.0976 15.7071 17.7071L29 4.41421V9ZM6 4H25.1716L13.5858 15.5858C12.8047 16.3668 12.8047 17.6332 13.5858 18.4142C14.3668 19.1953 15.6332 19.1953 16.4142 18.4142L28 6.82843V26C28 27.1046 27.1046 28 26 28H6C4.89543 28 4 27.1046 4 26V6C4 4.89543 4.89543 4 6 4Z" fill="black"/>
</svg>
