<svg width="32" height="32" viewBox="0 0 32 32" fill="none" xmlns="http://www.w3.org/2000/svg">
<g opacity="0.9">
<path d="M30 8.5C30 8.77614 30.2238 9 30.5 9C30.7761 9 31 8.77614 31 8.5V1.5C31 1.22386 30.7761 1 30.5 1H23.5C23.2238 1 23 1.22386 23 1.5C23 1.77614 23.2238 2 23.5 2L29.2929 2L15.1464 16.1464C14.9512 16.3417 14.9512 16.6583 15.1464 16.8536C15.3417 17.0488 15.6583 17.0488 15.8535 16.8536L30 2.70711V8.5Z" fill="black"/>
<path d="M5 6.5C5 5.67157 5.67157 5 6.5 5H16C16.2761 5 16.5 4.77614 16.5 4.5C16.5 4.22386 16.2761 4 16 4H6.5C5.11929 4 4 5.11929 4 6.5V25.5C4 26.8807 5.11929 28 6.5 28H25.5C26.8807 28 28 26.8807 28 25.5V16C28 15.7239 27.7761 15.5 27.5 15.5C27.2239 15.5 27 15.7239 27 16V25.5C27 26.3284 26.3284 27 25.5 27H6.5C5.67157 27 5 26.3284 5 25.5V6.5Z" fill="black"/>
</g>
</svg>
