<svg width="24" height="24" viewBox="0 0 24 24" fill="none" xmlns="http://www.w3.org/2000/svg">
<path opacity="0.9" fill-rule="evenodd" clip-rule="evenodd" d="M23 5.5C23 5.77614 23.2239 6 23.5 6C23.7761 6 24 5.77614 24 5.5V0.5C24 0.367392 23.9473 0.240215 23.8536 0.146447C23.7598 0.0526787 23.6326 0 23.5 0H18.5C18.2239 0 18 0.223858 18 0.5C18 0.776142 18.2239 1 18.5 1L22.2929 1L12.1464 11.1464C11.9512 11.3417 11.9512 11.6583 12.1464 11.8536C12.3417 12.0488 12.6583 12.0488 12.8536 11.8536L23 1.70711V5.5ZM4.5 2H19.5C19.6201 2 19.7382 2.00847 19.8538 2.02485L11.4393 10.4393C10.8536 11.0251 10.8536 11.9749 11.4393 12.5607C12.0251 13.1464 12.9749 13.1464 13.5607 12.5607L21.9752 4.14617C21.9915 4.26176 22 4.37989 22 4.5V19.5C22 20.8807 20.8807 22 19.5 22H4.5C3.11929 22 2 20.8807 2 19.5V4.5C2 3.11929 3.11929 2 4.5 2Z" fill="black"/>
</svg>
