<svg width="24" height="24" viewBox="0 0 24 24" fill="none" xmlns="http://www.w3.org/2000/svg">
<g opacity="0.9">
<path d="M3 4C2.44772 4 2 3.55228 2 3C2 2.44772 2.44772 2 3 2C3.55228 2 4 2.44772 4 3C4 3.55228 3.55228 4 3 4Z" fill="black"/>
<path d="M13 7C13 6.44772 12.5523 6 12 6C11.4477 6 11 6.44772 11 7V11H7C6.44771 11 6 11.4477 6 12C6 12.5523 6.44771 13 7 13H11V17C11 17.5523 11.4477 18 12 18C12.5523 18 13 17.5523 13 17V13H17C17.5523 13 18 12.5523 18 12C18 11.4477 17.5523 11 17 11H13V7Z" fill="black"/>
<path d="M2 21C2 21.5523 2.44772 22 3 22C3.55228 22 4 21.5523 4 21C4 20.4477 3.55228 20 3 20C2.44772 20 2 20.4477 2 21Z" fill="black"/>
<path d="M15 4C14.4477 4 14 3.55228 14 3C14 2.44772 14.4477 2 15 2C15.5523 2 16 2.44772 16 3C16 3.55228 15.5523 4 15 4Z" fill="black"/>
<path d="M14 21C14 21.5523 14.4477 22 15 22C15.5523 22 16 21.5523 16 21C16 20.4477 15.5523 20 15 20C14.4477 20 14 20.4477 14 21Z" fill="black"/>
<path d="M9 4C8.44772 4 8 3.55228 8 3C8 2.44772 8.44772 2 9 2C9.55228 2 10 2.44772 10 3C10 3.55228 9.55228 4 9 4Z" fill="black"/>
<path d="M8 21C8 21.5523 8.44772 22 9 22C9.55228 22 10 21.5523 10 21C10 20.4477 9.55228 20 9 20C8.44772 20 8 20.4477 8 21Z" fill="black"/>
<path d="M20 15C20 14.4477 20.4477 14 21 14C21.5523 14 22 14.4477 22 15C22 15.5523 21.5523 16 21 16C20.4477 16 20 15.5523 20 15Z" fill="black"/>
<path d="M3 14C2.44772 14 2 14.4477 2 15C2 15.5523 2.44772 16 3 16C3.55228 16 4 15.5523 4 15C4 14.4477 3.55228 14 3 14Z" fill="black"/>
<path d="M20 9C20 8.44772 20.4477 8 21 8C21.5523 8 22 8.44772 22 9C22 9.55228 21.5523 10 21 10C20.4477 10 20 9.55228 20 9Z" fill="black"/>
<path d="M3 8C2.44772 8 2 8.44772 2 9C2 9.55228 2.44772 10 3 10C3.55228 10 4 9.55228 4 9C4 8.44772 3.55228 8 3 8Z" fill="black"/>
<path d="M21 4C20.4477 4 20 3.55228 20 3C20 2.44772 20.4477 2 21 2C21.5523 2 22 2.44772 22 3C22 3.55228 21.5523 4 21 4Z" fill="black"/>
<path d="M20 21C20 21.5523 20.4477 22 21 22C21.5523 22 22 21.5523 22 21C22 20.4477 21.5523 20 21 20C20.4477 20 20 20.4477 20 21Z" fill="black"/>
</g>
</svg>
