<svg width="32" height="32" viewBox="0 0 32 32" fill="none" xmlns="http://www.w3.org/2000/svg">
<g opacity="0.9">
<path fill-rule="evenodd" clip-rule="evenodd" d="M14 15C14.5523 15 15 14.5523 15 14V7C15 6.44771 14.5523 6 14 6C13.4477 6 13 6.44771 13 7V11.5858L6.70711 5.29289C6.31658 4.90237 5.68342 4.90237 5.29289 5.29289C4.90237 5.68342 4.90237 6.31658 5.29289 6.7071L11.5858 13L7 13C6.44771 13 6 13.4477 6 14C6 14.5523 6.44771 15 7 15L14 15Z" fill="black"/>
<path fill-rule="evenodd" clip-rule="evenodd" d="M18 17C17.4477 17 17 17.4477 17 18V25C17 25.5523 17.4477 26 18 26C18.5523 26 19 25.5523 19 25V20.4142L25.2929 26.7071C25.6834 27.0976 26.3166 27.0976 26.7071 26.7071C27.0976 26.3166 27.0976 25.6834 26.7071 25.2929L20.4142 19H25C25.5523 19 26 18.5523 26 18C26 17.4477 25.5523 17 25 17L18 17Z" fill="black"/>
</g>
</svg>
