<svg width="32" height="32" viewBox="0 0 32 32" fill="none" xmlns="http://www.w3.org/2000/svg">
<path opacity="0.9" d="M24.5 16.5L24.8979 16.8028L25.1284 16.5L24.8979 16.1972L24.5 16.5ZM24.5 16.5C24.8979 16.8028 24.8978 16.803 24.8976 16.8031L24.8973 16.8035L24.8965 16.8047L24.8937 16.8083L24.8839 16.8209C24.8756 16.8317 24.8636 16.847 24.848 16.8667C24.8169 16.906 24.7714 16.9625 24.7124 17.0338C24.5944 17.1763 24.4218 17.378 24.2004 17.6193C23.7582 18.1012 23.1181 18.7441 22.3257 19.388C20.7545 20.6649 18.518 22 16 22C13.482 22 11.2455 20.6649 9.67426 19.388C8.88186 18.7441 8.24178 18.1012 7.79957 17.6193C7.57817 17.378 7.40562 17.1763 7.2876 17.0338C7.22858 16.9625 7.18314 16.906 7.152 16.8667C7.13643 16.847 7.12443 16.8317 7.11609 16.8209L7.10634 16.8083L7.10354 16.8047L7.10266 16.8035L7.10235 16.8031C7.10224 16.803 7.10213 16.8028 7.5 16.5M24.5 16.5C24.8979 16.1972 24.8978 16.197 24.8976 16.1969L24.8973 16.1965L24.8965 16.1953L24.8937 16.1917L24.8839 16.1791C24.8756 16.1683 24.8636 16.153 24.848 16.1333C24.8169 16.094 24.7714 16.0375 24.7124 15.9662C24.5944 15.8237 24.4218 15.622 24.2004 15.3807C23.7582 14.8988 23.1181 14.2559 22.3257 13.612C20.7545 12.3351 18.518 11 16 11C13.482 11 11.2455 12.3351 9.67426 13.612C8.88186 14.2559 8.24178 14.8988 7.79957 15.3807C7.57817 15.622 7.40562 15.8237 7.2876 15.9662C7.22858 16.0375 7.18314 16.094 7.152 16.1333C7.13643 16.153 7.12443 16.1683 7.11609 16.1791L7.10634 16.1917L7.10354 16.1953L7.10266 16.1965L7.10235 16.1969C7.10224 16.197 7.10213 16.1972 7.5 16.5M7.5 16.5L7.10213 16.8028L6.87165 16.5L7.10213 16.1972L7.5 16.5ZM16.3754 5.45277L16 5.54939L15.6246 5.45277C14.9776 5.28623 14.5 4.69825 14.5 4C14.5 3.17157 15.1716 2.5 16 2.5C16.8284 2.5 17.5 3.17157 17.5 4C17.5 4.69825 17.0224 5.28623 16.3754 5.45277ZM16 8.5H16.5H25C26.3807 8.5 27.5 9.61929 27.5 11V14V14.5H28H29C29.2761 14.5 29.5 14.7239 29.5 15V18C29.5 18.2761 29.2761 18.5 29 18.5H28H27.5V19V22C27.5 23.3807 26.3807 24.5 25 24.5H7C5.61929 24.5 4.5 23.3807 4.5 22V19V18.5H4H3C2.72386 18.5 2.5 18.2761 2.5 18V15C2.5 14.7239 2.72386 14.5 3 14.5H4H4.5V14V11C4.5 9.61929 5.61929 8.5 7 8.5H15.5H16Z" fill="black" stroke="black"/>
</svg>
