<svg width="32" height="33" viewBox="0 0 32 33" fill="none" xmlns="http://www.w3.org/2000/svg">
<g opacity="0.9">
<path fill-rule="evenodd" clip-rule="evenodd" d="M9 12.217C6.51472 12.217 4.5 14.2318 4.5 16.717C4.5 19.2023 6.51472 21.217 9 21.217H13.0833C13.6356 21.217 14.0833 21.6648 14.0833 22.217C14.0833 22.7693 13.6356 23.217 13.0833 23.217H9C5.41015 23.217 2.5 20.3069 2.5 16.717C2.5 13.1272 5.41015 10.217 9 10.217H13.0833C13.6356 10.217 14.0833 10.6648 14.0833 11.217C14.0833 11.7693 13.6356 12.217 13.0833 12.217H9ZM17.9167 11.217C17.9167 10.6648 18.3644 10.217 18.9167 10.217H23C26.5898 10.217 29.5 13.1272 29.5 16.717C29.5 20.3069 26.5898 23.217 23 23.217H18.9167C18.3644 23.217 17.9167 22.7693 17.9167 22.217C17.9167 21.6648 18.3644 21.217 18.9167 21.217H23C25.4853 21.217 27.5 19.2023 27.5 16.717C27.5 14.2318 25.4853 12.217 23 12.217H18.9167C18.3644 12.217 17.9167 11.7693 17.9167 11.217Z" fill="black"/>
<path d="M10 16.717C10 16.1648 10.4477 15.717 11 15.717H21C21.5523 15.717 22 16.1648 22 16.717C22 17.2693 21.5523 17.717 21 17.717H11C10.4477 17.717 10 17.2693 10 16.717Z" fill="black"/>
</g>
</svg>
