<svg width="24" height="25" viewBox="0 0 24 25" fill="none" xmlns="http://www.w3.org/2000/svg">
<g opacity="0.9">
<path d="M3 12.717C3 10.5079 4.79086 8.71704 7 8.71704H9.78333C10.0595 8.71704 10.2833 8.49318 10.2833 8.21704C10.2833 7.9409 10.0595 7.71704 9.78333 7.71704H7C4.23858 7.71704 2 9.95562 2 12.717C2 15.4785 4.23857 17.717 7 17.717H9.78333C10.0595 17.717 10.2833 17.4932 10.2833 17.217C10.2833 16.9409 10.0595 16.717 9.78333 16.717H7C4.79086 16.717 3 14.9262 3 12.717Z" fill="black"/>
<path d="M14.2167 7.71704C13.9405 7.71704 13.7167 7.9409 13.7167 8.21704C13.7167 8.49318 13.9405 8.71704 14.2167 8.71704H17C19.2091 8.71704 21 10.5079 21 12.717C21 14.9262 19.2091 16.717 17 16.717H14.2167C13.9405 16.717 13.7167 16.9409 13.7167 17.217C13.7167 17.4932 13.9405 17.717 14.2167 17.717H17C19.7614 17.717 22 15.4785 22 12.717C22 9.95562 19.7614 7.71704 17 7.71704H14.2167Z" fill="black"/>
<path d="M8 11.717C7.44772 11.717 7 12.1648 7 12.717C7 13.2693 7.44772 13.717 8 13.717H16C16.5523 13.717 17 13.2693 17 12.717C17 12.1648 16.5523 11.717 16 11.717H8Z" fill="black"/>
</g>
</svg>
