<svg width="24" height="24" viewBox="0 0 24 24" fill="none" xmlns="http://www.w3.org/2000/svg">
<g opacity="0.9">
<mask id="path-1-inside-1" fill="white">
<path d="M2 8C2 6.34315 3.34315 5 5 5H19C20.6569 5 22 6.34315 22 8V16.0592C22 17.716 20.6569 19.0592 19 19.0592H8.02567C7.82288 19.0592 7.62489 19.1208 7.45795 19.236L3.56773 21.9188C2.90435 22.3763 2 21.9014 2 21.0956V8Z"/>
</mask>
<path d="M2 8C2 6.34315 3.34315 5 5 5H19C20.6569 5 22 6.34315 22 8V16.0592C22 17.716 20.6569 19.0592 19 19.0592H8.02567C7.82288 19.0592 7.62489 19.1208 7.45795 19.236L3.56773 21.9188C2.90435 22.3763 2 21.9014 2 21.0956V8Z" fill="black"/>
<path d="M7.45795 19.236L8.02567 20.0592L7.45795 19.236ZM3.56773 21.9188L3 21.0956H3L3.56773 21.9188ZM5 6H19V4H5V6ZM21 8V16.0592H23V8H21ZM19 18.0592H8.02567V20.0592H19V18.0592ZM6.89022 18.4127L3 21.0956L4.13546 22.742L8.02567 20.0592L6.89022 18.4127ZM3 21.0956V8H1V21.0956H3ZM8.02567 18.0592C7.62009 18.0592 7.2241 18.1825 6.89022 18.4127L8.02567 20.0592H8.02567V18.0592ZM3 21.0956L3 21.0956H1C1 22.7073 2.80869 23.657 4.13546 22.742L3 21.0956ZM21 16.0592C21 17.1637 20.1046 18.0592 19 18.0592V20.0592C21.2091 20.0592 23 18.2683 23 16.0592H21ZM19 6C20.1046 6 21 6.89543 21 8H23C23 5.79086 21.2091 4 19 4V6ZM5 4C2.79086 4 1 5.79086 1 8H3C3 6.89543 3.89543 6 5 6V4Z" fill="black" mask="url(#path-1-inside-1)"/>
</g>
</svg>
