<svg width="16" height="16" viewBox="0 0 16 16" fill="none" xmlns="http://www.w3.org/2000/svg">
<g opacity="0.9">
<path d="M7.85304 0.145914C7.65749 -0.0490534 7.3409 -0.0485765 7.14594 0.14698L5.14593 2.15302C5.06179 2.23741 5.01088 2.34874 5.00157 2.46668C5.00051 2.48004 4.99998 2.49348 5 2.50698C5.00021 2.63959 5.05308 2.76669 5.14699 2.86032L7.14699 4.85422C7.34255 5.04918 7.65913 5.0487 7.85409 4.85314C7.9417 4.76526 7.98984 4.65295 7.99856 4.53822C8.00929 4.39757 7.96076 4.25325 7.85303 4.14584L7.05242 3.34767C6.92613 3.22177 7.0153 3.00604 7.19362 3.00604H7.67424C7.69405 3.00604 7.71359 3.00488 7.73279 3.00264C7.74221 3.00155 7.75167 3.00078 7.76116 3.00076L8.00123 3.00018L8.0097 3.00009C10.7666 3.00536 12.9999 5.24191 12.9999 8.00008C12.9999 8.27622 13.2238 8.50008 13.4999 8.50008C13.7761 8.50008 13.9999 8.27622 13.9999 8.00008C13.9999 4.68637 11.3136 2.00008 7.99994 2.00008L7.98852 2.00021L7.19092 2.00213C7.01265 2.00257 6.92294 1.78717 7.0488 1.66093L7.85409 0.853208C7.9417 0.765337 7.98985 0.653029 7.99856 0.538299C8.0093 0.397641 7.96077 0.253323 7.85304 0.145914Z" fill="black"/>
<path d="M3 8.00008C3 10.7615 5.23858 13.0001 8 13.0001L8.00592 13.0001L8.81 13.0001C8.98818 13.0001 9.07742 12.7847 8.95142 12.6587L8.14646 11.8537C7.9512 11.6585 7.9512 11.3419 8.14646 11.1466C8.34172 10.9514 8.6583 10.9514 8.85356 11.1466L10.8535 13.1466C11.0488 13.3418 11.0488 13.6584 10.8535 13.8537L8.85358 15.8537C8.65832 16.049 8.34174 16.049 8.14647 15.8537C7.9512 15.6585 7.95119 15.3419 8.14645 15.1466L8.95151 14.3415C9.0775 14.2155 8.98827 14.0001 8.81009 14.0001L8.00001 14.0001C7.99795 14.0001 7.99589 14.0001 7.99383 14.0001C4.68296 13.9967 2 11.3117 2 8.00008C2 7.72394 2.22386 7.50008 2.5 7.50008C2.77614 7.50008 3 7.72394 3 8.00008Z" fill="black"/>
</g>
</svg>
