<svg width="32" height="32" viewBox="0 0 32 32" fill="none" xmlns="http://www.w3.org/2000/svg">
<g opacity="0.9">
<path fill-rule="evenodd" clip-rule="evenodd" d="M17.3536 5.14645C17.1583 4.95118 16.8417 4.95118 16.6464 5.14645L6.14645 15.6464C5.95118 15.8417 5.95118 16.1583 6.14645 16.3536L16.6464 26.8536C16.8417 27.0488 17.1583 27.0488 17.3536 26.8536C17.5488 26.6583 17.5488 26.3417 17.3536 26.1464L7.20711 16L17.3536 5.85355C17.5488 5.65829 17.5488 5.34171 17.3536 5.14645Z" fill="black"/>
<path fill-rule="evenodd" clip-rule="evenodd" d="M25.3536 5.14645C25.1583 4.95118 24.8417 4.95118 24.6464 5.14645L14.1464 15.6464C13.9512 15.8417 13.9512 16.1583 14.1464 16.3536L24.6464 26.8536C24.8417 27.0488 25.1583 27.0488 25.3536 26.8536C25.5488 26.6583 25.5488 26.3417 25.3536 26.1464L15.2071 16L25.3536 5.85355C25.5488 5.65829 25.5488 5.34171 25.3536 5.14645Z" fill="black"/>
</g>
</svg>
