<svg width="16" height="16" viewBox="0 0 16 16" fill="none" xmlns="http://www.w3.org/2000/svg">
<g opacity="0.9">
<path fill-rule="evenodd" clip-rule="evenodd" d="M4 5C2.89543 5 2 5.89543 2 7V10.5C2 10.7761 2.22386 11 2.5 11C2.77614 11 3 10.7761 3 10.5V9H5V10.5C5 10.7761 5.22386 11 5.5 11C5.77614 11 6 10.7761 6 10.5V7C6 5.89543 5.10457 5 4 5ZM5 7V8H3V7C3 6.44772 3.44772 6 4 6C4.55228 6 5 6.44772 5 7Z" fill="black"/>
<path fill-rule="evenodd" clip-rule="evenodd" d="M7 5.5C7 5.22386 7.22386 5 7.5 5H9C10.1046 5 11 5.89543 11 7C11 8.10457 10.1046 9 9 9H8V10.5C8 10.7761 7.77614 11 7.5 11C7.22386 11 7 10.7761 7 10.5V5.5ZM8 8H9C9.55228 8 10 7.55228 10 7C10 6.44772 9.55228 6 9 6H8V8Z" fill="black"/>
<path d="M13 5.5C13 5.22386 12.7761 5 12.5 5C12.2239 5 12 5.22386 12 5.5V10.5C12 10.7761 12.2239 11 12.5 11C12.7761 11 13 10.7761 13 10.5V5.5Z" fill="black"/>
<path fill-rule="evenodd" clip-rule="evenodd" d="M2.5 2C1.11929 2 0 3.11929 0 4.5V11.5C0 12.8807 1.11929 14 2.5 14H13.5C14.8807 14 16 12.8807 16 11.5V4.5C16 3.11929 14.8807 2 13.5 2H2.5ZM1 4.5C1 3.67157 1.67157 3 2.5 3H13.5C14.3284 3 15 3.67157 15 4.5V11.5C15 12.3284 14.3284 13 13.5 13H2.5C1.67157 13 1 12.3284 1 11.5V4.5Z" fill="black"/>
</g>
</svg>
