<svg width="32" height="32" viewBox="0 0 32 32" fill="none" xmlns="http://www.w3.org/2000/svg">
<g opacity="0.9">
<path fill-rule="evenodd" clip-rule="evenodd" d="M13 13C13 14.1046 12.1046 15 11 15C9.89543 15 9 14.1046 9 13C9 11.8954 9.89543 11 11 11C12.1046 11 13 11.8954 13 13ZM12 13C12 13.5523 11.5523 14 11 14C10.4477 14 10 13.5523 10 13C10 12.4477 10.4477 12 11 12C11.5523 12 12 12.4477 12 13Z" fill="black"/>
<path fill-rule="evenodd" clip-rule="evenodd" d="M21 15C22.1046 15 23 14.1046 23 13C23 11.8954 22.1046 11 21 11C19.8954 11 19 11.8954 19 13C19 14.1046 19.8954 15 21 15ZM21 14C21.5523 14 22 13.5523 22 13C22 12.4477 21.5523 12 21 12C20.4477 12 20 12.4477 20 13C20 13.5523 20.4477 14 21 14Z" fill="black"/>
<path d="M10.5 20C10.2239 20 10 20.2239 10 20.5C10 20.7761 10.2239 21 10.5 21H21.5C21.7761 21 22 20.7761 22 20.5C22 20.2239 21.7761 20 21.5 20H10.5Z" fill="black"/>
<path fill-rule="evenodd" clip-rule="evenodd" d="M16 4C9.37258 4 4 9.37258 4 16C4 22.6274 9.37258 28 16 28C22.6274 28 28 22.6274 28 16C28 9.37258 22.6274 4 16 4ZM5 16C5 9.92487 9.92487 5 16 5C22.0751 5 27 9.92487 27 16C27 22.0751 22.0751 27 16 27C9.92487 27 5 22.0751 5 16Z" fill="black"/>
</g>
</svg>
