<svg width="32" height="32" viewBox="0 0 32 32" fill="none" xmlns="http://www.w3.org/2000/svg">
<g opacity="0.9">
<path fill-rule="evenodd" clip-rule="evenodd" d="M12 13.5C12 13.2239 12.2239 13 12.5 13H19.5C19.7761 13 20 13.2239 20 13.5V15.5C20 15.7761 19.7761 16 19.5 16H12.5C12.2239 16 12 15.7761 12 15.5V13.5ZM13 15V14H19V15H13Z" fill="black"/>
<path fill-rule="evenodd" clip-rule="evenodd" d="M3 8C3 6.89543 3.89543 6 5 6H27C28.1046 6 29 6.89543 29 8V11.5C29 11.7761 28.7761 12 28.5 12H28V24C28 25.1046 27.1046 26 26 26H6C4.89543 26 4 25.1046 4 24V12H3.5C3.22386 12 3 11.7761 3 11.5V8ZM5 12H27V24C27 24.5523 26.5523 25 26 25H6C5.44772 25 5 24.5523 5 24V12ZM28 11H4V8C4 7.44772 4.44772 7 5 7H27C27.5523 7 28 7.44772 28 8V11Z" fill="black"/>
</g>
</svg>
