<svg width="16" height="16" viewBox="0 0 16 16" fill="none" xmlns="http://www.w3.org/2000/svg">
<g opacity="0.9">
<path d="M6 7.5C6 7.22386 6.22386 7 6.5 7H9.5C9.77614 7 10 7.22386 10 7.5C10 7.77614 9.77614 8 9.5 8H6.5C6.22386 8 6 7.77614 6 7.5Z" fill="black"/>
<path fill-rule="evenodd" clip-rule="evenodd" d="M2 2C0.895431 2 0 2.89543 0 4V5C0 5.55229 0.447716 6 1 6L1 12C1 13.1046 1.89543 14 3 14H13C14.1046 14 15 13.1046 15 12V6C15.5523 6 16 5.55228 16 5V4C16 2.89543 15.1046 2 14 2H2ZM14 6H2V12C2 12.5523 2.44772 13 3 13H13C13.5523 13 14 12.5523 14 12V6ZM1 5H15V4C15 3.44772 14.5523 3 14 3H2C1.44772 3 1 3.44772 1 4V5Z" fill="black"/>
</g>
</svg>
