<svg width="32" height="32" viewBox="0 0 32 32" fill="none" xmlns="http://www.w3.org/2000/svg">
<g opacity="0.9">
<path d="M5 6C3.89543 6 3 6.89543 3 8V10.5C3 10.7761 3.22386 11 3.5 11H28.5C28.7761 11 29 10.7761 29 10.5V8C29 6.89543 28.1046 6 27 6H5Z" fill="black"/>
<path fill-rule="evenodd" clip-rule="evenodd" d="M4 12.5C4 12.2239 4.22386 12 4.5 12H27.5C27.7761 12 28 12.2239 28 12.5V24C28 25.1046 27.1046 26 26 26H6C4.89543 26 4 25.1046 4 24V12.5ZM12.5 14C12.2239 14 12 14.2239 12 14.5V15.5C12 15.7761 12.2239 16 12.5 16H19.5C19.7761 16 20 15.7761 20 15.5V14.5C20 14.2239 19.7761 14 19.5 14H12.5Z" fill="black"/>
</g>
</svg>
