<svg width="24" height="24" viewBox="0 0 24 24" fill="none" xmlns="http://www.w3.org/2000/svg">
<path fill-rule="evenodd" clip-rule="evenodd" d="M12 2C6.47715 2 2 6.47715 2 12C2 13.3027 2.24885 14.5461 2.70114 15.6861C2.80298 15.9428 2.67746 16.2334 2.42078 16.3353C2.1641 16.4371 1.87347 16.3116 1.77163 16.0549C1.27353 14.7995 1 13.4311 1 12C1 5.92487 5.92487 1 12 1C18.0751 1 23 5.92487 23 12C23 18.0751 18.0751 23 12 23C9.02814 23 6.33068 21.8208 4.35166 19.9059C4.12954 19.6909 4 19.3939 4 19.0795C4 16.0589 5.67406 13.4302 8.14326 12.069C7.73501 11.3915 7.5 10.5974 7.5 9.7493C7.5 8.40676 8.08855 7.20107 9.02006 6.37731C9.22692 6.19438 9.54291 6.21378 9.72584 6.42064C9.90877 6.6275 9.88937 6.94348 9.68251 7.12641C8.95653 7.76841 8.5 8.70522 8.5 9.7493C8.5 10.5802 8.78891 11.3422 9.27217 11.9424C9.91452 12.7402 10.8976 13.2493 12 13.2493C13.1024 13.2493 14.0855 12.7402 14.7278 11.9424C15.2111 11.3422 15.5 10.5802 15.5 9.7493C15.5 7.87817 14.0315 6.34972 12.1844 6.25406C11.9086 6.23978 11.6967 6.00464 11.7109 5.72887C11.7252 5.4531 11.9604 5.24112 12.2361 5.2554C14.6119 5.37844 16.5 7.34321 16.5 9.7493C16.5 10.5974 16.265 11.3915 15.8567 12.0689C17.3143 12.8724 18.4941 14.117 19.2167 15.623C19.3361 15.872 19.2311 16.1707 18.9822 16.2901C18.7332 16.4096 18.4345 16.3046 18.3151 16.0556C17.6607 14.6916 16.577 13.5721 15.2396 12.8725C14.4217 13.7207 13.2724 14.2493 12 14.2493C10.7276 14.2493 9.57831 13.7207 8.76036 12.8725C6.52447 14.042 5 16.3832 5 19.0795C5 19.1177 5.01579 19.157 5.04703 19.1872C6.84707 20.929 9.29795 22 12 22C17.5228 22 22 17.5228 22 12C22 6.47715 17.5228 2 12 2Z" fill="black"/>
</svg>
