<svg width="32" height="32" viewBox="0 0 32 32" fill="none" xmlns="http://www.w3.org/2000/svg">
<path opacity="0.9" fill-rule="evenodd" clip-rule="evenodd" d="M16 3.5C9.09644 3.5 3.5 9.09644 3.5 16C3.5 22.9036 9.09644 28.5 16 28.5C22.9036 28.5 28.5 22.9036 28.5 16C28.5 9.09644 22.9036 3.5 16 3.5ZM5.5 16C5.5 10.201 10.201 5.5 16 5.5C18.5394 5.5 20.8682 6.40144 22.6839 7.90178L7.90178 22.6839C6.40144 20.8682 5.5 18.5394 5.5 16ZM9.31599 24.0982C11.1317 25.5985 13.4606 26.5 16 26.5C21.799 26.5 26.5 21.799 26.5 16C26.5 13.4606 25.5985 11.1317 24.0982 9.31599L9.31599 24.0982Z" fill="black"/>
</svg>
