<svg width="16" height="16" viewBox="0 0 16 16" fill="none" xmlns="http://www.w3.org/2000/svg">
<g opacity="0.9">
<path d="M10.176 8.06523C10.6867 7.52733 11 6.80026 11 6C11 4.34315 9.65685 3 8 3C6.34315 3 5 4.34315 5 6C5 6.80026 5.31334 7.52733 5.82402 8.06523C4.2145 8.38017 3 9.79825 3 11.5V13.5C3 13.7761 3.22386 14 3.5 14H8.79076C8.60325 13.5368 8.5 13.0304 8.5 12.5C8.5 10.6367 9.77409 9.07091 11.4986 8.62638C11.1083 8.35442 10.66 8.15994 10.176 8.06523Z" fill="black"/>
<path d="M12.5 10C12.7761 10 13 10.2239 13 10.5V12H14.5C14.7761 12 15 12.2239 15 12.5C15 12.7761 14.7761 13 14.5 13H13V14.5C13 14.7761 12.7761 15 12.5 15C12.2239 15 12 14.7761 12 14.5V13H10.5C10.2239 13 10 12.7761 10 12.5C10 12.2239 10.2239 12 10.5 12H12V10.5C12 10.2239 12.2239 10 12.5 10Z" fill="black"/>
</g>
</svg>
