<svg width="32" height="32" viewBox="0 0 32 32" fill="none" xmlns="http://www.w3.org/2000/svg">
<path opacity="0.9" fill-rule="evenodd" clip-rule="evenodd" d="M9.28359 8.70751C9.75024 8.25382 10.3754 8 11.0263 8H26.5C27.8807 8 29 9.11929 29 10.5V21.5C29 22.8807 27.8807 24 26.5 24H11.0263C10.3754 24 9.75024 23.7462 9.28359 23.2925L3.62645 17.7925C2.61671 16.8108 2.61671 15.1892 3.62644 14.2075L9.28359 8.70751ZM9.00002 18C10.1046 18 11 17.1046 11 16C11 14.8954 10.1046 14 9.00002 14C7.89545 14 7.00002 14.8954 7.00002 16C7.00002 17.1046 7.89545 18 9.00002 18Z" fill="black"/>
</svg>
