<svg width="24" height="24" viewBox="0 0 24 24" fill="none" xmlns="http://www.w3.org/2000/svg">
<g opacity="0.9">
<path d="M6.00018 12C6.00018 12.5523 5.55247 13 5.00018 13C4.4479 13 4.00018 12.5523 4.00018 12C4.00018 11.4477 4.4479 11 5.00018 11C5.55247 11 6.00018 11.4477 6.00018 12Z" fill="black"/>
<path fill-rule="evenodd" clip-rule="evenodd" d="M7.27814 6C6.65266 6 6.04991 6.23446 5.58883 6.65711L1.77065 10.1571C0.689731 11.148 0.689732 12.852 1.77065 13.8429L5.58883 17.3429C6.04991 17.7655 6.65266 18 7.27814 18H19.5002C20.8809 18 22.0002 16.8807 22.0002 15.5L22.0002 8.5C22.0002 7.11929 20.8809 6 19.5002 6H7.27814ZM6.26456 7.39427C6.5412 7.14068 6.90285 7 7.27814 7H19.5002C20.3286 7 21.0002 7.67157 21.0002 8.5L21.0002 15.5C21.0002 16.3284 20.3286 17 19.5002 17H7.27814C6.90285 17 6.5412 16.8593 6.26456 16.6057L2.44637 13.1057C1.79782 12.5112 1.79782 11.4888 2.44637 10.8943L6.26456 7.39427Z" fill="black"/>
</g>
</svg>
