<svg width="16" height="16" viewBox="0 0 16 16" fill="none" xmlns="http://www.w3.org/2000/svg">
<path opacity="0.9" fill-rule="evenodd" clip-rule="evenodd" d="M5.32812 5C4.97864 5 4.64662 5.12582 4.39827 5.3453L2.41821 7.0953C1.8606 7.58813 1.8606 8.41187 2.41821 8.9047L4.39827 10.6547C4.64662 10.8742 4.97864 11 5.32812 11H12.7C13.418 11 14 10.418 14 9.7V6.25C14 5.58498 13.4225 5 12.6519 5H5.32812ZM3.73604 4.59601C4.17211 4.2106 4.7414 4 5.32812 4H12.6519C13.9227 4 15 4.98202 15 6.25V9.7C15 10.9703 13.9703 12 12.7 12H5.32812C4.7414 12 4.17211 11.7894 3.73604 11.404L1.75598 9.65399C0.748008 8.76314 0.748008 7.23686 1.75598 6.34601L3.73604 4.59601Z" fill="black"/>
</svg>
