<svg width="32" height="32" viewBox="0 0 32 32" fill="none" xmlns="http://www.w3.org/2000/svg">
<path fill-rule="evenodd" clip-rule="evenodd" d="M11 9C11 8.44772 10.5523 8 10 8H8C7.44772 8 7 8.44772 7 9V23C7 23.5523 7.44772 24 8 24H10C10.5523 24 11 23.5523 11 23V9ZM10 9H8V23H10V9Z" fill="black"/>
<path fill-rule="evenodd" clip-rule="evenodd" d="M13.2481 15.1683C12.6543 15.5641 12.6543 16.4366 13.2481 16.8324L22.4453 22.9639C23.1099 23.4069 24 22.9305 24 22.1318V9.86887C24 9.07017 23.1099 8.59378 22.4453 9.03682L13.2481 15.1683ZM13.8028 16.0004L23 22.1318V9.86887L13.8028 16.0004Z" fill="black"/>
</svg>
