<svg width="24" height="24" viewBox="0 0 24 24" fill="none" xmlns="http://www.w3.org/2000/svg">
<g opacity="0.9">
<path fill-rule="evenodd" clip-rule="evenodd" d="M7 7C7 4.23858 9.23858 2 12 2C14.7614 2 17 4.23858 17 7V13C17 15.7614 14.7614 18 12 18C9.23858 18 7 15.7614 7 13V7ZM12 3C9.79086 3 8 4.79086 8 7V13C8 15.2091 9.79086 17 12 17C14.2091 17 16 15.2091 16 13V7C16 4.79086 14.2091 3 12 3Z" fill="black"/>
<path d="M5.5 9.5C5.77614 9.5 6 9.72386 6 10V13C6 16.3137 8.68629 19 12 19C15.3137 19 18 16.3137 18 13V10C18 9.72386 18.2239 9.5 18.5 9.5C18.7761 9.5 19 9.72386 19 10V13C19 16.6979 16.1326 19.726 12.5 19.9824V22.5C12.5 22.7761 12.2761 23 12 23C11.7239 23 11.5 22.7761 11.5 22.5V19.9824C7.86736 19.726 5 16.6979 5 13V10C5 9.72386 5.22386 9.5 5.5 9.5Z" fill="black"/>
</g>
</svg>
