<svg width="16" height="16" viewBox="0 0 16 16" fill="none" xmlns="http://www.w3.org/2000/svg">
<g opacity="0.9">
<path d="M5 4C5 2.34315 6.34315 1 8 1C9.65685 1 11 2.34315 11 4V8C11 9.65685 9.65685 11 8 11C6.34315 11 5 9.65685 5 8V4Z" fill="black"/>
<path d="M4 7C4 6.72386 3.77614 6.5 3.5 6.5C3.22386 6.5 3 6.72386 3 7V8C3 10.5927 4.97334 12.7245 7.5 12.9753V14.5C7.5 14.7761 7.72386 15 8 15C8.27614 15 8.5 14.7761 8.5 14.5V12.9753C11.0267 12.7245 13 10.5927 13 8V7C13 6.72386 12.7761 6.5 12.5 6.5C12.2239 6.5 12 6.72386 12 7V8C12 10.2091 10.2091 12 8 12C5.79086 12 4 10.2091 4 8V7Z" fill="black"/>
</g>
</svg>
