<svg width="16" height="16" viewBox="0 0 16 16" fill="none" xmlns="http://www.w3.org/2000/svg">
<g opacity="0.9">
<path fill-rule="evenodd" clip-rule="evenodd" d="M8 1C6.34315 1 5 2.34315 5 4V8C5 9.65685 6.34315 11 8 11C9.65685 11 11 9.65685 11 8V4C11 2.34315 9.65685 1 8 1ZM6 4C6 2.89543 6.89543 2 8 2C9.10457 2 10 2.89543 10 4V8C10 9.10457 9.10457 10 8 10C6.89543 10 6 9.10457 6 8V4Z" fill="black"/>
<path d="M4 7C4 6.72386 3.77614 6.5 3.5 6.5C3.22386 6.5 3 6.72386 3 7V8C3 10.5927 4.97334 12.7245 7.5 12.9753V14.5C7.5 14.7761 7.72386 15 8 15C8.27614 15 8.5 14.7761 8.5 14.5V12.9753C11.0267 12.7245 13 10.5927 13 8V7C13 6.72386 12.7761 6.5 12.5 6.5C12.2239 6.5 12 6.72386 12 7V8C12 10.2091 10.2091 12 8 12C5.79086 12 4 10.2091 4 8V7Z" fill="black"/>
</g>
</svg>
