<svg width="24" height="24" viewBox="0 0 24 24" fill="none" xmlns="http://www.w3.org/2000/svg">
<path opacity="0.9" d="M6.78571 19.0592L6.28571 18.5592H5C3.61929 18.5592 2.5 17.4399 2.5 16.0592V8C2.5 6.61929 3.61929 5.5 5 5.5H19C20.3807 5.5 21.5 6.61929 21.5 8V16.0592C21.5 17.4399 20.3807 18.5592 19 18.5592H12.3114C12.0072 18.5592 11.7102 18.6517 11.4598 18.8243L7.56958 21.5072C7.23789 21.736 6.78571 21.4985 6.78571 21.0956V19.0592ZM6.5 15.5C7.60457 15.5 8.5 14.6046 8.5 13.5C8.5 12.3954 7.60457 11.5 6.5 11.5C5.39543 11.5 4.5 12.3954 4.5 13.5C4.5 14.6046 5.39543 15.5 6.5 15.5ZM12 15.5C13.1046 15.5 14 14.6046 14 13.5C14 12.3954 13.1046 11.5 12 11.5C10.8954 11.5 10 12.3954 10 13.5C10 14.6046 10.8954 15.5 12 15.5ZM17.5 15.5C18.6046 15.5 19.5 14.6046 19.5 13.5C19.5 12.3954 18.6046 11.5 17.5 11.5C16.3954 11.5 15.5 12.3954 15.5 13.5C15.5 14.6046 16.3954 15.5 17.5 15.5Z" fill="black" stroke="black" stroke-linejoin="bevel"/>
</svg>
