<svg width="24" height="24" viewBox="0 0 24 24" fill="none" xmlns="http://www.w3.org/2000/svg">
<circle opacity="0.9" cx="6.5" cy="13.5" r="1" stroke="black"/>
<circle opacity="0.9" cx="12" cy="13.5" r="1" stroke="black"/>
<circle opacity="0.9" cx="17.5" cy="13.5" r="1" stroke="black"/>
<g opacity="0.9">
<mask id="path-4-inside-1" fill="white">
<path d="M2 8C2 6.34315 3.34315 5 5 5H19C20.6569 5 22 6.34315 22 8V16.0592C22 17.716 20.6569 19.0592 19 19.0592H12.3114C12.1086 19.0592 11.9106 19.1208 11.7437 19.236L7.85344 21.9188C7.19006 22.3763 6.28571 21.9014 6.28571 21.0956V19.0592H5C3.34315 19.0592 2 17.716 2 16.0592V8Z"/>
</mask>
<path d="M6.28571 19.0592H7.28571V18.0592H6.28571V19.0592ZM11.7437 19.236L12.3114 20.0592L11.7437 19.236ZM5 6H19V4H5V6ZM21 8V16.0592H23V8H21ZM3 16.0592V8H1V16.0592H3ZM6.28571 18.0592H5V20.0592H6.28571V18.0592ZM7.28571 21.0956V19.0592H5.28571V21.0956H7.28571ZM19 18.0592H12.3114V20.0592H19V18.0592ZM11.1759 18.4127L7.28572 21.0956L8.42117 22.742L12.3114 20.0592L11.1759 18.4127ZM12.3114 18.0592C11.9058 18.0592 11.5098 18.1825 11.1759 18.4127L12.3114 20.0592V18.0592ZM1 16.0592C1 18.2683 2.79086 20.0592 5 20.0592V18.0592C3.89543 18.0592 3 17.1637 3 16.0592H1ZM21 16.0592C21 17.1637 20.1046 18.0592 19 18.0592V20.0592C21.2091 20.0592 23 18.2683 23 16.0592H21ZM19 6C20.1046 6 21 6.89543 21 8H23C23 5.79086 21.2091 4 19 4V6ZM5.28571 21.0956C5.28571 22.7073 7.09441 23.657 8.42117 22.742L7.28572 21.0956H7.28571H5.28571ZM5 4C2.79086 4 1 5.79086 1 8H3C3 6.89543 3.89543 6 5 6V4Z" fill="black" mask="url(#path-4-inside-1)"/>
</g>
</svg>
