<svg width="16" height="16" viewBox="0 0 16 16" fill="none" xmlns="http://www.w3.org/2000/svg">
<circle opacity="0.9" cx="5" cy="9" r="1" fill="black"/>
<circle opacity="0.9" cx="8" cy="9" r="1" fill="black"/>
<circle opacity="0.9" cx="11" cy="9" r="1" fill="black"/>
<g opacity="0.9">
<mask id="path-4-inside-1" fill="white">
<path d="M1 5C1 3.89543 1.89543 3 3 3H13C14.1046 3 15 3.89543 15 5V11C15 12.1046 14.1046 13 13 13H8.31946C8.11166 13 7.90902 13.0647 7.73971 13.1852L4.78988 15.2841C4.45885 15.5197 4 15.283 4 14.8767V13H3C1.89543 13 1 12.1046 1 11V5Z"/>
</mask>
<path d="M4 13H5V12H4V13ZM7.73971 13.1852L8.31946 14L7.73971 13.1852ZM4.78988 15.2841L5.36963 16.0989L4.78988 15.2841ZM3 4H13V2H3V4ZM14 5V11H16V5H14ZM2 11V5H0V11H2ZM4 12H3V14H4V12ZM5 14.8767V13H3V14.8767H5ZM13 12H8.31946V14H13V12ZM7.15995 12.3704L4.21012 14.4693L5.36963 16.0989L8.31946 14L7.15995 12.3704ZM8.31946 12C7.90386 12 7.49858 12.1295 7.15995 12.3704L8.31946 14V12ZM0 11C0 12.6569 1.34315 14 3 14V12C2.44772 12 2 11.5523 2 11H0ZM14 11C14 11.5523 13.5523 12 13 12V14C14.6569 14 16 12.6569 16 11H14ZM13 4C13.5523 4 14 4.44772 14 5H16C16 3.34315 14.6569 2 13 2V4ZM3 14.8767C3 16.0955 4.37655 16.8055 5.36963 16.0989L4.21012 14.4693C4.54115 14.2338 5 14.4705 5 14.8767H3ZM3 2C1.34315 2 0 3.34315 0 5H2C2 4.44772 2.44772 4 3 4V2Z" fill="black" mask="url(#path-4-inside-1)"/>
</g>
</svg>
