<svg width="32" height="32" viewBox="0 0 32 32" fill="none" xmlns="http://www.w3.org/2000/svg">
<path opacity="0.9" d="M9.64286 24L9.14286 23.5H7C5.61929 23.5 4.5 22.3807 4.5 21V10C4.5 8.61929 5.61929 7.5 7 7.5H25C26.3807 7.5 27.5 8.61929 27.5 10V21C27.5 22.3807 26.3807 23.5 25 23.5H16L15.7407 23.5725L10.4022 26.811C10.069 27.0131 9.64286 26.7733 9.64286 26.3835V24ZM10.5 19.5C11.6046 19.5 12.5 18.6046 12.5 17.5C12.5 16.3954 11.6046 15.5 10.5 15.5C9.39543 15.5 8.5 16.3954 8.5 17.5C8.5 18.6046 9.39543 19.5 10.5 19.5ZM16 19.5C17.1046 19.5 18 18.6046 18 17.5C18 16.3954 17.1046 15.5 16 15.5C14.8954 15.5 14 16.3954 14 17.5C14 18.6046 14.8954 19.5 16 19.5ZM21.5 19.5C22.6046 19.5 23.5 18.6046 23.5 17.5C23.5 16.3954 22.6046 15.5 21.5 15.5C20.3954 15.5 19.5 16.3954 19.5 17.5C19.5 18.6046 20.3954 19.5 21.5 19.5Z" fill="black" stroke="black" stroke-linejoin="bevel"/>
</svg>
