<svg width="24" height="24" viewBox="0 0 24 24" fill="none" xmlns="http://www.w3.org/2000/svg">
<g opacity="0.9">
<path d="M16.8534 8.85355C17.0487 8.65829 17.0487 8.34171 16.8534 8.14645C16.6582 7.95118 16.3416 7.95118 16.1463 8.14645L12.1463 12.1464C11.9511 12.3417 11.9511 12.6583 12.1463 12.8536C12.3416 13.0488 12.6582 13.0488 12.8534 12.8536L16.8534 8.85355Z" fill="black"/>
<path d="M8.14632 16.8536C8.34159 17.0488 8.65817 17.0488 8.85343 16.8536C9.04869 16.6583 9.04869 16.3417 8.85343 16.1464L4.85343 12.1464C4.65817 11.9512 4.34159 11.9512 4.14632 12.1464C3.95106 12.3417 3.95106 12.6583 4.14632 12.8536L8.14632 16.8536Z" fill="black"/>
<path d="M20.8534 8.85355C21.0487 8.65829 21.0487 8.34171 20.8534 8.14645C20.6582 7.95118 20.3416 7.95118 20.1463 8.14645L12.4999 15.7929L8.85343 12.1464C8.65817 11.9512 8.34159 11.9512 8.14633 12.1464C7.95106 12.3417 7.95106 12.6583 8.14633 12.8536L12.4999 17.2071L20.8534 8.85355Z" fill="black"/>
</g>
</svg>
