<svg width="16" height="16" viewBox="0 0 16 16" fill="none" xmlns="http://www.w3.org/2000/svg">
<g opacity="0.9">
<path d="M10.8532 5.85355C11.0485 5.65829 11.0485 5.34171 10.8532 5.14645C10.6579 4.95118 10.3413 4.95118 10.1461 5.14645L7.14608 8.14645C6.95082 8.34171 6.95082 8.65829 7.14608 8.85355C7.34134 9.04882 7.65793 9.04882 7.85319 8.85355L10.8532 5.85355Z" fill="black"/>
<path d="M4.14608 11.8536C4.34134 12.0488 4.65793 12.0488 4.85319 11.8536C5.04845 11.6583 5.04845 11.3417 4.85319 11.1464L1.85319 8.14645C1.65792 7.95118 1.34134 7.95118 1.14608 8.14645C0.950818 8.34171 0.950818 8.65829 1.14608 8.85355L4.14608 11.8536Z" fill="black"/>
<path d="M13.8532 5.85355C14.0485 5.65829 14.0485 5.34171 13.8532 5.14645C13.6579 4.95118 13.3413 4.95118 13.1461 5.14645L7.49963 10.7929L4.85319 8.14645C4.65792 7.95118 4.34134 7.95118 4.14608 8.14645C3.95082 8.34171 3.95082 8.65829 4.14608 8.85355L7.49963 12.2071L13.8532 5.85355Z" fill="black"/>
</g>
</svg>
