<svg width="32" height="32" viewBox="0 0 32 32" fill="none" xmlns="http://www.w3.org/2000/svg">
<g opacity="0.9">
<path fill-rule="evenodd" clip-rule="evenodd" d="M14.9823 3.02674C14.7778 2.95707 14.5516 3.02666 14.4216 3.19926L5.61 14.9011C5.60109 14.9129 5.59271 14.9252 5.58488 14.9377C5.11217 15.6975 4.89707 16.5385 5.04733 17.4209C5.17974 18.1985 5.58788 18.9618 6.26906 19.6979C5.93451 20.364 5.79798 21.0846 5.92579 21.8352C6.07487 22.7107 6.57349 23.568 7.4178 24.3889C7.46451 24.4343 7.51965 24.4701 7.58011 24.4944L18.7168 28.9641C18.9387 29.0531 19.1927 28.9726 19.3227 28.7718L19.6271 28.3017C19.3919 28.0356 19.1782 27.75 18.9887 27.4477L18.7071 27.8826L8.04585 23.6038C7.35281 22.9102 7.01214 22.2577 6.9116 21.6673C6.83017 21.1891 6.89992 20.7151 7.11488 20.246L17.8383 24.5498C17.8995 24.5744 17.9632 24.5861 18.0261 24.5858C18.0089 24.3929 18.0001 24.1975 18.0001 24C18.0001 23.6978 18.0207 23.4005 18.0606 23.1093L17.8284 23.4683L7.16739 19.1895C6.47435 18.4959 6.13368 17.8435 6.03314 17.253C5.95127 16.7723 6.0222 16.2958 6.23984 15.8243L17.055 19.9335C17.2751 20.0172 17.5236 19.9359 17.6519 19.7385L24.4492 9.27524C24.4639 9.42033 24.4855 9.56381 24.5132 9.70625C24.6592 10.4553 24.9757 11.1595 25.3219 11.881L21.0462 18.4926C21.56 18.1697 22.1221 17.9167 22.7192 17.747L25.0559 14.1338C25.0706 14.2763 25.0918 14.4173 25.1191 14.5572C25.2651 15.3062 25.5815 16.0104 25.9277 16.7318L25.391 17.5606C25.7482 17.6095 26.0962 17.6875 26.4324 17.7921L26.9198 17.0395C27.0147 16.8928 27.0262 16.7073 26.9502 16.5501C26.5474 15.717 26.2346 15.0533 26.1006 14.3659C25.9714 13.7026 26.0068 12.9974 26.3596 12.0996C26.4105 11.9698 26.405 11.8246 26.3443 11.6991C25.9415 10.866 25.6287 10.2023 25.4948 9.51497C25.3655 8.85166 25.4009 8.14643 25.7537 7.24861C25.8036 7.12147 25.7994 6.97942 25.742 6.85549C25.6845 6.73155 25.5789 6.63652 25.4496 6.59247L14.9823 3.02674ZM16.4426 7.20903L20.3059 8.48006C20.4352 8.52259 20.4851 8.67899 20.4045 8.78859L19.4609 10.0709C19.33 10.2486 19.0981 10.3196 18.8902 10.2455L15.091 8.89074C14.9645 8.84564 14.9175 8.69116 14.9975 8.58327L15.8846 7.38627C16.0129 7.2131 16.2378 7.14167 16.4426 7.20903Z" fill="black"/>
<path fill-rule="evenodd" clip-rule="evenodd" d="M25.5302 19H23.5302V20.4714C22.9371 20.6391 22.405 20.9524 21.9751 21.3702L20.7001 20.6341L19.7001 22.3662L20.9743 23.1019C20.902 23.3893 20.8635 23.6901 20.8635 24C20.8635 24.3099 20.902 24.6109 20.9744 24.8984L19.7001 25.6341L20.7001 27.3662L21.9752 26.6299C22.4052 27.0477 22.9371 27.3609 23.5302 27.5286V29H25.5302V27.5286C26.1233 27.3609 26.6553 27.0477 27.0852 26.63L28.3603 27.3662L29.3603 25.6341L28.086 24.8984C28.1584 24.6109 28.1969 24.3099 28.1969 24C28.1969 23.6901 28.1584 23.3893 28.0861 23.1019L29.3603 22.3662L28.3603 20.6341L27.0854 21.3702C26.6554 20.9524 26.1234 20.6391 25.5302 20.4714V19ZM25.8375 24C25.8375 24.6904 25.2779 25.25 24.5875 25.25C23.8972 25.25 23.3375 24.6904 23.3375 24C23.3375 23.3096 23.8972 22.75 24.5875 22.75C25.2779 22.75 25.8375 23.3096 25.8375 24Z" fill="black"/>
</g>
</svg>
