<svg width="24" height="24" viewBox="0 0 24 24" fill="none" xmlns="http://www.w3.org/2000/svg">
<path fill-rule="evenodd" clip-rule="evenodd" d="M10.593 1.19539C10.7229 1.02637 10.9457 0.958263 11.1478 1.02576L20.1198 4.02097C20.2504 4.06459 20.3573 4.16017 20.4152 4.28515C20.473 4.41014 20.4768 4.55346 20.4255 4.68131C20.129 5.42097 20.1009 5.99602 20.2081 6.53539C20.3203 7.09962 20.5829 7.64698 20.9292 8.34884C20.992 8.47621 20.9977 8.62429 20.9448 8.75612C20.6483 9.49579 20.6202 10.0708 20.7275 10.6102C20.8397 11.1744 21.1022 11.7218 21.4485 12.4237C21.5271 12.5831 21.5152 12.7722 21.4172 12.9205L20.9051 13.6957C20.7528 13.926 20.4426 13.9894 20.2123 13.8372C19.9819 13.6849 19.9185 13.3748 20.0707 13.1444L20.425 12.6083C20.1365 12.0172 19.871 11.4303 19.7467 10.8053C19.7355 10.749 19.7254 10.6925 19.7166 10.6358L18.1698 12.9799C18.0177 13.2104 17.7075 13.274 17.477 13.1219C17.2466 12.9698 17.183 12.6596 17.3351 12.4292L19.9057 8.53365C19.6172 7.94254 19.3517 7.35554 19.2273 6.73043C19.2157 6.67199 19.2053 6.61335 19.1963 6.55447L13.4733 15.1878C13.3449 15.3816 13.0999 15.4612 12.8821 15.3801L3.66989 11.95C3.5116 12.3122 3.46401 12.6743 3.52712 13.0375C3.60883 13.5077 3.88639 14.0376 4.46571 14.6088L13.9183 18.3268C14.1753 18.4278 14.3017 18.7181 14.2006 18.9751C14.0995 19.2321 13.8093 19.3584 13.5523 19.2574L4.41965 15.6653C4.26392 16.0251 4.21741 16.3847 4.28009 16.7454C4.3618 17.2157 4.63935 17.7456 5.21867 18.3168L14.6713 22.0347C14.9283 22.1358 15.0547 22.4261 14.9536 22.683C14.8525 22.94 14.5623 23.0664 14.3053 22.9653L4.75958 19.2108C4.69945 19.1872 4.64447 19.1521 4.59769 19.1075C3.8664 18.4107 3.42674 17.6757 3.29485 16.9166C3.1851 16.285 3.29593 15.6796 3.56993 15.1211C3.00253 14.5079 2.65633 13.8673 2.54188 13.2087C2.40867 12.442 2.60045 11.7138 3.01455 11.0616C3.02254 11.049 3.0311 11.0368 3.04019 11.0249L10.593 1.19539ZM4.2457 11.0973L12.8591 14.3045L19.1841 4.76288L11.169 2.08708L4.2457 11.0973Z" fill="black"/>
<path fill-rule="evenodd" clip-rule="evenodd" d="M11.4724 4.50245C11.7289 4.1632 12.172 4.02337 12.5768 4.15389L15.8019 5.19371C16.2596 5.34127 16.4356 5.89574 16.1469 6.28027L15.397 7.27891C15.1354 7.62718 14.6786 7.76613 14.2674 7.62246L11.0971 6.51461C10.649 6.35801 10.4834 5.8102 10.7697 5.43156L11.4724 4.50245ZM15.0945 6.01633L12.27 5.10564L11.8156 5.7064L14.5973 6.67844L15.0945 6.01633Z" fill="black"/>
<path fill-rule="evenodd" clip-rule="evenodd" d="M18.2642 15C18.2642 14.7239 18.488 14.5 18.7642 14.5H20.3642C20.6403 14.5 20.8642 14.7239 20.8642 15V15.8215C21.1536 15.94 21.4231 16.0967 21.6664 16.2853L22.3783 15.8743C22.4931 15.808 22.6296 15.79 22.7577 15.8244C22.8858 15.8587 22.995 15.9425 23.0613 16.0573L23.8613 17.443C23.9994 17.6821 23.9174 17.9879 23.6783 18.126L22.9665 18.5369C22.987 18.6886 22.9975 18.8432 22.9975 19C22.9975 19.157 22.987 19.3116 22.9665 19.4633L23.6783 19.8743C23.9174 20.0124 23.9994 20.3182 23.8613 20.5573L23.0613 21.943C22.995 22.0578 22.8858 22.1416 22.7577 22.1759C22.6296 22.2102 22.4931 22.1923 22.3783 22.126L21.6662 21.7149C21.423 21.9034 21.1536 22.0601 20.8642 22.1786V23C20.8642 23.2762 20.6403 23.5 20.3642 23.5H18.7642C18.488 23.5 18.2642 23.2762 18.2642 23V22.1786C17.9748 22.0601 17.7054 21.9034 17.4622 21.7148L16.7501 22.126C16.5109 22.264 16.2051 22.1821 16.0671 21.943L15.2671 20.5573C15.129 20.3182 15.2109 20.0124 15.4501 19.8743L16.1619 19.4633C16.1414 19.3116 16.1309 19.157 16.1309 19C16.1309 18.8432 16.1414 18.6886 16.1619 18.5369L15.4501 18.126C15.3352 18.0597 15.2514 17.9505 15.2171 17.8224C15.1828 17.6943 15.2008 17.5578 15.2671 17.443L16.0671 16.0573C16.1334 15.9425 16.2426 15.8587 16.3707 15.8244C16.4988 15.79 16.6352 15.808 16.7501 15.8743L17.462 16.2853C17.7053 16.0967 17.9747 15.94 18.2642 15.8215V15ZM19.2642 15.5V16.1771C19.2642 16.4008 19.1156 16.5973 18.9003 16.6582C18.5075 16.7693 18.1543 16.977 17.8685 17.2548C17.7081 17.4107 17.4638 17.4411 17.2701 17.3292L16.6831 16.9903L16.3831 17.5099L16.9695 17.8485C17.163 17.9603 17.2589 18.1869 17.2044 18.4036C17.1564 18.5939 17.1309 18.7936 17.1309 19C17.1309 19.2065 17.1565 19.4062 17.2044 19.5966C17.259 19.8134 17.1631 20.04 16.9695 20.1517L16.3831 20.4903L16.6831 21.01L17.2702 20.671C17.4639 20.5592 17.7083 20.5895 17.8687 20.7454C18.1544 21.0231 18.5075 21.2307 18.9003 21.3418C19.1156 21.4027 19.2642 21.5992 19.2642 21.8229V22.5H19.8642V21.8229C19.8642 21.5992 20.0128 21.4027 20.2281 21.3418C20.6209 21.2307 20.9739 21.0231 21.2597 20.7454C21.4201 20.5896 21.6645 20.5592 21.8582 20.671L22.4453 21.01L22.7453 20.4903L22.1588 20.1518C21.9653 20.04 21.8694 19.8134 21.924 19.5966C21.9719 19.4062 21.9975 19.2065 21.9975 19C21.9975 18.7936 21.9719 18.5939 21.924 18.4036C21.8694 18.1869 21.9653 17.9602 22.1589 17.8485L22.7453 17.51L22.4453 16.9903L21.8583 17.3292C21.6646 17.441 21.4202 17.4106 21.2598 17.2548C20.974 16.977 20.6209 16.7693 20.2281 16.6582C20.0128 16.5973 19.8642 16.4008 19.8642 16.1771V15.5H19.2642Z" fill="black"/>
<path d="M20.6101 19C20.6101 19.5523 20.1623 20 19.6101 20C19.0578 20 18.6101 19.5523 18.6101 19C18.6101 18.4477 19.0578 18 19.6101 18C20.1623 18 20.6101 18.4477 20.6101 19Z" fill="black"/>
</svg>
