<svg width="32" height="32" viewBox="0 0 32 32" fill="none" xmlns="http://www.w3.org/2000/svg">
<path fill-rule="evenodd" clip-rule="evenodd" d="M14.4216 3.19926C14.5516 3.02666 14.7778 2.95707 14.9823 3.02674L25.4496 6.59247C25.5789 6.63652 25.6845 6.73155 25.742 6.85549C25.7994 6.97942 25.8036 7.12147 25.7537 7.24861C25.4009 8.14643 25.3655 8.85166 25.4948 9.51497C25.6287 10.2023 25.9415 10.866 26.3443 11.6991C26.405 11.8246 26.4105 11.9698 26.3596 12.0996C26.0068 12.9974 25.9714 13.7026 26.1006 14.3659C26.2346 15.0533 26.5474 15.717 26.9502 16.5501C27.0262 16.7073 27.0147 16.8929 26.9198 17.0395L26.6577 17.4441C26.5077 17.6759 26.1981 17.7421 25.9663 17.592C25.7345 17.4419 25.6683 17.1324 25.8184 16.9006L25.9277 16.7318C25.5815 16.0104 25.2651 15.3062 25.1191 14.5572C25.0918 14.4173 25.0706 14.2763 25.0559 14.1338L22.8187 17.5931C22.6688 17.825 22.3592 17.8914 22.1274 17.7415C21.8955 17.5915 21.8291 17.282 21.979 17.0501L25.3219 11.881C24.9757 11.1595 24.6592 10.4553 24.5132 9.70625C24.4855 9.56381 24.4639 9.42033 24.4492 9.27524L17.6519 19.7385C17.5236 19.9359 17.2751 20.0172 17.055 19.9335L6.23984 15.8243C6.0222 16.2958 5.95127 16.7723 6.03314 17.253C6.13368 17.8435 6.47435 18.4959 7.16739 19.1895L18.2108 23.6218C18.467 23.7246 18.5914 24.0157 18.4885 24.272C18.3857 24.5283 18.0946 24.6527 17.8383 24.5498L7.11488 20.246C6.89992 20.7151 6.83017 21.1891 6.9116 21.6673C7.01214 22.2577 7.35281 22.9102 8.04585 23.6038L19.0892 28.036C19.3455 28.1389 19.4699 28.43 19.367 28.6863C19.2642 28.9425 18.973 29.0669 18.7168 28.9641L7.58011 24.4944C7.51965 24.4701 7.46451 24.4343 7.4178 24.3889C6.57349 23.568 6.07487 22.7107 5.92579 21.8352C5.79798 21.0846 5.93451 20.364 6.26906 19.6979C5.58788 18.9618 5.17974 18.1985 5.04733 17.4209C4.89707 16.5385 5.11217 15.6975 5.58488 14.9377C5.59271 14.9252 5.60109 14.9129 5.61 14.9011L14.4216 3.19926ZM6.80925 14.9709L17.0331 18.8555L24.5191 7.33195L15.0026 4.0901L6.80925 14.9709Z" fill="black"/>
<path fill-rule="evenodd" clip-rule="evenodd" d="M15.4829 7.08859C15.7396 6.74225 16.1893 6.59938 16.5988 6.73411L20.4622 8.00514C20.9146 8.15398 21.0895 8.70138 20.8072 9.08497L19.8636 10.3672C19.6019 10.7228 19.1381 10.8647 18.7223 10.7164L14.923 9.36173C14.4803 9.20387 14.3159 8.66321 14.5958 8.28559L15.4829 7.08859ZM19.7564 8.82568L16.2863 7.68402L15.6402 8.55578L19.0582 9.77454L19.7564 8.82568Z" fill="black"/>
<path fill-rule="evenodd" clip-rule="evenodd" d="M23.0302 19C23.0302 18.7239 23.2541 18.5 23.5302 18.5H25.5302C25.8064 18.5 26.0302 18.7239 26.0302 19V20.1117C26.4374 20.2689 26.8135 20.488 27.1469 20.7574L28.1103 20.2011C28.2252 20.1348 28.3617 20.1169 28.4897 20.1512C28.6178 20.1855 28.727 20.2693 28.7933 20.3841L29.7933 22.1162C29.9314 22.3553 29.8495 22.6611 29.6103 22.7992L28.6472 23.3553C28.6799 23.5656 28.6969 23.781 28.6969 24C28.6969 24.2192 28.6799 24.4346 28.6472 24.6451L29.6103 25.2011C29.8495 25.3392 29.9314 25.645 29.7933 25.8841L28.7933 27.6162C28.727 27.731 28.6178 27.8148 28.4897 27.8492C28.3617 27.8835 28.2252 27.8655 28.1103 27.7992L27.1467 27.2429C26.8133 27.5122 26.4373 27.7312 26.0302 27.8884V29C26.0302 29.2762 25.8064 29.5 25.5302 29.5H23.5302C23.2541 29.5 23.0302 29.2762 23.0302 29V27.8884C22.6231 27.7312 22.2471 27.5122 21.9137 27.2429L20.9501 27.7992C20.7109 27.9373 20.4051 27.8553 20.2671 27.6162L19.2671 25.8841C19.129 25.645 19.2109 25.3392 19.4501 25.2011L20.4132 24.6451C20.3805 24.4346 20.3635 24.2192 20.3635 24C20.3635 23.781 20.3805 23.5656 20.4132 23.3553L19.4501 22.7992C19.3352 22.7329 19.2514 22.6237 19.2171 22.4956C19.1828 22.3675 19.2008 22.231 19.2671 22.1162L20.2671 20.3841C20.3334 20.2693 20.4426 20.1855 20.5707 20.1512C20.6988 20.1169 20.8352 20.1348 20.9501 20.2011L21.9135 20.7574C22.2469 20.488 22.623 20.2689 23.0302 20.1117V19ZM24.0302 19.5V20.4714C24.0302 20.6951 23.8816 20.8916 23.6663 20.9525C23.1548 21.0972 22.6953 21.3675 22.3235 21.7288C22.1631 21.8847 21.9188 21.9151 21.7251 21.8033L20.8831 21.3172L20.3831 22.1832L21.2243 22.6689C21.4179 22.7806 21.5138 23.0073 21.4592 23.224C21.3968 23.4718 21.3635 23.7317 21.3635 24C21.3635 24.2685 21.3968 24.5284 21.4593 24.7763C21.5139 24.993 21.418 25.2197 21.2244 25.3314L20.3831 25.8172L20.8831 26.6832L21.7252 26.197C21.9189 26.0851 22.1633 26.1155 22.3237 26.2714C22.6955 26.6326 23.1549 26.9029 23.6663 27.0476C23.8816 27.1084 24.0302 27.3049 24.0302 27.5287V28.5H25.0302V27.5287C25.0302 27.3049 25.1788 27.1084 25.3941 27.0476C25.9055 26.9029 26.365 26.6326 26.7367 26.2714C26.8971 26.1155 27.1415 26.0852 27.3352 26.197L28.1773 26.6832L28.6773 25.8172L27.836 25.3314C27.6425 25.2197 27.5466 24.993 27.6012 24.7763C27.6636 24.5284 27.6969 24.2685 27.6969 24C27.6969 23.7317 27.6636 23.4718 27.6012 23.224C27.5466 23.0072 27.6425 22.7806 27.8361 22.6689L28.6773 22.1832L28.1773 21.3172L27.3354 21.8033C27.1417 21.9151 26.8973 21.8847 26.7369 21.7288C26.3651 21.3675 25.9056 21.0972 25.3941 20.9525C25.1788 20.8916 25.0302 20.6951 25.0302 20.4714V19.5H24.0302Z" fill="black"/>
<path fill-rule="evenodd" clip-rule="evenodd" d="M24.5875 23.25C24.1733 23.25 23.8375 23.5858 23.8375 24C23.8375 24.4142 24.1733 24.75 24.5875 24.75C25.0018 24.75 25.3375 24.4142 25.3375 24C25.3375 23.5858 25.0018 23.25 24.5875 23.25ZM22.8375 24C22.8375 23.0335 23.621 22.25 24.5875 22.25C25.554 22.25 26.3375 23.0335 26.3375 24C26.3375 24.9665 25.554 25.75 24.5875 25.75C23.621 25.75 22.8375 24.9665 22.8375 24Z" fill="black"/>
</svg>
