<svg width="16" height="16" viewBox="0 0 16 16" fill="none" xmlns="http://www.w3.org/2000/svg">
<g clip-path="url(#clip0)">
<g opacity="0.9">
<path fill-rule="evenodd" clip-rule="evenodd" d="M7.42699 0.0252394C7.22609 -0.0410926 7.00518 0.0261994 6.87538 0.19327L1.42055 7.21437C1.41136 7.2262 1.40271 7.23843 1.39462 7.25103C1.07966 7.74169 0.928801 8.29858 1.03248 8.88872C1.11648 9.36678 1.35997 9.82404 1.74497 10.2555C1.56668 10.6534 1.49694 11.0856 1.57629 11.5373C1.67857 12.1194 2.01733 12.6707 2.56011 13.1821C2.60692 13.2262 2.6618 13.2609 2.72174 13.2842L9.61585 15.966C9.83438 16.051 10.0826 15.9728 10.2129 15.7778L10.2677 15.6958C9.9819 15.4588 9.73441 15.1773 9.53587 14.8619L3.17789 12.3887C2.78802 12.0027 2.6126 11.6567 2.56121 11.3642C2.52866 11.179 2.54171 10.992 2.60417 10.8015L9.01227 13.2942C9.00419 13.1972 9.00008 13.0991 9.00008 13C9.00008 12.7206 9.03281 12.4489 9.09466 12.1884L9.06029 12.2399L2.63408 9.74012C2.24421 9.35414 2.06879 9.00818 2.0174 8.71568C1.9844 8.52788 1.99827 8.33836 2.06295 8.14513L8.59028 10.5489C8.80687 10.6287 9.0499 10.5498 9.1784 10.3581L13.13 4.46243C13.2272 4.82722 13.3831 5.17409 13.5487 5.51299L10.4424 10.1684C10.9115 9.82697 11.4687 9.59924 12.0734 9.52575L13.5064 7.37802C13.6037 7.74092 13.7589 8.0861 13.9236 8.42339L13.1625 9.56261C13.5078 9.62876 13.8351 9.74564 14.1363 9.90521L14.9158 8.73839C15.0155 8.58919 15.0276 8.39801 14.9475 8.23744C14.6957 7.73272 14.5157 7.3591 14.4392 6.97839C14.3677 6.62301 14.3843 6.24143 14.5884 5.73789C14.6423 5.60494 14.6365 5.45524 14.5724 5.32686C14.3207 4.82214 14.1407 4.44852 14.0641 4.06781C13.9927 3.71243 14.0092 3.33084 14.2133 2.82731C14.2653 2.69909 14.2618 2.55506 14.2037 2.4295C14.1456 2.30393 14.0381 2.20806 13.9067 2.16468L7.42699 0.0252394ZM8.39699 2.76464L10.5581 3.45378C10.6897 3.49574 10.7402 3.65527 10.6567 3.76527L10.2251 4.33364C10.0944 4.5058 9.86789 4.57447 9.66359 4.50386L7.54174 3.77054C7.41285 3.72599 7.36536 3.56835 7.44819 3.46002L7.8479 2.93729C7.97613 2.7696 8.19587 2.7005 8.39699 2.76464Z" fill="black"/>
<path fill-rule="evenodd" clip-rule="evenodd" d="M12.4982 10C12.222 10 11.9982 10.2239 11.9982 10.5V10.6757C11.9982 10.9039 11.8402 11.0973 11.6344 11.196C11.5412 11.2407 11.452 11.2924 11.3675 11.3504C11.1796 11.4793 10.9335 11.519 10.7362 11.405L10.5831 11.3166C10.344 11.1784 10.0381 11.2604 9.90006 11.4996C9.76201 11.7387 9.84401 12.0445 10.0832 12.1825L10.2356 12.2704C10.4329 12.3843 10.5216 12.6173 10.5041 12.8445C10.5002 12.8958 10.4982 12.9477 10.4982 13C10.4982 13.0523 10.5002 13.1042 10.5041 13.1555C10.5216 13.3827 10.4329 13.6157 10.2356 13.7296L10.0832 13.8175C9.84401 13.9555 9.76201 14.2613 9.90006 14.5004C10.0381 14.7396 10.344 14.8216 10.5831 14.6834L10.7362 14.595C10.9335 14.481 11.1796 14.5207 11.3675 14.6496C11.452 14.7076 11.5412 14.7593 11.6344 14.804C11.8402 14.9027 11.9982 15.0961 11.9982 15.3243V15.5C11.9982 15.7761 12.222 16 12.4982 16C12.7743 16 12.9982 15.7761 12.9982 15.5V15.3244C12.9982 15.0961 13.1562 14.9027 13.3621 14.804C13.4553 14.7593 13.5446 14.7076 13.6291 14.6495C13.8172 14.5202 14.0638 14.4803 14.2614 14.5945L14.4132 14.6823C14.6523 14.8205 14.9582 14.7386 15.0963 14.4994C15.2344 14.2603 15.1524 13.9545 14.9133 13.8165L14.7612 13.7288C14.5638 13.6148 14.475 13.3816 14.4923 13.1542C14.4962 13.1033 14.4982 13.0519 14.4982 13C14.4982 12.9481 14.4962 12.8967 14.4923 12.8458C14.475 12.6184 14.5638 12.3852 14.7612 12.2712L14.9133 12.1835C15.1524 12.0455 15.2344 11.7397 15.0963 11.5006C14.9582 11.2614 14.6523 11.1795 14.4132 11.3177L14.2614 11.4055C14.0638 11.5197 13.8172 11.4798 13.6291 11.3505C13.5446 11.2924 13.4553 11.2407 13.3621 11.196C13.1562 11.0973 12.9982 10.9039 12.9982 10.6756V10.5C12.9982 10.2239 12.7743 10 12.4982 10ZM13.4982 13C13.4982 13.5523 13.0505 14 12.4982 14C11.9459 14 11.4982 13.5523 11.4982 13C11.4982 12.4477 11.9459 12 12.4982 12C13.0505 12 13.4982 12.4477 13.4982 13Z" fill="black"/>
</g>
</g>
<defs>
<clipPath id="clip0">
<rect width="16" height="16" fill="white"/>
</clipPath>
</defs>
</svg>
