<svg width="16" height="16" viewBox="0 0 16 16" fill="none" xmlns="http://www.w3.org/2000/svg">
<g opacity="0.9">
<path d="M1 2.5C1 2.22386 0.776142 2 0.5 2C0.223858 2 0 2.22386 0 2.5V15H14.5C14.7761 15 15 14.7761 15 14.5C15 14.2239 14.7761 14 14.5 14H1V2.5Z" fill="black"/>
<path fill-rule="evenodd" clip-rule="evenodd" d="M2 4.5C2 3.11929 3.11929 2 4.5 2H9.5C10.8807 2 12 3.11929 12 4.5V6.5C12 7.88071 10.8807 9 9.5 9H4.91421C4.78161 9 4.65443 9.05268 4.56066 9.14645L3.70711 10C3.07714 10.63 2 10.1838 2 9.29289V4.5ZM4.5 3C3.67157 3 3 3.67157 3 4.5V9.29289L3.85355 8.43934C4.13486 8.15804 4.51639 8 4.91421 8H9.5C10.3284 8 11 7.32843 11 6.5V4.5C11 3.67157 10.3284 3 9.5 3H4.5Z" fill="black"/>
<path d="M13.0361 4.5085C13.1706 4.26733 13.4751 4.18086 13.7163 4.31537C14.481 4.74185 15 5.55995 15 6.49995V11.2928C15 12.1837 13.9228 12.6299 13.2929 11.9999L12.4393 11.1464C12.3456 11.0526 12.2184 10.9999 12.0858 10.9999H7.49999C7.06865 10.9999 6.66143 10.8903 6.3062 10.6969C6.06365 10.5649 5.97405 10.2613 6.10607 10.0187C6.23808 9.7762 6.54172 9.6866 6.78426 9.81862C6.99648 9.93412 7.2398 9.99995 7.49999 9.99995H12.0858C12.4836 9.99995 12.8651 10.158 13.1464 10.4393L14 11.2928V6.49995C14 5.93701 13.6901 5.44577 13.2292 5.18872C12.988 5.05421 12.9016 4.74967 13.0361 4.5085Z" fill="black"/>
</g>
</svg>
