<svg width="16" height="16" viewBox="0 0 16 16" fill="none" xmlns="http://www.w3.org/2000/svg">
<path d="M11.6602 6.2398L8.8854 11.3958C8.85404 11.4635 8.81454 11.5288 8.76675 11.5903C8.42775 12.0263 7.79949 12.1049 7.36348 11.7659C6.92748 11.4269 6.84885 10.7987 7.18785 10.3627C7.22542 10.3144 7.26655 10.2704 7.31057 10.231L11.6602 6.2398Z" fill="black"/>
<path d="M3 11.5C3 11.7761 2.77614 12 2.5 12C2.22386 12 2 11.7761 2 11.5C2 11.2239 2.22386 11 2.5 11C2.77614 11 3 11.2239 3 11.5Z" fill="black"/>
<path d="M2.5 8C2.77614 8 3 7.77614 3 7.5C3 7.22386 2.77614 7 2.5 7C2.22386 7 2 7.22386 2 7.5C2 7.77614 2.22386 8 2.5 8Z" fill="black"/>
<path d="M6 4.5C6 4.77614 5.77614 5 5.5 5C5.22386 5 5 4.77614 5 4.5C5 4.22386 5.22386 4 5.5 4C5.77614 4 6 4.22386 6 4.5Z" fill="black"/>
<path d="M10.5 5C10.7761 5 11 4.77614 11 4.5C11 4.22386 10.7761 4 10.5 4C10.2239 4 10 4.22386 10 4.5C10 4.77614 10.2239 5 10.5 5Z" fill="black"/>
<path d="M14 7.5C14 7.77614 13.7761 8 13.5 8C13.2239 8 13 7.77614 13 7.5C13 7.22386 13.2239 7 13.5 7C13.7761 7 14 7.22386 14 7.5Z" fill="black"/>
<path d="M13.5 12C13.7761 12 14 11.7761 14 11.5C14 11.2239 13.7761 11 13.5 11C13.2239 11 13 11.2239 13 11.5C13 11.7761 13.2239 12 13.5 12Z" fill="black"/>
<path fill-rule="evenodd" clip-rule="evenodd" d="M8 2C3.58172 2 0 5.58172 0 10C0 11.3475 0.333548 12.6185 0.923005 13.7337L1.06379 14H14.9362L15.077 13.7337C15.6665 12.6185 16 11.3475 16 10C16 5.58172 12.4183 2 8 2ZM1 10C1 6.13401 4.13401 3 8 3C11.866 3 15 6.13401 15 10C15 11.0745 14.7583 12.0912 14.3265 13H1.6735C1.24175 12.0912 1 11.0745 1 10Z" fill="black"/>
</svg>
