<svg width="32" height="32" viewBox="0 0 32 32" fill="none" xmlns="http://www.w3.org/2000/svg">
<path d="M22.1003 12.7333L17.4729 21.3316C17.4211 21.4425 17.3562 21.5493 17.2779 21.65C16.7129 22.3767 15.6658 22.5077 14.9391 21.9427C14.2124 21.3777 14.0814 20.3306 14.6464 19.604C14.7089 19.5236 14.7772 19.4505 14.8504 19.3849L22.1003 12.7333Z" fill="black"/>
<path d="M7.66667 21.4993C7.66667 21.9596 7.29357 22.3327 6.83333 22.3327C6.3731 22.3327 6 21.9596 6 21.4993C6 21.0391 6.3731 20.666 6.83333 20.666C7.29357 20.666 7.66667 21.0391 7.66667 21.4993Z" fill="black"/>
<path d="M6.83333 15.6667C7.29357 15.6667 7.66667 15.2936 7.66667 14.8333C7.66667 14.3731 7.29357 14 6.83333 14C6.3731 14 6 14.3731 6 14.8333C6 15.2936 6.3731 15.6667 6.83333 15.6667Z" fill="black"/>
<path d="M12.6666 9.83333C12.6666 10.2936 12.2935 10.6667 11.8333 10.6667C11.3731 10.6667 11 10.2936 11 9.83333C11 9.3731 11.3731 9 11.8333 9C12.2935 9 12.6666 9.3731 12.6666 9.83333Z" fill="black"/>
<path d="M20.1666 10.6667C20.6269 10.6667 21 10.2936 21 9.83333C21 9.3731 20.6269 9 20.1666 9C19.7064 9 19.3333 9.3731 19.3333 9.83333C19.3333 10.2936 19.7064 10.6667 20.1666 10.6667Z" fill="black"/>
<path d="M26 14.8333C26 15.2936 25.6269 15.6667 25.1667 15.6667C24.7064 15.6667 24.3333 15.2936 24.3333 14.8333C24.3333 14.3731 24.7064 14 25.1667 14C25.6269 14 26 14.3731 26 14.8333Z" fill="black"/>
<path d="M25.1667 22.3327C25.6269 22.3327 26 21.9596 26 21.4993C26 21.0391 25.6269 20.666 25.1667 20.666C24.7064 20.666 24.3333 21.0391 24.3333 21.4993C24.3333 21.9596 24.7064 22.3327 25.1667 22.3327Z" fill="black"/>
<path fill-rule="evenodd" clip-rule="evenodd" d="M16 6C8.8203 6 3 11.8203 3 19C3 21.0516 3.47561 22.9935 4.32304 24.7203L4.46031 25H27.5397L27.677 24.7203C28.5244 22.9935 29 21.0516 29 19C29 11.8203 23.1797 6 16 6ZM4 19C4 12.3726 9.37258 7 16 7C22.6274 7 28 12.3726 28 19C28 20.7853 27.6104 22.4784 26.9121 24H5.08795C4.38957 22.4784 4 20.7853 4 19Z" fill="black"/>
</svg>
