<svg width="32" height="32" viewBox="0 0 32 32" fill="none" xmlns="http://www.w3.org/2000/svg">
<path opacity="0.9" fill-rule="evenodd" clip-rule="evenodd" d="M3 19C3 11.8203 8.8203 6 16 6C23.1797 6 29 11.8203 29 19C29 21.0516 28.5244 22.9935 27.677 24.7203L27.5397 25H4.46031L4.32304 24.7203C3.47561 22.9935 3 21.0516 3 19ZM22.1003 12.7333L17.4729 21.3316C17.4211 21.4425 17.3562 21.5493 17.2779 21.65C16.7129 22.3767 15.6658 22.5077 14.9391 21.9427C14.2124 21.3777 14.0814 20.3306 14.6464 19.604C14.7089 19.5236 14.7772 19.4505 14.8504 19.3849L22.1003 12.7333ZM7.66668 21.4993C7.66668 21.9596 7.29359 22.3327 6.83335 22.3327C6.37311 22.3327 6.00002 21.9596 6.00002 21.4993C6.00002 21.0391 6.37311 20.666 6.83335 20.666C7.29359 20.666 7.66668 21.0391 7.66668 21.4993ZM6.83335 15.6667C7.29359 15.6667 7.66668 15.2936 7.66668 14.8333C7.66668 14.3731 7.29359 14 6.83335 14C6.37311 14 6.00002 14.3731 6.00002 14.8333C6.00002 15.2936 6.37311 15.6667 6.83335 15.6667ZM12.6666 9.83333C12.6666 10.2936 12.2935 10.6667 11.8333 10.6667C11.3731 10.6667 11 10.2936 11 9.83333C11 9.3731 11.3731 9 11.8333 9C12.2935 9 12.6666 9.3731 12.6666 9.83333ZM20.1666 10.6667C20.6269 10.6667 21 10.2936 21 9.83333C21 9.3731 20.6269 9 20.1666 9C19.7064 9 19.3333 9.3731 19.3333 9.83333C19.3333 10.2936 19.7064 10.6667 20.1666 10.6667ZM26 14.8333C26 15.2936 25.6269 15.6667 25.1667 15.6667C24.7064 15.6667 24.3333 15.2936 24.3333 14.8333C24.3333 14.3731 24.7064 14 25.1667 14C25.6269 14 26 14.3731 26 14.8333ZM25.1667 22.3327C25.6269 22.3327 26 21.9596 26 21.4993C26 21.0391 25.6269 20.666 25.1667 20.666C24.7064 20.666 24.3333 21.0391 24.3333 21.4993C24.3333 21.9596 24.7064 22.3327 25.1667 22.3327Z" fill="black"/>
</svg>
