<svg width="32" height="32" viewBox="0 0 32 32" fill="none" xmlns="http://www.w3.org/2000/svg">
<g opacity="0.9">
<path fill-rule="evenodd" clip-rule="evenodd" d="M6 7C4.89543 7 4 7.89543 4 9V24C4 25.1046 4.89543 26 6 26H20C20 22.6863 22.6863 20 26 20C26.7013 20 27.3744 20.1203 28 20.3414V9C28 7.89543 27.1046 7 26 7H6ZM16.4755 11.4635C16.3259 11.0029 15.6741 11.0029 15.5245 11.4635L14.5407 14.4914C14.4737 14.6974 14.2817 14.8369 14.0651 14.8369H10.8814C10.3971 14.8369 10.1957 15.4567 10.5876 15.7414L13.1632 17.6127C13.3385 17.74 13.4118 17.9657 13.3448 18.1717L12.361 21.1996C12.2114 21.6602 12.7386 22.0433 13.1305 21.7586L15.7061 19.8873C15.8814 19.76 16.1186 19.76 16.2939 19.8873L18.8695 21.7586C19.2614 22.0433 19.7886 21.6602 19.639 21.1996L18.6552 18.1717C18.5882 17.9657 18.6615 17.74 18.8368 17.6127L21.4124 15.7414C21.8043 15.4567 21.6029 14.8369 21.1186 14.8369H17.9349C17.7183 14.8369 17.5263 14.6974 17.4593 14.4914L16.4755 11.4635Z" fill="black"/>
<path d="M25 29V27H23C22.4477 27 22 26.5523 22 26C22 25.4477 22.4477 25 23 25H25V23C25 22.4477 25.4477 22 26 22C26.5523 22 27 22.4477 27 23V25H29C29.5523 25 30 25.4477 30 26C30 26.5523 29.5523 27 29 27H27V29C27 29.5523 26.5523 30 26 30C25.4477 30 25 29.5523 25 29Z" fill="black"/>
</g>
</svg>
