<svg width="24" height="24" viewBox="0 0 24 24" fill="none" xmlns="http://www.w3.org/2000/svg">
<g opacity="0.9">
<path fill-rule="evenodd" clip-rule="evenodd" d="M2 6.5C2 5.11929 3.11929 4 4.5 4H19.5C20.8807 4 22 5.11929 22 6.5V14.5C22 14.7761 21.7761 15 21.5 15C21.2239 15 21 14.7761 21 14.5V6.5C21 5.67157 20.3284 5 19.5 5H4.5C3.67157 5 3 5.67157 3 6.5V17.5C3 18.3284 3.67157 19 4.5 19H14C14.2761 19 14.5 19.2239 14.5 19.5C14.5 19.7761 14.2761 20 14 20H4.5C3.11929 20 2 18.8807 2 17.5V6.5Z" fill="black"/>
<path fill-rule="evenodd" clip-rule="evenodd" d="M12 10.2361L11.9407 10.4184C11.7399 11.0365 11.164 11.4549 10.5142 11.4549H10.3224L10.4775 11.5676C11.0033 11.9496 11.2233 12.6266 11.0224 13.2447L10.9632 13.4271L11.1183 13.3143C11.6441 12.9324 12.3559 12.9324 12.8817 13.3143L13.0368 13.4271L12.9776 13.2447C12.7767 12.6266 12.9967 11.9496 13.5225 11.5676L13.6776 11.4549H13.4858C12.836 11.4549 12.2601 11.0365 12.0593 10.4184L12 10.2361ZM12.4755 8.46352C12.3259 8.00287 11.6741 8.00287 11.5245 8.46352L10.9897 10.1094C10.9227 10.3154 10.7308 10.4549 10.5142 10.4549H8.78356C8.2992 10.4549 8.09781 11.0747 8.48967 11.3594L9.88975 12.3766C10.065 12.504 10.1383 12.7297 10.0714 12.9357L9.5366 14.5816C9.38693 15.0422 9.91417 15.4253 10.306 15.1406L11.7061 14.1234C11.8814 13.996 12.1186 13.996 12.2939 14.1234L13.694 15.1406C14.0858 15.4253 14.6131 15.0422 14.4634 14.5816L13.9286 12.9357C13.8617 12.7297 13.935 12.504 14.1102 12.3766L15.5103 11.3594C15.9022 11.0747 15.7008 10.4549 15.2164 10.4549H13.4858C13.2692 10.4549 13.0772 10.3154 13.0103 10.1094L12.4755 8.46352Z" fill="black"/>
<path fill-rule="evenodd" clip-rule="evenodd" d="M19.5 17C19.7761 17 20 17.2239 20 17.5V21.5C20 21.7761 19.7761 22 19.5 22C19.2239 22 19 21.7761 19 21.5V17.5C19 17.2239 19.2239 17 19.5 17Z" fill="black"/>
<path fill-rule="evenodd" clip-rule="evenodd" d="M17 19.5C17 19.2239 17.2239 19 17.5 19H21.5C21.7761 19 22 19.2239 22 19.5C22 19.7761 21.7761 20 21.5 20H17.5C17.2239 20 17 19.7761 17 19.5Z" fill="black"/>
</g>
</svg>
