<svg width="16" height="16" viewBox="0 0 16 16" fill="none" xmlns="http://www.w3.org/2000/svg">
<g opacity="0.9">
<path d="M3.5 2C2.11929 2 1 3.11929 1 4.5V11.5C1 12.8807 2.11929 14 3.5 14H8C8.27614 14 8.5 13.7761 8.5 13.5C8.5 13.2239 8.27614 13 8 13H3.5C2.67157 13 2 12.3284 2 11.5V4.5C2 3.67157 2.67157 3 3.5 3H12.5C13.3284 3 14 3.67157 14 4.5V9C14 9.27614 14.2239 9.5 14.5 9.5C14.7761 9.5 15 9.27614 15 9V4.5C15 3.11929 13.8807 2 12.5 2H3.5Z" fill="black"/>
<path d="M8.47551 5.46353C8.32584 5.00288 7.67413 5.00288 7.52446 5.46353L7.21419 6.41845C7.14725 6.62446 6.95527 6.76394 6.73866 6.76394H5.7346C5.25024 6.76394 5.04885 7.38375 5.44071 7.66845L6.25301 8.25862C6.42825 8.38594 6.50158 8.61163 6.43464 8.81764L6.12437 9.77255C5.9747 10.2332 6.50194 10.6163 6.89379 10.3316L7.70609 9.7414C7.88134 9.61408 8.11863 9.61408 8.29388 9.7414L9.10618 10.3316C9.49803 10.6163 10.0253 10.2332 9.8756 9.77255L9.56533 8.81764C9.49839 8.61162 9.57172 8.38594 9.74696 8.25862L10.5593 7.66845C10.9511 7.38375 10.7497 6.76394 10.2654 6.76394H9.26131C9.0447 6.76394 8.85272 6.62446 8.78578 6.41845L8.47551 5.46353Z" fill="black"/>
<path d="M12.5 11C12.7761 11 13 11.2239 13 11.5V13H14.5C14.7761 13 15 13.2239 15 13.5C15 13.7761 14.7761 14 14.5 14H13V15.5C13 15.7761 12.7761 16 12.5 16C12.2239 16 12 15.7761 12 15.5V14H10.5C10.2239 14 10 13.7761 10 13.5C10 13.2239 10.2239 13 10.5 13H12V11.5C12 11.2239 12.2239 11 12.5 11Z" fill="black"/>
</g>
</svg>
