<svg width="24" height="24" viewBox="0 0 24 24" fill="none" xmlns="http://www.w3.org/2000/svg">
<g opacity="0.9">
<path fill-rule="evenodd" clip-rule="evenodd" d="M13 6.50005C13 6.26535 12.8368 6.06224 12.6075 6.01175C12.3783 5.96127 12.1449 6.077 12.0463 6.28999L9.54627 11.69C9.47459 11.8448 9.48681 12.0255 9.57868 12.1693C9.67055 12.313 9.82938 12.4 10 12.4H12V15.5C12 15.7348 12.1632 15.9379 12.3925 15.9883C12.6217 16.0388 12.8551 15.9231 12.9537 15.7101L15.4537 10.3101C15.5254 10.1553 15.5132 9.97459 15.4213 9.83082C15.3295 9.68705 15.1706 9.60005 15 9.60005H13V6.50005ZM12.5 11.4H10.7825L12 8.77018V10.1C12 10.3762 12.2239 10.6 12.5 10.6H14.2175L13 13.2299V11.9C13 11.6239 12.7761 11.4 12.5 11.4Z" fill="black"/>
<path fill-rule="evenodd" clip-rule="evenodd" d="M2 7C2 5.34315 3.34315 4 5 4H19C20.6569 4 22 5.34315 22 7V15.0592C22 16.716 20.6569 18.0592 19 18.0592H8.02567C7.82288 18.0592 7.62489 18.1208 7.45795 18.236L3.56773 20.9188C2.90435 21.3763 2 20.9014 2 20.0956V7ZM5 5H19C20.1046 5 21 5.89543 21 7V15.0592C21 16.1637 20.1046 17.0592 19 17.0592H8.02567C7.6201 17.0592 7.2241 17.1825 6.89022 17.4127L3 20.0956V7C3 5.89543 3.89543 5 5 5Z" fill="black"/>
</g>
</svg>
