<svg width="24" height="24" viewBox="0 0 24 24" fill="none" xmlns="http://www.w3.org/2000/svg">
<path opacity="0.9" d="M2.5 7C2.5 5.61929 3.61929 4.5 5 4.5H19C20.3807 4.5 21.5 5.61929 21.5 7V15.0592C21.5 16.4399 20.3807 17.5592 19 17.5592H8.02567C7.72149 17.5592 7.42449 17.6517 7.17408 17.8243L3.28386 20.5072C2.95217 20.736 2.5 20.4985 2.5 20.0956V7ZM10.9736 6.53064L8.74251 11.3648C8.49785 11.8948 8.88504 12.5 9.46887 12.5H11.5V15.1341C11.5 15.9919 12.6669 16.2482 13.0264 15.4694L15.2575 10.6352C15.5022 10.1052 15.115 9.5 14.5311 9.5H12.5V6.86589C12.5 6.00808 11.3331 5.75178 10.9736 6.53064Z" fill="black" stroke="black" stroke-linejoin="bevel"/>
</svg>
