<svg width="16" height="16" viewBox="0 0 16 16" fill="none" xmlns="http://www.w3.org/2000/svg">
<path opacity="0.9" fill-rule="evenodd" clip-rule="evenodd" d="M1 8C1 4.13401 4.13401 1 8 1C11.866 1 15 4.13401 15 8C15 11.866 11.866 15 8 15C4.13401 15 1 11.866 1 8ZM5.5 7C6.05228 7 6.5 6.55228 6.5 6C6.5 5.44772 6.05228 5 5.5 5C4.94772 5 4.5 5.44772 4.5 6C4.5 6.55228 4.94772 7 5.5 7ZM10.5 11C10.7761 11 11 10.7761 11 10.5C11 10.2239 10.7761 10 10.5 10H5.5C5.22386 10 5 10.2239 5 10.5C5 10.7761 5.22386 11 5.5 11H10.5ZM11.5 6C11.5 6.55228 11.0523 7 10.5 7C9.94772 7 9.5 6.55228 9.5 6C9.5 5.44772 9.94772 5 10.5 5C11.0523 5 11.5 5.44772 11.5 6Z" fill="black"/>
</svg>
