<svg width="32" height="32" viewBox="0 0 32 32" fill="none" xmlns="http://www.w3.org/2000/svg">
<path opacity="0.9" d="M11.5 4C11.7761 4 12 4.22386 12 4.5L12 9H20V4.5C20 4.22386 20.2239 4 20.5 4C20.7761 4 21 4.22386 21 4.5V9H22.5C23.3284 9 24 9.67157 24 10.5V14.5C24 18.1284 21.4234 21.1551 18 21.85V26.5C18 27.3284 17.3284 28 16.5 28H15.5C14.6716 28 14 27.3284 14 26.5L14 21.85C10.5766 21.1551 8 18.1284 8 14.5V10.5C8 9.67157 8.67157 9 9.5 9H11L11 4.5C11 4.22386 11.2239 4 11.5 4Z" fill="black"/>
</svg>
