<svg width="24" height="24" viewBox="0 0 24 24" fill="none" xmlns="http://www.w3.org/2000/svg">
<path opacity="0.9" fill-rule="evenodd" clip-rule="evenodd" d="M9 2.5C9 2.22386 8.77614 2 8.5 2C8.22386 2 8 2.22386 8 2.5L8 6H6.5C5.67157 6 5 6.67157 5 7.5V11.5C5 14.9216 7.64378 17.7257 11 17.9811L11 21C11 21.5523 11.4477 22 12 22C12.5523 22 13 21.5523 13 21V17.9811C16.3562 17.7257 19 14.9216 19 11.5V7.5C19 6.67157 18.3284 6 17.5 6H16V2.5C16 2.22386 15.7761 2 15.5 2C15.2239 2 15 2.22386 15 2.5V6H9L9 2.5ZM12.5 17C15.5376 17 18 14.5376 18 11.5V7.5C18 7.22386 17.7761 7 17.5 7H6.5C6.22386 7 6 7.22386 6 7.5V11.5C6 14.5376 8.46243 17 11.5 17H12.5Z" fill="black"/>
</svg>
