<svg width="32" height="32" viewBox="0 0 32 32" fill="none" xmlns="http://www.w3.org/2000/svg">
<g opacity="0.9">
<path d="M19.2349 6.78538C19.1327 5.95431 18.7639 5.28988 18.2322 4.8172C17.6112 4.26525 16.7974 4 16 4C15.2025 4 14.3888 4.26525 13.7678 4.8172C13.236 5.28987 12.8672 5.9543 12.765 6.78538C11.8374 6.87028 10.7507 7.21585 9.8428 8.03287C8.76289 9.00471 8 10.5858 8 13V20.2573C8 20.4737 7.92073 20.7087 7.75693 20.9861C7.59111 21.267 7.36569 21.5484 7.1099 21.8674L7.10866 21.869C6.86346 22.1748 6.58931 22.5167 6.38001 22.8775C6.16822 23.2426 6 23.6641 6 24.1366V24.5C6 24.7761 6.22386 25 6.5 25H25.5C25.7761 25 26 24.7761 26 24.5V24.1366C26 23.664 25.8318 23.2426 25.62 22.8775C25.4107 22.5167 25.1365 22.1748 24.8913 21.8689L24.8901 21.8674C24.6343 21.5484 24.4089 21.267 24.2431 20.9861C24.0793 20.7087 24 20.4737 24 20.2573V13C24 10.5858 23.2371 9.00471 22.1572 8.03287C21.2493 7.21585 20.1626 6.87028 19.2349 6.78538Z" fill="black"/>
<path d="M16 28C14.6038 28 13.3985 27.1825 12.8368 26H19.1632C18.6015 27.1825 17.3962 28 16 28Z" fill="black"/>
</g>
</svg>
