<svg width="32" height="32" viewBox="0 0 32 32" fill="none" xmlns="http://www.w3.org/2000/svg">
<g opacity="0.9">
<path d="M4 6C4 4.89543 4.89543 4 6 4H8C9.10457 4 10 4.89543 10 6V8C10 9.10457 9.10457 10 8 10H6C4.89543 10 4 9.10457 4 8V6Z" fill="black"/>
<path d="M4 15C4 13.8954 4.89543 13 6 13H8C9.10457 13 10 13.8954 10 15V17C10 18.1046 9.10457 19 8 19H6C4.89543 19 4 18.1046 4 17V15Z" fill="black"/>
<path d="M4 24C4 22.8954 4.89543 22 6 22H8C9.10457 22 10 22.8954 10 24V26C10 27.1046 9.10457 28 8 28H6C4.89543 28 4 27.1046 4 26V24Z" fill="black"/>
<path d="M13 6C13 4.89543 13.8954 4 15 4H17C18.1046 4 19 4.89543 19 6V8C19 9.10457 18.1046 10 17 10H15C13.8954 10 13 9.10457 13 8V6Z" fill="black"/>
<path d="M13 15C13 13.8954 13.8954 13 15 13H17C18.1046 13 19 13.8954 19 15V17C19 18.1046 18.1046 19 17 19H15C13.8954 19 13 18.1046 13 17V15Z" fill="black"/>
<path d="M13 24C13 22.8954 13.8954 22 15 22H17C18.1046 22 19 22.8954 19 24V26C19 27.1046 18.1046 28 17 28H15C13.8954 28 13 27.1046 13 26V24Z" fill="black"/>
<path d="M22 6C22 4.89543 22.8954 4 24 4H26C27.1046 4 28 4.89543 28 6V8C28 9.10457 27.1046 10 26 10H24C22.8954 10 22 9.10457 22 8V6Z" fill="black"/>
<path d="M22 15C22 13.8954 22.8954 13 24 13H26C27.1046 13 28 13.8954 28 15V17C28 18.1046 27.1046 19 26 19H24C22.8954 19 22 18.1046 22 17V15Z" fill="black"/>
<path d="M22 24C22 22.8954 22.8954 22 24 22H26C27.1046 22 28 22.8954 28 24V26C28 27.1046 27.1046 28 26 28H24C22.8954 28 22 27.1046 22 26V24Z" fill="black"/>
</g>
</svg>
