<svg width="32" height="32" viewBox="0 0 32 32" fill="none" xmlns="http://www.w3.org/2000/svg">
<g opacity="0.9">
<path fill-rule="evenodd" clip-rule="evenodd" d="M8 5H6C5.44772 5 5 5.44772 5 6V8C5 8.55228 5.44772 9 6 9H8C8.55228 9 9 8.55228 9 8V6C9 5.44772 8.55228 5 8 5ZM6 4C4.89543 4 4 4.89543 4 6V8C4 9.10457 4.89543 10 6 10H8C9.10457 10 10 9.10457 10 8V6C10 4.89543 9.10457 4 8 4H6Z" fill="black"/>
<path fill-rule="evenodd" clip-rule="evenodd" d="M8 14H6C5.44772 14 5 14.4477 5 15V17C5 17.5523 5.44772 18 6 18H8C8.55228 18 9 17.5523 9 17V15C9 14.4477 8.55228 14 8 14ZM6 13C4.89543 13 4 13.8954 4 15V17C4 18.1046 4.89543 19 6 19H8C9.10457 19 10 18.1046 10 17V15C10 13.8954 9.10457 13 8 13H6Z" fill="black"/>
<path fill-rule="evenodd" clip-rule="evenodd" d="M8 23H6C5.44772 23 5 23.4477 5 24V26C5 26.5523 5.44772 27 6 27H8C8.55228 27 9 26.5523 9 26V24C9 23.4477 8.55228 23 8 23ZM6 22C4.89543 22 4 22.8954 4 24V26C4 27.1046 4.89543 28 6 28H8C9.10457 28 10 27.1046 10 26V24C10 22.8954 9.10457 22 8 22H6Z" fill="black"/>
<path fill-rule="evenodd" clip-rule="evenodd" d="M17 5H15C14.4477 5 14 5.44772 14 6V8C14 8.55228 14.4477 9 15 9H17C17.5523 9 18 8.55228 18 8V6C18 5.44772 17.5523 5 17 5ZM15 4C13.8954 4 13 4.89543 13 6V8C13 9.10457 13.8954 10 15 10H17C18.1046 10 19 9.10457 19 8V6C19 4.89543 18.1046 4 17 4H15Z" fill="black"/>
<path fill-rule="evenodd" clip-rule="evenodd" d="M17 14H15C14.4477 14 14 14.4477 14 15V17C14 17.5523 14.4477 18 15 18H17C17.5523 18 18 17.5523 18 17V15C18 14.4477 17.5523 14 17 14ZM15 13C13.8954 13 13 13.8954 13 15V17C13 18.1046 13.8954 19 15 19H17C18.1046 19 19 18.1046 19 17V15C19 13.8954 18.1046 13 17 13H15Z" fill="black"/>
<path fill-rule="evenodd" clip-rule="evenodd" d="M17 23H15C14.4477 23 14 23.4477 14 24V26C14 26.5523 14.4477 27 15 27H17C17.5523 27 18 26.5523 18 26V24C18 23.4477 17.5523 23 17 23ZM15 22C13.8954 22 13 22.8954 13 24V26C13 27.1046 13.8954 28 15 28H17C18.1046 28 19 27.1046 19 26V24C19 22.8954 18.1046 22 17 22H15Z" fill="black"/>
<path fill-rule="evenodd" clip-rule="evenodd" d="M26 5H24C23.4477 5 23 5.44772 23 6V8C23 8.55228 23.4477 9 24 9H26C26.5523 9 27 8.55228 27 8V6C27 5.44772 26.5523 5 26 5ZM24 4C22.8954 4 22 4.89543 22 6V8C22 9.10457 22.8954 10 24 10H26C27.1046 10 28 9.10457 28 8V6C28 4.89543 27.1046 4 26 4H24Z" fill="black"/>
<path fill-rule="evenodd" clip-rule="evenodd" d="M26 14H24C23.4477 14 23 14.4477 23 15V17C23 17.5523 23.4477 18 24 18H26C26.5523 18 27 17.5523 27 17V15C27 14.4477 26.5523 14 26 14ZM24 13C22.8954 13 22 13.8954 22 15V17C22 18.1046 22.8954 19 24 19H26C27.1046 19 28 18.1046 28 17V15C28 13.8954 27.1046 13 26 13H24Z" fill="black"/>
<path fill-rule="evenodd" clip-rule="evenodd" d="M26 23H24C23.4477 23 23 23.4477 23 24V26C23 26.5523 23.4477 27 24 27H26C26.5523 27 27 26.5523 27 26V24C27 23.4477 26.5523 23 26 23ZM24 22C22.8954 22 22 22.8954 22 24V26C22 27.1046 22.8954 28 24 28H26C27.1046 28 28 27.1046 28 26V24C28 22.8954 27.1046 22 26 22H24Z" fill="black"/>
</g>
</svg>
