<svg width="16" height="16" viewBox="0 0 16 16" fill="none" xmlns="http://www.w3.org/2000/svg">
<g opacity="0.9">
<path fill-rule="evenodd" clip-rule="evenodd" d="M3 2H2L2 3H3V2ZM2 1C1.44772 1 1 1.44772 1 2V3C1 3.55228 1.44772 4 2 4H3C3.55228 4 4 3.55228 4 3V2C4 1.44772 3.55228 1 3 1H2Z" fill="black"/>
<path fill-rule="evenodd" clip-rule="evenodd" d="M3 7H2L2 8H3V7ZM2 6C1.44772 6 1 6.44772 1 7V8C1 8.55228 1.44772 9 2 9H3C3.55228 9 4 8.55228 4 8V7C4 6.44772 3.55228 6 3 6H2Z" fill="black"/>
<path fill-rule="evenodd" clip-rule="evenodd" d="M3 12H2L2 13H3V12ZM2 11C1.44772 11 1 11.4477 1 12V13C1 13.5523 1.44772 14 2 14H3C3.55228 14 4 13.5523 4 13V12C4 11.4477 3.55228 11 3 11H2Z" fill="black"/>
<path fill-rule="evenodd" clip-rule="evenodd" d="M8 2H7V3H8V2ZM7 1C6.44772 1 6 1.44772 6 2V3C6 3.55228 6.44772 4 7 4H8C8.55228 4 9 3.55228 9 3V2C9 1.44772 8.55228 1 8 1H7Z" fill="black"/>
<path fill-rule="evenodd" clip-rule="evenodd" d="M8 7H7V8H8V7ZM7 6C6.44772 6 6 6.44772 6 7V8C6 8.55228 6.44772 9 7 9H8C8.55228 9 9 8.55228 9 8V7C9 6.44772 8.55228 6 8 6H7Z" fill="black"/>
<path fill-rule="evenodd" clip-rule="evenodd" d="M8 12H7V13H8V12ZM7 11C6.44772 11 6 11.4477 6 12V13C6 13.5523 6.44772 14 7 14H8C8.55228 14 9 13.5523 9 13V12C9 11.4477 8.55228 11 8 11H7Z" fill="black"/>
<path fill-rule="evenodd" clip-rule="evenodd" d="M13 2H12V3H13V2ZM12 1C11.4477 1 11 1.44772 11 2V3C11 3.55228 11.4477 4 12 4H13C13.5523 4 14 3.55228 14 3V2C14 1.44772 13.5523 1 13 1H12Z" fill="black"/>
<path fill-rule="evenodd" clip-rule="evenodd" d="M13 7H12V8H13V7ZM12 6C11.4477 6 11 6.44772 11 7V8C11 8.55228 11.4477 9 12 9H13C13.5523 9 14 8.55228 14 8V7C14 6.44772 13.5523 6 13 6H12Z" fill="black"/>
<path fill-rule="evenodd" clip-rule="evenodd" d="M13 12H12V13H13V12ZM12 11C11.4477 11 11 11.4477 11 12V13C11 13.5523 11.4477 14 12 14H13C13.5523 14 14 13.5523 14 13V12C14 11.4477 13.5523 11 13 11H12Z" fill="black"/>
</g>
</svg>
