<svg width="32" height="32" viewBox="0 0 32 32" fill="none" xmlns="http://www.w3.org/2000/svg">
<g opacity="0.9">
<path fill-rule="evenodd" clip-rule="evenodd" d="M6.5 7C5.11929 7 4 8.11929 4 9.5V22.5C4 23.8807 5.11929 25 6.5 25H25.5C26.8807 25 28 23.8807 28 22.5V9.5C28 8.11929 26.8807 7 25.5 7H6.5ZM17 9C16.4477 9 16 9.44772 16 10V16C16 16.5523 16.4477 17 17 17H25C25.5523 17 26 16.5523 26 16V10C26 9.44772 25.5523 9 25 9H17Z" fill="black"/>
<path d="M11 27C10.7239 27 10.5 27.2239 10.5 27.5C10.5 27.7761 10.7239 28 11 28H21C21.2761 28 21.5 27.7761 21.5 27.5C21.5 27.2239 21.2761 27 21 27H11Z" fill="black"/>
</g>
</svg>
