<svg width="32" height="32" viewBox="0 0 32 32" fill="none" xmlns="http://www.w3.org/2000/svg">
<g opacity="0.9">
<path fill-rule="evenodd" clip-rule="evenodd" d="M10.5 27.5C10.5 27.2239 10.7239 27 11 27H21C21.2761 27 21.5 27.2239 21.5 27.5C21.5 27.7761 21.2761 28 21 28H11C10.7239 28 10.5 27.7761 10.5 27.5Z" fill="black"/>
<path fill-rule="evenodd" clip-rule="evenodd" d="M4 9.5C4 8.11929 5.11929 7 6.5 7H25.5C26.8807 7 28 8.11929 28 9.5V22.5C28 23.8807 26.8807 25 25.5 25H6.5C5.11929 25 4 23.8807 4 22.5V9.5ZM6.5 8C5.67157 8 5 8.67157 5 9.5V22.5C5 23.3284 5.67157 24 6.5 24H25.5C26.3284 24 27 23.3284 27 22.5V9.5C27 8.67157 26.3284 8 25.5 8H6.5Z" fill="black"/>
<path fill-rule="evenodd" clip-rule="evenodd" d="M16 10C16 9.44772 16.4477 9 17 9H25C25.5523 9 26 9.44772 26 10V16C26 16.5523 25.5523 17 25 17H17C16.4477 17 16 16.5523 16 16V10ZM25 10L17 10V16H25V10Z" fill="black"/>
</g>
</svg>
