<svg width="16" height="16" viewBox="0 0 16 16" fill="none" xmlns="http://www.w3.org/2000/svg">
<g opacity="0.9">
<path fill-rule="evenodd" clip-rule="evenodd" d="M5 15.5C5 15.2239 5.22386 15 5.5 15H10.5C10.7761 15 11 15.2239 11 15.5C11 15.7761 10.7761 16 10.5 16H5.5C5.22386 16 5 15.7761 5 15.5Z" fill="black"/>
<path fill-rule="evenodd" clip-rule="evenodd" d="M0 4.5C0 3.11929 1.11929 2 2.5 2H13.5C14.8807 2 16 3.11929 16 4.5V11.5C16 12.8807 14.8807 14 13.5 14H2.5C1.11929 14 0 12.8807 0 11.5V4.5ZM2.5 3C1.67157 3 1 3.67157 1 4.5V11.5C1 12.3284 1.67157 13 2.5 13H13.5C14.3284 13 15 12.3284 15 11.5V4.5C15 3.67157 14.3284 3 13.5 3H2.5Z" fill="black"/>
<path fill-rule="evenodd" clip-rule="evenodd" d="M8 5C8 4.44772 8.44772 4 9 4H13C13.5523 4 14 4.44772 14 5V8C14 8.55228 13.5523 9 13 9H9C8.44772 9 8 8.55228 8 8V5ZM13 5H9V8H13V5Z" fill="black"/>
</g>
</svg>
