<svg width="16" height="16" viewBox="0 0 16 16" fill="none" xmlns="http://www.w3.org/2000/svg">
<path opacity="0.9" d="M2.31816 13.6318C2.29054 13.6039 2.26312 13.5758 2.23589 13.5475C0.851336 12.1093 5.11069e-07 10.1541 6.99382e-07 8L1.5 8.00001C1.5 11.5899 4.41014 14.5 7.99999 14.5C11.5898 14.5 14.5 11.5899 14.5 8.00001C14.5 4.41016 11.5898 1.50001 7.99999 1.50001L7.99999 1.36057e-05C10.1347 1.37924e-05 12.0742 0.836157 13.5087 2.19881C13.6104 2.2953 13.7095 2.39455 13.8061 2.49646C15.1659 3.93048 16 5.86783 16 8C16 10.1418 15.1583 12.087 13.7877 13.5229C13.7032 13.6115 13.6167 13.698 13.5284 13.7825C12.0919 15.1562 10.1445 16 7.99999 16C5.84865 16 3.89565 15.1508 2.4579 13.7693C2.42526 13.738 2.39288 13.7063 2.36076 13.6744C2.34651 13.6603 2.33231 13.646 2.31816 13.6318Z" fill="black"/>
</svg>
