<svg width="32" height="32" viewBox="0 0 32 32" fill="none" xmlns="http://www.w3.org/2000/svg">
<path opacity="0.9" fill-rule="evenodd" clip-rule="evenodd" d="M16 4C22.6274 4 28 9.37258 28 16C28 22.6274 22.6274 28 16 28C9.37258 28 4 22.6274 4 16C4 9.37258 9.37259 4 16 4ZM15.1757 9.26285C14.7686 8.88966 14.136 8.91716 13.7628 9.32428L8.26285 15.3243C7.91239 15.7066 7.91239 16.2934 8.26285 16.6757L13.7628 22.6757C14.136 23.0828 14.7686 23.1104 15.1757 22.7372C15.5828 22.364 15.6104 21.7314 15.2372 21.3243L10.3566 16L15.2372 10.6757C15.6104 10.2686 15.5828 9.63604 15.1757 9.26285ZM20.7628 9.32428C21.136 8.91716 21.7686 8.88966 22.1757 9.26285C22.5828 9.63604 22.6103 10.2686 22.2372 10.6757L17.3566 16L22.2372 21.3243C22.6103 21.7314 22.5828 22.364 22.1757 22.7372C21.7686 23.1104 21.136 23.0828 20.7628 22.6757L15.2628 16.6757C14.9124 16.2934 14.9124 15.7066 15.2628 15.3243L20.7628 9.32428Z" fill="black"/>
</svg>
