<svg width="24" height="24" viewBox="0 0 24 24" fill="none" xmlns="http://www.w3.org/2000/svg">
<g opacity="0.9">
<path fill-rule="evenodd" clip-rule="evenodd" d="M11.8322 16.8737C11.6258 17.0572 11.3098 17.0386 11.1263 16.8322L7.1263 12.3322C6.9579 12.1427 6.9579 11.8573 7.1263 11.6678L11.1263 7.16782C11.3098 6.96143 11.6258 6.94284 11.8322 7.12629C12.0386 7.30975 12.0572 7.62579 11.8737 7.83218L8.16898 12L11.8737 16.1678C12.0572 16.3742 12.0386 16.6902 11.8322 16.8737Z" fill="black"/>
<path fill-rule="evenodd" clip-rule="evenodd" d="M15.8322 16.8737C15.6258 17.0572 15.3098 17.0386 15.1263 16.8322L11.1263 12.3322C10.9579 12.1427 10.9579 11.8573 11.1263 11.6678L15.1263 7.16782C15.3098 6.96143 15.6258 6.94284 15.8322 7.1263C16.0386 7.30975 16.0572 7.62579 15.8737 7.83218L12.169 12L15.8737 16.1678C16.0572 16.3742 16.0386 16.6902 15.8322 16.8737Z" fill="black"/>
<path fill-rule="evenodd" clip-rule="evenodd" d="M12 21C16.9706 21 21 16.9706 21 12C21 7.02944 16.9706 3 12 3C7.02944 3 3 7.02944 3 12C3 16.9706 7.02944 21 12 21ZM22 12C22 17.5228 17.5228 22 12 22C6.47715 22 2 17.5228 2 12C2 6.47715 6.47715 2 12 2C17.5228 2 22 6.47715 22 12Z" fill="black"/>
</g>
</svg>
