<svg width="32" height="32" viewBox="0 0 32 32" fill="none" xmlns="http://www.w3.org/2000/svg">
<g opacity="0.9">
<path fill-rule="evenodd" clip-rule="evenodd" d="M19 17C18.4477 17 18 17.4477 18 18V21C18 21.5523 18.4477 22 19 22H22C22.5523 22 23 21.5523 23 21V18C23 17.4477 22.5523 17 22 17H19ZM19 18H22V21H19V18Z" fill="black"/>
<path fill-rule="evenodd" clip-rule="evenodd" d="M16.9773 3.12665C16.3974 2.67565 15.5763 2.71094 15.0372 3.21003L2.16032 15.1331C2.00936 15.2729 1.95942 15.4909 2.03449 15.6824C2.10955 15.874 2.29428 16 2.50002 16H6.00002V26.5C6.00002 27.3284 6.67159 28 7.50002 28H9.50002C9.77616 28 10 27.7761 10 27.5V17.5C10 17.2239 10.2239 17 10.5 17H14.5C14.7762 17 15 17.2239 15 17.5V27.5C15 27.7761 15.2239 28 15.5 28H24.5C25.3284 28 26 27.3284 26 26.5V16H29.5C29.7022 16 29.8846 15.8782 29.962 15.6913C30.0393 15.5045 29.9966 15.2894 29.8536 15.1464L26.1465 11.4393C26.0527 11.3456 26 11.2184 26 11.0858V4.5C26 4.22385 25.7762 4 25.5 4H20.5C20.2239 4 20 4.22385 20 4.5V5.47768L16.9773 3.12665ZM15.7167 3.94379C15.8963 3.77743 16.17 3.76567 16.3633 3.916L20.193 6.89467C20.3438 7.01191 20.5481 7.03305 20.7197 6.94915C20.8912 6.86525 21 6.69096 21 6.5V5H25V11.0858C25 11.4836 25.1581 11.8651 25.4394 12.1464L28.2929 15H25.5C25.2239 15 25 15.2239 25 15.5V26.5C25 26.7761 24.7762 27 24.5 27H16V17.5C16 16.6716 15.3284 16 14.5 16H10.5C9.67159 16 9.00002 16.6716 9.00002 17.5V27H7.50002C7.22388 27 7.00002 26.7761 7.00002 26.5V15.5C7.00002 15.2239 6.77616 15 6.50002 15H3.77595L15.7167 3.94379Z" fill="black"/>
</g>
</svg>
