<svg width="32" height="32" viewBox="0 0 32 32" fill="none" xmlns="http://www.w3.org/2000/svg">
<path opacity="0.9" fill-rule="evenodd" clip-rule="evenodd" d="M16.9773 3.12665L20 5.47768V4.5C20 4.22385 20.2239 4 20.5 4H25.5C25.7762 4 26 4.22385 26 4.5V11.0858C26 11.2184 26.0527 11.3456 26.1465 11.4393L29.8536 15.1464C29.9966 15.2894 30.0393 15.5045 29.962 15.6913C29.8846 15.8782 29.7022 16 29.5 16H26V26.5C26 27.3284 25.3284 28 24.5 28H15.5C15.2239 28 15 27.7761 15 27.5V17.5C15 17.2239 14.7762 17 14.5 17H10.5C10.2239 17 10 17.2239 10 17.5V27.5C10 27.7761 9.77616 28 9.50002 28H7.50002C6.67159 28 6.00002 27.3284 6.00002 26.5V16H2.50002C2.29428 16 2.10955 15.874 2.03449 15.6824C1.95942 15.4909 2.00936 15.2729 2.16032 15.1331L15.0372 3.21003C15.5763 2.71094 16.3974 2.67565 16.9773 3.12665ZM18 18C18 17.4477 18.4477 17 19 17H22C22.5523 17 23 17.4477 23 18V21C23 21.5523 22.5523 22 22 22H19C18.4477 22 18 21.5523 18 21V18Z" fill="black"/>
</svg>
