<svg width="32" height="32" viewBox="0 0 32 32" fill="none" xmlns="http://www.w3.org/2000/svg">
<g opacity="0.9">
<path d="M16 6C16.2761 6 16.5 5.77614 16.5 5.5C16.5 5.22386 16.2761 5 16 5C15.7239 5 15.5 5.22386 15.5 5.5C15.5 5.77614 15.7239 6 16 6Z" fill="black"/>
<path fill-rule="evenodd" clip-rule="evenodd" d="M13.9999 4C14.4554 3.39351 15.1815 3 16 3C16.8185 3 17.5446 3.39351 18.0001 4H19C20.1046 4 21 4.89543 21 6C21 7.10457 20.1046 8 19 8H13C11.8954 8 11 7.10457 11 6C11 4.89543 11.8954 4 13 4H13.9999ZM16 4C15.4454 4 14.9605 4.30071 14.7004 4.75036L14.556 5H13C12.4477 5 12 5.44772 12 6C12 6.55228 12.4477 7 13 7H19C19.5523 7 20 6.55228 20 6C20 5.44772 19.5523 5 19 5H17.444L17.2996 4.75036C17.0395 4.30071 16.5546 4 16 4Z" fill="black"/>
<path d="M10.1707 5C10.0602 5.31278 10 5.64936 10 6C10 7.65685 11.3431 9 13 9H19C20.6569 9 22 7.65685 22 6C22 5.64936 21.9398 5.31278 21.8293 5H23.5C24.8807 5 26 6.11929 26 7.5V26.5C26 27.8807 24.8807 29 23.5 29H8.5C7.11929 29 6 27.8807 6 26.5V7.5C6 6.11929 7.11929 5 8.5 5H10.1707Z" fill="black"/>
</g>
</svg>
