<svg width="16" height="16" viewBox="0 0 16 16" fill="none" xmlns="http://www.w3.org/2000/svg">
<path opacity="0.9" fill-rule="evenodd" clip-rule="evenodd" d="M14.416 1.7227C14.2628 1.49294 13.9524 1.43085 13.7226 1.58403C13.4929 1.7372 13.4308 2.04764 13.584 2.2774C14.5095 3.66575 15 5.80604 15 8.00005C15 10.1941 14.5095 12.3344 13.584 13.7227C13.4308 13.9525 13.4929 14.2629 13.7226 14.4161C13.9524 14.5693 14.2628 14.5072 14.416 14.2774C15.4905 12.6658 16 10.306 16 8.00005C16 5.69407 15.4905 3.33435 14.416 1.7227ZM8.71208 2.54721C8.88777 2.6295 9 2.806 9 3.00001V13C9 13.194 8.88777 13.3705 8.71208 13.4528C8.53639 13.5351 8.32895 13.5083 8.17991 13.3841L5.31898 11H3.5C2.67157 11 2 10.3284 2 9.50001V6.50001C2 5.67158 2.67157 5.00001 3.5 5.00001H5.31897L8.17991 2.6159C8.32895 2.49169 8.53639 2.46492 8.71208 2.54721ZM10.916 5.2227C10.7628 4.99294 10.4524 4.93085 10.2226 5.08403C9.99288 5.2372 9.93079 5.54764 10.084 5.7774C10.972 7.10945 10.972 8.89065 10.084 10.2227C9.93079 10.4525 9.99288 10.7629 10.2226 10.9161C10.4524 11.0693 10.7628 11.0072 10.916 10.7774C12.028 9.10945 12.028 6.89065 10.916 5.2227ZM11.6987 3.10104C11.919 2.93461 12.2326 2.97833 12.399 3.19868C13.373 4.48832 13.8514 6.23989 13.8567 7.96952C13.8621 9.69979 13.3944 11.4709 12.4003 12.7996C12.2349 13.0207 11.9216 13.0658 11.7005 12.9004C11.4794 12.735 11.4342 12.4216 11.5996 12.2005C12.435 11.0839 12.8616 9.53906 12.8567 7.97263C12.8519 6.40557 12.4155 4.87973 11.601 3.80137C11.4346 3.58102 11.4783 3.26747 11.6987 3.10104Z" fill="black"/>
</svg>
