<svg width="16" height="17" viewBox="0 0 16 17" fill="none" xmlns="http://www.w3.org/2000/svg">
<g opacity="0.9">
<path d="M1.5 1.71704C1.36739 1.71704 1.24021 1.76972 1.14645 1.86349C1.05268 1.95726 1 2.08443 1 2.21704V5.21704C1 5.49318 1.22386 5.71704 1.5 5.71704C1.77614 5.71704 2 5.49318 2 5.21704L2 3.42415L6.14645 7.57059C6.34171 7.76586 6.65829 7.76586 6.85355 7.57059C7.04882 7.37533 7.04882 7.05875 6.85355 6.86349L2.70711 2.71704L4.5 2.71704C4.77614 2.71704 5 2.49318 5 2.21704C5 1.9409 4.77614 1.71704 4.5 1.71704H1.5Z" fill="black"/>
<path d="M14.5 15.717C14.6326 15.717 14.7598 15.6644 14.8536 15.5706C14.9473 15.4768 15 15.3496 15 15.217V12.217C15 11.9409 14.7761 11.717 14.5 11.717C14.2239 11.717 14 11.9409 14 12.217V14.0099L9.85355 9.86349C9.65829 9.66823 9.34171 9.66823 9.14645 9.86349C8.95118 10.0588 8.95118 10.3753 9.14645 10.5706L13.2929 14.717H11.5C11.2239 14.717 11 14.9409 11 15.217C11 15.4932 11.2239 15.717 11.5 15.717H14.5Z" fill="black"/>
</g>
</svg>
