<svg width="32" height="33" viewBox="0 0 32 33" fill="none" xmlns="http://www.w3.org/2000/svg">
<g opacity="0.9">
<path fill-rule="evenodd" clip-rule="evenodd" d="M4 5.71704C4 5.16476 4.44772 4.71704 5 4.71704H12C12.5523 4.71704 13 5.16476 13 5.71704C13 6.26933 12.5523 6.71704 12 6.71704H7.41421L13.7071 13.0099C14.0976 13.4005 14.0976 14.0336 13.7071 14.4241C13.3166 14.8147 12.6834 14.8147 12.2929 14.4241L6 8.13125L6 12.717C6 13.2693 5.55228 13.717 5 13.717C4.44772 13.717 4 13.2693 4 12.717L4 5.71704Z" fill="black"/>
<path fill-rule="evenodd" clip-rule="evenodd" d="M28 27.717C28 28.2693 27.5523 28.717 27 28.717H20C19.4477 28.717 19 28.2693 19 27.717C19 27.1648 19.4477 26.717 20 26.717H24.5858L18.2929 20.4241C17.9024 20.0336 17.9024 19.4005 18.2929 19.0099C18.6834 18.6194 19.3166 18.6194 19.7071 19.0099L26 25.3028V20.717C26 20.1648 26.4477 19.717 27 19.717C27.5523 19.717 28 20.1648 28 20.717V27.717Z" fill="black"/>
</g>
</svg>
