<svg width="32" height="33" viewBox="0 0 32 33" fill="none" xmlns="http://www.w3.org/2000/svg">
<g opacity="0.9">
<path d="M4.5 4.71704C4.22386 4.71704 4 4.9409 4 5.21704V12.217C4 12.4932 4.22386 12.717 4.5 12.717C4.77614 12.717 5 12.4932 5 12.217L5 6.42415L13.1464 14.5706C13.3417 14.7659 13.6583 14.7659 13.8536 14.5706C14.0488 14.3753 14.0488 14.0588 13.8536 13.8635L5.70711 5.71704H11.5C11.7761 5.71704 12 5.49318 12 5.21704C12 4.9409 11.7761 4.71704 11.5 4.71704H4.5Z" fill="black"/>
<path d="M27.5 28.717C27.7761 28.717 28 28.4932 28 28.217V21.217C28 20.9409 27.7761 20.717 27.5 20.717C27.2239 20.717 27 20.9409 27 21.217V27.0099L18.8536 18.8635C18.6583 18.6682 18.3417 18.6682 18.1464 18.8635C17.9512 19.0588 17.9512 19.3753 18.1464 19.5706L26.2929 27.717H20.5C20.2239 27.717 20 27.9409 20 28.217C20 28.4932 20.2239 28.717 20.5 28.717H27.5Z" fill="black"/>
</g>
</svg>
