<svg width="24" height="25" viewBox="0 0 24 25" fill="none" xmlns="http://www.w3.org/2000/svg">
<g opacity="0.9">
<path d="M3 8.21704L3 4.42415L9.14645 10.5706C9.34171 10.7659 9.65829 10.7659 9.85355 10.5706C10.0488 10.3753 10.0488 10.0588 9.85355 9.86349L3.70711 3.71704L7.5 3.71704C7.77614 3.71704 8 3.49318 8 3.21704C8 2.9409 7.77614 2.71704 7.5 2.71704H2.5C2.22386 2.71704 2 2.9409 2 3.21704V8.21704C2 8.49318 2.22386 8.71704 2.5 8.71704C2.77614 8.71704 3 8.49318 3 8.21704Z" fill="black"/>
<path d="M21 17.217V21.0099L14.8536 14.8635C14.6583 14.6682 14.3417 14.6682 14.1464 14.8635C13.9512 15.0587 13.9512 15.3753 14.1464 15.5706L20.2929 21.717H16.5C16.2239 21.717 16 21.9409 16 22.217C16 22.4932 16.2239 22.717 16.5 22.717H21.5C21.7761 22.717 22 22.4932 22 22.217V17.217C22 16.9409 21.7761 16.717 21.5 16.717C21.2239 16.717 21 16.9409 21 17.217Z" fill="black"/>
</g>
</svg>
