<svg width="32" height="32" viewBox="0 0 32 32" fill="none" xmlns="http://www.w3.org/2000/svg">
<g opacity="0.9">
<path d="M5.00508 6.45423C4.93736 5.6749 5.5791 5 6.42034 5L9.99813 5C10.655 5 11.2354 5.42737 11.4305 6.05461L12.5424 9.63039C12.7137 10.1813 12.5539 10.7815 12.1314 11.1744C11.4358 11.8211 11.2188 12.8761 11.72 13.7324C12.035 14.2706 12.3773 14.7922 12.7455 15.2953C12.9086 15.5181 13.2215 15.5666 13.4443 15.4035C13.6671 15.2404 13.7155 14.9275 13.5524 14.7047C13.2044 14.2291 12.8808 13.736 12.5831 13.2273C12.3396 12.8113 12.4282 12.2638 12.8123 11.9067C13.5164 11.2521 13.7828 10.2516 13.4973 9.33347L12.3854 5.75768C12.0603 4.71229 11.0929 4 9.99813 4L6.42034 4C5.05244 4 3.88531 5.11928 4.00884 6.5408C4.21707 8.93715 4.79122 11.2916 5.71479 13.5213C6.55517 15.5502 7.67319 17.4476 9.03346 19.1604C9.20519 19.3767 9.51971 19.4128 9.73596 19.241C9.9522 19.0693 9.98829 18.7548 9.81656 18.5385C8.514 16.8983 7.4434 15.0814 6.63867 13.1386C5.75428 11.0035 5.20448 8.74893 5.00508 6.45423Z" fill="black"/>
<path d="M17.2952 18.4459C17.0723 18.2829 16.7594 18.3314 16.5964 18.5543C16.4334 18.7772 16.482 19.0901 16.7049 19.2531C17.1746 19.5966 17.6605 19.9175 18.1609 20.2147C19.0748 20.7575 20.2053 20.5239 20.8974 19.7794C21.2428 19.4079 21.7707 19.2674 22.2551 19.418L25.9396 20.5637C26.5668 20.7588 26.9942 21.3392 26.9942 21.9961V25.5739C26.9942 26.4151 26.3193 27.0568 25.54 26.9891C23.2453 26.7897 20.9907 26.2399 18.8556 25.3555C16.8921 24.5423 15.0573 23.4575 13.4035 22.1361C13.1878 21.9637 12.8731 21.9989 12.7008 22.2146C12.5284 22.4304 12.5636 22.745 12.7793 22.9173C14.5064 24.2972 16.4225 25.4301 18.4729 26.2794C20.7026 27.203 23.0571 27.7771 25.4534 27.9854C26.8749 28.1089 27.9942 26.9418 27.9942 25.5739V21.9961C27.9942 20.9013 27.2819 19.9339 26.2365 19.6088L22.552 18.4631C21.7004 18.1983 20.7723 18.4453 20.165 19.0985C19.7614 19.5327 19.1414 19.634 18.6715 19.3549C18.1985 19.074 17.7392 18.7706 17.2952 18.4459Z" fill="black"/>
<path d="M26.8536 5.85355C27.0488 5.65829 27.0488 5.34171 26.8536 5.14645C26.6583 4.95118 26.3417 4.95118 26.1464 5.14645L5.14645 26.1464C4.95118 26.3417 4.95118 26.6583 5.14645 26.8536C5.34171 27.0488 5.65829 27.0488 5.85355 26.8536L26.8536 5.85355Z" fill="black"/>
</g>
</svg>
