<svg width="32" height="32" viewBox="0 0 32 32" fill="none" xmlns="http://www.w3.org/2000/svg">
<path opacity="0.9" fill-rule="evenodd" clip-rule="evenodd" d="M14.6305 5.78792C14.9092 4.76613 16.1304 4.34713 16.9776 4.9826L17.8002 5.59948C19.1851 6.63818 20.0002 8.26831 20.0002 9.99948V10.4995C20.0002 10.7756 20.224 10.9995 20.5002 10.9995H23.7892C26.0174 10.9995 27.6784 13.054 27.2115 15.2328L25.4972 23.2328C25.1514 24.8466 23.7253 25.9995 22.0749 25.9995H13.8777C13.5658 25.9995 13.2567 25.9411 12.9663 25.8274L9.99119 24.6627C9.90972 25.4142 9.27318 25.9992 8.5 25.9992H5.5C4.67157 25.9992 4 25.3276 4 24.4992V12.499C4 11.6706 4.67157 10.999 5.5 10.999H8.5C9.26663 10.999 9.89894 11.5741 9.989 12.3165C10.0219 12.3046 10.0554 12.2937 10.0894 12.2841L10.6507 12.1242C12.166 11.6928 13.3453 10.5003 13.7599 8.98028L14.6305 5.78792ZM16.3776 5.7826C16.0952 5.57077 15.6882 5.71044 15.5953 6.05104L14.7246 9.2434C14.2179 11.1012 12.7766 12.5587 10.9245 13.086L10.3632 13.2458C10.1484 13.307 10.0002 13.5033 10.0002 13.7267V23.2511C10.0002 23.4569 10.1262 23.6417 10.3179 23.7167L13.3309 24.8963C13.5051 24.9645 13.6906 24.9995 13.8777 24.9995H22.0749C23.2537 24.9995 24.2724 24.176 24.5194 23.0233L26.2337 15.0233C26.5672 13.467 25.3808 11.9995 23.7892 11.9995H20.5002C19.6717 11.9995 19.0002 11.3279 19.0002 10.4995V9.99948C19.0002 8.58307 18.3333 7.24932 17.2002 6.39948L16.3776 5.7826ZM9 12.499C9 12.2229 8.77614 11.999 8.5 11.999H5.5C5.22386 11.999 5 12.2229 5 12.499V24.4992C5 24.7753 5.22386 24.9992 5.5 24.9992H8.5C8.77614 24.9992 9 24.7753 9 24.4992V12.499Z" fill="black"/>
</svg>
