<svg width="16" height="16" viewBox="0 0 16 16" fill="none" xmlns="http://www.w3.org/2000/svg">
<path opacity="0.9" fill-rule="evenodd" clip-rule="evenodd" d="M7.77254 2.33123C7.97609 1.53159 8.9348 1.20557 9.58363 1.71536C10.4779 2.41802 11.0001 3.49237 11.0001 4.62969V4.74127C11.0001 4.84465 11.0839 4.92845 11.1873 4.92845H11.8574C13.515 4.92845 14.7137 6.5123 14.2634 8.1076L13.3964 11.179C13.0924 12.2561 12.1096 12.9999 10.9904 12.9999H7.75767C7.54391 12.9999 7.33103 12.9725 7.12425 12.9183L5.12004 12.3934C5.07925 12.3827 5.03921 12.3704 5 12.3565V12.5C5 12.7761 4.77614 13 4.5 13H1.5C1.22386 13 1 12.7761 1 12.5V5.5C1 5.22386 1.22386 5 1.5 5H4.5C4.77614 5 5 5.22386 5 5.5V5.56637C6.2891 5.22718 7.29294 4.21538 7.62181 2.92339L7.77254 2.33123ZM8.96581 2.50168C8.8855 2.43858 8.76683 2.47893 8.74164 2.57791L8.59091 3.17007C8.17195 4.81596 6.89225 6.10451 5.24929 6.53481C5.10248 6.57326 5.0001 6.70591 5.0001 6.85767V10.9423C5.0001 11.1697 5.15348 11.3684 5.37341 11.426L7.37762 11.9509C7.50169 11.9834 7.62942 11.9999 7.75767 11.9999H10.9904C11.6619 11.9999 12.2516 11.5536 12.434 10.9074L13.301 7.83594C13.5712 6.87876 12.852 5.92845 11.8574 5.92845H11.1873C10.5316 5.92845 10.0001 5.39693 10.0001 4.74127V4.62969C10.0001 3.79923 9.61881 3.01475 8.96581 2.50168ZM4 12V6H2V12H4Z" fill="black"/>
</svg>
