<svg width="16" height="16" viewBox="0 0 16 16" fill="none" xmlns="http://www.w3.org/2000/svg">
<g opacity="0.9">
<path fill-rule="evenodd" clip-rule="evenodd" d="M7.30093 2.2487C7.13165 2.39917 7 2.63567 7 2.99999C7 3.27613 6.77614 3.49999 6.5 3.49999C6.13621 3.49999 5.50256 3.69537 4.95949 4.18414C4.43495 4.65623 4.00002 5.39821 4.00002 6.5V10.1972C4.00002 10.7824 3.65422 11.2197 3.42558 11.5088L3.39296 11.5501C3.24737 11.7351 3.14416 11.8751 3.08016 12H12.9199C12.8559 11.8751 12.7527 11.7351 12.6071 11.5501L12.5744 11.5088C12.3458 11.2197 12 10.7824 12 10.1972V6.5C12 6.22386 12.2239 6 12.5 6C12.7762 6 13 6.22386 13 6.5V10.1972C13 10.4059 13.1196 10.5843 13.393 10.9317L13.4176 10.963C13.65 11.2576 14 11.7012 14 12.3028V12.5C14 12.7761 13.7762 13 13.5 13H10.45C10.2184 14.1411 9.20948 15 8 15C6.79052 15 5.78164 14.1411 5.55001 13H2.5C2.22386 13 2 12.7761 2 12.5V12.3028C2 11.7012 2.35001 11.2576 2.58244 10.963L2.60706 10.9317C2.88042 10.5843 3.00002 10.4059 3.00002 10.1972V6.5C3.00002 5.10178 3.56508 4.09375 4.29052 3.44085C4.83981 2.94649 5.48535 2.65234 6.04438 2.54573C6.13139 2.11723 6.3419 1.76322 6.63657 1.50129C7.02059 1.15994 7.51847 1 8 1C8.48154 1 8.97942 1.15995 9.36343 1.50129C9.75665 1.85082 10 2.36432 10 2.99999C10 3.27613 9.77614 3.49999 9.5 3.49999C9.22386 3.49999 9 3.27613 9 2.99999C9 2.63568 8.86835 2.39918 8.69907 2.24871C8.52058 2.09005 8.26846 2 8 2C7.73153 2 7.47941 2.09005 7.30093 2.2487ZM8 14C7.34689 14 6.79127 13.5826 6.58535 13H9.41465C9.20873 13.5826 8.65311 14 8 14Z" fill="black"/>
<path d="M13 5C14.1046 5 15 4.10457 15 3C15 1.89543 14.1046 1 13 1C11.8954 1 11 1.89543 11 3C11 4.10457 11.8954 5 13 5Z" fill="black"/>
</g>
</svg>
