<svg width="16" height="16" viewBox="0 0 16 16" fill="none" xmlns="http://www.w3.org/2000/svg">
<path opacity="0.9" fill-rule="evenodd" clip-rule="evenodd" d="M16 2.5C16 1.67157 15.3284 1 14.5 1H1.5C0.671573 1 0 1.67157 0 2.5V13.5C0 14.3284 0.671572 15 1.5 15L14.5 15C15.3284 15 16 14.3284 16 13.5L16 2.5ZM12.5008 10.5251C11.9788 10.7276 11.4112 10.8386 10.8177 10.8386C8.24589 10.8386 6.16102 8.75371 6.16102 6.1819C6.16102 5.58921 6.27175 5.02238 6.47365 4.50098C4.73366 5.1757 3.5 6.86589 3.5 8.84422C3.5 11.416 5.58487 13.5009 8.15669 13.5009C10.1358 13.5009 11.8266 12.2662 12.5008 10.5251ZM1 4H15V3H1V4Z" fill="black"/>
</svg>
