<svg width="16" height="16" viewBox="0 0 16 16" fill="none" xmlns="http://www.w3.org/2000/svg">
<g opacity="0.9">
<path fill-rule="evenodd" clip-rule="evenodd" d="M11.2343 10.8202C11.0971 10.8324 10.9581 10.8386 10.8177 10.8386C8.24589 10.8386 6.16102 8.75371 6.16102 6.1819C6.16102 6.04226 6.16717 5.90406 6.17921 5.76755C6.21826 5.32465 6.31932 4.89954 6.47365 4.50098C6.02626 4.67446 5.61236 4.91508 5.24428 5.21046C4.18082 6.06391 3.5 7.37456 3.5 8.84422C3.5 11.416 5.58487 13.5009 8.15669 13.5009C9.62717 13.5009 10.9385 12.8193 11.7919 11.7549C12.0871 11.3866 12.3275 10.9726 12.5008 10.5251C12.1023 10.6797 11.6772 10.7809 11.2343 10.8202ZM10.2903 11.8143C9.68953 12.2466 8.95248 12.5009 8.15669 12.5009C6.13715 12.5009 4.5 10.8638 4.5 8.84422C4.5 8.04907 4.7539 7.31257 5.18554 6.71201C5.43665 9.41393 7.58806 11.5645 10.2903 11.8143Z" fill="black"/>
<path fill-rule="evenodd" clip-rule="evenodd" d="M14.5 1C15.3284 1 16 1.67157 16 2.5L16 13.5C16 14.3284 15.3284 15 14.5 15L1.5 15C0.671572 15 0 14.3284 0 13.5V2.5C0 1.67157 0.671573 1 1.5 1H14.5ZM15 2.5C15 2.22386 14.7761 2 14.5 2L1.5 2C1.22386 2 1 2.22386 1 2.5V3H15V2.5ZM15 4H1L0.999999 13.5C0.999999 13.7761 1.22386 14 1.5 14L14.5 14C14.7761 14 15 13.7761 15 13.5L15 4Z" fill="black"/>
</g>
</svg>
