<svg width="32" height="32" viewBox="0 0 32 32" fill="none" xmlns="http://www.w3.org/2000/svg">
<path opacity="0.9" fill-rule="evenodd" clip-rule="evenodd" d="M5.5 4C4.11929 4 3 5.11929 3 6.5V25.5C3 26.8807 4.11929 28 5.5 28H26.5C27.8807 28 29 26.8807 29 25.5V6.5C29 5.11929 27.8807 4 26.5 4H5.5ZM28 9H4V8H28V9ZM21.353 20.887C22.1651 20.887 22.9461 20.7541 23.6756 20.5089C22.5633 23.3272 19.8154 25.3213 16.6018 25.3213C12.4035 25.3213 9 21.9178 9 17.7195C9 14.1252 11.4944 11.1136 14.8466 10.3213C14.3485 11.3072 14.0679 12.4218 14.0679 13.6019C14.0679 17.6253 17.3295 20.887 21.353 20.887Z" fill="black"/>
</svg>
