<svg width="16" height="16" viewBox="0 0 16 16" fill="none" xmlns="http://www.w3.org/2000/svg">
<g opacity="0.9">
<path fill-rule="evenodd" clip-rule="evenodd" d="M7.5 2C4.46243 2 2 4.46243 2 7.5C2 10.5376 4.46243 13 7.5 13C10.5376 13 13 10.5376 13 7.5C13 4.46243 10.5376 2 7.5 2ZM1 7.5C1 3.91015 3.91015 1 7.5 1C11.0899 1 14 3.91015 14 7.5C14 11.0899 11.0899 14 7.5 14C3.91015 14 1 11.0899 1 7.5Z" fill="black"/>
<path fill-rule="evenodd" clip-rule="evenodd" d="M3 6H6V9H3V6ZM4 7V8H5V7H4Z" fill="black"/>
<path fill-rule="evenodd" clip-rule="evenodd" d="M9 7.5C9 6.67157 9.67157 6 10.5 6C11.3284 6 12 6.67157 12 7.5C12 8.32843 11.3284 9 10.5 9C9.67157 9 9 8.32843 9 7.5ZM10.5 7C10.2239 7 10 7.22386 10 7.5C10 7.77614 10.2239 8 10.5 8C10.7761 8 11 7.77614 11 7.5C11 7.22386 10.7761 7 10.5 7Z" fill="black"/>
<path fill-rule="evenodd" clip-rule="evenodd" d="M9.5 8H5.5V7H9.5V8Z" fill="black"/>
</g>
</svg>
