<svg width="32" height="32" viewBox="0 0 32 32" fill="none" xmlns="http://www.w3.org/2000/svg">
<path opacity="0.9" fill-rule="evenodd" clip-rule="evenodd" d="M5 15.5C5 9.14873 10.1487 4 16.5 4C22.8513 4 28 9.14873 28 15.5C28 21.8513 22.8513 27 16.5 27C10.1487 27 5 21.8513 5 15.5ZM10 13C9.44772 13 9 13.4477 9 14V17C9 17.5523 9.44772 18 10 18H13C13.5523 18 14 17.5523 14 17V16H19.05C19.2816 17.1411 20.2905 18 21.5 18C22.8807 18 24 16.8807 24 15.5C24 14.1193 22.8807 13 21.5 13C20.2905 13 19.2816 13.8589 19.05 15H14V14C14 13.4477 13.5523 13 13 13H10Z" fill="black"/>
</svg>
