<svg width="32" height="32" viewBox="0 0 32 32" fill="none" xmlns="http://www.w3.org/2000/svg">
<g opacity="0.9">
<path fill-rule="evenodd" clip-rule="evenodd" d="M10 13C9.44772 13 9 13.4477 9 14V17C9 17.5523 9.44772 18 10 18H13C13.5523 18 14 17.5523 14 17V16H19.05C19.2816 17.1411 20.2905 18 21.5 18C22.8807 18 24 16.8807 24 15.5C24 14.1193 22.8807 13 21.5 13C20.2905 13 19.2816 13.8589 19.05 15H14V14C14 13.4477 13.5523 13 13 13H10ZM10 14H13V17H10V14ZM20 15.5C20 14.6716 20.6716 14 21.5 14C22.3284 14 23 14.6716 23 15.5C23 16.3284 22.3284 17 21.5 17C20.6716 17 20 16.3284 20 15.5Z" fill="black"/>
<path fill-rule="evenodd" clip-rule="evenodd" d="M16.5 4C10.1487 4 5 9.14873 5 15.5C5 21.8513 10.1487 27 16.5 27C22.8513 27 28 21.8513 28 15.5C28 9.14873 22.8513 4 16.5 4ZM6 15.5C6 9.70101 10.701 5 16.5 5C22.299 5 27 9.70101 27 15.5C27 21.299 22.299 26 16.5 26C10.701 26 6 21.299 6 15.5Z" fill="black"/>
</g>
</svg>
