<svg width="16" height="16" viewBox="0 0 16 16" fill="none" xmlns="http://www.w3.org/2000/svg">
<path opacity="0.9" fill-rule="evenodd" clip-rule="evenodd" d="M1 7.5C1 3.91015 3.91015 1 7.5 1C11.0899 1 14 3.91015 14 7.5C14 11.0899 11.0899 14 7.5 14C3.91015 14 1 11.0899 1 7.5ZM3.5 6C3.22386 6 3 6.22386 3 6.5V8.5C3 8.77614 3.22386 9 3.5 9H5.5C5.77614 9 6 8.77614 6 8.5V8H9.08535C9.29127 8.5826 9.84689 9 10.5 9C11.3284 9 12 8.32843 12 7.5C12 6.67157 11.3284 6 10.5 6C9.84689 6 9.29127 6.4174 9.08535 7H6V6.5C6 6.22386 5.77614 6 5.5 6H3.5Z" fill="black"/>
</svg>
