<svg width="32" height="32" viewBox="0 0 32 32" fill="none" xmlns="http://www.w3.org/2000/svg">
<path opacity="0.9" fill-rule="evenodd" clip-rule="evenodd" d="M12.0003 4.5C12.0003 3.67157 12.6719 3 13.5003 3H18.5003C19.3287 3 20.0003 3.67157 20.0003 4.5V7.93564C20.3408 8.10482 20.669 8.2949 20.9832 8.50417L23.9596 6.78574C24.677 6.37152 25.5944 6.61734 26.0086 7.33477L28.5086 11.6649C28.9229 12.3823 28.677 13.2997 27.9596 13.7139L24.9827 15.4327C24.9944 15.6203 25.0003 15.8095 25.0003 16C25.0003 16.1904 24.9944 16.3795 24.9827 16.567L27.9596 18.2857C28.677 18.7 28.9229 19.6173 28.5086 20.3348L26.0086 24.6649C25.5944 25.3823 24.677 25.6282 23.9596 25.2139L20.9834 23.4957C20.6691 23.705 20.3409 23.8951 20.0003 24.0644V27.5C20.0003 28.3284 19.3287 29 18.5003 29H13.5003C12.6719 29 12.0003 28.3284 12.0003 27.5V24.0644C11.6598 23.8951 11.3315 23.705 11.0172 23.4957L8.04102 25.2139C7.32358 25.6282 6.4062 25.3823 5.99198 24.6649L3.49198 20.3348C3.07777 19.6173 3.32358 18.7 4.04102 18.2857L7.0179 16.567C7.00623 16.3795 7.00032 16.1904 7.00032 16C7.00032 15.8095 7.00624 15.6203 7.01792 15.4327L4.04102 13.7139C3.32358 13.2997 3.07777 12.3823 3.49198 11.6649L5.99199 7.33477C6.4062 6.61733 7.32358 6.37152 8.04102 6.78574L11.0174 8.50418C11.3317 8.2949 11.6599 8.10482 12.0003 7.93564V4.5ZM13.5003 4C13.2242 4 13.0003 4.22386 13.0003 4.5V8.25174C13.0003 8.44813 12.8853 8.62633 12.7064 8.70729C12.2212 8.92682 11.7616 9.19343 11.3336 9.50136C11.174 9.6162 10.9619 9.62682 10.7916 9.5285L7.54102 7.65176C7.30188 7.51369 6.99608 7.59563 6.85801 7.83477L4.35801 12.1649C4.21994 12.404 4.30188 12.7098 4.54102 12.8479L7.79153 14.7246C7.96151 14.8227 8.05835 15.0112 8.03913 15.2066C8.01347 15.4674 8.00032 15.7321 8.00032 16C8.00032 16.2678 8.01346 16.5324 8.0391 16.7931C8.05831 16.9885 7.96147 17.177 7.7915 17.2751L4.54102 19.1518C4.30188 19.2898 4.21994 19.5956 4.35801 19.8348L6.85801 24.1649C6.99608 24.404 7.30188 24.486 7.54102 24.3479L10.7914 22.4713C10.9617 22.373 11.1738 22.3836 11.3334 22.4985C11.7615 22.8065 12.2211 23.0731 12.7064 23.2927C12.8853 23.3737 13.0003 23.5519 13.0003 23.7483V27.5C13.0003 27.7761 13.2242 28 13.5003 28H18.5003C18.7765 28 19.0003 27.7761 19.0003 27.5V23.7483C19.0003 23.5519 19.1153 23.3737 19.2942 23.2927C19.7795 23.0731 20.2392 22.8065 20.6672 22.4985C20.8268 22.3836 21.039 22.373 21.2092 22.4713L24.4596 24.3479C24.6988 24.486 25.0045 24.404 25.1426 24.1649L27.6426 19.8348C27.7807 19.5956 27.6988 19.2898 27.4596 19.1518L24.2091 17.2751C24.0392 17.177 23.9423 16.9885 23.9615 16.7931C23.9872 16.5324 24.0003 16.2678 24.0003 16C24.0003 15.7321 23.9872 15.4674 23.9615 15.2066C23.9423 15.0112 24.0391 14.8227 24.2091 14.7246L27.4596 12.8479C27.6988 12.7098 27.7807 12.404 27.6426 12.1649L25.1426 7.83478C25.0045 7.59563 24.6988 7.51369 24.4596 7.65176L21.209 9.5285C21.0387 9.62682 20.8266 9.6162 20.667 9.50136C20.239 9.19343 19.7794 8.92682 19.2942 8.70729C19.1153 8.62633 19.0003 8.44813 19.0003 8.25174V4.5C19.0003 4.22386 18.7765 4 18.5003 4H13.5003ZM16.0003 13C14.3435 13 13.0003 14.3431 13.0003 16C13.0003 17.6569 14.3435 19 16.0003 19C17.6572 19 19.0003 17.6569 19.0003 16C19.0003 14.3431 17.6572 13 16.0003 13ZM12.0003 16C12.0003 13.7909 13.7912 12 16.0003 12C18.2095 12 20.0003 13.7909 20.0003 16C20.0003 18.2091 18.2095 20 16.0003 20C13.7912 20 12.0003 18.2091 12.0003 16Z" fill="black"/>
</svg>
