<svg width="32" height="32" viewBox="0 0 32 32" fill="none" xmlns="http://www.w3.org/2000/svg">
<path opacity="0.9" fill-rule="evenodd" clip-rule="evenodd" d="M13.5003 3C12.6719 3 12.0003 3.67157 12.0003 4.5V7.93564C11.6599 8.10482 11.3317 8.2949 11.0174 8.50418L8.04102 6.78574C7.32358 6.37152 6.4062 6.61733 5.99199 7.33477L3.49198 11.6649C3.07777 12.3823 3.32358 13.2997 4.04102 13.7139L7.01792 15.4327C7.00624 15.6203 7.00032 15.8095 7.00032 16C7.00032 16.1904 7.00623 16.3795 7.0179 16.567L4.04102 18.2857C3.32358 18.7 3.07777 19.6173 3.49198 20.3348L5.99198 24.6649C6.4062 25.3823 7.32358 25.6282 8.04102 25.2139L11.0172 23.4957C11.3315 23.705 11.6598 23.8951 12.0003 24.0644V27.5C12.0003 28.3284 12.6719 29 13.5003 29H18.5003C19.3287 29 20.0003 28.3284 20.0003 27.5V24.0644C20.3409 23.8951 20.6691 23.705 20.9834 23.4957L23.9596 25.2139C24.677 25.6282 25.5944 25.3823 26.0086 24.6649L28.5086 20.3348C28.9229 19.6173 28.677 18.7 27.9596 18.2857L24.9827 16.567C24.9944 16.3795 25.0003 16.1904 25.0003 16C25.0003 15.8095 24.9944 15.6203 24.9827 15.4327L27.9596 13.7139C28.677 13.2997 28.9229 12.3823 28.5086 11.6649L26.0086 7.33477C25.5944 6.61734 24.677 6.37152 23.9596 6.78574L20.9832 8.50417C20.669 8.2949 20.3408 8.10482 20.0003 7.93564V4.5C20.0003 3.67157 19.3287 3 18.5003 3H13.5003ZM13.0003 16C13.0003 14.3431 14.3435 13 16.0003 13C17.6572 13 19.0003 14.3431 19.0003 16C19.0003 17.6569 17.6572 19 16.0003 19C14.3435 19 13.0003 17.6569 13.0003 16Z" fill="black"/>
</svg>
