<svg width="24" height="24" viewBox="0 0 24 24" fill="none" xmlns="http://www.w3.org/2000/svg">
<g opacity="0.9">
<path d="M14.6519 12.746C14.8501 12.5538 15.1666 12.5586 15.3589 12.7568C15.5512 12.955 15.5463 13.2716 15.3481 13.4638L11.5 17.1966L7.65187 13.4638C7.45366 13.2716 7.44884 12.955 7.64111 12.7568C7.83338 12.5586 8.14992 12.5538 8.34813 12.746L11 15.3184L11 4C11 3.72386 11.2239 3.5 11.5 3.5C11.7761 3.5 12 3.72386 12 4L12 15.3184L14.6519 12.746Z" fill="black"/>
<path d="M3 13.5001C3 13.2239 2.77614 13.0001 2.5 13.0001C2.22386 13.0001 2 13.2239 2 13.5001V18.5001C2 19.8808 3.11929 21.0001 4.5 21.0001H18.5C19.8807 21.0001 21 19.8808 21 18.5001V13.5001C21 13.2239 20.7761 13.0001 20.5 13.0001C20.2239 13.0001 20 13.2239 20 13.5001V18.5001C20 19.3285 19.3284 20.0001 18.5 20.0001H4.5C3.67157 20.0001 3 19.3285 3 18.5001V13.5001Z" fill="black"/>
</g>
</svg>
