<svg width="32" height="32" viewBox="0 0 32 32" fill="none" xmlns="http://www.w3.org/2000/svg">
<path d="M27 16H28V17H27V16Z" fill="black"/>
<path fill-rule="evenodd" clip-rule="evenodd" d="M4 4H13V13H4V4ZM5 5V12H12V5H5Z" fill="black"/>
<path d="M7 7H10V10H7V7Z" fill="black"/>
<path fill-rule="evenodd" clip-rule="evenodd" d="M4 19H13V28H4V19ZM5 20V27H12V20H5Z" fill="black"/>
<path d="M7 22H10V25H7V22Z" fill="black"/>
<path fill-rule="evenodd" clip-rule="evenodd" d="M19 4H28V13H19V4ZM20 5V12H27V5H20Z" fill="black"/>
<path d="M22 7H25V10H22V7Z" fill="black"/>
<path d="M15 26H17V28H15V26Z" fill="black"/>
<path d="M15 10H17V12H15V10Z" fill="black"/>
<path d="M15 20H16V21H15V20Z" fill="black"/>
<path d="M4 15H5V16H4V15Z" fill="black"/>
<path d="M18 15H19V16H18V15Z" fill="black"/>
<path d="M7 15H8V16H7V15Z" fill="black"/>
<path d="M16 8H17V9H16V8Z" fill="black"/>
<path d="M15 4H16V6H15V4Z" fill="black"/>
<path d="M16 6H17V7H16V6Z" fill="black"/>
<path d="M15 9H16V10H15V9Z" fill="black"/>
<path d="M16 12H17V13H16V12Z" fill="black"/>
<path d="M26 15H27V16H26V15Z" fill="black"/>
<path d="M24 15H25V16H24V15Z" fill="black"/>
<path d="M7 16H9V17H7V16Z" fill="black"/>
<path d="M21 15H22V17H21V15Z" fill="black"/>
<path d="M10 15H11V17H10V15Z" fill="black"/>
<path d="M12 15H14V16H12V15Z" fill="black"/>
<path d="M15 17H17V18H15V17Z" fill="black"/>
<path d="M17 15H18V16H17V15Z" fill="black"/>
<path d="M6 15H7V16H6V15Z" fill="black"/>
<path d="M16 16H17V18H16V16Z" fill="black"/>
<path d="M5 16H6V17H5V16Z" fill="black"/>
<path d="M16 21H17V23H16V21Z" fill="black"/>
<path fill-rule="evenodd" clip-rule="evenodd" d="M23 27.5V19.5C23 19.2239 23.2239 19 23.5 19C23.7761 19 24 19.2239 24 19.5V27.5C24 27.7761 23.7761 28 23.5 28C23.2239 28 23 27.7761 23 27.5Z" fill="black"/>
<path fill-rule="evenodd" clip-rule="evenodd" d="M19.5 23H27.5C27.7761 23 28 23.2239 28 23.5C28 23.7761 27.7761 24 27.5 24H19.5C19.2239 24 19 23.7761 19 23.5C19 23.2239 19.2239 23 19.5 23Z" fill="black"/>
</svg>
