<svg width="24" height="24" viewBox="0 0 24 24" fill="none" xmlns="http://www.w3.org/2000/svg">
<g opacity="0.9">
<path d="M18.5 8C18.2239 8 18 7.77614 18 7.5V2.5C18 2.22386 18.2239 2 18.5 2C18.7761 2 19 2.22386 19 2.5V7.5C19 7.77614 18.7761 8 18.5 8Z" fill="black"/>
<path d="M19 21.5C19 21.7761 18.7761 22 18.5 22C18.2239 22 18 21.7761 18 21.5L18 15.5C18 15.2239 18.2239 15 18.5 15C18.7761 15 19 15.2239 19 15.5V21.5Z" fill="black"/>
<path d="M18.5 14C17.1193 14 16 12.8807 16 11.5C16 10.1193 17.1193 9 18.5 9C19.8807 9 21 10.1193 21 11.5C21 12.8807 19.8807 14 18.5 14Z" fill="black"/>
<path d="M4 21.5V11.5C4 11.2239 4.22386 11 4.5 11C4.77614 11 5 11.2239 5 11.5V21.5C5 21.7761 4.77614 22 4.5 22C4.22386 22 4 21.7761 4 21.5Z" fill="black"/>
<path d="M4 2.5L4 3.5C4 3.77614 4.22386 4 4.5 4C4.77614 4 5 3.77614 5 3.5L5 2.5C5 2.22386 4.77614 2 4.5 2C4.22386 2 4 2.22386 4 2.5Z" fill="black"/>
<path d="M4.5 5C3.11929 5 2 6.11929 2 7.5C2 8.88071 3.11929 10 4.5 10C5.88071 10 7 8.88071 7 7.5C7 6.11929 5.88071 5 4.5 5Z" fill="black"/>
<path d="M11 12.5C11 12.7761 11.2239 13 11.5 13C11.7761 13 12 12.7761 12 12.5V2.5C12 2.22386 11.7761 2 11.5 2C11.2239 2 11 2.22386 11 2.5L11 12.5Z" fill="black"/>
<path d="M11 21.5V20.5C11 20.2239 11.2239 20 11.5 20C11.7761 20 12 20.2239 12 20.5V21.5C12 21.7761 11.7761 22 11.5 22C11.2239 22 11 21.7761 11 21.5Z" fill="black"/>
<path d="M11.5 19C10.1193 19 9 17.8807 9 16.5C9 15.1193 10.1193 14 11.5 14C12.8807 14 14 15.1193 14 16.5C14 17.8807 12.8807 19 11.5 19Z" fill="black"/>
</g>
</svg>
