<svg width="16" height="16" viewBox="0 0 16 16" fill="none" xmlns="http://www.w3.org/2000/svg">
<path opacity="0.9" d="M14.5 5.5C14.5 7.70914 12.7091 9.5 10.5 9.5C8.29086 9.5 6.5 7.70914 6.5 5.5C6.5 3.29086 8.29086 1.5 10.5 1.5C12.7091 1.5 14.5 3.29086 14.5 5.5ZM5.5 10C5.5 11.3807 4.38071 12.5 3 12.5C1.61929 12.5 0.5 11.3807 0.5 10C0.5 8.61929 1.61929 7.5 3 7.5C4.38071 7.5 5.5 8.61929 5.5 10ZM10.5 13C10.5 13.8284 9.82843 14.5 9 14.5C8.17157 14.5 7.5 13.8284 7.5 13C7.5 12.1716 8.17157 11.5 9 11.5C9.82843 11.5 10.5 12.1716 10.5 13Z" fill="black" stroke="black"/>
</svg>
