<svg width="16" height="16" viewBox="0 0 16 16" fill="none" xmlns="http://www.w3.org/2000/svg">
<g opacity="0.9">
<path fill-rule="evenodd" clip-rule="evenodd" d="M1 3C1 1.89543 1.89543 1 3 1H11C12.1046 1 13 1.89543 13 3V11C13 12.1046 12.1046 13 11 13H3C1.89543 13 1 12.1046 1 11V3ZM3 2H11C11.5523 2 12 2.44772 12 3V7.29312L9.48667 4.77979L6.59785 7.89081L4.50001 5.79297L2 8.29298V3C2 2.44772 2.44772 2 3 2ZM2 9.70719V11C2 11.484 2.34387 11.8877 2.80064 11.9801L5.91694 8.62411L4.50001 7.20718L2 9.70719ZM9.51334 6.22067L12 8.70733V11C12 11.5523 11.5523 12 11 12H4.14682L9.51334 6.22067Z" fill="black"/>
<path d="M15 4.5C15 4.22386 14.7761 4 14.5 4C14.2239 4 14 4.22386 14 4.5V11.5C14 12.8807 12.8807 14 11.5 14H5C4.72386 14 4.5 14.2239 4.5 14.5C4.5 14.7761 4.72386 15 5 15H11.5C13.433 15 15 13.433 15 11.5V4.5Z" fill="black"/>
</g>
</svg>
