<svg width="16" height="16" viewBox="0 0 16 16" fill="none" xmlns="http://www.w3.org/2000/svg">
<g opacity="0.9">
<path d="M5.5 7C6.05228 7 6.5 6.55228 6.5 6C6.5 5.44772 6.05228 5 5.5 5C4.94772 5 4.5 5.44772 4.5 6C4.5 6.55228 4.94772 7 5.5 7Z" fill="black"/>
<path d="M11.5 6C11.5 6.55228 11.0523 7 10.5 7C9.94771 7 9.5 6.55228 9.5 6C9.5 5.44772 9.94771 5 10.5 5C11.0523 5 11.5 5.44772 11.5 6Z" fill="black"/>
<path d="M7.99999 12C6.83116 12 5.7102 11.5357 4.88371 10.7092C4.54231 10.3678 4.26269 9.97612 4.05208 9.55161C3.92936 9.30423 4.0304 9.00421 4.27778 8.88149C4.52515 8.75876 4.82517 8.85981 4.9479 9.10718C5.11072 9.43537 5.32686 9.73814 5.59081 10.0021C6.22977 10.641 7.09637 11 7.99999 11C8.90361 11 9.77021 10.641 10.4092 10.0021C10.6731 9.73814 10.8893 9.43537 11.0521 9.10718C11.1748 8.85981 11.4748 8.75876 11.7222 8.88149C11.9696 9.00421 12.0706 9.30423 11.9479 9.55161C11.7373 9.97612 11.4577 10.3678 11.1163 10.7092C10.2898 11.5357 9.16882 12 7.99999 12Z" fill="black"/>
<path fill-rule="evenodd" clip-rule="evenodd" d="M8 1C4.13401 1 1 4.13401 1 8C1 11.866 4.13401 15 8 15C11.866 15 15 11.866 15 8C15 4.13401 11.866 1 8 1ZM2 8C2 4.68629 4.68629 2 8 2C11.3137 2 14 4.68629 14 8C14 11.3137 11.3137 14 8 14C4.68629 14 2 11.3137 2 8Z" fill="black"/>
</g>
</svg>
