<svg width="16" height="16" viewBox="0 0 16 16" fill="none" xmlns="http://www.w3.org/2000/svg">
<path opacity="0.9" fill-rule="evenodd" clip-rule="evenodd" d="M1 8C1 4.13401 4.13401 1 8 1C11.866 1 15 4.13401 15 8C15 11.866 11.866 15 8 15C4.13401 15 1 11.866 1 8ZM5.5 7C6.05229 7 6.5 6.55228 6.5 6C6.5 5.44772 6.05229 5 5.5 5C4.94772 5 4.5 5.44772 4.5 6C4.5 6.55228 4.94772 7 5.5 7ZM10.5 7C11.0523 7 11.5 6.55228 11.5 6C11.5 5.44772 11.0523 5 10.5 5C9.94772 5 9.5 5.44772 9.5 6C9.5 6.55228 9.94772 7 10.5 7ZM4.88372 10.7092C5.71021 11.5357 6.83117 12 8 12C9.16884 12 10.2898 11.5357 11.1163 10.7092C11.4577 10.3678 11.7373 9.97612 11.9479 9.55161C12.0706 9.30423 11.9696 9.00421 11.7222 8.88149C11.4748 8.75876 11.1748 8.85981 11.0521 9.10718C10.8893 9.43537 10.6731 9.73814 10.4092 10.0021C9.77023 10.641 8.90362 11 8 11C7.09639 11 6.22978 10.641 5.59083 10.0021C5.32688 9.73814 5.11073 9.43537 4.94791 9.10718C4.82519 8.85981 4.52516 8.75876 4.27779 8.88149C4.03042 9.00421 3.92937 9.30423 4.0521 9.55161C4.2627 9.97612 4.54233 10.3678 4.88372 10.7092Z" fill="black"/>
</svg>
