<svg width="16" height="16" viewBox="0 0 16 16" fill="none" xmlns="http://www.w3.org/2000/svg">
<path opacity="0.9" fill-rule="evenodd" clip-rule="evenodd" d="M7.5862 1.13895C7.84913 1.01944 8.15089 1.01944 8.41381 1.13895L13.4138 3.41168C13.7723 3.57461 14.0019 3.93475 13.9987 4.32817C13.9781 6.92337 13.7048 8.85121 12.8819 10.5898C12.0601 12.326 10.7143 13.8224 8.64962 15.6028C8.27701 15.9241 7.72301 15.9241 7.3504 15.6028C5.28571 13.8224 3.93989 12.326 3.11813 10.5898C2.29523 8.85121 2.02195 6.92336 2.00131 4.32817C1.99818 3.93475 2.22779 3.57461 2.58623 3.41168L7.5862 1.13895ZM11.3536 6.35355C11.5488 6.15829 11.5488 5.84171 11.3536 5.64645C11.1583 5.45118 10.8417 5.45118 10.6465 5.64645L7.00001 9.29289L5.35357 7.64645C5.15831 7.45118 4.84172 7.45118 4.64646 7.64645C4.4512 7.84171 4.4512 8.15829 4.64646 8.35355L7.00001 10.7071L11.3536 6.35355Z" fill="black"/>
</svg>
