<svg width="16" height="16" viewBox="0 0 16 16" fill="none" xmlns="http://www.w3.org/2000/svg">
<path opacity="0.9" fill-rule="evenodd" clip-rule="evenodd" d="M7.05406 1.12428C7.60516 0.676509 8.39473 0.676509 8.94583 1.12428L15.2222 6.22387C15.953 6.81756 15.5331 7.99998 14.5917 7.99998H13.9999V13.5C13.9999 14.3284 13.3284 15 12.4999 15H9.49994C9.2238 15 8.99994 14.7761 8.99994 14.5V9.49998C8.99994 9.22384 8.77609 8.99998 8.49994 8.99998H7.49994C7.2238 8.99998 6.99994 9.22384 6.99994 9.49998V14.5C6.99994 14.7761 6.77609 15 6.49994 15H3.49994C2.67152 15 1.99994 14.3284 1.99994 13.5V7.99998H1.40823C0.466745 7.99998 0.0469387 6.81756 0.777641 6.22387L7.05406 1.12428ZM8.31524 1.9004C8.13154 1.75114 7.86835 1.75114 7.68465 1.9004L1.40823 6.99998H2.49994C2.77609 6.99998 2.99994 7.22384 2.99994 7.49998V13.5C2.99994 13.7761 3.2238 14 3.49994 14H5.99994V9.49998C5.99994 8.67156 6.67152 7.99998 7.49994 7.99998H8.49994C9.32837 7.99998 9.99994 8.67156 9.99994 9.49998V14H12.4999C12.7761 14 12.9999 13.7761 12.9999 13.5V7.49998C12.9999 7.22384 13.2238 6.99998 13.4999 6.99998L14.5917 6.99998L8.31524 1.9004Z" fill="black"/>
</svg>
