<svg width="16" height="16" viewBox="0 0 16 16" fill="none" xmlns="http://www.w3.org/2000/svg">
<path opacity="0.9" fill-rule="evenodd" clip-rule="evenodd" d="M1 8C1 11.866 4.13401 15 8 15C11.866 15 15 11.866 15 8C15 4.13401 11.866 1 8 1C4.13401 1 1 4.13401 1 8ZM4.61589 7.82009C4.43911 7.60795 4.46777 7.29267 4.67991 7.11589L7.67991 4.61589C7.86533 4.46137 8.13467 4.46137 8.32009 4.61589L11.3201 7.11589C11.5322 7.29267 11.5609 7.60795 11.3841 7.82009C11.2073 8.03223 10.892 8.06089 10.6799 7.88411L8 5.65085L5.32009 7.88411C5.10795 8.06089 4.79267 8.03223 4.61589 7.82009ZM4.67991 10.1159C4.46777 10.2927 4.43911 10.608 4.61589 10.8201C4.79267 11.0322 5.10795 11.0609 5.32009 10.8841L8 8.65085L10.6799 10.8841C10.892 11.0609 11.2073 11.0322 11.3841 10.8201C11.5609 10.608 11.5322 10.2927 11.3201 10.1159L8.32009 7.61589C8.13467 7.46137 7.86533 7.46137 7.67991 7.61589L4.67991 10.1159Z" fill="black"/>
</svg>
