<svg width="24" height="24" viewBox="0 0 24 24" fill="none" xmlns="http://www.w3.org/2000/svg">
<g opacity="0.9">
<path fill-rule="evenodd" clip-rule="evenodd" d="M7.1263 11.8322C6.94284 11.6258 6.96143 11.3098 7.16782 11.1263L11.6678 7.1263C11.8573 6.9579 12.1427 6.9579 12.3322 7.1263L16.8322 11.1263C17.0386 11.3098 17.0572 11.6258 16.8737 11.8322C16.6902 12.0386 16.3742 12.0572 16.1678 11.8737L12 8.16898L7.83218 11.8737C7.62579 12.0572 7.30975 12.0386 7.1263 11.8322Z" fill="black"/>
<path fill-rule="evenodd" clip-rule="evenodd" d="M7.1263 15.8322C6.94284 15.6258 6.96143 15.3098 7.16782 15.1263L11.6678 11.1263C11.8573 10.9579 12.1427 10.9579 12.3322 11.1263L16.8322 15.1263C17.0386 15.3098 17.0572 15.6258 16.8737 15.8322C16.6902 16.0386 16.3742 16.0572 16.1678 15.8737L12 12.169L7.83218 15.8737C7.62579 16.0572 7.30975 16.0386 7.1263 15.8322Z" fill="black"/>
<path fill-rule="evenodd" clip-rule="evenodd" d="M3 12C3 16.9706 7.02944 21 12 21C16.9706 21 21 16.9706 21 12C21 7.02944 16.9706 3 12 3C7.02944 3 3 7.02944 3 12ZM12 22C6.47715 22 2 17.5228 2 12C2 6.47715 6.47715 2 12 2C17.5228 2 22 6.47715 22 12C22 17.5228 17.5228 22 12 22Z" fill="black"/>
</g>
</svg>
