<svg width="32" height="32" viewBox="0 0 32 32" fill="none" xmlns="http://www.w3.org/2000/svg">
<path opacity="0.9" fill-rule="evenodd" clip-rule="evenodd" d="M4 16C4 22.6274 9.37258 28 16 28C22.6274 28 28 22.6274 28 16C28 9.37258 22.6274 4 16 4C9.37258 4 4 9.37259 4 16ZM9.26285 15.1757C8.88966 14.7686 8.91716 14.136 9.32428 13.7628L15.3243 8.26284C15.7066 7.91238 16.2934 7.91238 16.6757 8.26284L22.6757 13.7628C23.0828 14.136 23.1104 14.7686 22.7372 15.1757C22.364 15.5828 21.7314 15.6103 21.3243 15.2371L16 10.3566L10.6757 15.2372C10.2686 15.6103 9.63604 15.5828 9.26285 15.1757ZM9.32428 20.7628C8.91716 21.136 8.88966 21.7686 9.26285 22.1757C9.63604 22.5828 10.2686 22.6103 10.6757 22.2372L16 17.3566L21.3243 22.2372C21.7314 22.6103 22.364 22.5828 22.7372 22.1757C23.1104 21.7686 23.0828 21.136 22.6757 20.7628L16.6757 15.2628C16.2934 14.9124 15.7066 14.9124 15.3243 15.2628L9.32428 20.7628Z" fill="black"/>
</svg>
