<svg width="32" height="32" viewBox="0 0 32 32" fill="none" xmlns="http://www.w3.org/2000/svg">
<g opacity="0.9">
<path fill-rule="evenodd" clip-rule="evenodd" d="M9.63142 15.8379C9.44483 15.6343 9.45858 15.318 9.66214 15.1314L15.6621 9.63142C15.8533 9.45619 16.1467 9.45619 16.3379 9.63142L22.3379 15.1314C22.5414 15.318 22.5552 15.6343 22.3686 15.8379C22.182 16.0414 21.8657 16.0552 21.6621 15.8686L16 10.6783L10.3379 15.8686C10.1343 16.0552 9.81802 16.0414 9.63142 15.8379Z" fill="black"/>
<path fill-rule="evenodd" clip-rule="evenodd" d="M9.63142 20.8379C9.44483 20.6343 9.45858 20.318 9.66214 20.1314L15.6621 14.6314C15.8533 14.4562 16.1467 14.4562 16.3379 14.6314L22.3379 20.1314C22.5414 20.318 22.5552 20.6343 22.3686 20.8379C22.182 21.0414 21.8657 21.0552 21.6621 20.8686L16 15.6783L10.3379 20.8686C10.1343 21.0552 9.81802 21.0414 9.63142 20.8379Z" fill="black"/>
<path fill-rule="evenodd" clip-rule="evenodd" d="M5 16C5 22.0751 9.92487 27 16 27C22.0751 27 27 22.0751 27 16C27 9.92487 22.0751 5 16 5C9.92487 5 5 9.92487 5 16ZM16 28C9.37258 28 4 22.6274 4 16C4 9.37259 9.37258 4 16 4C22.6274 4 28 9.37258 28 16C28 22.6274 22.6274 28 16 28Z" fill="black"/>
</g>
</svg>
