<svg width="24" height="24" viewBox="0 0 24 24" fill="none" xmlns="http://www.w3.org/2000/svg">
<path opacity="0.9" fill-rule="evenodd" clip-rule="evenodd" d="M2 12C2 17.5228 6.47715 22 12 22C17.5228 22 22 17.5228 22 12C22 6.47715 17.5228 2 12 2C6.47715 2 2 6.47715 2 12ZM7.1263 11.8322C6.94284 11.6258 6.96143 11.3098 7.16782 11.1263L11.6678 7.1263C11.8573 6.9579 12.1427 6.9579 12.3322 7.1263L16.8322 11.1263C17.0386 11.3098 17.0572 11.6258 16.8737 11.8322C16.6902 12.0386 16.3742 12.0572 16.1678 11.8737L12 8.16898L7.83218 11.8737C7.62579 12.0572 7.30975 12.0386 7.1263 11.8322ZM7.16782 15.1263C6.96143 15.3098 6.94284 15.6258 7.1263 15.8322C7.30975 16.0386 7.62579 16.0572 7.83218 15.8737L12 12.169L16.1678 15.8737C16.3742 16.0572 16.6902 16.0386 16.8737 15.8322C17.0572 15.6258 17.0386 15.3098 16.8322 15.1263L12.3322 11.1263C12.1427 10.9579 11.8573 10.9579 11.6678 11.1263L7.16782 15.1263Z" fill="black"/>
</svg>
