<svg width="16" height="16" viewBox="0 0 16 16" fill="none" xmlns="http://www.w3.org/2000/svg">
<g opacity="0.9">
<path d="M3 10.5659L3 5.30008L5.67781 7.56592L5.5 7.56592C5.22386 7.56592 5 7.78977 5 8.06592C5 8.34206 5.22386 8.56592 5.5 8.56592L6.85963 8.56592L9.22327 10.5659L3 10.5659Z" fill="black"/>
<path d="M10 11.5659L10.4051 11.5659L11.9734 12.8929C11.8173 13.842 10.9932 14.5659 10 14.5659C9.17157 14.5659 8.5 13.8943 8.5 13.0659C8.5 12.2375 9.17157 11.5659 10 11.5659Z" fill="black"/>
<path d="M12 8.9856L9.14037 6.56592L9.5 6.56592C9.77614 6.56592 10 6.34206 10 6.06592C10 5.78978 9.77614 5.56592 9.5 5.56592L7.95856 5.56592L6.77674 4.56592L9.5 4.56592C9.77614 4.56592 10 4.34206 10 4.06592C10 3.78978 9.77614 3.56592 9.5 3.56592L5.59492 3.56592L3.25575 1.58662C3.59852 0.977422 4.2512 0.565917 5 0.565917L13 0.565917C14.1046 0.565917 15 1.46135 15 2.56592C15 3.67049 14.1046 4.56592 13 4.56592L13 3.06592C13 2.78977 12.7761 2.56592 12.5 2.56592C12.2239 2.56592 12 2.78977 12 3.06592L12 8.9856Z" fill="black"/>
<path d="M7.99982 14.5659L3 14.5659C2.17157 14.5659 1.5 13.8943 1.5 13.0659C1.5 12.2375 2.17157 11.5659 3 11.5659L7.99982 11.5659C7.68597 11.9837 7.5 12.5031 7.5 13.0659C7.5 13.6287 7.68597 14.1481 7.99982 14.5659Z" fill="black"/>
<path d="M1.82298 1.68423C1.61218 1.50586 1.29669 1.53215 1.11832 1.74296C0.939947 1.95376 0.966238 2.26925 1.17704 2.44762L14.177 13.4476C14.3878 13.626 14.7033 13.5997 14.8817 13.3889C15.0601 13.1781 15.0338 12.8626 14.823 12.6842L1.82298 1.68423Z" fill="black"/>
</g>
</svg>
