<svg width="16" height="16" viewBox="0 0 16 16" fill="none" xmlns="http://www.w3.org/2000/svg">
<g opacity="0.9">
<path fill-rule="evenodd" clip-rule="evenodd" d="M3.17739 1.74159C3.4909 1.04923 4.18848 0.565917 5.00001 0.565917L13 0.565917C14.1046 0.565917 15 1.46135 15 2.56592C15 3.67049 14.1046 4.56592 13 4.56592L12 4.56592L12 8.06592C12 8.34206 11.7762 8.56592 11.5 8.56592C11.2239 8.56592 11 8.34206 11 8.06592L11 2.56592C11 2.20163 11.0974 1.86009 11.2676 1.56592L5.00001 1.56592C4.5954 1.56592 4.24585 1.80625 4.08835 2.15408C3.97444 2.40564 3.67817 2.51722 3.42662 2.40331C3.17507 2.28941 3.06348 1.99314 3.17739 1.74159ZM13 1.56592C12.4477 1.56592 12 2.01363 12 2.56592L12 3.56592L13 3.56592C13.5523 3.56592 14 3.1182 14 2.56592C14 2.01363 13.5523 1.56592 13 1.56592Z" fill="black"/>
<path fill-rule="evenodd" clip-rule="evenodd" d="M3.50001 5.56592C3.77615 5.56592 4.00001 5.78977 4.00001 6.06592L4.00001 10.5659L10 10.5659C10.2762 10.5659 10.5 10.7898 10.5 11.0659C10.5 11.3421 10.2762 11.5659 10 11.5659C9.44773 11.5659 9.00001 12.0136 9.00001 12.5659C9.00001 13.1182 9.44773 13.5659 10 13.5659C10.3991 13.5659 10.7445 13.3322 10.9051 12.992C11.023 12.7422 11.321 12.6353 11.5707 12.7532C11.8204 12.8711 11.9273 13.1691 11.8094 13.4188C11.4899 14.0958 10.8004 14.5659 10 14.5659L3.00001 14.5659C1.89544 14.5659 1.00001 13.6705 1.00001 12.5659C1.00001 11.4613 1.89544 10.5659 3.00001 10.5659L3.00001 6.06592C3.00001 5.78977 3.22387 5.56592 3.50001 5.56592ZM8.26757 13.5659C8.0974 13.2717 8.00001 12.9302 8.00001 12.5659C8.00001 12.2016 8.0974 11.8601 8.26757 11.5659L3.00001 11.5659C2.44773 11.5659 2.00001 12.0136 2.00001 12.5659C2.00001 13.1182 2.44773 13.5659 3.00001 13.5659L8.26757 13.5659Z" fill="black"/>
<path d="M6.00001 4.06592C6.00001 3.78978 6.22387 3.56592 6.50001 3.56592L9.50001 3.56592C9.77615 3.56592 10 3.78978 10 4.06592C10 4.34206 9.77615 4.56592 9.50001 4.56592L6.50001 4.56592C6.22387 4.56592 6.00001 4.34206 6.00001 4.06592Z" fill="black"/>
<path d="M8.50001 6.06592C8.50001 5.78978 8.72387 5.56592 9.00001 5.56592L9.50001 5.56592C9.77615 5.56592 10 5.78978 10 6.06592C10 6.34206 9.77615 6.56592 9.50001 6.56592L9.00001 6.56592C8.72387 6.56592 8.50001 6.34206 8.50001 6.06592Z" fill="black"/>
<path d="M5.00001 8.06592C5.00001 7.78977 5.22387 7.56592 5.50001 7.56592L6.00001 7.56592C6.27615 7.56592 6.50001 7.78977 6.50001 8.06592C6.50001 8.34206 6.27615 8.56592 6.00001 8.56592L5.50001 8.56592C5.22387 8.56592 5.00001 8.34206 5.00001 8.06592Z" fill="black"/>
<path d="M1.82299 1.68423C1.61219 1.50586 1.2967 1.53215 1.11833 1.74296C0.939955 1.95376 0.966246 2.26925 1.17705 2.44762L14.177 13.4476C14.3879 13.626 14.7033 13.5997 14.8817 13.3889C15.0601 13.1781 15.0338 12.8626 14.823 12.6842L1.82299 1.68423Z" fill="black"/>
</g>
</svg>
