<svg width="16" height="16" viewBox="0 0 16 16" fill="none" xmlns="http://www.w3.org/2000/svg">
<g opacity="0.9">
<path d="M11.7473 6.60022L8.87567 11.416C8.846 11.4765 8.80974 11.5349 8.76676 11.5901C8.42776 12.0261 7.7995 12.1048 7.3635 11.7658C6.9275 11.4268 6.84886 10.7985 7.18786 10.3625C7.22544 10.3142 7.26656 10.2703 7.31059 10.2308L11.2768 6.23521C11.5261 5.98404 11.9286 6.29623 11.7473 6.60022Z" fill="black"/>
<path fill-rule="evenodd" clip-rule="evenodd" d="M8 2C3.58172 2 0 5.58172 0 10C0 11.3475 0.333548 12.6185 0.923005 13.7337L1.06379 14H14.9362L15.077 13.7337C15.6665 12.6185 16 11.3475 16 10C16 5.58172 12.4183 2 8 2ZM1 10C1 6.13401 4.13401 3 8 3C11.866 3 15 6.13401 15 10C15 11.0745 14.7583 12.0912 14.3265 13H1.6735C1.24175 12.0912 1 11.0745 1 10Z" fill="black"/>
</g>
</svg>
