<svg width="16" height="16" viewBox="0 0 16 16" fill="none" xmlns="http://www.w3.org/2000/svg">
<path opacity="0.9" fill-rule="evenodd" clip-rule="evenodd" d="M0 10C0 5.58172 3.58172 2 8 2C12.4183 2 16 5.58172 16 10C16 11.3475 15.6665 12.6185 15.077 13.7337L14.9362 14H1.06379L0.923005 13.7337C0.333548 12.6185 0 11.3475 0 10ZM11.7473 6.60022L8.87566 11.416C8.84599 11.4765 8.80972 11.5349 8.76675 11.5901C8.42775 12.0261 7.79949 12.1048 7.36348 11.7658C6.92748 11.4268 6.84885 10.7985 7.18785 10.3625C7.22542 10.3142 7.26655 10.2703 7.31057 10.2308L11.2768 6.23521C11.5261 5.98404 11.9286 6.29623 11.7473 6.60022Z" fill="black"/>
</svg>
