<svg width="15" height="16" viewBox="0 0 15 16" fill="none" xmlns="http://www.w3.org/2000/svg">
<g clip-path="url(#clip0)">
<path opacity="0.9" fill-rule="evenodd" clip-rule="evenodd" d="M9 1C9 1.37014 8.7989 1.69331 8.5 1.86622V3H13C14.1046 3 15 3.89543 15 5V7C15.5523 7 16 7.44772 16 8V9C16 9.55229 15.5523 10 15 10V11C15 12.1046 14.1046 13 13 13H3C1.89543 13 1 12.1046 1 11V10C0.447715 10 0 9.55228 0 9V8C0 7.44772 0.447715 7 1 7V5C1 3.89543 1.89543 3 3 3H7.5V1.86622C7.2011 1.69331 7 1.37014 7 1C7 0.447715 7.44772 0 8 0C8.55229 0 9 0.447715 9 1ZM7 5.5C7 5.22386 6.77614 5 6.5 5C6.22386 5 6 5.22386 6 5.5V7H5.5C5.22386 7 5 7.22386 5 7.5V9C5 10.1046 5.89543 11 7 11H9C10.1046 11 11 10.1046 11 9V7.5C11 7.22386 10.7761 7 10.5 7H10V5.5C10 5.22386 9.77614 5 9.5 5C9.22386 5 9 5.22386 9 5.5V7H7V5.5Z" fill="black"/>
</g>
<defs>
<clipPath id="clip0">
<rect width="15" height="16" fill="white"/>
</clipPath>
</defs>
</svg>
