<svg width="15" height="16" viewBox="0 0 15 16" fill="none" xmlns="http://www.w3.org/2000/svg">
<g clip-path="url(#clip0)">
<path opacity="0.9" fill-rule="evenodd" clip-rule="evenodd" d="M8.5 1.86622C8.7989 1.69331 9 1.37014 9 1C9 0.447715 8.55228 0 8 0C7.44772 0 7 0.447715 7 1C7 1.37014 7.2011 1.69331 7.5 1.86622V3H3C1.89543 3 1 3.89543 1 5V7C0.447715 7 0 7.44772 0 8V9C0 9.55228 0.447715 10 1 10V11C1 12.1046 1.89543 13 3 13H13C14.1046 13 15 12.1046 15 11V10C15.5523 10 16 9.55229 16 9V8C16 7.44772 15.5523 7 15 7V5C15 3.89543 14.1046 3 13 3H8.5V1.86622ZM2 10V7V5C2 4.44772 2.44772 4 3 4H13C13.5523 4 14 4.44772 14 5V7V10V11C14 11.5523 13.5523 12 13 12H3C2.44772 12 2 11.5523 2 11V10ZM7 5.5C7 5.22386 6.77614 5 6.5 5C6.22386 5 6 5.22386 6 5.5V7H5.5C5.22386 7 5 7.22386 5 7.5V9C5 10.1046 5.89543 11 7 11H9C10.1046 11 11 10.1046 11 9V7.5C11 7.22386 10.7761 7 10.5 7H10V5.5C10 5.22386 9.77614 5 9.5 5C9.22386 5 9 5.22386 9 5.5V7H7V5.5ZM9.5 8H6.5H6V9C6 9.55228 6.44772 10 7 10H9C9.55228 10 10 9.55228 10 9V8H9.5Z" fill="black"/>
</g>
<defs>
<clipPath id="clip0">
<rect width="15" height="16" fill="white"/>
</clipPath>
</defs>
</svg>
