<svg width="16" height="16" viewBox="0 0 16 16" fill="none" xmlns="http://www.w3.org/2000/svg">
<path opacity="0.9" fill-rule="evenodd" clip-rule="evenodd" d="M15 3.5C15 3.77614 15.2239 4 15.5 4C15.7761 4 16 3.77614 16 3.5V0.5C16 0.367392 15.9473 0.240215 15.8536 0.146447C15.7598 0.0526786 15.6326 0 15.5 0H12.5C12.2239 0 12 0.223858 12 0.5C12 0.776143 12.2239 1 12.5 1H14.2929L7.14645 8.14645C6.95118 8.34171 6.95118 8.65829 7.14645 8.85355C7.34171 9.04882 7.65829 9.04882 7.85355 8.85355L15 1.70711V3.5ZM11.9736 1.90505C11.5599 1.74997 11.2329 1.41738 11.0854 1H3.5C2.11929 1 1 2.11929 1 3.5V12.5C1 13.8807 2.11929 15 3.5 15H12.5C13.8807 15 15 13.8807 15 12.5V4.91465C14.5826 4.76712 14.25 4.44012 14.095 4.02637L8.56066 9.56066C7.97487 10.1464 7.02513 10.1464 6.43934 9.56066C5.85355 8.97487 5.85355 8.02513 6.43934 7.43934L11.9736 1.90505Z" fill="black"/>
</svg>
