<svg width="16" height="16" viewBox="0 0 16 16" fill="none" xmlns="http://www.w3.org/2000/svg">
<g opacity="0.9">
<path d="M9.95562 2.54573C9.86861 2.11723 9.6581 1.76322 9.36343 1.50129C8.97942 1.15995 8.48154 1 8 1C7.51847 1 7.02059 1.15994 6.63657 1.50129C6.3419 1.76322 6.13139 2.11723 6.04438 2.54573C5.48535 2.65234 4.83981 2.94649 4.29052 3.44085C3.56508 4.09375 3.00002 5.10178 3.00002 6.5V10.1972C3.00002 10.4059 2.88042 10.5843 2.60706 10.9317L2.58244 10.963C2.35001 11.2576 2 11.7012 2 12.3028V12.5C2 12.7761 2.22386 13 2.5 13H13.5C13.7762 13 14 12.7761 14 12.5V12.3028C14 11.7012 13.65 11.2576 13.4176 10.963L13.393 10.9317C13.1196 10.5843 13 10.4059 13 10.1972V6.5C13 5.10178 12.4349 4.09375 11.7095 3.44085C11.1602 2.94648 10.5147 2.65234 9.95562 2.54573Z" fill="black"/>
<path d="M8 15.4868C6.95285 15.4868 6.04891 14.8737 5.62761 13.9868H10.3724C9.95109 14.8737 9.04715 15.4868 8 15.4868Z" fill="black"/>
</g>
</svg>
