<svg width="16" height="16" viewBox="0 0 16 16" fill="none" xmlns="http://www.w3.org/2000/svg">
<g opacity="0.9">
<path d="M10 7.5C10 7.22386 10.2239 7 10.5 7H12.5C12.7761 7 13 7.22386 13 7.5C13 7.77614 12.7761 8 12.5 8H10.5C10.2239 8 10 7.77614 10 7.5Z" fill="black"/>
<path d="M10.5 9C10.2239 9 10 9.22386 10 9.5C10 9.77614 10.2239 10 10.5 10H11.5C11.7761 10 12 9.77614 12 9.5C12 9.22386 11.7761 9 11.5 9H10.5Z" fill="black"/>
<path fill-rule="evenodd" clip-rule="evenodd" d="M2 13C1.44772 13 1 12.5523 1 12V4C1 3.44772 1.44772 3 2 3H14C14.5523 3 15 3.44772 15 4V12C15 12.5523 14.5523 13 14 13H2ZM14 4H2V12H3V11.5C3 10.502 3.58481 9.64054 4.43045 9.23969C4.16091 8.8989 4 8.46824 4 8C4 6.89543 4.89543 6 6 6C7.10457 6 8 6.89543 8 8C8 8.46824 7.83909 8.8989 7.56955 9.23969C8.41519 9.64054 9 10.502 9 11.5V12H14V4ZM8 12V11.5C8 10.6716 7.32843 10 6.5 10H5.5C4.67157 10 4 10.6716 4 11.5V12H8ZM6 9C6.55228 9 7 8.55228 7 8C7 7.44772 6.55228 7 6 7C5.44772 7 5 7.44772 5 8C5 8.55228 5.44772 9 6 9Z" fill="black"/>
</g>
</svg>
