<svg width="24" height="24" viewBox="0 0 24 24" fill="none" xmlns="http://www.w3.org/2000/svg">
<path opacity="0.9" fill-rule="evenodd" clip-rule="evenodd" d="M16.3497 2.55855C16.7291 2.17919 17.2989 2.01834 17.8344 2.20527C18.179 2.32552 18.6419 2.50386 19.1011 2.73329C19.5539 2.95956 20.0351 3.25107 20.392 3.608C20.7489 3.96492 21.0405 4.4461 21.2667 4.89895C21.4962 5.35813 21.6745 5.82104 21.7947 6.16556C21.9817 6.7011 21.8208 7.27091 21.4415 7.65027L7.09172 22H2V16.9083L16.3497 2.55855ZM17.5049 3.14941C17.3603 3.09894 17.1868 3.13566 17.0568 3.26566L15.6302 4.69232L19.3077 8.36983L20.7344 6.94317C20.8644 6.81317 20.9011 6.63968 20.8506 6.49511C20.7387 6.17438 20.5762 5.75418 20.3722 5.34591C20.165 4.93132 19.9305 4.56073 19.6849 4.31511C19.4393 4.06949 19.0687 3.835 18.6541 3.62784C18.2458 3.42385 17.8256 3.26135 17.5049 3.14941ZM18.6006 9.07694L17.1154 7.59174L6.1803 18.5268C6.55854 19.031 6.85345 19.6524 7.06016 20.1582C7.10692 20.2726 7.15004 20.3833 7.18937 20.4881L18.6006 9.07694ZM6.31201 21H3V17.688C3.14125 17.7387 3.29839 17.798 3.4635 17.8655C4.08875 18.1211 4.75843 18.4655 5.14645 18.8536C5.53447 19.2416 5.87894 19.9113 6.1345 20.5365C6.20198 20.7016 6.26135 20.8588 6.31201 21ZM3.51187 16.8106L14.9231 5.39943L16.4083 6.88463L5.47319 17.8197C4.96904 17.4415 4.3476 17.1466 3.84184 16.9399C3.72744 16.8931 3.61673 16.85 3.51187 16.8106Z" fill="black"/>
</svg>
