<svg width="24" height="24" viewBox="0 0 24 24" fill="none" xmlns="http://www.w3.org/2000/svg">
<g opacity="0.9">
<path d="M6.5 15H6V12H6.5C7.32843 12 8 12.6716 8 13.5C8 14.3284 7.32843 15 6.5 15Z" fill="black"/>
<path d="M11.5 12H11V18H11.5C12.3284 18 13 17.3284 13 16.5V13.5C13 12.6716 12.3284 12 11.5 12Z" fill="black"/>
<path fill-rule="evenodd" clip-rule="evenodd" d="M5.5 1C4.11929 1 3 2.11929 3 3.5V20.5C3 21.8807 4.11929 23 5.5 23H18.5C19.8807 23 21 21.8807 21 20.5V6.57081L15.4098 1H5.5ZM20 7L15 2V5C15 6.10457 15.8954 7 17 7H20ZM6 11C5.44772 11 5 11.4477 5 12V18.5C5 18.7761 5.22386 19 5.5 19C5.77614 19 6 18.7761 6 18.5V16H6.5C7.88071 16 9 14.8807 9 13.5C9 12.1193 7.88071 11 6.5 11H6ZM10 12C10 11.4477 10.4477 11 11 11H11.5C12.8807 11 14 12.1193 14 13.5V16.5C14 17.8807 12.8807 19 11.5 19H11C10.4477 19 10 18.5523 10 18V12ZM16 11C15.4477 11 15 11.4477 15 12V18.5C15 18.7761 15.2239 19 15.5 19C15.7761 19 16 18.7761 16 18.5V15H17.5C17.7761 15 18 14.7761 18 14.5C18 14.2239 17.7761 14 17.5 14H16V12H18.5C18.7761 12 19 11.7761 19 11.5C19 11.2239 18.7761 11 18.5 11H16Z" fill="black"/>
</g>
</svg>
