<svg width="32" height="32" viewBox="0 0 32 32" fill="none" xmlns="http://www.w3.org/2000/svg">
<g opacity="0.9">
<path d="M10.5 20.5H10V17.5H10.5C11.3284 17.5 12 18.1716 12 19C12 19.8284 11.3284 20.5 10.5 20.5Z" fill="black"/>
<path d="M15.5 17.5H15V23.5H15.5C16.3284 23.5 17 22.8284 17 22V19C17 18.1716 16.3284 17.5 15.5 17.5Z" fill="black"/>
<path fill-rule="evenodd" clip-rule="evenodd" d="M8.5 3C7.11929 3 6 4.11929 6 5.5V26.5C6 27.8807 7.11929 29 8.5 29H23.4553C24.8334 29 25.9516 27.8848 25.9553 26.5067L26.0006 9.58744L19.4182 3H8.5ZM25 10L19 4V8C19 9.10457 19.8954 10 21 10H25ZM10 16.5C9.44772 16.5 9 16.9477 9 17.5V24C9 24.2761 9.22386 24.5 9.5 24.5C9.77614 24.5 10 24.2761 10 24V21.5H10.5C11.8807 21.5 13 20.3807 13 19C13 17.6193 11.8807 16.5 10.5 16.5H10ZM14 17.5C14 16.9477 14.4477 16.5 15 16.5H15.5C16.8807 16.5 18 17.6193 18 19V22C18 23.3807 16.8807 24.5 15.5 24.5H15C14.4477 24.5 14 24.0523 14 23.5V17.5ZM20 16.5C19.4477 16.5 19 16.9477 19 17.5V24C19 24.2761 19.2239 24.5 19.5 24.5C19.7761 24.5 20 24.2761 20 24V20.5H21.5C21.7761 20.5 22 20.2761 22 20C22 19.7239 21.7761 19.5 21.5 19.5H20V17.5H22.5C22.7761 17.5 23 17.2761 23 17C23 16.7239 22.7761 16.5 22.5 16.5H20Z" fill="black"/>
</g>
</svg>
