<svg width="16" height="16" viewBox="0 0 16 16" fill="none" xmlns="http://www.w3.org/2000/svg">
<path opacity="0.9" d="M11.5 12.5V9.5M12.5 7.5H11.5V9.5M12.5 9.5H11.5M3.5 12.5V10.5M3.5 10.5V8.5C3.5 7.94772 3.94772 7.5 4.5 7.5C5.05228 7.5 5.5 7.94772 5.5 8.5V9.5C5.5 10.0523 5.05228 10.5 4.5 10.5H3.5ZM9.5 9.1V10.9C9.5 11.7837 8.78366 12.5 7.9 12.5V12.5C7.67909 12.5 7.5 12.3209 7.5 12.1V7.9C7.5 7.67909 7.67909 7.5 7.9 7.5V7.5C8.78366 7.5 9.5 8.21634 9.5 9.1Z" stroke="black" stroke-linecap="round"/>
<path opacity="0.9" d="M11.5 0.5H3.5C2.39543 0.5 1.5 1.39543 1.5 2.5V13.5C1.5 14.6046 2.39543 15.5 3.5 15.5H12.5C13.6046 15.5 14.5 14.6046 14.5 13.5V3.5M11.5 0.5L14.5 3.5M11.5 0.5V1.5C11.5 2.60457 12.3954 3.5 13.5 3.5H14.5" stroke="black"/>
</svg>
