<svg width="32" height="32" viewBox="0 0 32 32" fill="none" xmlns="http://www.w3.org/2000/svg">
<g opacity="0.9">
<path fill-rule="evenodd" clip-rule="evenodd" d="M7.5 13.5C6.11929 13.5 5 14.6193 5 16C5 17.3807 6.11929 18.5 7.5 18.5C8.88071 18.5 10 17.3807 10 16C10 14.6193 8.88071 13.5 7.5 13.5ZM6 16C6 15.1716 6.67157 14.5 7.5 14.5C8.32843 14.5 9 15.1716 9 16C9 16.8284 8.32843 17.5 7.5 17.5C6.67157 17.5 6 16.8284 6 16Z" fill="black"/>
<path fill-rule="evenodd" clip-rule="evenodd" d="M10 9C6.13401 9 3 12.134 3 16C3 19.866 6.13401 23 10 23C12.7932 23 15.2032 21.3642 16.3262 19H19.2929C19.5581 19 19.8125 18.8946 20 18.7071L20.5 18.2071L21.7929 19.5C22.1834 19.8905 22.8166 19.8905 23.2071 19.5L23.5 19.2071L23.7929 19.5C24.1834 19.8905 24.8166 19.8905 25.2071 19.5L25.7071 19L27.2597 19C27.5635 19 27.8508 18.8619 28.0406 18.6247L29.6406 16.6247C29.9327 16.2595 29.9327 15.7405 29.6406 15.3753L28.0406 13.3753C27.8508 13.1381 27.5635 13 27.2597 13H16.3262C15.2032 10.6358 12.7932 9 10 9ZM4 16C4 12.6863 6.68629 10 10 10C12.4952 10 14.6357 11.5232 15.5404 13.6924C15.618 13.8787 15.8 14 16.0018 14H27.2597L28.8597 16L27.2597 18H25.7071C25.4419 18 25.1875 18.1054 25 18.2929L24.5 18.7929L24.2071 18.5C23.8166 18.1095 23.1834 18.1095 22.7929 18.5L22.5 18.7929L21.2071 17.5C20.8166 17.1095 20.1834 17.1095 19.7929 17.5L19.2929 18H16.0018C15.8 18 15.618 18.1213 15.5404 18.3076C14.6357 20.4768 12.4952 22 10 22C6.68629 22 4 19.3137 4 16Z" fill="black"/>
</g>
</svg>
