<svg width="24" height="24" viewBox="0 0 24 24" fill="none" xmlns="http://www.w3.org/2000/svg">
<g opacity="0.9">
<path fill-rule="evenodd" clip-rule="evenodd" d="M5.5 11C4.67157 11 4 11.6716 4 12.5C4 13.3284 4.67157 14 5.5 14C6.32843 14 7 13.3284 7 12.5C7 11.6716 6.32843 11 5.5 11ZM5 12.5C5 12.2239 5.22386 12 5.5 12C5.77614 12 6 12.2239 6 12.5C6 12.7761 5.77614 13 5.5 13C5.22386 13 5 12.7761 5 12.5Z" fill="black"/>
<path fill-rule="evenodd" clip-rule="evenodd" d="M7.5 7C4.46243 7 2 9.46243 2 12.5C2 15.5376 4.46243 18 7.5 18C9.63809 18 11.4903 16.78 12.4002 15H15.2929L15.7929 15.5C16.1834 15.8905 16.8166 15.8905 17.2071 15.5L17.5 15.2071L17.7929 15.5C18.1834 15.8905 18.8166 15.8905 19.2071 15.5L19.7071 15L20.7929 15C21.0581 15 21.3125 14.8946 21.5 14.7071L23 13.2071C23.3905 12.8166 23.3905 12.1834 23 11.7929L21.5 10.2929C21.3125 10.1054 21.0581 10 20.7929 10H12.4002C11.4903 8.21995 9.63809 7 7.5 7ZM3 12.5C3 10.0147 5.01472 8 7.5 8C9.34451 8 10.9309 9.10983 11.6258 10.7002C11.7053 10.8823 11.8852 11 12.084 11H20.7929L22.2929 12.5L20.7929 14L19.7071 14C19.4419 14 19.1875 14.1054 19 14.2929L18.5 14.7929L18.2071 14.5C17.8166 14.1095 17.1834 14.1095 16.7929 14.5L16.5 14.7929L16 14.2929C15.8125 14.1054 15.5581 14 15.2929 14H12.084C11.8852 14 11.7053 14.1177 11.6258 14.2998C10.9309 15.8902 9.34451 17 7.5 17C5.01472 17 3 14.9853 3 12.5Z" fill="black"/>
</g>
</svg>
