<svg width="16" height="16" viewBox="0 0 16 16" fill="none" xmlns="http://www.w3.org/2000/svg">
<path opacity="0.9" fill-rule="evenodd" clip-rule="evenodd" d="M1 7.5C1 5.567 2.567 4 4.5 4C5.8962 4 7.10145 4.81753 7.66318 6H13.7929C14.0581 6 14.3125 6.10536 14.5 6.29289L15 6.79289C15.3905 7.18342 15.3905 7.81658 15 8.20711L14.5 8.70711C14.3125 8.89464 14.0581 9 13.7929 9H13.118L12.4472 9.33541C12.1657 9.47617 11.8343 9.47617 11.5528 9.33541L11 9.05902L10.4472 9.33541C10.1657 9.47617 9.83431 9.47617 9.55279 9.33541L8.88197 9H7.66318C7.10145 10.1825 5.8962 11 4.5 11C2.567 11 1 9.433 1 7.5ZM3.5 8C3.77614 8 4 7.77614 4 7.5C4 7.22386 3.77614 7 3.5 7C3.22386 7 3 7.22386 3 7.5C3 7.77614 3.22386 8 3.5 8Z" fill="black"/>
</svg>
