<svg width="24" height="24" viewBox="0 0 24 24" fill="none" xmlns="http://www.w3.org/2000/svg">
<g opacity="0.9">
<path d="M5.5 4C3.567 4 2 5.567 2 7.5V14.5C2 16.433 3.567 18 5.5 18H8.5C8.77614 18 9 17.7761 9 17.5C9 17.2239 8.77614 17 8.5 17H5.5C4.11929 17 3 15.8807 3 14.5V7.5C3 6.11929 4.11929 5 5.5 5H17.5C18.8807 5 20 6.11929 20 7.5V14.5C20 15.8807 18.8807 17 17.5 17H14.5C14.2239 17 14 17.2239 14 17.5C14 17.7761 14.2239 18 14.5 18H17.5C19.433 18 21 16.433 21 14.5V7.5C21 5.567 19.433 4 17.5 4H5.5Z" fill="black"/>
<path d="M14.6383 13.0119C14.829 13.2117 15.1455 13.219 15.3452 13.0284C15.545 12.8377 15.5523 12.5212 15.3617 12.3214L11.5 8.27588L7.63832 12.3214C7.44765 12.5212 7.45501 12.8377 7.65476 13.0284C7.85451 13.219 8.17101 13.2117 8.36168 13.0119L11 10.248V22.5C11 22.7762 11.2239 23 11.5 23C11.7761 23 12 22.7762 12 22.5V10.248L14.6383 13.0119Z" fill="black"/>
</g>
</svg>
