<svg width="24" height="24" viewBox="0 0 24 24" fill="none" xmlns="http://www.w3.org/2000/svg">
<path opacity="0.9" fill-rule="evenodd" clip-rule="evenodd" d="M5.5 4C3.567 4 2 5.567 2 7.5V14.5C2 16.433 3.567 18 5.5 18H9.5V13.9918L9.44671 14.0476C8.68403 14.8466 7.41805 14.8761 6.61905 14.1134C5.82005 13.3507 5.79061 12.0847 6.55329 11.2857L11.5 6.10345L16.4467 11.2857C17.2094 12.0847 17.1799 13.3507 16.381 14.1134C15.582 14.8761 14.316 14.8466 13.5533 14.0476L13.5 13.9918V18H17.5C19.433 18 21 16.433 21 14.5V7.5C21 5.567 19.433 4 17.5 4H5.5ZM14.6383 13.0119C14.829 13.2117 15.1455 13.219 15.3452 13.0283C15.545 12.8377 15.5523 12.5212 15.3617 12.3214L11.5 8.27586L7.63832 12.3214C7.44765 12.5212 7.45501 12.8377 7.65476 13.0283C7.85451 13.219 8.17101 13.2117 8.36168 13.0119L11 10.2479V22.5C11 22.7761 11.2239 23 11.5 23C11.7761 23 12 22.7761 12 22.5V10.2479L14.6383 13.0119Z" fill="black"/>
</svg>
