<svg width="33" height="32" viewBox="0 0 33 32" fill="none" xmlns="http://www.w3.org/2000/svg">
<path opacity="0.9" fill-rule="evenodd" clip-rule="evenodd" d="M4.03516 16C4.03516 9.37258 9.40774 4 16.0352 4C22.6626 4 28.0352 9.37258 28.0352 16C28.0352 22.6274 22.6626 28 16.0352 28C9.40774 28 4.03516 22.6274 4.03516 16ZM23.0352 16C23.0352 17.1046 22.1397 18 21.0352 18C19.9306 18 19.0352 17.1046 19.0352 16C19.0352 14.8954 19.9306 14 21.0352 14C22.1397 14 23.0352 14.8954 23.0352 16ZM17.0352 16C17.0352 16.8284 16.3636 17.5 15.5352 17.5C14.7067 17.5 14.0352 16.8284 14.0352 16C14.0352 15.1716 14.7067 14.5 15.5352 14.5C16.3636 14.5 17.0352 15.1716 17.0352 16ZM12.0352 16C12.0352 16.8284 11.3636 17.5 10.5352 17.5C9.70673 17.5 9.03516 16.8284 9.03516 16C9.03516 15.1716 9.70673 14.5 10.5352 14.5C11.3636 14.5 12.0352 15.1716 12.0352 16Z" fill="black"/>
</svg>
