<svg width="16" height="16" viewBox="0 0 16 16" fill="none" xmlns="http://www.w3.org/2000/svg">
<g opacity="0.9">
<path fill-rule="evenodd" clip-rule="evenodd" d="M10 8C10 8.82843 10.6716 9.5 11.5 9.5C12.3284 9.5 13 8.82843 13 8C13 7.17157 12.3284 6.5 11.5 6.5C10.6716 6.5 10 7.17157 10 8ZM11.5 8.5C11.2239 8.5 11 8.27614 11 8C11 7.72386 11.2239 7.5 11.5 7.5C11.7761 7.5 12 7.72386 12 8C12 8.27614 11.7761 8.5 11.5 8.5Z" fill="black"/>
<path d="M6.5 8C6.5 8.55228 6.94772 9 7.5 9C8.05228 9 8.5 8.55228 8.5 8C8.5 7.44772 8.05228 7 7.5 7C6.94772 7 6.5 7.44772 6.5 8Z" fill="black"/>
<path d="M4 9C3.44772 9 3 8.55228 3 8C3 7.44772 3.44772 7 4 7C4.55228 7 5 7.44772 5 8C5 8.55228 4.55228 9 4 9Z" fill="black"/>
<path fill-rule="evenodd" clip-rule="evenodd" d="M8 1C4.13401 1 1 4.13401 1 8C1 11.866 4.13401 15 8 15C11.866 15 15 11.866 15 8C15 4.13401 11.866 1 8 1ZM2 8C2 4.68629 4.68629 2 8 2C11.3137 2 14 4.68629 14 8C14 11.3137 11.3137 14 8 14C4.68629 14 2 11.3137 2 8Z" fill="black"/>
</g>
</svg>
