<svg width="33" height="32" viewBox="0 0 33 32" fill="none" xmlns="http://www.w3.org/2000/svg">
<g opacity="0.9">
<path fill-rule="evenodd" clip-rule="evenodd" d="M21.0352 18C22.1397 18 23.0352 17.1046 23.0352 16C23.0352 14.8954 22.1397 14 21.0352 14C19.9306 14 19.0352 14.8954 19.0352 16C19.0352 17.1046 19.9306 18 21.0352 18ZM21.0352 17C20.4829 17 20.0352 16.5523 20.0352 16C20.0352 15.4477 20.4829 15 21.0352 15C21.5874 15 22.0352 15.4477 22.0352 16C22.0352 16.5523 21.5874 17 21.0352 17Z" fill="black"/>
<path fill-rule="evenodd" clip-rule="evenodd" d="M15.5352 17.5C16.3636 17.5 17.0352 16.8284 17.0352 16C17.0352 15.1716 16.3636 14.5 15.5352 14.5C14.7067 14.5 14.0352 15.1716 14.0352 16C14.0352 16.8284 14.7067 17.5 15.5352 17.5ZM15.0352 16C15.0352 15.7239 15.259 15.5 15.5352 15.5C15.8113 15.5 16.0352 15.7239 16.0352 16C16.0352 16.2761 15.8113 16.5 15.5352 16.5C15.259 16.5 15.0352 16.2761 15.0352 16Z" fill="black"/>
<path fill-rule="evenodd" clip-rule="evenodd" d="M12.0352 16C12.0352 16.8284 11.3636 17.5 10.5352 17.5C9.70673 17.5 9.03516 16.8284 9.03516 16C9.03516 15.1716 9.70673 14.5 10.5352 14.5C11.3636 14.5 12.0352 15.1716 12.0352 16ZM10.5352 15.5C10.259 15.5 10.0352 15.7239 10.0352 16C10.0352 16.2761 10.259 16.5 10.5352 16.5C10.8113 16.5 11.0352 16.2761 11.0352 16C11.0352 15.7239 10.8113 15.5 10.5352 15.5Z" fill="black"/>
<path fill-rule="evenodd" clip-rule="evenodd" d="M16.0352 4C9.40774 4 4.03516 9.37258 4.03516 16C4.03516 22.6274 9.40774 28 16.0352 28C22.6626 28 28.0352 22.6274 28.0352 16C28.0352 9.37258 22.6626 4 16.0352 4ZM5.03516 16C5.03516 9.92487 9.96002 5 16.0352 5C22.1103 5 27.0352 9.92487 27.0352 16C27.0352 22.0751 22.1103 27 16.0352 27C9.96002 27 5.03516 22.0751 5.03516 16Z" fill="black"/>
</g>
</svg>
