<svg width="32" height="32" viewBox="0 0 32 32" fill="none" xmlns="http://www.w3.org/2000/svg">
<path opacity="0.9" fill-rule="evenodd" clip-rule="evenodd" d="M4 16C4 9.37258 9.37258 4 16 4C22.6274 4 28 9.37258 28 16C28 22.6274 22.6274 28 16 28C9.37258 28 4 22.6274 4 16ZM11 15C12.1046 15 13 14.1046 13 13C13 11.8954 12.1046 11 11 11C9.89543 11 9 11.8954 9 13C9 14.1046 9.89543 15 11 15ZM21 15C22.1046 15 23 14.1046 23 13C23 11.8954 22.1046 11 21 11C19.8954 11 19 11.8954 19 13C19 14.1046 19.8954 15 21 15ZM9.26296 18.0598C9.5061 17.9288 9.80933 18.0198 9.94024 18.263C10.2602 18.8573 10.6861 19.4074 11.208 19.8884C12.4725 21.0534 14.1956 21.7143 16 21.7143C17.8044 21.7143 19.5275 21.0534 20.792 19.8884C21.3139 19.4074 21.7398 18.8573 22.0598 18.263C22.1907 18.0198 22.4939 17.9288 22.737 18.0598C22.9802 18.1907 23.0712 18.4939 22.9402 18.737C22.5667 19.4307 22.0718 20.0689 21.4696 20.6238C20.0125 21.9664 18.0444 22.7143 16 22.7143C13.9556 22.7143 11.9875 21.9664 10.5304 20.6238C9.92815 20.0689 9.43327 19.4307 9.05976 18.737C8.92884 18.4939 9.01982 18.1907 9.26296 18.0598Z" fill="black"/>
</svg>
