<svg width="24" height="24" viewBox="0 0 24 24" fill="none" xmlns="http://www.w3.org/2000/svg">
<path opacity="0.9" fill-rule="evenodd" clip-rule="evenodd" d="M2 12C2 6.47715 6.47715 2 12 2C17.5228 2 22 6.47715 22 12C22 17.5228 17.5228 22 12 22C6.47715 22 2 17.5228 2 12ZM8.5 11C9.32843 11 10 10.3284 10 9.5C10 8.67157 9.32843 8 8.5 8C7.67157 8 7 8.67157 7 9.5C7 10.3284 7.67157 11 8.5 11ZM7.94491 14.2719C7.81891 14.0261 7.51757 13.9291 7.27185 14.0551C7.02613 14.1811 6.92908 14.4824 7.05508 14.7281C7.32018 15.2451 7.67176 15.7213 8.10026 16.1359C9.13727 17.1392 10.5403 17.7 12 17.7C13.4597 17.7 14.8627 17.1392 15.8997 16.1359C16.3282 15.7213 16.6798 15.2451 16.9449 14.7281C17.0709 14.4824 16.9739 14.1811 16.7281 14.0551C16.4824 13.9291 16.1811 14.0261 16.0551 14.2719C15.8401 14.6912 15.5542 15.0788 15.2044 15.4172C14.3573 16.2368 13.2049 16.7 12 16.7C10.7951 16.7 9.64271 16.2368 8.79558 15.4172C8.44577 15.0788 8.15994 14.6912 7.94491 14.2719ZM17 9.5C17 10.3284 16.3284 11 15.5 11C14.6716 11 14 10.3284 14 9.5C14 8.67157 14.6716 8 15.5 8C16.3284 8 17 8.67157 17 9.5Z" fill="black"/>
</svg>
