<svg width="32" height="32" viewBox="0 0 32 32" fill="none" xmlns="http://www.w3.org/2000/svg">
<g opacity="0.9">
<path fill-rule="evenodd" clip-rule="evenodd" d="M13 13C13 14.1046 12.1046 15 11 15C9.89543 15 9 14.1046 9 13C9 11.8954 9.89543 11 11 11C12.1046 11 13 11.8954 13 13ZM12 13C12 13.5523 11.5523 14 11 14C10.4477 14 10 13.5523 10 13C10 12.4477 10.4477 12 11 12C11.5523 12 12 12.4477 12 13Z" fill="black"/>
<path fill-rule="evenodd" clip-rule="evenodd" d="M21 15C22.1046 15 23 14.1046 23 13C23 11.8954 22.1046 11 21 11C19.8954 11 19 11.8954 19 13C19 14.1046 19.8954 15 21 15ZM21 14C21.5523 14 22 13.5523 22 13C22 12.4477 21.5523 12 21 12C20.4477 12 20 12.4477 20 13C20 13.5523 20.4477 14 21 14Z" fill="black"/>
<path d="M22.9402 18.7371C23.0712 18.494 22.9802 18.1908 22.737 18.0599C22.4939 17.9289 22.1907 18.0199 22.0598 18.2631C21.7398 18.8574 21.3139 19.4075 20.792 19.8885C19.5275 21.0535 17.8044 21.7144 16 21.7144C14.1956 21.7144 12.4725 21.0535 11.208 19.8885C10.6861 19.4075 10.2602 18.8574 9.94025 18.2631C9.80933 18.0199 9.5061 17.9289 9.26297 18.0599C9.01983 18.1908 8.92885 18.494 9.05976 18.7371C9.43328 19.4308 9.92816 20.069 10.5304 20.6239C11.9875 21.9665 13.9556 22.7144 16 22.7144C18.0444 22.7144 20.0125 21.9665 21.4696 20.6239C22.0718 20.069 22.5667 19.4308 22.9402 18.7371Z" fill="black"/>
<path fill-rule="evenodd" clip-rule="evenodd" d="M16 4C9.37258 4 4 9.37258 4 16C4 22.6274 9.37258 28 16 28C22.6274 28 28 22.6274 28 16C28 9.37258 22.6274 4 16 4ZM5 16C5 9.92487 9.92487 5 16 5C22.0751 5 27 9.92487 27 16C27 22.0751 22.0751 27 16 27C9.92487 27 5 22.0751 5 16Z" fill="black"/>
</g>
</svg>
