<svg width="32" height="32" viewBox="0 0 32 32" fill="none" xmlns="http://www.w3.org/2000/svg">
<g opacity="0.9">
<path d="M10.5 16C10.7761 16 11 16.2239 11 16.5V17.3615L12 19.0282L13 17.3615V16.5C13 16.2239 13.2239 16 13.5 16C13.7761 16 14 16.2239 14 16.5V17.3615C14 17.5428 13.9507 17.7206 13.8575 17.876L12.5831 20L13.8575 22.124C13.9507 22.2794 14 22.4572 14 22.6385V23.5C14 23.7761 13.7761 24 13.5 24C13.2239 24 13 23.7761 13 23.5V22.6385L12 20.9718L11 22.6385V23.5C11 23.7761 10.7761 24 10.5 24C10.2239 24 10 23.7761 10 23.5V22.6385C10 22.4572 10.0493 22.2794 10.1425 22.124L11.4169 20L10.1425 17.876C10.0493 17.7206 10 17.5428 10 17.3615V16.5C10 16.2239 10.2239 16 10.5 16Z" fill="black"/>
<path d="M15.5 16C15.7761 16 16 16.2239 16 16.5V23H17.5C17.7761 23 18 23.2239 18 23.5C18 23.7761 17.7761 24 17.5 24H15.5C15.2239 24 15 23.7761 15 23.5V16.5C15 16.2239 15.2239 16 15.5 16Z" fill="black"/>
<path d="M21.3541 16C20.0479 16 19 17.0774 19 18.3715C19 19.2428 19.4912 20.0546 20.2764 20.4472C20.717 20.6675 21 21.1294 21 21.6285C21 22.3825 20.3877 23 19.6459 23H19.5C19.2239 23 19 23.2239 19 23.5C19 23.7761 19.2239 24 19.5 24H19.6459C20.9521 24 22 22.9226 22 21.6285C22 20.7572 21.5088 19.9454 20.7236 19.5528C20.283 19.3325 20 18.8706 20 18.3715C20 17.6175 20.6123 17 21.3541 17H21.5C21.7761 17 22 16.7761 22 16.5C22 16.2239 21.7761 16 21.5 16H21.3541Z" fill="black"/>
<path fill-rule="evenodd" clip-rule="evenodd" d="M6 5.5C6 4.11929 7.11929 3 8.5 3H19.5C19.666 3 19.8251 3.06668 19.9416 3.18508L25.95 9.29535V26.5C25.95 27.8807 24.8307 29 23.45 29H8.5C7.11929 29 6 27.8807 6 26.5V5.5ZM8.5 4C7.67157 4 7 4.67157 7 5.5V26.5C7 27.3284 7.67157 28 8.5 28H23.45C24.2784 28 24.95 27.3284 24.95 26.5V10.0035L21.5176 10.0276C20.13 10.0374 19 8.91528 19 7.5277L19 4H8.5ZM20 4.67075L24.2653 9.00831L21.5105 9.02766C20.678 9.03351 20 8.36024 20 7.5277L20 4.67075Z" fill="black"/>
</g>
</svg>
