<svg width="16" height="16" viewBox="0 0 16 16" fill="none" xmlns="http://www.w3.org/2000/svg">
<g clip-path="url(#clip0)">
<g opacity="0.9">
<path d="M1 5.5C1 4.11929 2.11929 3 3.5 3H12.5C13.2468 3 13.9175 3.32804 14.3749 3.84622C14.5576 4.05326 14.5379 4.36922 14.3309 4.55196C14.1238 4.73469 13.8079 4.71499 13.6251 4.50795C13.3495 4.19572 12.9479 4 12.5 4H3.5C2.67157 4 2 4.67157 2 5.5V14.3767L4.94983 12.2778C5.2038 12.0971 5.50776 12 5.81946 12H10.5C10.7761 12 11 12.2239 11 12.5C11 12.7761 10.7761 13 10.5 13H5.81946C5.71556 13 5.61424 13.0324 5.52958 13.0926L2.57975 15.1915C1.9177 15.6626 1 15.1893 1 14.3767V5.5Z" fill="black"/>
<path d="M10.3536 4.64645C10.5488 4.84171 10.5488 5.15829 10.3536 5.35355L9.70712 6H15.5C15.7762 6 16 6.22386 16 6.5C16 6.77614 15.7762 7 15.5 7H9.70712L10.3536 7.64645C10.5488 7.84171 10.5488 8.15829 10.3536 8.35355C10.1583 8.54882 9.84172 8.54882 9.64646 8.35355L7.79291 6.5L9.64646 4.64645C9.84172 4.45118 10.1583 4.45118 10.3536 4.64645Z" fill="black"/>
<path d="M13.1464 9.35355C12.9512 9.15829 12.9512 8.84171 13.1464 8.64645C13.3417 8.45118 13.6583 8.45118 13.8535 8.64645L15.7071 10.5L13.8535 12.3536C13.6583 12.5488 13.3417 12.5488 13.1464 12.3536C12.9512 12.1583 12.9512 11.8417 13.1464 11.6464L13.7929 11H7.99999C7.72384 11 7.49999 10.7761 7.49999 10.5C7.49999 10.2239 7.72384 10 7.99999 10H13.7929L13.1464 9.35355Z" fill="black"/>
</g>
</g>
<defs>
<clipPath id="clip0">
<rect width="16" height="16" fill="white"/>
</clipPath>
</defs>
</svg>
