<svg width="24" height="24" viewBox="0 0 24 24" fill="none" xmlns="http://www.w3.org/2000/svg">
<path d="M2 8.5C2 6.567 3.567 5 5.5 5H18.5C19.5366 5 20.4685 5.4513 21.1087 6.16654C21.2928 6.37231 21.2753 6.6884 21.0696 6.87257C20.8638 7.05673 20.5477 7.03922 20.3635 6.83346C19.9051 6.3212 19.2404 6 18.5 6H5.5C4.11929 6 3 7.11929 3 8.5V20.5956C3 20.9985 3.45217 21.236 3.78386 21.0072L7.67408 18.3243C7.92449 18.1517 8.22149 18.0592 8.52567 18.0592H18.5C18.7761 18.0592 19 18.283 19 18.5592C19 18.8353 18.7761 19.0592 18.5 19.0592H8.52567C8.42428 19.0592 8.32528 19.09 8.24181 19.1476L4.35159 21.8304C3.35652 22.5167 2 21.8044 2 20.5956V8.5Z" fill="black"/>
<path d="M16.3536 7.14645C16.5488 7.34171 16.5488 7.65829 16.3536 7.85355L15.2071 9H23C23.2762 9 23.5 9.22386 23.5 9.5C23.5 9.77614 23.2762 10 23 10H15.2071L16.3536 11.1464C16.5488 11.3417 16.5488 11.6583 16.3536 11.8536C16.1583 12.0488 15.8417 12.0488 15.6465 11.8536L13.2929 9.5L15.6465 7.14645C15.8417 6.95118 16.1583 6.95118 16.3536 7.14645Z" fill="black"/>
<path d="M20.6465 12.8536C20.4512 12.6583 20.4512 12.3417 20.6465 12.1464C20.8417 11.9512 21.1583 11.9512 21.3536 12.1464L23.7071 14.5L21.3536 16.8536C21.1583 17.0488 20.8417 17.0488 20.6465 16.8536C20.4512 16.6583 20.4512 16.3417 20.6465 16.1464L21.7929 15H14C13.7239 15 13.5 14.7761 13.5 14.5C13.5 14.2239 13.7239 14 14 14H21.7929L20.6465 12.8536Z" fill="black"/>
</svg>
