<svg width="32" height="32" viewBox="0 0 32 32" fill="none" xmlns="http://www.w3.org/2000/svg">
<g opacity="0.9">
<path d="M4 10.5C4 8.567 5.567 7 7.5 7H24.5C26.0247 7 27.3205 7.97466 27.8007 9.33338C27.8927 9.59373 27.7563 9.8794 27.4959 9.97142C27.2356 10.0634 26.9499 9.92698 26.8579 9.66662C26.5144 8.69496 25.5877 8 24.5 8H7.5C6.11929 8 5 9.11929 5 10.5V25.8835C5 26.2733 5.42611 26.5131 5.75933 26.311L11.2173 23H24.5C25.3691 23 26.1349 22.5569 26.5836 21.8821C26.7365 21.6521 27.0469 21.5896 27.2768 21.7425C27.5068 21.8954 27.5693 22.2058 27.4164 22.4357C26.7902 23.3775 25.7179 24 24.5 24H11.4969L6.27799 27.166C5.27834 27.7724 4 27.0527 4 25.8835V10.5Z" fill="black"/>
<path d="M22.3536 10.1464C22.5488 10.3417 22.5488 10.6583 22.3536 10.8536L21.2071 12H31C31.2762 12 31.5 12.2239 31.5 12.5C31.5 12.7761 31.2762 13 31 13H21.2071L22.3536 14.1464C22.5488 14.3417 22.5488 14.6583 22.3536 14.8536C22.1583 15.0488 21.8417 15.0488 21.6465 14.8536L19.2929 12.5L21.6465 10.1464C21.8417 9.95118 22.1583 9.95118 22.3536 10.1464Z" fill="black"/>
<path d="M28.6464 16.8536C28.4512 16.6583 28.4512 16.3417 28.6464 16.1464C28.8417 15.9512 29.1583 15.9512 29.3535 16.1464L31.7071 18.5L29.3535 20.8536C29.1583 21.0488 28.8417 21.0488 28.6464 20.8536C28.4512 20.6583 28.4512 20.3417 28.6464 20.1464L29.7929 19H20C19.7238 19 19.5 18.7761 19.5 18.5C19.5 18.2239 19.7238 18 20 18H29.7929L28.6464 16.8536Z" fill="black"/>
</g>
</svg>
