<svg width="16" height="16" viewBox="0 0 16 16" fill="none" xmlns="http://www.w3.org/2000/svg">
<g opacity="0.9">
<path d="M2 3C1.44772 3 1 2.55228 1 2C1 1.44772 1.44772 1 2 1C2.55228 1 3 1.44772 3 2C3 2.55228 2.55228 3 2 3Z" fill="black"/>
<path d="M4 8C4 8.55228 4.44772 9 5 9H7V11C7 11.5523 7.44772 12 8 12C8.55228 12 9 11.5523 9 11V9H11C11.5523 9 12 8.55228 12 8C12 7.44771 11.5523 7 11 7H9V5C9 4.44772 8.55228 4 8 4C7.44771 4 7 4.44772 7 5V7H5C4.44772 7 4 7.44771 4 8Z" fill="black"/>
<path d="M1 14C1 14.5523 1.44772 15 2 15C2.55228 15 3 14.5523 3 14C3 13.4477 2.55228 13 2 13C1.44772 13 1 13.4477 1 14Z" fill="black"/>
<path d="M10 3C9.44772 3 9 2.55228 9 2C9 1.44772 9.44772 1 10 1C10.5523 1 11 1.44772 11 2C11 2.55228 10.5523 3 10 3Z" fill="black"/>
<path d="M9 14C9 14.5523 9.44772 15 10 15C10.5523 15 11 14.5523 11 14C11 13.4477 10.5523 13 10 13C9.44772 13 9 13.4477 9 14Z" fill="black"/>
<path d="M6 3C5.44772 3 5 2.55228 5 2C5 1.44772 5.44772 1 6 1C6.55228 1 7 1.44772 7 2C7 2.55228 6.55228 3 6 3Z" fill="black"/>
<path d="M5 14C5 14.5523 5.44772 15 6 15C6.55228 15 7 14.5523 7 14C7 13.4477 6.55228 13 6 13C5.44772 13 5 13.4477 5 14Z" fill="black"/>
<path d="M13 10C13 9.44771 13.4477 9 14 9C14.5523 9 15 9.44772 15 10C15 10.5523 14.5523 11 14 11C13.4477 11 13 10.5523 13 10Z" fill="black"/>
<path d="M2 9C1.44772 9 1 9.44771 1 10C1 10.5523 1.44772 11 2 11C2.55228 11 3 10.5523 3 10C3 9.44772 2.55228 9 2 9Z" fill="black"/>
<path d="M13 6C13 5.44772 13.4477 5 14 5C14.5523 5 15 5.44772 15 6C15 6.55228 14.5523 7 14 7C13.4477 7 13 6.55228 13 6Z" fill="black"/>
<path d="M2 5C1.44772 5 1 5.44772 1 6C1 6.55228 1.44772 7 2 7C2.55228 7 3 6.55228 3 6C3 5.44772 2.55228 5 2 5Z" fill="black"/>
<path d="M14 3C13.4477 3 13 2.55228 13 2C13 1.44772 13.4477 1 14 1C14.5523 1 15 1.44772 15 2C15 2.55228 14.5523 3 14 3Z" fill="black"/>
<path d="M13 14C13 14.5523 13.4477 15 14 15C14.5523 15 15 14.5523 15 14C15 13.4477 14.5523 13 14 13C13.4477 13 13 13.4477 13 14Z" fill="black"/>
</g>
</svg>
