<svg width="32" height="32" viewBox="0 0 32 32" fill="none" xmlns="http://www.w3.org/2000/svg">
<g opacity="0.9">
<path d="M4 5C3.44772 5 3 4.55228 3 4C3 3.44772 3.44772 3 4 3C4.55228 3 5 3.44772 5 4C5 4.55228 4.55228 5 4 5Z" fill="black"/>
<path d="M17 9C17 8.44772 16.5523 8 16 8C15.4477 8 15 8.44772 15 9V15H9C8.44771 15 8 15.4477 8 16C8 16.5523 8.44771 17 9 17H15V23C15 23.5523 15.4477 24 16 24C16.5523 24 17 23.5523 17 23V17H23C23.5523 17 24 16.5523 24 16C24 15.4477 23.5523 15 23 15H17V9Z" fill="black"/>
<path d="M3 12C3 12.5523 3.44772 13 4 13C4.55228 13 5 12.5523 5 12C5 11.4477 4.55228 11 4 11C3.44772 11 3 11.4477 3 12Z" fill="black"/>
<path d="M4 21C3.44772 21 3 20.5523 3 20C3 19.4477 3.44772 19 4 19C4.55228 19 5 19.4477 5 20C5 20.5523 4.55228 21 4 21Z" fill="black"/>
<path d="M3 28C3 28.5523 3.44772 29 4 29C4.55228 29 5 28.5523 5 28C5 27.4477 4.55228 27 4 27C3.44772 27 3 27.4477 3 28Z" fill="black"/>
<path d="M20 5C19.4477 5 19 4.55228 19 4C19 3.44772 19.4477 3 20 3C20.5523 3 21 3.44772 21 4C21 4.55228 20.5523 5 20 5Z" fill="black"/>
<path d="M19 28C19 28.5523 19.4477 29 20 29C20.5523 29 21 28.5523 21 28C21 27.4477 20.5523 27 20 27C19.4477 27 19 27.4477 19 28Z" fill="black"/>
<path d="M12 5C11.4477 5 11 4.55228 11 4C11 3.44772 11.4477 3 12 3C12.5523 3 13 3.44772 13 4C13 4.55228 12.5523 5 12 5Z" fill="black"/>
<path d="M11 28C11 28.5523 11.4477 29 12 29C12.5523 29 13 28.5523 13 28C13 27.4477 12.5523 27 12 27C11.4477 27 11 27.4477 11 28Z" fill="black"/>
<path d="M28 5C27.4477 5 27 4.55228 27 4C27 3.44772 27.4477 3 28 3C28.5523 3 29 3.44772 29 4C29 4.55228 28.5523 5 28 5Z" fill="black"/>
<path d="M27 12C27 12.5523 27.4477 13 28 13C28.5523 13 29 12.5523 29 12C29 11.4477 28.5523 11 28 11C27.4477 11 27 11.4477 27 12Z" fill="black"/>
<path d="M28 21C27.4477 21 27 20.5523 27 20C27 19.4477 27.4477 19 28 19C28.5523 19 29 19.4477 29 20C29 20.5523 28.5523 21 28 21Z" fill="black"/>
<path d="M27 28C27 28.5523 27.4477 29 28 29C28.5523 29 29 28.5523 29 28C29 27.4477 28.5523 27 28 27C27.4477 27 27 27.4477 27 28Z" fill="black"/>
</g>
</svg>
