<svg width="24" height="24" viewBox="0 0 24 24" fill="none" xmlns="http://www.w3.org/2000/svg">
<path opacity="0.9" fill-rule="evenodd" clip-rule="evenodd" d="M8.5 2C8.77614 2 9 2.22386 9 2.5L9 6.5H15V2.5C15 2.22386 15.2239 2 15.5 2C15.7761 2 16 2.22386 16 2.5V6.5H17.5C18.0523 6.5 18.5 6.94772 18.5 7.5V11.5C18.5 14.6453 16.0798 17.2254 13 17.4795V21C13 21.5523 12.5523 22 12 22C11.4477 22 11 21.5523 11 21L11 17.4795C7.92023 17.2254 5.5 14.6453 5.5 11.5V7.5C5.5 6.94771 5.94772 6.5 6.5 6.5H8L8 2.5C8 2.22386 8.22386 2 8.5 2ZM11.1604 11.137V11.4779L11.7453 11.6183L11.1038 14.7266C11.0723 14.8803 11.0472 15.0207 11.0283 15.1477C11.0094 15.2747 11 15.4051 11 15.5388C11 15.6524 11.044 15.7594 11.1321 15.8596C11.2264 15.9532 11.3931 16 11.6321 16C11.7453 16 11.8648 15.9866 11.9906 15.9599C12.1164 15.9398 12.239 15.9098 12.3585 15.8697C12.4843 15.8295 12.6006 15.7828 12.7075 15.7293C12.8208 15.6758 12.9182 15.619 13 15.5588V15.2179H12.3396L13.1887 10.8964L13.0189 10.7761C12.8868 10.7761 12.7327 10.7894 12.5566 10.8162C12.3868 10.8362 12.2138 10.863 12.0377 10.8964C11.8616 10.9298 11.695 10.9699 11.5377 11.0167C11.3805 11.0568 11.2547 11.0969 11.1604 11.137ZM12.1698 8.69051C12.0252 8.81751 11.9528 8.99465 11.9528 9.22192C11.9528 9.43583 12.0252 9.60628 12.1698 9.73329C12.3145 9.86029 12.4969 9.9238 12.717 9.9238C12.956 9.9238 13.1447 9.86029 13.283 9.73329C13.4277 9.60628 13.5 9.43583 13.5 9.22192C13.5 8.99465 13.4277 8.81751 13.283 8.69051C13.1447 8.5635 12.956 8.5 12.717 8.5C12.4969 8.5 12.3145 8.5635 12.1698 8.69051Z" fill="black"/>
</svg>
