<svg width="32" height="32" viewBox="0 0 32 32" fill="none" xmlns="http://www.w3.org/2000/svg">
<g opacity="0.9">
<path fill-rule="evenodd" clip-rule="evenodd" d="M14.2929 4.79289C14.6834 4.40237 15.3166 4.40237 15.7071 4.79289L26.2071 15.2929C26.5976 15.6834 26.5976 16.3166 26.2071 16.7071L15.7071 27.2071C15.3166 27.5976 14.6834 27.5976 14.2929 27.2071C13.9024 26.8166 13.9024 26.1834 14.2929 25.7929L24.0858 16L14.2929 6.20711C13.9024 5.81658 13.9024 5.18342 14.2929 4.79289Z" fill="black"/>
<path fill-rule="evenodd" clip-rule="evenodd" d="M6.29289 4.79289C6.68342 4.40237 7.31658 4.40237 7.70711 4.79289L18.2071 15.2929C18.5976 15.6834 18.5976 16.3166 18.2071 16.7071L7.70711 27.2071C7.31658 27.5976 6.68342 27.5976 6.29289 27.2071C5.90237 26.8166 5.90237 26.1834 6.29289 25.7929L16.0858 16L6.29289 6.20711C5.90237 5.81658 5.90237 5.18342 6.29289 4.79289Z" fill="black"/>
</g>
</svg>
