<svg width="32" height="32" viewBox="0 0 32 32" fill="none" xmlns="http://www.w3.org/2000/svg">
<g opacity="0.9">
<path fill-rule="evenodd" clip-rule="evenodd" d="M14.6464 5.14645C14.8417 4.95118 15.1583 4.95118 15.3536 5.14645L25.8536 15.6464C26.0488 15.8417 26.0488 16.1583 25.8536 16.3536L15.3536 26.8536C15.1583 27.0488 14.8417 27.0488 14.6464 26.8536C14.4512 26.6583 14.4512 26.3417 14.6464 26.1464L24.7929 16L14.6464 5.85355C14.4512 5.65829 14.4512 5.34171 14.6464 5.14645Z" fill="black"/>
<path fill-rule="evenodd" clip-rule="evenodd" d="M6.64645 5.14645C6.84171 4.95118 7.15829 4.95118 7.35355 5.14645L17.8536 15.6464C18.0488 15.8417 18.0488 16.1583 17.8536 16.3536L7.35355 26.8536C7.15829 27.0488 6.84171 27.0488 6.64645 26.8536C6.45118 26.6583 6.45118 26.3417 6.64645 26.1464L16.7929 16L6.64645 5.85355C6.45118 5.65829 6.45118 5.34171 6.64645 5.14645Z" fill="black"/>
</g>
</svg>
