<svg width="16" height="16" viewBox="0 0 16 16" fill="none" xmlns="http://www.w3.org/2000/svg">
<g opacity="0.9">
<path d="M6 6.80924V9.19121C6 9.5629 6.39116 9.80464 6.72361 9.63842L9.10557 8.44744C9.4741 8.26317 9.4741 7.73727 9.10557 7.55301L6.72361 6.36203C6.39116 6.1958 6 6.43755 6 6.80924Z" fill="black"/>
<path fill-rule="evenodd" clip-rule="evenodd" d="M2.5 2C1.67157 2 1 2.67157 1 3.5V12.5C1 13.3284 1.67157 14 2.5 14H13.5C14.3284 14 15 13.3284 15 12.5V3.5C15 2.67157 14.3284 2 13.5 2H2.5ZM2 3.5C2 3.22386 2.22386 3 2.5 3L3 3V4H4V3L6 3V4H7V3L9 3V4H10V3L12 3V4H13V3H13.5C13.7761 3 14 3.22386 14 3.5V12.5C14 12.7761 13.7761 13 13.5 13H13V12H12V13H10V12H9V13H7V12H6V13H4V12H3V13H2.5C2.22386 13 2 12.7761 2 12.5V3.5Z" fill="black"/>
</g>
</svg>
