<svg width="16" height="16" viewBox="0 0 16 16" fill="none" xmlns="http://www.w3.org/2000/svg">
<g opacity="0.9">
<path fill-rule="evenodd" clip-rule="evenodd" d="M1 2.5C1 2.22386 0.776142 2 0.5 2C0.223858 2 0 2.22386 0 2.5V14.5006C0 14.5006 0 14.5006 0 14.5006V15H0.487619C0.496281 15.0002 0.504911 15.0002 0.513505 15H14.5C14.7761 15 15 14.7761 15 14.5C15 14.2239 14.7761 14 14.5 14H1.11303C1.16624 13.751 1.23627 13.4337 1.322 13.0676C1.5376 12.1467 1.85128 10.9213 2.2447 9.69556C2.6399 8.46428 3.10779 7.25751 3.62579 6.36066C3.8851 5.9117 4.14442 5.56269 4.39606 5.32834C4.64856 5.09319 4.85636 5.00681 5.02181 4.99961C5.32446 4.98645 5.61814 5.15419 5.95845 5.61572C6.28633 6.06037 6.57503 6.66599 6.89738 7.34219L7.00435 7.56621C7.01871 7.67478 7.06791 7.77236 7.14035 7.84735C7.41449 8.407 7.71912 8.97787 8.08227 9.43728C8.54279 10.0199 9.15884 10.5001 10.0001 10.5001C10.9447 10.5001 11.7243 9.98651 12.3362 9.3236C12.7034 8.92585 13.0281 8.45586 13.3123 7.96355C13.3702 7.98705 13.4336 8 13.5 8H14.5C14.7761 8 15 7.77614 15 7.5C15 7.22386 14.7761 7 14.5 7H13.8104L13.8291 6.95961C14.2164 6.12034 14.5052 5.28531 14.6967 4.66275C14.7927 4.3507 14.8649 4.09021 14.9132 3.90689C14.9374 3.81519 14.9557 3.7427 14.968 3.69259L14.9821 3.6346L14.9858 3.61892L14.9868 3.61454L14.9873 3.61251C15.0494 3.34344 14.8816 3.07498 14.6125 3.01289C14.3435 2.95081 14.075 3.11901 14.0128 3.388L14.0122 3.39067L14.0093 3.40287L13.997 3.45357C13.9859 3.49869 13.969 3.56584 13.9463 3.65187C13.9009 3.82402 13.8324 4.07134 13.741 4.36867C13.5575 4.96486 13.2838 5.75483 12.9211 6.54056C12.5562 7.33111 12.1134 8.09065 11.6014 8.64532C11.0884 9.20116 10.5555 9.50009 10.0001 9.50009C9.59134 9.50009 9.23328 9.28081 8.86677 8.81715C8.68149 8.58275 8.50991 8.30576 8.34297 8H8.5C8.77614 8 9 7.77614 9 7.5C9 7.22386 8.77614 7 8.5 7H7.84208L7.78269 6.87533C7.47725 6.23383 7.15023 5.54697 6.7633 5.02224C6.34983 4.46151 5.77925 3.96574 4.97837 4.00056C4.48951 4.02181 4.06595 4.26927 3.71453 4.59655C3.36225 4.92463 3.04509 5.36665 2.75985 5.86052C2.55896 6.20833 2.36767 6.59293 2.18655 7H1.5C1.22386 7 1 7.22386 1 7.5V2.5ZM1 10.3468V7.5C1 7.77614 1.22386 8 1.5 8H1.77657C1.60322 8.45652 1.44165 8.9254 1.29255 9.38995C1.18949 9.71104 1.09188 10.0317 1 10.3468ZM14.9873 3.61251L14.5001 3.50009C14.9873 3.61251 14.9873 3.61236 14.9873 3.61251Z" fill="black"/>
<path d="M4 7.5C4 7.22386 4.22386 7 4.5 7H5.5C5.77614 7 6 7.22386 6 7.5C6 7.77614 5.77614 8 5.5 8H4.5C4.22386 8 4 7.77614 4 7.5Z" fill="black"/>
<path d="M10 7.5C10 7.22386 10.2239 7 10.5 7H11.5C11.7761 7 12 7.22386 12 7.5C12 7.77614 11.7761 8 11.5 8H10.5C10.2239 8 10 7.77614 10 7.5Z" fill="black"/>
</g>
</svg>
