<svg width="32" height="32" viewBox="0 0 32 32" fill="none" xmlns="http://www.w3.org/2000/svg">
<path opacity="0.9" fill-rule="evenodd" clip-rule="evenodd" d="M4 6.5C4 6.22386 3.77614 6 3.5 6C3.22386 6 3 6.22386 3 6.5V27.5V28H3.49367L3.5 28H27.5C27.7416 28 27.9432 27.8286 27.9898 27.6008C27.9965 27.5682 28 27.5345 28 27.5L28 27.5V16.5V8.00004C28 7.14591 27.8085 7.03054 27.5539 7.00295C27.0873 7.00048 27.0402 7.2196 26.9525 7.62761L26.9525 7.62769C26.9357 7.70576 26.9174 7.79074 26.8945 7.88241C26.8154 8.19772 26.6966 8.64949 26.538 9.19212C26.2202 10.2789 25.745 11.723 25.1135 13.1629C24.6759 14.1608 24.1689 15.1435 23.5954 16H23.5C23.2239 16 23 16.2239 23 16.5C23 16.5855 23.0215 16.666 23.0593 16.7364C22.9692 16.8496 22.8777 16.9593 22.7848 17.0652C21.8662 18.1126 20.8666 18.7273 19.7857 18.7273C18.9322 18.7273 18.2264 18.2555 17.5638 17.411C17.4371 17.2495 17.3143 17.0772 17.1945 16.8958C17.279 16.9611 17.385 17 17.5 17H18.5C18.7761 17 19 16.7761 19 16.5C19 16.2239 18.7761 16 18.5 16H17.5C17.2239 16 17 16.2239 17 16.5C17 16.5374 17.0041 16.5738 17.0119 16.6088C16.5728 15.8937 16.1711 15.0621 15.7636 14.2012L15.6675 13.998C15.1389 12.8797 14.5924 11.7235 13.9506 10.8465C13.2687 9.91472 12.3893 9.17536 11.1924 9.22779C10.4638 9.25971 9.81296 9.64202 9.24748 10.1876C8.68044 10.7347 8.15833 11.4842 7.67933 12.3439C7.0885 13.4042 6.54423 14.6672 6.05267 16H5.5C5.22386 16 5 16.2239 5 16.5C5 16.7761 5.22386 17 5.5 17H5.69761C5.52298 17.5103 5.356 18.0258 5.19699 18.5395C4.72936 20.0503 4.3272 21.5568 4 22.8873V6.5ZM28 16.5C28 16.7761 27.7761 17 27.5 17H26.5C26.2239 17 26 16.7761 26 16.5C26 16.2239 26.2239 16 26.5 16H27.5C27.7761 16 28 16.2239 28 16.5ZM20 16.5C20 16.2239 20.2239 16 20.5 16H21.5C21.7761 16 22 16.2239 22 16.5C22 16.7761 21.7761 17 21.5 17H20.5C20.2239 17 20 16.7761 20 16.5ZM8.5 16C8.22386 16 8 16.2239 8 16.5C8 16.7761 8.22386 17 8.5 17H9.5C9.77614 17 10 16.7761 10 16.5C10 16.2239 9.77614 16 9.5 16H8.5ZM11.5 16C11.2239 16 11 16.2239 11 16.5C11 16.7761 11.2239 17 11.5 17H12.5C12.7761 17 13 16.7761 13 16.5C13 16.2239 12.7761 16 12.5 16H11.5ZM14.5 16C14.2239 16 14 16.2239 14 16.5C14 16.7761 14.2239 17 14.5 17H15.5C15.7761 17 16 16.7761 16 16.5C16 16.2239 15.7761 16 15.5 16H14.5ZM24 16C23.7239 16 23.5 16.2239 23.5 16.5C23.5 16.7761 23.7239 17 24 17H24.5C24.7761 17 25 16.7761 25 16.5C25 16.2239 24.7761 16 24.5 16H24Z" fill="black"/>
</svg>
