<svg width="32" height="32" viewBox="0 0 32 32" fill="none" xmlns="http://www.w3.org/2000/svg">
<path opacity="0.9" fill-rule="evenodd" clip-rule="evenodd" d="M4 10C4 8.34315 5.34315 7 7 7H25C26.6569 7 28 8.34315 28 10V22C28 23.6569 26.6569 25 25 25H7C5.34315 25 4 23.6569 4 22V10ZM7 8H25C25.3526 8 25.6839 8.09125 25.9716 8.25142L16 14.8991L6.02844 8.25142C6.31609 8.09125 6.64739 8 7 8ZM5.29052 8.96133C5.10618 9.26407 5 9.61964 5 10V22C5 23.1046 5.89543 24 7 24H25C26.1046 24 27 23.1046 27 22V10C27 9.61963 26.8938 9.26406 26.7095 8.96132L16.2773 15.9161C16.1094 16.028 15.8906 16.028 15.7226 15.9161L5.29052 8.96133Z" fill="black"/>
</svg>
