<svg width="24" height="24" viewBox="0 0 24 24" fill="none" xmlns="http://www.w3.org/2000/svg">
<g opacity="0.9">
<path d="M16.8536 8.85355C17.0488 8.65829 17.0488 8.34171 16.8536 8.14645C16.6583 7.95118 16.3417 7.95118 16.1465 8.14645L11 13.2929L8.85357 11.1464C8.65831 10.9512 8.34172 10.9512 8.14646 11.1464C7.9512 11.3417 7.9512 11.6583 8.14646 11.8536L10.2929 14C10.6834 14.3905 11.3166 14.3905 11.7071 14L16.8536 8.85355Z" fill="black"/>
<path fill-rule="evenodd" clip-rule="evenodd" d="M12.4138 2.13895C12.1509 2.01944 11.8491 2.01944 11.5862 2.13895L4.5862 5.32078C4.22642 5.48431 3.99868 5.84609 4.00093 6.23726C4.02164 9.82927 4.39034 12.4403 5.51245 14.7832C6.63293 17.1227 8.47984 19.1426 11.3497 21.603C11.7224 21.9226 12.2775 21.9226 12.6502 21.603C15.5201 19.1426 17.367 17.1227 18.4875 14.7832C19.6097 12.4403 19.9784 9.82928 19.9991 6.23726C20.0013 5.84609 19.7736 5.48431 19.4138 5.32078L12.4138 2.13895ZM12 3.04932L19 6.23114C18.9796 9.76727 18.6137 12.2048 17.5856 14.3513C16.5561 16.5008 14.8369 18.411 12.0007 20.8426C12.001 20.8426 12.0005 20.8427 12.0007 20.8426C12.0004 20.8426 11.9994 20.8427 11.9992 20.8426C9.16311 18.411 7.44384 16.5008 6.41435 14.3513C5.38632 12.2048 5.0213 9.76762 5.00092 6.23149L12 3.04932ZM11.9992 20.8426C11.9977 20.8415 11.9978 20.8425 11.9992 20.8426L12 20.8433L12.0007 20.8426C12.0022 20.8425 12.0023 20.8415 12.0007 20.8426L12 20.8433L11.9992 20.8426Z" fill="black"/>
</g>
</svg>
