<svg width="24" height="24" viewBox="0 0 24 24" fill="none" xmlns="http://www.w3.org/2000/svg">
<path opacity="0.9" fill-rule="evenodd" clip-rule="evenodd" d="M11.5862 2.13895C11.8491 2.01944 12.1509 2.01944 12.4138 2.13895L19.4138 5.32078C19.7736 5.48431 20.0013 5.84609 19.9991 6.23726C19.9784 9.82928 19.6097 12.4403 18.4875 14.7832C17.367 17.1227 15.5201 19.1426 12.6502 21.603C12.2775 21.9226 11.7224 21.9226 11.3497 21.603C8.47984 19.1426 6.63293 17.1227 5.51245 14.7832C4.39034 12.4403 4.02164 9.82927 4.00093 6.23726C3.99868 5.84609 4.22642 5.48431 4.5862 5.32078L11.5862 2.13895ZM16.8536 8.85355C17.0488 8.65829 17.0488 8.34171 16.8536 8.14645C16.6583 7.95118 16.3417 7.95118 16.1465 8.14645L11 13.2929L8.85356 11.1464C8.6583 10.9512 8.34172 10.9512 8.14645 11.1464C7.95119 11.3417 7.95119 11.6583 8.14645 11.8536L10.2929 14C10.6834 14.3905 11.3166 14.3905 11.7071 14L16.8536 8.85355Z" fill="black"/>
</svg>
