<svg width="32" height="32" viewBox="0 0 32 32" fill="none" xmlns="http://www.w3.org/2000/svg">
<path opacity="0.9" fill-rule="evenodd" clip-rule="evenodd" d="M15.5866 4.13876C15.8493 4.0195 16.1507 4.0195 16.4134 4.13876L25.4134 8.22467C25.7741 8.38845 26.001 8.7513 25.9993 9.14135C25.9785 13.7262 25.5142 17.0222 24.0936 19.9718C22.6748 22.9175 20.3272 25.4647 16.6502 28.6039C16.2776 28.922 15.7224 28.922 15.3498 28.6039C11.6728 25.4647 9.32523 22.9175 7.90643 19.9718C6.48577 17.0222 6.02153 13.7262 6.00074 9.14135C5.99897 8.75131 6.22586 8.38845 6.58662 8.22467L15.5866 4.13876ZM13.792 18.4989C14.1829 18.8898 14.8171 18.8898 15.208 18.4989L21.854 11.853C22.0493 11.6578 22.0491 11.3414 21.8536 11.1464C21.6581 10.9513 21.3413 10.9515 21.146 11.1468L14.5 17.7927L11.854 15.1466C11.6588 14.9513 11.342 14.9511 11.1465 15.1462C10.951 15.3412 10.9508 15.6576 11.146 15.8528L13.792 18.4989Z" fill="black"/>
</svg>
