<svg width="32" height="32" viewBox="0 0 32 32" fill="none" xmlns="http://www.w3.org/2000/svg">
<g opacity="0.9">
<path d="M13.792 18.4989C14.1829 18.8898 14.8171 18.8898 15.208 18.4989L21.854 11.853C22.0492 11.6578 22.049 11.3414 21.8535 11.1464C21.658 10.9513 21.3413 10.9515 21.146 11.1468L14.5 17.7927L11.854 15.1466C11.6587 14.9513 11.3419 14.9511 11.1464 15.1462C10.9509 15.3412 10.9507 15.6576 11.146 15.8528L13.792 18.4989Z" fill="black"/>
<path fill-rule="evenodd" clip-rule="evenodd" d="M16.4134 4.13827C16.1507 4.01901 15.8493 4.01901 15.5866 4.13827L6.58661 8.22418C6.22585 8.38796 5.99896 8.75082 6.00073 9.14086C6.02152 13.7257 6.48575 17.0217 7.90641 19.9713C9.32521 22.917 11.6727 25.4642 15.3498 28.6034C15.7224 28.9215 16.2776 28.9215 16.6502 28.6034C20.3272 25.4642 22.6747 22.917 24.0935 19.9713C25.5142 17.0217 25.9785 13.7257 25.9993 9.14086C26.001 8.75082 25.7741 8.38796 25.4134 8.22418L16.4134 4.13827ZM16 5.04883L24.9982 9.13393C24.9992 9.13552 24.9993 9.13669 24.9993 9.13633C24.9787 13.6661 24.5177 16.7863 23.1926 19.5373C21.8658 22.292 19.6475 24.7295 16.0021 27.8418L16 27.842C15.999 27.842 15.9983 27.8419 15.9978 27.8418C12.3524 24.7295 10.1341 22.292 8.80736 19.5374C7.48229 16.7863 7.02126 13.6661 7.00072 9.13633C7.00072 9.13638 7.00072 9.13633 7.00072 9.13633C7.00072 9.13633 7.00081 9.13546 7.00168 9.13408L16 5.04883ZM15.9978 27.8418C15.9973 27.8417 15.9978 27.8418 15.9978 27.8418C15.9978 27.8418 15.9978 27.8418 15.9991 27.8429C15.9987 27.8425 15.9982 27.8422 15.9978 27.8418Z" fill="black"/>
</g>
</svg>
