<svg width="16" height="16" viewBox="0 0 16 16" fill="none" xmlns="http://www.w3.org/2000/svg">
<g opacity="0.9">
<path d="M2.5 1H0V3.5C0 3.77614 0.223858 4 0.5 4C0.776142 4 1 3.77614 1 3.5V2H2.5C2.77614 2 3 1.77614 3 1.5C3 1.22386 2.77614 1 2.5 1Z" fill="black"/>
<path d="M16 3.5V1H13.5C13.2239 1 13 1.22386 13 1.5C13 1.77614 13.2239 2 13.5 2L15 2V3.5C15 3.77614 15.2239 4 15.5 4C15.7761 4 16 3.77614 16 3.5Z" fill="black"/>
<path d="M16 15H13.5C13.2239 15 13 14.7761 13 14.5C13 14.2239 13.2239 14 13.5 14H15V12.5C15 12.2239 15.2239 12 15.5 12C15.7761 12 16 12.2239 16 12.5V15Z" fill="black"/>
<path d="M0 12.5V15H2.5C2.77614 15 3 14.7761 3 14.5C3 14.2239 2.77614 14 2.5 14H1L1 12.5C1 12.2239 0.776143 12 0.5 12C0.223858 12 0 12.2239 0 12.5Z" fill="black"/>
<path d="M9.58266 7.6838C9.95407 7.2926 10.1819 6.76382 10.1819 6.18182C10.1819 4.97683 9.20512 4 8.00013 4C6.79515 4 5.81831 4.97683 5.81831 6.18182C5.81831 6.76382 6.0462 7.2926 6.4176 7.6838C5.24704 7.91285 4.36377 8.94418 4.36377 10.1818V11.6364C4.36377 11.8372 4.52658 12 4.72741 12H11.2729C11.4737 12 11.6365 11.8372 11.6365 11.6364V10.1818C11.6365 8.94418 10.7532 7.91285 9.58266 7.6838Z" fill="black"/>
<path d="M4.81818 6.18182C4.81818 5.48512 5.0421 4.84072 5.4219 4.31666C5.16756 4.11823 4.84759 4 4.5 4C3.67157 4 3 4.67157 3 5.5C3 5.90013 3.15667 6.26367 3.41201 6.53261C2.60725 6.69008 2 7.39913 2 8.25V9.25C2 9.38807 2.11193 9.5 2.25 9.5H3.4291C3.6163 8.5386 4.1919 7.71659 4.98588 7.20308C4.87721 6.88239 4.81818 6.53881 4.81818 6.18182Z" fill="black"/>
<path d="M11.0141 7.20308C11.8081 7.71659 12.3837 8.5386 12.5709 9.5H13.75C13.8881 9.5 14 9.38807 14 9.25V8.25C14 7.39913 13.3927 6.69008 12.588 6.53261C12.8433 6.26367 13 5.90013 13 5.5C13 4.67157 12.3284 4 11.5 4C11.1524 4 10.8324 4.11823 10.5781 4.31666C10.9579 4.84072 11.1818 5.48512 11.1818 6.18182C11.1818 6.53881 11.1228 6.88239 11.0141 7.20308Z" fill="black"/>
</g>
</svg>
