<svg width="24" height="24" viewBox="0 0 24 24" fill="none" xmlns="http://www.w3.org/2000/svg">
<g opacity="0.9">
<path d="M1 2H4.5C4.77614 2 5 2.22386 5 2.5C5 2.77614 4.77614 3 4.5 3H2V5.5C2 5.77614 1.77614 6 1.5 6C1.22386 6 1 5.77614 1 5.5V2Z" fill="black"/>
<path d="M7.5 6.5C7.5 6.22386 7.27614 6 7 6C5.6695 6 4.59091 7.07859 4.59091 8.40909C4.59091 9.06542 4.85337 9.66044 5.27906 10.0949C3.94136 10.6465 2.99982 11.9634 2.99982 13.5002V14.4547C2.99982 14.7309 3.22368 14.9547 3.49982 14.9547C3.77596 14.9547 3.99982 14.7309 3.99982 14.4547V13.5002C3.99982 12.0191 5.20051 10.8184 6.68164 10.8184C6.71581 10.8184 6.74918 10.8149 6.78143 10.8084C6.85342 10.8149 6.92632 10.8182 7 10.8182C7.27614 10.8182 7.5 10.5943 7.5 10.3182C7.5 10.042 7.27614 9.81818 7 9.81818C6.22178 9.81818 5.59091 9.18731 5.59091 8.40909C5.59091 7.63087 6.22178 7 7 7C7.27614 7 7.5 6.77614 7.5 6.5Z" fill="black"/>
<path fill-rule="evenodd" clip-rule="evenodd" d="M14.1041 11.6109C14.7756 11.0243 15.1998 10.1617 15.1998 9.2C15.1998 7.43269 13.7671 6 11.9998 6C10.2325 6 8.7998 7.43269 8.7998 9.2C8.7998 10.1617 9.22404 11.0243 9.89558 11.6109C7.38732 12.1222 5.5 14.3407 5.5 17V17.6C5.5 17.8761 5.72386 18.1 6 18.1C6.27614 18.1 6.5 17.8761 6.5 17.6V17C6.5 14.5147 8.51472 12.5 11 12.5H13C15.4853 12.5 17.5 14.5147 17.5 17V17.6C17.5 17.8761 17.7239 18.1 18 18.1C18.2761 18.1 18.5 17.8761 18.5 17.6V17C18.5 14.3406 16.6125 12.122 14.1041 11.6109ZM14.1998 9.2C14.1998 10.415 13.2148 11.4 11.9998 11.4C10.7848 11.4 9.7998 10.415 9.7998 9.2C9.7998 7.98497 10.7848 7 11.9998 7C13.2148 7 14.1998 7.98497 14.1998 9.2Z" fill="black"/>
<path d="M16.5 6.5C16.5 6.22386 16.7239 6 17 6C18.3305 6 19.4091 7.07859 19.4091 8.40909C19.4091 9.06542 19.1466 9.66044 18.7209 10.0949C20.0586 10.6465 21.0002 11.9634 21.0002 13.5002V14.4547C21.0002 14.7309 20.7763 14.9547 20.5002 14.9547C20.224 14.9547 20.0002 14.7309 20.0002 14.4547V13.5002C20.0002 12.0191 18.7995 10.8184 17.3184 10.8184C17.2842 10.8184 17.2508 10.8149 17.2186 10.8084C17.1466 10.8149 17.0737 10.8182 17 10.8182C16.7239 10.8182 16.5 10.5943 16.5 10.3182C16.5 10.042 16.7239 9.81818 17 9.81818C17.7782 9.81818 18.4091 9.18731 18.4091 8.40909C18.4091 7.63087 17.7782 7 17 7C16.7239 7 16.5 6.77614 16.5 6.5Z" fill="black"/>
<path d="M23 5.5V2H19.5C19.2239 2 19 2.22386 19 2.5C19 2.77614 19.2239 3 19.5 3L22 3V5.5C22 5.77614 22.2239 6 22.5 6C22.7761 6 23 5.77614 23 5.5Z" fill="black"/>
<path d="M23 22H19.5C19.2239 22 19 21.7761 19 21.5C19 21.2239 19.2239 21 19.5 21H22V18.5C22 18.2239 22.2239 18 22.5 18C22.7761 18 23 18.2239 23 18.5V22Z" fill="black"/>
<path d="M1 18.5V22H4.5C4.77614 22 5 21.7761 5 21.5C5 21.2239 4.77614 21 4.5 21H2L2 18.5C2 18.2239 1.77614 18 1.5 18C1.22386 18 1 18.2239 1 18.5Z" fill="black"/>
</g>
</svg>
