<svg width="32" height="32" viewBox="0 0 32 32" fill="none" xmlns="http://www.w3.org/2000/svg">
<g opacity="0.9">
<path d="M3 4H7.5C7.77614 4 8 4.22386 8 4.5C8 4.77614 7.77614 5 7.5 5H4V8.5C4 8.77614 3.77614 9 3.5 9C3.22386 9 3 8.77614 3 8.5V4Z" fill="black"/>
<path d="M21 8C21 7.72386 21.2239 7.5 21.5 7.5C22.9502 7.5 24 8.84361 24 10.3333C24 11.1035 23.7194 11.8346 23.248 12.3612C25.4111 12.9697 27.0002 14.9392 27.0002 17.2824V18.667C27.0002 18.9431 26.7763 19.167 26.5002 19.167C26.224 19.167 26.0002 18.9431 26.0002 18.667V17.2824C26.0002 15.0147 24.1399 13.167 21.8335 13.167C21.7968 13.167 21.7611 13.163 21.7267 13.1556C21.6523 13.1629 21.5767 13.1667 21.5 13.1667C21.2239 13.1667 21 12.9428 21 12.6667C21 12.3905 21.2239 12.1667 21.5 12.1667C22.2589 12.1667 23 11.4209 23 10.3333C23 9.24572 22.2589 8.5 21.5 8.5C21.2239 8.5 21 8.27614 21 8Z" fill="black"/>
<path fill-rule="evenodd" clip-rule="evenodd" d="M15.9999 8C13.7617 8 11.9473 9.81442 11.9473 12.0526C11.9473 13.3185 12.5277 14.4488 13.4368 15.192C10.3527 15.6994 8 18.3777 8 21.6055V23.5002C8 23.7763 8.22386 24.0002 8.5 24.0002C8.77614 24.0002 9 23.7763 9 23.5002V21.6055C9 18.5679 11.4624 16.1055 14.5 16.1055H17.5C20.5376 16.1055 23 18.5679 23 21.6055V23.5002C23 23.7763 23.2239 24.0002 23.5 24.0002C23.7761 24.0002 24 23.7763 24 23.5002V21.6055C24 18.3776 21.6472 15.6993 18.563 15.192C19.4722 14.4488 20.0525 13.3185 20.0525 12.0526C20.0525 9.81442 18.2381 8 15.9999 8ZM12.9473 12.0526C12.9473 10.3667 14.314 9 15.9999 9C17.6858 9 19.0525 10.3667 19.0525 12.0526C19.0525 13.7386 17.6858 15.1053 15.9999 15.1053C14.314 15.1053 12.9473 13.7386 12.9473 12.0526Z" fill="black"/>
<path d="M11 8C11 7.72386 10.7761 7.5 10.5 7.5C9.04976 7.5 8 8.84361 8 10.3333C8 11.1035 8.28057 11.8346 8.752 12.3612C6.58885 12.9697 4.99984 14.9392 4.99984 17.2824V18.667C4.99984 18.9431 5.22369 19.167 5.49984 19.167C5.77598 19.167 5.99984 18.9431 5.99984 18.667V17.2824C5.99984 15.0147 7.86009 13.167 10.1665 13.167C10.2032 13.167 10.2389 13.163 10.2733 13.1556C10.3477 13.1629 10.4233 13.1667 10.5 13.1667C10.7761 13.1667 11 12.9428 11 12.6667C11 12.3905 10.7761 12.1667 10.5 12.1667C9.74111 12.1667 9 11.4209 9 10.3333C9 9.24572 9.74111 8.5 10.5 8.5C10.7761 8.5 11 8.27614 11 8Z" fill="black"/>
<path d="M29 8.5V4H24.5C24.2239 4 24 4.22386 24 4.5C24 4.77614 24.2239 5 24.5 5L28 5V8.5C28 8.77614 28.2239 9 28.5 9C28.7761 9 29 8.77614 29 8.5Z" fill="black"/>
<path d="M29 28H24.5C24.2239 28 24 27.7761 24 27.5C24 27.2239 24.2239 27 24.5 27H28V23.5C28 23.2239 28.2239 23 28.5 23C28.7761 23 29 23.2239 29 23.5V28Z" fill="black"/>
<path d="M3 23.5V28H7.5C7.77614 28 8 27.7761 8 27.5C8 27.2239 7.77614 27 7.5 27H4L4 23.5C4 23.2239 3.77614 23 3.5 23C3.22386 23 3 23.2239 3 23.5Z" fill="black"/>
</g>
</svg>
