<svg width="24" height="24" viewBox="0 0 24 24" fill="none" xmlns="http://www.w3.org/2000/svg">
<g opacity="0.9">
<path d="M8.4159 4.79035C8.10461 5.44405 7.83422 6.19189 7.61552 7.01367H11.0638V2.05066C10.1256 2.26791 9.18105 3.18353 8.4159 4.79035Z" fill="black"/>
<path d="M3.32993 7.01367H6.58287C6.82671 6.0361 7.14078 5.14215 7.51304 4.36041C7.82938 3.6961 8.19837 3.09335 8.61435 2.58767C6.37334 3.3939 4.50337 4.97772 3.32993 7.01367Z" fill="black"/>
<path d="M2.82613 8.01367C2.29469 9.23499 2 10.5831 2 12C2 12.0082 2.00001 12.0164 2.00003 12.0246H6.00001L6 12C6 10.5972 6.12822 9.25185 6.36372 8.01367H2.82613Z" fill="black"/>
<path d="M2.05185 13.0246C2.19954 14.4757 2.65747 15.835 3.35825 17.0352H6.59512C6.2862 15.8119 6.08755 14.4563 6.02299 13.0246H2.05185Z" fill="black"/>
<path d="M4.0258 18.0352C5.1853 19.5648 6.77482 20.7505 8.61435 21.4123C8.19837 20.9066 7.82937 20.3039 7.51304 19.6396C7.27845 19.147 7.06697 18.6098 6.88161 18.0352H4.0258Z" fill="black"/>
<path d="M14.0482 21.79C16.4535 21.2894 18.5419 19.9247 19.9742 18.0352H16.1184C15.933 18.6098 15.7216 19.147 15.487 19.6396C15.0875 20.4784 14.6042 21.219 14.0482 21.79Z" fill="black"/>
<path d="M20.6417 17.0352C21.3425 15.835 21.8005 14.4757 21.9481 13.0246H16.977C16.9125 14.4563 16.7138 15.8119 16.4049 17.0352H20.6417Z" fill="black"/>
<path d="M22 12.0246C22 12.0164 22 12.0082 22 12C22 10.5831 21.7053 9.23499 21.1739 8.01367H16.6363C16.8718 9.25185 17 10.5972 17 12L17 12.0246H22Z" fill="black"/>
<path d="M20.6701 7.01367C19.27 4.58457 16.8785 2.79908 14.0482 2.20996C14.6042 2.78096 15.0875 3.52161 15.487 4.36041C15.8592 5.14215 16.1733 6.0361 16.4171 7.01367H20.6701Z" fill="black"/>
<path d="M14.5841 4.79035C14.8954 5.44405 15.1658 6.19189 15.3845 7.01367H12.0638V2.08449C12.9596 2.3523 13.8536 3.25633 14.5841 4.79035Z" fill="black"/>
<path d="M12.0638 8.01367H15.6173C15.8628 9.2329 16 10.5798 16 12L16 12.0246H12.0638V8.01367Z" fill="black"/>
<path d="M12.0638 13.0246H15.976C15.9074 14.4785 15.6945 15.8365 15.3714 17.0352H12.0638V13.0246Z" fill="black"/>
<path d="M12.0638 18.0352H15.0636C14.9177 18.4535 14.7572 18.8461 14.5841 19.2097C13.8536 20.7437 12.9596 21.6477 12.0638 21.9155V18.0352Z" fill="black"/>
<path d="M11.0638 18.0352V21.9493C10.1256 21.7321 9.18105 20.8165 8.4159 19.2097C8.24278 18.8461 8.08231 18.4535 7.93635 18.0352H11.0638Z" fill="black"/>
<path d="M11.0638 17.0352H7.6286C7.30546 15.8365 7.09265 14.4785 7.02404 13.0246H11.0638V17.0352Z" fill="black"/>
<path d="M11.0638 12.0246H7.00001L7 12C7 10.5798 7.13724 9.2329 7.38267 8.01367H11.0638V12.0246Z" fill="black"/>
</g>
</svg>
