<svg width="16" height="16" viewBox="0 0 16 16" fill="none" xmlns="http://www.w3.org/2000/svg">
<path opacity="0.9" fill-rule="evenodd" clip-rule="evenodd" d="M15 8C15 11.866 11.866 15 8 15C4.13401 15 1 11.866 1 8C1 4.13401 4.13401 1 8 1C11.866 1 15 4.13401 15 8ZM6.33266 3.61333C6.8585 2.47402 7.48416 2 8 2C8.51584 2 9.1415 2.47402 9.66734 3.61333C9.8542 4.01819 10.0166 4.48485 10.147 5H5.85295C5.98344 4.48485 6.1458 4.01819 6.33266 3.61333ZM4.82434 5C4.97712 4.33367 5.18002 3.72442 5.4247 3.19428C5.55592 2.90997 5.7044 2.63841 5.86954 2.38924C4.5719 2.88224 3.48964 3.81248 2.80269 5H4.82434ZM2.34141 6H4.63939C4.5484 6.63525 4.5 7.30705 4.5 8C4.5 8.69295 4.5484 9.36475 4.63939 10H2.34141C2.12031 9.37444 2 8.70127 2 8C2 7.29873 2.12031 6.62556 2.34141 6ZM2.80269 11C3.48964 12.1875 4.5719 13.1178 5.86954 13.6108C5.7044 13.3616 5.55592 13.09 5.4247 12.8057C5.18002 12.2756 4.97712 11.6663 4.82434 11H2.80269ZM5.85295 11C5.98344 11.5151 6.1458 11.9818 6.33266 12.3867C6.8585 13.526 7.48416 14 8 14C8.51584 14 9.1415 13.526 9.66734 12.3867C9.8542 11.9818 10.0166 11.5151 10.147 11H5.85295ZM11.1757 11C11.0229 11.6663 10.82 12.2756 10.5753 12.8057C10.4441 13.09 10.2956 13.3616 10.1305 13.6108C11.4281 13.1178 12.5104 12.1875 13.1973 11H11.1757ZM13.6586 10H11.3606C11.4516 9.36475 11.5 8.69295 11.5 8C11.5 7.30705 11.4516 6.63525 11.3606 6H13.6586C13.8797 6.62556 14 7.29873 14 8C14 8.70127 13.8797 9.37444 13.6586 10ZM13.1973 5C12.5104 3.81248 11.4281 2.88224 10.1305 2.38924C10.2956 2.63841 10.4441 2.90997 10.5753 3.19428C10.82 3.72442 11.0229 4.33367 11.1757 5H13.1973ZM10.3496 6C10.4466 6.62409 10.5 7.29659 10.5 8C10.5 8.70341 10.4466 9.37591 10.3496 10H5.65045C5.55338 9.37591 5.5 8.70341 5.5 8C5.5 7.29659 5.55338 6.62409 5.65045 6H10.3496Z" fill="black"/>
</svg>
