<svg width="32" height="32" viewBox="0 0 32 32" fill="none" xmlns="http://www.w3.org/2000/svg">
<path opacity="0.9" fill-rule="evenodd" clip-rule="evenodd" d="M4 16C4 9.37258 9.37258 4 16 4C22.6274 4 28 9.37259 28 16C28 22.6274 22.6274 28 16 28C9.37258 28 4 22.6274 4 16ZM9.26284 16.8243C8.88965 17.2314 8.91715 17.864 9.32427 18.2372L15.3243 23.7372C15.7066 24.0876 16.2934 24.0876 16.6757 23.7372L22.6757 18.2372C23.0828 17.864 23.1103 17.2314 22.7372 16.8243C22.364 16.4172 21.7314 16.3897 21.3243 16.7629L16 21.6434L10.6757 16.7629C10.2686 16.3897 9.63604 16.4172 9.26284 16.8243ZM9.32427 11.2372C8.91715 10.864 8.88965 10.2314 9.26284 9.82428C9.63604 9.41716 10.2686 9.38966 10.6757 9.76285L16 14.6434L21.3243 9.76285C21.7314 9.38966 22.364 9.41716 22.7372 9.82428C23.1103 10.2314 23.0828 10.864 22.6757 11.2372L16.6757 16.7372C16.2934 17.0876 15.7066 17.0876 15.3243 16.7372L9.32427 11.2372Z" fill="black"/>
</svg>
