<svg width="16" height="16" viewBox="0 0 16 16" fill="none" xmlns="http://www.w3.org/2000/svg">
<path opacity="0.9" fill-rule="evenodd" clip-rule="evenodd" d="M8 1C11.866 1 15 4.13401 15 8C15 11.866 11.866 15 8 15C4.13401 15 1 11.866 1 8C1 4.13401 4.13401 1 8 1ZM11.3201 7.38411C11.5322 7.20733 11.5609 6.89205 11.3841 6.67991C11.2073 6.46777 10.892 6.43911 10.6799 6.61589L8 8.84915L5.32009 6.61589C5.10795 6.43911 4.79267 6.46777 4.61589 6.67991C4.43911 6.89205 4.46777 7.20733 4.67991 7.38411L7.67991 9.88411C7.86533 10.0386 8.13467 10.0386 8.32009 9.88411L11.3201 7.38411Z" fill="black"/>
</svg>
