<svg width="24" height="24" viewBox="0 0 24 24" fill="none" xmlns="http://www.w3.org/2000/svg">
<path opacity="0.9" fill-rule="evenodd" clip-rule="evenodd" d="M12 2C17.5228 2 22 6.47715 22 12C22 17.5228 17.5228 22 12 22C6.47715 22 2 17.5228 2 12C2 6.47715 6.47715 2 12 2ZM16.8322 10.8737C17.0386 10.6902 17.0572 10.3742 16.8737 10.1678C16.6902 9.96143 16.3742 9.94284 16.1678 10.1263L12 13.831L7.83218 10.1263C7.62579 9.94284 7.30975 9.96143 7.1263 10.1678C6.94284 10.3742 6.96143 10.6902 7.16782 10.8737L11.6678 14.8737C11.8573 15.0421 12.1427 15.0421 12.3322 14.8737L16.8322 10.8737Z" fill="black"/>
</svg>
