<svg width="24" height="24" viewBox="0 0 24 24" fill="none" xmlns="http://www.w3.org/2000/svg">
<g opacity="0.9">
<path d="M16.8322 10.8737C17.0386 10.6903 17.0572 10.3742 16.8737 10.1678C16.6902 9.96143 16.3742 9.94284 16.1678 10.1263L12 13.831L7.83218 10.1263C7.62579 9.94284 7.30975 9.96143 7.12629 10.1678C6.94283 10.3742 6.96142 10.6903 7.16781 10.8737L11.6678 14.8737C11.8573 15.0421 12.1427 15.0421 12.3322 14.8737L16.8322 10.8737Z" fill="black"/>
<path fill-rule="evenodd" clip-rule="evenodd" d="M22 12C22 6.47715 17.5228 2 12 2C6.47715 2 2 6.47715 2 12C2 17.5228 6.47715 22 12 22C17.5228 22 22 17.5228 22 12ZM12 3C16.9706 3 21 7.02944 21 12C21 16.9706 16.9706 21 12 21C7.02944 21 3 16.9706 3 12C3 7.02944 7.02944 3 12 3Z" fill="black"/>
</g>
</svg>
