<svg width="32" height="32" viewBox="0 0 32 32" fill="none" xmlns="http://www.w3.org/2000/svg">
<g opacity="0.9">
<path d="M22.3379 14.3686C22.5414 14.182 22.5552 13.8657 22.3686 13.6621C22.182 13.4586 21.8657 13.4448 21.6621 13.6314L16 18.8217L10.3379 13.6314C10.1343 13.4448 9.81802 13.4586 9.63142 13.6621C9.44482 13.8657 9.45858 14.182 9.66214 14.3686L15.6621 19.8686C15.8533 20.0438 16.1467 20.0438 16.3379 19.8686L22.3379 14.3686Z" fill="black"/>
<path fill-rule="evenodd" clip-rule="evenodd" d="M28 16C28 9.37258 22.6274 4 16 4C9.37258 4 4 9.37258 4 16C4 22.6274 9.37258 28 16 28C22.6274 28 28 22.6274 28 16ZM16 5C22.0751 5 27 9.92487 27 16C27 22.0751 22.0751 27 16 27C9.92487 27 5 22.0751 5 16C5 9.92487 9.92487 5 16 5Z" fill="black"/>
</g>
</svg>
