<svg width="16" height="16" viewBox="0 0 16 16" fill="none" xmlns="http://www.w3.org/2000/svg">
<g opacity="0.9">
<path d="M11.3201 7.38412C11.5322 7.20734 11.5609 6.89206 11.3841 6.67992C11.2073 6.46778 10.892 6.43912 10.6799 6.6159L7.99999 8.84916L5.32008 6.6159C5.10794 6.43912 4.79266 6.46778 4.61588 6.67992C4.4391 6.89206 4.46776 7.20734 4.6799 7.38412L7.6799 9.88412C7.86532 10.0386 8.13466 10.0386 8.32008 9.88412L11.3201 7.38412Z" fill="black"/>
<path fill-rule="evenodd" clip-rule="evenodd" d="M15 8C15 4.13401 11.866 1 8 1C4.13401 1 1 4.13401 1 8C1 11.866 4.13401 15 8 15C11.866 15 15 11.866 15 8ZM8 2C11.3137 2 14 4.68629 14 8C14 11.3137 11.3137 14 8 14C4.68629 14 2 11.3137 2 8C2 4.68629 4.68629 2 8 2Z" fill="black"/>
</g>
</svg>
