<svg width="16" height="16" viewBox="0 0 16 16" fill="none" xmlns="http://www.w3.org/2000/svg">
<g clip-path="url(#clip0)">
<g opacity="0.9">
<path d="M5.91071 2.50002C5.91071 2.29263 5.78269 2.10677 5.58892 2.03286C5.39515 1.95894 5.17587 2.01232 5.03775 2.16701L0.127031 7.66701C-0.0423437 7.85671 -0.0423437 8.14333 0.127031 8.33303L5.03775 13.833C5.17587 13.9877 5.39515 14.0411 5.58892 13.9672C5.78269 13.8933 5.91071 13.7074 5.91071 13.5V12.5834C5.91071 12.3072 5.68686 12.0834 5.41071 12.0834C5.24276 12.0834 5.09415 12.1662 5.00348 12.2932L1.1703 8.00002L5.00348 3.70686C5.09415 3.83388 5.24276 3.91669 5.41071 3.91669C5.68686 3.91669 5.91071 3.69283 5.91071 3.41669V2.50002Z" fill="black"/>
<path fill-rule="evenodd" clip-rule="evenodd" d="M9.03572 2.50002C9.03572 2.29377 8.90908 2.10869 8.71685 2.03398C8.52461 1.95927 8.30622 2.01026 8.16695 2.16237L3.13122 7.66237C2.95626 7.85347 2.95626 8.14657 3.13122 8.33767L8.16695 13.8377C8.30622 13.9898 8.52461 14.0408 8.71685 13.9661C8.90908 13.8913 9.03572 13.7063 9.03572 13.5V11.0056C10.4974 11.0388 11.8231 11.2221 12.8638 11.6123C14.0152 12.0441 14.7546 12.7013 15.0189 13.6361C15.0868 13.8762 15.3214 14.0296 15.5687 13.9953C15.8159 13.961 16 13.7496 16 13.5C16 11.4219 15.4595 9.30727 14.2466 7.69896C13.1003 6.17903 11.375 5.14266 9.03572 5.01363V2.50002ZM8.03572 12.2135L4.17792 8.00002L8.03572 3.78654V5.50002C8.03572 5.77616 8.25958 6.00002 8.53572 6.00002C10.8194 6.00002 12.4122 6.92735 13.4482 8.30108C14.1447 9.22468 14.6002 10.3657 14.8278 11.5906C14.3725 11.2034 13.8218 10.9036 13.2149 10.676C11.8946 10.1809 10.2462 10 8.53572 10C8.25958 10 8.03572 10.2239 8.03572 10.5V12.2135Z" fill="black"/>
</g>
</g>
<defs>
<clipPath id="clip0">
<rect width="16" height="16" fill="white"/>
</clipPath>
</defs>
</svg>
