<svg width="32" height="32" viewBox="0 0 32 32" fill="none" xmlns="http://www.w3.org/2000/svg">
<g opacity="0.9">
<path d="M17 26C17 25.4477 16.5523 25 16 25C15.4477 25 15 25.4477 15 26C15 26.5523 15.4477 27 16 27C16.5523 27 17 26.5523 17 26Z" fill="black"/>
<path fill-rule="evenodd" clip-rule="evenodd" d="M6 26.5C6 27.8807 7.11929 29 8.5 29H23.5C24.8807 29 26 27.8807 26 26.5V5.5C26 4.11929 24.8807 3 23.5 3H8.5C7.11929 3 6 4.11929 6 5.5V26.5ZM8.5 28C7.67157 28 7 27.3284 7 26.5L7 5.5C7 4.67157 7.67157 4 8.5 4L23.5 4C24.3284 4 25 4.67157 25 5.5V26.5C25 27.3284 24.3284 28 23.5 28H8.5Z" fill="black"/>
</g>
</svg>
