<svg width="16" height="16" viewBox="0 0 16 16" fill="none" xmlns="http://www.w3.org/2000/svg">
<g opacity="0.9">
<path d="M6.79413 3.599C6.64427 4.00807 6.51427 4.47963 6.41003 5.00004H9.58997C9.48573 4.47963 9.35573 4.00807 9.20587 3.599C9.00323 3.04587 8.77382 2.63332 8.5443 2.36831C8.3136 2.10195 8.12809 2.03271 8 2.03271C7.87191 2.03271 7.6864 2.10195 7.4557 2.36831C7.22618 2.63332 6.99677 3.04587 6.79413 3.599Z" fill="black"/>
<path d="M2.80269 5.00004H5.39169C5.51062 4.35663 5.66718 3.76813 5.85516 3.25502C5.99246 2.88023 6.15004 2.53592 6.32818 2.23604C4.82755 2.67054 3.56909 3.67516 2.80269 5.00004Z" fill="black"/>
<path d="M2.34141 6.00004C2.12031 6.6256 2 7.29877 2 8.00004C2 8.70131 2.12031 9.37449 2.34141 10H5.24271C5.16963 9.36566 5.13069 8.69382 5.13069 8.00024C5.13069 7.30652 5.16964 6.63455 5.24276 6.00004H2.34141Z" fill="black"/>
<path d="M2.80269 11C3.56905 12.3248 4.82739 13.3294 6.32789 13.764C6.14986 13.4642 5.99238 13.1201 5.85516 12.7455C5.66714 12.2323 5.51055 11.6436 5.39162 11H2.80269Z" fill="black"/>
<path d="M9.67211 13.764C11.1726 13.3294 12.431 12.3248 13.1973 11H10.6084C10.4894 11.6436 10.3329 12.2323 10.1448 12.7455C10.0076 13.1201 9.85014 13.4642 9.67211 13.764Z" fill="black"/>
<path d="M13.6586 10C13.8797 9.37449 14 8.70131 14 8.00004C14 7.29877 13.8797 6.6256 13.6586 6.00004H10.7572C10.8304 6.63455 10.8693 7.30652 10.8693 8.00024C10.8693 8.69382 10.8304 9.36566 10.7573 10H13.6586Z" fill="black"/>
<path d="M13.1973 5.00004C12.4309 3.67516 11.1725 2.67054 9.67182 2.23604C9.84996 2.53592 10.0075 2.88023 10.1448 3.25502C10.3328 3.76813 10.4894 4.35663 10.6083 5.00004H13.1973Z" fill="black"/>
<path d="M6.13069 8.00024C6.13069 7.29726 6.17292 6.62469 6.24982 6.00004H9.75018C9.82708 6.62469 9.86931 7.29726 9.86931 8.00024C9.86931 8.70308 9.82709 9.37551 9.75023 10H6.24977C6.17291 9.37551 6.13069 8.70308 6.13069 8.00024Z" fill="black"/>
<path d="M6.79413 12.4015C6.64424 11.9923 6.51421 11.5206 6.40995 11H9.59005C9.4858 11.5206 9.35576 11.9923 9.20587 12.4015C9.00323 12.9546 8.77382 13.3672 8.5443 13.6322C8.3136 13.8985 8.12809 13.9678 8 13.9678C7.87191 13.9678 7.6864 13.8985 7.4557 13.6322C7.22618 13.3672 6.99677 12.9546 6.79413 12.4015Z" fill="black"/>
</g>
</svg>
