<svg width="16" height="16" viewBox="0 0 16 16" fill="none" xmlns="http://www.w3.org/2000/svg">
<g opacity="0.9">
<path d="M2.85355 1.89657C2.65829 1.70131 2.34171 1.70131 2.14645 1.89657C1.95118 2.09183 1.95118 2.40841 2.14645 2.60368L13.1464 13.6037C13.3417 13.7989 13.6583 13.7989 13.8536 13.6037C14.0488 13.4084 14.0488 13.0918 13.8536 12.8966L2.85355 1.89657Z" fill="black"/>
<path fill-rule="evenodd" clip-rule="evenodd" d="M5 6.87144V8C5 9.65685 6.34315 11 8 11C8.33897 11 8.66482 10.9438 8.96871 10.8402L8.12473 9.99617C8.08348 9.99871 8.04189 10 8 10C6.89543 10 6 9.10457 6 8V7.87144L5 6.87144ZM6.02914 3.65794L5.22623 2.85504C5.67619 1.76619 6.74862 1 8 1C9.65685 1 11 2.34315 11 4V8C11 8.19629 10.9811 8.38818 10.9452 8.57396L10 7.6288V4C10 2.89543 9.10457 2 8 2C7.01205 2 6.19141 2.71633 6.02914 3.65794ZM9.73413 11.6056C9.20953 11.8583 8.62131 12 8 12C5.79086 12 4 10.2091 4 8V7C4 6.72386 3.77614 6.5 3.5 6.5C3.22386 6.5 3 6.72386 3 7V8C3 10.5927 4.97334 12.7245 7.5 12.9753V14.5C7.5 14.7761 7.72386 15 8 15C8.27614 15 8.5 14.7761 8.5 14.5V12.9753C9.21279 12.9045 9.88154 12.6841 10.4744 12.3458L9.73413 11.6056ZM12.5173 10.1461L11.7544 9.38319C11.9133 8.95215 12 8.4862 12 8V7C12 6.72386 12.2239 6.5 12.5 6.5C12.7761 6.5 13 6.72386 13 7V8C13 8.76813 12.8268 9.4958 12.5173 10.1461Z" fill="black"/>
</g>
</svg>
