<svg width="16" height="16" viewBox="0 0 16 16" fill="none" xmlns="http://www.w3.org/2000/svg">
<g clip-path="url(#clip0)">
<path opacity="0.9" fill-rule="evenodd" clip-rule="evenodd" d="M5.85355 7.14645C5.65829 6.95118 5.34171 6.95118 5.14645 7.14645C4.95118 7.34171 4.95118 7.65829 5.14645 7.85355L8.5 11.2071L11.8536 7.85355C12.0488 7.65829 12.0488 7.34171 11.8536 7.14645C11.6583 6.95118 11.3417 6.95118 11.1464 7.14645L9 9.29289V0.5C9 0.223858 8.77614 0 8.5 0C8.22386 0 8 0.223858 8 0.5L8 9.29289L5.85355 7.14645ZM12.9142 6.08579C12.8845 6.05606 12.8541 6.02746 12.823 6H14.5C14.7761 6 15 6.22386 15 6.5V12C15 13.1046 14.1046 14 13 14H3C1.89543 14 1 13.1046 1 12V6.5C1 6.22386 1.22386 6 1.5 6H4.17702C4.14594 6.02746 4.11551 6.05606 4.08579 6.08579C3.30474 6.86684 3.30474 8.13317 4.08579 8.91421L8.5 13.3284L12.9142 8.91421C13.6953 8.13317 13.6953 6.86684 12.9142 6.08579ZM15.5 5H10.5V2H14.5C15.3284 2 16 2.67157 16 3.5V4.5C16 4.77614 15.7761 5 15.5 5ZM6.5 2V5H0.5C0.223858 5 0 4.77614 0 4.5V3.5C0 2.67157 0.671573 2 1.5 2H6.5Z" fill="black"/>
</g>
<defs>
<clipPath id="clip0">
<rect width="16" height="16" fill="white"/>
</clipPath>
</defs>
</svg>
