<svg width="32" height="32" viewBox="0 0 32 32" fill="none" xmlns="http://www.w3.org/2000/svg">
<g opacity="0.9">
<path d="M11.8536 15.6464C11.6583 15.4512 11.3417 15.4512 11.1464 15.6464C10.9512 15.8417 10.9512 16.1583 11.1464 16.3536L16.5 21.7071L21.8536 16.3536C22.0488 16.1583 22.0488 15.8417 21.8536 15.6464C21.6583 15.4512 21.3417 15.4512 21.1464 15.6464L17 19.7929L17 2.5C17 2.22386 16.7761 2 16.5 2C16.2239 2 16 2.22386 16 2.5L16 19.7929L11.8536 15.6464Z" fill="black"/>
<path d="M5 7.00008C4.44772 7.00008 4 7.44779 4 8.00008V11.0001H13.5C13.7761 11.0001 14 11.2239 14 11.5001C14 11.7762 13.7761 12.0001 13.5 12.0001H5V24.0001C5 24.5524 5.44772 25.0001 6 25.0001H26C26.5523 25.0001 27 24.5524 27 24.0001V12.0001H19.5C19.2239 12.0001 19 11.7762 19 11.5001C19 11.2239 19.2239 11.0001 19.5 11.0001H28V8.00008C28 7.44779 27.5523 7.00008 27 7.00008H19.5C19.2239 7.00008 19 6.77622 19 6.50008C19 6.22393 19.2239 6.00008 19.5 6.00008H27C28.1046 6.00008 29 6.89551 29 8.00008V11.5001C29 11.7762 28.7761 12.0001 28.5 12.0001H28V24.0001C28 25.1046 27.1046 26.0001 26 26.0001H6C4.89543 26.0001 4 25.1046 4 24.0001V12.0001H3.5C3.22386 12.0001 3 11.7762 3 11.5001V8.00008C3 6.89551 3.89543 6.00008 5 6.00008H13.5C13.7761 6.00008 14 6.22393 14 6.50008C14 6.77622 13.7761 7.00008 13.5 7.00008H5Z" fill="black"/>
</g>
</svg>
