<svg width="16" height="16" viewBox="0 0 16 16" fill="none" xmlns="http://www.w3.org/2000/svg">
<path opacity="0.9" d="M6.5 9C6.5 9.82843 5.82843 10.5 5 10.5C4.17157 10.5 3.5 9.82843 3.5 9C3.5 8.17157 4.17157 7.5 5 7.5C5.82843 7.5 6.5 8.17157 6.5 9ZM6.5 9C6.5 8.17157 7.17157 7.5 8 7.5C8.82843 7.5 9.5 8.17157 9.5 9M6.5 9C6.5 9.82843 7.17157 10.5 8 10.5C8.82843 10.5 9.5 9.82843 9.5 9M9.5 9C9.5 8.17157 10.1716 7.5 11 7.5C11.8284 7.5 12.5 8.17157 12.5 9C12.5 9.82843 11.8284 10.5 11 10.5C10.1716 10.5 9.5 9.82843 9.5 9ZM8.24964 1.43342L8 1.86622L7.75036 1.43341C7.59961 1.34621 7.5 1.18444 7.5 1C7.5 0.723858 7.72386 0.5 8 0.5C8.27614 0.5 8.5 0.723858 8.5 1C8.5 1.18444 8.40039 1.34621 8.24964 1.43342ZM7.5 3.5L8 3L8.5 3.5H13C13.8284 3.5 14.5 4.17157 14.5 5V7L15 7.5C15.2761 7.5 15.5 7.72386 15.5 8V9C15.5 9.27614 15.2761 9.5 15 9.5L14.5 10V11.1538C14.5 11.9823 13.8284 12.6538 13 12.6538H8L7.71012 12.7465L4.5 15.0306V13.1538L4 12.6538H3C2.17157 12.6538 1.5 11.9823 1.5 11.1538V10L1 9.5C0.723858 9.5 0.5 9.27614 0.5 9V8C0.5 7.72386 0.723858 7.5 1 7.5L1.5 7V5C1.5 4.17157 2.17157 3.5 3 3.5H7.5Z" fill="black" stroke="black" stroke-linejoin="bevel"/>
</svg>
