<svg width="32" height="32" viewBox="0 0 32 32" fill="none" xmlns="http://www.w3.org/2000/svg">
<path opacity="0.9" d="M16.3754 5.45277L16 5.93699L15.6246 5.45277C14.9776 5.28623 14.5 4.69825 14.5 4C14.5 3.17157 15.1716 2.5 16 2.5C16.8284 2.5 17.5 3.17157 17.5 4C17.5 4.69825 17.0224 5.28623 16.3754 5.45277ZM15.5 8.5L16 8L16.5 8.5H25C26.3807 8.5 27.5 9.61929 27.5 11V14L28 14.5H29C29.2761 14.5 29.5 14.7239 29.5 15V18C29.5 18.2761 29.2761 18.5 29 18.5H28L27.5 19V22C27.5 23.3807 26.3807 24.5 25 24.5H16L15.7407 24.5725L9.64286 28.2716V25L9.14286 24.5H7C5.61929 24.5 4.5 23.3807 4.5 22V19L4 18.5H3C2.72386 18.5 2.5 18.2761 2.5 18V15C2.5 14.7239 2.72386 14.5 3 14.5H4L4.5 14V11C4.5 9.61929 5.61929 8.5 7 8.5H15.5ZM10.5 20.5C11.6046 20.5 12.5 19.6046 12.5 18.5C12.5 17.3954 11.6046 16.5 10.5 16.5C9.39543 16.5 8.5 17.3954 8.5 18.5C8.5 19.6046 9.39543 20.5 10.5 20.5ZM16 20.5C17.1046 20.5 18 19.6046 18 18.5C18 17.3954 17.1046 16.5 16 16.5C14.8954 16.5 14 17.3954 14 18.5C14 19.6046 14.8954 20.5 16 20.5ZM21.5 20.5C22.6046 20.5 23.5 19.6046 23.5 18.5C23.5 17.3954 22.6046 16.5 21.5 16.5C20.3954 16.5 19.5 17.3954 19.5 18.5C19.5 19.6046 20.3954 20.5 21.5 20.5Z" fill="black" stroke="black" stroke-linejoin="bevel"/>
</svg>
