<svg width="24" height="24" viewBox="0 0 24 24" fill="none" xmlns="http://www.w3.org/2000/svg">
<g opacity="0.9">
<path fill-rule="evenodd" clip-rule="evenodd" d="M8 13.5C8 14.3284 7.32843 15 6.5 15C5.67157 15 5 14.3284 5 13.5C5 12.6716 5.67157 12 6.5 12C7.32843 12 8 12.6716 8 13.5ZM7 13.5C7 13.7761 6.77614 14 6.5 14C6.22386 14 6 13.7761 6 13.5C6 13.2239 6.22386 13 6.5 13C6.77614 13 7 13.2239 7 13.5Z" fill="black"/>
<path fill-rule="evenodd" clip-rule="evenodd" d="M12 15C12.8284 15 13.5 14.3284 13.5 13.5C13.5 12.6716 12.8284 12 12 12C11.1716 12 10.5 12.6716 10.5 13.5C10.5 14.3284 11.1716 15 12 15ZM12 14C12.2761 14 12.5 13.7761 12.5 13.5C12.5 13.2239 12.2761 13 12 13C11.7239 13 11.5 13.2239 11.5 13.5C11.5 13.7761 11.7239 14 12 14Z" fill="black"/>
<path fill-rule="evenodd" clip-rule="evenodd" d="M19 13.5C19 14.3284 18.3284 15 17.5 15C16.6716 15 16 14.3284 16 13.5C16 12.6716 16.6716 12 17.5 12C18.3284 12 19 12.6716 19 13.5ZM18 13.5C18 13.7761 17.7761 14 17.5 14C17.2239 14 17 13.7761 17 13.5C17 13.2239 17.2239 13 17.5 13C17.7761 13 18 13.2239 18 13.5Z" fill="black"/>
<path fill-rule="evenodd" clip-rule="evenodd" d="M13.5 1.5C13.5 2.15311 13.0826 2.70873 12.5 2.91465V5H19C20.6569 5 22 6.34315 22 8V10C22.5523 10 23 10.4477 23 11V13C23 13.5523 22.5523 14 22 14V16.0592C22 17.716 20.6569 19.0592 19 19.0592H12L6.28571 23V19.0592H5C3.34315 19.0592 2 17.716 2 16.0592V14C1.44772 14 1 13.5523 1 13V11C1 10.4477 1.44772 10 2 10V8C2 6.34315 3.34315 5 5 5H11.5V2.91465C10.9174 2.70873 10.5 2.15311 10.5 1.5C10.5 0.671573 11.1716 0 12 0C12.8284 0 13.5 0.671573 13.5 1.5ZM12 2C12.2761 2 12.5 1.77614 12.5 1.5C12.5 1.22386 12.2761 1 12 1C11.7239 1 11.5 1.22386 11.5 1.5C11.5 1.77614 11.7239 2 12 2ZM3 16.0592C3 17.1637 3.89543 18.0592 5 18.0592H7.28571V21.0956L11.6886 18.0592H19C20.1046 18.0592 21 17.1637 21 16.0592V8C21 6.89543 20.1046 6 19 6H5C3.89543 6 3 6.89543 3 8V16.0592Z" fill="black"/>
</g>
</svg>
