<svg width="16" height="16" viewBox="0 0 16 16" fill="none" xmlns="http://www.w3.org/2000/svg">
<g opacity="0.9">
<path d="M5 10C5.55228 10 6 9.55229 6 9C6 8.44771 5.55228 8 5 8C4.44772 8 4 8.44771 4 9C4 9.55229 4.44772 10 5 10Z" fill="black"/>
<path d="M9 9C9 9.55229 8.55229 10 8 10C7.44772 10 7 9.55229 7 9C7 8.44771 7.44772 8 8 8C8.55229 8 9 8.44771 9 9Z" fill="black"/>
<path d="M11 10C11.5523 10 12 9.55229 12 9C12 8.44771 11.5523 8 11 8C10.4477 8 10 8.44771 10 9C10 9.55229 10.4477 10 11 10Z" fill="black"/>
<path fill-rule="evenodd" clip-rule="evenodd" d="M9 1C9 1.37014 8.7989 1.69331 8.5 1.86622V3H13C14.1046 3 15 3.89543 15 5V7C15.5523 7 16 7.44772 16 8V9C16 9.55229 15.5523 10 15 10V11.1538C15 12.2584 14.1046 13.1538 13 13.1538H8L4 16V13.1538H3C1.89543 13.1538 1 12.2584 1 11.1538V10C0.447715 10 0 9.55228 0 9V8C0 7.44772 0.447715 7 1 7V5C1 3.89543 1.89543 3 3 3H7.5V1.86622C7.2011 1.69331 7 1.37014 7 1C7 0.447715 7.44772 0 8 0C8.55229 0 9 0.447715 9 1ZM2 11.1538C2 11.7061 2.44772 12.1538 3 12.1538H5V14.0612L7.68054 12.1538H13C13.5523 12.1538 14 11.7061 14 11.1538V5C14 4.44772 13.5523 4 13 4H3C2.44772 4 2 4.44772 2 5V11.1538Z" fill="black"/>
</g>
</svg>
