<svg width="16" height="16" viewBox="0 0 16 16" fill="none" xmlns="http://www.w3.org/2000/svg">
<path opacity="0.9" fill-rule="evenodd" clip-rule="evenodd" d="M2.93228 2.36644C2.65614 1.88814 2.82001 1.27655 3.29831 1.00041L4.46466 0.327013C4.94296 0.0508703 5.55455 0.214746 5.83069 0.693038C6.10683 1.17133 5.94296 1.78292 5.46466 2.05906L4.29831 2.73246C3.82001 3.0086 3.20842 2.84473 2.93228 2.36644ZM8.5 13.3002C11.151 13.3002 13.3 11.1511 13.3 8.50016C13.3 5.8492 11.151 3.70017 8.5 3.70017C5.84903 3.70017 3.7 5.8492 3.7 8.50016C3.7 11.1511 5.84903 13.3002 8.5 13.3002ZM8.5 15.0002C12.0899 15.0002 15 12.09 15 8.50016C15 4.91031 12.0899 2.00017 8.5 2.00017C4.91015 2.00017 2 4.91031 2 8.50016C2 12.09 4.91015 15.0002 8.5 15.0002ZM6.62454 8.00016H7.87546H8.5C8.77614 8.00016 9 8.22402 9 8.50016C9 8.77631 8.77614 9.00016 8.5 9.00016H7.87546H6.62454H6C5.72386 9.00016 5.5 8.77631 5.5 8.50016C5.5 8.22402 5.72386 8.00016 6 8.00016H6.62454Z" fill="black"/>
</svg>
