<svg width="32" height="32" viewBox="0 0 32 32" fill="none" xmlns="http://www.w3.org/2000/svg">
<g opacity="0.9">
<path d="M28 24.8462C28 25.4933 27.4647 25.9661 26.868 26.2985C26.2309 26.6535 25.332 26.9589 24.2442 27.2099C23.15 27.4624 21.8598 27.6608 20.4484 27.7957C19.0362 27.9307 17.5249 28 16 28C14.4751 28 12.9638 27.9307 11.5516 27.7957C10.1402 27.6608 8.85 27.4624 7.75584 27.2099C6.66797 26.9589 5.76906 26.6535 5.13204 26.2985C4.5353 25.9661 4 25.4933 4 24.8462V20.1452C4.68876 20.5886 5.59341 20.978 6.66057 21.3063C7.90105 21.688 9.36318 21.9877 10.9619 22.1915C12.5616 22.3954 14.2732 22.5 16 22.5C17.7268 22.5 19.4384 22.3954 21.0381 22.1915C22.6368 21.9877 24.0989 21.688 25.3394 21.3063C26.4066 20.978 27.3112 20.5886 28 20.1452V24.8462Z" fill="black"/>
<path d="M28 18.892V14.1452C27.3112 14.5886 26.4066 14.978 25.3394 15.3063C24.0989 15.688 22.6368 15.9877 21.0381 16.1915C19.4384 16.3954 17.7268 16.5 16 16.5C14.2732 16.5 12.5616 16.3954 10.9619 16.1915C9.36318 15.9877 7.90105 15.688 6.66057 15.3063C5.59341 14.978 4.68876 14.5886 4 14.1452V18.892C4.08322 18.9692 4.17869 19.0484 4.28772 19.1294C4.87739 19.5674 5.77524 19.9876 6.95465 20.3505C8.1285 20.7117 9.53258 21.0013 11.0883 21.1995C12.6431 21.3977 14.3124 21.5 16 21.5C17.6876 21.5 19.3569 21.3977 20.9117 21.1995C22.4674 21.0013 23.8715 20.7117 25.0453 20.3505C26.2248 19.9876 27.1226 19.5674 27.7123 19.1294C27.8213 19.0484 27.9168 18.9692 28 18.892Z" fill="black"/>
<path d="M4 12.892C4.08322 12.9692 4.17869 13.0484 4.28772 13.1294C4.87739 13.5674 5.77524 13.9876 6.95465 14.3505C8.1285 14.7117 9.53258 15.0013 11.0883 15.1995C12.6431 15.3977 14.3124 15.5 16 15.5C17.6876 15.5 19.3569 15.3977 20.9117 15.1995C22.4674 15.0013 23.8715 14.7117 25.0453 14.3505C26.2248 13.9876 27.1226 13.5674 27.7123 13.1294C27.8213 13.0484 27.9168 12.9692 28 12.892V8.14519C27.3112 8.5886 26.4066 8.97796 25.3394 9.30632C24.0989 9.688 22.6368 9.98775 21.0381 10.1915C19.4384 10.3954 17.7268 10.5 16 10.5C14.2732 10.5 12.5616 10.3954 10.9619 10.1915C9.36318 9.98775 7.90105 9.688 6.66057 9.30632C5.59341 8.97796 4.68876 8.5886 4 8.14519V12.892Z" fill="black"/>
<path d="M4.02535 6.91524C4.10246 6.98503 4.1896 7.05647 4.28772 7.12936C4.87739 7.56738 5.77524 7.98764 6.95465 8.35054C8.1285 8.71172 9.53258 9.00125 11.0883 9.19953C12.6431 9.39769 14.3124 9.5 16 9.5C17.6876 9.5 19.3569 9.39769 20.9117 9.19953C22.4674 9.00125 23.8715 8.71172 25.0453 8.35054C26.2248 7.98764 27.1226 7.56738 27.7123 7.12936C27.8104 7.05647 27.8975 6.98503 27.9747 6.91524C27.9232 6.67575 27.7981 6.46507 27.6405 6.28727C27.4351 6.0557 27.1552 5.85624 26.8357 5.68193C26.1963 5.33304 25.304 5.03468 24.2442 4.7901C22.1164 4.29908 19.2019 4 16 4C12.7981 4 9.88359 4.29908 7.75584 4.7901C6.69598 5.03468 5.80372 5.33304 5.16425 5.68193C4.84477 5.85624 4.56488 6.0557 4.35953 6.28727C4.20188 6.46507 4.07675 6.67575 4.02535 6.91524Z" fill="black"/>
</g>
</svg>
