<svg width="32" height="32" viewBox="0 0 32 32" fill="none" xmlns="http://www.w3.org/2000/svg">
<g opacity="0.9">
<path d="M16 4H15V6H16V7H17V6H16V4Z" fill="black"/>
<path d="M5 15H4V16H5V17H6V16H7V17H9V16H8V15H6V16H5V15Z" fill="black"/>
<path d="M7 7H10V10H7V7Z" fill="black"/>
<path fill-rule="evenodd" clip-rule="evenodd" d="M4 4H13V13H4V4ZM5 5V12H12V5H5Z" fill="black"/>
<path d="M10 22H7V25H10V22Z" fill="black"/>
<path fill-rule="evenodd" clip-rule="evenodd" d="M13 19H4V28H13V19ZM5 27V20H12V27H5Z" fill="black"/>
<path d="M25 7H22V10H25V7Z" fill="black"/>
<path fill-rule="evenodd" clip-rule="evenodd" d="M28 4H19V13H28V4ZM20 12V5H27V12H20Z" fill="black"/>
<path d="M17 13V10H16V9H17V8H16V9H15V12H16V13H17Z" fill="black"/>
<path d="M15 20H16V21H15V20Z" fill="black"/>
<path d="M16 21H17V23H16V21Z" fill="black"/>
<path d="M19 15V16H17V15H19Z" fill="black"/>
<path d="M16 16H17V18H15V17H16V16Z" fill="black"/>
<path d="M27 16H28V17H27V16Z" fill="black"/>
<path d="M27 16H26V15H27V16Z" fill="black"/>
<path d="M24 15H25V16H24V15Z" fill="black"/>
<path d="M22 15H21V17H22V15Z" fill="black"/>
<path d="M11 15H10V17H11V15Z" fill="black"/>
<path d="M14 16V15H12V16H14Z" fill="black"/>
<path d="M22 19C22 18.4477 22.4477 18 23 18C23.5523 18 24 18.4477 24 19V22H27C27.5523 22 28 22.4477 28 23C28 23.5523 27.5523 24 27 24H24V27C24 27.5523 23.5523 28 23 28C22.4477 28 22 27.5523 22 27V24H19C18.4477 24 18 23.5523 18 23C18 22.4477 18.4477 22 19 22H22V19Z" fill="black"/>
<path d="M15 26H17V28H15V26Z" fill="black"/>
</g>
</svg>
