<svg width="32" height="32" viewBox="0 0 32 32" fill="none" xmlns="http://www.w3.org/2000/svg">
<path opacity="0.9" fill-rule="evenodd" clip-rule="evenodd" d="M4 16C4 9.37258 9.37258 4 16 4C22.6274 4 28 9.37258 28 16C28 22.6274 22.6274 28 16 28C9.37258 28 4 22.6274 4 16ZM20.7071 12.7071C21.0976 12.3166 21.0976 11.6834 20.7071 11.2929C20.3166 10.9024 19.6834 10.9024 19.2929 11.2929L15.2929 15.2929C14.9024 15.6834 14.9024 16.3166 15.2929 16.7071C15.6834 17.0976 16.3166 17.0976 16.7071 16.7071L20.7071 12.7071ZM25.7071 12.7071C26.0976 12.3166 26.0976 11.6834 25.7071 11.2929C25.3166 10.9024 24.6834 10.9024 24.2929 11.2929L16 19.5858L11.7071 15.2929C11.3166 14.9024 10.6834 14.9024 10.2929 15.2929C9.90237 15.6834 9.90237 16.3166 10.2929 16.7071L15.2929 21.7071C15.6834 22.0976 16.3166 22.0976 16.7071 21.7071L25.7071 12.7071ZM6.70711 15.2929C6.31658 14.9024 5.68342 14.9024 5.29289 15.2929C4.90237 15.6834 4.90237 16.3166 5.29289 16.7071L10.2929 21.7071C10.6834 22.0976 11.3166 22.0976 11.7071 21.7071C12.0976 21.3166 12.0976 20.6834 11.7071 20.2929L6.70711 15.2929Z" fill="black"/>
</svg>
