<svg width="16" height="16" viewBox="0 0 16 16" fill="none" xmlns="http://www.w3.org/2000/svg">
<path opacity="0.9" fill-rule="evenodd" clip-rule="evenodd" d="M1 8C1 4.13401 4.13401 1 8 1C11.866 1 15 4.13401 15 8C15 11.866 11.866 15 8 15C4.13401 15 1 11.866 1 8ZM5.5 9.79289L10.1464 5.14645C10.3417 4.95118 10.6583 4.95118 10.8536 5.14645C11.0488 5.34171 11.0488 5.65829 10.8536 5.85355L5.85355 10.8536C5.75978 10.9473 5.63261 11 5.5 11C5.36739 11 5.24021 10.9473 5.14645 10.8536L3.14645 8.85355C2.95118 8.65829 2.95118 8.34171 3.14645 8.14645C3.34171 7.95118 3.65829 7.95118 3.85355 8.14645L5.5 9.79289ZM12.8536 6.14645C13.0488 6.34171 13.0488 6.65829 12.8536 6.85355L8.85355 10.8536C8.65829 11.0488 8.34171 11.0488 8.14645 10.8536C7.95118 10.6583 7.95118 10.3417 8.14645 10.1464L12.1464 6.14645C12.3417 5.95118 12.6583 5.95118 12.8536 6.14645Z" fill="black"/>
</svg>
