<svg width="16" height="16" viewBox="0 0 16 16" fill="none" xmlns="http://www.w3.org/2000/svg">
<path opacity="0.9" fill-rule="evenodd" clip-rule="evenodd" d="M9 1C9 1.37014 8.7989 1.69331 8.5 1.86622V3H13C14.1046 3 15 3.89543 15 5V7C15.5523 7 16 7.44772 16 8V9C16 9.55229 15.5523 10 15 10V11C15 12.1046 14.1046 13 13 13H3C1.89543 13 1 12.1046 1 11V10C0.447715 10 0 9.55228 0 9V8C0 7.44772 0.447715 7 1 7V5C1 3.89543 1.89543 3 3 3H7.5V1.86622C7.2011 1.69331 7 1.37014 7 1C7 0.447715 7.44772 0 8 0C8.55229 0 9 0.447715 9 1ZM3.91603 6.22265C3.79381 6.03932 3.56599 5.9576 3.35511 6.02145C3.14423 6.0853 3 6.27967 3 6.5V9.5C3 9.77614 3.22386 10 3.5 10C3.77614 10 4 9.77614 4 9.5V8.15139L5.08397 9.77735C5.20619 9.96068 5.43401 10.0424 5.64489 9.97855C5.85577 9.9147 6 9.72033 6 9.5V6.5C6 6.22386 5.77614 6 5.5 6C5.22386 6 5 6.22386 5 6.5V7.84861L3.91603 6.22265ZM8 6.5C8 6.22386 7.77614 6 7.5 6C7.22386 6 7 6.22386 7 6.5V9.5C7 9.77614 7.22386 10 7.5 10H9C9.27614 10 9.5 9.77614 9.5 9.5C9.5 9.22386 9.27614 9 9 9H8V6.5ZM11 6.5C11 6.22386 10.7761 6 10.5 6C10.2239 6 10 6.22386 10 6.5V8.5C10 9.32843 10.6716 10 11.5 10C12.3284 10 13 9.32843 13 8.5V6.5C13 6.22386 12.7761 6 12.5 6C12.2239 6 12 6.22386 12 6.5V8.5C12 8.77614 11.7761 9 11.5 9C11.2239 9 11 8.77614 11 8.5V6.5Z" fill="black"/>
</svg>
