<svg width="32" height="32" viewBox="0 0 32 32" fill="none" xmlns="http://www.w3.org/2000/svg">
<g opacity="0.9">
<path fill-rule="evenodd" clip-rule="evenodd" d="M17 22V20.7324C17.5978 20.3866 18 19.7403 18 19C18 17.8954 17.1046 17 16 17C14.8954 17 14 17.8954 14 19C14 19.7403 14.4022 20.3866 15 20.7324V22C15 22.5523 15.4477 23 16 23C16.5523 23 17 22.5523 17 22ZM16.4993 19.8668L16 20.1556L15.5007 19.8668C15.1992 19.6924 15 19.3689 15 19C15 18.4477 15.4477 18 16 18C16.5523 18 17 18.4477 17 19C17 19.3689 16.8008 19.6924 16.4993 19.8668Z" fill="black"/>
<path fill-rule="evenodd" clip-rule="evenodd" d="M9 6.5C9 4.01472 11.0147 2 13.5 2H18.5C20.9853 2 23 4.01472 23 6.5V7.5C23 7.77614 22.7761 8 22.5 8C22.2239 8 22 7.77614 22 7.5V6.5C22 4.567 20.433 3 18.5 3H13.5C11.567 3 10 4.567 10 6.5V12H24C25.6569 12 27 13.3431 27 15V26C27 27.1046 26.1046 28 25 28H7C5.89543 28 5 27.1046 5 26V15C5 13.3431 6.34315 12 8 12H9V6.5ZM8 13H24C25.1046 13 26 13.8954 26 15V26C26 26.5523 25.5523 27 25 27H7C6.44772 27 6 26.5523 6 26V15C6 13.8954 6.89543 13 8 13Z" fill="black"/>
</g>
</svg>
