<svg width="16" height="16" viewBox="0 0 16 16" fill="none" xmlns="http://www.w3.org/2000/svg">
<g opacity="0.9">
<path d="M8.49997 10.8662C8.79889 10.6933 9 10.3702 9 10C9 9.44772 8.55228 9 8 9C7.44772 9 7 9.44772 7 10C7 10.3701 7.20109 10.6933 7.49997 10.8662V11.5001C7.49997 11.7763 7.72383 12.0001 7.99997 12.0001C8.27611 12.0001 8.49997 11.7763 8.49997 11.5001V10.8662Z" fill="black"/>
<path fill-rule="evenodd" clip-rule="evenodd" d="M6.5 0C5.11929 0 4 1.11929 4 2.5V6C2.89543 6 2 6.89543 2 8V14C2 14.5523 2.44772 15 3 15H13C13.5523 15 14 14.5523 14 14V8C14 6.89543 13.1046 6 12 6H5V2.5C5 1.67157 5.67157 1 6.5 1H9.5C10.3284 1 11 1.67157 11 2.5V3C11 3.27614 11.2239 3.5 11.5 3.5C11.7761 3.5 12 3.27614 12 3V2.5C12 1.11929 10.8807 0 9.5 0H6.5ZM4 7C3.44772 7 3 7.44772 3 8L3 14H13V8C13 7.44772 12.5523 7 12 7H4Z" fill="black"/>
</g>
</svg>
