<svg width="32" height="32" viewBox="0 0 32 32" fill="none" xmlns="http://www.w3.org/2000/svg">
<path opacity="0.9" fill-rule="evenodd" clip-rule="evenodd" d="M18 4C18 4.93192 17.3626 5.71497 16.5 5.93699V8H25C26.6569 8 28 9.34315 28 11V14H29C29.5523 14 30 14.4477 30 15V18C30 18.5523 29.5523 19 29 19H28V22C28 23.6569 26.6569 25 25 25H7C5.34315 25 4 23.6569 4 22V19H3C2.44772 19 2 18.5523 2 18V15C2 14.4477 2.44772 14 3 14H4V11C4 9.34315 5.34315 8 7 8H15.5V5.93699C14.6374 5.71497 14 4.93192 14 4C14 2.89543 14.8954 2 16 2C17.1046 2 18 2.89543 18 4ZM17 4C17 4.55228 16.5523 5 16 5C15.4477 5 15 4.55228 15 4C15 3.44772 15.4477 3 16 3C16.5523 3 17 3.44772 17 4ZM9.02746 24H22.9725C22.7238 21.75 20.8163 20 18.5 20H13.5C11.1837 20 9.27619 21.75 9.02746 24ZM13.3563 19.0018C10.5526 19.0738 8.2708 21.2437 8.02242 24H7C5.89543 24 5 23.1046 5 22V11C5 9.89543 5.89543 9 7 9H25C26.1046 9 27 9.89543 27 11V22C27 23.1046 26.1046 24 25 24H23.9776C23.7292 21.2437 21.4474 19.0738 18.6437 19.0018C19.4754 18.2689 20 17.1957 20 16C20 13.7909 18.2091 12 16 12C13.7909 12 12 13.7909 12 16C12 17.1957 12.5246 18.2689 13.3563 19.0018ZM16 19C17.6569 19 19 17.6569 19 16C19 14.3431 17.6569 13 16 13C14.3431 13 13 14.3431 13 16C13 17.6569 14.3431 19 16 19ZM28 18H29V15H28V18ZM4 15H3V18H4V15Z" fill="black"/>
</svg>
