<svg width="32" height="32" viewBox="0 0 32 32" fill="none" xmlns="http://www.w3.org/2000/svg">
<g opacity="0.9">
<path fill-rule="evenodd" clip-rule="evenodd" d="M8.24985 6.36573C8.71232 5.30723 9.76903 4.56591 11 4.56591L25 4.56592C26.6569 4.56592 28 5.90906 28 7.56592C28 9.22277 26.6569 10.5659 25 10.5659L23 10.5659L23 19.0659C23 19.3421 22.7761 19.5659 22.5 19.5659C22.2239 19.5659 22 19.3421 22 19.0659L22 7.56592C22 6.79756 22.2889 6.09667 22.7639 5.56592L11 5.56591C10.1807 5.56591 9.47528 6.0587 9.1662 6.7661C9.05564 7.01915 8.76088 7.13465 8.50784 7.02409C8.25479 6.91353 8.13929 6.61877 8.24985 6.36573ZM25 5.56592C23.8954 5.56592 23 6.46135 23 7.56592L23 9.56592L25 9.56592C26.1046 9.56592 27 8.67049 27 7.56592C27 6.46135 26.1046 5.56592 25 5.56592Z" fill="black"/>
<path fill-rule="evenodd" clip-rule="evenodd" d="M8.5 11.0659C8.77614 11.0659 9 11.2898 9 11.5659L9 20.5659L20 20.5659C20.2761 20.5659 20.5 20.7898 20.5 21.0659C20.5 21.3421 20.2761 21.5659 20 21.5659C18.8954 21.5659 18 22.4613 18 23.5659C18 24.6705 18.8954 25.5659 20 25.5659C21.1046 25.5659 22 24.6705 22 23.5659C22 23.2898 22.2239 23.0659 22.5 23.0659C22.7761 23.0659 23 23.2898 23 23.5659C23 25.2228 21.6569 26.5659 20 26.5659L7 26.5659C5.34315 26.5659 4 25.2228 4 23.5659C4 21.9091 5.34315 20.5659 7 20.5659L8 20.5659L8 11.5659C8 11.2898 8.22386 11.0659 8.5 11.0659ZM17.7639 25.5659C17.2889 25.0352 17 24.3343 17 23.5659C17 22.7976 17.2889 22.0967 17.7639 21.5659L7 21.5659C5.89543 21.5659 5 22.4613 5 23.5659C5 24.6705 5.89543 25.5659 7 25.5659L17.7639 25.5659Z" fill="black"/>
<path d="M11.5 8.56592C11.2239 8.56592 11 8.78977 11 9.06592C11 9.34206 11.2239 9.56592 11.5 9.56592L19.5 9.56592C19.7761 9.56592 20 9.34206 20 9.06592C20 8.78977 19.7761 8.56592 19.5 8.56592L11.5 8.56592Z" fill="black"/>
<path d="M15 11.5659C14.7239 11.5659 14.5 11.7898 14.5 12.0659C14.5 12.3421 14.7239 12.5659 15 12.5659L19.5 12.5659C19.7761 12.5659 20 12.3421 20 12.0659C20 11.7898 19.7761 11.5659 19.5 11.5659L15 11.5659Z" fill="black"/>
<path d="M11.5 14.5659C11.2239 14.5659 11 14.7898 11 15.0659C11 15.3421 11.2239 15.5659 11.5 15.5659L12.5 15.5659C12.7761 15.5659 13 15.3421 13 15.0659C13 14.7898 12.7761 14.5659 12.5 14.5659L11.5 14.5659Z" fill="black"/>
<path d="M18.5 14.5659C18.2239 14.5659 18 14.7898 18 15.0659C18 15.3421 18.2239 15.5659 18.5 15.5659L19.5 15.5659C19.7761 15.5659 20 15.3421 20 15.0659C20 14.7898 19.7761 14.5659 19.5 14.5659L18.5 14.5659Z" fill="black"/>
<path d="M11.5 17.5659C11.2239 17.5659 11 17.7898 11 18.0659C11 18.3421 11.2239 18.5659 11.5 18.5659L15.5 18.5659C15.7761 18.5659 16 18.3421 16 18.0659C16 17.7898 15.7761 17.5659 15.5 17.5659L11.5 17.5659Z" fill="black"/>
<path d="M5.83546 5.69515C5.63069 5.50988 5.31451 5.52569 5.12924 5.73046C4.94397 5.93523 4.95978 6.25142 5.16455 6.43669L26.1645 25.4367C26.3693 25.622 26.6855 25.6061 26.8708 25.4014C27.056 25.1966 27.0402 24.8804 26.8355 24.6952L5.83546 5.69515Z" fill="black"/>
</g>
</svg>
