<svg width="32" height="32" viewBox="0 0 32 32" fill="none" xmlns="http://www.w3.org/2000/svg">
<path opacity="0.9" fill-rule="evenodd" clip-rule="evenodd" d="M16 28C9.37258 28 4 22.6274 4 16C4 9.37259 9.37258 4 16 4C22.6274 4 28 9.37258 28 16C28 22.6274 22.6274 28 16 28ZM9.32428 17.2628C8.91716 17.636 8.88965 18.2686 9.26285 18.6757C9.63604 19.0828 10.2686 19.1103 10.6757 18.7372L16 13.8566L21.3243 18.7372C21.7314 19.1103 22.364 19.0828 22.7372 18.6757C23.1103 18.2686 23.0828 17.636 22.6757 17.2628L16.6757 11.7628C16.2934 11.4124 15.7066 11.4124 15.3243 11.7628L9.32428 17.2628Z" fill="black"/>
</svg>
