<svg width="32" height="32" viewBox="0 0 32 32" fill="none" xmlns="http://www.w3.org/2000/svg">
<g opacity="0.9">
<path d="M9.66214 17.6314C9.45858 17.818 9.44483 18.1343 9.63143 18.3379C9.81802 18.5414 10.1343 18.5552 10.3379 18.3686L16 13.1783L21.6621 18.3686C21.8657 18.5552 22.182 18.5414 22.3686 18.3379C22.5552 18.1343 22.5414 17.818 22.3379 17.6314L16.3379 12.1314C16.1467 11.9562 15.8533 11.9562 15.6621 12.1314L9.66214 17.6314Z" fill="black"/>
<path fill-rule="evenodd" clip-rule="evenodd" d="M4 16C4 22.6274 9.37258 28 16 28C22.6274 28 28 22.6274 28 16C28 9.37258 22.6274 4 16 4C9.37258 4 4 9.37259 4 16ZM16 27C9.92487 27 5 22.0751 5 16C5 9.92487 9.92487 5 16 5C22.0751 5 27 9.92487 27 16C27 22.0751 22.0751 27 16 27Z" fill="black"/>
</g>
</svg>
