<svg width="24" height="24" viewBox="0 0 24 24" fill="none" xmlns="http://www.w3.org/2000/svg">
<path opacity="0.9" fill-rule="evenodd" clip-rule="evenodd" d="M2 8C2 6.34315 3.34315 5 5 5H19C20.6569 5 22 6.34315 22 8V16.0592C22 17.716 20.6569 19.0592 19 19.0592H8.02567C7.82288 19.0592 7.62489 19.1208 7.45795 19.236L3.56773 21.9188C2.90435 22.3763 2 21.9014 2 21.0956V8ZM5 6H19C19.3509 6 19.6807 6.09038 19.9674 6.24912L12 11.4045L4.03258 6.24913C4.31927 6.09038 4.64908 6 5 6ZM3.29107 6.96042C3.10639 7.26336 3 7.61925 3 8V21.0956L6.89022 18.4127C7.2241 18.1825 7.6201 18.0592 8.02567 18.0592H19C20.1046 18.0592 21 17.1637 21 16.0592V8C21 7.61925 20.8936 7.26335 20.7089 6.96041L12.2716 12.4198C12.1063 12.5268 11.8937 12.5268 11.7284 12.4198L3.29107 6.96042Z" fill="black"/>
</svg>
