<svg width="32" height="32" viewBox="0 0 32 32" fill="none" xmlns="http://www.w3.org/2000/svg">
<path opacity="0.9" fill-rule="evenodd" clip-rule="evenodd" d="M4 10C4 8.34314 5.34315 7 7 7H25C26.6569 7 28 8.34315 28 10V21C28 22.6569 26.6569 24 25 24H10.8571L5.51866 27.2385C4.85223 27.6428 4 27.163 4 26.3835V10ZM6.01935 8.25651C5.71937 8.4256 5.46741 8.66988 5.28904 8.96376L15.7094 16.4069C15.8832 16.531 16.1168 16.531 16.2906 16.4069L26.711 8.96376C26.5326 8.66988 26.2806 8.4256 25.9806 8.25651L16 15.3855L6.01935 8.25651Z" fill="black"/>
</svg>
