<svg width="32" height="32" viewBox="0 0 32 32" fill="none" xmlns="http://www.w3.org/2000/svg">
<g opacity="0.9">
<path d="M18.3597 11.1295C18.4312 10.8627 18.2729 10.5886 18.0061 10.5171C17.7394 10.4456 17.4652 10.6039 17.3938 10.8707L17.0186 12.2708C16.9471 12.5375 17.1054 12.8117 17.3721 12.8831C17.6389 12.9546 17.9131 12.7963 17.9845 12.5296L18.3597 11.1295Z" fill="black"/>
<path d="M14.9833 23.7304C15.0547 23.4637 14.8964 23.1895 14.6297 23.1181C14.363 23.0466 14.0888 23.2049 14.0173 23.4716L13.6422 24.8717C13.5707 25.1384 13.729 25.4126 13.9957 25.4841C14.2625 25.5556 14.5366 25.3973 14.6081 25.1305L14.9833 23.7304Z" fill="black"/>
<path fill-rule="evenodd" clip-rule="evenodd" d="M20.3472 17.9985C20.3472 20.3998 18.4005 22.3465 15.9991 22.3465C13.5977 22.3465 11.651 20.3998 11.651 17.9985C11.651 15.5971 13.5977 13.6504 15.9991 13.6504C18.4005 13.6504 20.3472 15.5971 20.3472 17.9985ZM19.3472 17.9985C19.3472 19.8476 17.8482 21.3465 15.9991 21.3465C14.15 21.3465 12.651 19.8476 12.651 17.9985C12.651 16.1494 14.15 14.6504 15.9991 14.6504C17.8482 14.6504 19.3472 16.1494 19.3472 17.9985Z" fill="black"/>
<path d="M23.484 15.9937C23.5555 16.2604 23.3972 16.5346 23.1304 16.6061L21.7303 16.9812C21.4636 17.0527 21.1894 16.8944 21.118 16.6277C21.0465 16.3609 21.2048 16.0868 21.4715 16.0153L22.8716 15.6402C23.1384 15.5687 23.4125 15.727 23.484 15.9937Z" fill="black"/>
<path d="M10.883 19.3701C10.9545 19.6369 10.7962 19.911 10.5295 19.9825L9.12938 20.3576C8.86265 20.4291 8.58848 20.2708 8.51701 20.0041C8.44554 19.7374 8.60383 19.4632 8.87057 19.3917L10.2707 19.0166C10.5374 18.9451 10.8116 19.1034 10.883 19.3701Z" fill="black"/>
<path d="M20.7718 23.4756C20.9671 23.6709 21.2837 23.6709 21.4789 23.4756C21.6742 23.2804 21.6742 22.9638 21.4789 22.7685L20.454 21.7436C20.2587 21.5483 19.9421 21.5483 19.7469 21.7436C19.5516 21.9388 19.5516 22.2554 19.7469 22.4507L20.7718 23.4756Z" fill="black"/>
<path d="M11.5473 14.2511C11.7426 14.4464 12.0591 14.4464 12.2544 14.2511C12.4497 14.0558 12.4497 13.7392 12.2544 13.544L11.2295 12.519C11.0342 12.3238 10.7176 12.3238 10.5223 12.519C10.3271 12.7143 10.3271 13.0309 10.5223 13.2261L11.5473 14.2511Z" fill="black"/>
<path fill-rule="evenodd" clip-rule="evenodd" d="M3 6.5C3 5.11929 4.11929 4 5.5 4H26.5C27.8807 4 29 5.11929 29 6.5V25.5C29 26.8807 27.8807 28 26.5 28H5.5C4.11929 28 3 26.8807 3 25.5V6.5ZM5.5 5C4.67157 5 4 5.67157 4 6.5V8H28V6.5C28 5.67157 27.3284 5 26.5 5H5.5ZM28 9H4V25.5C4 26.3284 4.67157 27 5.5 27H26.5C27.3284 27 28 26.3284 28 25.5V9Z" fill="black"/>
</g>
</svg>
