<svg width="16" height="16" viewBox="0 0 16 16" fill="none" xmlns="http://www.w3.org/2000/svg">
<path opacity="0.9" fill-rule="evenodd" clip-rule="evenodd" d="M13 4H3C2.44771 4 2 4.44771 2 5V13.9073L4.15995 12.3704C4.49858 12.1295 4.90386 12 5.31946 12H13C13.5523 12 14 11.5523 14 11V5C14 4.44772 13.5523 4 13 4ZM3 3C1.89543 3 1 3.89543 1 5V14.8767C1 15.283 1.45885 15.5197 1.78988 15.2841L4.73971 13.1852C4.90902 13.0647 5.11166 13 5.31946 13H13C14.1046 13 15 12.1046 15 11V5C15 3.89543 14.1046 3 13 3H3Z" fill="black"/>
</svg>
