<svg width="32" height="32" viewBox="0 0 32 32" fill="none" xmlns="http://www.w3.org/2000/svg">
<g opacity="0.9">
<mask id="path-1-inside-1" fill="white">
<path d="M4 10C4 8.34314 5.34315 7 7 7H25C26.6569 7 28 8.34315 28 10V21C28 22.6569 26.6569 24 25 24H10.8571L5.51866 27.2385C4.85223 27.6428 4 27.163 4 26.3835V10Z"/>
</mask>
<path d="M4 10C4 8.34314 5.34315 7 7 7H25C26.6569 7 28 8.34315 28 10V21C28 22.6569 26.6569 24 25 24H10.8571L5.51866 27.2385C4.85223 27.6428 4 27.163 4 26.3835V10Z" fill="black"/>
<path d="M10.8571 24V23H10.5775L10.3385 23.145L10.8571 24ZM5.51866 27.2385L6.03732 28.0935H6.03732L5.51866 27.2385ZM7 8H25V6H7V8ZM27 10V21H29V10H27ZM25 23H10.8571V25H25V23ZM10.3385 23.145L5 26.3835L6.03732 28.0935L11.3758 24.855L10.3385 23.145ZM5 26.3835V10H3V26.3835H5ZM5 26.3835L5 26.3835H3C3 27.9424 4.70445 28.902 6.03732 28.0935L5 26.3835ZM27 21C27 22.1046 26.1046 23 25 23V25C27.2091 25 29 23.2091 29 21H27ZM25 8C26.1046 8 27 8.89543 27 10H29C29 7.79086 27.2091 6 25 6V8ZM7 6C4.79086 6 3 7.79086 3 10H5C5 8.89543 5.89543 8 7 8V6Z" fill="black" mask="url(#path-1-inside-1)"/>
</g>
</svg>
