<svg width="24" height="24" viewBox="0 0 24 24" fill="none" xmlns="http://www.w3.org/2000/svg">
<path opacity="0.9" fill-rule="evenodd" clip-rule="evenodd" d="M19 6H5C3.89543 6 3 6.89543 3 8V21.0956L6.89022 18.4127C7.2241 18.1825 7.6201 18.0592 8.02567 18.0592H19C20.1046 18.0592 21 17.1637 21 16.0592V8C21 6.89543 20.1046 6 19 6ZM5 5C3.34315 5 2 6.34315 2 8V21.0956C2 21.9014 2.90435 22.3763 3.56773 21.9188L7.45795 19.236C7.62489 19.1208 7.82288 19.0592 8.02567 19.0592H19C20.6569 19.0592 22 17.716 22 16.0592V8C22 6.34315 20.6569 5 19 5H5Z" fill="black"/>
</svg>
