<svg width="32" height="32" viewBox="0 0 32 32" fill="none" xmlns="http://www.w3.org/2000/svg">
<path opacity="0.9" fill-rule="evenodd" clip-rule="evenodd" d="M11 4C9.89543 4 9 4.89543 9 6V26C9 27.1046 9.89543 28 11 28H21C22.1046 28 23 27.1046 23 26V6C23 4.89543 22.1046 4 21 4H11ZM12.5854 5H11C10.4477 5 10 5.44772 10 6V26C10 26.5523 10.4477 27 11 27H21C21.5523 27 22 26.5523 22 26V6C22 5.44772 21.5523 5 21 5H19.4146C19.2087 5.5826 18.6531 6 18 6H14C13.3469 6 12.7913 5.5826 12.5854 5Z" fill="black"/>
</svg>
