<svg width="32" height="32" viewBox="0 0 32 32" fill="none" xmlns="http://www.w3.org/2000/svg">
<g opacity="0.9">
<path d="M15.6465 8.56822C15.8417 8.76348 16.1583 8.76348 16.3536 8.56822L19.8536 5.06815C20.0488 4.87289 20.0488 4.55631 19.8536 4.36105L16.3536 0.861046C16.1583 0.665784 15.8417 0.665784 15.6464 0.861046C15.4512 1.05631 15.4512 1.37289 15.6464 1.56815L18.2929 4.2146L16 4.2146C15.9946 4.2146 15.9892 4.21469 15.9839 4.21485C9.36387 4.22356 4 9.5928 4 16.2148C4 16.491 4.22386 16.7148 4.5 16.7148C4.77614 16.7148 5 16.491 5 16.2148C5 10.1397 9.92487 5.21484 16 5.21484C16.0053 5.21484 16.0105 5.21476 16.0158 5.2146L18.2929 5.2146L15.6465 7.86112C15.4512 8.05638 15.4512 8.37296 15.6465 8.56822Z" fill="black"/>
<path d="M17.3763 31.5439C17.1944 31.7517 16.8786 31.7728 16.6707 31.5909L12.6707 28.0909C12.5622 27.996 12.5 27.8588 12.5 27.7146C12.5 27.5705 12.5622 27.4333 12.6707 27.3384L16.6707 23.8384C16.8786 23.6565 17.1944 23.6776 17.3763 23.8854C17.5581 24.0932 17.5371 24.4091 17.3293 24.5909L14.3307 27.2146H16C16.0046 27.2146 16.0092 27.2147 16.0138 27.2148C22.0826 27.2074 27 22.2854 27 16.2148C27 15.9387 27.2239 15.7148 27.5 15.7148C27.7761 15.7148 28 15.9387 28 16.2148C28 22.8423 22.6274 28.2148 16 28.2148C15.9952 28.2148 15.9905 28.2148 15.9858 28.2146H14.3307L17.3293 30.8384C17.5371 31.0202 17.5581 31.3361 17.3763 31.5439Z" fill="black"/>
</g>
</svg>
