<svg width="24" height="24" viewBox="0 0 24 24" fill="none" xmlns="http://www.w3.org/2000/svg">
<g opacity="0.9">
<path d="M17.424 4.23507C17.2776 4.0009 16.9692 3.92971 16.735 4.07607C16.5008 4.22242 16.4296 4.5309 16.576 4.76507C17.7626 6.66369 18.375 9.31405 18.375 12.0001C18.375 14.6861 17.7626 17.3364 16.576 19.2351C16.4296 19.4692 16.5008 19.7777 16.735 19.9241C16.9692 20.0704 17.2776 19.9992 17.424 19.7651C18.7374 17.6637 19.375 14.8141 19.375 12.0001C19.375 9.18608 18.7374 6.33645 17.424 4.23507Z" fill="black"/>
<path d="M13 4.50001C13 4.30311 12.8844 4.12455 12.7048 4.04389C12.5252 3.96323 12.315 3.99549 12.1678 4.1263L7.8099 8.00001H4.5C3.67157 8.00001 3 8.67158 3 9.50001V14.5C3 15.3284 3.67157 16 4.5 16H7.8099L12.1678 19.8737C12.315 20.0045 12.5252 20.0368 12.7048 19.9561C12.8844 19.8755 13 19.6969 13 19.5V4.50001Z" fill="black"/>
<path d="M14.2572 7.06301C14.4986 6.92891 14.803 7.01588 14.9371 7.25727C15.6574 8.55379 16 10.2948 16 12.0001C16 13.7054 15.6574 15.4464 14.9371 16.7429C14.803 16.9843 14.4986 17.0713 14.2572 16.9372C14.0158 16.8031 13.9288 16.4987 14.0629 16.2573C14.676 15.1538 15 13.5948 15 12.0001C15 10.4054 14.676 8.84639 14.0629 7.74291C13.9288 7.50152 14.0158 7.19712 14.2572 7.06301Z" fill="black"/>
</g>
</svg>
