<svg width="25" height="24" viewBox="0 0 25 24" fill="none" xmlns="http://www.w3.org/2000/svg">
<g opacity="0.9">
<path fill-rule="evenodd" clip-rule="evenodd" d="M12.0352 14C13.1397 14 14.0352 13.1046 14.0352 12C14.0352 10.8954 13.1397 10 12.0352 10C10.9306 10 10.0352 10.8954 10.0352 12C10.0352 13.1046 10.9306 14 12.0352 14ZM12.0352 13C12.5874 13 13.0352 12.5523 13.0352 12C13.0352 11.4477 12.5874 11 12.0352 11C11.4829 11 11.0352 11.4477 11.0352 12C11.0352 12.5523 11.4829 13 12.0352 13Z" fill="black"/>
<path fill-rule="evenodd" clip-rule="evenodd" d="M19.8954 12.3467C20.081 12.1533 20.0813 11.847 19.8957 11.6536L19.8945 11.6523L19.8918 11.6496L19.8828 11.6403L19.8502 11.6073C19.8221 11.5792 19.7814 11.5391 19.7286 11.4885C19.6232 11.3875 19.4696 11.245 19.2728 11.0749C18.8796 10.735 18.3117 10.2825 17.6094 9.82976C16.213 8.92951 14.2421 8 12.0351 8C9.82822 8 7.85732 8.92951 6.46092 9.82976C5.75861 10.2825 5.19068 10.735 4.79752 11.0749C4.60071 11.245 4.44707 11.3875 4.34164 11.4885C4.28891 11.5391 4.24819 11.5792 4.22011 11.6073L4.18753 11.6403L4.17848 11.6496L4.17579 11.6523L4.17491 11.6533C3.98932 11.8467 3.98875 12.1527 4.17434 12.3462C4.17434 12.3462 4.17434 12.3462 4.53515 12L4.17434 12.3462L4.17579 12.3477L4.17848 12.3504L4.18753 12.3597L4.22011 12.3927C4.24819 12.4208 4.28891 12.4609 4.34164 12.5115C4.44707 12.6125 4.60071 12.755 4.79752 12.9251C5.19068 13.265 5.75861 13.7175 6.46092 14.1702C7.85732 15.0705 9.82822 16 12.0351 16C14.2421 16 16.213 15.0705 17.6094 14.1702C18.3117 13.7175 18.8796 13.265 19.2728 12.9251C19.4696 12.755 19.6232 12.6125 19.7286 12.5115C19.7814 12.4609 19.8221 12.4208 19.8502 12.3927L19.8828 12.3597L19.8918 12.3504L19.8945 12.3477L19.8954 12.3467ZM5.45155 12.1686C5.38166 12.1082 5.31787 12.0518 5.26046 12C5.31787 11.9482 5.38166 11.8918 5.45155 11.8314C5.81743 11.515 6.34785 11.0925 7.00277 10.6702C8.32084 9.82049 10.0999 9 12.0351 9C13.9704 9 15.7495 9.82049 17.0675 10.6702C17.7224 11.0925 18.2529 11.515 18.6187 11.8314C18.6886 11.8918 18.7524 11.9482 18.8098 12C18.7524 12.0518 18.6886 12.1082 18.6187 12.1686C18.2529 12.485 17.7224 12.9075 17.0675 13.3298C15.7495 14.1795 13.9704 15 12.0351 15C10.0999 15 8.32084 14.1795 7.00277 13.3298C6.34785 12.9075 5.81743 12.485 5.45155 12.1686ZM19.5351 12C19.896 11.6538 19.8957 11.6536 19.8957 11.6536L19.5351 12ZM19.8954 12.3467C19.8954 12.3467 19.896 12.3462 19.5351 12L19.8954 12.3467ZM4.17491 11.6533C4.17491 11.6533 4.17434 11.6538 4.53515 12L4.17491 11.6533Z" fill="black"/>
<path fill-rule="evenodd" clip-rule="evenodd" d="M2.03516 12C2.03516 6.47715 6.51231 2 12.0352 2C17.558 2 22.0352 6.47715 22.0352 12C22.0352 17.5228 17.558 22 12.0352 22C6.51231 22 2.03516 17.5228 2.03516 12ZM12.0352 3C7.06459 3 3.03516 7.02944 3.03516 12C3.03516 16.9706 7.06459 21 12.0352 21C17.0057 21 21.0352 16.9706 21.0352 12C21.0352 7.02944 17.0057 3 12.0352 3Z" fill="black"/>
</g>
</svg>
