<svg width="32" height="32" viewBox="0 0 32 32" fill="none" xmlns="http://www.w3.org/2000/svg">
<g opacity="0.9">
<path d="M15.5 5C9.70101 5 5 9.70101 5 15.5C5 21.299 9.70101 26 15.5 26H17C17.2761 26 17.5 26.2239 17.5 26.5C17.5 26.7761 17.2761 27 17 27H15.5C9.14873 27 4 21.8513 4 15.5C4 9.14873 9.14873 4 15.5 4C21.8513 4 27 9.14873 27 15.5C27 15.7761 26.7761 16 26.5 16C26.2239 16 26 15.7761 26 15.5C26 9.70101 21.299 5 15.5 5Z" fill="black"/>
<path fill-rule="evenodd" clip-rule="evenodd" d="M8 14C8 13.4477 8.44772 13 9 13H12C12.5523 13 13 13.4477 13 14V15H18.05C18.2816 13.8589 19.2905 13 20.5 13C21.8807 13 23 14.1193 23 15.5C23 16.8807 21.8807 18 20.5 18C19.2905 18 18.2816 17.1411 18.05 16H13V17C13 17.5523 12.5523 18 12 18H9C8.44772 18 8 17.5523 8 17V14ZM12 14H9V17H12V14ZM20.5 14C19.6716 14 19 14.6716 19 15.5C19 16.3284 19.6716 17 20.5 17C21.3284 17 22 16.3284 22 15.5C22 14.6716 21.3284 14 20.5 14Z" fill="black"/>
<path d="M23.1459 27.8534C23.2398 27.9472 23.3671 27.9999 23.4999 28C23.6327 28 23.7601 27.9472 23.8539 27.8534L29.8539 21.8533C30.0492 21.6581 30.049 21.3417 29.8535 21.1467C29.658 20.9516 29.3412 20.9518 29.146 21.1471L23.5 26.7931L20.8539 24.147C20.6587 23.9517 20.3419 23.9515 20.1464 24.1465C19.9509 24.3416 19.9507 24.6579 20.1459 24.8532L23.1459 27.8534Z" fill="black"/>
</g>
</svg>
