<svg width="16" height="16" viewBox="0 0 16 16" fill="none" xmlns="http://www.w3.org/2000/svg">
<g opacity="0.9">
<path d="M7.5 2C4.46243 2 2 4.46243 2 7.5C2 10.5376 4.46243 13 7.5 13C7.77614 13 8 13.2239 8 13.5C8 13.7761 7.77614 14 7.5 14C3.91015 14 1 11.0899 1 7.5C1 3.91015 3.91015 1 7.5 1C11.0899 1 14 3.91015 14 7.5C14 7.77614 13.7761 8 13.5 8C13.2239 8 13 7.77614 13 7.5C13 4.46243 10.5376 2 7.5 2Z" fill="black"/>
<path fill-rule="evenodd" clip-rule="evenodd" d="M3 6H6V7H9.08535C9.29127 6.4174 9.84689 6 10.5 6C11.3284 6 12 6.67157 12 7.5C12 8.32843 11.3284 9 10.5 9C9.84689 9 9.29127 8.5826 9.08535 8H6V9H3V6ZM4 8H5V7H4V8ZM10 7.5C10 7.22386 10.2239 7 10.5 7C10.7761 7 11 7.22386 11 7.5C11 7.77614 10.7761 8 10.5 8C10.2239 8 10 7.77614 10 7.5Z" fill="black"/>
<path d="M15.8535 10.8536C16.0487 10.6583 16.0487 10.3417 15.8535 10.1464C15.6582 9.95118 15.3416 9.95118 15.1464 10.1464L11.4999 13.7929L9.85348 12.1464C9.65821 11.9512 9.34163 11.9512 9.14637 12.1464C8.95111 12.3417 8.95111 12.6583 9.14637 12.8536L11.1464 14.8536C11.3416 15.0488 11.6582 15.0488 11.8535 14.8536L15.8535 10.8536Z" fill="black"/>
</g>
</svg>
