<svg width="24" height="24" viewBox="0 0 24 24" fill="none" xmlns="http://www.w3.org/2000/svg">
<g opacity="0.9">
<path d="M11.5 3C6.80558 3 3 6.80558 3 11.5C3 16.1944 6.80558 20 11.5 20C11.7761 20 12 20.2239 12 20.5C12 20.7761 11.7761 21 11.5 21C6.25329 21 2 16.7467 2 11.5C2 6.25329 6.25329 2 11.5 2C16.7467 2 21 6.25329 21 11.5C21 11.7761 20.7761 12 20.5 12C20.2239 12 20 11.7761 20 11.5C20 6.80558 16.1944 3 11.5 3Z" fill="black"/>
<path fill-rule="evenodd" clip-rule="evenodd" d="M6 10H9V11H14.0854C14.2913 10.4174 14.8469 10 15.5 10C16.3284 10 17 10.6716 17 11.5C17 12.3284 16.3284 13 15.5 13C14.8469 13 14.2913 12.5826 14.0854 12H9V13H6V10ZM7 12H8V11H7V12ZM15.5 11C15.2239 11 15 11.2239 15 11.5C15 11.7761 15.2239 12 15.5 12C15.7761 12 16 11.7761 16 11.5C16 11.2239 15.7761 11 15.5 11Z" fill="black"/>
<path d="M22.8535 15.8536C23.0487 15.6583 23.0487 15.3417 22.8535 15.1464C22.6582 14.9512 22.3416 14.9512 22.1464 15.1464L16.4999 20.7929L13.8535 18.1464C13.6582 17.9512 13.3416 17.9512 13.1464 18.1464C12.9511 18.3417 12.9511 18.6583 13.1464 18.8536L16.1464 21.8536C16.3416 22.0488 16.6582 22.0488 16.8535 21.8536L22.8535 15.8536Z" fill="black"/>
</g>
</svg>
