<svg width="16" height="16" viewBox="0 0 16 16" fill="none" xmlns="http://www.w3.org/2000/svg">
<g clip-path="url(#clip0)">
<path opacity="0.9" fill-rule="evenodd" clip-rule="evenodd" d="M7.42692 0.0252394C7.22602 -0.0410926 7.00512 0.0261994 6.87532 0.19327L1.42049 7.21437C1.4113 7.2262 1.40265 7.23843 1.39456 7.25103C1.0796 7.74169 0.92874 8.29858 1.03242 8.88872C1.11642 9.36678 1.35991 9.82404 1.74491 10.2555C1.56662 10.6534 1.49688 11.0856 1.57623 11.5373C1.67851 12.1194 2.01727 12.6707 2.56005 13.1821C2.60686 13.2262 2.66174 13.2609 2.72168 13.2842L9.61579 15.966C9.83432 16.051 10.0826 15.9728 10.2128 15.7778L14.9158 8.73839C15.0154 8.58919 15.0275 8.39801 14.9474 8.23744C14.6957 7.73272 14.5157 7.3591 14.4391 6.97839C14.3677 6.62301 14.3842 6.24143 14.5883 5.73789C14.6422 5.60494 14.6364 5.45524 14.5724 5.32686C14.3206 4.82214 14.1406 4.44852 14.0641 4.06781C13.9926 3.71243 14.0091 3.33084 14.2133 2.82731C14.2652 2.69909 14.2618 2.55506 14.2037 2.4295C14.1456 2.30393 14.038 2.20806 13.9067 2.16468L7.42692 0.0252394ZM2.56115 11.3642C2.5286 11.179 2.54165 10.992 2.60411 10.8015L9.07198 13.3175C9.29061 13.4025 9.53897 13.3241 9.66917 13.129L13.5064 7.37802C13.6037 7.74092 13.7588 8.0861 13.9236 8.42339L9.60427 14.8885L3.17783 12.3887C2.78796 12.0027 2.61254 11.6567 2.56115 11.3642ZM9.06023 12.2399L13.5486 5.51299C13.383 5.17409 13.2272 4.82722 13.13 4.46243L9.17834 10.3581C9.04984 10.5498 8.80681 10.6287 8.59022 10.5489L2.06289 8.14513C1.99821 8.33836 1.98434 8.52788 2.01734 8.71568C2.06873 9.00818 2.24415 9.35414 2.63402 9.74012L9.06023 12.2399ZM8.39693 2.76467L10.5581 3.45381C10.6897 3.49577 10.7401 3.6553 10.6566 3.7653L10.2251 4.33367C10.0944 4.50583 9.86782 4.57449 9.66353 4.50389L7.54167 3.77057C7.41278 3.72602 7.36529 3.56838 7.44813 3.46005L7.84784 2.93732C7.97607 2.76962 8.19581 2.70053 8.39693 2.76467Z" fill="black"/>
</g>
<defs>
<clipPath id="clip0">
<rect width="16" height="16" fill="white"/>
</clipPath>
</defs>
</svg>
