<svg width="16" height="16" viewBox="0 0 16 16" fill="none" xmlns="http://www.w3.org/2000/svg">
<g clip-path="url(#clip0)">
<g opacity="0.9">
<path fill-rule="evenodd" clip-rule="evenodd" d="M6.87532 0.19327C7.00512 0.0261994 7.22602 -0.0410926 7.42692 0.0252394L13.9067 2.16468C14.038 2.20806 14.1456 2.30393 14.2037 2.4295C14.2618 2.55506 14.2652 2.69909 14.2133 2.82731C14.0091 3.33084 13.9926 3.71243 14.0641 4.06781C14.1406 4.44852 14.3206 4.82214 14.5724 5.32686C14.6364 5.45524 14.6422 5.60494 14.5883 5.73789C14.3842 6.24143 14.3677 6.62301 14.4391 6.97839C14.5157 7.3591 14.6957 7.73272 14.9474 8.23744C15.0275 8.39801 15.0154 8.58919 14.9158 8.73839L10.2128 15.7778C10.0826 15.9728 9.83432 16.051 9.61579 15.966L2.72168 13.2842C2.66174 13.2609 2.60686 13.2262 2.56005 13.1821C2.01727 12.6707 1.67851 12.1194 1.57623 11.5373C1.49688 11.0856 1.56662 10.6534 1.74491 10.2555C1.35991 9.82404 1.11642 9.36678 1.03242 8.88872C0.92874 8.29858 1.0796 7.74169 1.39456 7.25103C1.40265 7.23843 1.4113 7.2262 1.42049 7.21437L6.87532 0.19327ZM2.60411 10.8015C2.54165 10.992 2.5286 11.179 2.56115 11.3642C2.61254 11.6567 2.78796 12.0027 3.17783 12.3887L9.60427 14.8885L13.9236 8.42339C13.7588 8.0861 13.6037 7.74092 13.5064 7.37802L9.66917 13.129C9.53897 13.3241 9.29061 13.4025 9.07198 13.3175L2.60411 10.8015ZM13.5486 5.51299L9.06023 12.2399L2.63402 9.74012C2.24415 9.35414 2.06873 9.00818 2.01734 8.71568C1.98434 8.52788 1.99821 8.33836 2.06289 8.14513L8.59022 10.5489C8.80681 10.6287 9.04984 10.5498 9.17834 10.3581L13.13 4.46243C13.2272 4.82722 13.383 5.17409 13.5486 5.51299ZM12.9681 2.90788L7.4485 1.08546L2.62951 7.28814L8.56668 9.47457L12.9681 2.90788Z" fill="black"/>
<path d="M8.39694 2.76472L10.5581 3.45386C10.6897 3.49582 10.7401 3.65535 10.6566 3.76535L10.2251 4.33373C10.0944 4.50588 9.86783 4.57455 9.66353 4.50394L7.54168 3.77062C7.41279 3.72608 7.3653 3.56844 7.44813 3.46011L7.84785 2.93738C7.97608 2.76968 8.19581 2.70059 8.39694 2.76472Z" fill="black"/>
</g>
</g>
<defs>
<clipPath id="clip0">
<rect width="16" height="16" fill="white"/>
</clipPath>
</defs>
</svg>
