<svg width="24" height="24" viewBox="0 0 24 24" fill="none" xmlns="http://www.w3.org/2000/svg">
<path d="M2 21.5C2 21.2239 2.22386 21 2.5 21H21.5C21.7761 21 22 21.2239 22 21.5C22 21.7761 21.7761 22 21.5 22H2.5C2.22386 22 2 21.7761 2 21.5Z" fill="black"/>
<path fill-rule="evenodd" clip-rule="evenodd" d="M16 12.5C16 11.1193 17.1193 10 18.5 10H19.5C20.8807 10 22 11.1193 22 12.5V18.5C22 18.7761 21.7761 19 21.5 19C21.2239 19 21 18.7761 21 18.5V12.5C21 11.6716 20.3284 11 19.5 11H18.5C17.6716 11 17 11.6716 17 12.5V18.5C17 18.7761 16.7761 19 16.5 19C16.2239 19 16 18.7761 16 18.5V12.5Z" fill="black"/>
<path fill-rule="evenodd" clip-rule="evenodd" d="M2 7.5C2 6.11929 3.11929 5 4.5 5H5.5C6.88071 5 8 6.11929 8 7.5V18.5C8 18.7761 7.77614 19 7.5 19C7.22386 19 7 18.7761 7 18.5V7.5C7 6.67157 6.32843 6 5.5 6H4.5C3.67157 6 3 6.67157 3 7.5V18.5C3 18.7761 2.77614 19 2.5 19C2.22386 19 2 18.7761 2 18.5V7.5Z" fill="black"/>
<path fill-rule="evenodd" clip-rule="evenodd" d="M9 2.5C9 1.11929 10.1193 0 11.5 0H12.5C13.8807 0 15 1.11929 15 2.5V18.5C15 18.7761 14.7761 19 14.5 19C14.2239 19 14 18.7761 14 18.5V2.5C14 1.67157 13.3284 1 12.5 1H11.5C10.6716 1 10 1.67157 10 2.5V18.5C10 18.7761 9.77614 19 9.5 19C9.22386 19 9 18.7761 9 18.5V2.5Z" fill="black"/>
</svg>
