<svg width="32" height="32" viewBox="0 0 32 32" fill="none" xmlns="http://www.w3.org/2000/svg">
<g opacity="0.9">
<path d="M5 15.5C5 9.14873 10.1487 4 16.5 4C22.8513 4 28 9.14873 28 15.5C28 16.145 27.9469 16.7776 27.8448 17.3936C26.8036 16.5236 25.463 16 24 16L23.9499 16.0002C23.9828 15.8386 24 15.6713 24 15.5C24 14.1193 22.8807 13 21.5 13C20.2905 13 19.2816 13.8589 19.05 15H14V14C14 13.4477 13.5523 13 13 13H10C9.44772 13 9 13.4477 9 14V17C9 17.5523 9.44772 18 10 18H13C13.5523 18 14 17.5523 14 17V16H19.05C19.1753 16.6173 19.528 17.1519 20.0169 17.5127C18.7796 18.6118 18 20.2149 18 22C18 23.7712 18.7675 25.3632 19.9881 26.4615C18.8879 26.8113 17.716 27 16.5 27C10.1487 27 5 21.8513 5 15.5Z" fill="black"/>
<path d="M23.1302 26.1972C23.0843 26.5737 23.3969 26.8857 23.7762 26.8857C24.1509 26.8857 24.444 26.5789 24.5118 26.2103C24.5908 25.7811 24.7518 25.4317 24.9948 25.1621L25.8012 24.3631C26.6003 23.5248 26.9998 22.6741 26.9998 21.811C26.9998 20.9381 26.7384 20.2526 26.2155 19.7545C25.6977 19.2515 24.9726 19 24.0405 19C23.1428 19 22.4128 19.2466 21.8506 19.7397C21.4617 20.0804 21.2061 20.4966 21.0837 20.9885C20.9923 21.3562 21.3094 21.6705 21.6883 21.6705C22.0639 21.6705 22.3443 21.3488 22.5082 21.0108C22.5838 20.8548 22.6901 20.7172 22.8271 20.5978C23.1329 20.3315 23.5374 20.1984 24.0405 20.1984C24.5583 20.1984 24.9529 20.3463 25.2242 20.6422C25.4954 20.9332 25.6311 21.3376 25.6311 21.8554C25.6311 22.393 25.4239 22.896 25.0096 23.3645L24.0405 24.3631C23.6607 24.7774 23.4091 25.1547 23.2858 25.495C23.2155 25.689 23.1637 25.9231 23.1302 26.1972Z" fill="black"/>
<path d="M23.2266 28.6759C23.0935 28.8238 23.0269 29.0087 23.0269 29.2307C23.0269 29.4526 23.0935 29.6375 23.2266 29.7855C23.3647 29.9285 23.567 30 23.8333 30C24.0996 30 24.3019 29.9285 24.44 29.7855C24.5781 29.6375 24.6471 29.4526 24.6471 29.2307C24.6471 29.0087 24.5781 28.8238 24.44 28.6759C24.3019 28.523 24.0996 28.4465 23.8333 28.4465C23.567 28.4465 23.3647 28.523 23.2266 28.6759Z" fill="black"/>
</g>
</svg>
