<svg width="32" height="32" viewBox="0 0 32 32" fill="none" xmlns="http://www.w3.org/2000/svg">
<g opacity="0.9">
<path d="M15.5 5C9.70101 5 5 9.70101 5 15.5C5 21.299 9.70101 26 15.5 26H17C17.2761 26 17.5 26.2239 17.5 26.5C17.5 26.7761 17.2761 27 17 27H15.5C9.14873 27 4 21.8513 4 15.5C4 9.14873 9.14873 4 15.5 4C21.8513 4 27 9.14873 27 15.5C27 15.7761 26.7761 16 26.5 16C26.2239 16 26 15.7761 26 15.5C26 9.70101 21.299 5 15.5 5Z" fill="black"/>
<path fill-rule="evenodd" clip-rule="evenodd" d="M8 14C8 13.4477 8.44772 13 9 13H12C12.5523 13 13 13.4477 13 14V15H18.05C18.2816 13.8589 19.2905 13 20.5 13C21.8807 13 23 14.1193 23 15.5C23 16.8807 21.8807 18 20.5 18C19.2905 18 18.2816 17.1411 18.05 16H13V17C13 17.5523 12.5523 18 12 18H9C8.44772 18 8 17.5523 8 17V14ZM12 14H9V17H12V14ZM20.5 14C19.6716 14 19 14.6716 19 15.5C19 16.3284 19.6716 17 20.5 17C21.3284 17 22 16.3284 22 15.5C22 14.6716 21.3284 14 20.5 14Z" fill="black"/>
<path d="M23.1305 26.1972C23.0846 26.5737 23.3972 26.8857 23.7764 26.8857C24.1512 26.8857 24.4442 26.5789 24.512 26.2103C24.591 25.7811 24.752 25.4317 24.9951 25.1621L25.8015 24.3631C26.6005 23.5248 27 22.6741 27 21.811C27 20.9381 26.7386 20.2526 26.2158 19.7545C25.6979 19.2515 24.9729 19 24.0407 19C23.143 19 22.4131 19.2466 21.8508 19.7397C21.462 20.0804 21.2063 20.4966 21.084 20.9885C20.9925 21.3562 21.3097 21.6705 21.6886 21.6705C22.0642 21.6705 22.3445 21.3488 22.5084 21.0108C22.584 20.8548 22.6904 20.7172 22.8274 20.5978C23.1332 20.3315 23.5376 20.1984 24.0407 20.1984C24.5586 20.1984 24.9531 20.3463 25.2244 20.6422C25.4957 20.9332 25.6313 21.3376 25.6313 21.8554C25.6313 22.393 25.4242 22.896 25.0099 23.3645L24.0407 24.3631C23.6609 24.7774 23.4094 25.1547 23.2861 25.495C23.2158 25.689 23.1639 25.9231 23.1305 26.1972Z" fill="black"/>
<path d="M23.2269 28.6759C23.0937 28.8238 23.0271 29.0087 23.0271 29.2307C23.0271 29.4526 23.0937 29.6375 23.2269 29.7855C23.365 29.9285 23.5672 30 23.8335 30C24.0999 30 24.3021 29.9285 24.4402 29.7855C24.5783 29.6375 24.6474 29.4526 24.6474 29.2307C24.6474 29.0087 24.5783 28.8238 24.4402 28.6759C24.3021 28.523 24.0999 28.4465 23.8335 28.4465C23.5672 28.4465 23.365 28.523 23.2269 28.6759Z" fill="black"/>
</g>
</svg>
