<svg width="32" height="32" viewBox="0 0 32 32" fill="none" xmlns="http://www.w3.org/2000/svg">
<g opacity="0.9">
<path fill-rule="evenodd" clip-rule="evenodd" d="M12 18.5C12 19.3284 11.3284 20 10.5 20C9.67157 20 9 19.3284 9 18.5C9 17.6716 9.67157 17 10.5 17C11.3284 17 12 17.6716 12 18.5ZM11 18.5C11 18.7761 10.7761 19 10.5 19C10.2239 19 10 18.7761 10 18.5C10 18.2239 10.2239 18 10.5 18C10.7761 18 11 18.2239 11 18.5Z" fill="black"/>
<path fill-rule="evenodd" clip-rule="evenodd" d="M16 20C16.8284 20 17.5 19.3284 17.5 18.5C17.5 17.6716 16.8284 17 16 17C15.1716 17 14.5 17.6716 14.5 18.5C14.5 19.3284 15.1716 20 16 20ZM16 19C16.2761 19 16.5 18.7761 16.5 18.5C16.5 18.2239 16.2761 18 16 18C15.7239 18 15.5 18.2239 15.5 18.5C15.5 18.7761 15.7239 19 16 19Z" fill="black"/>
<path fill-rule="evenodd" clip-rule="evenodd" d="M23 18.5C23 19.3284 22.3284 20 21.5 20C20.6716 20 20 19.3284 20 18.5C20 17.6716 20.6716 17 21.5 17C22.3284 17 23 17.6716 23 18.5ZM22 18.5C22 18.7761 21.7761 19 21.5 19C21.2239 19 21 18.7761 21 18.5C21 18.2239 21.2239 18 21.5 18C21.7761 18 22 18.2239 22 18.5Z" fill="black"/>
<path fill-rule="evenodd" clip-rule="evenodd" d="M16.5 5.93699C17.3626 5.71497 18 4.93192 18 4C18 2.89543 17.1046 2 16 2C14.8954 2 14 2.89543 14 4C14 4.93192 14.6374 5.71497 15.5 5.93699V8H7C5.34315 8 4 9.34315 4 11V14H3C2.44772 14 2 14.4477 2 15V18C2 18.5523 2.44772 19 3 19H4V22C4 23.6569 5.34315 25 7 25H9.14286V29.1598L16 25H25C26.6569 25 28 23.6569 28 22V19H29C29.5523 19 30 18.5523 30 18V15C30 14.4477 29.5523 14 29 14H28V11C28 9.34315 26.6569 8 25 8H16.5V5.93699ZM16 5C16.5523 5 17 4.55228 17 4C17 3.44772 16.5523 3 16 3C15.4477 3 15 3.44772 15 4C15 4.55228 15.4477 5 16 5ZM29 18H28V15H29V18ZM27 11V22C27 23.1046 26.1046 24 25 24H15.7204L10.1429 27.3835V24H7C5.89543 24 5 23.1046 5 22V11C5 9.89543 5.89543 9 7 9H25C26.1046 9 27 9.89543 27 11ZM3 15H4V18H3V15Z" fill="black"/>
</g>
</svg>
