<svg width="24" height="24" viewBox="0 0 24 24" fill="none" xmlns="http://www.w3.org/2000/svg">
<path opacity="0.9" d="M12.3334 2.44323L12 2.91465L11.6666 2.44323C11.2776 2.30571 11 1.93462 11 1.5C11 0.947715 11.4477 0.5 12 0.5C12.5523 0.5 13 0.947715 13 1.5C13 1.93462 12.7224 2.30571 12.3334 2.44323ZM11.5 5.5L12 5L12.5 5.5H19C20.3807 5.5 21.5 6.61929 21.5 8V10L22 10.5C22.2761 10.5 22.5 10.7239 22.5 11V13C22.5 13.2761 22.2761 13.5 22 13.5L21.5 14V16.0592C21.5 17.4399 20.3807 18.5592 19 18.5592H12L11.7161 18.6476L6.78571 22.0478V19.0592L6.28571 18.5592H5C3.61929 18.5592 2.5 17.4399 2.5 16.0592V14L2 13.5C1.72386 13.5 1.5 13.2761 1.5 13V11C1.5 10.7239 1.72386 10.5 2 10.5L2.5 10V8C2.5 6.61929 3.61929 5.5 5 5.5H11.5ZM6.5 15.5C7.60457 15.5 8.5 14.6046 8.5 13.5C8.5 12.3954 7.60457 11.5 6.5 11.5C5.39543 11.5 4.5 12.3954 4.5 13.5C4.5 14.6046 5.39543 15.5 6.5 15.5ZM12 15.5C13.1046 15.5 14 14.6046 14 13.5C14 12.3954 13.1046 11.5 12 11.5C10.8954 11.5 10 12.3954 10 13.5C10 14.6046 10.8954 15.5 12 15.5ZM17.5 15.5C18.6046 15.5 19.5 14.6046 19.5 13.5C19.5 12.3954 18.6046 11.5 17.5 11.5C16.3954 11.5 15.5 12.3954 15.5 13.5C15.5 14.6046 16.3954 15.5 17.5 15.5Z" fill="black" stroke="black" stroke-linejoin="bevel"/>
</svg>
