<svg width="24" height="24" viewBox="0 0 24 24" fill="none" xmlns="http://www.w3.org/2000/svg">
<path opacity="0.9" fill-rule="evenodd" clip-rule="evenodd" d="M10.6688 3.0294C10.8675 3.10066 11 3.28898 11 3.50003V8.0095C18.0766 8.27931 22 14.2726 22 20.5001C22 20.7513 21.8135 20.9636 21.5643 20.9959C21.3151 21.0282 21.0807 20.8706 21.0165 20.6276C20.6098 19.086 19.2489 17.9248 17.288 17.1417C15.4735 16.4171 13.2265 16.0526 11 16.0053V20.5001C11 20.7111 10.8675 20.8994 10.6688 20.9707C10.4702 21.042 10.2482 20.9808 10.114 20.8179L3.11403 12.3179C2.96199 12.1333 2.96199 11.8668 3.11403 11.6822L10.114 3.18217C10.2482 3.01926 10.4702 2.95813 10.6688 3.0294ZM4.14773 12.0001L10 19.1064V15.5C10 15.2239 10.2239 15 10.5 15C12.9727 15 15.5571 15.3737 17.6589 16.213C18.9053 16.7108 20.0159 17.3874 20.8209 18.2731C19.9948 13.2108 16.3425 9.00003 10.5 9.00003C10.2239 9.00003 10 8.77617 10 8.50003V4.8937L4.14773 12.0001Z" fill="black"/>
</svg>
