<svg width="16" height="17" viewBox="0 0 16 17" fill="none" xmlns="http://www.w3.org/2000/svg">
<g opacity="0.9">
<path d="M1 4.21704C1 3.38861 1.67157 2.71704 2.5 2.71704H13.5C14.3284 2.71704 15 3.38861 15 4.21704C15 5.04547 14.3284 5.71704 13.5 5.71704H2.5C1.67157 5.71704 1 5.04547 1 4.21704Z" fill="black"/>
<path d="M3.5 8.71704C3.5 8.16476 3.94772 7.71704 4.5 7.71704H11.5C12.0523 7.71704 12.5 8.16476 12.5 8.71704C12.5 9.26933 12.0523 9.71704 11.5 9.71704H4.5C3.94772 9.71704 3.5 9.26933 3.5 8.71704Z" fill="black"/>
<path d="M6 12.717C6 12.1648 6.44772 11.717 7 11.717H9C9.55228 11.717 10 12.1648 10 12.717C10 13.2693 9.55228 13.717 9 13.717H7C6.44772 13.717 6 13.2693 6 12.717Z" fill="black"/>
</g>
</svg>
