<svg width="24" height="24" viewBox="0 0 24 24" fill="none" xmlns="http://www.w3.org/2000/svg">
<path opacity="0.9" fill-rule="evenodd" clip-rule="evenodd" d="M22 8.4887V4C22 2.89543 21.1046 2 20 2H4C2.89543 2 2 2.89543 2 4V9.98989C1.99988 9.99624 1.99988 10.0026 2 10.009V16.9909C1.99988 16.9972 1.99988 17.0036 2 17.01V20C2 21.1046 2.89543 22 4 22H20C21.1046 22 22 21.1046 22 20V8.51147C22.0002 8.5039 22.0002 8.49631 22 8.4887ZM20 3H4C3.44772 3 3 3.44772 3 4V9.40091L7.05819 8.66305C7.19648 8.27654 7.56594 8 8 8C8.48365 8 8.88711 8.34336 8.97992 8.79961L13.3365 10.2518C13.513 10.0951 13.7454 10 14 10C14.2546 10 14.487 10.0951 14.6635 10.2518L21 8.13963V4C21 3.44772 20.5523 3 20 3ZM13.0201 11.2004C13.1129 11.6567 13.5164 12 14 12C14.4836 12 14.8871 11.6567 14.9799 11.2004L21 9.19372V10.7324L14.4434 15.1034C14.3098 15.0372 14.1592 15 14 15C13.7454 15 13.5131 15.0951 13.3365 15.2518L8.97991 13.7996C8.8871 13.3433 8.48364 13 8 13C7.45582 13 7.01317 13.4347 7.00029 13.9757L3 16.1577V10.4173L7.23737 9.64687C7.4208 9.86291 7.69439 10 8 10C8.25458 10 8.48694 9.90487 8.66347 9.74822L13.0201 11.2004ZM13.0201 16.2004L8.66349 14.7482C8.48696 14.9049 8.25459 15 8 15C7.80912 15 7.63073 14.9465 7.47899 14.8537L3 17.2968V20C3 20.5523 3.44772 21 4 21H20C20.5523 21 21 20.5523 21 20V11.9343L14.998 15.9356C14.9993 15.9569 15 15.9784 15 16C15 16.5523 14.5523 17 14 17C13.5163 17 13.1129 16.6566 13.0201 16.2004Z" fill="black"/>
</svg>
