<svg width="16" height="16" viewBox="0 0 16 16" fill="none" xmlns="http://www.w3.org/2000/svg">
<g opacity="0.9">
<path d="M3 1C1.89543 1 1 1.89543 1 3V10.1897L4.00373 8.08707C4.00126 8.05838 4 8.02934 4 8.00001C4 7.44772 4.44771 7.00001 5 7.00001C5.53217 7.00001 5.96725 7.41571 5.99823 7.94011L8.44889 9.16544C8.6069 9.06089 8.79634 9.00001 9 9.00001C9.1722 9.00001 9.33423 9.04353 9.4757 9.12018L15 5.72061V3C15 1.89543 14.1046 1 13 1H3Z" fill="black"/>
<path d="M15 6.89479L9.99961 9.97195C9.99987 9.98127 10 9.99063 10 10C10 10.5523 9.55228 11 9 11C8.46782 11 8.03274 10.5843 8.00176 10.0599L5.5511 8.83458C5.39309 8.93913 5.20365 9.00001 5 9.00001C4.84883 9.00001 4.70549 8.96647 4.57703 8.90642L1 11.4103V13C1 14.1046 1.89543 15 3 15H13C14.1046 15 15 14.1046 15 13V6.89479Z" fill="black"/>
</g>
</svg>
