<svg width="32" height="32" viewBox="0 0 32 32" fill="none" xmlns="http://www.w3.org/2000/svg">
<path opacity="0.9" fill-rule="evenodd" clip-rule="evenodd" d="M28 11.4881V6C28 4.89543 27.1046 4 26 4H6C4.89543 4 4 4.89543 4 6V13.99C3.99988 13.9963 3.99988 14.0027 4 14.0091V22.4909C3.99988 22.4973 3.99988 22.5036 4 22.51V26C4 27.1046 4.89543 28 6 28H26C27.1046 28 28 27.1046 28 26V11.5114C28.0002 11.5036 28.0002 11.4959 28 11.4881ZM26 5H6C5.44771 5 5 5.44772 5 6V13.3815L10.0122 12.3075C10.1067 11.57 10.7368 11 11.5 11C12.3284 11 13 11.6716 13 12.5C13 12.5328 12.9989 12.5653 12.9969 12.5975L17.3971 14.4833C17.6712 14.1862 18.0638 14 18.5 14C18.929 14 19.3159 14.1801 19.5893 14.4687L27 11.1751V6C27 5.44772 26.5523 5 26 5ZM12.6029 13.5167L17.0031 15.4025C17.0011 15.4347 17 15.4672 17 15.5C17 16.3284 17.6716 17 18.5 17C19.3284 17 20 16.3284 20 15.5C20 15.4605 19.9985 15.4213 19.9955 15.3825L27 12.2694V15.2324L19.3994 20.2995C19.1488 20.1114 18.8374 20 18.5 20C18.0638 20 17.6712 20.1861 17.3971 20.4833L12.9969 18.5975C12.9989 18.5653 13 18.5328 13 18.5C13 17.6716 12.3284 17 11.5 17C10.6716 17 10 17.6716 10 18.5C10 18.5914 10.0082 18.6808 10.0238 18.7677L5 21.6384V14.4042L10.2217 13.2853C10.4857 13.7141 10.9595 14 11.5 14C11.9362 14 12.3288 13.8138 12.6029 13.5167ZM17.0031 21.4025L12.6029 19.5167C12.3288 19.8138 11.9362 20 11.5 20C11.1255 20 10.783 19.8627 10.5202 19.6358L5 22.7901V26C5 26.5523 5.44772 27 6 27H26C26.5523 27 27 26.5523 27 26V16.4342L19.9544 21.1313C19.9842 21.2493 20 21.3728 20 21.5C20 22.3284 19.3284 23 18.5 23C17.6716 23 17 22.3284 17 21.5C17 21.4672 17.0011 21.4347 17.0031 21.4025Z" fill="black"/>
</svg>
