<svg width="32" height="32" viewBox="0 0 32 32" fill="none" xmlns="http://www.w3.org/2000/svg">
<g opacity="0.9">
<path fill-rule="evenodd" clip-rule="evenodd" d="M11 17C11 14.2386 13.2386 12 16 12C18.7614 12 21 14.2386 21 17C21 19.7614 18.7614 22 16 22C13.2386 22 11 19.7614 11 17ZM16 13C13.7909 13 12 14.7909 12 17C12 19.2091 13.7909 21 16 21C18.2091 21 20 19.2091 20 17C20 14.7909 18.2091 13 16 13Z" fill="black"/>
<path d="M24 15C24.5523 15 25 14.5523 25 14C25 13.4477 24.5523 13 24 13C23.4477 13 23 13.4477 23 14C23 14.5523 23.4477 15 24 15Z" fill="black"/>
<path fill-rule="evenodd" clip-rule="evenodd" d="M10.8561 7.73801C11.1258 7.28068 11.6172 7 12.1481 7H19.8519C20.3828 7 20.8742 7.28068 21.1439 7.73802L22.3328 9.75399C22.4227 9.90644 22.5865 10 22.7635 10H26.5C27.3284 10 28 10.6716 28 11.5V23.4474C28 24.2758 27.3284 24.9474 26.5 24.9474H5.49999C4.67157 24.9474 3.99999 24.2758 3.99999 23.4474L3.99997 11.5C3.99997 10.6716 4.67154 10 5.49997 10H9.23646C9.41344 10 9.57724 9.90644 9.66714 9.754L10.8561 7.73801ZM12.1481 8C11.9711 8 11.8073 8.09356 11.7174 8.246L10.5285 10.262C10.2588 10.7193 9.7674 11 9.23646 11H5.49997C5.22383 11 4.99997 11.2239 4.99997 11.5L4.99999 23.4474C4.99999 23.7235 5.22385 23.9474 5.49999 23.9474H26.5C26.7761 23.9474 27 23.7235 27 23.4474V11.5C27 11.2239 26.7761 11 26.5 11H22.7635C22.2326 11 21.7412 10.7193 21.4715 10.262L20.2826 8.24601C20.1926 8.09356 20.0289 8 19.8519 8H12.1481Z" fill="black"/>
</g>
</svg>
