<svg width="32" height="32" viewBox="0 0 32 32" fill="none" xmlns="http://www.w3.org/2000/svg">
<path opacity="0.9" fill-rule="evenodd" clip-rule="evenodd" d="M14.6305 26.2111C14.9092 27.2329 16.1304 27.6519 16.9776 27.0164L17.8002 26.3995C19.1851 25.3608 20.0002 23.7307 20.0002 21.9995V21.4995C20.0002 21.2234 20.224 20.9995 20.5002 20.9995H23.7892C26.0174 20.9995 27.6784 18.945 27.2115 16.7662L25.4972 8.76616C25.1514 7.15241 23.7253 5.99951 22.0749 5.99951H13.8777C13.5658 5.99951 13.2567 6.05786 12.9663 6.17155L9.99119 7.3363C9.90972 6.58478 9.27318 5.9998 8.5 5.9998H5.5C4.67157 5.9998 4 6.67138 4 7.4998V19.5C4 20.3284 4.67157 21 5.5 21H8.5C9.26663 21 9.89894 20.4248 9.989 19.6825C10.0219 19.6944 10.0554 19.7052 10.0894 19.7149L10.6507 19.8747C12.166 20.3062 13.3453 21.4987 13.7599 23.0187L14.6305 26.2111ZM16.3776 26.2164C16.0952 26.4282 15.6882 26.2885 15.5953 25.948L14.7246 22.7556C14.2179 20.8978 12.7766 19.4403 10.9245 18.913L10.3632 18.7532C10.1484 18.692 10.0002 18.4957 10.0002 18.2723V8.74789C10.0002 8.5421 10.1262 8.35732 10.3179 8.2823L13.3309 7.10274C13.5051 7.03452 13.6906 6.99951 13.8777 6.99951H22.0749C23.2537 6.99951 24.2724 7.82301 24.5194 8.97569L26.2337 16.9757C26.5672 18.532 25.3808 19.9995 23.7892 19.9995H20.5002C19.6717 19.9995 19.0002 20.6711 19.0002 21.4995V21.9995C19.0002 23.4159 18.3333 24.7497 17.2002 25.5995L16.3776 26.2164ZM9 19.5C9 19.7761 8.77614 20 8.5 20H5.5C5.22386 20 5 19.7761 5 19.5V7.4998C5 7.22366 5.22386 6.9998 5.5 6.9998H8.5C8.77614 6.9998 9 7.22366 9 7.4998V19.5Z" fill="black"/>
</svg>
