<svg width="24" height="24" viewBox="0 0 24 24" fill="none" xmlns="http://www.w3.org/2000/svg">
<g opacity="0.9">
<path d="M7 3C5.34315 3 4 4.34315 4 6V17.1976C4 17.9826 4.86319 18.4615 5.52927 18.046L8.47135 16.2107C8.63012 16.1117 8.81349 16.0592 9.00062 16.0592H19C20.6569 16.0592 22 14.716 22 13.0592V6C22 4.34315 20.6569 3 19 3H7Z" fill="black"/>
<path d="M2 4.5C2 4.22386 1.77614 4 1.5 4C1.22386 4 1 4.22386 1 4.5V22H21.5C21.7761 22 22 21.7761 22 21.5C22 21.2239 21.7761 21 21.5 21H2V4.5Z" fill="black"/>
</g>
</svg>
