<svg width="32" height="32" viewBox="0 0 32 32" fill="none" xmlns="http://www.w3.org/2000/svg">
<g opacity="0.9">
<path fill-rule="evenodd" clip-rule="evenodd" d="M25 21H11.8571L7.47479 23.3642C6.80854 23.7236 6 23.2411 6 22.4841V8C6 6.34314 7.34315 5 9 5H25C26.6569 5 28 6.34315 28 8V18C28 19.6569 26.6569 21 25 21ZM25 20H11.6046L7 22.4841V8C7 6.89543 7.89543 6 9 6H25C26.1046 6 27 6.89543 27 8V18C27 19.1046 26.1046 20 25 20Z" fill="black"/>
<path d="M4 6.5C4 6.22386 3.77614 6 3.5 6C3.22386 6 3 6.22386 3 6.5V28H27.5C27.7761 28 28 27.7761 28 27.5C28 27.2239 27.7761 27 27.5 27H4V6.5Z" fill="black"/>
</g>
</svg>
