<svg width="32" height="32" viewBox="0 0 32 32" fill="none" xmlns="http://www.w3.org/2000/svg">
<g opacity="0.9">
<path d="M7.5 4H3V8.5C3 8.77614 3.22386 9 3.5 9C3.77614 9 4 8.77614 4 8.5V5H7.5C7.77614 5 8 4.77614 8 4.5C8 4.22386 7.77614 4 7.5 4Z" fill="black"/>
<path d="M12 12C12 9.79086 13.7909 8 16 8C18.2091 8 20 9.79086 20 12C20 13.3085 19.3717 14.4702 18.4004 15.2H18.8C21.6719 15.2 24 17.5281 24 20.4V22.8C24 23.4627 23.4627 24 22.8 24H9.2C8.53726 24 8 23.4627 8 22.8V20.4C8 17.5281 10.3281 15.2 13.2 15.2H13.5996C12.6283 14.4702 12 13.3085 12 12Z" fill="black"/>
<path d="M29 4V8.5C29 8.77614 28.7761 9 28.5 9C28.2239 9 28 8.77614 28 8.5V5L24.5 5C24.2239 5 24 4.77614 24 4.5C24 4.22386 24.2239 4 24.5 4H29Z" fill="black"/>
<path d="M24.5 28H29V23.5C29 23.2239 28.7761 23 28.5 23C28.2239 23 28 23.2239 28 23.5V27H24.5C24.2239 27 24 27.2239 24 27.5C24 27.7761 24.2239 28 24.5 28Z" fill="black"/>
<path d="M3 28V23.5C3 23.2239 3.22386 23 3.5 23C3.77614 23 4 23.2239 4 23.5L4 27H7.5C7.77614 27 8 27.2239 8 27.5C8 27.7761 7.77614 28 7.5 28H3Z" fill="black"/>
<path d="M10.5 8C11.1802 8 11.8026 8.24693 12.2827 8.65602C11.4853 9.54188 11 10.7143 11 12C11 12.8716 11.2233 13.6911 11.6152 14.4044C9.40344 14.9875 7.67529 16.762 7.15873 19H5.825C5.36936 19 5 18.6306 5 18.175V16.525C5 14.5505 6.60058 12.95 8.575 12.95H8.84969C8.18192 12.4482 7.75 11.6496 7.75 10.75C7.75 9.23122 8.98122 8 10.5 8Z" fill="black"/>
<path d="M20.3848 14.4044C22.5966 14.9874 24.3247 16.762 24.8413 19H26.175C26.6306 19 27 18.6306 27 18.175V16.525C27 14.5505 25.3994 12.95 23.425 12.95H23.1503C23.8181 12.4482 24.25 11.6496 24.25 10.75C24.25 9.23122 23.0188 8 21.5 8C20.8198 8 20.1974 8.24693 19.7173 8.65602C20.5147 9.54188 21 10.7143 21 12C21 12.8716 20.7767 13.6911 20.3848 14.4044Z" fill="black"/>
</g>
</svg>
