<svg width="16" height="16" viewBox="0 0 16 16" fill="none" xmlns="http://www.w3.org/2000/svg">
<g opacity="0.9">
<path fill-rule="evenodd" clip-rule="evenodd" d="M3.14645 2.14645C3.34171 1.95118 3.65829 1.95118 3.85355 2.14645L9.35355 7.64645C9.54882 7.84171 9.54882 8.15829 9.35355 8.35355L3.85355 13.8536C3.65829 14.0488 3.34171 14.0488 3.14645 13.8536C2.95118 13.6583 2.95118 13.3417 3.14645 13.1464L8.29289 8L3.14645 2.85355C2.95118 2.65829 2.95118 2.34171 3.14645 2.14645Z" fill="black"/>
<path fill-rule="evenodd" clip-rule="evenodd" d="M7.14645 2.14645C7.34171 1.95118 7.65829 1.95118 7.85355 2.14645L13.3536 7.64645C13.5488 7.84171 13.5488 8.15829 13.3536 8.35355L7.85355 13.8536C7.65829 14.0488 7.34171 14.0488 7.14645 13.8536C6.95118 13.6583 6.95118 13.3417 7.14645 13.1464L12.2929 8L7.14645 2.85355C6.95118 2.65829 6.95118 2.34171 7.14645 2.14645Z" fill="black"/>
</g>
</svg>
