<svg width="24" height="24" viewBox="0 0 24 24" fill="none" xmlns="http://www.w3.org/2000/svg">
<path fill-rule="evenodd" clip-rule="evenodd" d="M22 12C22 17.5228 17.5228 22 12 22C6.47715 22 2 17.5228 2 12C2 6.47715 6.47715 2 12 2C17.5228 2 22 6.47715 22 12ZM12.1392 12.8137L16.4188 15.8705C17.0806 16.3433 18 15.8702 18 15.0568V8.94319C18 8.12982 17.0806 7.65669 16.4188 8.12946L12.1392 11.1863C12.0881 11.2228 12.0417 11.2628 12 11.3059V8.94319C12 8.12982 11.0806 7.65669 10.4188 8.12946L6.13923 11.1863C5.58088 11.5851 5.58088 12.4149 6.13923 12.8137L10.4188 15.8705C11.0806 16.3433 12 15.8702 12 15.0568V12.6941C12.0417 12.7372 12.0881 12.7772 12.1392 12.8137Z" fill="black"/>
</svg>
