<svg width="24" height="24" viewBox="0 0 24 24" fill="none" xmlns="http://www.w3.org/2000/svg">
<g opacity="0.9">
<path d="M3.5 2C3.22386 2 3 2.22386 3 2.5C3 2.77614 3.22386 3 3.5 3H20.5C20.7761 3 21 2.77614 21 2.5C21 2.22386 20.7761 2 20.5 2H3.5Z" fill="black"/>
<path d="M11.6526 4.14037C11.8464 3.95321 12.1536 3.95321 12.3474 4.14037L20.3474 11.8676C20.494 12.0092 20.5399 12.2256 20.4636 12.4146C20.3872 12.6036 20.2038 12.7273 20 12.7273H16.1364V21.5C16.1364 21.7761 15.9125 22 15.6364 22H8.36364C8.0875 22 7.86364 21.7761 7.86364 21.5V12.7273H4C3.79619 12.7273 3.61278 12.6036 3.53642 12.4146C3.46006 12.2256 3.50604 12.0092 3.65263 11.8676L11.6526 4.14037Z" fill="black"/>
</g>
</svg>
