<svg width="16" height="16" viewBox="0 0 16 16" fill="none" xmlns="http://www.w3.org/2000/svg">
<g opacity="0.9">
<path d="M2.50003 1C2.22389 1 2.00003 1.22386 2.00003 1.5C2.00003 1.77614 2.22389 2 2.50003 2H13.5C13.7762 2 14 1.77614 14 1.5C14 1.22386 13.7762 1 13.5 1H2.50003Z" fill="black"/>
<path fill-rule="evenodd" clip-rule="evenodd" d="M8.33636 3.13003C8.14565 2.95666 7.85439 2.95666 7.66368 3.13003L2.16368 8.13003C2.01084 8.26898 1.95917 8.48763 2.03366 8.6803C2.10815 8.87297 2.29345 9 2.50002 9H5.00002V14.5C5.00002 14.7761 5.22388 15 5.50002 15H10.5C10.7762 15 11 14.7761 11 14.5V9H13.5C13.7066 9 13.8919 8.87297 13.9664 8.6803C14.0409 8.48763 13.9892 8.26898 13.8364 8.13003L8.33636 3.13003ZM5.50002 8H3.79332L8.00002 4.17573L12.2067 8H10.5C10.2239 8 10 8.22386 10 8.5V14H6.00002V8.5C6.00002 8.22386 5.77616 8 5.50002 8Z" fill="black"/>
</g>
</svg>
