<svg width="32" height="32" viewBox="0 0 32 32" fill="none" xmlns="http://www.w3.org/2000/svg">
<g opacity="0.9">
<path d="M5 3C4.44772 3 4 3.44772 4 4C4 4.55228 4.44772 5 5 5H27C27.5523 5 28 4.55228 28 4C28 3.44772 27.5523 3 27 3H5Z" fill="black"/>
<path d="M15.6543 7.13875C15.8476 6.95375 16.1524 6.95375 16.3457 7.13875L25.8457 16.2297C25.9932 16.3709 26.0401 16.5876 25.964 16.7772C25.8879 16.9667 25.7042 17.0909 25.5 17.0909H20.8182V27.5C20.8182 27.7761 20.5943 28 20.3182 28H11.6818C11.4057 28 11.1818 27.7761 11.1818 27.5V17.0909H6.5C6.29577 17.0909 6.11206 16.9667 6.03599 16.7772C5.95991 16.5876 6.00675 16.3709 6.15431 16.2297L15.6543 7.13875Z" fill="black"/>
</g>
</svg>
