<svg width="32" height="32" viewBox="0 0 32 32" fill="none" xmlns="http://www.w3.org/2000/svg">
<g opacity="0.9">
<path d="M5.5 4C5.22386 4 5 4.22386 5 4.5C5 4.77614 5.22386 5 5.5 5H26.5C26.7761 5 27 4.77614 27 4.5C27 4.22386 26.7761 4 26.5 4H5.5Z" fill="black"/>
<path fill-rule="evenodd" clip-rule="evenodd" d="M16.3457 7.13875C16.1523 6.95375 15.8476 6.95375 15.6543 7.13875L6.1543 16.2297C6.00674 16.3709 5.95989 16.5876 6.03597 16.7772C6.11205 16.9667 6.29575 17.0909 6.49999 17.0909H11.1818V27.5C11.1818 27.7761 11.4057 28 11.6818 28H20.3182C20.5943 28 20.8182 27.7761 20.8182 27.5V17.0909H25.5C25.7042 17.0909 25.8879 16.9667 25.964 16.7772C26.0401 16.5876 25.9932 16.3709 25.8457 16.2297L16.3457 7.13875ZM11.6818 16.0909H7.74568L16 8.19205L24.2543 16.0909H20.3182C20.042 16.0909 19.8182 16.3148 19.8182 16.5909V27H12.1818V16.5909C12.1818 16.3148 11.9579 16.0909 11.6818 16.0909Z" fill="black"/>
</g>
</svg>
