<svg width="32" height="32" viewBox="0 0 32 32" fill="none" xmlns="http://www.w3.org/2000/svg">
<g opacity="0.9">
<path d="M4 10C4 8.34314 5.34315 7 7 7H25C26.6569 7 28 8.34315 28 10V10.5H23C23 9.98816 22.8047 9.47631 22.4142 9.08579C21.6332 8.30474 20.3668 8.30474 19.5858 9.08579L16.1716 12.5L19.5858 15.9142C19.9763 16.3047 20.4882 16.5 21 16.5H19C17.8954 16.5 17 17.3954 17 18.5C17 19.6046 17.8954 20.5 19 20.5H26C26 21.0118 26.1953 21.5237 26.5858 21.9142C26.879 22.2075 27.2407 22.3906 27.6193 22.4636C27.106 23.3804 26.1254 24 25 24H10.8571L5.51866 27.2385C4.85223 27.6428 4 27.163 4 26.3835V10Z" fill="black"/>
<path d="M21 16.5C21.5118 16.5 22.0237 16.3047 22.4142 15.9142C22.8047 15.5237 23 15.0118 23 14.5H28C27.4882 14.5 26.9763 14.6953 26.5858 15.0858C26.1953 15.4763 26 15.9882 26 16.5H21Z" fill="black"/>
<path d="M21.7071 9.79289C22.0976 10.1834 22.0976 10.8166 21.7071 11.2071L21.4142 11.5H30C30.5523 11.5 31 11.9477 31 12.5C31 13.0523 30.5523 13.5 30 13.5H21.4142L21.7071 13.7929C22.0976 14.1834 22.0976 14.8166 21.7071 15.2071C21.3166 15.5976 20.6834 15.5976 20.2929 15.2071L17.5858 12.5L20.2929 9.79289C20.6834 9.40237 21.3166 9.40237 21.7071 9.79289Z" fill="black"/>
<path d="M31.4142 18.5L28.7071 15.7929C28.3166 15.4024 27.6834 15.4024 27.2929 15.7929C26.9024 16.1834 26.9024 16.8166 27.2929 17.2071L27.5858 17.5H19C18.4477 17.5 18 17.9477 18 18.5C18 19.0523 18.4477 19.5 19 19.5H27.5858L27.2929 19.7929C26.9024 20.1834 26.9024 20.8166 27.2929 21.2071C27.6834 21.5976 28.3166 21.5976 28.7071 21.2071L31.4142 18.5Z" fill="black"/>
</g>
</svg>
