<svg width="24" height="24" viewBox="0 0 24 24" fill="none" xmlns="http://www.w3.org/2000/svg">
<path opacity="0.9" d="M16 5.5C15.4882 5.5 14.9763 5.69526 14.5858 6.08579L11.5251 9.14645V9.85355L14.1716 12.5H14C12.8954 12.5 12 13.3954 12 14.5C12 15.6046 12.8954 16.5 14 16.5H19.0001C19.0001 17.0114 19.195 17.5234 19.5858 17.9142C19.7458 18.0742 19.9261 18.2014 20.1185 18.2958C19.7819 18.4644 19.4021 18.5592 19 18.5592H8.02567C7.72149 18.5592 7.42449 18.6517 7.17408 18.8243L3.28386 21.5072C2.95217 21.736 2.5 21.4985 2.5 21.0956V8C2.5 6.61929 3.61929 5.5 5 5.5H16ZM16 5.5C16.5118 5.5 17.0237 5.69526 17.4142 6.08579C17.805 6.47659 17.9999 6.98855 17.9999 7.5L21.45 7.5C21.2184 6.35888 20.2095 5.5 19 5.5H16ZM14.8536 10.3536L14 9.5L14.8536 8.64645L15.2071 9.5L14.8536 10.3536ZM22.1464 13.6464L23 14.5L22.1464 15.3536L21.7929 14.5L22.1464 13.6464ZM19.2674 11.5C19.0891 11.8085 19.0001 12.1544 19.0001 12.5H17.7326C17.9109 12.1915 17.9999 11.8456 17.9999 11.5H19.2674Z" fill="black" stroke="black" stroke-linejoin="bevel"/>
</svg>
