<svg width="16" height="16" viewBox="0 0 16 16" fill="none" xmlns="http://www.w3.org/2000/svg">
<g opacity="0.9">
<path d="M3 3C1.89543 3 1 3.89543 1 5V14.8767C1 15.283 1.45885 15.5197 1.78988 15.2841L4.73971 13.1852C4.90902 13.0647 5.11166 13 5.31946 13H12.3819C12.1273 12.7158 12 12.3579 12 12H8C7.17157 12 6.5 11.3284 6.5 10.5C6.5 9.83307 6.93526 9.26779 7.53722 9.07275C7.54278 9.07095 7.54835 9.06918 7.55395 9.06744C7.69485 9.02361 7.84467 9 8 9H8.87868L6.37868 6.5L8.93934 3.93934C9.52513 3.35355 10.4749 3.35355 11.0607 3.93934C11.0712 3.94987 11.0815 3.96051 11.0917 3.97127C11.1006 3.98076 11.1094 3.99034 11.1181 4C11.1338 4.01748 11.1489 4.03524 11.1636 4.05326C11.3879 4.3282 11.5 4.6641 11.5 5H15C15 4.63571 14.9026 4.29417 14.7324 4C14.7091 3.95968 14.6844 3.92026 14.6584 3.88178C14.299 3.34978 13.6904 3 13 3H3Z" fill="black"/>
<path d="M10.3536 5.35355C10.5488 5.15829 10.5488 4.84171 10.3536 4.64645C10.1583 4.45118 9.84171 4.45118 9.64645 4.64645L7.79289 6.5L9.64645 8.35355C9.84171 8.54882 10.1583 8.54882 10.3536 8.35355C10.5488 8.15829 10.5488 7.84171 10.3536 7.64645L9.70711 7H15.5C15.7761 7 16 6.77614 16 6.5C16 6.22386 15.7761 6 15.5 6H9.70711L10.3536 5.35355Z" fill="black"/>
<path d="M13.1464 8.64645C13.3417 8.45118 13.6583 8.45118 13.8536 8.64645L15.7071 10.5L13.8536 12.3536C13.6583 12.5488 13.3417 12.5488 13.1464 12.3536C12.9512 12.1583 12.9512 11.8417 13.1464 11.6464L13.7929 11H8C7.72386 11 7.5 10.7761 7.5 10.5C7.5 10.2239 7.72386 10 8 10H13.7929L13.1464 9.35355C12.9512 9.15829 12.9512 8.84171 13.1464 8.64645Z" fill="black"/>
</g>
</svg>
