<svg width="16" height="16" viewBox="0 0 16 16" fill="none" xmlns="http://www.w3.org/2000/svg">
<path opacity="0.9" d="M4.46447 4.46447C6.41709 2.51184 9.58291 2.51184 11.5355 4.46447C11.5631 4.49199 11.593 4.51564 11.6247 4.5354L12.1605 5.00015L10.5 5.00013C10.2238 5.00013 9.99999 5.22398 9.99998 5.50013C9.99998 5.77627 10.2238 6.00013 10.5 6.00013L13.5 6.00016C13.6326 6.00016 13.7598 5.94748 13.8536 5.85372C13.9473 5.75995 14 5.63277 14 5.50016V2.50016C14 2.22402 13.7762 2.00016 13.5 2.00016C13.2239 2.00016 13 2.22402 13 2.50016V4.40459L12.1934 3.70494C12.1856 3.69819 12.1777 3.69172 12.1696 3.68554C9.82121 1.41446 6.07631 1.4384 3.75736 3.75736C1.41421 6.1005 1.41421 9.89949 3.75736 12.2426C6.1005 14.5858 9.8995 14.5858 12.2426 12.2426C12.4379 12.0474 12.4379 11.7308 12.2426 11.5355C12.0474 11.3403 11.7308 11.3403 11.5355 11.5355C9.58291 13.4882 6.41709 13.4882 4.46447 11.5355C2.51184 9.58291 2.51184 6.41709 4.46447 4.46447Z" fill="black"/>
</svg>
