<svg width="32" height="32" viewBox="0 0 32 32" fill="none" xmlns="http://www.w3.org/2000/svg">
<path opacity="0.9" d="M8.52001 8.52001C12.7124 4.32764 19.5096 4.32764 23.7019 8.52001C23.7261 8.54417 23.7521 8.56534 23.7795 8.58352L26.2676 11L21.5001 11.0002C21.2239 11.0002 21.0001 11.224 21.0001 11.5002C21.0001 11.7763 21.224 12.0002 21.5001 12.0002L27.5001 12C27.7762 11.9999 28.0001 11.7761 28.0001 11.5L28.0001 5.49981C28.0001 5.22366 27.7763 4.99981 27.5001 4.9998C27.224 4.9998 27.0001 5.22366 27.0001 5.4998L27.0001 10.3174L24.3562 7.74956C24.3352 7.72919 24.3129 7.71102 24.2895 7.69506C19.6979 3.23035 12.3562 3.26963 7.81291 7.81291C3.23001 12.3958 3.23001 19.8262 7.81291 24.4091C12.3958 28.9919 19.8262 28.9919 24.4091 24.4091C24.6043 24.2138 24.6043 23.8972 24.4091 23.7019C24.2138 23.5067 23.8972 23.5067 23.7019 23.7019C19.5096 27.8943 12.7124 27.8943 8.52001 23.7019C4.32764 19.5096 4.32764 12.7124 8.52001 8.52001Z" fill="black"/>
</svg>
