<svg width="24" height="24" viewBox="0 0 24 24" fill="none" xmlns="http://www.w3.org/2000/svg">
<g opacity="0.9">
<path fill-rule="evenodd" clip-rule="evenodd" d="M8 9C9.10457 9 10 8.10457 10 7C10 5.89543 9.10457 5 8 5C6.89543 5 6 5.89543 6 7C6 8.10457 6.89543 9 8 9ZM8 8C8.55228 8 9 7.55228 9 7C9 6.44772 8.55228 6 8 6C7.44772 6 7 6.44772 7 7C7 7.55228 7.44772 8 8 8Z" fill="black"/>
<path fill-rule="evenodd" clip-rule="evenodd" d="M4.5 2C3.11929 2 2 3.11929 2 4.5V17.7071L4.5 20.2071L7 17.7071L8.5 19.2071L10.5 17.2071L13.5 20.2071L17.5 16.2071L20 18.7071L22 16.7071V4.5C22 3.11929 20.8807 2 19.5 2H4.5ZM3 4.5C3 3.67157 3.67157 3 4.5 3H19.5C20.3284 3 21 3.67157 21 4.5V13.2928L17 9.29285L12 14.2928L8.50004 10.7928L3 16.2929V4.5ZM3.2071 17.5L4.5 18.7929L7 16.2929L8.5 17.7929L11.2929 15L8.50004 12.2071L3.2071 17.5ZM11.2071 16.5L13.5 18.7929L17.5 14.7929L20 17.2929L21 16.2929V14.707L17 10.7071L11.2071 16.5Z" fill="black"/>
</g>
</svg>
