<svg width="32" height="32" viewBox="0 0 32 32" fill="none" xmlns="http://www.w3.org/2000/svg">
<g opacity="0.9">
<path fill-rule="evenodd" clip-rule="evenodd" d="M11.5 13C12.8807 13 14 11.8807 14 10.5C14 9.11929 12.8807 8 11.5 8C10.1193 8 9 9.11929 9 10.5C9 11.8807 10.1193 13 11.5 13ZM11.5 12C12.3284 12 13 11.3284 13 10.5C13 9.67157 12.3284 9 11.5 9C10.6716 9 10 9.67157 10 10.5C10 11.3284 10.6716 12 11.5 12Z" fill="black"/>
<path fill-rule="evenodd" clip-rule="evenodd" d="M6.5 4C5.11929 4 4 5.11929 4 6.5V24.7071L6.5 27.2071L9.5 24.2071L11 25.7071L13 23.7071L16.5 27.2071L20.5 23.2071L22.5 25.2071L24.5 23.2071L25.5 24.2071L26.5 23.2071L28 24.7071V6.5C28 5.11929 26.8807 4 25.5 4H6.5ZM5 6.5C5 5.67157 5.67157 5 6.5 5H25.5C26.3284 5 27 5.67157 27 6.5V17.2928L22.5 12.7928L16 19.2928L12.5 15.7928L5 23.2929V6.5ZM5.2071 24.5L6.5 25.7929L9.5 22.7929L11 24.2929L15.2929 20L12.5 17.2071L5.2071 24.5ZM13.7071 23L16.5 25.7929L20.5 21.7929L22.5 23.7929L24.5 21.7929L25.5 22.7929L26.5 21.7929L27 22.2929V18.707L22.5 14.2071L13.7071 23Z" fill="black"/>
</g>
</svg>
