<svg width="32" height="32" viewBox="0 0 32 32" fill="none" xmlns="http://www.w3.org/2000/svg">
<path opacity="0.9" fill-rule="evenodd" clip-rule="evenodd" d="M7.57259 8.56686C9.74806 6.97152 12.7292 6 16 6C19.2708 6 22.2519 6.97152 24.4274 8.56686C26.6026 10.162 28 12.407 28 14.9333C28 20.5996 23.9278 24.5603 17.0076 28.3668C16.8527 28.452 16.6644 28.4491 16.5122 28.3591C16.36 28.2691 16.2667 28.1055 16.2667 27.9287V23.8645C16.178 23.8659 16.0891 23.8667 16 23.8667C12.7292 23.8667 9.74806 22.8951 7.57259 21.2998C5.39742 19.7047 4 17.4597 4 14.9333C4 12.407 5.39742 10.162 7.57259 8.56686ZM15.4191 9.54906L13.152 15.5947C13.0785 15.7908 13.2234 16 13.4329 16H15.7C15.8657 16 16 16.1343 16 16.3V20.3456C16 20.6796 16.4636 20.7637 16.5809 20.4509L18.848 14.4053C18.9215 14.2092 18.7766 14 18.5671 14H16.3C16.1343 14 16 13.8657 16 13.7V9.6544C16 9.32041 15.5364 9.23634 15.4191 9.54906Z" fill="black"/>
</svg>
