<svg width="16" height="16" viewBox="0 0 16 16" fill="none" xmlns="http://www.w3.org/2000/svg">
<g opacity="0.9">
<path d="M7.1283 7.10963V7.38235L7.59623 7.49465L7.08302 9.98128C7.05786 10.1043 7.03774 10.2166 7.02264 10.3182C7.00755 10.4198 7 10.5241 7 10.631C7 10.7219 7.03522 10.8075 7.10566 10.8877C7.18113 10.9626 7.31447 11 7.50566 11C7.59623 11 7.69182 10.9893 7.79245 10.9679C7.89308 10.9519 7.9912 10.9278 8.08679 10.8957C8.18742 10.8636 8.2805 10.8262 8.36604 10.7834C8.4566 10.7406 8.53459 10.6952 8.6 10.6471V10.3743H8.0717L8.75094 6.91711L8.61509 6.82086C8.50943 6.82086 8.38616 6.83155 8.24528 6.85294C8.10943 6.86898 7.97107 6.89037 7.83019 6.91711C7.68931 6.94385 7.55597 6.97594 7.43019 7.01337C7.3044 7.04545 7.20377 7.07754 7.1283 7.10963Z" fill="black"/>
<path d="M7.93585 5.15241C7.82013 5.25401 7.76226 5.39572 7.76226 5.57754C7.76226 5.74866 7.82013 5.88503 7.93585 5.98663C8.05157 6.08824 8.19748 6.13904 8.37358 6.13904C8.56478 6.13904 8.71572 6.08824 8.82642 5.98663C8.94214 5.88503 9 5.74866 9 5.57754C9 5.39572 8.94214 5.25401 8.82642 5.15241C8.71572 5.0508 8.56478 5 8.37358 5C8.19748 5 8.05157 5.0508 7.93585 5.15241Z" fill="black"/>
<path fill-rule="evenodd" clip-rule="evenodd" d="M9.95562 2.54573C9.86861 2.11723 9.6581 1.76322 9.36343 1.50129C8.97942 1.15995 8.48154 1 8 1C7.51847 1 7.02059 1.15994 6.63657 1.50129C6.3419 1.76322 6.13139 2.11723 6.04438 2.54573C5.48535 2.65234 4.83981 2.94649 4.29052 3.44085C3.56508 4.09375 3.00002 5.10178 3.00002 6.5V10.1972C3.00002 10.4059 2.88042 10.5843 2.60706 10.9317L2.58244 10.963C2.35001 11.2576 2 11.7012 2 12.3028V12.5C2 12.7761 2.22386 13 2.5 13H5.55001C5.78164 14.1411 6.79052 15 8 15C9.20948 15 10.2184 14.1411 10.45 13H13.5C13.7762 13 14 12.7761 14 12.5V12.3028C14 11.7012 13.65 11.2576 13.4176 10.963L13.393 10.9317C13.1196 10.5843 13 10.4059 13 10.1972V6.5C13 5.10178 12.4349 4.09375 11.7095 3.44085C11.1602 2.94648 10.5147 2.65234 9.95562 2.54573ZM7.30093 2.2487C7.13165 2.39917 7 2.63567 7 2.99999C7 3.27613 6.77614 3.49999 6.5 3.49999C6.13621 3.49999 5.50256 3.69537 4.95949 4.18414C4.43495 4.65623 4.00002 5.39821 4.00002 6.5V10.1972C4.00002 10.7824 3.65422 11.2197 3.42558 11.5088L3.39296 11.5501C3.24737 11.7351 3.14416 11.8751 3.08016 12H12.9199C12.8559 11.8751 12.7527 11.7351 12.6071 11.5501L12.5744 11.5088C12.3458 11.2197 12 10.7824 12 10.1972V6.5C12 5.39821 11.5651 4.65624 11.0405 4.18414C10.4974 3.69537 9.86379 3.49999 9.5 3.49999C9.22386 3.49999 9 3.27613 9 2.99999C9 2.63568 8.86835 2.39918 8.69907 2.24871C8.52058 2.09005 8.26846 2 8 2C7.73153 2 7.47941 2.09005 7.30093 2.2487ZM8 14C7.34689 14 6.79127 13.5826 6.58535 13H9.41465C9.20873 13.5826 8.65311 14 8 14Z" fill="black"/>
</g>
</svg>
