<svg width="24" height="24" viewBox="0 0 24 24" fill="none" xmlns="http://www.w3.org/2000/svg">
<g opacity="0.9">
<path fill-rule="evenodd" clip-rule="evenodd" d="M19.8536 12.8536C20.0488 12.6583 20.0488 12.3417 19.8536 12.1464L12.3536 4.64645C12.2598 4.55268 12.1326 4.5 12 4.5C11.8674 4.5 11.7402 4.55268 11.6464 4.64645L4.14645 12.1464C3.95118 12.3417 3.95118 12.6583 4.14645 12.8536C4.34171 13.0488 4.65829 13.0488 4.85355 12.8536L12 5.70711L19.1464 12.8536C19.3417 13.0488 19.6583 13.0488 19.8536 12.8536Z" fill="black"/>
<path fill-rule="evenodd" clip-rule="evenodd" d="M19.8536 18.8536C20.0488 18.6583 20.0488 18.3417 19.8536 18.1464L12.3536 10.6464C12.2598 10.5527 12.1326 10.5 12 10.5C11.8674 10.5 11.7402 10.5527 11.6464 10.6464L4.14645 18.1464C3.95118 18.3417 3.95118 18.6583 4.14645 18.8536C4.34171 19.0488 4.65829 19.0488 4.85355 18.8536L12 11.7071L19.1464 18.8536C19.3417 19.0488 19.6583 19.0488 19.8536 18.8536Z" fill="black"/>
</g>
</svg>
