<svg width="32" height="32" viewBox="0 0 32 32" fill="none" xmlns="http://www.w3.org/2000/svg">
<g opacity="0.9">
<path d="M19.4594 7.78218C19.6152 7.25234 19.312 6.69649 18.7822 6.54065C18.2523 6.38482 17.6965 6.68801 17.5406 7.21785L12.5406 24.2179C12.3848 24.7477 12.688 25.3035 13.2178 25.4594C13.7477 25.6152 14.3035 25.312 14.4594 24.7822L19.4594 7.78218Z" fill="black"/>
<path d="M10.007 6.63808C10.4831 6.9181 10.642 7.531 10.3619 8.00704L5.66018 16L10.3619 23.993C10.642 24.469 10.4831 25.0819 10.007 25.362C9.53099 25.642 8.91809 25.4831 8.63807 25.007L3.63807 16.507C3.45398 16.1941 3.45398 15.8059 3.63807 15.493L8.63807 6.993C8.91809 6.51696 9.53099 6.35806 10.007 6.63808Z" fill="black"/>
<path d="M21.993 6.63808C21.5169 6.9181 21.358 7.531 21.6381 8.00704L26.3398 16L21.6381 23.993C21.358 24.469 21.5169 25.0819 21.993 25.362C22.469 25.642 23.0819 25.4831 23.3619 25.007L28.3619 16.507C28.546 16.1941 28.546 15.8059 28.3619 15.493L23.3619 6.993C23.0819 6.51696 22.469 6.35806 21.993 6.63808Z" fill="black"/>
</g>
</svg>
