<svg width="24" height="24" viewBox="0 0 24 24" fill="none" xmlns="http://www.w3.org/2000/svg">
<path fill-rule="evenodd" clip-rule="evenodd" d="M17 4.5C17 3.67157 17.6716 3 18.5 3C19.3284 3 20 3.67157 20 4.5V17.5C20 17.7761 19.7761 18 19.5 18H17.5C17.2239 18 17 17.7761 17 17.5V4.5ZM18.5 4C18.2239 4 18 4.22386 18 4.5V17H19V4.5C19 4.22386 18.7761 4 18.5 4Z" fill="black"/>
<path d="M2 4.5C2 4.22386 1.77614 4 1.5 4C1.22386 4 1 4.22386 1 4.5V22H21.5C21.7761 22 22 21.7761 22 21.5C22 21.2239 21.7761 21 21.5 21H2V4.5Z" fill="black"/>
<path fill-rule="evenodd" clip-rule="evenodd" d="M12.5 7C11.6716 7 11 7.67157 11 8.5V17.5C11 17.7761 11.2239 18 11.5 18H13.5C13.7761 18 14 17.7761 14 17.5V8.5C14 7.67157 13.3284 7 12.5 7ZM12 8.5C12 8.22386 12.2239 8 12.5 8C12.7761 8 13 8.22386 13 8.5V17H12V8.5Z" fill="black"/>
<path fill-rule="evenodd" clip-rule="evenodd" d="M6.5 11C5.67157 11 5 11.6716 5 12.5V17.5C5 17.7761 5.22386 18 5.5 18H7.5C7.77614 18 8 17.7761 8 17.5V12.5C8 11.6716 7.32843 11 6.5 11ZM6 12.5C6 12.2239 6.22386 12 6.5 12C6.77614 12 7 12.2239 7 12.5V17H6V12.5Z" fill="black"/>
</svg>
