<svg width="32" height="32" viewBox="0 0 32 32" fill="none" xmlns="http://www.w3.org/2000/svg">
<path fill-rule="evenodd" clip-rule="evenodd" d="M3.5 6C3.77614 6 4 6.22386 4 6.5V27H27.5C27.7761 27 28 27.2239 28 27.5C28 27.7761 27.7761 28 27.5 28H3V6.5C3 6.22386 3.22386 6 3.5 6Z" fill="black"/>
<path fill-rule="evenodd" clip-rule="evenodd" d="M15 12C15 10.8954 15.8954 10 17 10C18.1046 10 19 10.8954 19 12V23.5C19 23.7761 18.7761 24 18.5 24H15.5C15.2239 24 15 23.7761 15 23.5V12ZM17 11C16.4477 11 16 11.4477 16 12V23H18V12C18 11.4477 17.5523 11 17 11Z" fill="black"/>
<path fill-rule="evenodd" clip-rule="evenodd" d="M22 7C22 5.89543 22.8954 5 24 5C25.1046 5 26 5.89543 26 7V23.5C26 23.7761 25.7761 24 25.5 24H22.5C22.2239 24 22 23.7761 22 23.5V7ZM24 6C23.4477 6 23 6.44772 23 7V23H25V7C25 6.44772 24.5523 6 24 6Z" fill="black"/>
<path fill-rule="evenodd" clip-rule="evenodd" d="M8 17C8 15.8954 8.89543 15 10 15C11.1046 15 12 15.8954 12 17V23.5C12 23.7761 11.7761 24 11.5 24H8.5C8.22386 24 8 23.7761 8 23.5V17ZM10 16C9.44772 16 9 16.4477 9 17V23H11V17C11 16.4477 10.5523 16 10 16Z" fill="black"/>
</svg>
