<svg width="16" height="16" viewBox="0 0 16 16" fill="none" xmlns="http://www.w3.org/2000/svg">
<g opacity="0.9">
<path d="M8 3.5C8 3.22386 7.77614 3 7.5 3C7.22386 3 7 3.22386 7 3.5V8.5C7 8.67563 7.09215 8.83838 7.24275 8.92875L9.74275 10.4287C9.97954 10.5708 10.2867 10.494 10.4287 10.2572C10.5708 10.0205 10.494 9.71333 10.2572 9.57125L8 8.2169V3.5Z" fill="black"/>
<path fill-rule="evenodd" clip-rule="evenodd" d="M8 1C4.13401 1 1 4.13401 1 8C1 11.866 4.13401 15 8 15C11.866 15 15 11.866 15 8C15 4.13401 11.866 1 8 1ZM2 8C2 4.68629 4.68629 2 8 2C11.3137 2 14 4.68629 14 8C14 11.3137 11.3137 14 8 14C4.68629 14 2 11.3137 2 8Z" fill="black"/>
</g>
</svg>
