<svg width="24" height="24" viewBox="0 0 24 24" fill="none" xmlns="http://www.w3.org/2000/svg">
<g clip-path="url(#clip0)">
<g opacity="0.9">
<path d="M-0.000488281 15.9995H4.49999V24H-0.000488281V15.9995Z" fill="black"/>
<path d="M13 13.9995H17.5005V23.9997H13V13.9995Z" fill="black"/>
<path d="M6.49976 13.5001H11.0002V24H6.49976V13.5001Z" fill="black"/>
<path d="M13.9191 12.075C14.4493 12.075 14.9489 11.8698 15.3237 11.5001C15.7036 11.1254 15.9189 10.6246 15.9189 10.0904C15.924 9.72579 15.8285 9.3703 15.6386 9.06053L20.9747 3.71424C21.2693 3.89503 21.6146 3.99456 21.9792 3.99965H21.9995C22.55 3.99965 23.0446 3.77925 23.4042 3.41971C23.7688 3.06017 23.9943 2.56451 23.9994 2.01506C24.0044 1.47981 23.7993 0.980101 23.4245 0.595185C23.0497 0.215339 22.549 0.00509616 22.0148 0C21.4795 0.0152349 20.9747 0.200084 20.5949 0.574852C20.215 0.949628 20.0048 1.45035 19.9997 1.98459C19.9946 2.3543 20.0952 2.70468 20.2699 3.00432L14.9345 8.35476C14.64 8.17499 14.2947 8.07952 13.9392 8.07445H13.9189C13.5492 8.07445 13.1988 8.17398 12.9042 8.35476L10.6393 6.08986C10.8242 5.79025 10.9196 5.45001 10.9196 5.08943C10.9247 4.55924 10.7246 4.05446 10.3499 3.67462C9.97509 3.29477 9.47436 3.07943 8.94012 3.07436C8.3947 3.06928 7.90009 3.27445 7.52025 3.64921C7.1404 4.02399 6.92506 4.52471 6.91999 5.05895C6.91999 5.43373 7.01952 5.78414 7.2054 6.08882L3.01485 10.2744C2.71524 10.0997 2.375 10.0043 2.01442 9.99919C1.48423 9.99919 0.974384 10.1993 0.594538 10.574C0.214692 10.9488 0.00444984 11.4495 -0.000646324 11.9838C-0.0108028 13.0848 0.878909 13.9897 1.97887 13.9999H1.99919C2.54968 13.9999 3.04429 13.7795 3.40383 13.4199C3.76844 13.0604 3.99392 12.5647 3.99901 12.0153C4.00409 11.6456 3.90354 11.2952 3.7187 10.9854L7.90925 6.79485C8.19973 6.96954 8.53896 7.07009 8.90459 7.07516H8.91982C9.28443 7.07516 9.63484 6.97969 9.93445 6.79485L12.1994 9.05975C12.0247 9.35429 11.9241 9.69453 11.919 10.0602C11.914 11.1601 12.8037 12.0651 13.9036 12.0752L13.9191 12.075Z" fill="black"/>
<path d="M19.5001 6.99988H24.0006V24H19.5001V6.99988Z" fill="black"/>
</g>
</g>
<defs>
<clipPath id="clip0">
<rect width="24" height="24" fill="white"/>
</clipPath>
</defs>
</svg>
