<svg width="32" height="33" viewBox="0 0 32 33" fill="none" xmlns="http://www.w3.org/2000/svg">
<g opacity="0.9">
<path fill-rule="evenodd" clip-rule="evenodd" d="M5.05433 27.6626C3.01444 25.6227 3.01444 22.3154 5.05433 20.2755L8.46741 16.8624C9.56205 15.7678 11.0233 15.2607 12.4539 15.3407C13.0054 15.3715 13.4274 15.8435 13.3966 16.395C13.3657 16.9464 12.8937 17.3684 12.3423 17.3376C11.456 17.288 10.557 17.6012 9.88162 18.2766L6.46854 21.6897C5.2097 22.9486 5.2097 24.9895 6.46854 26.2484C7.72739 27.5072 9.76837 27.5072 11.0272 26.2484L14.4403 22.8353C15.1157 22.1599 15.4289 21.261 15.3794 20.3746C15.3485 19.8232 15.7706 19.3512 16.322 19.3204C16.8734 19.2895 17.3454 19.7116 17.3762 20.263C17.4562 21.6936 16.9491 23.1549 15.8545 24.2495L12.4414 27.6626C10.4015 29.7025 7.09422 29.7025 5.05433 27.6626Z" fill="black"/>
<path fill-rule="evenodd" clip-rule="evenodd" d="M26.9457 5.77149C28.9856 7.81138 28.9856 11.1187 26.9457 13.1586L23.5326 16.5717C22.438 17.6663 20.9768 18.1734 19.5461 18.0934C18.9947 18.0626 18.5727 17.5906 18.6035 17.0391C18.6343 16.4877 19.1063 16.0657 19.6577 16.0965C20.5441 16.1461 21.443 15.8329 22.1184 15.1574L25.5315 11.7444C26.7903 10.4855 26.7903 8.44455 25.5315 7.18571C24.2727 5.92687 22.2317 5.92687 20.9728 7.18571L17.5598 10.5988C16.8843 11.2742 16.5711 12.1731 16.6207 13.0595C16.6515 13.6109 16.2295 14.0829 15.6781 14.1137C15.1266 14.1446 14.6546 13.7225 14.6238 13.1711C14.5438 11.7404 15.0509 10.2792 16.1455 9.18457L19.5586 5.77149C21.5985 3.73161 24.9058 3.7316 26.9457 5.77149Z" fill="black"/>
<path d="M10.881 21.8361C10.4912 21.4463 10.4912 20.8143 10.881 20.4245L19.7086 11.5969C20.0984 11.2071 20.7304 11.2071 21.1203 11.5969C21.5101 11.9867 21.5101 12.6188 21.1203 13.0086L12.2927 21.8361C11.9029 22.226 11.2709 22.226 10.881 21.8361Z" fill="black"/>
</g>
</svg>
