<svg width="24" height="25" viewBox="0 0 24 25" fill="none" xmlns="http://www.w3.org/2000/svg">
<g opacity="0.9">
<path d="M20.7979 3.87885C22.36 5.44094 22.36 7.97361 20.7979 9.5357L17.9694 12.3641C17.1312 13.2024 16.0127 13.5907 14.9166 13.5294C14.6408 13.514 14.4298 13.278 14.4452 13.0023C14.4607 12.7266 14.6967 12.5156 14.9724 12.531C15.7963 12.5771 16.6337 12.2856 17.2623 11.657L20.0908 8.8286C21.2623 7.65702 21.2623 5.75753 20.0908 4.58595C18.9192 3.41438 17.0197 3.41438 15.8481 4.58596L13.0197 7.41438C12.3911 8.043 12.0997 8.88037 12.1457 9.70434C12.1611 9.98005 11.9501 10.2161 11.6744 10.2315C11.3987 10.2469 11.1627 10.0359 11.1473 9.76015C11.086 8.66402 11.4743 7.54551 12.3126 6.70728L15.141 3.87885C16.7031 2.31675 19.2358 2.31675 20.7979 3.87885Z" fill="black"/>
<path d="M3.12128 21.5552C1.55918 19.9931 1.55918 17.4605 3.12128 15.8984L5.94971 13.07C6.78794 12.2317 7.90646 11.8434 9.00258 11.9046C9.2783 11.9201 9.48931 12.1561 9.4739 12.4318C9.45849 12.7075 9.22248 12.9185 8.94677 12.9031C8.1228 12.857 7.28543 13.1484 6.65681 13.7771L3.82839 16.6055C2.65681 17.7771 2.65681 19.6766 3.82839 20.8481C4.99996 22.0197 6.89945 22.0197 8.07103 20.8481L10.8995 18.0197C11.5281 17.3911 11.8195 16.5537 11.7734 15.7297C11.758 15.454 11.969 15.218 12.2447 15.2026C12.5205 15.1872 12.7565 15.3982 12.7719 15.6739C12.8331 16.7701 12.4448 17.8886 11.6066 18.7268L8.77813 21.5552C7.21604 23.1173 4.68338 23.1173 3.12128 21.5552Z" fill="black"/>
<path d="M7.71745 16.2522C7.52219 16.4474 7.52219 16.764 7.71745 16.9593C7.91271 17.1545 8.2293 17.1545 8.42456 16.9593L16.2027 9.18109C16.398 8.98583 16.398 8.66925 16.2027 8.47398C16.0075 8.27872 15.6909 8.27872 15.4956 8.47398L7.71745 16.2522Z" fill="black"/>
</g>
</svg>
