<svg width="32" height="33" viewBox="0 0 32 33" fill="none" xmlns="http://www.w3.org/2000/svg">
<g opacity="0.9">
<path d="M26.5922 6.12505C28.4368 7.96967 28.4368 10.9604 26.5922 12.805L23.1791 16.2181C22.1892 17.2079 20.8686 17.6665 19.574 17.5942C19.2983 17.5788 19.0873 17.3428 19.1027 17.067C19.1181 16.7913 19.3541 16.5803 19.6298 16.5957C20.6522 16.6529 21.6918 16.2912 22.472 15.511L25.885 12.0979C27.3392 10.6438 27.3392 8.28626 25.885 6.83215C24.4309 5.37805 22.0734 5.37805 20.6193 6.83215L17.2062 10.2452C16.426 11.0254 16.0643 12.065 16.1215 13.0874C16.1369 13.3631 15.9259 13.5991 15.6502 13.6145C15.3744 13.6299 15.1384 13.4189 15.123 13.1432C15.0507 11.8486 15.5093 10.528 16.4991 9.53812L19.9122 6.12505C21.7568 4.28042 24.7475 4.28042 26.5922 6.12505Z" fill="black"/>
<path d="M5.40788 27.3089C3.56326 25.4643 3.56326 22.4736 5.40788 20.629L8.82096 17.2159C9.81079 16.226 11.1315 15.7674 12.426 15.8398C12.7017 15.8552 12.9128 16.0912 12.8973 16.3669C12.8819 16.6427 12.6459 16.8537 12.3702 16.8383C11.3478 16.7811 10.3083 17.1428 9.52807 17.923L6.11499 21.3361C4.66089 22.7902 4.66089 25.1477 6.11499 26.6018C7.56909 28.0559 9.92666 28.0559 11.3808 26.6018L14.7938 23.1888C15.5741 22.4085 15.9357 21.369 15.8786 20.3466C15.8632 20.0709 16.0742 19.8349 16.3499 19.8195C16.6256 19.8041 16.8616 20.0151 16.877 20.2908C16.9494 21.5854 16.4908 22.906 15.5009 23.8959L12.0879 27.3089C10.2432 29.1536 7.25251 29.1536 5.40788 27.3089Z" fill="black"/>
<path d="M10.881 20.9827C10.6454 21.2184 10.6454 21.6004 10.881 21.836C11.1167 22.0716 11.4987 22.0716 11.7343 21.836L21.1203 12.4501C21.3559 12.2144 21.3559 11.8324 21.1203 11.5968C20.8846 11.3612 20.5026 11.3612 20.267 11.5968L10.881 20.9827Z" fill="black"/>
</g>
</svg>
