<svg width="32" height="32" viewBox="0 0 32 32" fill="none" xmlns="http://www.w3.org/2000/svg">
<g clip-path="url(#clip0)">
<g opacity="0.9">
<path fill-rule="evenodd" clip-rule="evenodd" d="M11.0263 9C10.6358 9 10.2607 9.15229 9.98067 9.42451L4.32352 14.9245C3.71768 15.5135 3.71768 16.4865 4.32352 17.0755L9.98067 22.5755C10.2607 22.8477 10.6358 23 11.0263 23H26.5C27.3284 23 28 22.3284 28 21.5V21C28 20.7239 28.2239 20.5 28.5 20.5C28.7762 20.5 29 20.7239 29 21V21.5C29 22.8807 27.8807 24 26.5 24H11.0263C10.3754 24 9.75024 23.7462 9.28359 23.2925L3.62645 17.7925C2.61671 16.8108 2.61671 15.1892 3.62644 14.2075L9.28359 8.70751C9.75024 8.25382 10.3754 8 11.0263 8H26.5C27.8807 8 29 9.11929 29 10.5V14.5C29 14.7761 28.7762 15 28.5 15C28.2239 15 28 14.7761 28 14.5V10.5C28 9.67157 27.3284 9 26.5 9H11.0263Z" fill="black"/>
<path fill-rule="evenodd" clip-rule="evenodd" d="M25.2563 11.6492C25.45 11.8459 25.4476 12.1625 25.2509 12.3562L21.7203 15.8333H22.7C24.2452 15.8333 26.553 16.2858 28.4892 17.6588C30.4514 19.0501 32 21.3671 32 25C32 25.2761 31.7762 25.5 31.5 25.5C31.2239 25.5 31 25.2761 31 25C31 21.6995 29.6153 19.6832 27.9108 18.4745C26.1804 17.2475 24.0882 16.8333 22.7 16.8333H21.7203L25.2509 20.3104C25.4476 20.5042 25.45 20.8208 25.2563 21.0175C25.0625 21.2143 24.7459 21.2167 24.5492 21.0229L19.7875 16.3333L24.5492 11.6438C24.7459 11.45 25.0625 11.4524 25.2563 11.6492Z" fill="black"/>
<path fill-rule="evenodd" clip-rule="evenodd" d="M9.00002 17C9.55231 17 10 16.5523 10 16C10 15.4477 9.55231 15 9.00002 15C8.44774 15 8.00002 15.4477 8.00002 16C8.00002 16.5523 8.44774 17 9.00002 17ZM9.00002 18C10.1046 18 11 17.1046 11 16C11 14.8954 10.1046 14 9.00002 14C7.89545 14 7.00002 14.8954 7.00002 16C7.00002 17.1046 7.89545 18 9.00002 18Z" fill="black"/>
</g>
</g>
<defs>
<clipPath id="clip0">
<rect width="32" height="32" fill="white"/>
</clipPath>
</defs>
</svg>
