<svg width="16" height="16" viewBox="0 0 16 16" fill="none" xmlns="http://www.w3.org/2000/svg">
<g clip-path="url(#clip0)">
<g opacity="0.9">
<path d="M4.39827 5.3453C4.64662 5.12582 4.97864 5 5.32812 5H12.6519C13.4225 5 14 5.58498 14 6.25V7.5C14 7.77614 14.2239 8 14.5 8C14.7761 8 15 7.77614 15 7.5V6.25C15 4.98202 13.9227 4 12.6519 4H5.32812C4.7414 4 4.17211 4.2106 3.73604 4.59601L1.75598 6.34601C0.748008 7.23686 0.748008 8.76314 1.75598 9.65399L3.73604 11.404C4.17211 11.7894 4.7414 12 5.32812 12H8.5C8.77614 12 9 11.7761 9 11.5C9 11.2239 8.77614 11 8.5 11H5.32812C4.97864 11 4.64662 10.8742 4.39827 10.6547L2.41821 8.9047C1.8606 8.41187 1.8606 7.58813 2.41821 7.0953L4.39827 5.3453Z" fill="black"/>
<path d="M12.8536 7.85355C13.0488 7.65829 13.0488 7.34171 12.8536 7.14645C12.6583 6.95118 12.3417 6.95118 12.1465 7.14645L9.79291 9.5L12.1465 11.8536C12.3417 12.0488 12.6583 12.0488 12.8536 11.8536C13.0488 11.6583 13.0488 11.3417 12.8536 11.1464L11.7146 10.0075C12.2902 10.0462 13.062 10.2408 13.7079 10.7058C14.4124 11.2131 15 12.063 15 13.5C15 13.7761 15.2239 14 15.5 14C15.7762 14 16 13.7761 16 13.5C16 11.737 15.2542 10.5869 14.2922 9.89423C13.4368 9.27835 12.4376 9.04154 11.702 9.00511L12.8536 7.85355Z" fill="black"/>
</g>
</g>
<defs>
<clipPath id="clip0">
<rect width="16" height="16" fill="white"/>
</clipPath>
</defs>
</svg>
