<svg width="16" height="16" viewBox="0 0 16 16" fill="none" xmlns="http://www.w3.org/2000/svg">
<g opacity="0.9">
<path d="M6 3L4 2.5L6 2L6.5 0L7 2L9 2.5L7 3L6.5 5L6 3Z" fill="black"/>
<path d="M13.1 3.9L11.5 3.5L13.1 3.1L13.5 1.5L13.9 3.1L15.5 3.5L13.9 3.9L13.5 5.5L13.1 3.9Z" fill="black"/>
<path d="M11 10.5L12.2 10.8L12.5 12L12.8 10.8L14 10.5L12.8 10.2L12.5 9L12.2 10.2L11 10.5Z" fill="black"/>
<path fill-rule="evenodd" clip-rule="evenodd" d="M10.5215 7.78864L3.78864 14.5216C3.1507 15.1595 2.11639 15.1596 1.47845 14.5216C1.15823 14.2014 0.998747 13.7813 1.00001 13.3616C1.00124 12.9452 1.16072 12.5291 1.47845 12.2114L8.21137 5.47845C8.8493 4.84052 9.88361 4.84052 10.5215 5.47845C11.1595 6.11639 11.1595 7.1507 10.5215 7.78864ZM8.1494 6.95464L8.91847 6.18556C9.16589 5.93815 9.56702 5.93815 9.81444 6.18556C10.0619 6.43298 10.0619 6.83411 9.81444 7.08153L9.04536 7.8506L8.1494 6.95464Z" fill="black"/>
</g>
</svg>
