<svg width="16" height="16" viewBox="0 0 16 16" fill="none" xmlns="http://www.w3.org/2000/svg">
<g opacity="0.9">
<path d="M4 2.5L6 3L6.5 5L7 3L9 2.5L7 2L6.5 0L6 2L4 2.5Z" fill="black"/>
<path fill-rule="evenodd" clip-rule="evenodd" d="M8.21137 5.47845C8.8493 4.84052 9.88361 4.84052 10.5215 5.47845C11.1595 6.11639 11.1595 7.1507 10.5215 7.78864L3.78864 14.5215C3.1507 15.1595 2.11639 15.1595 1.47845 14.5215C0.840515 13.8836 0.840515 12.8493 1.47845 12.2114L8.21137 5.47845ZM9.81444 6.18556C9.56702 5.93815 9.16589 5.93815 8.91847 6.18556L8.14941 6.95462L9.04538 7.85059L9.81444 7.08153C10.0619 6.83411 10.0619 6.43298 9.81444 6.18556ZM2.18556 12.9185L7.44231 7.66173L8.33827 8.55769L3.08153 13.8144C2.83411 14.0619 2.43298 14.0619 2.18556 13.8144C1.93815 13.567 1.93815 13.1659 2.18556 12.9185Z" fill="black"/>
<path d="M13.1 3.9L11.5 3.5L13.1 3.1L13.5 1.5L13.9 3.1L15.5 3.5L13.9 3.9L13.5 5.5L13.1 3.9Z" fill="black"/>
<path d="M11 10.5L12.2 10.8L12.5 12L12.8 10.8L14 10.5L12.8 10.2L12.5 9L12.2 10.2L11 10.5Z" fill="black"/>
</g>
</svg>
