<svg width="32" height="32" viewBox="0 0 32 32" fill="none" xmlns="http://www.w3.org/2000/svg">
<g opacity="0.9">
<path d="M11.5 5.5L14.7 6.3L15.5 9.5L16.3 6.3L19.5 5.5L16.3 4.7L15.5 1.5L14.7 4.7L11.5 5.5Z" fill="black"/>
<path fill-rule="evenodd" clip-rule="evenodd" d="M17.4913 10.7736C18.5227 9.74214 20.195 9.74214 21.2264 10.7736C22.2579 11.805 22.2579 13.4773 21.2264 14.5087L8.50871 27.2265C7.47728 28.2579 5.805 28.2579 4.77357 27.2265C4.25886 26.7118 4.001 26.0375 4 25.3629C3.99899 24.6856 4.25684 24.008 4.77357 23.4913L17.4913 10.7736ZM18.1984 11.4807C18.8393 10.8398 19.8784 10.8398 20.5193 11.4807C21.1602 12.1216 21.1602 13.1607 20.5193 13.8016L18.7528 15.5681L16.4319 13.2472L18.1984 11.4807Z" fill="black"/>
<path d="M26.8 9.2L24 8.5L26.8 7.8L27.5 5L28.2 7.8L31 8.5L28.2 9.2L27.5 12L26.8 9.2Z" fill="black"/>
<path d="M23.5 18.5L25.9 19.1L26.5 21.5L27.1 19.1L29.5 18.5L27.1 17.9L26.5 15.5L25.9 17.9L23.5 18.5Z" fill="black"/>
</g>
</svg>
