<svg width="32" height="32" viewBox="0 0 32 32" fill="none" xmlns="http://www.w3.org/2000/svg">
<g opacity="0.9">
<path fill-rule="evenodd" clip-rule="evenodd" d="M20.5193 11.4807C19.8784 10.8398 18.8393 10.8398 18.1984 11.4807L5.48068 24.1984C4.83977 24.8393 4.83977 25.8784 5.48068 26.5193C6.12158 27.1602 7.1607 27.1602 7.8016 26.5193L20.5193 13.8016C21.1602 13.1607 21.1602 12.1216 20.5193 11.4807ZM17.4913 10.7736C18.5227 9.74214 20.195 9.74214 21.2264 10.7736C22.2579 11.805 22.2579 13.4773 21.2264 14.5087L8.50871 27.2264C7.47728 28.2579 5.805 28.2579 4.77357 27.2264C3.74214 26.195 3.74214 24.5227 4.77357 23.4913L17.4913 10.7736Z" fill="black"/>
<path fill-rule="evenodd" clip-rule="evenodd" d="M18.4112 16.6407L15.3715 13.6011L16.0787 12.894L19.1183 15.9336L18.4112 16.6407Z" fill="black"/>
<path d="M14.7 6.3L11.5 5.5L14.7 4.7L15.5 1.5L16.3 4.7L19.5 5.5L16.3 6.3L15.5 9.5L14.7 6.3Z" fill="black"/>
<path d="M26.8 9.2L24 8.5L26.8 7.8L27.5 5L28.2 7.8L31 8.5L28.2 9.2L27.5 12L26.8 9.2Z" fill="black"/>
<path d="M25.9 19.1L23.5 18.5L25.9 17.9L26.5 15.5L27.1 17.9L29.5 18.5L27.1 19.1L26.5 21.5L25.9 19.1Z" fill="black"/>
</g>
</svg>
