<svg width="24" height="24" viewBox="0 0 24 24" fill="none" xmlns="http://www.w3.org/2000/svg">
<g opacity="0.9">
<path d="M8.8 4.2L6 3.5L8.8 2.8L9.5 0L10.2 2.8L13 3.5L10.2 4.2L9.5 7L8.8 4.2Z" fill="black"/>
<path d="M19 6L17 5.5L19 5L19.5 3L20 5L22 5.5L20 6L19.5 8L19 6Z" fill="black"/>
<path d="M17.5 13.5L19.1 13.9L19.5 15.5L19.9 13.9L21.5 13.5L19.9 13.1L19.5 11.5L19.1 13.1L17.5 13.5Z" fill="black"/>
<path fill-rule="evenodd" clip-rule="evenodd" d="M16.3371 10.8637L5.86369 21.3372C4.97982 22.221 3.54677 22.221 2.6629 21.3372C2.22182 20.8961 2.00086 20.3182 2 19.7401C1.99913 19.1598 2.2201 18.5791 2.6629 18.1363L13.1363 7.6629C14.0202 6.77903 15.4532 6.77903 16.3371 7.6629C17.221 8.54677 17.221 9.97981 16.3371 10.8637ZM12.451 9.76239L14.2376 11.549L15.63 10.1566C16.1233 9.66323 16.1233 8.86336 15.63 8.37001C15.1366 7.87666 14.3368 7.87666 13.8434 8.37001L12.451 9.76239Z" fill="black"/>
</g>
</svg>
