<svg width="24" height="24" viewBox="0 0 24 24" fill="none" xmlns="http://www.w3.org/2000/svg">
<path opacity="0.9" fill-rule="evenodd" clip-rule="evenodd" d="M18.2215 18.2136C19.9383 16.4947 21 14.1213 21 11.5C21 6.25329 16.7467 2 11.5 2C6.25329 2 2 6.25329 2 11.5C2 16.7467 6.25329 21 11.5 21C13.7652 21 15.8452 20.2072 17.4777 18.884L21.2402 22.6465C21.4355 22.8417 21.752 22.8417 21.9473 22.6465C22.1426 22.4512 22.1426 22.1346 21.9473 21.9393L18.2215 18.2136ZM11 4.5C10.7239 4.5 10.5 4.72386 10.5 5C10.5 5.27614 10.7239 5.5 11 5.5C12.5874 5.5 14.2166 6.29873 15.4589 7.54105C16.7013 8.78338 17.5 10.4126 17.5 12C17.5 12.2761 17.7239 12.5 18 12.5C18.2761 12.5 18.5 12.2761 18.5 12C18.5 10.0874 17.5487 8.21662 16.1661 6.83395C14.7834 5.45127 12.9126 4.5 11 4.5Z" fill="black"/>
</svg>
