<svg width="32" height="32" viewBox="0 0 32 32" fill="none" xmlns="http://www.w3.org/2000/svg">
<g opacity="0.9">
<path d="M22 7C22 5.89543 22.8954 5 24 5C25.1046 5 26 5.89543 26 7V10V23.5C26 23.7761 25.7761 24 25.5 24H22.5C22.2239 24 22 23.7761 22 23.5V10V7Z" fill="black"/>
<path d="M22 10C22 10.2761 21.7761 10.5 21.5 10.5H20.5C20.2239 10.5 20 10.2761 20 10C20 9.72386 20.2239 9.5 20.5 9.5H21.5C21.7761 9.5 22 9.72386 22 10Z" fill="black"/>
<path d="M26 10C26 10.2761 26.2239 10.5 26.5 10.5H27.5C27.7761 10.5 28 10.2761 28 10C28 9.72386 27.7761 9.5 27.5 9.5H26.5C26.2239 9.5 26 9.72386 26 10Z" fill="black"/>
<path d="M4 6.5C4 6.22386 3.77614 6 3.5 6C3.22386 6 3 6.22386 3 6.5V28H27.5C27.7761 28 28 27.7761 28 27.5C28 27.2239 27.7761 27 27.5 27H4V6.5Z" fill="black"/>
<path d="M15.8086 10.3934C16.1414 10.1462 16.5536 10 17 10C17 9.72386 17.2239 9.5 17.5 9.5H18.5C18.7761 9.5 19 9.72386 19 10C19 10.2761 18.7761 10.5 18.5 10.5H18.3229C18.7381 10.8665 19 11.4027 19 12V23.5C19 23.7761 18.7761 24 18.5 24H15.5C15.2239 24 15 23.7761 15 23.5V12C15 11.3496 15.3105 10.7717 15.7913 10.4064C15.7093 10.4653 15.6087 10.5 15.5 10.5H14.5C14.2239 10.5 14 10.2761 14 10C14 9.72386 14.2239 9.5 14.5 9.5H15.5C15.7761 9.5 16 9.72386 16 10C16 10.1597 15.9251 10.3019 15.8086 10.3934Z" fill="black"/>
<path d="M8 17C8 15.8954 8.89543 15 10 15C11.1046 15 12 15.8954 12 17V23.5C12 23.7761 11.7761 24 11.5 24H8.5C8.22386 24 8 23.7761 8 23.5V17Z" fill="black"/>
<path d="M5.5 9.5C5.22386 9.5 5 9.72386 5 10C5 10.2761 5.22386 10.5 5.5 10.5H6.5C6.77614 10.5 7 10.2761 7 10C7 9.72386 6.77614 9.5 6.5 9.5H5.5Z" fill="black"/>
<path d="M8.5 9.5C8.22386 9.5 8 9.72386 8 10C8 10.2761 8.22386 10.5 8.5 10.5H9.5C9.77614 10.5 10 10.2761 10 10C10 9.72386 9.77614 9.5 9.5 9.5H8.5Z" fill="black"/>
<path d="M11.5 9.5C11.2239 9.5 11 9.72386 11 10C11 10.2761 11.2239 10.5 11.5 10.5H12.5C12.7761 10.5 13 10.2761 13 10C13 9.72386 12.7761 9.5 12.5 9.5H11.5Z" fill="black"/>
</g>
</svg>
