<svg width="24" height="24" viewBox="0 0 24 24" fill="none" xmlns="http://www.w3.org/2000/svg">
<g opacity="0.9">
<path fill-rule="evenodd" clip-rule="evenodd" d="M18.5 3C17.6716 3 17 3.67157 17 4.5V17.5C17 17.7761 17.2239 18 17.5 18H19.5C19.7761 18 20 17.7761 20 17.5V7C20 7.27614 20.2239 7.5 20.5 7.5H21.5C21.7761 7.5 22 7.27614 22 7C22 6.72386 21.7761 6.5 21.5 6.5H20.5C20.2239 6.5 20 6.72386 20 7V4.5C20 3.67157 19.3284 3 18.5 3ZM18 7.5V17H19V7V4.5C19 4.22386 18.7761 4 18.5 4C18.2239 4 18 4.22386 18 4.5V6.5H18.5C18.7761 6.5 19 6.72386 19 7C19 7.27614 18.7761 7.5 18.5 7.5H18Z" fill="black"/>
<path d="M1.5 4C1.77614 4 2 4.22386 2 4.5V7V21H21.5C21.7761 21 22 21.2239 22 21.5C22 21.7761 21.7761 22 21.5 22H1V4.5C1 4.22386 1.22386 4 1.5 4Z" fill="black"/>
<path d="M2 7C2 7.27614 2.22386 7.5 2.5 7.5H3.5C3.77614 7.5 4 7.27614 4 7C4 6.72386 3.77614 6.5 3.5 6.5H2.5C2.22386 6.5 2 6.72386 2 7Z" fill="black"/>
<path fill-rule="evenodd" clip-rule="evenodd" d="M12.9932 7.08295C12.9977 7.05597 13 7.02826 13 7C13 6.72386 12.7761 6.5 12.5 6.5H11.5C11.2239 6.5 11 6.72386 11 7C11 7.23922 11.168 7.4392 11.3924 7.4884C11.1487 7.75512 11 8.1102 11 8.5V17.5C11 17.7761 11.2239 18 11.5 18H13.5C13.7761 18 14 17.7761 14 17.5V8.5C14 7.84433 13.5793 7.28692 12.9932 7.08295ZM12.5 8C12.2239 8 12 8.22386 12 8.5V17H13V8.5C13 8.22386 12.7761 8 12.5 8Z" fill="black"/>
<path fill-rule="evenodd" clip-rule="evenodd" d="M5 12.5C5 11.6716 5.67157 11 6.5 11C7.32843 11 8 11.6716 8 12.5V17.5C8 17.7761 7.77614 18 7.5 18H5.5C5.22386 18 5 17.7761 5 17.5V12.5ZM6.5 12C6.22386 12 6 12.2239 6 12.5V17H7V12.5C7 12.2239 6.77614 12 6.5 12Z" fill="black"/>
<path d="M5.5 6.5C5.22386 6.5 5 6.72386 5 7C5 7.27614 5.22386 7.5 5.5 7.5H6.5C6.77614 7.5 7 7.27614 7 7C7 6.72386 6.77614 6.5 6.5 6.5H5.5Z" fill="black"/>
<path d="M8.5 6.5C8.22386 6.5 8 6.72386 8 7C8 7.27614 8.22386 7.5 8.5 7.5H9.5C9.77614 7.5 10 7.27614 10 7C10 6.72386 9.77614 6.5 9.5 6.5H8.5Z" fill="black"/>
<path d="M14.5 6.5C14.2239 6.5 14 6.72386 14 7C14 7.27614 14.2239 7.5 14.5 7.5H15.5C15.7761 7.5 16 7.27614 16 7C16 6.72386 15.7761 6.5 15.5 6.5H14.5Z" fill="black"/>
</g>
</svg>
