<svg width="32" height="32" viewBox="0 0 32 32" fill="none" xmlns="http://www.w3.org/2000/svg">
<path opacity="0.9" fill-rule="evenodd" clip-rule="evenodd" d="M15.6114 4.00617C15.7404 4.00207 15.87 4 16 4C22.6274 4 28 9.37258 28 16C28 22.6274 22.6274 28 16 28C15.87 28 15.7404 27.9979 15.6114 27.9938C15.5396 27.9979 15.4674 28 15.3947 28C15.1365 28 14.8836 27.9738 14.6365 27.9234C8.65109 27.2464 4 22.1664 4 16C4 9.83362 8.65109 4.75357 14.6365 4.07661C14.8836 4.02619 15.1365 4 15.3947 4C15.4674 4 15.5396 4.00207 15.6114 4.00617ZM6.19942 11C5.43256 12.5001 5 14.1996 5 16H8.8421C8.8421 14.2201 9.05037 12.5252 9.4271 11H6.19942ZM8.86417 17H5.04484C5.21007 18.8335 5.82517 20.5372 6.77893 22H9.70565C9.23946 20.5042 8.94424 18.8062 8.86417 17ZM9.86519 17H15V22H10.7565C10.2682 20.5397 9.95045 18.8378 9.86519 17ZM15 16H9.8421C9.8421 14.1948 10.0659 12.4971 10.459 11H15V16ZM16 17V22H20.033C20.5213 20.5397 20.839 18.8378 20.9243 17H16ZM20.9474 16H16V11H20.3304C20.7235 12.4971 20.9474 14.1948 20.9474 16ZM21.9253 17C21.8452 18.8062 21.55 20.5042 21.0838 22H25.2211C26.1748 20.5372 26.7899 18.8335 26.9552 17H21.9253ZM27 16H21.9474C21.9474 14.2201 21.7391 12.5252 21.3624 11H25.8006C26.5674 12.5001 27 14.1996 27 16ZM11.9327 26.2236C10.1996 25.5335 8.6833 24.4155 7.51432 23H10.0544C10.2418 23.4829 10.4484 23.939 10.6724 24.3646C11.0401 25.0631 11.4626 25.6925 11.9327 26.2236ZM11.5573 23.8989C11.4079 23.6149 11.2662 23.3148 11.1332 23H15V26.9552C14.936 26.9494 14.8722 26.9431 14.8086 26.9362C13.6192 26.6772 12.4705 25.6339 11.5573 23.8989ZM16 26.932V23H19.6563C19.5232 23.3148 19.3816 23.6149 19.2321 23.8989C18.3238 25.6246 17.1826 26.666 16 26.932ZM20.1171 24.3646C20.341 23.939 20.5477 23.4829 20.7351 23H24.4857C22.942 24.8692 20.7926 26.2197 18.3381 26.751C19.0197 26.1309 19.6188 25.3112 20.1171 24.3646ZM6.77893 10H9.70565C9.97405 9.13885 10.2991 8.34468 10.6724 7.6354C11.0401 6.93687 11.4626 6.3075 11.9327 5.77641C9.80933 6.6219 8.01139 8.10977 6.77893 10ZM15 10H10.7565C10.9874 9.30926 11.2566 8.67258 11.5573 8.10115C12.4705 6.36607 13.6192 5.32283 14.8086 5.06378C14.8722 5.05692 14.936 5.05061 15 5.04484V10ZM20.033 10H16V5.06801C17.1826 5.33404 18.3238 6.37537 19.2321 8.10115C19.5329 8.67258 19.802 9.30926 20.033 10ZM25.2211 10H21.0838C20.8154 9.13885 20.4904 8.34468 20.1171 7.6354C19.6188 6.68876 19.0198 5.86914 18.3382 5.24901C21.2112 5.87092 23.6662 7.61525 25.2211 10Z" fill="black"/>
</svg>
