<svg width="24" height="24" viewBox="0 0 24 24" fill="none" xmlns="http://www.w3.org/2000/svg">
<path opacity="0.9" fill-rule="evenodd" clip-rule="evenodd" d="M11.6802 2.00502C11.7864 2.00168 11.893 2 12 2C17.5228 2 22 6.47715 22 12C22 17.5228 17.5228 22 12 22C11.893 22 11.7864 21.9983 11.6802 21.995C11.6205 21.9983 11.5604 22 11.5 22C11.2813 22 11.0674 21.978 10.8588 21.9356C5.87333 21.3692 2 17.1369 2 12C2 6.86306 5.87333 2.63079 10.8588 2.06441C11.0674 2.02205 11.2813 2 11.5 2C11.5604 2 11.6205 2.00168 11.6802 2.00502ZM3.93552 8C3.33671 9.20496 3 10.5632 3 12H6C6 10.582 6.15929 9.2279 6.44925 8H3.93552ZM6.02664 13H3.05493C3.2173 14.4689 3.73316 15.8312 4.51555 17H6.72281C6.34676 15.7991 6.10391 14.4423 6.02664 13ZM7.02814 13H11V17H7.77486C7.37677 15.8334 7.11156 14.4729 7.02814 13ZM11 12H7C7 10.5587 7.17354 9.20204 7.4788 8H11V12ZM12 13V17H15.2251C15.6232 15.8334 15.8884 14.4729 15.9719 13H12ZM16 12H12V8H15.5212C15.8265 9.20204 16 10.5587 16 12ZM16.9734 13C16.8961 14.4423 16.6532 15.7991 16.2772 17H19.4845C20.2668 15.8312 20.7827 14.4689 20.9451 13H16.9734ZM21 12H17C17 10.582 16.8407 9.2279 16.5507 8H20.0645C20.6633 9.20496 21 10.5632 21 12ZM8.34329 20.2261C7.17314 19.7052 6.13469 18.9419 5.29168 18H7.08128C7.2172 18.3335 7.36441 18.6509 7.52201 18.9504C7.76654 19.415 8.04129 19.8447 8.34329 20.2261ZM8.40693 18.4846C8.32498 18.329 8.24589 18.1673 8.16983 18H11V20.9414C10.065 20.7224 9.14727 19.8913 8.40693 18.4846ZM12 20.9414V18H14.8302C14.7541 18.1673 14.675 18.329 14.5931 18.4846C13.8527 19.8913 12.935 20.7224 12 20.9414ZM15.478 18.9504C15.6356 18.6509 15.7828 18.3335 15.9187 18H18.7083C17.5338 19.3122 15.98 20.2778 14.2192 20.7243C14.6973 20.2358 15.12 19.6305 15.478 18.9504ZM4.51555 7H6.72281C6.94495 6.2906 7.21358 5.63563 7.52201 5.04961C7.76654 4.58501 8.04129 4.1553 8.34329 3.77389C6.78274 4.46863 5.45642 5.59441 4.51555 7ZM11 7H7.77486C7.95879 6.46101 8.17109 5.96345 8.40693 5.51536C9.14727 4.10871 10.065 3.27761 11 3.05858V7ZM15.2251 7H12V3.05858C12.935 3.27761 13.8527 4.10871 14.5931 5.51536C14.8289 5.96345 15.0412 6.46101 15.2251 7ZM19.4845 7H16.2772C16.055 6.2906 15.7864 5.63563 15.478 5.04961C15.12 4.3695 14.6973 3.76417 14.2192 3.27566C16.4017 3.82911 18.2662 5.17999 19.4845 7Z" fill="black"/>
</svg>
