<svg width="32" height="32" viewBox="0 0 32 32" fill="none" xmlns="http://www.w3.org/2000/svg">
<g opacity="0.9">
<path d="M16 27.9247C17.1673 27.6347 18.3098 26.51 19.2246 24.6209C19.4654 24.1236 19.6859 23.5812 19.883 22.9999H16V27.9247Z" fill="black"/>
<path d="M16 21.9999H20.188C20.5953 20.5086 20.857 18.8136 20.9279 16.9999H16V21.9999Z" fill="black"/>
<path d="M15 16.9999V21.9999H10.6015C10.1942 20.5086 9.93243 18.8136 9.86156 16.9999H15Z" fill="black"/>
<path d="M16 15.9999H20.9474C20.9474 14.2118 20.7621 12.5197 20.4324 10.9999H16V15.9999Z" fill="black"/>
<path d="M15 10.9999V15.9999H9.8421C9.8421 14.2118 10.0273 12.5197 10.3571 10.9999H15Z" fill="black"/>
<path d="M16 9.99994H20.188C19.9239 9.03292 19.5986 8.15155 19.2246 7.37901C18.3098 5.48985 17.1673 4.36523 16 4.07518V9.99994Z" fill="black"/>
<path d="M15 4.04102V9.99994H10.6015C10.8656 9.03292 11.1908 8.15155 11.5649 7.37901C12.5098 5.42765 13.6977 4.292 14.9048 4.04925C14.9365 4.04638 14.9683 4.04364 15 4.04102Z" fill="black"/>
<path d="M15 22.9999V27.9589C14.9683 27.9563 14.9365 27.9535 14.9048 27.9506C13.6977 27.7079 12.5098 26.5722 11.5649 24.6209C11.3241 24.1236 11.1035 23.5812 10.9065 22.9999H15Z" fill="black"/>
<path d="M9.33493 10.9999C9.01664 12.5416 8.8421 14.2317 8.8421 15.9999H4C4 14.2155 4.38949 12.5221 5.08808 10.9999H9.33493Z" fill="black"/>
<path d="M8.86083 16.9999H4.04107C4.19043 18.8104 4.74167 20.5068 5.60538 21.9999H9.56679C9.1747 20.482 8.92813 18.7896 8.86083 16.9999Z" fill="black"/>
<path d="M27.9589 16.9999H21.9286C21.8613 18.7896 21.6148 20.482 21.2227 21.9999H26.3946C27.2583 20.5068 27.8096 18.8104 27.9589 16.9999Z" fill="black"/>
<path d="M26.9119 10.9999C27.6105 12.5221 28 14.2155 28 15.9999H21.9474C21.9474 14.2317 21.7728 12.5416 21.4545 10.9999H26.9119Z" fill="black"/>
<path d="M6.25209 22.9999H9.85404C10.0892 23.74 10.361 24.4292 10.6649 25.0567C11.0984 25.9521 11.6105 26.746 12.19 27.3825C9.7783 26.5756 7.70788 25.0236 6.25209 22.9999Z" fill="black"/>
<path d="M20.9354 22.9999C20.7003 23.74 20.4285 24.4292 20.1246 25.0567C19.5898 26.1612 18.9355 27.1113 18.1825 27.8019C21.2873 27.2314 23.9739 25.466 25.7479 22.9999H20.9354Z" fill="black"/>
<path d="M21.2227 9.99994H26.3946C24.6679 7.01502 21.6924 4.84288 18.1825 4.19794C18.9355 4.88864 19.5898 5.83872 20.1246 6.9432C20.5614 7.84533 20.932 8.87472 21.2227 9.99994Z" fill="black"/>
<path d="M5.60539 9.99994H9.56679C9.85744 8.87472 10.228 7.84533 10.6649 6.9432C11.0984 6.04782 11.6105 5.2539 12.1901 4.61739C9.39483 5.55259 7.05812 7.4886 5.60539 9.99994Z" fill="black"/>
</g>
</svg>
