<svg width="24" height="24" viewBox="0 0 24 24" fill="none" xmlns="http://www.w3.org/2000/svg">
<g opacity="0.9">
<path d="M1 5C1 3.89543 1.89543 3 3 3H21C22.1046 3 23 3.89543 23 5V6.5C23 6.77614 22.7761 7 22.5 7H1.5C1.22386 7 1 6.77614 1 6.5V5Z" fill="black"/>
<path fill-rule="evenodd" clip-rule="evenodd" d="M2 8.5C2 8.22386 2.22386 8 2.5 8H21.5C21.7761 8 22 8.22386 22 8.5V19C22 20.1046 21.1046 21 20 21H4C2.89543 21 2 20.1046 2 19V8.5ZM9 10.5C9 10.2239 9.22386 10 9.5 10H14.5C14.7761 10 15 10.2239 15 10.5V11.5C15 11.7761 14.7761 12 14.5 12H9.5C9.22386 12 9 11.7761 9 11.5V10.5Z" fill="black"/>
</g>
</svg>
