<svg width="32" height="32" viewBox="0 0 32 32" fill="none" xmlns="http://www.w3.org/2000/svg">
<path opacity="0.9" fill-rule="evenodd" clip-rule="evenodd" d="M9 7C9 4.23858 11.2386 2 14 2H18C20.7614 2 23 4.23858 23 7V8C23 8.55228 22.5523 9 22 9C21.4477 9 21 8.55228 21 8V7C21 5.34315 19.6569 4 18 4H14C12.3431 4 11 5.34315 11 7V12H24C25.6569 12 27 13.3431 27 15V26C27 27.1046 26.1046 28 25 28H7C5.89543 28 5 27.1046 5 26V15C5 13.3431 6.34315 12 8 12H9V7ZM13.792 23.9928C14.1829 24.3837 14.8171 24.3837 15.208 23.9928L21.854 17.347C22.0492 17.1517 22.049 16.8353 21.8535 16.6403C21.658 16.4453 21.3413 16.4454 21.146 16.6407L14.5 23.2866L11.854 20.6405C11.6587 20.4453 11.342 20.4451 11.1465 20.6401C10.9509 20.8351 10.9507 21.1515 11.146 21.3468L13.792 23.9928Z" fill="black"/>
</svg>
