<svg width="24" height="24" viewBox="0 0 24 24" fill="none" xmlns="http://www.w3.org/2000/svg">
<g opacity="0.9">
<path d="M10.3537 7.35355C10.1585 7.54882 9.84189 7.54882 9.64663 7.35355C9.45137 7.15829 9.45137 6.84171 9.64663 6.64645L11.2935 4.99961H11C7.68629 4.99961 5 7.6859 5 10.9996C5 11.2758 4.77614 11.4996 4.5 11.4996C4.22386 11.4996 4 11.2758 4 10.9996C4 7.13362 7.13401 3.99961 11 3.99961H11.2927L9.64663 2.35355C9.45137 2.15829 9.45137 1.84171 9.64663 1.64645C9.84189 1.45118 10.1585 1.45118 10.3537 1.64645L12.845 4.13767C12.917 4.20634 12.9685 4.29628 12.9896 4.39742C12.9966 4.43091 13.0002 4.46527 13.0002 4.5C13.0002 4.63261 12.9475 4.75979 12.8537 4.85355L10.3537 7.35355Z" fill="black"/>
<path fill-rule="evenodd" clip-rule="evenodd" d="M17.4473 3.27639C17.3626 3.107 17.1895 3 17.0001 3C16.8107 3 16.6376 3.107 16.5529 3.27639L13.0529 10.2764C12.9294 10.5234 13.0295 10.8237 13.2765 10.9472C13.5235 11.0707 13.8238 10.9706 13.9473 10.7236L14.8091 9H19.1911L20.0529 10.7236C20.1764 10.9706 20.4767 11.0707 20.7237 10.9472C20.9707 10.8237 21.0708 10.5234 20.9473 10.2764L17.4473 3.27639ZM17.0001 4.61803L18.6911 8H15.3091L17.0001 4.61803Z" fill="black"/>
<path d="M8 12.5C8 12.2239 7.77614 12 7.5 12C7.22386 12 7 12.2239 7 12.5V13.0001H2.5C2.22386 13.0001 2 13.2239 2 13.5001C2 13.7762 2.22386 14.0001 2.5 14.0001L10.3652 14.0001C9.84635 15.8497 8.7563 17.2676 7.26793 18.3814C7.14636 18.2736 7.02626 18.1629 6.90835 18.0498C5.98878 17.1679 5.25828 16.1937 4.97434 15.3419C4.88702 15.0799 4.60386 14.9383 4.34189 15.0257C4.07991 15.113 3.93833 15.3961 4.02566 15.6581C4.38457 16.7349 5.249 17.844 6.21618 18.7715C6.28236 18.835 6.34929 18.8979 6.41685 18.9601C5.7675 19.362 5.05976 19.7192 4.30461 20.0398C4.05043 20.1477 3.93185 20.4412 4.03976 20.6954C4.14767 20.9496 4.4412 21.0682 4.69539 20.9602C5.58997 20.5805 6.43684 20.1445 7.21221 19.6385C7.91435 20.193 8.64057 20.6547 9.29088 20.9542C9.54172 21.0697 9.83868 20.9599 9.95417 20.7091C10.0697 20.4583 9.95995 20.1613 9.70912 20.0458C9.20795 19.8151 8.63592 19.463 8.06265 19.0316C9.66415 17.7797 10.8646 16.1534 11.3995 14.0001H12.5C12.7761 14.0001 13 13.7763 13 13.5001C13 13.224 12.7761 13.0001 12.5 13.0001L8 13.0001V12.5Z" fill="black"/>
<path d="M13.0918 18.9082C16.4055 18.9082 19.0918 16.2219 19.0918 12.9082C19.0918 12.6321 19.3157 12.4082 19.5918 12.4082C19.8679 12.4082 20.0918 12.6321 20.0918 12.9082C20.0918 16.7742 16.9578 19.9082 13.0918 19.9082H12.9303L14.3277 21.1221C14.5362 21.3032 14.5584 21.619 14.3773 21.8275C14.1962 22.036 13.8804 22.0582 13.6719 21.8771L11.2781 19.7976C11.1645 19.7059 11.0918 19.5656 11.0918 19.4082C11.0918 19.3317 11.109 19.2592 11.1397 19.1944C11.164 19.1429 11.1972 19.0954 11.2383 19.0543L13.6462 16.6461C13.8415 16.4508 14.1581 16.4508 14.3534 16.646C14.5486 16.8413 14.5486 17.1579 14.3534 17.3531L12.7985 18.9082H13.0918Z" fill="black"/>
</g>
</svg>
