<svg width="32" height="32" viewBox="0 0 32 32" fill="none" xmlns="http://www.w3.org/2000/svg">
<g opacity="0.9">
<path d="M19.0372 23.268C18.8419 23.0727 18.5254 23.0727 18.3301 23.268L15.3301 26.268C15.2363 26.3618 15.1837 26.4889 15.1837 26.6215C15.1837 26.7541 15.2363 26.8813 15.3301 26.9751L18.3301 29.9751C18.5254 30.1704 18.8419 30.1704 19.0372 29.9751C19.2325 29.7798 19.2325 29.4632 19.0372 29.268L16.8911 27.1219H18.3783C23.2415 27.1219 27.1838 23.1795 27.1838 18.3164C27.1838 18.0402 26.96 17.8164 26.6838 17.8164C26.4077 17.8164 26.1838 18.0402 26.1838 18.3164C26.1838 22.6273 22.6892 26.1219 18.3783 26.1219H16.8904L19.0372 23.9751C19.2325 23.7798 19.2325 23.4632 19.0372 23.268Z" fill="black"/>
<path d="M9.99976 17.4999C9.99976 17.2237 9.7759 16.9999 9.49976 16.9999C9.22361 16.9999 8.99976 17.2237 8.99976 17.4999V17.9999H3.49976C3.22361 17.9999 2.99976 18.2237 2.99976 18.4999C2.99976 18.776 3.22361 18.9999 3.49976 18.9999H12.8604C12.1854 21.445 10.8541 23.2411 9.03348 24.7072C8.96805 24.6516 8.90297 24.5953 8.83831 24.5382C7.54355 23.3951 6.44498 21.9881 5.98052 20.3625C5.90466 20.097 5.62791 19.9432 5.3624 20.0191C5.09688 20.095 4.94313 20.3717 5.01899 20.6372C5.55453 22.5116 6.79948 24.0721 8.17648 25.2878L8.21547 25.3221C7.32586 25.9479 6.34026 26.5151 5.2743 27.0536C5.02783 27.1781 4.92896 27.4788 5.05347 27.7253C5.17798 27.9718 5.47873 28.0707 5.72521 27.9461C6.90911 27.3481 8.0163 26.7053 9.01678 25.9779C10.1573 26.8505 11.3369 27.5149 12.2906 27.954C12.5415 28.0695 12.8384 27.9598 12.9539 27.709C13.0694 27.4581 12.9597 27.1612 12.7089 27.0457C11.8689 26.659 10.8414 26.0852 9.83571 25.3425C11.759 23.7467 13.1982 21.7475 13.8948 18.9999H15.4998C15.7759 18.9999 15.9998 18.776 15.9998 18.4999C15.9998 18.2237 15.7759 17.9999 15.4998 17.9999H9.99976V17.4999Z" fill="black"/>
<path fill-rule="evenodd" clip-rule="evenodd" d="M23.475 5.23719C23.3903 5.06779 23.2171 4.96079 23.0278 4.96079C22.8384 4.96079 22.6652 5.06779 22.5805 5.23719L18.1083 14.1816C17.9848 14.4286 18.0849 14.729 18.3319 14.8525C18.5789 14.9759 18.8792 14.8758 19.0027 14.6288L20.1423 12.3497H25.9132L27.0528 14.6288C27.1763 14.8758 27.4766 14.9759 27.7236 14.8525C27.9706 14.729 28.0707 14.4286 27.9472 14.1816L23.475 5.23719ZM25.4132 11.3497H20.6423L23.0278 6.57883L25.4132 11.3497Z" fill="black"/>
<path d="M14.1464 9.8538C14.3416 10.0491 14.6582 10.0491 14.8535 9.8538L17.8535 6.8538C17.9473 6.76003 17.9999 6.63285 17.9999 6.50024C17.9999 6.36764 17.9473 6.24046 17.8535 6.14669L14.8535 3.14669C14.6582 2.95143 14.3416 2.95143 14.1464 3.14669C13.9511 3.34195 13.9511 3.65853 14.1464 3.8538L16.2924 5.99986H14.8053C9.94214 5.99986 5.99976 9.94224 5.99976 14.8054C5.99976 15.0816 6.22361 15.3054 6.49976 15.3054C6.7759 15.3054 6.99976 15.0816 6.99976 14.8054C6.99976 10.4945 10.4944 6.99986 14.8053 6.99986H16.2932L14.1464 9.14669C13.9511 9.34195 13.9511 9.65853 14.1464 9.8538Z" fill="black"/>
</g>
</svg>
