<svg width="16" height="16" viewBox="0 0 16 16" fill="none" xmlns="http://www.w3.org/2000/svg">
<g opacity="0.9">
<path d="M6 4C6 4.55228 5.55228 5 5 5C4.44772 5 4 4.55228 4 4C4 3.44772 4.44772 3 5 3C5.55228 3 6 3.44772 6 4Z" fill="black"/>
<path fill-rule="evenodd" clip-rule="evenodd" d="M1 13C1 14.0379 1.79063 14.8912 2.80248 14.9904L2.79289 15H2.98618L3 15H13C14.1046 15 15 14.1046 15 13V3C15 1.89543 14.1046 1 13 1H3C1.89543 1 1 1.89543 1 3V13ZM3 2H13C13.5523 2 14 2.44772 14 3V7.79285L12 5.79285L3.79285 14H3C2.77667 14 2.57044 13.9268 2.404 13.8031L7.70711 8.49995L5.5 6.29285L2 9.79285V3C2 2.44772 2.44772 2 3 2Z" fill="black"/>
</g>
</svg>
