<svg width="16" height="16" viewBox="0 0 16 16" fill="none" xmlns="http://www.w3.org/2000/svg">
<g opacity="0.9">
<path d="M8.85069 7.18529C8.82932 7.64128 8.45339 8 7.99689 8C7.53975 8 7.16353 7.6403 7.14301 7.18362L7.04483 4.99802C7.0204 4.45422 7.45468 4 7.99902 4C8.5441 4 8.97865 4.4554 8.95313 4.99988L8.85069 7.18529Z" fill="black"/>
<path d="M9 10C9 10.5523 8.55228 11 8 11C7.44772 11 7 10.5523 7 10C7 9.44772 7.44772 9 8 9C8.55228 9 9 9.44772 9 10Z" fill="black"/>
<path fill-rule="evenodd" clip-rule="evenodd" d="M9.95562 2.54573C9.86861 2.11723 9.6581 1.76322 9.36343 1.50129C8.97942 1.15995 8.48154 1 8 1C7.51847 1 7.02059 1.15994 6.63657 1.50129C6.3419 1.76322 6.13139 2.11723 6.04438 2.54573C5.48535 2.65234 4.83981 2.94649 4.29052 3.44085C3.56508 4.09375 3.00002 5.10178 3.00002 6.5V10.1972C3.00002 10.4059 2.88042 10.5843 2.60706 10.9317L2.58244 10.963C2.35001 11.2576 2 11.7012 2 12.3028V12.5C2 12.7761 2.22386 13 2.5 13H5.55001C5.78164 14.1411 6.79052 15 8 15C9.20948 15 10.2184 14.1411 10.45 13H13.5C13.7762 13 14 12.7761 14 12.5V12.3028C14 11.7012 13.65 11.2576 13.4176 10.963L13.393 10.9317C13.1196 10.5843 13 10.4059 13 10.1972V6.5C13 5.10178 12.4349 4.09375 11.7095 3.44085C11.1602 2.94648 10.5147 2.65234 9.95562 2.54573ZM7.30093 2.2487C7.13165 2.39917 7 2.63567 7 2.99999C7 3.27613 6.77614 3.49999 6.5 3.49999C6.13621 3.49999 5.50256 3.69537 4.95949 4.18414C4.43495 4.65623 4.00002 5.39821 4.00002 6.5V10.1972C4.00002 10.7824 3.65422 11.2197 3.42558 11.5088L3.39296 11.5501C3.24737 11.7351 3.14416 11.8751 3.08016 12H12.9199C12.8559 11.8751 12.7527 11.7351 12.6071 11.5501L12.5744 11.5088C12.3458 11.2197 12 10.7824 12 10.1972V6.5C12 5.39821 11.5651 4.65624 11.0405 4.18414C10.4974 3.69537 9.86379 3.49999 9.5 3.49999C9.22386 3.49999 9 3.27613 9 2.99999C9 2.63568 8.86835 2.39918 8.69907 2.24871C8.52058 2.09005 8.26846 2 8 2C7.73153 2 7.47941 2.09005 7.30093 2.2487ZM8 14C7.34689 14 6.79127 13.5826 6.58535 13H9.41465C9.20873 13.5826 8.65311 14 8 14Z" fill="black"/>
</g>
</svg>
