<svg width="24" height="24" viewBox="0 0 24 24" fill="none" xmlns="http://www.w3.org/2000/svg">
<g opacity="0.9">
<path d="M12.838 12.1845C12.8238 12.639 12.4513 13 11.9966 13C11.5415 13 11.1689 12.6383 11.1552 12.1834L11.0299 7.9989C11.0135 7.45213 11.4523 7 11.9993 7C12.5469 7 12.9858 7.45291 12.9687 8.00016L12.838 12.1845Z" fill="black"/>
<path d="M13 15C13 15.5523 12.5523 16 12 16C11.4477 16 11 15.5523 11 15C11 14.4477 11.4477 14 12 14C12.5523 14 13 14.4477 13 15Z" fill="black"/>
<path fill-rule="evenodd" clip-rule="evenodd" d="M14.6485 4.21836C14.5527 3.57165 14.2561 3.04861 13.8322 2.67175C13.3203 2.21677 12.652 2 12 2C11.348 2 10.6797 2.21676 10.1678 2.67174C9.74384 3.04861 9.4473 3.57165 9.35151 4.21836C8.55326 4.33788 7.59034 4.75265 6.77683 5.49408C5.77875 6.40373 5 7.80909 5 9.77273V15.1505C5 15.5472 4.81637 15.9258 4.55418 16.4422L4.53916 16.4718C4.30089 16.9407 4 17.5329 4 18.2131V18.5C4 18.7761 4.22386 19 4.5 19H9C9 20.6569 10.3431 22 12 22C13.6569 22 15 20.6569 15 19H19.5C19.7761 19 20 18.7761 20 18.5V18.2131C20 17.5329 19.6991 16.9407 19.4608 16.4718L19.4458 16.4422C19.1836 15.9258 19 15.5472 19 15.1505V9.77273C19 7.80909 18.2212 6.40373 17.2232 5.49408C16.4096 4.75265 15.4467 4.33788 14.6485 4.21836ZM10.8322 3.41915C10.535 3.68326 10.3182 4.09021 10.3182 4.6818C10.3182 4.95795 10.0943 5.1818 9.81817 5.1818C9.22821 5.1818 8.26591 5.48995 7.45044 6.23317C6.65307 6.95989 6 8.09999 6 9.77273V15.1505C6 15.8056 5.7054 16.3847 5.47108 16.8453L5.44582 16.8949C5.23087 17.3183 5.06619 17.659 5.01593 18H18.9841C18.9338 17.659 18.7691 17.3183 18.5542 16.8949L18.5289 16.8453C18.2946 16.3847 18 15.8056 18 15.1505V9.77273C18 8.09999 17.3469 6.95989 16.5496 6.23317C15.7341 5.48995 14.7718 5.1818 14.1818 5.1818C13.9057 5.1818 13.6818 4.95795 13.6818 4.6818C13.6818 4.09022 13.4649 3.68327 13.1678 3.41916C12.8615 3.14687 12.4389 3 12 3C11.5611 3 11.1385 3.14687 10.8322 3.41915ZM12 21C10.8954 21 10 20.1046 10 19H14C14 20.1046 13.1046 21 12 21Z" fill="black"/>
</g>
</svg>
