<svg width="32" height="32" viewBox="0 0 32 32" fill="none" xmlns="http://www.w3.org/2000/svg">
<g opacity="0.9">
<path fill-rule="evenodd" clip-rule="evenodd" d="M18.2322 4.8172C18.7639 5.28988 19.1327 5.95431 19.2349 6.78538C20.1626 6.87028 21.2493 7.21585 22.1572 8.03287C23.2371 9.00471 24 10.5858 24 13V20.2573C24 20.4737 24.0793 20.7087 24.2431 20.9861C24.4089 21.267 24.6343 21.5484 24.8901 21.8674L24.8913 21.8689C25.1365 22.1748 25.4107 22.5167 25.62 22.8775C25.8318 23.2426 26 23.664 26 24.1366V24.5C26 24.7761 25.7761 25 25.5 25H6.5C6.22386 25 6 24.7761 6 24.5V24.1366C6 23.6641 6.16822 23.2426 6.38001 22.8775C6.58931 22.5167 6.86346 22.1748 7.10866 21.869L7.1099 21.8674C7.36569 21.5484 7.59111 21.267 7.75693 20.9861C7.92073 20.7087 8 20.4737 8 20.2573V13C8 10.5858 8.76289 9.00471 9.8428 8.03287C10.7507 7.21585 11.8374 6.87028 12.765 6.78538C12.8672 5.9543 13.236 5.28987 13.7678 4.8172C14.3888 4.26525 15.2025 4 16 4C16.7974 4 17.6112 4.26525 18.2322 4.8172ZM17.019 16.4362C17.0049 16.9357 16.5959 17.3333 16.0962 17.3333C15.5961 17.3333 15.1869 16.935 15.1734 16.4351L15.0277 11.0269C15.0125 10.4643 15.4645 10 16.0273 10H16.1715C16.7348 10 17.1869 10.465 17.1711 11.0281L17.019 16.4362ZM17.2 19.9C17.2 20.5075 16.7075 21 16.1 21C15.4925 21 15 20.5075 15 19.9C15 19.2925 15.4925 18.8 16.1 18.8C16.7075 18.8 17.2 19.2925 17.2 19.9Z" fill="black"/>
<path d="M12.8368 26C13.3985 27.1825 14.6038 28 16 28C17.3962 28 18.6015 27.1825 19.1632 26H12.8368Z" fill="black"/>
</g>
</svg>
