<svg width="16" height="16" viewBox="0 0 16 16" fill="none" xmlns="http://www.w3.org/2000/svg">
<path opacity="0.9" fill-rule="evenodd" clip-rule="evenodd" d="M2.46435 2C2.17697 2 1.98329 2.22602 2.00142 2.46049C2.10285 3.77288 2.41171 5.06315 2.91839 6.283C3.54825 7.79944 4.4715 9.17741 5.63548 10.3382C6.79946 11.499 8.18138 12.4198 9.70238 13.0481C10.9267 13.5538 12.2218 13.862 13.5392 13.963C13.774 13.981 14 13.787 14 13.4998V11.5197L14 11.5157L14 10.947C14 10.9168 13.9804 10.8902 13.9516 10.8813L11.458 10.108C11.2747 10.0512 11.0751 10.1043 10.9442 10.2446L10.9175 10.2733C10.4721 10.751 9.73805 10.9079 9.13665 10.5535C8.37587 10.1052 7.67289 9.56221 7.04519 8.93624C6.41877 8.31155 5.87519 7.61201 5.42606 6.85497C5.06829 6.2519 5.22638 5.51418 5.70727 5.06831L5.7313 5.04603C5.8726 4.91503 5.92604 4.71449 5.86869 4.53054L5.18913 2.35116C5.124 2.14227 4.93061 2 4.7118 2H2.46435ZM1.00439 2.53755C0.937393 1.67074 1.64717 1 2.46435 1H4.7118C5.36822 1 5.9484 1.42682 6.1438 2.05349L6.82335 4.23286C6.99543 4.78471 6.83509 5.38633 6.41119 5.77934L6.38717 5.80162C6.2179 5.95855 6.19151 6.18529 6.28611 6.34474C6.69249 7.02976 7.1844 7.66279 7.75132 8.22816C8.31941 8.79468 8.95569 9.28614 9.64436 9.69197C9.80363 9.78583 10.0294 9.75942 10.1861 9.59135L10.2128 9.56273C10.6053 9.14163 11.2043 8.98238 11.7542 9.15289L14.2478 9.92615C14.6951 10.0649 15 10.4786 15 10.947L15 11.5118L15 11.5157V13.4998C15 14.317 14.3293 15.0265 13.4628 14.9601C12.0406 14.8511 10.6424 14.5184 9.32059 13.9723C7.67847 13.294 6.18631 12.2998 4.92934 11.0463C3.67238 9.79276 2.67522 8.30455 1.99488 6.66659C1.4476 5.34898 1.11396 3.95524 1.00439 2.53755Z" fill="black"/>
</svg>
