<svg width="32" height="32" viewBox="0 0 32 32" fill="none" xmlns="http://www.w3.org/2000/svg">
<g opacity="0.9">
<path d="M14.6305 26.2111C14.9092 27.2329 16.1304 27.6519 16.9776 27.0164L17.8002 26.3995C19.1851 25.3608 20.0002 23.7307 20.0002 21.9995V21.4995C20.0002 21.2234 20.224 20.9995 20.5002 20.9995H23.7892C26.0174 20.9995 27.6784 18.9449 27.2115 16.7662L25.4972 8.76616C25.1514 7.15241 23.7253 5.99951 22.0749 5.99951H13.9907C13.5879 5.99951 13.191 6.09686 12.8339 6.28328L10.5374 7.48202C10.2072 7.65439 10.0002 7.99601 10.0002 8.36851V18.6823C10.0002 19.0976 10.2569 19.4698 10.6452 19.6172L10.9431 19.7303C12.2887 20.2411 13.3088 21.3647 13.6875 22.7533L14.6305 26.2111Z" fill="black"/>
<path d="M7.5 21C8.32843 21 9 20.3284 9 19.5V7.4998C9 6.67138 8.32843 5.9998 7.5 5.9998H5.5C4.67157 5.9998 4 6.67138 4 7.4998V19.5C4 20.3284 4.67157 21 5.5 21H7.5Z" fill="black"/>
</g>
</svg>
