<svg width="24" height="24" viewBox="0 0 24 24" fill="none" xmlns="http://www.w3.org/2000/svg">
<g opacity="0.9">
<path d="M6 17C6.55228 17 7 16.5523 7 16V6C7 5.44771 6.55228 5 6 5H4C3.44772 5 3 5.44772 3 6V16C3 16.5523 3.44772 17 4 17H6Z" fill="black"/>
<path d="M10.6929 20.4452C10.9429 21.3575 12.0167 21.7525 12.7983 21.2196L12.9084 21.1446C14.1754 20.2807 14.9335 18.8463 14.9335 17.3127C14.9335 17.1318 15.0802 16.9851 15.2611 16.9851H17.9671C19.5824 16.9851 20.7736 15.4764 20.3989 13.9052L18.7529 7.00311C18.4844 5.87737 17.4784 5.08306 16.3211 5.08306H11.5003C11.0634 5.08306 10.6341 5.19756 10.2552 5.41515L8.40176 6.47964C8.15335 6.6223 8.00018 6.8869 8.00018 7.17337V15.2994C8.00018 15.566 8.14109 15.8128 8.37071 15.9483C9.20493 16.4408 9.81462 17.2387 10.0705 18.173L10.6929 20.4452Z" fill="black"/>
</g>
</svg>
