<svg width="32" height="32" viewBox="0 0 32 32" fill="none" xmlns="http://www.w3.org/2000/svg">
<g opacity="0.9">
<path d="M9.63143 11.1621C9.44483 11.3657 9.45858 11.682 9.66214 11.8686L15.6621 17.3686C15.8533 17.5438 16.1467 17.5438 16.3379 17.3686L22.3379 11.8686C22.5414 11.682 22.5552 11.3657 22.3686 11.1621C22.182 10.9586 21.8657 10.9448 21.6621 11.1314L16 16.3217L10.3379 11.1314C10.1343 10.9448 9.81802 10.9586 9.63143 11.1621Z" fill="black"/>
<path d="M9.63143 16.1621C9.44483 16.3657 9.45858 16.682 9.66214 16.8686L15.6621 22.3686C15.8533 22.5438 16.1467 22.5438 16.3379 22.3686L22.3379 16.8686C22.5414 16.682 22.5552 16.3657 22.3686 16.1621C22.182 15.9586 21.8657 15.9448 21.6621 16.1314L16 21.3217L10.3379 16.1314C10.1343 15.9448 9.81802 15.9586 9.63143 16.1621Z" fill="black"/>
<path fill-rule="evenodd" clip-rule="evenodd" d="M4 16C4 9.37258 9.37258 4 16 4C22.6274 4 28 9.37259 28 16C28 22.6274 22.6274 28 16 28C9.37258 28 4 22.6274 4 16ZM16 5C9.92487 5 5 9.92487 5 16C5 22.0751 9.92486 27 16 27C22.0751 27 27 22.0751 27 16C27 9.92487 22.0751 5 16 5Z" fill="black"/>
</g>
</svg>
