<svg width="16" height="16" viewBox="0 0 16 16" fill="none" xmlns="http://www.w3.org/2000/svg">
<g opacity="0.9">
<path fill-rule="evenodd" clip-rule="evenodd" d="M11.3841 8.17991C11.5609 8.39205 11.5322 8.70733 11.3201 8.88411L8.32009 11.3841C8.13467 11.5386 7.86533 11.5386 7.67991 11.3841L4.67991 8.88411C4.46777 8.70733 4.43911 8.39205 4.61589 8.17991C4.79267 7.96777 5.10795 7.93911 5.32009 8.11589L8 10.3491L10.6799 8.11589C10.892 7.93911 11.2073 7.96777 11.3841 8.17991Z" fill="black"/>
<path fill-rule="evenodd" clip-rule="evenodd" d="M11.3841 5.17991C11.5609 5.39205 11.5322 5.70733 11.3201 5.88411L8.32009 8.38411C8.13467 8.53863 7.86533 8.53863 7.67991 8.38411L4.67991 5.88411C4.46777 5.70733 4.43911 5.39205 4.61589 5.17991C4.79267 4.96777 5.10795 4.93911 5.32009 5.11589L8 7.34915L10.6799 5.11589C10.892 4.93911 11.2073 4.96777 11.3841 5.17991Z" fill="black"/>
<path fill-rule="evenodd" clip-rule="evenodd" d="M14 8C14 4.68629 11.3137 2 8 2C4.68629 2 2 4.68629 2 8C2 11.3137 4.68629 14 8 14C11.3137 14 14 11.3137 14 8ZM8 1C11.866 1 15 4.13401 15 8C15 11.866 11.866 15 8 15C4.13401 15 1 11.866 1 8C1 4.13401 4.13401 1 8 1Z" fill="black"/>
</g>
</svg>
