<svg width="33" height="32" viewBox="0 0 33 32" fill="none" xmlns="http://www.w3.org/2000/svg">
<g opacity="0.9">
<path d="M9.1816 9.14645C9.37686 8.95119 9.69345 8.95119 9.88871 9.14645L22.8887 22.1464C23.084 22.3417 23.084 22.6583 22.8887 22.8536C22.6934 23.0488 22.3769 23.0488 22.1816 22.8536L9.1816 9.85355C8.98634 9.65829 8.98634 9.34171 9.1816 9.14645Z" fill="black"/>
<path fill-rule="evenodd" clip-rule="evenodd" d="M14.7358 12.0949C15.1613 12.0335 15.5951 12 16.0352 12C18.5206 12 20.7987 13.0689 22.4789 14.1684C23.3147 14.7154 23.9916 15.2627 24.4588 15.6727C24.5989 15.7956 24.7198 15.906 24.8203 16C24.6582 16.1517 24.4428 16.3459 24.1801 16.5666C23.5365 17.1073 22.6137 17.8033 21.4957 18.4275C21.2546 18.5621 21.1683 18.8667 21.3029 19.1078C21.4375 19.3489 21.7421 19.4353 21.9832 19.3006C23.1702 18.6379 24.1452 17.9019 24.8233 17.3323C25.1628 17.047 25.4291 16.8025 25.6117 16.628C25.703 16.5408 25.7734 16.471 25.8216 16.4224C25.8457 16.3981 25.8643 16.379 25.8772 16.3657L25.8922 16.3501L25.8965 16.3456L25.8984 16.3436C26.0806 16.1509 26.0801 15.8486 25.8979 15.6559L25.8969 15.6549L25.8937 15.6515L25.8828 15.6401L25.8667 15.6234L25.8425 15.5988C25.8076 15.5633 25.7567 15.5124 25.6907 15.4482C25.5587 15.3198 25.3658 15.1382 25.1184 14.9211C24.6241 14.4873 23.9098 13.9096 23.0265 13.3316C21.2683 12.1811 18.7964 11 16.0352 11C15.5443 11 15.0627 11.0374 14.5931 11.1051C14.3198 11.1445 14.1301 11.398 14.1696 11.6714C14.209 11.9447 14.4625 12.1343 14.7358 12.0949ZM25.8979 15.6559L25.5352 16C25.8985 15.6565 25.8979 15.6559 25.8979 15.6559ZM25.5352 16L25.8984 16.3436C25.8984 16.3436 25.8985 16.3435 25.5352 16Z" fill="black"/>
<path fill-rule="evenodd" clip-rule="evenodd" d="M10.1343 13.8277C10.371 13.6854 10.4475 13.3783 10.3053 13.1416C10.1631 12.9049 9.85587 12.8283 9.61918 12.9706C8.56736 13.6027 7.70931 14.2706 7.11389 14.7806C6.81583 15.0359 6.58264 15.2525 6.42292 15.4062C6.34304 15.4832 6.28146 15.5445 6.23926 15.5872C6.21816 15.6085 6.20189 15.6252 6.1906 15.6369L6.17741 15.6506L6.17365 15.6546L6.17191 15.6564C5.98974 15.8491 5.99022 16.1514 6.17239 16.3441L6.17339 16.3452L6.17656 16.3485L6.18754 16.3599C6.19691 16.3696 6.21037 16.3835 6.22781 16.4012C6.26271 16.4367 6.31357 16.4876 6.3796 16.5518C6.51163 16.6802 6.70453 16.8618 6.95191 17.0789C7.4462 17.5127 8.16055 18.0904 9.04385 18.6684C10.802 19.8189 13.2739 21 16.0352 21C16.6774 21 17.3037 20.9361 17.9082 20.8238C18.1797 20.7734 18.359 20.5124 18.3085 20.2409C18.2581 19.9694 17.9971 19.7902 17.7256 19.8406C17.1759 19.9427 16.6109 20 16.0352 20C13.5497 20 11.2716 18.9311 9.59142 17.8316C8.75556 17.2846 8.07867 16.7373 7.61151 16.3273C7.47146 16.2044 7.35048 16.094 7.24996 16C7.38544 15.8732 7.55805 15.7169 7.76441 15.5401C8.32859 15.0569 9.14132 14.4244 10.1343 13.8277ZM6.17239 16.3441L6.53515 16C6.17178 16.3435 6.17239 16.3441 6.17239 16.3441ZM6.53515 16L6.17191 15.6564C6.17191 15.6564 6.17178 15.6565 6.53515 16Z" fill="black"/>
<path d="M16.0352 13C15.759 13 15.5352 13.2239 15.5352 13.5C15.5352 13.7761 15.759 14 16.0352 14C17.1397 14 18.0352 14.8954 18.0352 16C18.0352 16.2761 18.259 16.5 18.5352 16.5C18.8113 16.5 19.0352 16.2761 19.0352 16C19.0352 14.3431 17.692 13 16.0352 13Z" fill="black"/>
<path d="M14.0352 16C14.0352 15.7239 13.8113 15.5 13.5352 15.5C13.259 15.5 13.0352 15.7239 13.0352 16C13.0352 17.6569 14.3783 19 16.0352 19C16.3113 19 16.5352 18.7761 16.5352 18.5C16.5352 18.2239 16.3113 18 16.0352 18C14.9306 18 14.0352 17.1046 14.0352 16Z" fill="black"/>
<path fill-rule="evenodd" clip-rule="evenodd" d="M16.0352 4C9.40774 4 4.03516 9.37258 4.03516 16C4.03516 22.6274 9.40774 28 16.0352 28C22.6626 28 28.0352 22.6274 28.0352 16C28.0352 9.37258 22.6626 4 16.0352 4ZM5.03516 16C5.03516 9.92487 9.96002 5 16.0352 5C22.1103 5 27.0352 9.92487 27.0352 16C27.0352 22.0751 22.1103 27 16.0352 27C9.96002 27 5.03516 22.0751 5.03516 16Z" fill="black"/>
</g>
</svg>
