<svg width="16" height="16" viewBox="0 0 16 16" fill="none" xmlns="http://www.w3.org/2000/svg">
<g opacity="0.9">
<path fill-rule="evenodd" clip-rule="evenodd" d="M9.36343 1.50129C9.6581 1.76322 9.86861 2.11723 9.95562 2.54573C10.5147 2.65234 11.1602 2.94648 11.7095 3.44085C12.4349 4.09375 13 5.10178 13 6.5V10.1972C13 10.4059 13.1196 10.5843 13.393 10.9317L13.4176 10.963C13.65 11.2576 14 11.7012 14 12.3028V12.5C14 12.7761 13.7762 13 13.5 13H2.5C2.22386 13 2 12.7761 2 12.5V12.3028C2 11.7012 2.35001 11.2576 2.58244 10.963L2.60706 10.9317C2.88042 10.5843 3.00002 10.4059 3.00002 10.1972V6.5C3.00002 5.10178 3.56508 4.09375 4.29052 3.44085C4.83981 2.94649 5.48535 2.65234 6.04438 2.54573C6.13139 2.11723 6.3419 1.76322 6.63657 1.50129C7.02059 1.15994 7.51847 1 8 1C8.48154 1 8.97942 1.15995 9.36343 1.50129ZM11.3536 6.35355C11.5488 6.15829 11.5488 5.84171 11.3536 5.64645C11.1583 5.45118 10.8417 5.45118 10.6464 5.64645L7 9.29289L5.35355 7.64645C5.15829 7.45118 4.84171 7.45118 4.64645 7.64645C4.45118 7.84171 4.45118 8.15829 4.64645 8.35355L7 10.7071L11.3536 6.35355Z" fill="black"/>
<path d="M5.62761 13.9868C6.04891 14.8737 6.95285 15.4868 8 15.4868C9.04715 15.4868 9.95109 14.8737 10.3724 13.9868H5.62761Z" fill="black"/>
</g>
</svg>
