<svg width="32" height="32" viewBox="0 0 32 32" fill="none" xmlns="http://www.w3.org/2000/svg">
<g opacity="0.9">
<path d="M13.2939 19.993C13.6847 20.3839 14.319 20.3839 14.7098 19.9931L21.3558 13.3472C21.5511 13.1519 21.5509 12.8355 21.3554 12.6405C21.1599 12.4455 20.8431 12.4457 20.6479 12.6409L14.0019 19.2868L11.3559 16.6407C11.1606 16.4455 10.8438 16.4453 10.6483 16.6403C10.4528 16.8353 10.4526 17.1517 10.6479 17.347L13.2939 19.993Z" fill="black"/>
<path fill-rule="evenodd" clip-rule="evenodd" d="M19.2349 6.78538C19.1327 5.95431 18.7639 5.28988 18.2322 4.8172C17.6112 4.26525 16.7974 4 16 4C15.2025 4 14.3888 4.26525 13.7678 4.8172C13.236 5.28987 12.8672 5.9543 12.765 6.78538C11.8374 6.87028 10.7507 7.21585 9.8428 8.03287C8.76289 9.00471 8 10.5858 8 13V20.2573C8 20.4737 7.92073 20.7087 7.75693 20.9861C7.59111 21.267 7.36569 21.5484 7.1099 21.8674L7.10866 21.869C6.86346 22.1748 6.58931 22.5167 6.38001 22.8775C6.16822 23.2426 6 23.6641 6 24.1366V24.5C6 24.7761 6.22386 25 6.5 25H12.5354C12.7781 26.6961 14.2368 28 16 28C17.7632 28 19.2219 26.6961 19.4646 25H25.5C25.7761 25 26 24.7761 26 24.5V24.1366C26 23.664 25.8318 23.2426 25.62 22.8775C25.4107 22.5167 25.1365 22.1748 24.8913 21.8689L24.8901 21.8674C24.6343 21.5484 24.4089 21.267 24.2431 20.9861C24.0793 20.7087 24 20.4737 24 20.2573V13C24 10.5858 23.2371 9.00471 22.1572 8.03287C21.2493 7.21585 20.1626 6.87028 19.2349 6.78538ZM14.4322 5.56461C14.026 5.92568 13.7364 6.47809 13.7364 7.26362C13.7364 7.53976 13.5125 7.76362 13.2364 7.76362C12.4065 7.76362 11.3523 8.01974 10.5117 8.77619C9.68408 9.52102 9 10.8081 9 13V20.2573C9 20.7221 8.82927 21.1367 8.61807 21.4945C8.41515 21.8382 8.1507 22.168 7.91213 22.4655L7.8901 22.4929C7.63562 22.8104 7.41034 23.0943 7.24499 23.3793C7.11355 23.6059 7.03492 23.8089 7.00929 24H24.9907C24.9651 23.8089 24.8865 23.6059 24.755 23.3793C24.5897 23.0943 24.3644 22.8104 24.1099 22.4929L24.0879 22.4656C23.8494 22.1681 23.5849 21.8383 23.3819 21.4945C23.1707 21.1367 23 20.7221 23 20.2573V13C23 10.8081 22.3159 9.52102 21.4883 8.77619C20.6477 8.01974 19.5935 7.76362 18.7636 7.76362C18.4875 7.76362 18.2636 7.53976 18.2636 7.26362C18.2636 6.4781 17.974 5.92569 17.5678 5.56461C17.1524 5.19536 16.5844 5 16 5C15.4156 5 14.8476 5.19535 14.4322 5.56461ZM16 27C14.7905 27 13.7816 26.1411 13.55 25H18.45C18.2184 26.1411 17.2095 27 16 27Z" fill="black"/>
</g>
</svg>
