<svg width="24" height="24" viewBox="0 0 24 24" fill="none" xmlns="http://www.w3.org/2000/svg">
<g opacity="0.9">
<path fill-rule="evenodd" clip-rule="evenodd" d="M13.8322 2.67175C14.2561 3.04861 14.5527 3.57165 14.6485 4.21836C15.4467 4.33788 16.4096 4.75265 17.2232 5.49408C18.2212 6.40373 19 7.80909 19 9.77273V15.1505C19 15.5472 19.1836 15.9258 19.4458 16.4422L19.4608 16.4718C19.6991 16.9407 20 17.5329 20 18.2131V18.5C20 18.7761 19.7761 19 19.5 19H4.5C4.22386 19 4 18.7761 4 18.5V18.2131C4 17.5329 4.30089 16.9407 4.53916 16.4718L4.55418 16.4422C4.81637 15.9258 5 15.5472 5 15.1505V9.77273C5 7.80909 5.77875 6.40373 6.77683 5.49408C7.59034 4.75265 8.55326 4.33788 9.35151 4.21836C9.4473 3.57165 9.74384 3.04861 10.1678 2.67174C10.6797 2.21676 11.348 2 12 2C12.652 2 13.3203 2.21677 13.8322 2.67175ZM16.3536 9.85355C16.5488 9.65829 16.5488 9.34171 16.3536 9.14645C16.1583 8.95118 15.8417 8.95118 15.6464 9.14645L10.5 14.2929L8.35355 12.1464C8.15829 11.9512 7.84171 11.9512 7.64645 12.1464C7.45118 12.3417 7.45118 12.6583 7.64645 12.8536L9.79289 15C10.1834 15.3905 10.8166 15.3905 11.2071 15L16.3536 9.85355Z" fill="black"/>
<path d="M9.62761 20C10.0489 20.8869 10.9528 21.5 12 21.5C13.0471 21.5 13.9511 20.8869 14.3724 20H9.62761Z" fill="black"/>
</g>
</svg>
