<svg width="16" height="16" viewBox="0 0 16 16" fill="none" xmlns="http://www.w3.org/2000/svg">
<path opacity="0.9" fill-rule="evenodd" clip-rule="evenodd" d="M15 6.14889V4.5C15 3.67157 14.3284 3 13.5 3H7C7 2.44772 6.55228 2 6 2H2.5C1.67157 2 1 2.67157 1 3.5V12.5C1 13.3284 1.67157 14 2.5 14H13.6327C14.3792 14 15.0121 13.4511 15.1176 12.7121L15.8319 7.71213C15.9277 7.04138 15.5661 6.42305 15 6.14889ZM2.5 3C2.22386 3 2 3.22386 2 3.5V6.88259C2.23729 6.35691 2.76536 6 3.36729 6H14V4.5C14 4.22386 13.7761 4 13.5 4H7C6.44772 4 6 3.55228 6 3H2.5Z" fill="black"/>
</svg>
