<svg width="32" height="32" viewBox="0 0 32 32" fill="none" xmlns="http://www.w3.org/2000/svg">
<path opacity="0.9" fill-rule="evenodd" clip-rule="evenodd" d="M28 13V10C28 8.89543 27.1046 8 26 8H14.5C14.2239 8 14 7.77614 14 7.5C14 6.67157 13.3284 6 12.5 6H5C3.89543 6 3 6.89543 3 8V24C3 25.1046 3.89543 26 5 26H26.3288C27.2466 26 28.0465 25.3754 28.2691 24.4851L30.5191 15.4851C30.8347 14.2228 29.88 13 28.5788 13H28ZM5 7C4.44772 7 4 7.44772 4 8V21.4385L5.73088 14.5149C5.95347 13.6246 6.75343 13 7.67117 13H27V10C27 9.44772 26.5523 9 26 9H14.5C13.6716 9 13 8.32843 13 7.5C13 7.22386 12.7761 7 12.5 7H5Z" fill="black"/>
</svg>
