<svg width="24" height="24" viewBox="0 0 24 24" fill="none" xmlns="http://www.w3.org/2000/svg">
<path opacity="0.9" fill-rule="evenodd" clip-rule="evenodd" d="M22 9V6.5C22 5.67157 21.3284 5 20.5 5H10.5C10.2239 5 10 4.77614 10 4.5C10 3.67157 9.32843 3 8.5 3H2.5C1.67157 3 1 3.67157 1 4.5V18.5C1 19.3284 1.67157 20 2.5 20H20.6802C21.3952 20 22.0108 19.4953 22.1511 18.7942L23.7511 10.7942C23.9367 9.86599 23.2268 9 22.2802 9H22ZM2.5 4C2.22386 4 2 4.22386 2 4.5V14.4505L2.84893 10.2058C2.98916 9.50469 3.60478 9 4.3198 9H21V6.5C21 6.22386 20.7761 6 20.5 6H10.5C9.67157 6 9 5.32843 9 4.5C9 4.22386 8.77614 4 8.5 4H2.5Z" fill="black"/>
</svg>
