<svg width="16" height="16" viewBox="0 0 16 16" fill="none" xmlns="http://www.w3.org/2000/svg">
<path opacity="0.9" fill-rule="evenodd" clip-rule="evenodd" d="M2.5 14C1.67157 14 1 13.3284 1 12.5V3.5C1 2.67157 1.67157 2 2.5 2H6C6.55228 2 7 2.44772 7 3H13.5C14.3284 3 15 3.67157 15 4.5V6.14889C15.5661 6.42304 15.9277 7.04137 15.8319 7.71213L15.1176 12.7121C15.0121 13.4511 14.3792 14 13.6327 14H2.5ZM2 3.5C2 3.22386 2.22386 3 2.5 3H6C6 3.55228 6.44772 4 7 4H13.5C13.7761 4 14 4.22386 14 4.5V6H3.36731C2.76536 6 2.23728 6.35692 2 6.88262V3.5ZM2.65302 13H13.6327C13.8815 13 14.0925 12.817 14.1277 12.5707L14.842 7.57071C14.885 7.26949 14.6513 7 14.347 7H3.36731C3.11848 7 2.90752 7.18296 2.87233 7.42929L2.15805 12.4293C2.11502 12.7305 2.34875 13 2.65302 13Z" fill="black"/>
</svg>
