<svg width="32" height="32" viewBox="0 0 32 32" fill="none" xmlns="http://www.w3.org/2000/svg">
<g opacity="0.9">
<path fill-rule="evenodd" clip-rule="evenodd" d="M24 13H8C6.89543 13 6 13.8954 6 15V26C6 26.5523 6.44772 27 7 27H25C25.5523 27 26 26.5523 26 26V15C26 13.8954 25.1046 13 24 13ZM8 12C6.34315 12 5 13.3431 5 15V26C5 27.1046 5.89543 28 7 28H25C26.1046 28 27 27.1046 27 26V15C27 13.3431 25.6569 12 24 12H8Z" fill="black"/>
<path fill-rule="evenodd" clip-rule="evenodd" d="M14.208 23.9928C13.8171 24.3837 13.1829 24.3837 12.792 23.9928L10.146 21.3468C9.95075 21.1515 9.95095 20.8351 10.1465 20.6401C10.342 20.4451 10.6587 20.4453 10.854 20.6405L13.5 23.2866L20.146 16.6407C20.3413 16.4454 20.658 16.4453 20.8535 16.6403C21.049 16.8353 21.0492 17.1517 20.854 17.347L14.208 23.9928Z" fill="black"/>
<path fill-rule="evenodd" clip-rule="evenodd" d="M9 6.5C9 4.01472 11.0147 2 13.5 2H18.5C20.9853 2 23 4.01472 23 6.5V7C23 7.27614 22.7761 7.5 22.5 7.5C22.2239 7.5 22 7.27614 22 7V6.5C22 4.567 20.433 3 18.5 3H13.5C11.567 3 10 4.567 10 6.5V12C10 12.2761 9.77614 12.5 9.5 12.5C9.22386 12.5 9 12.2761 9 12V6.5Z" fill="black"/>
</g>
</svg>
