<svg width="24" height="24" viewBox="0 0 24 24" fill="none" xmlns="http://www.w3.org/2000/svg">
<path opacity="0.9" d="M6.5 3C6.5 2.17157 7.17157 1.5 8 1.5H16C16.8284 1.5 17.5 2.17157 17.5 3V21C17.5 21.8284 16.8284 22.5 16 22.5H13.5C14.0523 22.5 14.5 22.0523 14.5 21.5C14.5 20.9477 14.0523 20.5 13.5 20.5H12.5C13.0523 20.5 13.5 20.0523 13.5 19.5C13.5 20.0523 13.9477 20.5 14.5 20.5H15.5C16.0523 20.5 16.5 20.0523 16.5 19.5V18.5C16.5 17.9477 16.0523 17.5 15.5 17.5H14.5C13.9477 17.5 13.5 17.9477 13.5 18.5C13.5 17.9477 13.0523 17.5 12.5 17.5H11.5C10.9477 17.5 10.5 17.9477 10.5 18.5C10.5 17.9477 10.0523 17.5 9.5 17.5H8.5C7.94772 17.5 7.5 17.9477 7.5 18.5V19.5C7.5 20.0523 7.94772 20.5 8.5 20.5H9.5C10.0523 20.5 10.5 20.0523 10.5 19.5C10.5 20.0523 10.9477 20.5 11.5 20.5H10.5C9.94771 20.5 9.5 20.9477 9.5 21.5C9.5 22.0523 9.94771 22.5 10.5 22.5H8C7.17157 22.5 6.5 21.8284 6.5 21V3ZM8.5 3.5C7.94772 3.5 7.5 3.94772 7.5 4.5V5.5C7.5 6.05229 7.94772 6.5 8.5 6.5C7.94772 6.5 7.5 6.94771 7.5 7.5V8.5C7.5 9.05229 7.94772 9.5 8.5 9.5H9.5C10.0523 9.5 10.5 9.05229 10.5 8.5C10.5 9.05229 10.9477 9.5 11.5 9.5H12.5C13.0523 9.5 13.5 9.05229 13.5 8.5V7.5C13.5 6.94771 13.0523 6.5 12.5 6.5C13.0523 6.5 13.5 6.05229 13.5 5.5C13.5 6.05229 13.9477 6.5 14.5 6.5H15.5C16.0523 6.5 16.5 6.05229 16.5 5.5V4.5C16.5 3.94772 16.0523 3.5 15.5 3.5H14.5C13.9477 3.5 13.5 3.94772 13.5 4.5C13.5 3.94772 13.0523 3.5 12.5 3.5H11.5C10.9477 3.5 10.5 3.94772 10.5 4.5C10.5 3.94772 10.0523 3.5 9.5 3.5H8.5ZM9.5 6.5C10.0523 6.5 10.5 6.05229 10.5 5.5C10.5 6.05229 10.9477 6.5 11.5 6.5C10.9477 6.5 10.5 6.94771 10.5 7.5C10.5 6.94771 10.0523 6.5 9.5 6.5Z" fill="black" stroke="black"/>
</svg>
