<svg width="32" height="32" viewBox="0 0 32 32" fill="none" xmlns="http://www.w3.org/2000/svg">
<path opacity="0.9" d="M27.5 11.5C27.5 15.366 24.366 18.5 20.5 18.5C16.634 18.5 13.5 15.366 13.5 11.5C13.5 7.63401 16.634 4.5 20.5 4.5C24.366 4.5 27.5 7.63401 27.5 11.5ZM11.5 19.5C11.5 21.7091 9.70914 23.5 7.5 23.5C5.29086 23.5 3.5 21.7091 3.5 19.5C3.5 17.2909 5.29086 15.5 7.5 15.5C9.70914 15.5 11.5 17.2909 11.5 19.5ZM20.5 25C20.5 26.3807 19.3807 27.5 18 27.5C16.6193 27.5 15.5 26.3807 15.5 25C15.5 23.6193 16.6193 22.5 18 22.5C19.3807 22.5 20.5 23.6193 20.5 25Z" fill="black" stroke="black"/>
</svg>
