<svg width="32" height="32" viewBox="0 0 32 32" fill="none" xmlns="http://www.w3.org/2000/svg">
<g opacity="0.9">
<path fill-rule="evenodd" clip-rule="evenodd" d="M28 11.5C28 15.6421 24.6421 19 20.5 19C16.3579 19 13 15.6421 13 11.5C13 7.35786 16.3579 4 20.5 4C24.6421 4 28 7.35786 28 11.5ZM27 11.5C27 15.0899 24.0899 18 20.5 18C16.9101 18 14 15.0899 14 11.5C14 7.91015 16.9101 5 20.5 5C24.0899 5 27 7.91015 27 11.5Z" fill="black"/>
<path fill-rule="evenodd" clip-rule="evenodd" d="M7.5 24C9.98528 24 12 21.9853 12 19.5C12 17.0147 9.98528 15 7.5 15C5.01472 15 3 17.0147 3 19.5C3 21.9853 5.01472 24 7.5 24ZM7.5 23C9.433 23 11 21.433 11 19.5C11 17.567 9.433 16 7.5 16C5.567 16 4 17.567 4 19.5C4 21.433 5.567 23 7.5 23Z" fill="black"/>
<path fill-rule="evenodd" clip-rule="evenodd" d="M18 28C19.6569 28 21 26.6569 21 25C21 23.3431 19.6569 22 18 22C16.3431 22 15 23.3431 15 25C15 26.6569 16.3431 28 18 28ZM18 27C19.1046 27 20 26.1046 20 25C20 23.8954 19.1046 23 18 23C16.8954 23 16 23.8954 16 25C16 26.1046 16.8954 27 18 27Z" fill="black"/>
</g>
</svg>
