<svg width="16" height="16" viewBox="0 0 16 16" fill="none" xmlns="http://www.w3.org/2000/svg">
<g opacity="0.9">
<path fill-rule="evenodd" clip-rule="evenodd" d="M15 5.5C15 7.98528 12.9853 10 10.5 10C8.01472 10 6 7.98528 6 5.5C6 3.01472 8.01472 1 10.5 1C12.9853 1 15 3.01472 15 5.5ZM14 5.5C14 7.433 12.433 9 10.5 9C8.567 9 7 7.433 7 5.5C7 3.567 8.567 2 10.5 2C12.433 2 14 3.567 14 5.5Z" fill="black"/>
<path fill-rule="evenodd" clip-rule="evenodd" d="M3 13C4.65685 13 6 11.6569 6 10C6 8.34315 4.65685 7 3 7C1.34315 7 0 8.34315 0 10C0 11.6569 1.34315 13 3 13ZM3 12C4.10457 12 5 11.1046 5 10C5 8.89543 4.10457 8 3 8C1.89543 8 1 8.89543 1 10C1 11.1046 1.89543 12 3 12Z" fill="black"/>
<path fill-rule="evenodd" clip-rule="evenodd" d="M9 15C10.1046 15 11 14.1046 11 13C11 11.8954 10.1046 11 9 11C7.89543 11 7 11.8954 7 13C7 14.1046 7.89543 15 9 15ZM9 14C9.55228 14 10 13.5523 10 13C10 12.4477 9.55228 12 9 12C8.44772 12 8 12.4477 8 13C8 13.5523 8.44772 14 9 14Z" fill="black"/>
</g>
</svg>
