<svg width="24" height="24" viewBox="0 0 24 24" fill="none" xmlns="http://www.w3.org/2000/svg">
<path opacity="0.9" d="M21.5 8C21.5 11.0376 19.0376 13.5 16 13.5C12.9624 13.5 10.5 11.0376 10.5 8C10.5 4.96243 12.9624 2.5 16 2.5C19.0376 2.5 21.5 4.96243 21.5 8ZM8.5 15C8.5 16.933 6.933 18.5 5 18.5C3.067 18.5 1.5 16.933 1.5 15C1.5 13.067 3.067 11.5 5 11.5C6.933 11.5 8.5 13.067 8.5 15ZM16.5 19C16.5 20.3807 15.3807 21.5 14 21.5C12.6193 21.5 11.5 20.3807 11.5 19C11.5 17.6193 12.6193 16.5 14 16.5C15.3807 16.5 16.5 17.6193 16.5 19Z" fill="black" stroke="black"/>
</svg>
