<svg width="32" height="32" viewBox="0 0 32 32" fill="none" xmlns="http://www.w3.org/2000/svg">
<g opacity="0.9">
<path d="M5.60128 12.5261C8.24944 10.5336 10.1 9.98443 11.5044 10.0003C12.9284 10.0165 14.0696 10.6054 15.3965 11.3286L15.5349 11.4041C16.777 12.0826 18.2345 12.8786 20.0347 12.9006C21.9403 12.9238 24.0396 12.0945 26.6377 9.94427C27.0631 9.59213 27.1226 8.96176 26.7704 8.5363C26.4183 8.11084 25.7879 8.0514 25.3625 8.40354C22.9605 10.3916 21.3098 10.916 20.0591 10.9007C18.7704 10.885 17.7065 10.3099 16.3537 9.57251C15.0555 8.8649 13.5092 8.02292 11.527 8.00047C9.52512 7.97778 7.25067 8.78224 4.39883 10.928C3.95751 11.26 3.86893 11.887 4.20098 12.3283C4.53303 12.7696 5.15997 12.8582 5.60128 12.5261Z" fill="black"/>
<path d="M5.60128 23.5261C8.24944 21.5336 10.1 20.9844 11.5044 21.0003C12.9284 21.0165 14.0696 21.6054 15.3965 22.3286L15.5349 22.4041C16.777 23.0826 18.2345 23.8786 20.0347 23.9006C21.9403 23.9238 24.0396 23.0945 26.6377 20.9443C27.0631 20.5921 27.1226 19.9618 26.7704 19.5363C26.4183 19.1108 25.7879 19.0514 25.3625 19.4035C22.9605 21.3916 21.3098 21.916 20.0591 21.9007C18.7704 21.885 17.7065 21.3099 16.3537 20.5725C15.0555 19.8649 13.5092 19.0229 11.527 19.0005C9.52512 18.9778 7.25067 19.7822 4.39883 21.928C3.95751 22.26 3.86893 22.887 4.20098 23.3283C4.53303 23.7696 5.15997 23.8582 5.60128 23.5261Z" fill="black"/>
</g>
</svg>
