<svg width="32" height="32" viewBox="0 0 32 32" fill="none" xmlns="http://www.w3.org/2000/svg">
<path opacity="0.9" fill-rule="evenodd" clip-rule="evenodd" d="M12 4.5C12 4.22386 11.7761 4 11.5 4C11.2239 4 11 4.22386 11 4.5L11 9H9.5C8.67157 9 8 9.67157 8 10.5V14.5C8 18.1284 10.5766 21.1551 14 21.85L14 26.5C14 27.3284 14.6716 28 15.5 28H16.5C17.3284 28 18 27.3284 18 26.5V21.85C21.4234 21.1551 24 18.1284 24 14.5V10.5C24 9.67157 23.3284 9 22.5 9H21V4.5C21 4.22386 20.7761 4 20.5 4C20.2239 4 20 4.22386 20 4.5V9H12L12 4.5ZM16.5 21C20.0899 21 23 18.0899 23 14.5V10.5C23 10.2239 22.7761 10 22.5 10H9.5C9.22386 10 9 10.2239 9 10.5V14.5C9 18.0899 11.9101 21 15.5 21H16.5ZM15 22V26.5C15 26.7761 15.2239 27 15.5 27H16.5C16.7761 27 17 26.7761 17 26.5V22H15Z" fill="black"/>
</svg>
