<svg width="16" height="16" viewBox="0 0 16 16" fill="none" xmlns="http://www.w3.org/2000/svg">
<path fill-rule="evenodd" clip-rule="evenodd" d="M6 0.5C6 0.223858 5.77614 0 5.5 0C5.22386 0 5 0.223858 5 0.5L5 3H3C2.44771 3 2 3.44772 2 4V8C2 10.7614 4.23858 13 7 13L7 15C7 15.5523 7.44772 16 8 16C8.55228 16 9 15.5523 9 15V13C11.7614 13 14 10.7614 14 8V4C14 3.44772 13.5523 3 13 3H11V0.5C11 0.223858 10.7761 0 10.5 0C10.2239 0 10 0.223858 10 0.5V3H6L6 0.5ZM9 12C11.2091 12 13 10.2091 13 8V4H3V8C3 10.2091 4.79086 12 7 12H9Z" fill="black"/>
</svg>
