<svg width="24" height="24" viewBox="0 0 24 24" fill="none" xmlns="http://www.w3.org/2000/svg">
<path opacity="0.9" fill-rule="evenodd" clip-rule="evenodd" d="M5.58883 6.65711C6.04991 6.23446 6.65266 6 7.27814 6H19.5002C20.8809 6 22.0002 7.11929 22.0002 8.5L22.0002 15.5C22.0002 16.8807 20.8809 18 19.5002 18H7.27814C6.65266 18 6.04991 17.7655 5.58883 17.3429L1.77065 13.8429C0.689732 12.852 0.689731 11.148 1.77065 10.1571L5.58883 6.65711ZM5.00018 13C5.55247 13 6.00018 12.5523 6.00018 12C6.00018 11.4477 5.55247 11 5.00018 11C4.4479 11 4.00018 11.4477 4.00018 12C4.00018 12.5523 4.4479 13 5.00018 13Z" fill="black"/>
</svg>
