<svg width="122" height="22" viewBox="0 0 122 22" fill="none" xmlns="http://www.w3.org/2000/svg">
<path fill-rule="evenodd" clip-rule="evenodd" d="M30.7295 14.0699H33.2884V15.6767H28.9211V6.21295H30.7295V14.0699ZM36.7491 15.6767H38.5575V6.21313H36.7491V15.6767ZM45.9534 11.8397L48.163 6.21295H50.1067L45.9889 16.1895L41.9017 6.21295H43.8453L45.9534 11.8397ZM55.2767 7.81935V9.90312H58.1552V11.5093H55.2767V14.0699H58.2666V15.6767H53.4688V6.21295H58.2666V7.81935H55.2767ZM64.1317 15.6734H63.0561V6.21259H64.6445C65.4767 6.21259 66.3349 6.23769 67.0391 6.71488C67.756 7.20417 68.1273 8.03247 68.1273 8.8727C68.1273 9.63815 67.8073 10.4159 67.2056 10.9052C66.5525 11.4324 65.7202 11.5323 64.9137 11.5323H64.1317V15.6734ZM64.1317 10.5542H64.8488C66.0402 10.5542 67.0517 10.2028 67.0517 8.84705C67.0517 7.30387 65.7836 7.19062 64.5288 7.19062H64.1317V10.5542ZM71.9087 6.21259H76.9164V7.19062H72.9843V10.0017H76.8007V10.9805H72.9843V14.6945H76.9164V15.6734H71.9087V6.21259ZM82.1673 15.6734H81.091V6.21259H82.4872C84.3191 6.21259 86.0219 6.68959 86.0219 8.82267C86.0219 10.2781 85.0869 11.3067 83.6017 11.4324L86.675 15.6734H85.3557L82.4359 11.5202H82.1673V15.6734ZM82.1673 10.5916H82.5008C83.7169 10.5916 84.9461 10.3659 84.9461 8.89745C84.9461 7.34162 83.7809 7.19062 82.4872 7.19062H82.1673V10.5916ZM94.6618 8.05722C94.2775 7.40465 93.8164 7.02807 92.9968 7.02807C92.1389 7.02807 91.3962 7.63042 91.3962 8.49594C91.3962 9.31196 92.2546 9.68782 92.9069 9.97699L93.5478 10.2532C94.8035 10.7925 95.8662 11.4071 95.8662 12.9129C95.8662 14.5692 94.5082 15.8362 92.8302 15.8362C91.2806 15.8362 90.1283 14.8574 89.8205 13.3896L90.871 13.1013C91.0119 14.0672 91.7676 14.8574 92.8051 14.8574C93.8426 14.8574 94.7904 14.0793 94.7904 13.013C94.7904 11.909 93.9069 11.5323 93.0094 11.1309L92.4211 10.8799C91.2935 10.3789 90.3206 9.81335 90.3206 8.45909C90.3206 6.99068 91.5888 6.04985 93.0225 6.04985C94.0983 6.04985 95.0078 6.58917 95.5204 7.5179L94.6618 8.05722ZM109.223 10.9556C109.223 13.678 106.943 15.8362 104.19 15.8362C101.436 15.8362 99.1569 13.678 99.1569 10.9556C99.1569 8.24542 101.436 6.04985 104.19 6.04985C106.943 6.04985 109.223 8.24542 109.223 10.9556ZM100.233 10.9431C100.233 13.076 102 14.8574 104.19 14.8574C106.38 14.8574 108.148 13.076 108.148 10.9431C108.148 8.79738 106.406 7.02807 104.19 7.02807C101.975 7.02807 100.233 8.79738 100.233 10.9431ZM113.393 5.81108L120.924 13.54V6.21258H122V16.0997L114.469 8.38341V15.6734H113.393V5.81108ZM5.05343 10.9998C5.05343 13.6753 7.17889 15.8438 9.80077 15.8438C12.4227 15.8438 14.5481 13.6753 14.5481 10.9998C14.5481 8.32525 12.4227 6.15659 9.80077 6.15659C7.17889 6.15659 5.05343 8.32525 5.05343 10.9998ZM3.59363 6.12914L2.07317 4.74273L3.66806 3.11574L5.02693 4.66705C5.30512 4.44814 5.59429 4.25073 5.89253 4.07553L5.00898 2.202L7.09191 1.32114L7.76525 3.2848C8.10235 3.19232 8.44382 3.12387 8.78754 3.07835L8.67372 1H10.9282L10.8138 3.07835C11.1583 3.12387 11.4995 3.19286 11.8361 3.2848L12.5096 1.32114L14.5933 2.202L13.709 4.07553C14.0071 4.25127 14.2968 4.44851 14.5751 4.66759L15.9344 3.11574L17.5284 4.74237L16.0081 6.12914C16.2225 6.41307 16.4161 6.70856 16.5878 7.01272L18.4241 6.11072L19.2871 8.23639L17.3631 8.92364C17.4532 9.26681 17.5205 9.61558 17.5653 9.96615L19.6021 9.85002V12.1509L17.5653 12.0342C17.5205 12.3848 17.4532 12.7336 17.3626 13.0769L19.2871 13.7645L18.4241 15.8898L16.5878 14.9873C16.4156 15.2918 16.2221 15.5869 16.0079 15.8712L17.5284 17.2582L15.9344 18.8846L14.5751 17.3329C14.2968 17.5519 14.0071 17.7493 13.709 17.925L14.5933 19.7984L12.5096 20.6789L11.8361 18.7157C11.4995 18.8077 11.1583 18.8765 10.8138 18.922L10.9282 21H8.67372L8.78754 18.922C8.44382 18.8765 8.10235 18.8077 7.76525 18.7157L7.09191 20.6789L5.00863 19.7984L5.89253 17.925C5.59429 17.7493 5.30512 17.5519 5.02693 17.3329L3.66806 18.8846L2.07317 17.2582L3.59363 15.8709C3.37941 15.5869 3.18576 15.2918 3.01372 14.9873L1.17742 15.8893L0.314793 13.7636L2.23876 13.0769C2.1483 12.7336 2.08102 12.3848 2.03657 12.0342L0 12.1509V9.85002L2.03657 9.96615C2.08102 9.61558 2.1483 9.26681 2.23876 8.92364L0.314793 8.23639L1.17742 6.11072L3.01372 7.01272C3.18576 6.70856 3.37941 6.41307 3.59363 6.12914Z" fill="#FF6900"/>
</svg>
