<svg width="16" height="16" viewBox="0 0 16 16" fill="none" xmlns="http://www.w3.org/2000/svg">
<path opacity="0.9" fill-rule="evenodd" clip-rule="evenodd" d="M9 1C9 1.37014 8.7989 1.69331 8.5 1.86622V3H13C14.1046 3 15 3.89543 15 5V7C15.5523 7 16 7.44772 16 8V9C16 9.55229 15.5523 10 15 10V11C15 12.1046 14.1046 13 13 13H3C1.89543 13 1 12.1046 1 11V10C0.447715 10 0 9.55228 0 9V8C0 7.44772 0.447715 7 1 7V5C1 3.89543 1.89543 3 3 3H7.5V1.86622C7.2011 1.69331 7 1.37014 7 1C7 0.447715 7.44772 0 8 0C8.55229 0 9 0.447715 9 1ZM10 8C10 8.40948 9.87694 8.79021 9.66579 9.10724C10.7267 9.42417 11.5 10.4075 11.5 11.5714C11.5 11.8081 11.3081 12 11.0714 12H4.92857C4.69188 12 4.5 11.8081 4.5 11.5714C4.5 10.4075 5.27332 9.42417 6.3342 9.10724C6.12306 8.79021 6 8.40948 6 8C6 6.89543 6.89543 6 8 6C9.10457 6 10 6.89543 10 8Z" fill="black"/>
</svg>
