<svg width="24" height="24" viewBox="0 0 24 24" fill="none" xmlns="http://www.w3.org/2000/svg">
<path opacity="0.9" d="M12.3334 2.44323L12 2.56106L11.6666 2.44323C11.2776 2.30571 11 1.93462 11 1.5C11 0.947715 11.4477 0.5 12 0.5C12.5523 0.5 13 0.947715 13 1.5C13 1.93462 12.7224 2.30571 12.3334 2.44323ZM11.5 5.5H12H12.5H19C20.3807 5.5 21.5 6.61929 21.5 8V10V10.5H22C22.2761 10.5 22.5 10.7239 22.5 11V13C22.5 13.2761 22.2761 13.5 22 13.5H21.5V14V16C21.5 17.3807 20.3807 18.5 19 18.5H5C3.61929 18.5 2.5 17.3807 2.5 16V14V13.5H2C1.72386 13.5 1.5 13.2761 1.5 13V11C1.5 10.7239 1.72386 10.5 2 10.5H2.5V10V8C2.5 6.61929 3.61929 5.5 5 5.5H11.5ZM8.92291 12.669C7.51679 13.1233 6.5 14.4427 6.5 16V16.5C6.5 17.0523 6.94772 17.5 7.5 17.5H16.5C17.0523 17.5 17.5 17.0523 17.5 16.5V16C17.5 14.4427 16.4832 13.1233 15.0771 12.669C15.3467 12.1728 15.5 11.604 15.5 11C15.5 9.067 13.933 7.5 12 7.5C10.067 7.5 8.5 9.067 8.5 11C8.5 11.604 8.65332 12.1728 8.92291 12.669Z" fill="black" stroke="black"/>
</svg>
