<svg width="16" height="16" viewBox="0 0 16 16" fill="none" xmlns="http://www.w3.org/2000/svg">
<path opacity="0.9" fill-rule="evenodd" clip-rule="evenodd" d="M9 1C9 1.37014 8.7989 1.69331 8.5 1.86622V3H13C14.1046 3 15 3.89543 15 5V7C15.5523 7 16 7.44772 16 8V9C16 9.55229 15.5523 10 15 10V11C15 12.1046 14.1046 13 13 13H3C1.89543 13 1 12.1046 1 11V10C0.447715 10 0 9.55228 0 9V8C0 7.44772 0.447715 7 1 7V5C1 3.89543 1.89543 3 3 3H7.5V1.86622C7.2011 1.69331 7 1.37014 7 1C7 0.447715 7.44772 0 8 0C8.55228 0 9 0.447715 9 1ZM2 7V10V11C2 11.5523 2.44772 12 3 12H13C13.5523 12 14 11.5523 14 11V10V7V5C14 4.44772 13.5523 4 13 4H3C2.44772 4 2 4.44772 2 5V7Z" fill="black"/>
<path opacity="0.9" fill-rule="evenodd" clip-rule="evenodd" d="M9 8C9 8.55228 8.55228 9 8 9C7.44772 9 7 8.55228 7 8C7 7.44772 7.44772 7 8 7C8.55228 7 9 7.44772 9 8ZM9.61419 9.18108C9.85676 8.85011 10 8.44179 10 8C10 6.89543 9.10457 6 8 6C6.89543 6 6 6.89543 6 8C6 8.44179 6.14324 8.85012 6.38581 9.18108C4.99908 9.64642 4 10.9565 4 12.5C4 12.7761 4.22386 13 4.5 13C4.77614 13 5 12.7761 5 12.5C5 11.1193 6.11929 10 7.5 10H8H8.5C9.88071 10 11 11.1193 11 12.5C11 12.7761 11.2239 13 11.5 13C11.7761 13 12 12.7761 12 12.5C12 10.9565 11.0009 9.64642 9.61419 9.18108Z" fill="black"/>
</svg>
