<svg width="32" height="32" viewBox="0 0 32 32" fill="none" xmlns="http://www.w3.org/2000/svg">
<path opacity="0.9" fill-rule="evenodd" clip-rule="evenodd" d="M18 4C18 4.93192 17.3626 5.71497 16.5 5.93699V8H25C26.6569 8 28 9.34315 28 11V14H29C29.5523 14 30 14.4477 30 15V18C30 18.5523 29.5523 19 29 19H28V22C28 23.6569 26.6569 25 25 25H7C5.34315 25 4 23.6569 4 22V19H3C2.44772 19 2 18.5523 2 18V15C2 14.4477 2.44772 14 3 14H4V11C4 9.34315 5.34315 8 7 8H15.5V5.93699C14.6374 5.71497 14 4.93192 14 4C14 2.89543 14.8954 2 16 2C17.1046 2 18 2.89543 18 4ZM11 14.5C11 14.2239 11.2239 14 11.5 14H20.5C20.7761 14 21 14.2239 21 14.5C21 14.7761 20.7761 15 20.5 15H11.5C11.2239 15 11 14.7761 11 14.5ZM11 18.5C11 18.2239 11.2239 18 11.5 18H20.5C20.7761 18 21 18.2239 21 18.5C21 18.7761 20.7761 19 20.5 19H11.5C11.2239 19 11 18.7761 11 18.5Z" fill="black"/>
</svg>
