<svg width="24" height="24" viewBox="0 0 24 24" fill="none" xmlns="http://www.w3.org/2000/svg">
<path opacity="0.9" fill-rule="evenodd" clip-rule="evenodd" d="M12.5 1.5C12.5 1.77614 12.2761 2 12 2C11.7239 2 11.5 1.77614 11.5 1.5C11.5 1.22386 11.7239 1 12 1C12.2761 1 12.5 1.22386 12.5 1.5ZM13.5 1.5C13.5 2.15311 13.0826 2.70873 12.5 2.91465V5H19C20.6569 5 22 6.34315 22 8V10C22.5523 10 23 10.4477 23 11V13C23 13.5523 22.5523 14 22 14V16C22 17.6569 20.6569 19 19 19H5C3.34315 19 2 17.6569 2 16V14C1.44772 14 1 13.5523 1 13V11C1 10.4477 1.44772 10 2 10V8C2 6.34315 3.34315 5 5 5H11.5V2.91465C10.9174 2.70873 10.5 2.15311 10.5 1.5C10.5 0.671573 11.1716 0 12 0C12.8284 0 13.5 0.671573 13.5 1.5ZM3 10V14V16C3 17.1046 3.89543 18 5 18H19C20.1046 18 21 17.1046 21 16V14V10V8C21 6.89543 20.1046 6 19 6H12.5H11.5H5C3.89543 6 3 6.89543 3 8V10ZM8 13.5C8 13.2239 8.22386 13 8.5 13H15.5C15.7761 13 16 13.2239 16 13.5C16 13.7761 15.7761 14 15.5 14H8.5C8.22386 14 8 13.7761 8 13.5ZM8.5 10C8.22386 10 8 10.2239 8 10.5C8 10.7761 8.22386 11 8.5 11H15.5C15.7761 11 16 10.7761 16 10.5C16 10.2239 15.7761 10 15.5 10H8.5Z" fill="black"/>
</svg>
