<svg width="16" height="16" viewBox="0 0 16 16" fill="none" xmlns="http://www.w3.org/2000/svg">
<path opacity="0.9" fill-rule="evenodd" clip-rule="evenodd" d="M8.5 1.86622C8.7989 1.69331 9 1.37014 9 1C9 0.447715 8.55229 0 8 0C7.44772 0 7 0.447715 7 1C7 1.37014 7.2011 1.69331 7.5 1.86622V3H3C1.89543 3 1 3.89543 1 5V7C0.447715 7 0 7.44772 0 8V9C0 9.55228 0.447715 10 1 10V11C1 12.1046 1.89543 13 3 13H13C14.1046 13 15 12.1046 15 11V10C15.5523 10 16 9.55229 16 9V8C16 7.44772 15.5523 7 15 7V5C15 3.89543 14.1046 3 13 3H8.5V1.86622ZM5 9.5C5 9.22386 5.22386 9 5.5 9H10.5C10.7761 9 11 9.22386 11 9.5C11 9.77614 10.7761 10 10.5 10H5.5C5.22386 10 5 9.77614 5 9.5ZM5.5 6C5.22386 6 5 6.22386 5 6.5C5 6.77614 5.22386 7 5.5 7H10.5C10.7761 7 11 6.77614 11 6.5C11 6.22386 10.7761 6 10.5 6H5.5Z" fill="black"/>
</svg>
