<svg width="24" height="24" viewBox="0 0 24 24" fill="none" xmlns="http://www.w3.org/2000/svg">
<path opacity="0.9" fill-rule="evenodd" clip-rule="evenodd" d="M12.0286 19.8063L17.5876 14.2472C17.9172 13.9176 18.4517 13.9176 18.7813 14.2472C19.111 14.5769 19.111 15.1113 18.7813 15.441L12.6254 21.5969C12.2958 21.9265 11.7613 21.9265 11.4317 21.5969L5.27579 15.441C4.94615 15.1113 4.94615 14.5769 5.27579 14.2472C5.60543 13.9176 6.13989 13.9176 6.46953 14.2472L12.0286 19.8063Z" fill="black"/>
<path opacity="0.9" fill-rule="evenodd" clip-rule="evenodd" d="M11.9714 4.19373L17.5305 9.75277C17.8601 10.0824 18.3946 10.0824 18.7242 9.75277C19.0538 9.42313 19.0538 8.88868 18.7242 8.55904L12.5683 2.40314C12.2387 2.0735 11.7042 2.07349 11.3746 2.40313L5.21867 8.55904C4.88903 8.88868 4.88903 9.42313 5.21867 9.75277C5.54831 10.0824 6.08276 10.0824 6.4124 9.75277L11.9714 4.19373Z" fill="black"/>
</svg>
