<svg width="24" height="24" viewBox="0 0 24 24" fill="none" xmlns="http://www.w3.org/2000/svg">
<g opacity="0.9">
<path d="M23.75 11.75V9.35001C23.75 9.10001 23.45 8.95001 23.25 9.10001C20.8 11.05 16.4 12.05 12 12.05C7.65 12.05 3.25 11.05 0.75 9.10001C0.55 8.95001 0.25 9.10001 0.25 9.35001V11.75C0.25 11.8 0.25 11.85 0.25 11.95C0.25 14.75 5.5 17.05 12 17.05C18.5 17.05 23.75 14.75 23.75 11.9C23.75 11.85 23.75 11.8 23.75 11.75Z" fill="black"/>
<path d="M23.75 18.45V16.05C23.75 15.8 23.45 15.65 23.25 15.8C20.8 17.75 16.4 18.75 12 18.75C7.65 18.75 3.25 17.75 0.75 15.8C0.55 15.65 0.25 15.8 0.25 16.05V18.45C0.25 18.5 0.25 18.55 0.25 18.65C0.25 21.45 5.5 23.75 12 23.75C18.5 23.75 23.75 21.45 23.75 18.6C23.75 18.55 23.75 18.5 23.75 18.45Z" fill="black"/>
<path d="M12 10.55C18.4893 10.55 23.75 8.24427 23.75 5.4C23.75 2.55573 18.4893 0.25 12 0.25C5.51065 0.25 0.25 2.55573 0.25 5.4C0.25 8.24427 5.51065 10.55 12 10.55Z" fill="black"/>
</g>
</svg>
