<svg width="33" height="32" viewBox="0 0 33 32" fill="none" xmlns="http://www.w3.org/2000/svg">
<g opacity="0.9">
<path d="M17.0352 8C17.0352 7.44772 16.5874 7 16.0352 7C15.4829 7 15.0352 7.44772 15.0352 8V16.5L19.4352 19.8C19.877 20.1314 20.5038 20.0418 20.8352 19.6C21.1665 19.1582 21.077 18.5314 20.6352 18.2L17.0352 15.5V8Z" fill="black"/>
<path fill-rule="evenodd" clip-rule="evenodd" d="M16.0352 4C9.40774 4 4.03516 9.37258 4.03516 16C4.03516 22.6274 9.40774 28 16.0352 28C22.6626 28 28.0352 22.6274 28.0352 16C28.0352 9.37258 22.6626 4 16.0352 4ZM5.03516 16C5.03516 9.92487 9.96002 5 16.0352 5C22.1103 5 27.0352 9.92487 27.0352 16C27.0352 22.0751 22.1103 27 16.0352 27C9.96002 27 5.03516 22.0751 5.03516 16Z" fill="black"/>
</g>
</svg>
