<svg width="25" height="24" viewBox="0 0 25 24" fill="none" xmlns="http://www.w3.org/2000/svg">
<path opacity="0.9" fill-rule="evenodd" clip-rule="evenodd" d="M2.03516 12C2.03516 6.47715 6.51231 2 12.0352 2C17.558 2 22.0352 6.47715 22.0352 12C22.0352 17.5228 17.558 22 12.0352 22C6.51231 22 2.03516 17.5228 2.03516 12ZM13.0352 6C13.0352 5.44772 12.5874 5 12.0352 5C11.4829 5 11.0352 5.44772 11.0352 6V12.5146L14.9539 15.3137C15.4033 15.6347 16.0279 15.5307 16.3489 15.0812C16.6699 14.6318 16.5658 14.0073 16.1164 13.6863L13.0352 11.4854V6Z" fill="black"/>
</svg>
