<svg width="33" height="32" viewBox="0 0 33 32" fill="none" xmlns="http://www.w3.org/2000/svg">
<path opacity="0.9" fill-rule="evenodd" clip-rule="evenodd" d="M4.03516 16C4.03516 9.37258 9.40774 4 16.0352 4C22.6626 4 28.0352 9.37258 28.0352 16C28.0352 22.6274 22.6626 28 16.0352 28C9.40774 28 4.03516 22.6274 4.03516 16ZM17.0352 8C17.0352 7.44772 16.5874 7 16.0352 7C15.4829 7 15.0352 7.44772 15.0352 8V16.5L19.4352 19.8C19.877 20.1314 20.5038 20.0418 20.8352 19.6C21.1665 19.1582 21.077 18.5314 20.6352 18.2L17.0352 15.5V8Z" fill="black"/>
</svg>
