<svg width="16" height="16" viewBox="0 0 16 16" fill="none" xmlns="http://www.w3.org/2000/svg">
<g clip-path="url(#clip0)">
<g opacity="0.9">
<path fill-rule="evenodd" clip-rule="evenodd" d="M3.5 0C2.11929 0 1 1.11929 1 2.5V13.5C1 14.8807 2.11929 16 3.5 16H8.5C8.77614 16 9 15.7761 9 15.5C9 15.2239 8.77614 15 8.5 15H3.5C2.67157 15 2 14.3284 2 13.5V2.5C2 1.67157 2.67157 1 3.5 1H11V1.5C11 2.88071 12.1193 4 13.5 4H14V8.5C14 8.77614 14.2239 9 14.5 9C14.7761 9 15 8.77614 15 8.5V3.29289L11.7071 0H3.5ZM12.0166 1.72367L13.2763 2.98344C12.627 2.88635 12.1136 2.37304 12.0166 1.72367Z" fill="black"/>
<path d="M5 5C4.44772 5 4 5.44772 4 6V8.5C4 8.77614 4.22386 9 4.5 9H5.5C5.77614 9 6 8.77614 6 8.5V6C6 5.44772 5.55228 5 5 5Z" fill="black"/>
<path d="M7 4C7 3.44772 7.44772 3 8 3C8.55228 3 9 3.44772 9 4V8.5C9 8.77614 8.77614 9 8.5 9H7.5C7.22386 9 7 8.77614 7 8.5V4Z" fill="black"/>
<path d="M11 6C10.4477 6 10 6.44772 10 7V8.5C10 8.77614 10.2239 9 10.5 9H11.5C11.7761 9 12 8.77614 12 8.5V7C12 6.44772 11.5523 6 11 6Z" fill="black"/>
<path fill-rule="evenodd" clip-rule="evenodd" d="M10 12.5C10 11.1193 11.1193 10 12.5 10C13.8807 10 15 11.1193 15 12.5C15 13.0095 14.8476 13.4835 14.5858 13.8787L15.8536 15.1467C16.0488 15.3419 16.0488 15.6585 15.8535 15.8538C15.6583 16.049 15.3417 16.049 15.1464 15.8537L13.8787 14.5858C13.4835 14.8476 13.0095 15 12.5 15C11.1193 15 10 13.8807 10 12.5ZM12.5 11C11.6716 11 11 11.6716 11 12.5C11 13.3284 11.6716 14 12.5 14C13.3284 14 14 13.3284 14 12.5C14 11.6716 13.3284 11 12.5 11Z" fill="black"/>
</g>
</g>
<defs>
<clipPath id="clip0">
<rect width="16" height="16" fill="white"/>
</clipPath>
</defs>
</svg>
