<svg width="32" height="32" viewBox="0 0 32 32" fill="none" xmlns="http://www.w3.org/2000/svg">
<g opacity="0.9">
<path fill-rule="evenodd" clip-rule="evenodd" d="M8.5 3C7.11929 3 6 4.11929 6 5.5V26.5C6 27.8807 7.11929 29 8.5 29H20.9995C19.7853 28.0878 19 26.6356 19 25C19 22.2386 21.2386 20 24 20C24.7001 20 25.3667 20.1439 25.9716 20.4038L26.0006 9.58744L19.4182 3H8.5ZM25 10L19 4V8C19 9.10457 19.8954 10 21 10H25ZM14 10C14 8.89543 14.8954 8 16 8C17.1046 8 18 8.89543 18 10V18.5C18 18.7761 17.7761 19 17.5 19H14.5C14.2239 19 14 18.7761 14 18.5V10ZM9 13C9 11.8954 9.89543 11 11 11C12.1046 11 13 11.8954 13 13V18.5C13 18.7761 12.7761 19 12.5 19H9.5C9.22386 19 9 18.7761 9 18.5V13ZM19 15C19 13.8954 19.8954 13 21 13C22.1046 13 23 13.8954 23 15V18.5C23 18.7761 22.7761 19 22.5 19H19.5C19.2239 19 19 18.7761 19 18.5V15Z" fill="black"/>
<path d="M24 21C21.7909 21 20 22.7909 20 25C20 27.2091 21.7909 29 24 29C24.9243 29 25.7754 28.6865 26.4528 28.16L28.1464 29.8537C28.3417 30.0489 28.6583 30.0489 28.8536 29.8537C29.0488 29.6584 29.0488 29.3418 28.8536 29.1466L27.1599 27.4529C27.6864 26.7755 28 25.9244 28 25C28 22.7909 26.2091 21 24 21Z" fill="black"/>
</g>
</svg>
