<svg width="24" height="24" viewBox="0 0 24 24" fill="none" xmlns="http://www.w3.org/2000/svg">
<g opacity="0.9">
<path d="M4.13918 18.7826V14.6087C4.13918 13.2133 5.66552 11.687 7.06092 11.687H17.4957C18.8911 11.687 20.4174 13.2133 20.4174 14.6087V18.7826H22.9218V14.6087C22.9218 11.8302 20.2742 9.18261 17.4957 9.18261H7.06092C4.28241 9.18261 1.63484 11.8302 1.63484 14.6087V18.7826H4.13918Z" fill="black"/>
<path d="M16.6609 18.7826V11.4783H14.1566V18.7826H16.6609Z" fill="black"/>
<path d="M10.4 18.7826V11.4783H7.8957V18.7826H10.4Z" fill="black"/>
<path d="M2.88701 24C4.0396 24 4.97396 23.0656 4.97396 21.913C4.97396 20.7604 4.0396 19.8261 2.88701 19.8261C1.73441 19.8261 0.800049 20.7604 0.800049 21.913C0.800049 23.0656 1.73441 24 2.88701 24Z" fill="black"/>
<path d="M9.14787 24C10.3005 24 11.2348 23.0656 11.2348 21.913C11.2348 20.7604 10.3005 19.8261 9.14787 19.8261C7.99528 19.8261 7.06091 20.7604 7.06091 21.913C7.06091 23.0656 7.99528 24 9.14787 24Z" fill="black"/>
<path d="M15.4087 24C16.5613 24 17.4957 23.0656 17.4957 21.913C17.4957 20.7604 16.5613 19.8261 15.4087 19.8261C14.2562 19.8261 13.3218 20.7604 13.3218 21.913C13.3218 23.0656 14.2562 24 15.4087 24Z" fill="black"/>
<path d="M21.6696 24C22.8222 24 23.7566 23.0656 23.7566 21.913C23.7566 20.7604 22.8222 19.8261 21.6696 19.8261C20.517 19.8261 19.5827 20.7604 19.5827 21.913C19.5827 23.0656 20.517 24 21.6696 24Z" fill="black"/>
<path d="M12.2783 8.34783C14.5835 8.34783 16.4522 6.4791 16.4522 4.17391C16.4522 1.86872 14.5835 0 12.2783 0C9.97312 0 8.1044 1.86872 8.1044 4.17391C8.1044 6.4791 9.97312 8.34783 12.2783 8.34783Z" fill="black"/>
</g>
</svg>
