<svg width="16" height="16" viewBox="0 0 16 16" fill="none" xmlns="http://www.w3.org/2000/svg">
<path opacity="0.9" fill-rule="evenodd" clip-rule="evenodd" d="M10.7344 1.55859C11.1123 1.18065 11.6876 1.01353 12.2279 1.2158C12.6853 1.38704 13.4066 1.69956 13.8536 2.1465C14.3005 2.59345 14.613 3.31474 14.7843 3.77218C14.9865 4.31247 14.8194 4.88776 14.4415 5.2657L4.70711 15.0001H1V11.2929L10.7344 1.55859ZM11.8773 2.15232C11.743 2.10204 11.5729 2.13428 11.4415 2.2657L10.7071 3.00006L13 5.29295L13.7344 4.55859C13.8658 4.42718 13.898 4.2571 13.8477 4.12278C13.6779 3.669 13.4263 3.13348 13.1464 2.85361C12.8666 2.57374 12.3311 2.3222 11.8773 2.15232ZM12.2929 6.00006L10 3.70716L2 11.7072V14.0001H4.29289L12.2929 6.00006Z" fill="black"/>
</svg>
