<svg width="32" height="32" viewBox="0 0 32 32" fill="none" xmlns="http://www.w3.org/2000/svg">
<path opacity="0.9" fill-rule="evenodd" clip-rule="evenodd" d="M21.4267 4.55843C21.8064 4.17868 22.3742 4.01983 22.9079 4.20112C23.3133 4.33878 23.8892 4.55371 24.4665 4.83571C25.0367 5.11421 25.6437 5.4749 26.0843 5.91557C26.525 6.35624 26.8857 6.96318 27.1642 7.53337C27.4462 8.11074 27.6611 8.68662 27.7988 9.09194C27.9801 9.62574 27.8212 10.1935 27.4415 10.5732L10.0148 27.9999H4V21.9851L21.4267 4.55843ZM22.5864 5.148C22.4381 5.09764 22.2634 5.13593 22.1338 5.26554L20.3994 6.99989L25 11.6005L26.7344 9.86612C26.864 9.73651 26.9023 9.56181 26.8519 9.41353C26.7222 9.03152 26.5226 8.49844 26.2656 7.97225C26.0051 7.43889 25.7022 6.94769 25.3772 6.62268C25.0522 6.29767 24.561 5.99477 24.0276 5.73426C23.5015 5.47725 22.9684 5.27774 22.5864 5.148ZM24.2929 12.3076L22.5216 10.5363L8.75312 24.3048C9.278 24.9566 9.69581 25.7117 10.0238 26.5767L24.2929 12.3076ZM9.1145 26.9999C8.7267 25.9527 8.21063 25.1194 7.54555 24.4543C6.88046 23.7893 6.04716 23.2732 5 22.8854V26.9999H9.1145ZM5.4232 21.9761C6.46008 22.3692 7.33899 22.8914 8.07133 23.5724L21.8145 9.82921L19.6923 7.707L5.4232 21.9761Z" fill="black"/>
</svg>
