<svg width="24" height="24" viewBox="0 0 24 24" fill="none" xmlns="http://www.w3.org/2000/svg">
<g opacity="0.9">
<path fill-rule="evenodd" clip-rule="evenodd" d="M22 8C22 11.3137 19.3137 14 16 14C12.6863 14 10 11.3137 10 8C10 4.68629 12.6863 2 16 2C19.3137 2 22 4.68629 22 8ZM21 8C21 10.7614 18.7614 13 16 13C13.2386 13 11 10.7614 11 8C11 5.23858 13.2386 3 16 3C18.7614 3 21 5.23858 21 8Z" fill="black"/>
<path fill-rule="evenodd" clip-rule="evenodd" d="M5 19C7.20914 19 9 17.2091 9 15C9 12.7909 7.20914 11 5 11C2.79086 11 1 12.7909 1 15C1 17.2091 2.79086 19 5 19ZM5 18C6.65685 18 8 16.6569 8 15C8 13.3431 6.65685 12 5 12C3.34315 12 2 13.3431 2 15C2 16.6569 3.34315 18 5 18Z" fill="black"/>
<path fill-rule="evenodd" clip-rule="evenodd" d="M14 22C15.6569 22 17 20.6569 17 19C17 17.3431 15.6569 16 14 16C12.3431 16 11 17.3431 11 19C11 20.6569 12.3431 22 14 22ZM14 21C15.1046 21 16 20.1046 16 19C16 17.8954 15.1046 17 14 17C12.8954 17 12 17.8954 12 19C12 20.1046 12.8954 21 14 21Z" fill="black"/>
</g>
</svg>
