<svg width="24" height="24" viewBox="0 0 24 24" fill="none" xmlns="http://www.w3.org/2000/svg">
<g opacity="0.9">
<path fill-rule="evenodd" clip-rule="evenodd" d="M2.5 2C2.22386 2 2 2.22386 2 2.5V18.8462C2 20.588 3.41202 22 5.15385 22H17.8198C17.2974 21.3919 17 20.5648 17 19.6858V2.5C17 2.22386 16.7761 2 16.5 2H2.5ZM5.5 5C5.22386 5 5 5.22386 5 5.5V10.5C5 10.7761 5.22386 11 5.5 11H13.5C13.7761 11 14 10.7761 14 10.5V5.5C14 5.22386 13.7761 5 13.5 5H5.5ZM5 13.5C5 13.2239 5.22386 13 5.5 13H13.5C13.7761 13 14 13.2239 14 13.5C14 13.7761 13.7761 14 13.5 14H5.5C5.22386 14 5 13.7761 5 13.5ZM5 15.5C5 15.2239 5.22386 15 5.5 15H13.5C13.7761 15 14 15.2239 14 15.5C14 15.7761 13.7761 16 13.5 16H5.5C5.22386 16 5 15.7761 5 15.5ZM5 17.5C5 17.2239 5.22386 17 5.5 17H10.5C10.7761 17 11 17.2239 11 17.5C11 17.7761 10.7761 18 10.5 18H5.5C5.22386 18 5 17.7761 5 17.5Z" fill="black"/>
<path d="M18 10V19.6858C18 21.033 18.8748 22 20 22C21.1252 22 22 21.033 22 19.6858V10H18Z" fill="black"/>
</g>
</svg>
