<svg width="32" height="32" viewBox="0 0 32 32" fill="none" xmlns="http://www.w3.org/2000/svg">
<g opacity="0.9">
<path d="M17.3763 0.670755C17.1945 0.462936 16.8786 0.441877 16.6708 0.623719L12.6708 4.12372C12.5623 4.21866 12.5 4.35583 12.5 4.50001C12.5 4.64419 12.5623 4.78135 12.6708 4.8763L16.6708 8.37629C16.8786 8.55814 17.1945 8.53708 17.3763 8.32926C17.5581 8.12144 17.5371 7.80556 17.3293 7.62372L14.3307 5.00001H16L16.0109 4.99989C22.081 5.00577 27 9.92838 27 15.9999C27 16.276 27.2239 16.4999 27.5 16.4999C27.7761 16.4999 28 16.276 28 15.9999C28 9.37247 22.6274 3.99988 16 3.99989L15.9889 4.00001H14.3307L17.3293 1.3763C17.5371 1.19445 17.5581 0.878573 17.3763 0.670755Z" fill="black"/>
<path d="M16.0088 27.9998H18.2929L15.6465 30.6463C15.4512 30.8415 15.4512 31.1581 15.6465 31.3534C15.8417 31.5486 16.1583 31.5486 16.3536 31.3534L19.8536 27.8534C20.0488 27.6581 20.0488 27.3415 19.8536 27.1463L16.3536 23.6462C16.1583 23.4509 15.8417 23.4509 15.6465 23.6462C15.4512 23.8414 15.4512 24.158 15.6465 24.3533L18.2929 26.9998H16C15.9971 26.9998 15.9943 26.9998 15.9914 26.9999C9.92021 26.9952 5 22.0721 5 15.9999C5 15.7237 4.77614 15.4999 4.5 15.4999C4.22386 15.4999 4 15.7237 4 15.9999C4 22.6273 9.37258 27.9999 16 27.9999C16.0029 27.9999 16.0059 27.9999 16.0088 27.9998Z" fill="black"/>
</g>
</svg>
