<svg width="24" height="24" viewBox="0 0 24 24" fill="none" xmlns="http://www.w3.org/2000/svg">
<g clip-path="url(#clip0)">
<path opacity="0.9" fill-rule="evenodd" clip-rule="evenodd" d="M12.8521 0.145026C12.656 -0.0494486 12.3395 -0.0481735 12.145 0.147873L9.145 3.17214C9.0516 3.26628 8.99944 3.39367 8.99997 3.52628C9.00051 3.65889 9.0537 3.78586 9.14785 3.87925L12.1479 6.85499C12.3439 7.04945 12.6605 7.04817 12.855 6.85211C13.0494 6.65606 13.0481 6.33948 12.8521 6.14501L10.7023 4.01262L12.0024 4C16.4196 4.0013 20 7.58252 20 12C20 12.2761 20.2239 12.5 20.5 12.5C20.7761 12.5 21 12.2761 21 12C21 7.02971 16.971 3.00043 12.0008 3C11.9989 3 11.997 3.00001 11.9951 3.00002M11.9943 3.00003L10.7119 3.01248L12.8549 0.852127C13.0494 0.65608 13.0481 0.3395 12.8521 0.145026M11.1161 17.1465C11.3114 16.9512 11.628 16.9512 11.8232 17.1464L14.8535 20.1767C14.9473 20.2705 15 20.3976 15 20.5302C15 20.6628 14.9473 20.79 14.8535 20.8838L11.8838 23.8535C11.6886 24.0487 11.372 24.0487 11.1767 23.8535C10.9815 23.6582 10.9815 23.3416 11.1767 23.1464L13.3073 21.0159L11.9967 21C7.02768 20.9982 3 16.9695 3 12C3 11.7239 3.22386 11.5 3.5 11.5C3.77614 11.5 4 11.7239 4 12C4 16.4183 7.58172 20 12 20C12.0026 20 12.0051 20 12.0077 20.0001M12.0077 20.0001L13.278 20.0154L11.1161 17.8536C10.9209 17.6583 10.9209 17.3417 11.1161 17.1465" fill="black"/>
</g>
<defs>
<clipPath id="clip0">
<rect width="24" height="24" fill="white"/>
</clipPath>
</defs>
</svg>
