<svg width="24" height="24" viewBox="0 0 24 24" fill="none" xmlns="http://www.w3.org/2000/svg">
<g opacity="0.9">
<path fill-rule="evenodd" clip-rule="evenodd" d="M9.5 5.49984C9.73569 5.49984 9.93937 5.66443 9.98886 5.89486L11.2468 11.753L17.105 13.011C17.3354 13.0605 17.5 13.2642 17.5 13.4998C17.5 13.7355 17.3354 13.9392 17.105 13.9887L11.2468 15.2467L9.98886 21.1048C9.93937 21.3352 9.73569 21.4998 9.5 21.4998C9.26431 21.4998 9.06063 21.3352 9.01114 21.1048L7.75318 15.2467L1.89502 13.9887C1.66459 13.9392 1.5 13.7355 1.5 13.4998C1.5 13.2642 1.66459 13.0605 1.89502 13.011L7.75318 11.753L9.01114 5.89486C9.06063 5.66443 9.26431 5.49984 9.5 5.49984ZM9.5 8.38135L8.66303 12.279C8.62173 12.4713 8.47149 12.6216 8.27915 12.6629L4.38151 13.4998L8.27915 14.3368C8.47149 14.3781 8.62173 14.5284 8.66303 14.7207L9.5 18.6183L10.337 14.7207C10.3783 14.5284 10.5285 14.3781 10.7208 14.3368L14.6185 13.4998L10.7208 12.6629C10.5285 12.6216 10.3783 12.4713 10.337 12.279L9.5 8.38135Z" fill="black"/>
<path d="M16.3045 0.910452C16.3497 0.699772 16.6503 0.699771 16.6955 0.910451L17.4451 4.40116C17.4616 4.47809 17.5217 4.53819 17.5987 4.55471L21.0894 5.3043C21.3001 5.34954 21.3001 5.65014 21.0894 5.69538L17.5987 6.44497C17.5217 6.46149 17.4616 6.52158 17.4451 6.59852L16.6955 10.0892C16.6503 10.2999 16.3497 10.2999 16.3045 10.0892L15.5549 6.59852C15.5384 6.52158 15.4783 6.46149 15.4013 6.44497L11.9106 5.69538C11.6999 5.65014 11.6999 5.34954 11.9106 5.3043L15.4013 4.55471C15.4783 4.53819 15.5384 4.47809 15.5549 4.40116L16.3045 0.910452Z" fill="black"/>
<path d="M18.3045 16.9105C18.3497 16.6998 18.6503 16.6998 18.6955 16.9105L19.0916 18.7547C19.1081 18.8316 19.1682 18.8917 19.2451 18.9083L21.0894 19.3043C21.3001 19.3495 21.3001 19.6501 21.0894 19.6954L19.2451 20.0914C19.1682 20.1079 19.1081 20.168 19.0916 20.245L18.6955 22.0892C18.6503 22.2999 18.3497 22.2999 18.3045 22.0892L17.9084 20.245C17.8919 20.168 17.8318 20.1079 17.7549 20.0914L15.9106 19.6954C15.6999 19.6501 15.6999 19.3495 15.9106 19.3043L17.7549 18.9083C17.8318 18.8917 17.8919 18.8316 17.9084 18.7547L18.3045 16.9105Z" fill="black"/>
</g>
</svg>
