<svg width="16" height="16" viewBox="0 0 16 16" fill="none" xmlns="http://www.w3.org/2000/svg">
<g opacity="0.9">
<path fill-rule="evenodd" clip-rule="evenodd" d="M6.5 3.99984C6.73569 3.99984 6.93937 4.16443 6.98886 4.39486L7.80488 8.19496L11.605 9.01098C11.8354 9.06046 12 9.26415 12 9.49984C12 9.73553 11.8354 9.93921 11.605 9.98869L7.80488 10.8047L6.98886 14.6048C6.93937 14.8352 6.73569 14.9998 6.5 14.9998C6.26431 14.9998 6.06063 14.8352 6.01114 14.6048L5.19512 10.8047L1.39502 9.98869C1.16459 9.93921 1 9.73553 1 9.49984C1 9.26415 1.16459 9.06046 1.39502 9.01098L5.19512 8.19496L6.01114 4.39486C6.06063 4.16443 6.26431 3.99984 6.5 3.99984ZM6.5 6.88134L6.10497 8.72093C6.06367 8.91327 5.91343 9.06351 5.72109 9.10481L3.88151 9.49984L5.72109 9.89487C5.91343 9.93617 6.06367 10.0864 6.10497 10.2787L6.5 12.1183L6.89503 10.2787C6.93633 10.0864 7.08657 9.93617 7.27891 9.89487L9.11849 9.49984L7.27891 9.10481C7.08657 9.06351 6.93633 8.91327 6.89503 8.72093L6.5 6.88134Z" fill="black"/>
<path d="M11.3045 0.910452C11.3497 0.699772 11.6503 0.699771 11.6955 0.910451L12.0916 2.75471C12.1081 2.83165 12.1682 2.89174 12.2451 2.90826L14.0894 3.3043C14.3001 3.34954 14.3001 3.65014 14.0894 3.69538L12.2451 4.09141C12.1682 4.10793 12.1081 4.16803 12.0916 4.24496L11.6955 6.08923C11.6503 6.2999 11.3497 6.29991 11.3045 6.08923L10.9084 4.24497C10.8919 4.16803 10.8318 4.10793 10.7549 4.09141L8.91061 3.69538C8.69993 3.65014 8.69993 3.34954 8.91061 3.3043L10.7549 2.90826C10.8318 2.89174 10.8919 2.83165 10.9084 2.75471L11.3045 0.910452Z" fill="black"/>
<path d="M12.3045 11.9105C12.3497 11.6998 12.6503 11.6998 12.6955 11.9105L12.9148 12.9315C12.9313 13.0084 12.9914 13.0685 13.0683 13.085L14.0894 13.3043C14.3001 13.3495 14.3001 13.6501 14.0894 13.6954L13.0683 13.9146C12.9914 13.9312 12.9313 13.9913 12.9148 14.0682L12.6955 15.0892C12.6503 15.2999 12.3497 15.2999 12.3045 15.0892L12.0852 14.0682C12.0687 13.9913 12.0086 13.9312 11.9317 13.9146L10.9106 13.6954C10.6999 13.6501 10.6999 13.3495 10.9106 13.3043L11.9317 13.085C12.0086 13.0685 12.0687 13.0084 12.0852 12.9315L12.3045 11.9105Z" fill="black"/>
</g>
</svg>
