<svg width="32" height="32" viewBox="0 0 32 32" fill="none" xmlns="http://www.w3.org/2000/svg">
<g opacity="0.9">
<path d="M3.5144 14.1425L4.562 14.7711C5.17745 8.72096 10.2873 4 16.4998 4C23.1273 4 28.4998 9.37258 28.4998 16C28.4998 22.6274 23.1273 28 16.4998 28C15.9476 28 15.4998 27.5523 15.4998 27C15.4998 26.4477 15.9476 26 16.4998 26C22.0227 26 26.4998 21.5228 26.4998 16C26.4998 10.4772 22.0227 6 16.4998 6C11.4237 6 7.23095 9.78218 6.5859 14.6822L7.48541 14.1425C7.95899 13.8584 8.57325 14.0119 8.8574 14.4855C9.14155 14.9591 8.98798 15.5733 8.5144 15.8575L6.0144 17.3575C5.69772 17.5475 5.30209 17.5475 4.98541 17.3575L2.48541 15.8575C2.01183 15.5733 1.85827 14.9591 2.14241 14.4855C2.42656 14.0119 3.04082 13.8584 3.5144 14.1425Z" fill="black"/>
<path d="M17.4999 9C17.4999 8.44772 17.0522 8 16.4999 8C15.9476 8 15.4999 8.44772 15.4999 9V16C15.4999 16.3148 15.6481 16.6111 15.8999 16.8L19.8999 19.8C20.3417 20.1314 20.9685 20.0418 21.2999 19.6C21.6313 19.1582 21.5417 18.5314 21.0999 18.2L17.4999 15.5V9Z" fill="black"/>
</g>
</svg>
