<svg width="16" height="16" viewBox="0 0 16 16" fill="none" xmlns="http://www.w3.org/2000/svg">
<path opacity="0.9" fill-rule="evenodd" clip-rule="evenodd" d="M8 1C4.13401 1 1 4.13401 1 8C1 11.866 4.13401 15 8 15C11.866 15 15 11.866 15 8C15 4.13401 11.866 1 8 1ZM6.85355 3.14645C7.04882 3.34171 7.04882 3.65829 6.85355 3.85355L5.70711 5H11.5C11.7761 5 12 5.22386 12 5.5C12 5.77614 11.7761 6 11.5 6H5.70711L6.85355 7.14645C7.04882 7.34171 7.04882 7.65829 6.85355 7.85355C6.65829 8.04882 6.34171 8.04882 6.14645 7.85355L3.79289 5.5L6.14645 3.14645C6.34171 2.95118 6.65829 2.95118 6.85355 3.14645ZM9.14645 8.85355C8.95118 8.65829 8.95118 8.34171 9.14645 8.14645C9.34171 7.95118 9.65829 7.95118 9.85355 8.14645L12.2071 10.5L9.85355 12.8536C9.65829 13.0488 9.34171 13.0488 9.14645 12.8536C8.95118 12.6583 8.95118 12.3417 9.14645 12.1464L10.2929 11H4.5C4.22386 11 4 10.7761 4 10.5C4 10.2239 4.22386 10 4.5 10H10.2929L9.14645 8.85355Z" fill="black"/>
</svg>
