<svg width="25" height="24" viewBox="0 0 25 24" fill="none" xmlns="http://www.w3.org/2000/svg">
<path opacity="0.9" fill-rule="evenodd" clip-rule="evenodd" d="M12.0352 2C6.51231 2 2.03516 6.47715 2.03516 12C2.03516 17.5228 6.51231 22 12.0352 22C17.558 22 22.0352 17.5228 22.0352 12C22.0352 6.47715 17.558 2 12.0352 2ZM9.38871 6.64645C9.58397 6.84171 9.58397 7.15829 9.38871 7.35355L7.74226 9H17.5352C17.8113 9 18.0352 9.22386 18.0352 9.5C18.0352 9.77614 17.8113 10 17.5352 10H7.74226L9.38871 11.6464C9.58397 11.8417 9.58397 12.1583 9.38871 12.3536C9.19345 12.5488 8.87686 12.5488 8.6816 12.3536L5.82805 9.5L8.6816 6.64645C8.87686 6.45118 9.19345 6.45118 9.38871 6.64645ZM16.328 14L14.6816 12.3536C14.4863 12.1583 14.4863 11.8417 14.6816 11.6464C14.8769 11.4512 15.1934 11.4512 15.3887 11.6464L18.2423 14.5L15.3887 17.3536C15.1934 17.5488 14.8769 17.5488 14.6816 17.3536C14.4863 17.1583 14.4863 16.8417 14.6816 16.6464L16.328 15H6.53516C6.25901 15 6.03516 14.7761 6.03516 14.5C6.03516 14.2239 6.25901 14 6.53516 14H16.328Z" fill="black"/>
</svg>
