<svg width="32" height="32" viewBox="0 0 32 32" fill="none" xmlns="http://www.w3.org/2000/svg">
<g opacity="0.9">
<path d="M4 7C4 5.89543 4.89543 5 6 5H26C27.1046 5 28 5.89543 28 7V12H4V7Z" fill="black"/>
<path d="M4 13H13V17H4V13Z" fill="black"/>
<path d="M13 18H4V22H13V18Z" fill="black"/>
<path d="M4 23H13V27H6C4.89543 27 4 26.1046 4 25V23Z" fill="black"/>
<path d="M18 13H14V17H18V13Z" fill="black"/>
<path d="M14 18H18V22H14V18Z" fill="black"/>
<path d="M18 23H14V27H18V23Z" fill="black"/>
<path d="M28 13V17H24V13H28Z" fill="black"/>
<path d="M28 22V18H24V22H28Z" fill="black"/>
<path d="M28 23V25C28 26.1046 27.1046 27 26 27H24V23H28Z" fill="black"/>
<path d="M23 13H19V17H23V13Z" fill="black"/>
<path d="M19 18H23V22H19V18Z" fill="black"/>
<path d="M23 23H19V27H23V23Z" fill="black"/>
</g>
</svg>
