<svg width="16" height="16" viewBox="0 0 16 16" fill="none" xmlns="http://www.w3.org/2000/svg">
<path opacity="0.9" fill-rule="evenodd" clip-rule="evenodd" d="M1 2.5C1 1.67157 1.67157 1 2.5 1H13.5C14.3284 1 15 1.67157 15 2.5V13.5C15 14.3284 14.3284 15 13.5 15H2.5C1.67157 15 1 14.3284 1 13.5V2.5ZM2.5 2C2.22386 2 2 2.22386 2 2.5V5H14V2.5C14 2.22386 13.7761 2 13.5 2H2.5ZM2 8V6H5V8H2ZM5 9H2V11H5V9ZM6 11V9H8V11H6ZM5 12H2V13.5C2 13.7761 2.22386 14 2.5 14H5V12ZM6 14V12H8V14H6ZM6 8V6H8V8H6ZM9 8V6H11V8H9ZM9 9V11H11V9H9ZM9 12V14H11V12H9ZM12 11V9H14V11H12ZM12 14V12H14V13.5C14 13.7761 13.7761 14 13.5 14H12ZM12 8V6H14V8H12Z" fill="black"/>
</svg>
