<svg width="16" height="16" viewBox="0 0 16 16" fill="none" xmlns="http://www.w3.org/2000/svg">
<g opacity="0.9">
<path d="M3 3.66667C3 2.70776 3.7085 2 4.5 2H7.5C7.77614 2 8 1.77614 8 1.5C8 1.22386 7.77614 1 7.5 1H4.5C3.08236 1 2 2.23234 2 3.66667V12.3333C2 13.7677 3.08236 15 4.5 15H7.5C7.77614 15 8 14.7761 8 14.5C8 14.2239 7.77614 14 7.5 14H4.5C3.7085 14 3 13.2922 3 12.3333V3.66667Z" fill="black"/>
<path d="M11.6464 9.14645C11.4512 9.34171 11.4512 9.65829 11.6464 9.85355C11.8417 10.0488 12.1583 10.0488 12.3535 9.85355L14.7071 7.5L12.3535 5.14645C12.1583 4.95118 11.8417 4.95118 11.6464 5.14645C11.4512 5.34171 11.4512 5.65829 11.6464 5.85355L12.7929 7L5.49999 7C5.22384 7 4.99999 7.22386 4.99999 7.5C4.99999 7.77614 5.22384 8 5.49999 8L12.7929 8L11.6464 9.14645Z" fill="black"/>
</g>
</svg>
