<svg width="32" height="32" viewBox="0 0 32 32" fill="none" xmlns="http://www.w3.org/2000/svg">
<g opacity="0.9">
<path d="M18.3212 9.90065C18.7454 9.38319 19 8.72132 19 8C19 6.34315 17.6569 5 16 5C14.3431 5 13 6.34315 13 8C13 8.72131 13.2546 9.38316 13.6788 9.90062L6.61108 21.5623C7.29526 21.7038 7.89419 22.0784 8.32123 22.5993L15.3889 10.9377C15.5862 10.9785 15.7906 11 16 11C16.2094 11 16.4138 10.9785 16.6111 10.9377L23.6788 22.5994C23.4608 22.8653 23.2876 23.1693 23.1707 23.5H8.82935C8.93991 23.8128 9.00006 24.1494 9.00006 24.5C9.00006 24.8506 8.93991 25.1872 8.82937 25.5H23.1707C23.5825 26.6652 24.6938 27.5 26 27.5C27.6569 27.5 29 26.1569 29 24.5C29 22.8431 27.6569 21.5 26 21.5C25.7411 21.5 25.4899 21.5328 25.2503 21.5944C25.296 21.5827 25.3423 21.5719 25.3889 21.5623L18.3212 9.90065Z" fill="black"/>
<path d="M9.00006 24.5C9.00006 26.1569 7.65685 27.5 6 27.5C4.34315 27.5 3 26.1569 3 24.5C3 22.8431 4.34315 21.5 6 21.5C7.65685 21.5 9.00006 22.8431 9.00006 24.5Z" fill="black"/>
</g>
</svg>
