<svg width="16" height="16" viewBox="0 0 16 16" fill="none" xmlns="http://www.w3.org/2000/svg">
<path opacity="0.9" d="M9.16411 4.44604C9.37411 4.18795 9.5 3.85868 9.5 3.5C9.5 2.67157 8.82843 2 8 2C7.17157 2 6.5 2.67157 6.5 3.5C6.5 4.32843 7.17157 5 8 5C8.31066 5 8.59926 4.90556 8.83867 4.74382C8.68143 4.85005 8.50297 4.92725 8.31097 4.96773L12.3359 11.554C12.2285 11.6859 12.1432 11.8364 12.0854 12H3.91465C3.85684 11.8364 3.77146 11.6859 3.66411 11.554L7.68903 4.96773C7.34733 4.89569 7.0485 4.70735 6.83589 4.44605L2.81097 11.0323C2.71064 11.0111 2.60662 11 2.5 11C1.67157 11 1 11.6716 1 12.5C1 13.3284 1.67157 14 2.5 14C3.15311 14 3.70873 13.5826 3.91465 13H12.0854C12.2913 13.5826 12.8469 14 13.5 14C14.3284 14 15 13.3284 15 12.5C15 11.6716 14.3284 11 13.5 11C13.3934 11 13.2894 11.0111 13.189 11.0323L9.16411 4.44604Z" fill="black"/>
</svg>
