<svg width="16" height="16" viewBox="0 0 16 16" fill="none" xmlns="http://www.w3.org/2000/svg">
<g opacity="0.9">
<path fill-rule="evenodd" clip-rule="evenodd" d="M9.5 3.5C9.5 4.32843 8.82843 5 8 5C7.767 5 7.54642 4.94688 7.34969 4.85208C7.45639 4.9035 7.57012 4.94266 7.68903 4.96773L3.66412 11.554C3.66191 11.5513 3.6597 11.5486 3.65747 11.5459C3.87146 11.8051 4 12.1376 4 12.5C4 13.3284 3.32843 14 2.5 14C1.67157 14 1 13.3284 1 12.5C1 11.6716 1.67157 11 2.5 11C2.60663 11 2.71064 11.0111 2.81097 11.0323L6.8359 4.44604C6.62589 4.18795 6.5 3.85868 6.5 3.5C6.5 2.67157 7.17157 2 8 2C8.82843 2 9.5 2.67157 9.5 3.5ZM8.5 3.5C8.5 3.77614 8.27614 4 8 4C7.72386 4 7.5 3.77614 7.5 3.5C7.5 3.22386 7.72386 3 8 3C8.27614 3 8.5 3.22386 8.5 3.5ZM2.5 13C2.77614 13 3 12.7761 3 12.5C3 12.2239 2.77614 12 2.5 12C2.22386 12 2 12.2239 2 12.5C2 12.7761 2.22386 13 2.5 13Z" fill="black"/>
<path fill-rule="evenodd" clip-rule="evenodd" d="M15 12.5C15 13.3284 14.3284 14 13.5 14C12.8469 14 12.2913 13.5826 12.0854 13H3.91466C3.96993 12.8436 4 12.6753 4 12.5C4 12.3247 3.96993 12.1564 3.91466 12H12.0854C12.1432 11.8364 12.2285 11.6859 12.3359 11.554L8.31098 4.96773C8.65267 4.8957 8.9515 4.70735 9.16412 4.44605L13.189 11.0323C13.2894 11.0111 13.3934 11 13.5 11C14.3284 11 15 11.6716 15 12.5ZM14 12.5C14 12.7761 13.7761 13 13.5 13C13.2239 13 13 12.7761 13 12.5C13 12.2239 13.2239 12 13.5 12C13.7761 12 14 12.2239 14 12.5Z" fill="black"/>
</g>
</svg>
