<svg width="32" height="32" viewBox="0 0 32 32" fill="none" xmlns="http://www.w3.org/2000/svg">
<g opacity="0.9">
<path fill-rule="evenodd" clip-rule="evenodd" d="M17.106 10.7896C16.7637 10.9254 16.3906 11 16 11C15.6094 11 15.2362 10.9254 14.894 10.7895L7.96078 22.2293C7.70894 22.0117 7.42051 21.8352 7.10596 21.7104L14.0392 10.2706C13.4027 9.72047 13 8.90727 13 8C13 6.34315 14.3431 5 16 5C17.6569 5 19 6.34315 19 8C19 8.90728 18.5972 9.7205 17.9608 10.2706L24.894 21.7105C25.2362 21.5746 25.6094 21.5 26 21.5C27.6569 21.5 29 22.8431 29 24.5C29 26.1569 27.6569 27.5 26 27.5C24.5135 27.5 23.2795 26.4188 23.0415 25H8.95859C8.98586 24.8374 9.00006 24.6703 9.00006 24.5C9.00006 24.3296 8.98586 24.1626 8.95858 24H23.0415C23.1595 23.2966 23.5223 22.6762 24.0392 22.2294L17.106 10.7896ZM18 8C18 9.10457 17.1046 10 16 10C14.8954 10 14 9.10457 14 8C14 6.89543 14.8954 6 16 6C17.1046 6 18 6.89543 18 8ZM26 26.5C27.1046 26.5 28 25.6046 28 24.5C28 23.3954 27.1046 22.5 26 22.5C24.8954 22.5 24 23.3954 24 24.5C24 25.6046 24.8954 26.5 26 26.5Z" fill="black"/>
<path fill-rule="evenodd" clip-rule="evenodd" d="M6 27.5C7.65685 27.5 9.00006 26.1569 9.00006 24.5C9.00006 22.8431 7.65685 21.5 6 21.5C4.34315 21.5 3 22.8431 3 24.5C3 26.1569 4.34315 27.5 6 27.5ZM6 26.5C7.10457 26.5 8 25.6046 8 24.5C8 23.3954 7.10457 22.5 6 22.5C4.89543 22.5 4 23.3954 4 24.5C4 25.6046 4.89543 26.5 6 26.5Z" fill="black"/>
</g>
</svg>
