<svg width="24" height="24" viewBox="0 0 24 24" fill="none" xmlns="http://www.w3.org/2000/svg">
<mask id="path-1-inside-1" fill="white">
<path fill-rule="evenodd" clip-rule="evenodd" d="M18.8411 9.95932C18.9762 9.40343 19.0479 8.82202 19.0479 8.22354C19.0479 8.19789 19.0478 8.17227 19.0476 8.14668C19.0478 8.10459 19.0479 8.0622 19.0476 8.01951C19.0468 8.01972 19.046 8.01993 19.0452 8.02013C18.9395 4.14213 15.8223 1.03149 11.9924 1.03149C8.16251 1.03149 5.04536 4.14194 4.93954 8.01978C4.93853 8.01969 4.93753 8.0196 4.93652 8.01951C4.93652 8.06016 4.93676 8.10053 4.93722 8.14062C4.93691 8.16822 4.93676 8.19586 4.93676 8.22354C4.93676 8.80585 5.00465 9.372 5.13281 9.91421C5.54595 11.7592 6.55188 12.9051 7.57535 14.071C8.05514 14.6175 8.53878 15.1685 8.96701 15.7979C8.98251 15.8207 8.99825 15.8436 9.01418 15.8668C9.20824 16.1496 9.42931 16.4717 9.55499 17.0114C9.68026 17.5493 10.1044 18.0042 10.6567 18.0042H11.9921C12.5177 18.0042 12.9647 18.0045 13.3558 18.0049C13.9081 18.0054 14.335 17.5534 14.426 17.0087C14.5279 16.3984 14.7258 16.1054 14.9194 15.8188C14.9241 15.8118 14.9288 15.8049 14.9335 15.7979C15.367 15.1555 15.8713 14.5932 16.3753 14.0313C16.687 13.6837 16.9986 13.3363 17.2932 12.9702C17.7552 12.4345 18.1403 11.8282 18.4309 11.1693C18.5974 10.799 18.737 10.3989 18.8411 9.95932Z"/>
</mask>
<path d="M18.8411 9.95932L17.8694 9.72308L17.868 9.72895L18.8411 9.95932ZM19.0476 8.14668L18.0476 8.13966L18.0475 8.14831L18.0476 8.15697L19.0476 8.14668ZM19.0476 8.01951L20.0476 8.01373L20.0402 6.73662L18.8022 7.05011L19.0476 8.01951ZM19.0452 8.02013L18.0456 8.04736L18.0796 9.29584L19.2904 8.9896L19.0452 8.02013ZM4.93954 8.01978L4.85104 9.01586L5.91016 9.10995L5.93916 8.04706L4.93954 8.01978ZM4.93652 8.01951L5.02496 7.02343L3.93652 6.92679V8.01951H4.93652ZM4.93722 8.14062L5.93716 8.1517L5.93728 8.1404L5.93715 8.12911L4.93722 8.14062ZM5.13281 9.91421L6.10871 9.69568L6.10599 9.68419L5.13281 9.91421ZM7.57535 14.071L8.32686 13.4113H8.32686L7.57535 14.071ZM8.96701 15.7979L8.14023 16.3604L8.14023 16.3604L8.96701 15.7979ZM9.01418 15.8668L8.18967 16.4327L8.18968 16.4327L9.01418 15.8668ZM9.55499 17.0114L8.58105 17.2382H8.58105L9.55499 17.0114ZM13.3558 18.0049L13.3549 19.0049H13.3549L13.3558 18.0049ZM14.426 17.0087L15.4123 17.1734L14.426 17.0087ZM14.9194 15.8188L14.0907 15.2591L14.0907 15.2591L14.9194 15.8188ZM14.9335 15.7979L15.7624 16.3573L15.7624 16.3573L14.9335 15.7979ZM16.3753 14.0313L17.1197 14.699L17.1197 14.699L16.3753 14.0313ZM17.2932 12.9702L16.5359 12.3171L16.5248 12.33L16.5141 12.3433L17.2932 12.9702ZM18.4309 11.1693L17.5188 10.7591L17.5159 10.7658L18.4309 11.1693ZM18.0479 8.22354C18.0479 8.74189 17.9859 9.244 17.8694 9.72308L19.8128 10.1956C19.9666 9.56285 20.0479 8.90215 20.0479 8.22354H18.0479ZM18.0476 8.15697C18.0478 8.17912 18.0479 8.20131 18.0479 8.22354H20.0479C20.0479 8.19447 20.0478 8.16542 20.0475 8.13639L18.0476 8.15697ZM18.0476 8.0253C18.0479 8.06374 18.0478 8.10186 18.0476 8.13966L20.0475 8.15371C20.0479 8.10732 20.0479 8.06067 20.0476 8.01373L18.0476 8.0253ZM19.2904 8.9896C19.2912 8.9894 19.2921 8.98916 19.2931 8.98892L18.8022 7.05011C18.8015 7.05027 18.8008 7.05045 18.8 7.05066L19.2904 8.9896ZM11.9924 2.03149C15.2619 2.03149 17.9541 4.69191 18.0456 8.04736L20.0448 7.9929C19.9249 3.59235 16.3827 0.0314941 11.9924 0.0314941V2.03149ZM5.93916 8.04706C6.03073 4.69175 8.72291 2.03149 11.9924 2.03149V0.0314941C7.6021 0.0314941 4.06 3.59214 3.93991 7.9925L5.93916 8.04706ZM4.84808 9.01559C4.85007 9.01577 4.84842 9.01562 4.85104 9.01586L5.02803 7.0237C5.02766 7.02367 5.02727 7.02364 5.02673 7.02359C5.02624 7.02354 5.02561 7.02349 5.02496 7.02343L4.84808 9.01559ZM5.93715 8.12911C5.93673 8.09288 5.93652 8.05635 5.93652 8.01951H3.93652C3.93652 8.06397 3.93678 8.10818 3.93728 8.15214L5.93715 8.12911ZM5.93676 8.22354C5.93676 8.19956 5.93689 8.17561 5.93716 8.1517L3.93728 8.12954C3.93693 8.16083 3.93676 8.19217 3.93676 8.22354H5.93676ZM6.10599 9.68419C5.99554 9.21687 5.93676 8.7279 5.93676 8.22354H3.93676C3.93676 8.88381 4.01376 9.52714 4.15962 10.1442L6.10599 9.68419ZM8.32686 13.4113C7.29766 12.2388 6.45992 11.2644 6.10864 9.69569L4.15697 10.1327C4.63199 12.254 5.80611 13.5714 6.82383 14.7307L8.32686 13.4113ZM9.7938 15.2354C9.32551 14.5471 8.80105 13.9514 8.32686 13.4113L6.82383 14.7307C7.30923 15.2836 7.75206 15.7899 8.14023 16.3604L9.7938 15.2354ZM9.83869 15.301C9.82255 15.2775 9.80796 15.2562 9.79379 15.2354L8.14023 16.3604C8.15706 16.3852 8.17395 16.4098 8.18967 16.4327L9.83869 15.301ZM10.5289 16.7846C10.3587 16.0534 10.0458 15.6028 9.83868 15.301L8.18968 16.4327C8.37064 16.6964 8.49996 16.89 8.58105 17.2382L10.5289 16.7846ZM10.6567 17.0042C10.6566 17.0042 10.658 17.0042 10.66 17.0046C10.662 17.005 10.6628 17.0055 10.6623 17.0052C10.6613 17.0048 10.6509 17.0001 10.634 16.9841C10.5964 16.9484 10.5508 16.8785 10.5289 16.7846L8.58105 17.2382C8.77589 18.0749 9.49798 19.0042 10.6567 19.0042V17.0042ZM11.9921 17.0042H10.6567V19.0042H11.9921V17.0042ZM13.3567 17.0049C12.9656 17.0045 12.5182 17.0042 11.9921 17.0042V19.0042C12.5173 19.0042 12.9639 19.0045 13.3549 19.0049L13.3567 17.0049ZM13.4397 16.8439C13.4278 16.915 13.395 16.967 13.3686 16.9925C13.3569 17.0038 13.3502 17.0065 13.3508 17.0063C13.3511 17.0061 13.3524 17.0057 13.3542 17.0053C13.3561 17.0049 13.3572 17.0049 13.3567 17.0049L13.3549 19.0049C14.508 19.0059 15.2607 18.0813 15.4123 17.1734L13.4397 16.8439ZM14.0907 15.2591C13.8656 15.5924 13.5763 16.0261 13.4397 16.8439L15.4123 17.1734C15.4495 16.9508 15.4992 16.8125 15.5447 16.7149C15.5936 16.61 15.6492 16.5249 15.7481 16.3785L14.0907 15.2591ZM14.1046 15.2386C14.1 15.2453 14.0954 15.2521 14.0907 15.2591L15.7481 16.3785C15.7528 16.3716 15.7576 16.3644 15.7624 16.3573L14.1046 15.2386ZM15.6308 13.3636C15.1337 13.9179 14.5827 14.53 14.1046 15.2386L15.7624 16.3573C16.1512 15.7811 16.6089 15.2685 17.1197 14.699L15.6308 13.3636ZM16.5141 12.3433C16.239 12.6851 15.9454 13.0128 15.6308 13.3636L17.1197 14.699C17.4286 14.3546 17.7581 13.9875 18.0723 13.5971L16.5141 12.3433ZM17.5159 10.7658C17.2655 11.3335 16.9338 11.8558 16.5359 12.3171L18.0504 13.6233C18.5766 13.0133 19.015 12.323 19.3459 11.5728L17.5159 10.7658ZM17.868 9.72895C17.779 10.1048 17.6602 10.4448 17.5189 10.7592L19.3429 11.5794C19.5346 11.1532 19.695 10.693 19.8142 10.1897L17.868 9.72895Z" fill="black" mask="url(#path-1-inside-1)"/>
<mask id="path-3-inside-2" fill="white">
<path d="M10 19.4917C10 19.2227 10.2181 19.0046 10.4871 19.0046H13.5129C13.7819 19.0046 14 19.2227 14 19.4917C14 19.7607 13.7819 19.9788 13.5129 19.9788H10.4871C10.2181 19.9788 10 19.7607 10 19.4917Z"/>
</mask>
<path d="M10.4871 20.0046H13.5129V18.0046H10.4871V20.0046ZM13.5129 18.9788H10.4871V20.9788H13.5129V18.9788ZM10.4871 18.9788C10.7704 18.9788 11 19.2085 11 19.4917H9C9 20.313 9.66579 20.9788 10.4871 20.9788V18.9788ZM13 19.4917C13 19.2085 13.2296 18.9788 13.5129 18.9788V20.9788C14.3342 20.9788 15 20.313 15 19.4917H13ZM13.5129 20.0046C13.2296 20.0046 13 19.775 13 19.4917H15C15 18.6704 14.3342 18.0046 13.5129 18.0046V20.0046ZM10.4871 18.0046C9.66579 18.0046 9 18.6704 9 19.4917H11C11 19.775 10.7704 20.0046 10.4871 20.0046V18.0046Z" fill="black" mask="url(#path-3-inside-2)"/>
<mask id="path-5-inside-3" fill="white">
<path d="M10.9922 21.4788C10.9922 21.2026 11.2161 20.9788 11.4922 20.9788H12.4922C12.7684 20.9788 12.9922 21.2026 12.9922 21.4788C12.9922 21.7549 12.7684 21.9788 12.4922 21.9788H11.4922C11.2161 21.9788 10.9922 21.7549 10.9922 21.4788Z"/>
</mask>
<path d="M11.4922 21.9788H12.4922V19.9788H11.4922V21.9788ZM12.4922 20.9788H11.4922V22.9788H12.4922V20.9788ZM11.4922 20.9788C11.7684 20.9788 11.9922 21.2026 11.9922 21.4788H9.99225C9.99225 22.3072 10.6638 22.9788 11.4922 22.9788V20.9788ZM11.9922 21.4788C11.9922 21.2026 12.2161 20.9788 12.4922 20.9788V22.9788C13.3207 22.9788 13.9922 22.3072 13.9922 21.4788H11.9922ZM12.4922 21.9788C12.2161 21.9788 11.9922 21.7549 11.9922 21.4788H13.9922C13.9922 20.6503 13.3207 19.9788 12.4922 19.9788V21.9788ZM11.4922 19.9788C10.6638 19.9788 9.99225 20.6503 9.99225 21.4788H11.9922C11.9922 21.7549 11.7684 21.9788 11.4922 21.9788V19.9788Z" fill="black" mask="url(#path-5-inside-3)"/>
<g opacity="0.9">
<path d="M12.838 10.2153C12.8238 10.6697 12.4513 11.0308 11.9966 11.0308C11.5415 11.0308 11.1689 10.6691 11.1552 10.2142L11.0299 6.02966C11.0135 5.48289 11.4523 5.03076 11.9993 5.03076C12.5469 5.03076 12.9858 5.48368 12.9687 6.03092L12.838 10.2153Z" fill="black"/>
<path d="M13 13.0308C13 13.583 12.5523 14.0308 12 14.0308C11.4477 14.0308 11 13.583 11 13.0308C11 12.4785 11.4477 12.0308 12 12.0308C12.5523 12.0308 13 12.4785 13 13.0308Z" fill="black"/>
</g>
</svg>
