<svg width="16" height="16" viewBox="0 0 16 16" fill="none" xmlns="http://www.w3.org/2000/svg">
<g opacity="0.9">
<path d="M5.5 7C6.05228 7 6.5 6.55228 6.5 6C6.5 5.44772 6.05228 5 5.5 5C4.94772 5 4.5 5.44772 4.5 6C4.5 6.55228 4.94772 7 5.5 7Z" fill="black"/>
<path d="M11.5 6C11.5 6.55228 11.0523 7 10.5 7C9.94771 7 9.5 6.55228 9.5 6C9.5 5.44772 9.94771 5 10.5 5C11.0523 5 11.5 5.44772 11.5 6Z" fill="black"/>
<path d="M8 9C7.04915 9 6.11181 9.20164 5.39523 9.58679C5.09704 9.74707 4.83735 9.93904 4.63259 10.1609C4.4453 10.3638 4.45796 10.6801 4.66087 10.8674C4.86379 11.0547 5.18012 11.042 5.36741 10.8391C5.48274 10.7142 5.64799 10.5862 5.86866 10.4676C6.40818 10.1776 7.17447 10 8 10C8.82554 10 9.59182 10.1776 10.1313 10.4676C10.352 10.5862 10.5173 10.7142 10.6326 10.8391C10.8199 11.042 11.1362 11.0547 11.3391 10.8674C11.542 10.6801 11.5547 10.3638 11.3674 10.1609C11.1627 9.93904 10.903 9.74707 10.6048 9.58679C9.8882 9.20164 8.95085 9 8 9Z" fill="black"/>
<path fill-rule="evenodd" clip-rule="evenodd" d="M8 1C4.13401 1 1 4.13401 1 8C1 11.866 4.13401 15 8 15C11.866 15 15 11.866 15 8C15 4.13401 11.866 1 8 1ZM2 8C2 4.68629 4.68629 2 8 2C11.3137 2 14 4.68629 14 8C14 11.3137 11.3137 14 8 14C4.68629 14 2 11.3137 2 8Z" fill="black"/>
</g>
</svg>
