<svg width="16" height="17" viewBox="0 0 16 17" fill="none" xmlns="http://www.w3.org/2000/svg">
<g clip-path="url(#clip0)">
<path opacity="0.9" fill-rule="evenodd" clip-rule="evenodd" d="M12.3258 12.5717C13.3664 11.4192 14 9.8921 14 8.21704C14 4.62719 11.0899 1.71704 7.5 1.71704C3.91015 1.71704 1 4.62719 1 8.21704C1 11.8069 3.91015 14.717 7.5 14.717C9.05892 14.717 10.4897 14.1682 11.6096 13.2533C11.6261 13.277 11.6449 13.2995 11.6661 13.3206L14.7089 16.3635C14.9042 16.5588 15.2208 16.5588 15.4161 16.3635C15.6113 16.1682 15.6113 15.8516 15.4161 15.6564L12.3732 12.6135C12.358 12.5984 12.3422 12.5844 12.3258 12.5717ZM7.5 4.71704C7.77614 4.71704 8 4.9409 8 5.21704V7.71704H10.5C10.7761 7.71704 11 7.9409 11 8.21704C11 8.49318 10.7761 8.71704 10.5 8.71704H8V11.217C8 11.4932 7.77614 11.717 7.5 11.717C7.22386 11.717 7 11.4932 7 11.217V8.71704H4.5C4.22386 8.71704 4 8.49318 4 8.21704C4 7.9409 4.22386 7.71704 4.5 7.71704H7V5.21704C7 4.9409 7.22386 4.71704 7.5 4.71704Z" fill="black"/>
</g>
<defs>
<clipPath id="clip0">
<rect width="16" height="16" fill="white" transform="translate(0 0.717041)"/>
</clipPath>
</defs>
</svg>
