<svg width="16" height="16" viewBox="0 0 16 16" fill="none" xmlns="http://www.w3.org/2000/svg">
<g opacity="0.9">
<path fill-rule="evenodd" clip-rule="evenodd" d="M4.5 5C3.11929 5 2 6.11929 2 7.5C2 8.88071 3.11929 10 4.5 10C5.58773 10 6.51444 9.30504 6.85787 8.33338C6.92849 8.13358 7.11739 8 7.32929 8H8.88197C9.03721 8 9.19032 8.03615 9.32918 8.10557L10 8.44098L10.5528 8.16459C10.8343 8.02383 11.1657 8.02383 11.4472 8.16459L12 8.44098L12.6708 8.10557C12.8097 8.03615 12.9628 8 13.118 8H13.7929L14.2929 7.5L13.7929 7M13.7929 7H7.32929C7.11739 7 6.92849 6.86642 6.85787 6.66662C6.51444 5.69496 5.58773 5 4.5 5M1 7.5C1 5.567 2.567 4 4.5 4C5.89684 4 7.10154 4.81804 7.66304 6H13.7929C14.0581 6 14.3125 6.10536 14.5 6.2929L15 6.79289C15.3905 7.18342 15.3905 7.81658 15 8.20711L14.5 8.70711C14.3125 8.89464 14.0581 9 13.7929 9H13.118L12.4472 9.33541C12.1657 9.47617 11.8343 9.47617 11.5528 9.33541L11 9.05902L10.4472 9.33541C10.1657 9.47617 9.83431 9.47617 9.55279 9.33541L8.88197 9H7.66303C7.10154 10.182 5.89684 11 4.5 11C2.567 11 1 9.433 1 7.5Z" fill="black"/>
<path d="M4 7.5C4 7.77614 3.77614 8 3.5 8C3.22386 8 3 7.77614 3 7.5C3 7.22386 3.22386 7 3.5 7C3.77614 7 4 7.22386 4 7.5Z" fill="black"/>
</g>
</svg>
