<svg width="24" height="24" viewBox="0 0 24 24" fill="none" xmlns="http://www.w3.org/2000/svg">
<path opacity="0.9" fill-rule="evenodd" clip-rule="evenodd" d="M2 12.5C2 9.46243 4.46243 7 7.5 7C9.63734 7 11.4899 8.21916 12.4003 10H20.7929C21.0581 10 21.3125 10.1054 21.5 10.2929L23 11.7929C23.3905 12.1834 23.3905 12.8166 23 13.2071L21.5 14.7071C21.3125 14.8946 21.0581 15 20.7929 15H19.7071L19.2071 15.5C18.8166 15.8905 18.1834 15.8905 17.7929 15.5L17.5 15.2071L17.2071 15.5C16.8166 15.8905 16.1834 15.8905 15.7929 15.5L15.2929 15H12.4003C11.4899 16.7808 9.63734 18 7.5 18C4.46243 18 2 15.5376 2 12.5ZM4 12.5C4 11.6716 4.67157 11 5.5 11C6.32843 11 7 11.6716 7 12.5C7 13.3284 6.32843 14 5.5 14C4.67157 14 4 13.3284 4 12.5Z" fill="black"/>
</svg>
