<svg width="32" height="32" viewBox="0 0 32 32" fill="none" xmlns="http://www.w3.org/2000/svg">
<g opacity="0.9">
<path d="M17.2461 18.0281C17.2309 18.5692 16.7878 19 16.2465 19H15.7429C15.2012 19 14.7579 18.5685 14.7433 18.0269L14.5277 10.0269C14.5125 9.46431 14.9645 9 15.5273 9H16.4715C17.0348 9 17.4869 9.46504 17.4711 10.0281L17.2461 18.0281Z" fill="black"/>
<path d="M17.5 22.5C17.5 23.3284 16.8284 24 16 24C15.1716 24 14.5 23.3284 14.5 22.5C14.5 21.6716 15.1716 21 16 21C16.8284 21 17.5 21.6716 17.5 22.5Z" fill="black"/>
<path fill-rule="evenodd" clip-rule="evenodd" d="M4 11.0298L11.0298 4H20.9702L28 11.0298V20.9709L20.9709 28H11.0291L4 20.9709V11.0298ZM5 20.5567V11.444L11.444 5H20.556L27 11.444V20.5567L20.5567 27H11.4433L5 20.5567Z" fill="black"/>
</g>
</svg>
