<svg width="24" height="24" viewBox="0 0 24 24" fill="none" xmlns="http://www.w3.org/2000/svg">
<path opacity="0.9" fill-rule="evenodd" clip-rule="evenodd" d="M13.0123 1.754C12.4409 1.22657 11.5612 1.22323 10.9859 1.74629L0.663684 11.1301C0.510835 11.269 0.459171 11.4877 0.533659 11.6804C0.608147 11.873 0.793451 12.0001 1.00002 12.0001H3.50002L3.50002 20.5001C3.50002 21.3285 4.17159 22.0001 5.00002 22.0001H9.50002C9.77616 22.0001 10 21.7762 10 21.5001V13.5001C10 13.2239 10.2239 13.0001 10.5 13.0001H13.5C13.7762 13.0001 14 13.2239 14 13.5001V21.5001C14 21.7762 14.2239 22.0001 14.5 22.0001H19C19.8284 22.0001 20.5 21.3285 20.5 20.5001L20.5 12.0001H23C23.2056 12.0001 23.3903 11.8742 23.4654 11.6828C23.5406 11.4914 23.4909 11.2736 23.3402 11.1337L20.1598 8.18038C20.0579 8.08577 20 7.95302 20 7.81398V4.50005C20 4.22391 19.7762 4.00005 19.5 4.00005H15.641C15.5153 4.00005 15.3942 3.95271 15.3019 3.86745L13.0123 1.754Z" fill="black"/>
</svg>
