<svg width="16" height="16" viewBox="0 0 16 16" fill="none" xmlns="http://www.w3.org/2000/svg">
<path opacity="0.9" d="M8.94583 1.12428C8.39473 0.676509 7.60516 0.676509 7.05406 1.12428L0.777641 6.22387C0.0469388 6.81756 0.466745 7.99998 1.40823 7.99998H1.99994V13.5C1.99994 14.3284 2.67152 15 3.49994 15H6.49994C6.77609 15 6.99994 14.7761 6.99994 14.5V9.49998C6.99994 9.22384 7.2238 8.99998 7.49994 8.99998H8.49994C8.77609 8.99998 8.99994 9.22384 8.99994 9.49998V14.5C8.99994 14.7761 9.2238 15 9.49994 15H12.4999C13.3284 15 13.9999 14.3284 13.9999 13.5V7.99998H14.5917C15.5331 7.99998 15.9529 6.81756 15.2222 6.22387L8.94583 1.12428Z" fill="black"/>
</svg>
