<svg width="16" height="16" viewBox="0 0 16 16" fill="none" xmlns="http://www.w3.org/2000/svg">
<g opacity="0.9">
<path d="M6.85357 3.14645C7.04883 3.34171 7.04883 3.65829 6.85357 3.85355L5.70712 5H11.5C11.7762 5 12 5.22386 12 5.5C12 5.77614 11.7762 6 11.5 6H5.70712L6.85357 7.14645C7.04883 7.34171 7.04883 7.65829 6.85357 7.85355C6.65831 8.04882 6.34172 8.04882 6.14646 7.85355L3.79291 5.5L6.14646 3.14645C6.34172 2.95118 6.65831 2.95118 6.85357 3.14645Z" fill="black"/>
<path d="M9.14643 8.85355C8.95117 8.65829 8.95117 8.34171 9.14643 8.14645C9.34169 7.95118 9.65828 7.95118 9.85354 8.14645L12.2071 10.5L9.85354 12.8536C9.65828 13.0488 9.34169 13.0488 9.14643 12.8536C8.95117 12.6583 8.95117 12.3417 9.14643 12.1464L10.2929 11H4.49999C4.22384 11 3.99999 10.7761 3.99999 10.5C3.99999 10.2239 4.22384 10 4.49999 10H10.2929L9.14643 8.85355Z" fill="black"/>
<path fill-rule="evenodd" clip-rule="evenodd" d="M1 8C1 4.13401 4.13401 1 8 1C11.866 1 15 4.13401 15 8C15 11.866 11.866 15 8 15C4.13401 15 1 11.866 1 8ZM8 2C4.68629 2 2 4.68629 2 8C2 11.3137 4.68629 14 8 14C11.3137 14 14 11.3137 14 8C14 4.68629 11.3137 2 8 2Z" fill="black"/>
</g>
</svg>
