<svg width="16" height="16" viewBox="0 0 16 16" fill="none" xmlns="http://www.w3.org/2000/svg">
<g opacity="0.9">
<path d="M7.38247 9.40007C7.34126 9.69072 7.58682 9.93011 7.88037 9.93011C8.17108 9.93011 8.39554 9.69249 8.4669 9.41067C8.51901 9.20489 8.60369 9.03462 8.72093 8.89987L9.29303 8.33065C9.76435 7.83513 10 7.33177 10 6.82056C10 6.24664 9.82481 5.79973 9.47442 5.47984C9.12714 5.15995 8.64187 5 8.01861 5C7.41396 5 6.92714 5.16151 6.55814 5.48454C6.32571 5.68975 6.16585 5.94179 6.07856 6.24066C5.99087 6.54093 6.25546 6.80175 6.56828 6.80175C6.87864 6.80175 7.10184 6.51999 7.29128 6.27415C7.31549 6.24274 7.34243 6.21318 7.3721 6.18548C7.53644 6.03181 7.75194 5.95497 8.01861 5.95497C8.29768 5.95497 8.50853 6.03338 8.65117 6.19019C8.7969 6.34386 8.86977 6.5681 8.86977 6.8629C8.86977 7.08557 8.80776 7.29256 8.68373 7.48387C8.60311 7.60932 8.41086 7.82101 8.10698 8.11895C7.80621 8.41375 7.60466 8.68504 7.50233 8.9328C7.4479 9.06459 7.40794 9.22035 7.38247 9.40007Z" fill="black"/>
<path d="M7.44187 10.9462C7.32714 11.0591 7.26977 11.2081 7.26977 11.3931C7.26977 11.5656 7.32404 11.7099 7.43256 11.8259C7.54419 11.942 7.70233 12 7.90698 12C8.11163 12 8.26977 11.942 8.3814 11.8259C8.49303 11.7099 8.54884 11.5656 8.54884 11.3931C8.54884 11.2144 8.49148 11.067 8.37675 10.9509C8.26202 10.8318 8.10543 10.7722 7.90698 10.7722C7.71163 10.7722 7.55659 10.8302 7.44187 10.9462Z" fill="black"/>
<path fill-rule="evenodd" clip-rule="evenodd" d="M8 1C4.13401 1 1 4.13401 1 8C1 11.866 4.13401 15 8 15C11.866 15 15 11.866 15 8C15 4.13401 11.866 1 8 1ZM2 8C2 4.68629 4.68629 2 8 2C11.3137 2 14 4.68629 14 8C14 11.3137 11.3137 14 8 14C4.68629 14 2 11.3137 2 8Z" fill="black"/>
</g>
</svg>
