<svg width="12" height="12" viewBox="0 0 12 12" fill="none" xmlns="http://www.w3.org/2000/svg">
<path opacity="0.9" fill-rule="evenodd" clip-rule="evenodd" d="M1 6C1 3.23858 3.23858 1 6 1C8.76142 1 11 3.23858 11 6C11 8.76142 8.76142 11 6 11C3.23858 11 1 8.76142 1 6ZM5.99987 4C5.60221 4 5.25777 4.23209 5.09646 4.57041C4.97762 4.81967 4.67921 4.9254 4.42995 4.80655C4.18069 4.68771 4.07497 4.3893 4.19381 4.14004C4.51477 3.46688 5.2023 3 5.99987 3C7.10444 3 7.99987 3.89543 7.99987 5C7.99987 5.44176 7.87416 5.78905 7.6555 6.0616C7.44969 6.31814 7.18716 6.47375 6.99323 6.5818C6.9513 6.60516 6.91321 6.62611 6.87851 6.6452C6.7271 6.72848 6.63923 6.77682 6.56929 6.83995C6.52026 6.88422 6.49987 6.91588 6.49987 7C6.49987 7.27614 6.27601 7.5 5.99987 7.5C5.72373 7.5 5.49987 7.27614 5.49987 7C5.49987 6.59866 5.66699 6.3073 5.89921 6.09767C6.06498 5.94802 6.27885 5.83204 6.4315 5.74925C6.45864 5.73453 6.48386 5.72086 6.50652 5.70823C6.68759 5.60735 6.80006 5.52986 6.8755 5.43583C6.93809 5.3578 6.99987 5.23705 6.99987 5C6.99987 4.44772 6.55216 4 5.99987 4ZM6.5 8.5C6.5 8.77614 6.27614 9 6 9C5.72386 9 5.5 8.77614 5.5 8.5C5.5 8.22386 5.72386 8 6 8C6.27614 8 6.5 8.22386 6.5 8.5Z" fill="black"/>
</svg>
