<svg width="32" height="32" viewBox="0 0 32 32" fill="none" xmlns="http://www.w3.org/2000/svg">
<g opacity="0.9">
<path d="M13.3536 5.35355C13.5488 5.15829 13.5488 4.84171 13.3536 4.64645C13.1583 4.45118 12.8417 4.45118 12.6464 4.64645L8.5 8.79289L6.85355 7.14645C6.65829 6.95118 6.34171 6.95118 6.14645 7.14645C5.95118 7.34171 5.95118 7.65829 6.14645 7.85355L8.14645 9.85355C8.34171 10.0488 8.65829 10.0488 8.85355 9.85355L13.3536 5.35355Z" fill="black"/>
<path d="M13.3536 12.6464C13.5488 12.8417 13.5488 13.1583 13.3536 13.3536L8.85355 17.8536C8.65829 18.0488 8.34171 18.0488 8.14645 17.8536L6.14645 15.8536C5.95118 15.6583 5.95118 15.3417 6.14645 15.1464C6.34171 14.9512 6.65829 14.9512 6.85355 15.1464L8.5 16.7929L12.6464 12.6464C12.8417 12.4512 13.1583 12.4512 13.3536 12.6464Z" fill="black"/>
<path d="M15.5 14C15.2239 14 15 14.2239 15 14.5C15 14.7761 15.2239 15 15.5 15H26.5C26.7761 15 27 14.7761 27 14.5C27 14.2239 26.7761 14 26.5 14H15.5Z" fill="black"/>
<path d="M15 22.5C15 22.2239 15.2239 22 15.5 22H26.5C26.7761 22 27 22.2239 27 22.5C27 22.7761 26.7761 23 26.5 23H15.5C15.2239 23 15 22.7761 15 22.5Z" fill="black"/>
<path d="M15 24.5C15 24.2239 15.2239 24 15.5 24H21.5C21.7761 24 22 24.2239 22 24.5C22 24.7761 21.7761 25 21.5 25H15.5C15.2239 25 15 24.7761 15 24.5Z" fill="black"/>
<path d="M15 16.5C15 16.2239 15.2239 16 15.5 16H21.5C21.7761 16 22 16.2239 22 16.5C22 16.7761 21.7761 17 21.5 17H15.5C15.2239 17 15 16.7761 15 16.5Z" fill="black"/>
<path fill-rule="evenodd" clip-rule="evenodd" d="M7 21C6.44772 21 6 21.4477 6 22V26C6 26.5523 6.44772 27 7 27H11C11.5523 27 12 26.5523 12 26V22C12 21.4477 11.5523 21 11 21H7ZM7 22H11V26H7V22Z" fill="black"/>
<path d="M15 6.5C15 6.22386 15.2239 6 15.5 6H26C26.2761 6 26.5 6.22386 26.5 6.5C26.5 6.77614 26.2761 7 26 7H15.5C15.2239 7 15 6.77614 15 6.5Z" fill="black"/>
<path d="M15.5 8C15.2239 8 15 8.22386 15 8.5C15 8.77614 15.2239 9 15.5 9H21C21.2761 9 21.5 8.77614 21.5 8.5C21.5 8.22386 21.2761 8 21 8H15.5Z" fill="black"/>
</g>
</svg>
