<svg width="32" height="32" viewBox="0 0 32 32" fill="none" xmlns="http://www.w3.org/2000/svg">
<path d="M13.3536 5.35355C13.5488 5.15829 13.5488 4.84171 13.3536 4.64645C13.1583 4.45118 12.8417 4.45118 12.6464 4.64645L8.5 8.79289L6.85355 7.14645C6.65829 6.95118 6.34171 6.95118 6.14645 7.14645C5.95118 7.34171 5.95118 7.65829 6.14645 7.85355L8.14645 9.85355C8.34171 10.0488 8.65829 10.0488 8.85355 9.85355L13.3536 5.35355Z" fill="black"/>
<path d="M13.3536 12.6464C13.5488 12.8417 13.5488 13.1583 13.3536 13.3536L8.85355 17.8536C8.65829 18.0488 8.34171 18.0488 8.14645 17.8536L6.14645 15.8536C5.95118 15.6583 5.95118 15.3417 6.14645 15.1464C6.34171 14.9512 6.65829 14.9512 6.85355 15.1464L8.5 16.7929L12.6464 12.6464C12.8417 12.4512 13.1583 12.4512 13.3536 12.6464Z" fill="black"/>
<path d="M16 13C15.4477 13 15 13.4477 15 14C15 14.5523 15.4477 15 16 15H27C27.5523 15 28 14.5523 28 14C28 13.4477 27.5523 13 27 13H16Z" fill="black"/>
<path d="M15 22C15 21.4477 15.4477 21 16 21H27C27.5523 21 28 21.4477 28 22C28 22.5523 27.5523 23 27 23H16C15.4477 23 15 22.5523 15 22Z" fill="black"/>
<path d="M15 25C15 24.4477 15.4477 24 16 24H22C22.5523 24 23 24.4477 23 25C23 25.5523 22.5523 26 22 26H16C15.4477 26 15 25.5523 15 25Z" fill="black"/>
<path d="M15 17C15 16.4477 15.4477 16 16 16H22C22.5523 16 23 16.4477 23 17C23 17.5523 22.5523 18 22 18H16C15.4477 18 15 17.5523 15 17Z" fill="black"/>
<path fill-rule="evenodd" clip-rule="evenodd" d="M7 21C6.44772 21 6 21.4477 6 22V26C6 26.5523 6.44772 27 7 27H11C11.5523 27 12 26.5523 12 26V22C12 21.4477 11.5523 21 11 21H7ZM7 22H11V26H7V22Z" fill="black"/>
<path d="M15 6C15 5.44772 15.4477 5 16 5H27C27.5523 5 28 5.44772 28 6C28 6.55228 27.5523 7 27 7H16C15.4477 7 15 6.55228 15 6Z" fill="black"/>
<path d="M16 8C15.4477 8 15 8.44772 15 9C15 9.55228 15.4477 10 16 10H21.5C22.0523 10 22.5 9.55228 22.5 9C22.5 8.44772 22.0523 8 21.5 8H16Z" fill="black"/>
</svg>
