<svg width="32" height="32" viewBox="0 0 32 32" fill="none" xmlns="http://www.w3.org/2000/svg">
<path opacity="0.9" fill-rule="evenodd" clip-rule="evenodd" d="M21.4267 4.55868C21.8064 4.17893 22.3742 4.02008 22.908 4.20136C23.3133 4.33902 23.8892 4.55395 24.4665 4.83596C25.0367 5.11446 25.6437 5.47514 26.0843 5.91582C26.525 6.35649 26.8857 6.96343 27.1642 7.53362C27.4462 8.11098 27.6611 8.68686 27.7988 9.09219C27.9801 9.62598 27.8212 10.1937 27.4415 10.5735L25.611 12.4039L19.5962 6.38913L21.4267 4.55868ZM18.8891 7.09624L4.7176 21.2677C6.07274 21.8745 7.13573 22.481 8.02501 23.2679L21.5429 9.75004L18.8891 7.09624ZM4 22.0443V28.0001H9.95753C9.23633 26.3055 8.55196 25.1852 7.68283 24.318C6.78595 23.423 5.6597 22.7645 4 22.0443ZM10.7351 27.2798L24.9039 13.111L22.25 10.4571L8.73285 23.9743C9.50196 24.8397 10.1236 25.8963 10.7351 27.2798Z" fill="black"/>
</svg>
