<svg width="24" height="24" viewBox="0 0 24 24" fill="none" xmlns="http://www.w3.org/2000/svg">
<path opacity="0.9" fill-rule="evenodd" clip-rule="evenodd" d="M2 17.1461V21.8728H6.81515C6.75673 21.6856 6.68412 21.4717 6.59583 21.2421C6.29432 20.4582 5.82519 19.5324 5.14645 18.8537C4.46771 18.1749 3.54192 17.7058 2.75801 17.4043C2.47454 17.2953 2.21491 17.2101 2 17.1461ZM7.67615 21.2884L18.9482 10.0163L16.7699 7.93733L6.19101 18.5162C6.82362 19.2728 7.25233 20.1633 7.52917 20.8831C7.58348 21.0243 7.63237 21.1601 7.67615 21.2884ZM13.715 5.06605L2.52051 16.2606C2.70216 16.319 2.90336 16.3888 3.11699 16.4709C3.83677 16.7478 4.72729 17.1765 5.4839 17.8091L16.0431 7.24995L13.715 5.06605ZM19.6524 9.30597L14.4307 4.36626L16.4589 2.3501C16.7318 2.07883 17.1357 1.98903 17.4819 2.15687C18.0976 2.45532 19.1103 3.03355 20.0385 3.96166C20.9556 4.87883 21.478 5.81444 21.7399 6.38417C21.892 6.71501 21.8015 7.09374 21.5478 7.35491L19.6524 9.30597Z" fill="black"/>
</svg>
