<svg width="16" height="16" viewBox="0 0 16 16" fill="none" xmlns="http://www.w3.org/2000/svg">
<g opacity="0.9">
<path fill-rule="evenodd" clip-rule="evenodd" d="M8 10C9.10457 10 10 9.10457 10 8C10 6.89543 9.10457 6 8 6C6.89543 6 6 6.89543 6 8C6 9.10457 6.89543 10 8 10ZM8 9C8.55228 9 9 8.55228 9 8C9 7.44772 8.55228 7 8 7C7.44772 7 7 7.44772 7 8C7 8.55228 7.44772 9 8 9Z" fill="black"/>
<path fill-rule="evenodd" clip-rule="evenodd" d="M1 8C1 4.13401 4.13401 1 8 1C11.866 1 15 4.13401 15 8C15 11.866 11.866 15 8 15C4.13401 15 1 11.866 1 8ZM13.3723 7.66621C13.5423 7.85607 13.542 8.14424 13.372 8.3341L13.3713 8.33489L13.3692 8.33715L13.3627 8.34435L13.3399 8.36902C13.3204 8.38989 13.2925 8.41941 13.2565 8.45635C13.1846 8.53019 13.0802 8.63387 12.9469 8.75743C12.6806 9.0041 12.2959 9.33248 11.8197 9.6614C10.8769 10.3126 9.52622 11 7.99999 11C6.47377 11 5.12311 10.3126 4.18029 9.6614C3.70412 9.33248 3.31942 9.0041 3.05313 8.75743C2.91974 8.63387 2.8154 8.53019 2.74345 8.45635C2.70747 8.41941 2.67954 8.38989 2.66008 8.36902L2.63729 8.34435L2.63075 8.33715L2.62871 8.33489L2.6275 8.33354C2.45749 8.14368 2.45799 7.85576 2.628 7.6659L2.62871 7.66511L2.63075 7.66285L2.63729 7.65565L2.66008 7.63098C2.67954 7.61011 2.70747 7.58059 2.74345 7.54365C2.8154 7.46981 2.91974 7.36613 3.05313 7.24257C3.31942 6.9959 3.70412 6.66752 4.18029 6.3386C5.12311 5.68735 6.47377 5 7.99999 5C9.52622 5 10.8769 5.68735 11.8197 6.3386C12.2959 6.66752 12.6806 6.9959 12.9469 7.24257C13.0802 7.36613 13.1846 7.46981 13.2565 7.54365C13.2925 7.58059 13.3204 7.61011 13.3399 7.63098L13.3627 7.65565L13.3692 7.66285L13.3713 7.66511L13.3723 7.66621Z" fill="black"/>
</g>
</svg>
