<svg width="16" height="16" viewBox="0 0 16 16" fill="none" xmlns="http://www.w3.org/2000/svg">
<g opacity="0.9">
<path d="M8 9C8.55228 9 9 8.55228 9 8C9 7.44772 8.55228 7 8 7C7.44772 7 7 7.44772 7 8C7 8.55228 7.44772 9 8 9Z" fill="black"/>
<path fill-rule="evenodd" clip-rule="evenodd" d="M13.372 8.3341C13.542 8.14424 13.5423 7.85607 13.3723 7.66621L13.3713 7.66511L13.3692 7.66285L13.3627 7.65565L13.3399 7.63098C13.3204 7.61011 13.2925 7.58059 13.2565 7.54365C13.1846 7.46981 13.0802 7.36613 12.9469 7.24257C12.6806 6.9959 12.2959 6.66752 11.8197 6.3386C10.8769 5.68735 9.52622 5 7.99999 5C6.47377 5 5.12311 5.68735 4.18029 6.3386C3.70412 6.66752 3.31942 6.9959 3.05313 7.24257C2.91974 7.36613 2.8154 7.46981 2.74345 7.54365C2.70747 7.58059 2.67954 7.61011 2.66008 7.63098L2.63729 7.65565L2.63075 7.66285L2.62871 7.66511L2.628 7.6659C2.45799 7.85576 2.45749 8.14368 2.6275 8.33354C2.6275 8.33354 2.6275 8.33354 2.99999 8L2.6275 8.33354L2.62871 8.33489L2.63075 8.33715L2.63729 8.34435L2.66008 8.36902C2.67954 8.38989 2.70747 8.41941 2.74345 8.45635C2.8154 8.53019 2.91974 8.63387 3.05313 8.75743C3.31942 9.0041 3.70412 9.33248 4.18029 9.6614C5.12311 10.3126 6.47377 11 7.99999 11C9.52622 11 10.8769 10.3126 11.8197 9.6614C12.2959 9.33248 12.6806 9.0041 12.9469 8.75743C13.0802 8.63387 13.1846 8.53019 13.2565 8.45635C13.2925 8.41941 13.3204 8.38989 13.3399 8.36902L13.3627 8.34435L13.3692 8.33715L13.3713 8.33489L13.372 8.3341ZM3.70709 8L3.7327 8.02382C3.97244 8.2459 4.31998 8.54252 4.74863 8.8386C5.61545 9.43735 6.7648 10 7.99999 10C9.23519 10 10.3845 9.43735 11.2514 8.8386C11.68 8.54252 12.0275 8.2459 12.2673 8.02382L12.2929 8L12.2673 7.97618C12.0275 7.7541 11.68 7.45748 11.2514 7.1614C10.3845 6.56265 9.23519 6 7.99999 6C6.7648 6 5.61545 6.56265 4.74863 7.1614C4.31998 7.45748 3.97244 7.7541 3.7327 7.97618L3.70709 8ZM13 8C13.3725 7.66646 13.3723 7.66621 13.3723 7.66621L13 8ZM2.628 7.6659C2.628 7.6659 2.6275 7.66646 2.99999 8L2.628 7.6659ZM13.372 8.3341C13.372 8.3341 13.3725 8.33354 13 8L13.372 8.3341Z" fill="black"/>
<path fill-rule="evenodd" clip-rule="evenodd" d="M8 1C4.13401 1 1 4.13401 1 8C1 11.866 4.13401 15 8 15C11.866 15 15 11.866 15 8C15 4.13401 11.866 1 8 1ZM2 8C2 4.68629 4.68629 2 8 2C11.3137 2 14 4.68629 14 8C14 11.3137 11.3137 14 8 14C4.68629 14 2 11.3137 2 8Z" fill="black"/>
</g>
</svg>
