<svg width="32" height="32" viewBox="0 0 32 32" fill="none" xmlns="http://www.w3.org/2000/svg">
<path opacity="0.9" fill-rule="evenodd" clip-rule="evenodd" d="M8 4.5L8.00001 27.5C8.00001 27.7761 8.22387 28 8.50001 28C8.77615 28 9.00001 27.7761 9.00001 27.5L9 17H16V20.5C16 21.4778 16.5 22 17.9118 22L24.365 22C25.2128 22 25.676 21.0111 25.1332 20.3598L21.5 16L25.1332 11.6402C25.676 10.9889 25.2136 10 24.3657 10H18.5V6C18.5 5.44772 18.0523 5 17.5 5H9L9 4.5C9 4.22386 8.77614 4 8.5 4C8.22386 4 8 4.22386 8 4.5Z" fill="black"/>
</svg>
