<svg width="32" height="32" viewBox="0 0 32 32" fill="none" xmlns="http://www.w3.org/2000/svg">
<path opacity="0.9" fill-rule="evenodd" clip-rule="evenodd" d="M8 4.5L8.00001 27.5C8.00001 27.7761 8.22387 28 8.50001 28C8.77615 28 9.00001 27.7761 9.00001 27.5L9 18H16L16 21C16 21.5709 16.1482 22.1166 16.6052 22.4998C17.0407 22.8649 17.6626 23 18.4118 23H24.865C26.1367 23 26.8315 21.5167 26.0173 20.5397L22.6509 16.5L26.0173 12.4603C26.831 11.4839 26.1382 10 24.8657 10H19V6.5C19 5.67157 18.3284 5 17.5 5H9L9 4.5C9 4.22386 8.77614 4 8.5 4C8.22386 4 8 4.22386 8 4.5ZM17 19.6967V18H17.2143C17.4185 18 17.6345 18.0783 17.7943 18.2006C17.9611 18.3283 18 18.4468 18 18.5C18 18.9117 17.8994 19.1199 17.7999 19.2419C17.6908 19.3758 17.5332 19.4693 17.3001 19.5709C17.2625 19.5873 17.219 19.6052 17.1715 19.6248C17.1184 19.6466 17.0604 19.6705 17 19.6967ZM24.8657 11H19V18.5C19 19.0883 18.8506 19.5357 18.5751 19.8737C18.3092 20.1999 17.9668 20.3711 17.6999 20.4875C17.6134 20.5252 17.539 20.5562 17.4737 20.5834C17.3068 20.6528 17.1996 20.6974 17.1075 20.7647C17.06 20.7994 17.0394 20.8263 17.0279 20.8479C17.0169 20.8688 17 20.9118 17 21C17 21.4069 17.1019 21.6112 17.2477 21.7335C17.4152 21.8739 17.7492 22 18.4118 22H24.865C25.2889 22 25.5205 21.5056 25.2491 21.1799L21.3492 16.5L25.2491 11.8201C25.5209 11.4939 25.2889 11 24.8657 11ZM18 6.5V17.1694C17.7578 17.0624 17.4883 17 17.2143 17H9.00001V6H17.5C17.7762 6 18 6.22386 18 6.5Z" fill="black"/>
</svg>
