<svg width="24" height="24" viewBox="0 0 24 24" fill="none" xmlns="http://www.w3.org/2000/svg">
<path opacity="0.9" fill-rule="evenodd" clip-rule="evenodd" d="M2 6.5C2 5.11929 3.11929 4 4.5 4H19.5C20.8807 4 22 5.11929 22 6.5V16.5C22 17.8807 20.8807 19 19.5 19H14V19.191L15.7236 20.0528C15.931 20.1565 16.0399 20.3892 15.9866 20.6149C15.9333 20.8406 15.7319 21 15.5 21H8.49999C8.2681 21 8.06664 20.8406 8.01336 20.6149C7.96009 20.3892 8.06897 20.1565 8.27638 20.0528L9.99999 19.191V19H4.5C3.11929 19 2 17.8807 2 16.5V6.5ZM11 19H13V19.5C13 19.6894 13.107 19.8625 13.2764 19.9472L13.382 20H10.618L10.7236 19.9472C10.893 19.8625 11 19.6894 11 19.5V19ZM19.5 18H4.5C3.84689 18 3.29127 17.5826 3.08535 17H20.9146C20.7087 17.5826 20.1531 18 19.5 18ZM21 16H3V6.5C3 5.67157 3.67157 5 4.5 5H19.5C20.3284 5 21 5.67157 21 6.5V16Z" fill="black"/>
</svg>
