<svg width="24" height="24" viewBox="0 0 24 24" fill="none" xmlns="http://www.w3.org/2000/svg">
<path opacity="0.9" fill-rule="evenodd" clip-rule="evenodd" d="M4.5 4C3.11929 4 2 5.11929 2 6.5V16.5C2 17.8807 3.11929 19 4.5 19H10V19.191L8.2764 20.0528C8.06899 20.1565 7.9601 20.3892 8.01338 20.6149C8.06666 20.8406 8.26811 21 8.5 21H15.5C15.7319 21 15.9333 20.8406 15.9866 20.6149C16.0399 20.3892 15.931 20.1565 15.7236 20.0528L14 19.191V19H19.5C20.8807 19 22 17.8807 22 16.5V6.5C22 5.11929 20.8807 4 19.5 4H4.5ZM21 16V6.5C21 5.67157 20.3284 5 19.5 5H4.5C3.67157 5 3 5.67157 3 6.5V16H21Z" fill="black"/>
</svg>
