<svg width="24" height="25" viewBox="0 0 24 25" fill="none" xmlns="http://www.w3.org/2000/svg">
<g opacity="0.9">
<path fill-rule="evenodd" clip-rule="evenodd" d="M4.56499 12.341C5.71036 12.341 6.94064 10.8194 6.94064 9.25594C6.94064 7.69244 5.87701 6.67908 4.56499 6.67908C3.25296 6.67908 2.18933 7.69241 2.18933 9.25594C2.19038 10.8194 3.38291 12.341 4.56499 12.341Z" fill="black"/>
<path fill-rule="evenodd" clip-rule="evenodd" d="M19.434 12.341C20.5794 12.341 21.8097 10.8194 21.8097 9.25594C21.8097 7.69244 20.746 6.67908 19.434 6.67908C18.122 6.67908 17.0583 7.69241 17.0583 9.25594C17.0583 10.8195 18.2509 12.341 19.434 12.341Z" fill="black"/>
<path fill-rule="evenodd" clip-rule="evenodd" d="M12.0398 12.9417C13.7961 12.9417 15.6823 10.608 15.6823 8.21027C15.6823 5.81253 14.0518 4.25867 12.0398 4.25867C10.0288 4.25867 8.39722 5.8117 8.39722 8.21027C8.39722 10.6079 10.2258 12.9417 12.0398 12.9417Z" fill="black"/>
<path fill-rule="evenodd" clip-rule="evenodd" d="M18.5559 17.0242C18.1158 16.1513 17.7952 15.7122 17.1968 15.0908C16.6801 14.5532 15.1376 13.7966 14.1431 14.1299C13.3488 14.3038 13.3121 14.7607 12.0399 14.7607C10.7688 14.7607 10.73 14.3038 9.93672 14.1299C8.9412 13.7966 7.3997 14.5532 6.88302 15.0908C6.28464 15.7122 5.96398 16.1523 5.52491 17.0242C5.30379 17.4623 4.84374 18.7376 5.12983 19.2867C5.49137 19.9815 6.36952 20.2686 8.78606 20.5641C10.2332 20.7412 12.041 20.7412 12.041 20.7412C12.041 20.7412 13.8476 20.7412 15.2959 20.5641C17.7124 20.2686 18.5905 19.9815 18.9521 19.2867C19.2372 18.7376 18.7771 17.4612 18.556 17.0242H18.5559Z" fill="black"/>
<path fill-rule="evenodd" clip-rule="evenodd" d="M23.6834 15.0028C23.3973 14.4338 23.1877 14.1477 22.7979 13.7421C22.4605 13.3921 21.4555 12.8986 20.8069 13.1155C20.2881 13.2287 20.2651 13.5273 19.4351 13.5273C18.6062 13.5273 18.5811 13.2297 18.0634 13.1155C17.5415 12.9415 16.7901 13.2255 16.3406 13.5263C16.9599 13.7809 17.5101 14.1351 17.837 14.4757C18.5171 15.183 18.8849 15.7049 19.3492 16.625C19.4393 16.8031 19.5598 17.0913 19.6688 17.4256C20.0586 17.4193 20.8687 17.3963 21.5561 17.3124C23.1322 17.1196 23.7054 16.932 23.9412 16.4793C24.1267 16.1209 23.827 15.2878 23.6834 15.0028L23.6834 15.0028Z" fill="black"/>
<path fill-rule="evenodd" clip-rule="evenodd" d="M4.73156 16.6251C5.1958 15.705 5.56258 15.1821 6.24371 14.4758C6.56228 14.1446 7.0915 13.8009 7.69089 13.5473C7.24551 13.2393 6.4711 12.9375 5.9377 13.1166C5.42002 13.2298 5.39593 13.5285 4.567 13.5285C3.73703 13.5285 3.71294 13.2309 3.19526 13.1166C2.54554 12.8997 1.54058 13.3933 1.20315 13.7433C0.813331 14.1488 0.604778 14.4349 0.316604 15.0039C0.173037 15.289 -0.126657 16.121 0.0588133 16.4794C0.294598 16.9332 0.867805 17.1197 2.44284 17.3125C3.17953 17.4027 4.05769 17.4226 4.4077 17.4268C4.5565 16.9803 4.71578 16.6565 4.7315 16.6251L4.73156 16.6251Z" fill="black"/>
</g>
</svg>
