<svg width="24" height="24" viewBox="0 0 24 24" fill="none" xmlns="http://www.w3.org/2000/svg">
<g clip-path="url(#clip0)">
<g opacity="0.9">
<path d="M11.5 3C6.80558 3 3 6.80558 3 11.5C3 16.1944 6.80558 20 11.5 20C11.6942 20 12.0591 19.9999 12.4051 19.9803C12.5788 19.9704 12.7374 19.9562 12.8619 19.9367C12.9436 19.9239 12.9874 19.9121 13.005 19.9074C13.0114 19.9057 13.0143 19.9049 13.0145 19.9053C13.0146 19.9056 13.013 19.9066 13.0099 19.9085C13.2414 19.7676 13.5442 19.837 13.6909 20.0664C13.8396 20.2991 13.7716 20.6083 13.539 20.757C13.3763 20.861 13.16 20.9023 13.0163 20.9247C12.8454 20.9514 12.65 20.968 12.4617 20.9787C12.0856 21 11.6962 21 11.5028 21H11.5C6.25329 21 2 16.7467 2 11.5C2 6.25329 6.25329 2 11.5 2C16.7467 2 21 6.25329 21 11.5C21 11.7761 20.7761 12 20.5 12C20.2239 12 20 11.7761 20 11.5C20 6.80558 16.1944 3 11.5 3Z" fill="black"/>
<path fill-rule="evenodd" clip-rule="evenodd" d="M6 10H9V11H14.0854C14.2913 10.4174 14.8469 10 15.5 10C16.3284 10 17 10.6716 17 11.5C17 12.3284 16.3284 13 15.5 13C14.8469 13 14.2913 12.5826 14.0854 12H9V13H6V10ZM7 12H8V11H7V12ZM15.5 11C15.2239 11 15 11.2239 15 11.5C15 11.7761 15.2239 12 15.5 12C15.7761 12 16 11.7761 16 11.5C16 11.2239 15.7761 11 15.5 11Z" fill="black"/>
<path d="M17.7765 20.5143C17.7344 20.8594 18.021 21.1454 18.3686 21.1454C18.7121 21.1454 18.9808 20.8642 19.0429 20.5263C19.1153 20.1328 19.2629 19.8124 19.4857 19.5652L20.2249 18.8328C20.9573 18.0642 21.3236 17.2843 21.3236 16.4931C21.3236 15.6928 21.0839 15.0644 20.6047 14.6078C20.13 14.1466 19.4654 13.916 18.6109 13.916C17.788 13.916 17.1189 14.1421 16.6035 14.5942C16.247 14.9065 16.0127 15.2881 15.9005 15.7391C15.8167 16.0762 16.1074 16.3642 16.4547 16.3642C16.7991 16.3642 17.056 16.0693 17.2062 15.7595C17.2756 15.6165 17.373 15.4903 17.4987 15.3809C17.779 15.1367 18.1497 15.0147 18.6109 15.0147C19.0856 15.0147 19.4473 15.1503 19.6959 15.4216C19.9446 15.6883 20.0689 16.059 20.0689 16.5338C20.0689 17.0266 19.879 17.4877 19.4993 17.9172L18.6109 18.8328C18.2627 19.2126 18.0322 19.5584 17.9191 19.8704C17.8547 20.0483 17.8071 20.2629 17.7765 20.5143Z" fill="black"/>
<path d="M17.8649 22.7865C17.7428 22.9222 17.6818 23.0917 17.6818 23.2952C17.6818 23.4986 17.7428 23.6682 17.8649 23.8038C17.9915 23.9349 18.1768 24.0005 18.421 24.0005C18.6651 24.0005 18.8505 23.9349 18.9771 23.8038C19.1037 23.6682 19.167 23.4986 19.167 23.2952C19.167 23.0917 19.1037 22.9222 18.9771 22.7865C18.8505 22.6464 18.6651 22.5763 18.421 22.5763C18.1768 22.5763 17.9915 22.6464 17.8649 22.7865Z" fill="black"/>
</g>
</g>
<defs>
<clipPath id="clip0">
<rect width="24" height="24" fill="white"/>
</clipPath>
</defs>
</svg>
