<svg width="24" height="24" viewBox="0 0 24 24" fill="none" xmlns="http://www.w3.org/2000/svg">
<g clip-path="url(#clip0)">
<g opacity="0.9">
<path d="M2 11.5C2 6.25329 6.25329 2 11.5 2C16.7467 2 21 6.25329 21 11.5C21 11.5332 20.9998 11.5663 20.9995 11.5995C20.2495 11.2162 19.4 11 18.5 11C17.9701 11 17.4578 11.0749 16.9729 11.2148C16.8397 10.5228 16.2309 10 15.5 10C14.8469 10 14.2913 10.4174 14.0854 11H9V10.5C9 10.2239 8.77614 10 8.5 10H6.5C6.22386 10 6 10.2239 6 10.5V12.5C6 12.7761 6.22386 13 6.5 13H8.5C8.77614 13 9 12.7761 9 12.5V12H14.0854C14.1785 12.2637 14.3434 12.4935 14.5565 12.6661C13.5932 13.6568 13 15.0091 13 16.5C13 18.0528 13.6435 19.4552 14.6783 20.4553C13.6845 20.808 12.6147 21 11.5 21C6.25329 21 2 16.7467 2 11.5Z" fill="black"/>
<path d="M17.7767 20.5143C17.7347 20.8594 18.0212 21.1454 18.3688 21.1454C18.7124 21.1454 18.981 20.8642 19.0432 20.5263C19.1156 20.1328 19.2632 19.8124 19.486 19.5652L20.2252 18.8328C20.9576 18.0642 21.3238 17.2843 21.3238 16.4931C21.3238 15.6928 21.0842 15.0644 20.6049 14.6078C20.1302 14.1466 19.4656 13.916 18.6111 13.916C17.7883 13.916 17.1191 14.1421 16.6037 14.5942C16.2472 14.9065 16.0129 15.2881 15.9008 15.7391C15.817 16.0762 16.1077 16.3642 16.455 16.3642C16.7993 16.3642 17.0563 16.0693 17.2065 15.7595C17.2758 15.6165 17.3733 15.4903 17.4989 15.3809C17.7792 15.1367 18.1499 15.0147 18.6111 15.0147C19.0858 15.0147 19.4475 15.1503 19.6962 15.4216C19.9449 15.6883 20.0692 16.059 20.0692 16.5338C20.0692 17.0266 19.8793 17.4877 19.4995 17.9172L18.6111 18.8328C18.263 19.2126 18.0324 19.5584 17.9194 19.8704C17.8549 20.0483 17.8074 20.2629 17.7767 20.5143Z" fill="black"/>
<path d="M17.8651 22.7865C17.743 22.9222 17.682 23.0917 17.682 23.2952C17.682 23.4986 17.743 23.6682 17.8651 23.8038C17.9917 23.9349 18.1771 24.0005 18.4212 24.0005C18.6654 24.0005 18.8507 23.9349 18.9773 23.8038C19.1039 23.6682 19.1672 23.4986 19.1672 23.2952C19.1672 23.0917 19.1039 22.9222 18.9773 22.7865C18.8507 22.6464 18.6654 22.5763 18.4212 22.5763C18.1771 22.5763 17.9917 22.6464 17.8651 22.7865Z" fill="black"/>
</g>
</g>
<defs>
<clipPath id="clip0">
<rect width="24" height="24" fill="white"/>
</clipPath>
</defs>
</svg>
