<svg width="16" height="16" viewBox="0 0 16 16" fill="none" xmlns="http://www.w3.org/2000/svg">
<g opacity="0.9">
<path d="M2 7.5C2 4.46243 4.46243 2 7.5 2C10.369 2 12.725 4.19678 12.9776 7.00007L13 7C13.3414 7 13.6729 7.04278 13.9893 7.12327C13.7941 3.70874 10.9634 1 7.5 1C3.91015 1 1 3.91015 1 7.5C1 11.0899 3.91015 14 7.5 14C7.77614 14 8 13.7761 8 13.5C8 13.2239 7.77614 13 7.5 13C4.46243 13 2 10.5376 2 7.5Z" fill="black"/>
<path fill-rule="evenodd" clip-rule="evenodd" d="M10.5 6C11.2035 6 11.7939 6.48427 11.9559 7.13763C11.6169 7.22904 11.2958 7.3639 10.9987 7.53586C10.9996 7.52402 11 7.51206 11 7.5C11 7.22386 10.7761 7 10.5 7C10.2239 7 10 7.22386 10 7.5C10 7.73218 10.1583 7.9274 10.3728 7.98367C10.1117 8.21128 9.88043 8.47223 9.68562 8.75989C9.40996 8.58134 9.19661 8.31478 9.08535 8H6V9H3V6H6V7H9.08535C9.29127 6.4174 9.84689 6 10.5 6ZM5 8H4V7H5V8Z" fill="black"/>
<path d="M12.3824 13.4001C12.3412 13.6907 12.5868 13.9301 12.8803 13.9301C13.1711 13.9301 13.3955 13.6925 13.4669 13.4107C13.519 13.2049 13.6037 13.0346 13.7209 12.8999L14.293 12.3306C14.7643 11.8351 15 11.3318 15 10.8206C15 10.2466 14.8248 9.79973 14.4744 9.47984C14.1271 9.15995 13.6418 9 13.0186 9C12.4139 9 11.9271 9.16151 11.5581 9.48454C11.3257 9.68975 11.1658 9.94179 11.0785 10.2407C10.9908 10.5409 11.2554 10.8017 11.5682 10.8017C11.8786 10.8017 12.1018 10.52 12.2913 10.2742C12.3155 10.2427 12.3424 10.2132 12.3721 10.1855C12.5364 10.0318 12.7519 9.95497 13.0186 9.95497C13.2976 9.95497 13.5085 10.0334 13.6511 10.1902C13.7969 10.3439 13.8697 10.5681 13.8697 10.8629C13.8697 11.0856 13.8077 11.2926 13.6837 11.4839C13.6031 11.6093 13.4108 11.821 13.107 12.119C12.8062 12.4138 12.6046 12.685 12.5023 12.9328C12.4479 13.0646 12.4079 13.2203 12.3824 13.4001Z" fill="black"/>
<path d="M12.4418 14.9462C12.3271 15.0591 12.2697 15.2081 12.2697 15.3931C12.2697 15.5656 12.324 15.7099 12.4325 15.8259C12.5442 15.942 12.7023 16 12.907 16C13.1116 16 13.2697 15.942 13.3814 15.8259C13.493 15.7099 13.5488 15.5656 13.5488 15.3931C13.5488 15.2144 13.4914 15.067 13.3767 14.9509C13.262 14.8318 13.1054 14.7722 12.907 14.7722C12.7116 14.7722 12.5566 14.8302 12.4418 14.9462Z" fill="black"/>
</g>
</svg>
