<svg width="32" height="32" viewBox="0 0 32 32" fill="none" xmlns="http://www.w3.org/2000/svg">
<path opacity="0.9" fill-rule="evenodd" clip-rule="evenodd" d="M12 24C12 26.2091 13.7909 28 16 28C18.2091 28 20 26.2091 20 24L20 13.5C20 13.2239 20.2239 13 20.5 13C20.7761 13 21 13.2239 21 13.5L21 24C21 26.7614 18.7614 29 16 29C13.2386 29 11 26.7614 11 24L11 6.5C11 4.567 12.567 3 14.5 3C16.433 3 18 4.567 18 6.5L18 22C18 23.1046 17.1046 24 16 24C14.8954 24 14 23.1046 14 22L14 13.5C14 13.2239 14.2239 13 14.5 13C14.7761 13 15 13.2239 15 13.5V22C15 22.5523 15.4477 23 16 23C16.5523 23 17 22.5523 17 22L17 6.5C17 5.11929 15.8807 4 14.5 4C13.1193 4 12 5.11929 12 6.5L12 24Z" fill="black"/>
</svg>
