<svg width="32" height="33" viewBox="0 0 32 33" fill="none" xmlns="http://www.w3.org/2000/svg">
<g opacity="0.9">
<path fill-rule="evenodd" clip-rule="evenodd" d="M4 8.71704C4 8.16476 4.44772 7.71704 5 7.71704H27C27.5523 7.71704 28 8.16476 28 8.71704C28 9.26933 27.5523 9.71704 27 9.71704H5C4.44772 9.71704 4 9.26933 4 8.71704Z" fill="black"/>
<path fill-rule="evenodd" clip-rule="evenodd" d="M4 16.717C4 16.1648 4.44772 15.717 5 15.717H21C21.5523 15.717 22 16.1648 22 16.717C22 17.2693 21.5523 17.717 21 17.717H5C4.44772 17.717 4 17.2693 4 16.717Z" fill="black"/>
<path fill-rule="evenodd" clip-rule="evenodd" d="M4 24.717C4 24.1648 4.44772 23.717 5 23.717H15C15.5523 23.717 16 24.1648 16 24.717C16 25.2693 15.5523 25.717 15 25.717H5C4.44772 25.717 4 25.2693 4 24.717Z" fill="black"/>
</g>
</svg>
