<svg width="32" height="32" viewBox="0 0 32 32" fill="none" xmlns="http://www.w3.org/2000/svg">
<path opacity="0.9" fill-rule="evenodd" clip-rule="evenodd" d="M14.9476 3.8803C15.403 3.04901 16.597 3.04902 17.0524 3.8803L18.7731 7.02133C18.824 7.11413 18.9383 7.15127 19.0339 7.10608L22.2723 5.57633C23.1293 5.17147 24.0953 5.87334 23.9751 6.81354L23.5209 10.3661C23.5075 10.471 23.5782 10.5683 23.6821 10.5879L27.2012 11.2538C28.1325 11.43 28.5015 12.5656 27.8516 13.2556L25.396 15.8627C25.3235 15.9397 25.3235 16.06 25.396 16.137L27.8516 18.7441C28.5015 19.4341 28.1325 20.5697 27.2012 20.7459L23.6821 21.4118C23.5782 21.4314 23.5075 21.5287 23.5209 21.6336L23.9751 25.1862C24.0953 26.1264 23.1293 26.8282 22.2723 26.4234L19.0339 24.8936C18.9383 24.8484 18.824 24.8856 18.7731 24.9784L17.0524 28.1194C16.597 28.9507 15.403 28.9507 14.9476 28.1194L13.2269 24.9784C13.176 24.8856 13.0617 24.8484 12.9661 24.8936L9.72774 26.4234C8.8707 26.8282 7.90467 26.1264 8.02488 25.1862L8.47906 21.6336C8.49248 21.5287 8.42182 21.4314 8.31786 21.4118L4.79885 20.7459C3.86752 20.5697 3.49853 19.4341 4.14841 18.7441L6.60398 16.137C6.67653 16.06 6.67653 15.9397 6.60398 15.8627L4.14841 13.2556C3.49853 12.5656 3.86752 11.43 4.79885 11.2538L8.31786 10.5879C8.42182 10.5683 8.49248 10.471 8.47906 10.3661L8.02488 6.81353C7.90467 5.87333 8.87071 5.17147 9.72774 5.57633L12.9661 7.10608C13.0617 7.15127 13.176 7.11413 13.2269 7.02133L14.9476 3.8803ZM17.5 11.5C17.5 11.0955 17.2564 10.7309 16.8827 10.5761C16.509 10.4213 16.0789 10.5069 15.7929 10.7929L12.7929 13.7929C12.4024 14.1834 12.4024 14.8166 12.7929 15.2071C13.1834 15.5976 13.8166 15.5976 14.2071 15.2071L15.5 13.9142V20.5C15.5 21.0523 15.9477 21.5 16.5 21.5C17.0523 21.5 17.5 21.0523 17.5 20.5V11.5Z" fill="black"/>
</svg>
