<svg width="24" height="24" viewBox="0 0 24 24" fill="none" xmlns="http://www.w3.org/2000/svg">
<g opacity="0.9">
<path d="M13 8.50001C13 8.29778 12.8782 8.11547 12.6913 8.03807C12.5045 7.96068 12.2894 8.00346 12.1464 8.14646L10.1464 10.1465C9.95118 10.3417 9.95118 10.6583 10.1464 10.8536C10.3417 11.0488 10.6583 11.0488 10.8536 10.8536L12 9.70712V15.5C12 15.7762 12.2239 16 12.5 16C12.7761 16 13 15.7762 13 15.5V8.50001Z" fill="black"/>
<path fill-rule="evenodd" clip-rule="evenodd" d="M13.0524 1.8803C12.597 1.04901 11.403 1.04901 10.9476 1.8803L9.63479 4.27672C9.58395 4.36952 9.46963 4.40667 9.37396 4.36147L6.90332 3.19436C6.04628 2.78951 5.08024 3.49137 5.20045 4.43157L5.54696 7.14194C5.56038 7.2469 5.48973 7.34415 5.38576 7.36382L2.70096 7.87182C1.76963 8.04803 1.40064 9.18367 2.05052 9.87366L3.92398 11.8627C3.99653 11.9397 3.99653 12.06 3.92398 12.137L2.05052 14.126C1.40064 14.816 1.76963 15.9517 2.70096 16.1279L5.38576 16.6359C5.48973 16.6555 5.56038 16.7528 5.54696 16.8578L5.20045 19.5681C5.08024 20.5083 6.04628 21.2102 6.90332 20.8053L9.37396 19.6382C9.46963 19.593 9.58395 19.6302 9.63479 19.723L10.9476 22.1194C11.403 22.9507 12.597 22.9507 13.0524 22.1194L14.3652 19.723C14.416 19.6302 14.5304 19.593 14.626 19.6382L17.0967 20.8053C17.9537 21.2102 18.9198 20.5083 18.7996 19.5681L18.453 16.8578C18.4396 16.7528 18.5103 16.6555 18.6142 16.6359L21.299 16.1279C22.2304 15.9517 22.5994 14.816 21.9495 14.126L20.076 12.137C20.0035 12.06 20.0035 11.9397 20.076 11.8627L21.9495 9.87366C22.5994 9.18367 22.2304 8.04803 21.299 7.87182L18.6142 7.36382C18.5103 7.34415 18.4396 7.2469 18.453 7.14194L18.7996 4.43157C18.9198 3.49137 17.9537 2.7895 17.0967 3.19436L14.626 4.36147C14.5304 4.40667 14.416 4.36952 14.3652 4.27672L13.0524 1.8803ZM11.8246 2.36075C11.9005 2.2222 12.0995 2.2222 12.1754 2.36075L13.4882 4.75717C13.7932 5.31396 14.4791 5.53683 15.0532 5.26566L17.5238 4.09855C17.6667 4.03108 17.8277 4.14805 17.8076 4.30475L17.4611 7.01513C17.3806 7.64487 17.8045 8.22836 18.4283 8.34639L21.1131 8.85438C21.2683 8.88375 21.3298 9.07303 21.2215 9.18802L19.3481 11.1771C18.9128 11.6392 18.9128 12.3605 19.3481 12.8226L21.2215 14.8117C21.3298 14.9267 21.2683 15.1159 21.1131 15.1453L18.4283 15.6533C17.8045 15.7713 17.3806 16.3548 17.4611 16.9846L17.8076 19.6949C17.8277 19.8516 17.6667 19.9686 17.5238 19.9011L15.0532 18.734C14.4791 18.4629 13.7932 18.6857 13.4882 19.2425L12.1754 21.639C12.0995 21.7775 11.9005 21.7775 11.8246 21.639L10.5118 19.2425C10.2068 18.6857 9.52087 18.4629 8.94683 18.734L6.47618 19.9011C6.33335 19.9686 6.17234 19.8516 6.19237 19.6949L6.53889 16.9846C6.6194 16.3548 6.19547 15.7713 5.57167 15.6533L2.88687 15.1453C2.73165 15.1159 2.67015 14.9267 2.77847 14.8117L4.65192 12.8226C5.08721 12.3605 5.08721 11.6392 4.65192 11.1771L2.77847 9.18802C2.67015 9.07303 2.73165 8.88375 2.88687 8.85438L5.57167 8.34639C6.19547 8.22836 6.6194 7.64487 6.53889 7.01513L6.19237 4.30475C6.17234 4.14805 6.33334 4.03108 6.47618 4.09855L8.94683 5.26566C9.52087 5.53683 10.2068 5.31396 10.5118 4.75716L11.8246 2.36075Z" fill="black"/>
</g>
</svg>
