<svg width="32" height="32" viewBox="0 0 32 32" fill="none" xmlns="http://www.w3.org/2000/svg">
<g opacity="0.9">
<path d="M17 11.5C17 11.2978 16.8782 11.1155 16.6913 11.0381C16.5045 10.9607 16.2894 11.0035 16.1464 11.1465L13.1464 14.1465C12.9512 14.3417 12.9512 14.6583 13.1464 14.8536C13.3417 15.0488 13.6583 15.0488 13.8536 14.8536L16 12.7071V20.5C16 20.7762 16.2239 21 16.5 21C16.7761 21 17 20.7762 17 20.5V11.5Z" fill="black"/>
<path fill-rule="evenodd" clip-rule="evenodd" d="M17.0524 3.8803C16.5971 3.04902 15.403 3.04901 14.9476 3.8803L13.2269 7.02133C13.1761 7.11413 13.0617 7.15127 12.9661 7.10608L9.72776 5.57633C8.87072 5.17147 7.90469 5.87333 8.02489 6.81353L8.47908 10.3661C8.49249 10.471 8.42184 10.5683 8.31787 10.5879L4.79886 11.2538C3.86754 11.43 3.49854 12.5656 4.14842 13.2556L6.60399 15.8627C6.67654 15.9397 6.67654 16.06 6.60399 16.137L4.14842 18.7441C3.49854 19.4341 3.86753 20.5697 4.79886 20.7459L8.31787 21.4118C8.42184 21.4314 8.49249 21.5287 8.47907 21.6336L8.02489 25.1862C7.90469 26.1264 8.87072 26.8282 9.72776 26.4234L12.9661 24.8936C13.0617 24.8484 13.1761 24.8856 13.2269 24.9784L14.9476 28.1194C15.403 28.9507 16.5971 28.9507 17.0524 28.1194L18.7731 24.9784C18.824 24.8856 18.9383 24.8484 19.034 24.8936L22.2723 26.4234C23.1293 26.8282 24.0953 26.1264 23.9751 25.1862L23.521 21.6336C23.5075 21.5287 23.5782 21.4314 23.6822 21.4118L27.2012 20.7459C28.1325 20.5697 28.5015 19.4341 27.8516 18.7441L25.396 16.137C25.3235 16.06 25.3235 15.9397 25.396 15.8627L27.8516 13.2556C28.5015 12.5656 28.1325 11.43 27.2012 11.2538L23.6822 10.5879C23.5782 10.5683 23.5075 10.471 23.521 10.3661L23.9751 6.81354C24.0953 5.87334 23.1293 5.17147 22.2723 5.57633L19.034 7.10608C18.9383 7.15127 18.824 7.11413 18.7731 7.02133L17.0524 3.8803ZM15.8246 4.36075C15.9005 4.2222 16.0995 4.2222 16.1754 4.36075L17.8961 7.50177C18.2011 8.05857 18.8871 8.28144 19.4611 8.01027L22.6994 6.48052C22.8422 6.41304 23.0032 6.53002 22.9832 6.68672L22.529 10.2393C22.4485 10.869 22.8724 11.4525 23.4962 11.5705L27.0153 12.2363C27.1705 12.2657 27.232 12.455 27.1237 12.57L24.6681 15.1771C24.2328 15.6392 24.2328 16.3605 24.6681 16.8226L27.1237 19.4297C27.232 19.5447 27.1705 19.734 27.0153 19.7633L23.4962 20.4292C22.8724 20.5472 22.4485 21.1307 22.529 21.7604L22.9832 25.313C23.0032 25.4697 22.8422 25.5867 22.6994 25.5192L19.4611 23.9894C18.887 23.7183 18.2011 23.9411 17.8961 24.4979L16.1754 27.639C16.0995 27.7775 15.9005 27.7775 15.8246 27.639L14.1039 24.4979C13.7989 23.9411 13.113 23.7183 12.5389 23.9894L9.30063 25.5192C9.15779 25.5867 8.99678 25.4697 9.01682 25.313L9.471 21.7604C9.55151 21.1307 9.12759 20.5472 8.50379 20.4292L4.98477 19.7633C4.82955 19.734 4.76805 19.5447 4.87637 19.4297L7.33194 16.8226C7.76723 16.3605 7.76723 15.6392 7.33194 15.1771L4.87637 12.57C4.76806 12.455 4.82955 12.2657 4.98477 12.2363L8.50379 11.5705C9.12759 11.4525 9.55151 10.869 9.471 10.2393L9.01682 6.68672C8.99678 6.53002 9.15779 6.41304 9.30063 6.48052L12.5389 8.01027C13.113 8.28144 13.7989 8.05857 14.1039 7.50177L15.8246 4.36075Z" fill="black"/>
</g>
</svg>
