<svg width="32" height="32" viewBox="0 0 32 32" fill="none" xmlns="http://www.w3.org/2000/svg">
<g opacity="0.9">
<path d="M19.3913 22.9149C19.0008 22.5244 18.3676 22.5244 17.9771 22.9149L14.9771 25.9149C14.7896 26.1024 14.6842 26.3568 14.6842 26.622C14.6842 26.8872 14.7896 27.1416 14.9771 27.3291L17.9771 30.3291C18.3676 30.7196 19.0008 30.7196 19.3913 30.3291C19.7818 29.9386 19.7818 29.3054 19.3913 28.9149L18.0982 27.6218H18.3785C23.5178 27.6218 27.6841 23.4555 27.6841 18.3162C27.6841 17.7639 27.2364 17.3162 26.6841 17.3162C26.1318 17.3162 25.6841 17.7639 25.6841 18.3162C25.6841 22.351 22.4133 25.6218 18.3785 25.6218H18.0986L19.3913 24.3291C19.7818 23.9386 19.7818 23.3054 19.3913 22.9149Z" fill="black"/>
<path d="M10.5 17.0007C10.5 16.4484 10.0523 16.0007 9.5 16.0007C8.94772 16.0007 8.5 16.4484 8.5 17.0007V18.0007H3.5C2.94772 18.0007 2.5 18.4484 2.5 19.0007C2.5 19.553 2.94772 20.0007 3.5 20.0007H12.1835C11.5531 21.8464 10.499 23.2891 9.09272 24.5078C8.2338 23.6797 7.46676 22.6982 6.89443 21.5535C6.64744 21.0595 6.04676 20.8593 5.55279 21.1063C5.05881 21.3533 4.85858 21.9539 5.10557 22.4479C5.73894 23.7146 6.56238 24.801 7.47548 25.722C6.73133 26.2114 5.92035 26.668 5.0491 27.1081C4.55614 27.3571 4.3584 27.9586 4.60743 28.4516C4.85645 28.9445 5.45795 29.1423 5.9509 28.8933C7.04303 28.3416 8.07864 27.7482 9.03129 27.0823C10.0478 27.8545 11.1019 28.4579 12.0818 28.909C12.5834 29.14 13.1774 28.9206 13.4083 28.4189C13.6393 27.9173 13.4199 27.3233 12.9182 27.0924C12.1792 26.7521 11.4072 26.3208 10.6564 25.7933C12.3112 24.2925 13.5852 22.4398 14.2784 20.0007H15.5C16.0523 20.0007 16.5 19.553 16.5 19.0007C16.5 18.4484 16.0523 18.0007 15.5 18.0007H10.5V17.0007Z" fill="black"/>
<path fill-rule="evenodd" clip-rule="evenodd" d="M23.922 5.01441C23.7527 4.67563 23.4064 4.46163 23.0276 4.46163C22.6488 4.46163 22.3026 4.67563 22.1332 5.01441L17.661 13.9589C17.414 14.4528 17.6142 15.0535 18.1082 15.3005C18.6022 15.5475 19.2028 15.3473 19.4498 14.8533L20.4512 12.8505H25.604L26.6054 14.8533C26.8524 15.3473 27.4531 15.5475 27.9471 15.3005C28.441 15.0535 28.6413 14.4528 28.3943 13.9589L23.922 5.01441ZM24.604 10.8505H21.4512L23.0276 7.6977L24.604 10.8505Z" fill="black"/>
<path d="M13.7928 10.2076C14.1833 10.5981 14.8165 10.5981 15.207 10.2076L18.207 7.2076C18.3945 7.02006 18.4999 6.76571 18.4999 6.50049C18.4999 6.23527 18.3945 5.98092 18.207 5.79338L15.207 2.79338C14.8165 2.40286 14.1833 2.40286 13.7928 2.79338C13.4022 3.18391 13.4022 3.81707 13.7928 4.2076L15.0859 5.50069H14.8056C9.66624 5.50069 5.5 9.66693 5.5 14.8062C5.5 15.3585 5.94772 15.8062 6.5 15.8062C7.05228 15.8062 7.5 15.3585 7.5 14.8062C7.5 10.7715 10.7708 7.50069 14.8056 7.50069H15.0855L13.7928 8.79338C13.4022 9.18391 13.4022 9.81707 13.7928 10.2076Z" fill="black"/>
</g>
</svg>
