<svg width="16" height="16" viewBox="0 0 16 16" fill="none" xmlns="http://www.w3.org/2000/svg">
<g opacity="0.9">
<path d="M0.5 2C0.223858 2 0 2.22386 0 2.5V13.5C0 13.7761 0.223858 14 0.5 14H3.5C4.32843 14 5 13.3284 5 12.5V3.5C5 2.67157 4.32843 2 3.5 2H0.5Z" fill="black"/>
<path d="M8 9H7V12.5C7 13.3284 7.67157 14 8.5 14H13.5C14.3284 14 15 13.3284 15 12.5V3.5C15 2.67157 14.3284 2 13.5 2H8.5C7.67157 2 7 2.67157 7 3.5V6H8C8 5.61612 8.14645 5.23223 8.43934 4.93934C9.02513 4.35355 9.97487 4.35355 10.5607 4.93934L13.1213 7.5L10.5607 10.0607C9.97487 10.6464 9.02513 10.6464 8.43934 10.0607C8.14645 9.76777 8 9.38388 8 9Z" fill="black"/>
<path d="M9.14645 6.35355C8.95118 6.15829 8.95118 5.84171 9.14645 5.64645C9.34171 5.45118 9.65829 5.45118 9.85355 5.64645L11.7071 7.5L9.85355 9.35355C9.65829 9.54882 9.34171 9.54882 9.14645 9.35355C8.95118 9.15829 8.95118 8.84171 9.14645 8.64645L9.79289 8H6.5C6.22386 8 6 7.77614 6 7.5C6 7.22386 6.22386 7 6.5 7H9.79289L9.14645 6.35355Z" fill="black"/>
</g>
</svg>
