<svg width="24" height="24" viewBox="0 0 24 24" fill="none" xmlns="http://www.w3.org/2000/svg">
<g opacity="0.9">
<path fill-rule="evenodd" clip-rule="evenodd" d="M12 14C13.1046 14 14 13.1046 14 12C14 10.8954 13.1046 10 12 10C10.8954 10 10 10.8954 10 12C10 13.1046 10.8954 14 12 14ZM12 13C12.5523 13 13 12.5523 13 12C13 11.4477 12.5523 11 12 11C11.4477 11 11 11.4477 11 12C11 12.5523 11.4477 13 12 13Z" fill="black"/>
<path fill-rule="evenodd" clip-rule="evenodd" d="M5 5C3.34315 5 2 6.34315 2 8V21.0956C2 21.9014 2.90435 22.3763 3.56773 21.9188L7.45795 19.236C7.62489 19.1208 7.82288 19.0592 8.02567 19.0592H19C20.6569 19.0592 22 17.716 22 16.0592V8C22 6.34315 20.6569 5 19 5H5ZM19.5 12C19.5 12 16.1421 15.5 12 15.5C7.85786 15.5 4.5 12 4.5 12C4.5 12 7.85786 8.5 12 8.5C16.1421 8.5 19.5 12 19.5 12Z" fill="black"/>
</g>
</svg>
