<svg width="32" height="32" viewBox="0 0 32 32" fill="none" xmlns="http://www.w3.org/2000/svg">
<g opacity="0.9">
<path d="M7.35371 6.64645C7.15844 6.45118 6.84186 6.45118 6.6466 6.64645C6.45134 6.84171 6.45134 7.15829 6.6466 7.35355L24.6466 25.3536C24.8419 25.5488 25.1584 25.5488 25.3537 25.3536C25.549 25.1583 25.549 24.8417 25.3537 24.6464L7.35371 6.64645Z" fill="black"/>
<path d="M16.0001 10C15.1879 10 14.393 10.1124 13.6238 10.3087C13.3562 10.377 13.084 10.2154 13.0157 9.94788C12.9474 9.68031 13.1089 9.40805 13.3765 9.33975C14.217 9.1252 15.0953 9 16.0001 9C19.34 9 22.3239 10.7039 24.4396 12.3559C25.5036 13.1868 26.3637 14.0167 26.958 14.6391C27.2555 14.9505 27.4871 15.2108 27.6452 15.3943C27.7243 15.486 27.7851 15.5586 27.8265 15.6089C27.8472 15.634 27.8631 15.6536 27.8741 15.6671L27.8868 15.683L27.8904 15.6874L27.8915 15.6888L27.5001 16L27.892 16.3106L27.8902 16.3128L27.8861 16.3179L27.8715 16.3361C27.8588 16.3517 27.8405 16.3743 27.8165 16.4032C27.7687 16.461 27.6985 16.5445 27.6072 16.6497C27.4247 16.86 27.1574 17.1571 26.8152 17.5092C26.1314 18.2125 25.1441 19.139 23.9305 20.0296C23.7079 20.193 23.3949 20.145 23.2316 19.9223C23.0682 19.6997 23.1162 19.3868 23.3388 19.2234C24.4966 18.3738 25.442 17.487 26.0982 16.8121C26.4226 16.4784 26.6753 16.1975 26.847 16C26.7003 15.8312 26.4943 15.6014 26.2348 15.3297C25.6653 14.7333 24.8412 13.9382 23.8241 13.1441C21.7776 11.5461 19.0115 10 16.0001 10Z" fill="black"/>
<path d="M27.892 16.3106C27.892 16.3106 27.8921 16.3105 27.5001 16C27.8921 15.6895 27.8915 15.6888 27.8915 15.6888C28.0356 15.8707 28.036 16.1287 27.892 16.3106Z" fill="black"/>
<path d="M8.74683 12.0929C8.9105 12.3153 8.86288 12.6283 8.64047 12.792C7.48878 13.6395 6.54855 14.5225 5.89617 15.194C5.57457 15.525 5.32389 15.8037 5.1533 16C5.30001 16.1688 5.50601 16.3986 5.76546 16.6703C6.33497 17.2667 7.15908 18.0618 8.17612 18.8559C10.2227 20.4539 12.9887 22 16.0001 22C16.8124 22 17.6073 21.8876 18.3765 21.6913C18.644 21.623 18.9163 21.7846 18.9846 22.0521C19.0529 22.3197 18.8914 22.592 18.6238 22.6602C17.7832 22.8748 16.905 23 16.0001 23C12.6603 23 9.67633 21.2961 7.56068 19.6441C6.49664 18.8132 5.63661 17.9833 5.04226 17.3609C4.7448 17.0495 4.51316 16.7892 4.35503 16.6057C4.27595 16.514 4.21521 16.4414 4.17376 16.3911C4.15303 16.366 4.13712 16.3464 4.12616 16.3329L4.11343 16.317L4.10987 16.3126L4.10879 16.3112L4.50013 16L4.10831 15.6894L4.11007 15.6872L4.11411 15.6821L4.12868 15.664C4.14124 15.6485 4.1595 15.6261 4.18329 15.5973C4.23088 15.5398 4.30065 15.4568 4.39142 15.3522C4.5729 15.1431 4.83858 14.8475 5.17891 14.4972C5.85881 13.7973 6.84057 12.8749 8.04777 11.9866C8.27018 11.8229 8.58316 11.8705 8.74683 12.0929Z" fill="black"/>
<path d="M4.10831 15.6894C4.10831 15.6894 4.10819 15.6895 4.50013 16C4.10819 16.3105 4.10879 16.3112 4.10879 16.3112C3.96471 16.1293 3.96422 15.8713 4.10831 15.6894Z" fill="black"/>
<path d="M15.5001 12.5C15.5001 12.2239 15.724 12 16.0001 12C18.2093 12 20.0001 13.7909 20.0001 16C20.0001 16.2761 19.7763 16.5 19.5001 16.5C19.224 16.5 19.0001 16.2761 19.0001 16C19.0001 14.3431 17.657 13 16.0001 13C15.724 13 15.5001 12.7761 15.5001 12.5Z" fill="black"/>
<path d="M12.5001 15.5C12.7763 15.5 13.0001 15.7239 13.0001 16C13.0001 17.6569 14.3433 19 16.0001 19C16.2763 19 16.5001 19.2239 16.5001 19.5C16.5001 19.7761 16.2763 20 16.0001 20C13.791 20 12.0001 18.2091 12.0001 16C12.0001 15.7239 12.224 15.5 12.5001 15.5Z" fill="black"/>
</g>
</svg>
