<svg width="24" height="24" viewBox="0 0 24 24" fill="none" xmlns="http://www.w3.org/2000/svg">
<g opacity="0.9">
<path d="M5.85361 5.14645C5.65834 4.95118 5.34176 4.95118 5.1465 5.14645C4.95124 5.34171 4.95124 5.65829 5.1465 5.85355L18.1465 18.8536C18.3418 19.0488 18.6583 19.0488 18.8536 18.8536C19.0489 18.6583 19.0489 18.3417 18.8536 18.1464L5.85361 5.14645Z" fill="black"/>
<path d="M5.00876 9.33162C5.43096 9.05534 5.89433 8.77728 6.39298 8.51425L9.10167 11.2229C9.03539 11.4708 9.00005 11.7313 9.00005 12C9.00005 13.6569 10.3432 15 12.0001 15C12.2688 15 12.5293 14.9647 12.7771 14.8984L14.5541 16.6754C13.7419 16.8785 12.8858 17 12.0001 17C9.23881 17 6.76688 15.8189 5.00876 14.6684C4.12546 14.0904 3.41111 13.5127 2.91681 13.0789C2.66943 12.8618 2.47654 12.6802 2.3445 12.5518C2.27847 12.4876 2.22761 12.4367 2.19272 12.4012C2.17527 12.3835 2.16181 12.3696 2.15244 12.3599L2.14146 12.3485L2.13829 12.3451L2.13729 12.3441C1.95512 12.1514 1.95477 11.849 2.13694 11.6563L2.13829 11.6549L2.14146 11.6515L2.15244 11.6401C2.16181 11.6304 2.17527 11.6165 2.19272 11.5988C2.22761 11.5633 2.27847 11.5124 2.3445 11.4482C2.47654 11.3198 2.66943 11.1382 2.91681 10.9211C3.41111 10.4873 4.12546 9.90964 5.00876 9.33162Z" fill="black"/>
<path d="M15.0001 12C15.0001 12.2687 14.9647 12.5292 14.8984 12.7771L17.6071 15.4858C18.1058 15.2227 18.5692 14.9447 18.9914 14.6684C19.8747 14.0904 20.589 13.5127 21.0833 13.0789C21.3307 12.8618 21.5236 12.6802 21.6556 12.5518C21.7216 12.4876 21.7725 12.4367 21.8074 12.4012C21.8248 12.3835 21.8383 12.3696 21.8477 12.3599L21.8587 12.3485L21.8618 12.3451L21.8632 12.3437C22.0453 12.151 22.0453 11.849 21.8632 11.6563L21.8618 11.6549L21.8587 11.6515L21.8477 11.6401C21.8435 11.6358 21.8386 11.6307 21.8329 11.6248C21.8256 11.6174 21.8171 11.6087 21.8074 11.5988C21.7725 11.5633 21.7216 11.5124 21.6556 11.4482C21.5236 11.3198 21.3307 11.1382 21.0833 10.9211C20.589 10.4873 19.8747 9.90964 18.9914 9.33162C17.2332 8.18113 14.7613 7 12.0001 7C11.1143 7 10.2582 7.12155 9.44602 7.32464L11.223 9.10161C11.4708 9.03534 11.7313 9 12.0001 9C13.6569 9 15.0001 10.3431 15.0001 12Z" fill="black"/>
</g>
</svg>
