<svg width="16" height="16" viewBox="0 0 16 16" fill="none" xmlns="http://www.w3.org/2000/svg">
<g opacity="0.9">
<path d="M3.85351 3.14645C3.65825 2.95118 3.34166 2.95118 3.1464 3.14645C2.95114 3.34171 2.95114 3.65829 3.1464 3.85355L12.1464 12.8536C12.3417 13.0488 12.6582 13.0488 12.8535 12.8536C13.0488 12.6583 13.0488 12.3417 12.8535 12.1464L3.85351 3.14645Z" fill="black"/>
<path d="M3.10537 5.84882C3.22153 5.76241 3.34245 5.67559 3.46786 5.58923L6.00384 8.12521C6.06591 9.13004 6.86994 9.93408 7.87478 9.99614L9.6579 11.7793C9.12944 11.918 8.57428 12 7.99999 12C6.04848 12 4.31778 11.0531 3.10537 10.1512C2.49357 9.69607 1.99937 9.24174 1.65766 8.90085C1.48655 8.73015 1.35296 8.58719 1.26127 8.48584C1.21541 8.43515 1.17997 8.39481 1.15551 8.36655L1.1271 8.33342L1.11919 8.32405L1.11682 8.32122L1.11553 8.31967C0.961475 8.1344 0.961989 7.86499 1.11604 7.67971L1.11682 7.67878L1.11919 7.67595L1.1271 7.66657L1.15551 7.63345C1.17997 7.60519 1.21541 7.56485 1.26127 7.51416C1.35296 7.41281 1.48655 7.26985 1.65766 7.09914C1.99937 6.75826 2.49357 6.30393 3.10537 5.84882Z" fill="black"/>
<path d="M8.12513 6.00385C9.13001 6.06589 9.93409 6.86997 9.99613 7.87486L12.5321 10.4108C12.6575 10.3244 12.7784 10.2376 12.8946 10.1512C13.5064 9.69607 14.0006 9.24174 14.3423 8.90085C14.5134 8.73015 14.647 8.58719 14.7387 8.48584C14.7846 8.43515 14.82 8.39481 14.8445 8.36655L14.8729 8.33342L14.8808 8.32405L14.8832 8.32122L14.8839 8.32029C15.038 8.13501 15.0383 7.86534 14.8842 7.68006L14.8832 7.67878L14.8808 7.67595L14.8729 7.66657L14.8445 7.63345C14.82 7.60519 14.7846 7.56485 14.7387 7.51416C14.647 7.41281 14.5134 7.26985 14.3423 7.09914C14.0006 6.75826 13.5064 6.30393 12.8946 5.84882C11.6822 4.94694 9.9515 4 7.99999 4C7.42568 4 6.8705 4.08201 6.34202 4.22075L8.12513 6.00385Z" fill="black"/>
</g>
</svg>
