<svg width="24" height="24" viewBox="0 0 24 24" fill="none" xmlns="http://www.w3.org/2000/svg">
<g opacity="0.9">
<path d="M7.5 8C7.77614 8 8 7.77614 8 7.5C8 7.22386 7.77614 7 7.5 7C7.22386 7 7 7.22386 7 7.5C7 7.77614 7.22386 8 7.5 8Z" fill="black"/>
<path fill-rule="evenodd" clip-rule="evenodd" d="M11.682 5.31802C9.92462 3.56066 7.07538 3.56066 5.31802 5.31802C3.56066 7.07538 3.56066 9.92462 5.31802 11.682C6.95587 13.3198 9.54216 13.4312 11.309 12.0161L15.5711 16.2782L13.8033 18.0459C13.608 18.2412 13.608 18.5578 13.8033 18.753C13.9986 18.9483 14.3151 18.9483 14.5104 18.753L16.2782 16.9853L16.9853 17.6924L15.9246 18.753C15.7294 18.9483 15.7294 19.2649 15.9246 19.4602C16.1199 19.6554 16.4365 19.6554 16.6317 19.4602L17.6924 18.3995L18.3995 19.1066L16.6317 20.8744C16.4365 21.0696 16.4365 21.3862 16.6317 21.5815C16.827 21.7767 17.1436 21.7767 17.3388 21.5815L19.4602 19.4602C19.6554 19.2649 19.6554 18.9483 19.4602 18.753L12.0161 11.309C13.4312 9.54216 13.3198 6.95587 11.682 5.31802ZM6.02513 6.02513C7.39196 4.65829 9.60804 4.65829 10.9749 6.02513C12.3417 7.39196 12.3417 9.60804 10.9749 10.9749C9.60804 12.3417 7.39196 12.3417 6.02513 10.9749C4.65829 9.60804 4.65829 7.39196 6.02513 6.02513Z" fill="black"/>
</g>
</svg>
