<svg width="32" height="32" viewBox="0 0 32 32" fill="none" xmlns="http://www.w3.org/2000/svg">
<path opacity="0.9" fill-rule="evenodd" clip-rule="evenodd" d="M7.90381 7.90381C10.4422 5.3654 14.5578 5.3654 17.0962 7.90381C19.2698 10.0774 19.5819 13.4066 18.0337 15.9127L26.9957 24.8747C27.5815 25.4605 27.5815 26.4102 26.9957 26.996L26.6421 27.3496C26.2516 27.7401 25.6184 27.7401 25.2279 27.3496L24.8744 27.7031C24.2886 28.2889 23.3388 28.2889 22.753 27.7031L22.3995 27.3496C22.009 26.959 22.009 26.3259 22.3995 25.9354L21.6924 25.2282C21.3019 25.6188 20.6687 25.6188 20.2782 25.2282L19.9246 24.8747C19.3388 24.2889 19.3388 23.3392 19.9246 22.7534C20.1199 22.5581 20.1199 22.2415 19.9246 22.0463L15.9123 18.0339C13.4062 19.5819 10.0773 19.2697 7.90381 17.0962C5.3654 14.5578 5.3654 10.4422 7.90381 7.90381ZM16.3891 8.61091C14.2412 6.46303 10.7588 6.46303 8.61091 8.61091C6.46303 10.7588 6.46303 14.2412 8.61091 16.3891C10.5375 18.3157 13.5389 18.5144 15.6865 16.984C15.8854 16.8423 16.1575 16.865 16.3302 17.0377L20.6317 21.3392C21.2175 21.9249 21.2175 22.8747 20.6317 23.4605C20.4365 23.6557 20.4365 23.9723 20.6317 24.1676L20.9853 24.5211C21.3758 24.1306 22.009 24.1306 22.3995 24.5211L23.1066 25.2282C23.4971 25.6188 23.4971 26.2519 23.1066 26.6425L23.4601 26.996C23.6554 27.1913 23.972 27.1913 24.1673 26.996L24.5208 26.6425C24.9113 26.2519 25.5445 26.2519 25.935 26.6425L26.2886 26.2889C26.4838 26.0936 26.4838 25.7771 26.2886 25.5818L17.0374 16.3306C16.8647 16.1579 16.842 15.8857 16.9838 15.6869C18.5145 13.5392 18.3158 10.5377 16.3891 8.61091ZM11.7929 10.3788C11.4024 9.98831 10.7692 9.98831 10.3787 10.3788C9.98818 10.7694 9.98818 11.4025 10.3787 11.793C10.7692 12.1836 11.4024 12.1836 11.7929 11.793C12.1834 11.4025 12.1834 10.7694 11.7929 10.3788ZM9.6716 9.67172C10.4527 8.89068 11.719 8.89068 12.5 9.67172C13.2811 10.4528 13.2811 11.7191 12.5 12.5002C11.719 13.2812 10.4527 13.2812 9.6716 12.5002C8.89055 11.7191 8.89055 10.4528 9.6716 9.67172Z" fill="black"/>
</svg>
