<svg width="24" height="24" viewBox="0 0 24 24" fill="none" xmlns="http://www.w3.org/2000/svg">
<path d="M17.0567 9.18063L13.1088 15.7942C13.0713 15.8706 13.0255 15.9443 12.9712 16.0141C12.5418 16.5664 11.746 16.666 11.1937 16.2366C10.6415 15.8072 10.5419 15.0114 10.9713 14.4591C11.0189 14.3979 11.071 14.3422 11.1267 14.2922L16.5866 8.81506C16.8363 8.56461 17.2379 8.87697 17.0567 9.18063Z" fill="black"/>
<path fill-rule="evenodd" clip-rule="evenodd" d="M12 4C6.47715 4 2 8.47715 2 14C2 15.6846 2.41694 17.2732 3.15368 18.667L3.29447 18.9333H20.7055L20.8463 18.667C21.5831 17.2732 22 15.6846 22 14C22 8.47715 17.5228 4 12 4ZM3 14C3 9.02944 7.02944 5 12 5C16.9706 5 21 9.02944 21 14C21 15.4113 20.6755 16.7455 20.0974 17.9333H3.90261C3.32449 16.7455 3 15.4113 3 14Z" fill="black"/>
</svg>
