<svg width="32" height="32" viewBox="0 0 32 32" fill="none" xmlns="http://www.w3.org/2000/svg">
<g opacity="0.9">
<path d="M9 5.5C9 5.22386 9.22386 5 9.5 5H22.5C22.7761 5 23 5.22386 23 5.5C23 5.77614 22.7761 6 22.5 6H9.5C9.22386 6 9 5.77614 9 5.5Z" fill="black"/>
<path d="M7 8.5C7 8.22386 7.22386 8 7.5 8H24.5C24.7761 8 25 8.22386 25 8.5C25 8.77614 24.7761 9 24.5 9H7.5C7.22386 9 7 8.77614 7 8.5Z" fill="black"/>
<path fill-rule="evenodd" clip-rule="evenodd" d="M6.5 11C5.11929 11 4 12.1193 4 13.5V24.5C4 25.8807 5.11929 27 6.5 27H25.5C26.8807 27 28 25.8807 28 24.5V13.5C28 12.1193 26.8807 11 25.5 11H6.5ZM19.2403 18.5659C19.5762 18.7578 19.5762 19.2422 19.2403 19.4341L13.7481 22.5725C13.4147 22.763 13 22.5223 13 22.1384V15.8616C13 15.4777 13.4147 15.237 13.7481 15.4275L19.2403 18.5659Z" fill="black"/>
</g>
</svg>
