<svg width="24" height="24" viewBox="0 0 24 24" fill="none" xmlns="http://www.w3.org/2000/svg">
<g opacity="0.9">
<path d="M6 3.5C6 3.22386 6.22386 3 6.5 3H17.5C17.7761 3 18 3.22386 18 3.5C18 3.77614 17.7761 4 17.5 4H6.5C6.22386 4 6 3.77614 6 3.5Z" fill="black"/>
<path d="M4 5.5C4 5.22386 4.22386 5 4.5 5H19.5C19.7761 5 20 5.22386 20 5.5C20 5.77614 19.7761 6 19.5 6H4.5C4.22386 6 4 5.77614 4 5.5Z" fill="black"/>
<path fill-rule="evenodd" clip-rule="evenodd" d="M4.5 7C3.11929 7 2 8.11929 2 9.5V18.5C2 19.8807 3.11929 21 4.5 21H19.5C20.8807 21 22 19.8807 22 18.5V9.5C22 8.11929 20.8807 7 19.5 7H4.5ZM14.2854 13.5713C14.6091 13.7655 14.6091 14.2345 14.2854 14.4287L10.7572 16.5457C10.424 16.7456 10 16.5056 10 16.1169V11.8831C10 11.4944 10.424 11.2544 10.7572 11.4543L14.2854 13.5713Z" fill="black"/>
</g>
</svg>
