<svg width="16" height="16" viewBox="0 0 16 16" fill="none" xmlns="http://www.w3.org/2000/svg">
<g opacity="0.9">
<path d="M4 1.5C4 1.22386 4.22386 1 4.5 1H11.5C11.7761 1 12 1.22386 12 1.5C12 1.77614 11.7761 2 11.5 2H4.5C4.22386 2 4 1.77614 4 1.5Z" fill="black"/>
<path d="M3.5 3C3.22386 3 3 3.22386 3 3.5C3 3.77614 3.22386 4 3.5 4H12.5C12.7761 4 13 3.77614 13 3.5C13 3.22386 12.7761 3 12.5 3H3.5Z" fill="black"/>
<path d="M10 10.598C10.3333 10.4056 10.3333 9.92446 10 9.73201L7.75 8.43297C7.41667 8.24052 7 8.48108 7 8.86598V11.4641C7 11.849 7.41667 12.0895 7.75 11.8971L10 10.598Z" fill="black"/>
<path fill-rule="evenodd" clip-rule="evenodd" d="M3.5 5C2.11929 5 1 6.11929 1 7.5V12.5C1 13.8807 2.11929 15 3.5 15H12.5C13.8807 15 15 13.8807 15 12.5V7.5C15 6.11929 13.8807 5 12.5 5H3.5ZM2 7.5C2 6.67157 2.67157 6 3.5 6H12.5C13.3284 6 14 6.67157 14 7.5V12.5C14 13.3284 13.3284 14 12.5 14H3.5C2.67157 14 2 13.3284 2 12.5V7.5Z" fill="black"/>
</g>
</svg>
