<svg width="32" height="32" viewBox="0 0 32 32" fill="none" xmlns="http://www.w3.org/2000/svg">
<path opacity="0.9" fill-rule="evenodd" clip-rule="evenodd" d="M8.00698 6.50978C8.27777 6.56386 8.45346 6.82722 8.39938 7.09802L7.83607 9.91866C7.95417 9.81793 8.07941 9.71631 8.21573 9.60931C12.294 6.40833 18.1852 6.70288 21.9289 10.4913C25.9847 14.5955 25.9847 21.2473 21.9289 25.3515C21.7348 25.548 21.4183 25.5498 21.2219 25.3557C21.0254 25.1616 21.0236 24.8451 21.2177 24.6486C24.8885 20.934 24.8885 14.9089 21.2177 11.1942C17.8349 7.77106 12.5157 7.50551 8.83315 10.3959C8.53835 10.6273 8.3064 10.8253 8.08269 11.0515H11.5255C11.8017 11.0515 12.0255 11.2753 12.0255 11.5515C12.0255 11.8276 11.8017 12.0515 11.5255 12.0515H6.39038L7.41874 6.90218C7.47282 6.63138 7.73618 6.4557 8.00698 6.50978Z" fill="black"/>
</svg>
