<svg width="24" height="24" viewBox="0 0 24 24" fill="none" xmlns="http://www.w3.org/2000/svg">
<path opacity="0.9" fill-rule="evenodd" clip-rule="evenodd" d="M5.77541 4.19093C6.0462 4.24501 6.22189 4.50837 6.16781 4.77917L5.74441 6.89923C5.78872 6.86341 5.83438 6.8271 5.88159 6.79004C9.31311 4.09668 14.2702 4.34455 17.42 7.53203C20.8319 10.9847 20.8319 16.5801 17.42 20.0327C17.2259 20.2291 16.9093 20.231 16.7129 20.0369C16.5165 19.8428 16.5146 19.5262 16.7087 19.3298C19.7356 16.2667 19.7356 11.298 16.7087 8.23493C13.9198 5.41273 9.53487 5.19386 6.49901 7.57667C6.31955 7.71754 6.16861 7.84311 6.02785 7.97405H8.69121C8.96735 7.97405 9.19121 8.1979 9.19121 8.47405C9.19121 8.75019 8.96735 8.97405 8.69121 8.97405H4.3103L5.18717 4.58333C5.24125 4.31253 5.50461 4.13685 5.77541 4.19093Z" fill="black"/>
</svg>
