<svg width="16" height="16" viewBox="0 0 16 16" fill="none" xmlns="http://www.w3.org/2000/svg">
<path opacity="0.9" fill-rule="evenodd" clip-rule="evenodd" d="M4.9984 5.00017L6.3027 5.00017C6.57885 5.00017 6.80271 5.22403 6.8027 5.50017C6.80271 5.77631 6.57885 6.00017 6.3027 6.00017H3.17554L3.80195 2.90056C3.85665 2.62989 4.12042 2.45482 4.39109 2.50952C4.66176 2.56422 4.83684 2.82798 4.78214 3.09865L4.58706 4.06392C6.92589 2.44308 10.1593 2.67398 12.2426 4.75726C14.5857 7.10041 14.5857 10.8994 12.2426 13.2425C12.0473 13.4378 11.7307 13.4378 11.5354 13.2425C11.3402 13.0473 11.3402 12.7307 11.5354 12.5354C13.4881 10.5828 13.4881 7.41699 11.5354 5.46437C9.75236 3.68128 6.95682 3.52631 4.9984 5.00017Z" fill="black"/>
</svg>
