<svg width="24" height="24" viewBox="0 0 24 24" fill="none" xmlns="http://www.w3.org/2000/svg">
<g opacity="0.9">
<path d="M3.5 4C3.22386 4 3 4.22386 3 4.5C3 4.77614 3.22386 5 3.5 5C3.77614 5 4 4.77614 4 4.5C4 4.22386 3.77614 4 3.5 4Z" fill="black"/>
<path d="M7.5 4C7.22386 4 7 4.22386 7 4.5C7 4.77614 7.22386 5 7.5 5H20.5C20.7761 5 21 4.77614 21 4.5C21 4.22386 20.7761 4 20.5 4H7.5Z" fill="black"/>
<path d="M7 9.5C7 9.22386 7.22386 9 7.5 9H20.5C20.7761 9 21 9.22386 21 9.5C21 9.77614 20.7761 10 20.5 10H7.5C7.22386 10 7 9.77614 7 9.5Z" fill="black"/>
<path d="M3.5 9C3.22386 9 3 9.22386 3 9.5C3 9.77614 3.22386 10 3.5 10C3.77614 10 4 9.77614 4 9.5C4 9.22386 3.77614 9 3.5 9Z" fill="black"/>
<path d="M7 14.5C7 14.2239 7.22386 14 7.5 14H20.5C20.7761 14 21 14.2239 21 14.5C21 14.7761 20.7761 15 20.5 15H7.5C7.22386 15 7 14.7761 7 14.5Z" fill="black"/>
<path d="M3.5 14C3.22386 14 3 14.2239 3 14.5C3 14.7761 3.22386 15 3.5 15C3.77614 15 4 14.7761 4 14.5C4 14.2239 3.77614 14 3.5 14Z" fill="black"/>
<path d="M7 19.5C7 19.2239 7.22386 19 7.5 19H20.5C20.7761 19 21 19.2239 21 19.5C21 19.7761 20.7761 20 20.5 20H7.5C7.22386 20 7 19.7761 7 19.5Z" fill="black"/>
<path d="M3.5 19C3.22386 19 3 19.2239 3 19.5C3 19.7761 3.22386 20 3.5 20C3.77614 20 4 19.7761 4 19.5C4 19.2239 3.77614 19 3.5 19Z" fill="black"/>
</g>
</svg>
