<svg width="32" height="32" viewBox="0 0 32 32" fill="none" xmlns="http://www.w3.org/2000/svg">
<path d="M6.5 7C6.22386 7 6 7.22386 6 7.5V8.5C6 8.77614 6.22386 9 6.5 9H7.5C7.77614 9 8 8.77614 8 8.5V7.5C8 7.22386 7.77614 7 7.5 7H6.5Z" fill="black"/>
<path d="M10.5 7C10.2239 7 10 7.22386 10 7.5V8.5C10 8.77614 10.2239 9 10.5 9H25.5C25.7761 9 26 8.77614 26 8.5V7.5C26 7.22386 25.7761 7 25.5 7H10.5Z" fill="black"/>
<path d="M10 12.5C10 12.2239 10.2239 12 10.5 12H25.5C25.7761 12 26 12.2239 26 12.5V13.5C26 13.7761 25.7761 14 25.5 14H10.5C10.2239 14 10 13.7761 10 13.5V12.5Z" fill="black"/>
<path d="M6.5 12C6.22386 12 6 12.2239 6 12.5V13.5C6 13.7761 6.22386 14 6.5 14H7.5C7.77614 14 8 13.7761 8 13.5V12.5C8 12.2239 7.77614 12 7.5 12H6.5Z" fill="black"/>
<path d="M10 17.5C10 17.2239 10.2239 17 10.5 17H25.5C25.7761 17 26 17.2239 26 17.5V18.5C26 18.7761 25.7761 19 25.5 19H10.5C10.2239 19 10 18.7761 10 18.5V17.5Z" fill="black"/>
<path d="M6.5 17C6.22386 17 6 17.2239 6 17.5V18.5C6 18.7761 6.22386 19 6.5 19H7.5C7.77614 19 8 18.7761 8 18.5V17.5C8 17.2239 7.77614 17 7.5 17H6.5Z" fill="black"/>
<path d="M10 22.5C10 22.2239 10.2239 22 10.5 22H25.5C25.7761 22 26 22.2239 26 22.5V23.5C26 23.7761 25.7761 24 25.5 24H10.5C10.2239 24 10 23.7761 10 23.5V22.5Z" fill="black"/>
<path d="M6.5 22C6.22386 22 6 22.2239 6 22.5V23.5C6 23.7761 6.22386 24 6.5 24H7.5C7.77614 24 8 23.7761 8 23.5V22.5C8 22.2239 7.77614 22 7.5 22H6.5Z" fill="black"/>
</svg>
