<svg width="16" height="16" viewBox="0 0 16 16" fill="none" xmlns="http://www.w3.org/2000/svg">
<g opacity="0.9">
<path d="M2.5 3C2.22386 3 2 3.22386 2 3.5C2 3.77614 2.22386 4 2.5 4C2.77614 4 3 3.77614 3 3.5C3 3.22386 2.77614 3 2.5 3Z" fill="black"/>
<path d="M5.5 3C5.22386 3 5 3.22386 5 3.5C5 3.77614 5.22386 4 5.5 4H13.5C13.7761 4 14 3.77614 14 3.5C14 3.22386 13.7761 3 13.5 3H5.5Z" fill="black"/>
<path d="M5 6.5C5 6.22386 5.22386 6 5.5 6H13.5C13.7761 6 14 6.22386 14 6.5C14 6.77614 13.7761 7 13.5 7H5.5C5.22386 7 5 6.77614 5 6.5Z" fill="black"/>
<path d="M2.5 6C2.22386 6 2 6.22386 2 6.5C2 6.77614 2.22386 7 2.5 7C2.77614 7 3 6.77614 3 6.5C3 6.22386 2.77614 6 2.5 6Z" fill="black"/>
<path d="M5 9.5C5 9.22386 5.22386 9 5.5 9H13.5C13.7761 9 14 9.22386 14 9.5C14 9.77614 13.7761 10 13.5 10H5.5C5.22386 10 5 9.77614 5 9.5Z" fill="black"/>
<path d="M2.5 9C2.22386 9 2 9.22386 2 9.5C2 9.77614 2.22386 10 2.5 10C2.77614 10 3 9.77614 3 9.5C3 9.22386 2.77614 9 2.5 9Z" fill="black"/>
<path d="M5 12.5C5 12.2239 5.22386 12 5.5 12H13.5C13.7761 12 14 12.2239 14 12.5C14 12.7761 13.7761 13 13.5 13H5.5C5.22386 13 5 12.7761 5 12.5Z" fill="black"/>
<path d="M2.5 12C2.22386 12 2 12.2239 2 12.5C2 12.7761 2.22386 13 2.5 13C2.77614 13 3 12.7761 3 12.5C3 12.2239 2.77614 12 2.5 12Z" fill="black"/>
</g>
</svg>
