<svg width="16" height="16" viewBox="0 0 16 16" fill="none" xmlns="http://www.w3.org/2000/svg">
<path opacity="0.9" fill-rule="evenodd" clip-rule="evenodd" d="M13.5597 1.44567C12.9654 0.851442 12.002 0.851442 11.4078 1.44567L2.83072 10.0227C1.84174 11.0117 1.84174 12.6152 2.83072 13.6041C3.8197 14.5931 5.42316 14.5931 6.41214 13.6041L12.7728 7.24348C12.9681 7.04822 13.2846 7.04822 13.4799 7.24348C13.6752 7.43874 13.6752 7.75532 13.4799 7.95059L7.11925 14.3112C5.73974 15.6907 3.50312 15.6907 2.12362 14.3112C0.744113 12.9317 0.744113 10.6951 2.12362 9.31561L10.7007 0.738568C11.6854 -0.24619 13.282 -0.246189 14.2668 0.738568C15.2515 1.72333 15.2515 3.31993 14.2668 4.30469L7.11925 11.4522C6.52924 12.0422 5.57264 12.0422 4.98263 11.4522C4.39262 10.8622 4.39262 9.90562 4.98263 9.31561L9.91377 4.38447C10.109 4.1892 10.4256 4.1892 10.6209 4.38447C10.8161 4.57973 10.8161 4.89631 10.6209 5.09157L5.68974 10.0227C5.49025 10.2222 5.49025 10.5456 5.68974 10.7451C5.88922 10.9446 6.21265 10.9446 6.41214 10.7451L13.5597 3.59758C14.1539 3.00335 14.1539 2.03991 13.5597 1.44567Z" fill="black"/>
</svg>
