<svg width="16" height="16" viewBox="0 0 16 16" fill="none" xmlns="http://www.w3.org/2000/svg">
<path opacity="0.9" fill-rule="evenodd" clip-rule="evenodd" d="M1 8C1 4.13401 4.13401 1 8 1C11.866 1 15 4.13401 15 8C15 11.866 11.866 15 8 15C4.13401 15 1 11.866 1 8ZM8 3.5C8 3.22386 7.77614 3 7.5 3C7.22386 3 7 3.22386 7 3.5V8.5C7 8.67563 7.09215 8.83838 7.24275 8.92875L9.74275 10.4287C9.97954 10.5708 10.2867 10.494 10.4287 10.2572C10.5708 10.0205 10.494 9.71333 10.2572 9.57125L8 8.2169V3.5Z" fill="black"/>
</svg>
