<svg width="24" height="24" viewBox="0 0 24 24" fill="none" xmlns="http://www.w3.org/2000/svg">
<path opacity="0.9" d="M12.3334 2.44323L12 2.91465L11.6666 2.44323C11.2776 2.30571 11 1.93462 11 1.5C11 0.947715 11.4477 0.5 12 0.5C12.5523 0.5 13 0.947715 13 1.5C13 1.93462 12.7224 2.30571 12.3334 2.44323ZM11.5 5.5L12 5L12.5 5.5H19C20.3807 5.5 21.5 6.61929 21.5 8V10L22 10.5C22.2761 10.5 22.5 10.7239 22.5 11V13C22.5 13.2761 22.2761 13.5 22 13.5L21.5 14V16C21.5 17.3807 20.3807 18.5 19 18.5H5C3.61929 18.5 2.5 17.3807 2.5 16V14L2 13.5C1.72386 13.5 1.5 13.2761 1.5 13V11C1.5 10.7239 1.72386 10.5 2 10.5L2.5 10V8C2.5 6.61929 3.61929 5.5 5 5.5H11.5ZM7.5 12.5C8.60457 12.5 9.5 11.6046 9.5 10.5C9.5 9.39543 8.60457 8.5 7.5 8.5C6.39543 8.5 5.5 9.39543 5.5 10.5C5.5 11.6046 6.39543 12.5 7.5 12.5ZM16.5 12.5C17.6046 12.5 18.5 11.6046 18.5 10.5C18.5 9.39543 17.6046 8.5 16.5 8.5C15.3954 8.5 14.5 9.39543 14.5 10.5C14.5 11.6046 15.3954 12.5 16.5 12.5ZM9.5 13.5C8.94772 13.5 8.5 13.9477 8.5 14.5C8.5 15.0523 8.94772 15.5 9.5 15.5H14.5C15.0523 15.5 15.5 15.0523 15.5 14.5C15.5 13.9477 15.0523 13.5 14.5 13.5H9.5Z" fill="black" stroke="black" stroke-linejoin="bevel"/>
</svg>
