<svg width="16" height="16" viewBox="0 0 16 16" fill="none" xmlns="http://www.w3.org/2000/svg">
<g opacity="0.9">
<path d="M6 7C6 7.55228 5.55228 8 5 8C4.44772 8 4 7.55228 4 7C4 6.44772 4.44772 6 5 6C5.55228 6 6 6.44772 6 7Z" fill="black"/>
<path d="M11 8C11.5523 8 12 7.55228 12 7C12 6.44772 11.5523 6 11 6C10.4477 6 10 6.44772 10 7C10 7.55228 10.4477 8 11 8Z" fill="black"/>
<path d="M6.5 9C6.22386 9 6 9.22386 6 9.5C6 9.77614 6.22386 10 6.5 10H9.5C9.77614 10 10 9.77614 10 9.5C10 9.22386 9.77614 9 9.5 9H6.5Z" fill="black"/>
<path fill-rule="evenodd" clip-rule="evenodd" d="M8.5 1.86622C8.7989 1.69331 9 1.37014 9 1C9 0.447715 8.55229 0 8 0C7.44772 0 7 0.447715 7 1C7 1.37014 7.2011 1.69331 7.5 1.86622V3H3C1.89543 3 1 3.89543 1 5V7C0.447715 7 0 7.44772 0 8V9C0 9.55228 0.447715 10 1 10V11C1 12.1046 1.89543 13 3 13H13C14.1046 13 15 12.1046 15 11V10C15.5523 10 16 9.55229 16 9V8C16 7.44772 15.5523 7 15 7V5C15 3.89543 14.1046 3 13 3H8.5V1.86622ZM3 4C2.44772 4 2 4.44772 2 5V11C2 11.5523 2.44772 12 3 12H13C13.5523 12 14 11.5523 14 11V5C14 4.44772 13.5523 4 13 4H3Z" fill="black"/>
</g>
</svg>
