<svg width="32" height="32" viewBox="0 0 32 32" fill="none" xmlns="http://www.w3.org/2000/svg">
<g opacity="0.9">
<path fill-rule="evenodd" clip-rule="evenodd" d="M13 15C13 16.1046 12.1046 17 11 17C9.89543 17 9 16.1046 9 15C9 13.8954 9.89543 13 11 13C12.1046 13 13 13.8954 13 15ZM12 15C12 15.5523 11.5523 16 11 16C10.4477 16 10 15.5523 10 15C10 14.4477 10.4477 14 11 14C11.5523 14 12 14.4477 12 15Z" fill="black"/>
<path fill-rule="evenodd" clip-rule="evenodd" d="M21 17C22.1046 17 23 16.1046 23 15C23 13.8954 22.1046 13 21 13C19.8954 13 19 13.8954 19 15C19 16.1046 19.8954 17 21 17ZM21 16C21.5523 16 22 15.5523 22 15C22 14.4477 21.5523 14 21 14C20.4477 14 20 14.4477 20 15C20 15.5523 20.4477 16 21 16Z" fill="black"/>
<path d="M12.5 20C12.2239 20 12 20.2239 12 20.5C12 20.7761 12.2239 21 12.5 21H19.5C19.7761 21 20 20.7761 20 20.5C20 20.2239 19.7761 20 19.5 20H12.5Z" fill="black"/>
<path fill-rule="evenodd" clip-rule="evenodd" d="M16.5 5.93699C17.3626 5.71497 18 4.93192 18 4C18 2.89543 17.1046 2 16 2C14.8954 2 14 2.89543 14 4C14 4.93192 14.6374 5.71497 15.5 5.93699V8H7C5.34315 8 4 9.34315 4 11V14H3C2.44772 14 2 14.4477 2 15V18C2 18.5523 2.44772 19 3 19H4V22C4 23.6569 5.34315 25 7 25H25C26.6569 25 28 23.6569 28 22V19H29C29.5523 19 30 18.5523 30 18V15C30 14.4477 29.5523 14 29 14H28V11C28 9.34315 26.6569 8 25 8H16.5V5.93699ZM16 5C16.5523 5 17 4.55228 17 4C17 3.44772 16.5523 3 16 3C15.4477 3 15 3.44772 15 4C15 4.55228 15.4477 5 16 5ZM29 18H28V15H29V18ZM27 11V22C27 23.1046 26.1046 24 25 24H7C5.89543 24 5 23.1046 5 22V11C5 9.89543 5.89543 9 7 9H25C26.1046 9 27 9.89543 27 11ZM3 15H4V18H3V15Z" fill="black"/>
</g>
</svg>
