<svg width="32" height="32" viewBox="0 0 32 32" fill="none" xmlns="http://www.w3.org/2000/svg">
<g opacity="0.9">
<path fill-rule="evenodd" clip-rule="evenodd" d="M6.42034 4C5.05244 4 3.88531 5.11928 4.00884 6.5408C4.21707 8.93715 4.79122 11.2916 5.71479 13.5213C6.89949 16.3814 8.63593 18.9802 10.825 21.1692C13.014 23.3583 15.6128 25.0947 18.4729 26.2794C20.7026 27.203 23.0571 27.7771 25.4534 27.9854C26.8749 28.1089 27.9942 26.9418 27.9942 25.5739V21.9961C27.9942 20.9013 27.2819 19.9339 26.2365 19.6088L22.552 18.4631C21.7004 18.1983 20.7723 18.4453 20.165 19.0985C19.7614 19.5327 19.1414 19.634 18.6715 19.3549C17.4375 18.622 16.2967 17.7364 15.2772 16.717C14.2316 15.6713 13.3268 14.498 12.5831 13.2273C12.3396 12.8113 12.4282 12.2638 12.8123 11.9067C13.5164 11.2521 13.7828 10.2516 13.4973 9.33347L12.3854 5.75768C12.0603 4.71229 11.0929 4 9.99814 4L6.42034 4ZM5.00508 6.45423C4.93736 5.6749 5.5791 5 6.42034 5L9.99813 5C10.655 5 11.2354 5.42737 11.4305 6.05461L12.5424 9.63039C12.7137 10.1813 12.5539 10.7815 12.1314 11.1744C11.4358 11.8211 11.2188 12.8761 11.72 13.7324C12.5068 15.0767 13.4639 16.3179 14.5701 17.4241C15.6486 18.5026 16.8554 19.4393 18.1609 20.2147C19.0748 20.7575 20.2053 20.5239 20.8974 19.7794C21.2428 19.4079 21.7707 19.2674 22.2551 19.418L25.9396 20.5637C26.5668 20.7588 26.9942 21.3392 26.9942 21.9961V25.5739C26.9942 26.4151 26.3193 27.0569 25.54 26.9891C23.2453 26.7897 20.9907 26.2399 18.8556 25.3555C16.1168 24.2211 13.6282 22.5583 11.5321 20.4621C9.43589 18.366 7.77311 15.8774 6.63867 13.1386C5.75428 11.0035 5.20448 8.74893 5.00508 6.45423Z" fill="black"/>
<path d="M5 28C5.55228 28 6 27.5523 6 27C6 26.4477 5.55228 26 5 26C4.44772 26 4 26.4477 4 27C4 27.5523 4.44772 28 5 28Z" fill="black"/>
<path d="M9 28C9.55228 28 10 27.5523 10 27C10 26.4477 9.55228 26 9 26C8.44772 26 8 26.4477 8 27C8 27.5523 8.44772 28 9 28Z" fill="black"/>
<path d="M14 27C14 27.5523 13.5523 28 13 28C12.4477 28 12 27.5523 12 27C12 26.4477 12.4477 26 13 26C13.5523 26 14 26.4477 14 27Z" fill="black"/>
</g>
</svg>
