<svg width="24" height="24" viewBox="0 0 24 24" fill="none" xmlns="http://www.w3.org/2000/svg">
<g opacity="0.9">
<path d="M4.40534 2C3.0405 2 1.86254 3.11973 2.01267 4.54861C2.20932 6.42031 2.67483 8.25758 3.39776 10.0029C4.38306 12.3816 5.82723 14.543 7.64782 16.3636C9.4684 18.1841 11.6298 19.6283 14.0085 20.6136C15.7538 21.3365 17.5911 21.8021 19.4628 21.9987C20.8916 22.1488 22.0114 20.9709 22.0114 19.606V17.2203C22.0114 16.1376 21.3069 15.1809 20.2731 14.8594L17.4445 13.9799C16.7078 13.7508 15.9049 13.9645 15.3796 14.5296C15.0701 14.8624 14.6007 14.9349 14.2498 14.7265C13.234 14.1232 12.2952 13.3944 11.4561 12.5553C10.6898 11.7891 10.0155 10.9396 9.44483 10.0244C9.13453 9.52681 9.24163 8.8551 9.71508 8.41492C10.1376 8.02212 10.2974 7.42183 10.1261 6.87097L8.93937 3.05461C8.74433 2.42737 8.16388 2 7.50702 2H4.40534Z" fill="black"/>
<path d="M4 21C4 21.5523 3.55228 22 3 22C2.44772 22 2 21.5523 2 21C2 20.4477 2.44772 20 3 20C3.55228 20 4 20.4477 4 21Z" fill="black"/>
<path d="M7 21C7 21.5523 6.55228 22 6 22C5.44772 22 5 21.5523 5 21C5 20.4477 5.44772 20 6 20C6.55228 20 7 20.4477 7 21Z" fill="black"/>
<path d="M9 22C9.55228 22 10 21.5523 10 21C10 20.4477 9.55228 20 9 20C8.44772 20 8 20.4477 8 21C8 21.5523 8.44772 22 9 22Z" fill="black"/>
</g>
</svg>
