<svg width="16" height="16" viewBox="0 0 16 16" fill="none" xmlns="http://www.w3.org/2000/svg">
<g opacity="0.9">
<path d="M2.46435 1C1.64717 1 0.937393 1.67074 1.00439 2.53755C1.11396 3.95524 1.4476 5.34898 1.99488 6.66659C2.67522 8.30455 3.67238 9.79276 4.92934 11.0463C6.18631 12.2998 7.67847 13.294 9.32059 13.9723C10.6424 14.5184 12.0406 14.8511 13.4628 14.9601C14.3293 15.0265 15 14.317 15 13.4998V11.5157L15 11.5118L15 10.947C15 10.4786 14.6951 10.0649 14.2478 9.92615L11.7542 9.15289C11.2043 8.98238 10.6053 9.14163 10.2128 9.56273L10.1861 9.59135C10.0294 9.75942 9.80363 9.78583 9.64436 9.69197C8.95569 9.28614 8.31941 8.79468 7.75132 8.22816C7.1844 7.66279 6.69249 7.02976 6.28611 6.34474C6.19151 6.18529 6.2179 5.95855 6.38717 5.80162L6.41119 5.77934C6.83509 5.38633 6.99543 4.78471 6.82335 4.23286L6.1438 2.05349C5.9484 1.42682 5.36822 1 4.7118 1H2.46435Z" fill="black"/>
<path d="M2 15C2.55228 15 3 14.5523 3 14C3 13.4477 2.55228 13 2 13C1.44772 13 1 13.4477 1 14C1 14.5523 1.44772 15 2 15Z" fill="black"/>
<path d="M5 15C5.55228 15 6 14.5523 6 14C6 13.4477 5.55228 13 5 13C4.44772 13 4 13.4477 4 14C4 14.5523 4.44772 15 5 15Z" fill="black"/>
</g>
</svg>
