<svg width="32" height="32" viewBox="0 0 32 32" fill="none" xmlns="http://www.w3.org/2000/svg">
<g opacity="0.9">
<path fill-rule="evenodd" clip-rule="evenodd" d="M16.5 5.93699C17.3626 5.71497 18 4.93192 18 4C18 2.89543 17.1046 2 16 2C14.8954 2 14 2.89543 14 4C14 4.93192 14.6374 5.71497 15.5 5.93699V8H7C5.34315 8 4 9.34315 4 11V14H3C2.44772 14 2 14.4477 2 15V18C2 18.5523 2.44772 19 3 19H4V22C4 23.6569 5.34315 25 7 25H20.083C20.559 22.1623 23.027 20 26 20C26.7013 20 27.3744 20.1203 28 20.3414V19H29C29.5523 19 30 18.5523 30 18V15C30 14.4477 29.5523 14 29 14H28V11C28 9.34315 26.6569 8 25 8H16.5V5.93699ZM13 14.5C13 15.3284 12.3284 16 11.5 16C10.6716 16 10 15.3284 10 14.5C10 13.6716 10.6716 13 11.5 13C12.3284 13 13 13.6716 13 14.5ZM20.5 16C21.3284 16 22 15.3284 22 14.5C22 13.6716 21.3284 13 20.5 13C19.6716 13 19 13.6716 19 14.5C19 15.3284 19.6716 16 20.5 16Z" fill="black"/>
<path d="M25 29V27H23C22.4477 27 22 26.5523 22 26C22 25.4477 22.4477 25 23 25H25V23C25 22.4477 25.4477 22 26 22C26.5523 22 27 22.4477 27 23V25H29C29.5523 25 30 25.4477 30 26C30 26.5523 29.5523 27 29 27H27V29C27 29.5523 26.5523 30 26 30C25.4477 30 25 29.5523 25 29Z" fill="black"/>
</g>
</svg>
