<svg width="24" height="24" viewBox="0 0 24 24" fill="none" xmlns="http://www.w3.org/2000/svg">
<g opacity="0.9">
<path fill-rule="evenodd" clip-rule="evenodd" d="M13.5 1.5C13.5 2.15311 13.0826 2.70873 12.5 2.91465V5H19C20.6569 5 22 6.34315 22 8V10C22.5523 10 23 10.4477 23 11V13C23 13.5523 22.5523 14 22 14V15.1689C21.2646 14.7435 20.4107 14.5 19.5 14.5C16.9073 14.5 14.7755 16.4733 14.5247 19H5C3.34315 19 2 17.6569 2 16V14C1.44772 14 1 13.5523 1 13V11C1 10.4477 1.44772 10 2 10V8C2 6.34315 3.34315 5 5 5H11.5V2.91465C10.9174 2.70873 10.5 2.15311 10.5 1.5C10.5 0.671573 11.1716 0 12 0C12.8284 0 13.5 0.671573 13.5 1.5ZM9 10.5C9 11.3284 8.32843 12 7.5 12C6.67157 12 6 11.3284 6 10.5C6 9.67157 6.67157 9 7.5 9C8.32843 9 9 9.67157 9 10.5ZM16.5 12C17.3284 12 18 11.3284 18 10.5C18 9.67157 17.3284 9 16.5 9C15.6716 9 15 9.67157 15 10.5C15 11.3284 15.6716 12 16.5 12Z" fill="black"/>
<path d="M19.5 16C19.7761 16 20 16.2239 20 16.5V19H22.5C22.7761 19 23 19.2239 23 19.5C23 19.7761 22.7761 20 22.5 20H20V22.5C20 22.7761 19.7761 23 19.5 23C19.2239 23 19 22.7761 19 22.5V20H16.5C16.2239 20 16 19.7761 16 19.5C16 19.2239 16.2239 19 16.5 19H19V16.5C19 16.2239 19.2239 16 19.5 16Z" fill="black"/>
</g>
</svg>
