<svg width="24" height="24" viewBox="0 0 24 24" fill="none" xmlns="http://www.w3.org/2000/svg">
<g opacity="0.9">
<path fill-rule="evenodd" clip-rule="evenodd" d="M13.5 1.5C13.5 2.15311 13.0826 2.70873 12.5 2.91465V5H18.5C20.433 5 22 6.567 22 8.5V10C22.5523 10 23 10.4477 23 11V13C23 13.5523 22.5523 14 22 14V16C22 16.2761 21.7761 16.5 21.5 16.5C21.2239 16.5 21 16.2761 21 16V8.5C21 7.11929 19.8807 6 18.5 6H5.5C4.11929 6 3 7.11929 3 8.5V15.5C3 16.8807 4.11929 18 5.5 18H12.5C12.7761 18 13 18.2239 13 18.5C13 18.7761 12.7761 19 12.5 19H5.5C3.567 19 2 17.433 2 15.5V14C1.44772 14 1 13.5523 1 13V11C1 10.4477 1.44772 10 2 10V8.5C2 6.567 3.567 5 5.5 5H11.5V2.91465C10.9174 2.70873 10.5 2.15311 10.5 1.5C10.5 0.671573 11.1716 0 12 0C12.8284 0 13.5 0.671573 13.5 1.5ZM12.5 1.5C12.5 1.77614 12.2761 2 12 2C11.7239 2 11.5 1.77614 11.5 1.5C11.5 1.22386 11.7239 1 12 1C12.2761 1 12.5 1.22386 12.5 1.5Z" fill="black"/>
<path fill-rule="evenodd" clip-rule="evenodd" d="M7.5 12C8.32843 12 9 11.3284 9 10.5C9 9.67157 8.32843 9 7.5 9C6.67157 9 6 9.67157 6 10.5C6 11.3284 6.67157 12 7.5 12ZM7.5 11C7.77614 11 8 10.7761 8 10.5C8 10.2239 7.77614 10 7.5 10C7.22386 10 7 10.2239 7 10.5C7 10.7761 7.22386 11 7.5 11Z" fill="black"/>
<path fill-rule="evenodd" clip-rule="evenodd" d="M18 10.5C18 11.3284 17.3284 12 16.5 12C15.6716 12 15 11.3284 15 10.5C15 9.67157 15.6716 9 16.5 9C17.3284 9 18 9.67157 18 10.5ZM17 10.5C17 10.7761 16.7761 11 16.5 11C16.2239 11 16 10.7761 16 10.5C16 10.2239 16.2239 10 16.5 10C16.7761 10 17 10.2239 17 10.5Z" fill="black"/>
<path d="M17.5 16C17.7761 16 18 16.2239 18 16.5V18H19.5C19.7761 18 20 18.2239 20 18.5C20 18.7761 19.7761 19 19.5 19H18V20.5C18 20.7761 17.7761 21 17.5 21C17.2239 21 17 20.7761 17 20.5V19H15.5C15.2239 19 15 18.7761 15 18.5C15 18.2239 15.2239 18 15.5 18H17V16.5C17 16.2239 17.2239 16 17.5 16Z" fill="black"/>
</g>
</svg>
