<svg width="32" height="32" viewBox="0 0 32 32" fill="none" xmlns="http://www.w3.org/2000/svg">
<g opacity="0.9">
<path fill-rule="evenodd" clip-rule="evenodd" d="M15.5245 11.4635C15.6742 11.0029 16.3259 11.0029 16.4755 11.4635L17.4593 14.4914C17.5263 14.6974 17.7183 14.8369 17.9349 14.8369H21.1186C21.6029 14.8369 21.8043 15.4567 21.4125 15.7414L18.8368 17.6127C18.6616 17.74 18.5882 17.9657 18.6552 18.1717L19.639 21.1996C19.7887 21.6602 19.2614 22.0433 18.8696 21.7586L16.2939 19.8873C16.1187 19.76 15.8814 19.76 15.7061 19.8873L13.1305 21.7586C12.7386 22.0433 12.2114 21.6602 12.361 21.1996L13.3449 18.1717C13.4118 17.9657 13.3385 17.74 13.1632 17.6127L10.5876 15.7414C10.1957 15.4567 10.3971 14.8369 10.8815 14.8369H14.0651C14.2817 14.8369 14.4737 14.6974 14.5407 14.4914L15.5245 11.4635ZM15.4917 14.8004L16 13.2361L16.5083 14.8004C16.7091 15.4184 17.285 15.8369 17.9349 15.8369H19.5797L18.249 16.8037C17.7233 17.1857 17.5033 17.8627 17.7041 18.4807L18.2124 20.0451L16.8817 19.0783C16.356 18.6963 15.6441 18.6963 15.1183 19.0783L13.7876 20.0451L14.2959 18.4807C14.4967 17.8627 14.2767 17.1857 13.751 16.8037L12.4203 15.8369H14.0651C14.715 15.8369 15.2909 15.4184 15.4917 14.8004Z" fill="black"/>
<path fill-rule="evenodd" clip-rule="evenodd" d="M4 9C4 7.89543 4.89543 7 6 7H26C27.1046 7 28 7.89543 28 9V24C28 25.1046 27.1046 26 26 26H6C4.89543 26 4 25.1046 4 24V9ZM6 8H26C26.5523 8 27 8.44771 27 9V24C27 24.5523 26.5523 25 26 25H6C5.44772 25 5 24.5523 5 24V9C5 8.44772 5.44772 8 6 8Z" fill="black"/>
</g>
</svg>
