<svg width="16" height="16" viewBox="0 0 16 16" fill="none" xmlns="http://www.w3.org/2000/svg">
<g opacity="0.9">
<path d="M8.47551 5.46352C8.32584 5.00286 7.67413 5.00286 7.52446 5.46352L7.21419 6.41843C7.14725 6.62445 6.95527 6.76393 6.73866 6.76393H5.7346C5.25024 6.76393 5.04885 7.38373 5.44071 7.66843L6.25301 8.2586C6.42825 8.38593 6.50158 8.61161 6.43464 8.81762L6.12437 9.77254C5.9747 10.2332 6.50194 10.6163 6.89379 10.3316L7.70609 9.74138C7.88134 9.61406 8.11863 9.61406 8.29388 9.74138L9.10618 10.3316C9.49803 10.6163 10.0253 10.2332 9.8756 9.77253L9.56533 8.81762C9.49839 8.61161 9.57172 8.38593 9.74696 8.2586L10.5593 7.66843C10.9511 7.38373 10.7497 6.76393 10.2654 6.76393H9.26131C9.0447 6.76393 8.85272 6.62445 8.78578 6.41843L8.47551 5.46352Z" fill="black"/>
<path fill-rule="evenodd" clip-rule="evenodd" d="M1 4C1 2.89543 1.89543 2 3 2H13C14.1046 2 15 2.89543 15 4V12C15 13.1046 14.1046 14 13 14H3C1.89543 14 1 13.1046 1 12V4ZM3 3H13C13.5523 3 14 3.44772 14 4V12C14 12.5523 13.5523 13 13 13H3C2.44772 13 2 12.5523 2 12V4C2 3.44772 2.44772 3 3 3Z" fill="black"/>
</g>
</svg>
