<svg width="32" height="32" viewBox="0 0 32 32" fill="none" xmlns="http://www.w3.org/2000/svg">
<g opacity="0.9">
<path fill-rule="evenodd" clip-rule="evenodd" d="M14 13C14 11.8954 14.8954 11 16 11C17.1046 11 18 11.8954 18 13V21.5C18 21.7761 17.7761 22 17.5 22H14.5C14.2239 22 14 21.7761 14 21.5V13ZM16 12C15.4477 12 15 12.4477 15 13V21H17V13C17 12.4477 16.5523 12 16 12Z" fill="black"/>
<path fill-rule="evenodd" clip-rule="evenodd" d="M8 16C8 14.8954 8.89543 14 10 14C11.1046 14 12 14.8954 12 16V21.5C12 21.7761 11.7761 22 11.5 22H8.5C8.22386 22 8 21.7761 8 21.5V16ZM10 15C9.44772 15 9 15.4477 9 16V21H11V16C11 15.4477 10.5523 15 10 15Z" fill="black"/>
<path fill-rule="evenodd" clip-rule="evenodd" d="M22 16C20.8954 16 20 16.8954 20 18V21.5C20 21.7761 20.2239 22 20.5 22H23.5C23.7761 22 24 21.7761 24 21.5V18C24 16.8954 23.1046 16 22 16ZM21 18C21 17.4477 21.4477 17 22 17C22.5523 17 23 17.4477 23 18V21H21V18Z" fill="black"/>
<path fill-rule="evenodd" clip-rule="evenodd" d="M6.5 7C5.11929 7 4 8.11929 4 9.5V22.5C4 23.8807 5.11929 25 6.5 25H25.5C26.8807 25 28 23.8807 28 22.5V9.5C28 8.11929 26.8807 7 25.5 7H6.5ZM5 9.5C5 8.67157 5.67157 8 6.5 8H25.5C26.3284 8 27 8.67157 27 9.5V22.5C27 23.3284 26.3284 24 25.5 24H6.5C5.67157 24 5 23.3284 5 22.5V9.5Z" fill="black"/>
<path d="M10.5 27.5C10.5 27.2239 10.7239 27 11 27H21C21.2761 27 21.5 27.2239 21.5 27.5C21.5 27.7761 21.2761 28 21 28H11C10.7239 28 10.5 27.7761 10.5 27.5Z" fill="black"/>
</g>
</svg>
