<svg width="32" height="32" viewBox="0 0 32 32" fill="none" xmlns="http://www.w3.org/2000/svg">
<g opacity="0.9">
<path d="M18.0061 10.5171C18.2728 10.5886 18.4311 10.8627 18.3597 11.1295L17.9845 12.5296C17.913 12.7963 17.6389 12.9546 17.3721 12.8831C17.1054 12.8117 16.9471 12.5375 17.0186 12.2708L17.3937 10.8707C17.4652 10.6039 17.7394 10.4456 18.0061 10.5171Z" fill="black"/>
<path d="M14.6297 23.1181C14.8964 23.1895 15.0547 23.4637 14.9832 23.7304L14.6081 25.1305C14.5366 25.3973 14.2625 25.5556 13.9957 25.4841C13.729 25.4126 13.5707 25.1384 13.6422 24.8717L14.0173 23.4716C14.0888 23.2049 14.363 23.0466 14.6297 23.1181Z" fill="black"/>
<path d="M15.9991 22.3465C18.4005 22.3465 20.3472 20.3998 20.3472 17.9985C20.3472 15.5971 18.4005 13.6504 15.9991 13.6504C13.5977 13.6504 11.651 15.5971 11.651 17.9985C11.651 20.3998 13.5977 22.3465 15.9991 22.3465Z" fill="black"/>
<path d="M23.1304 16.6061C23.3972 16.5346 23.5555 16.2604 23.484 15.9937C23.4125 15.727 23.1384 15.5687 22.8716 15.6402L21.4715 16.0153C21.2048 16.0868 21.0465 16.3609 21.118 16.6277C21.1894 16.8944 21.4636 17.0527 21.7303 16.9812L23.1304 16.6061Z" fill="black"/>
<path d="M10.5295 19.9825C10.7962 19.911 10.9545 19.6369 10.883 19.3701C10.8116 19.1034 10.5374 18.9451 10.2707 19.0166L8.87057 19.3917C8.60383 19.4632 8.44554 19.7374 8.51701 20.0041C8.58848 20.2708 8.86265 20.4291 9.12938 20.3576L10.5295 19.9825Z" fill="black"/>
<path d="M21.4789 23.4756C21.2837 23.6709 20.9671 23.6709 20.7718 23.4756L19.7469 22.4507C19.5516 22.2554 19.5516 21.9388 19.7469 21.7436C19.9421 21.5483 20.2587 21.5483 20.454 21.7436L21.4789 22.7685C21.6742 22.9638 21.6742 23.2804 21.4789 23.4756Z" fill="black"/>
<path d="M12.2544 14.2511C12.0591 14.4464 11.7425 14.4464 11.5473 14.2511L10.5223 13.2261C10.3271 13.0309 10.3271 12.7143 10.5223 12.519C10.7176 12.3238 11.0342 12.3238 11.2294 12.519L12.2544 13.544C12.4496 13.7392 12.4496 14.0558 12.2544 14.2511Z" fill="black"/>
<path fill-rule="evenodd" clip-rule="evenodd" d="M5.5 4C4.11929 4 3 5.11929 3 6.5V25.5C3 26.8807 4.11929 28 5.5 28H26.5C27.8807 28 29 26.8807 29 25.5V6.5C29 5.11929 27.8807 4 26.5 4H5.5ZM4 9H28V25.5C28 26.3284 27.3284 27 26.5 27H5.5C4.67157 27 4 26.3284 4 25.5V9Z" fill="black"/>
</g>
</svg>
