<svg width="16" height="16" viewBox="0 0 16 16" fill="none" xmlns="http://www.w3.org/2000/svg">
<g opacity="0.9">
<path fill-rule="evenodd" clip-rule="evenodd" d="M8 12C9.65685 12 11 10.6569 11 9C11 7.34315 9.65685 6 8 6C6.34315 6 5 7.34315 5 9C5 10.6569 6.34315 12 8 12ZM8 11C9.10457 11 10 10.1046 10 9C10 7.89543 9.10457 7 8 7C6.89543 7 6 7.89543 6 9C6 10.1046 6.89543 11 8 11Z" fill="black"/>
<path d="M13.3126 7.57671C13.3841 7.84345 13.2258 8.11761 12.9591 8.18909L11.9931 8.44791C11.7264 8.51938 11.4522 8.36108 11.3808 8.09435C11.3093 7.82762 11.4676 7.55345 11.7343 7.48198L12.7002 7.22316C12.967 7.15169 13.2411 7.30998 13.3126 7.57671Z" fill="black"/>
<path d="M4.61927 9.90609C4.69075 10.1728 4.53245 10.447 4.26572 10.5185L3.2998 10.7773C3.03306 10.8487 2.75889 10.6905 2.68742 10.4237C2.61595 10.157 2.77424 9.88282 3.04098 9.81135L4.0069 9.55253C4.27363 9.48106 4.5478 9.63935 4.61927 9.90609Z" fill="black"/>
<path d="M11.182 12.8887C11.3772 13.084 11.6938 13.084 11.8891 12.8887C12.0844 12.6934 12.0844 12.3769 11.8891 12.1816L11.182 11.4745C10.9867 11.2792 10.6701 11.2792 10.4749 11.4745C10.2796 11.6698 10.2796 11.9863 10.4749 12.1816L11.182 12.8887Z" fill="black"/>
<path d="M4.81802 6.52475C5.01329 6.72001 5.32987 6.72001 5.52513 6.52475C5.72039 6.32949 5.72039 6.0129 5.52513 5.81764L4.81802 5.11054C4.62276 4.91527 4.30618 4.91527 4.11092 5.11054C3.91566 5.3058 3.91566 5.62238 4.11092 5.81764L4.81802 6.52475Z" fill="black"/>
<path fill-rule="evenodd" clip-rule="evenodd" d="M16 2.5C16 1.67157 15.3284 1 14.5 1H1.5C0.671573 1 0 1.67157 0 2.5V13.5C0 14.3284 0.671572 15 1.5 15L14.5 15C15.3284 15 16 14.3284 16 13.5L16 2.5ZM14.5 2C14.7761 2 15 2.22386 15 2.5V3H1V2.5C1 2.22386 1.22386 2 1.5 2L14.5 2ZM1 4L0.999999 13.5C0.999999 13.7761 1.22386 14 1.5 14H6.23593C6.20201 13.9069 6.19536 13.8028 6.22295 13.6998L6.48177 12.7339C6.55324 12.4672 6.82741 12.3089 7.09414 12.3804C7.36088 12.4518 7.51917 12.726 7.4477 12.9927L7.18888 13.9587C7.1851 13.9727 7.18076 13.9865 7.17589 14L14.5 14C14.7761 14 15 13.7761 15 13.5L15 4H9.76437C9.79804 4.09291 9.80459 4.1967 9.77707 4.2994L9.51825 5.26533C9.44678 5.53206 9.17261 5.69035 8.90588 5.61888C8.63914 5.54741 8.48085 5.27324 8.55232 5.00651L8.81114 4.04058C8.81485 4.02676 8.81909 4.01322 8.82386 4H1Z" fill="black"/>
</g>
</svg>
