<svg width="16" height="16" viewBox="0 0 16 16" fill="none" xmlns="http://www.w3.org/2000/svg">
<path opacity="0.9" d="M6.5 9C6.5 9.82843 5.82843 10.5 5 10.5C4.17157 10.5 3.5 9.82843 3.5 9C3.5 8.17157 4.17157 7.5 5 7.5C5.82843 7.5 6.5 8.17157 6.5 9ZM6.5 9C6.5 8.17157 7.17157 7.5 8 7.5C8.82843 7.5 9.5 8.17157 9.5 9M6.5 9C6.5 9.82843 7.17157 10.5 8 10.5C8.82843 10.5 9.5 9.82843 9.5 9M9.5 9C9.5 8.17157 10.1716 7.5 11 7.5C11.8284 7.5 12.5 8.17157 12.5 9C12.5 9.82843 11.8284 10.5 11 10.5C10.1716 10.5 9.5 9.82843 9.5 9ZM4.5 13L4 12.5H3C2.17157 12.5 1.5 11.8284 1.5 11V5C1.5 4.17157 2.17157 3.5 3 3.5H13C13.8284 3.5 14.5 4.17157 14.5 5V11C14.5 11.8284 13.8284 12.5 13 12.5H8.31946C8.00776 12.5 7.7038 12.5971 7.44983 12.7778L4.5 14.8767V13Z" fill="black" stroke="black" stroke-linejoin="bevel"/>
</svg>
