<svg width="32" height="32" viewBox="0 0 32 32" fill="none" xmlns="http://www.w3.org/2000/svg">
<path opacity="0.9" fill-rule="evenodd" clip-rule="evenodd" d="M4 7.5C4 6.11929 5.11929 5 6.5 5H25.5C26.8807 5 28 6.11929 28 7.5V24.5C28 25.8807 26.8807 27 25.5 27H6.5C5.11929 27 4 25.8807 4 24.5V7.5ZM6.5 6C5.67157 6 5 6.67157 5 7.5V11H27V7.5C27 6.67157 26.3284 6 25.5 6H6.5ZM5 16V12H12V16H5ZM12 17H5V21H12V17ZM13 21V17H17V21H13ZM12 22H5V24.5C5 25.3284 5.67157 26 6.5 26H12V22ZM13 26V22H17V26H13ZM13 16V12H17V16H13ZM18 16V12H22V16H18ZM18 17V21H22V17H18ZM18 22V26H22V22H18ZM23 21V17H27V21H23ZM23 26V22H27V24.5C27 25.3284 26.3284 26 25.5 26H23ZM23 16V12H27V16H23Z" fill="black"/>
</svg>
