<svg width="32" height="32" viewBox="0 0 32 32" fill="none" xmlns="http://www.w3.org/2000/svg">
<path opacity="0.9" fill-rule="evenodd" clip-rule="evenodd" d="M8.5 3C7.11929 3 6 4.11929 6 5.5V26.5C6 27.8807 7.11929 29 8.5 29H23.4553C23.7421 29 24.0175 28.9517 24.274 28.8629C21.8266 28.3057 20 26.1162 20 23.5C20 21.6398 20.9234 19.9954 22.3369 19H19.5C19.2239 19 19 18.7761 19 18.5V15C19 13.8954 19.8954 13 21 13C22.1046 13 23 13.8954 23 15V18.5C23 18.5362 22.9962 18.5714 22.9889 18.6054C23.7417 18.2184 24.5953 18 25.5 18C25.661 18 25.8205 18.0069 25.978 18.0205L26.0006 9.58744L19.4182 3H8.5ZM25 10L19 4V8C19 9.10457 19.8954 10 21 10H25ZM14 10C14 8.89543 14.8954 8 16 8C17.1046 8 18 8.89543 18 10V18.5C18 18.7761 17.7761 19 17.5 19H14.5C14.2239 19 14 18.7761 14 18.5V10ZM9 13C9 11.8954 9.89543 11 11 11C12.1046 11 13 11.8954 13 13V18.5C13 18.7761 12.7761 19 12.5 19H9.5C9.22386 19 9 18.7761 9 18.5V13ZM26.5479 27.3831C25.2102 27.7403 23.7238 27.3942 22.6744 26.3448C21.625 25.2954 21.2789 23.8089 21.6361 22.4713L24.092 24.9272L26.5 24.5L26.9272 22.092L24.4713 19.6361C25.8089 19.2789 27.2954 19.625 28.3448 20.6744C29.3942 21.7238 29.7403 23.2102 29.3831 24.5479L30.9128 26.0776C31.6957 26.8605 31.6957 28.1299 30.9128 28.9128C30.1299 29.6957 28.8605 29.6957 28.0776 28.9128L26.5479 27.3831Z" fill="black"/>
</svg>
