<svg width="24" height="24" viewBox="0 0 24 24" fill="none" xmlns="http://www.w3.org/2000/svg">
<g opacity="0.9">
<path fill-rule="evenodd" clip-rule="evenodd" d="M5.5 2C4.67157 2 4 2.67157 4 3.5V20.5C4 21.3284 4.67157 22 5.5 22H12C12.2761 22 12.5 22.2239 12.5 22.5C12.5 22.7761 12.2761 23 12 23H5.5C4.11929 23 3 21.8807 3 20.5V3.5C3 2.11929 4.11929 1 5.5 1H15.5C15.6662 1 15.8254 1.0668 15.9418 1.18538L21 6.33724V12.5208C21 12.797 20.7761 13.0208 20.5 13.0208C20.2239 13.0208 20 12.797 20 12.5208V7.04167H17.5C16.1193 7.04167 15 5.92238 15 4.54167V2H5.5ZM16 2.67202L19.3084 6.04167H17.5C16.6716 6.04167 16 5.37009 16 4.54167V2.67202Z" fill="black"/>
<path fill-rule="evenodd" clip-rule="evenodd" d="M6 8.5C6 7.67157 6.67157 7 7.5 7C8.32843 7 9 7.67157 9 8.5V13.5C9 13.7761 8.77614 14 8.5 14H6.5C6.22386 14 6 13.7761 6 13.5V8.5ZM7.5 8C7.22386 8 7 8.22386 7 8.5V13H8V8.5C8 8.22386 7.77614 8 7.5 8Z" fill="black"/>
<path fill-rule="evenodd" clip-rule="evenodd" d="M11.5 5C10.6716 5 10 5.67157 10 6.5V13.5C10 13.7761 10.2239 14 10.5 14H12.5C12.7761 14 13 13.7761 13 13.5V6.5C13 5.67157 12.3284 5 11.5 5ZM11 6.5C11 6.22386 11.2239 6 11.5 6C11.7761 6 12 6.22386 12 6.5V13H11V6.5Z" fill="black"/>
<path fill-rule="evenodd" clip-rule="evenodd" d="M14 10.5C14 9.67157 14.6716 9 15.5 9C16.3284 9 17 9.67157 17 10.5V13.5C17 13.7761 16.7761 14 16.5 14H14.5C14.2239 14 14 13.7761 14 13.5V10.5ZM15.5 10C15.2239 10 15 10.2239 15 10.5V13H16V10.5C16 10.2239 15.7761 10 15.5 10Z" fill="black"/>
<path fill-rule="evenodd" clip-rule="evenodd" d="M20.3294 16.0859C19.3585 15.115 17.9835 14.7958 16.748 15.1257C16.5754 15.1718 16.4404 15.3066 16.3941 15.4792C16.3478 15.6518 16.3971 15.836 16.5235 15.9623L18.1346 17.5735L16.5736 19.1346L14.9624 17.5234C14.836 17.397 14.6518 17.3477 14.4792 17.394C14.3066 17.4404 14.1719 17.5753 14.1258 17.7479C13.7958 18.9834 14.1151 20.3585 15.0859 21.3293C15.9819 22.2252 17.222 22.5662 18.379 22.3542L19.4085 23.3837C20.2301 24.2053 21.5622 24.2053 22.3838 23.3837C23.2054 22.5621 23.2054 21.2301 22.3838 20.4085L21.3543 19.379C21.5663 18.222 21.2253 16.9818 20.3294 16.0859ZM19.1953 17.22L17.9898 16.0145C18.5863 16.0766 19.1656 16.3363 19.6223 16.793C20.3305 17.5012 20.565 18.5045 20.3234 19.4092C20.2773 19.5817 20.3267 19.7656 20.4529 19.8918L21.6767 21.1156C22.1078 21.5466 22.1078 22.2456 21.6767 22.6766C21.2456 23.1077 20.5467 23.1077 20.1156 22.6766L18.8918 21.4528C18.7656 21.3266 18.5817 21.2773 18.4093 21.3233C17.5045 21.5649 16.5013 21.3304 15.793 20.6222C15.3364 20.1655 15.0767 19.5862 15.0146 18.9898L16.22 20.1952C16.3138 20.289 16.441 20.3417 16.5736 20.3417C16.7062 20.3417 16.8334 20.289 16.9271 20.1952L19.1953 17.9271C19.2891 17.8333 19.3417 17.7061 19.3417 17.5735C19.3417 17.4409 19.2891 17.3137 19.1953 17.22Z" fill="black"/>
</g>
</svg>
