<svg width="16" height="16" viewBox="0 0 16 16" fill="none" xmlns="http://www.w3.org/2000/svg">
<path opacity="0.9" d="M13.7491 10.5918C12.9959 10.2367 12.4813 9.67959 12.2616 8.8898C11.9227 7.6898 12.3307 6.56327 13.3537 5.81633C13.7805 5.50408 13.7867 5.43061 13.4604 5.01429C12.588 3.9 11.0503 3.44694 9.5566 3.86327C9.35577 3.91837 9.14865 3.96735 8.96664 4.05918C8.36413 4.3898 7.78673 4.28571 7.17794 4.04082C5.4269 3.34286 3.63819 3.91837 2.62773 5.48571C2.27627 6.02449 2.06915 6.63061 2.02522 7.26122C1.97501 7.95918 1.97501 8.84694 2.33903 10.6102C2.67166 11.8347 3.27418 12.9306 4.09635 13.9041C4.30346 14.1551 4.54823 14.3816 4.81183 14.5776C5.48966 15.0796 6.23024 15.1224 6.9771 14.7429C7.76162 14.3449 8.53359 14.2837 9.36832 14.6571C10.5231 15.1714 11.3955 14.9816 12.2114 14.0327C13.0085 13.1082 13.611 12.0735 13.9813 10.9102C14.0503 10.702 13.8871 10.6592 13.7491 10.5918ZM10.6989 0H10.5733C10.134 0.25102 9.64447 0.453061 9.26162 0.765306C8.63401 1.27347 8.33903 1.97755 8.27627 2.78571C9.41853 2.78571 10.5922 1.42653 10.6989 0Z" fill="black"/>
</svg>
