<svg width="24" height="24" viewBox="0 0 24 24" fill="none" xmlns="http://www.w3.org/2000/svg">
<g clip-path="url(#clip0)">
<path opacity="0.9" d="M20.1448 15.5347C19.0778 15.0139 18.3488 14.1967 18.0376 13.0384C17.5574 11.2784 18.1354 9.62612 19.5846 8.53061C20.1892 8.07265 20.1981 7.9649 19.7358 7.35429C18.4999 5.72 16.3216 5.05551 14.2055 5.66612C13.9209 5.74694 13.6275 5.81878 13.3697 5.95347C12.5161 6.43837 11.6981 6.28571 10.8357 5.92653C8.35503 4.90286 5.82104 5.74694 4.38955 8.04571C3.89164 8.83592 3.59823 9.7249 3.53599 10.6498C3.46486 11.6735 3.46486 12.9755 3.98056 15.5616C4.45179 17.3576 5.30535 18.9649 6.4701 20.3927C6.76351 20.7608 7.11026 21.0931 7.48369 21.3804C8.44394 22.1167 9.49311 22.1796 10.5512 21.6229C11.6626 21.0392 12.7562 20.9494 13.9387 21.4971C15.5747 22.2514 16.8106 21.9731 17.9664 20.5812C19.0956 19.2253 19.9492 17.7078 20.4738 16.0016C20.5716 15.6963 20.3404 15.6335 20.1448 15.5347ZM15.8237 0H15.6458C15.0234 0.368163 14.3299 0.66449 13.7876 1.12245C12.8984 1.86776 12.4806 2.90041 12.3916 4.08571C14.0098 4.08571 15.6725 2.09224 15.8237 0Z" fill="black"/>
</g>
<defs>
<clipPath id="clip0">
<rect width="24" height="24" fill="white"/>
</clipPath>
</defs>
</svg>
