<svg width="32" height="32" viewBox="0 0 32 32" fill="none" xmlns="http://www.w3.org/2000/svg">
<path opacity="0.9" d="M25.5857 20.6584C24.33 20.0664 23.472 19.1376 23.1057 17.8208C22.5407 15.8202 23.2208 13.9421 24.9264 12.6968C25.638 12.1763 25.6484 12.0538 25.1043 11.3597C23.6499 9.50198 21.0862 8.74665 18.5958 9.44074C18.261 9.5326 17.9157 9.61426 17.6122 9.76737C16.6077 10.3186 15.6451 10.145 14.6301 9.73675C11.7107 8.57313 8.72849 9.5326 7.04382 12.1456C6.45785 13.0439 6.11255 14.0544 6.0393 15.1057C5.95559 16.2693 5.91839 17.7689 6.56249 20.6891C7.11707 22.7305 8.12159 24.5576 9.49235 26.1805C9.83766 26.599 10.2457 26.9767 10.6852 27.3033C11.8153 28.1403 13.05 28.2118 14.2952 27.5789C15.6032 26.9154 16.8902 26.8134 18.2819 27.436C20.2073 28.2934 21.6617 27.977 23.022 26.3949C24.3509 24.8536 25.3555 23.1286 25.9728 21.1892C26.0879 20.8422 25.8159 20.7707 25.5857 20.6584ZM20.5003 3H20.291C19.5585 3.41849 18.7423 3.75533 18.104 4.2759C17.0577 5.1231 16.5659 6.29692 16.4612 7.64427C18.3656 7.64427 20.3224 5.37828 20.5003 3Z" fill="black"/>
</svg>
