<svg width="24" height="24" viewBox="0 0 24 24" fill="none" xmlns="http://www.w3.org/2000/svg">
<g clip-path="url(#clip0)">
<path opacity="0.9" fill-rule="evenodd" clip-rule="evenodd" d="M10.5512 21.6229C11.6626 21.0392 12.7562 20.9494 13.9387 21.4971C15.5747 22.2514 16.8106 21.9731 17.9664 20.5812C19.0956 19.2253 19.9492 17.7078 20.4738 16.0016C20.5601 15.732 20.39 15.6515 20.2143 15.5683C20.191 15.5573 20.1677 15.5463 20.1448 15.5347C19.0778 15.0139 18.3488 14.1967 18.0376 13.0384C17.5574 11.2784 18.1354 9.62612 19.5846 8.53061C20.1892 8.07265 20.1981 7.9649 19.7358 7.35429C19.3902 6.89733 18.971 6.51619 18.5 6.21755C18.0422 5.92722 17.5355 5.71485 17 5.58657C16.1164 5.37489 15.1547 5.39222 14.2055 5.66612C14.1667 5.67712 14.1279 5.68794 14.089 5.69878C13.8418 5.76764 13.5925 5.8371 13.3697 5.95347C12.5161 6.43837 11.6981 6.28571 10.8357 5.92653C8.35503 4.90286 5.82104 5.74694 4.38955 8.04571C3.89164 8.83592 3.59823 9.7249 3.53599 10.6498C3.46486 11.6735 3.46486 12.9755 3.98056 15.5616C4.45179 17.3576 5.30535 18.9649 6.4701 20.3927C6.76351 20.7608 7.11026 21.0931 7.48369 21.3804C8.44394 22.1167 9.49311 22.1796 10.5512 21.6229ZM8.09324 20.5877C7.7768 20.3441 7.48979 20.0676 7.25212 19.7694L7.24496 19.7605C6.16946 18.4422 5.3889 16.9714 4.95532 15.3363C4.46092 12.8471 4.46957 11.6404 4.53359 10.7191L4.53374 10.7169C4.58461 9.961 4.82425 9.23165 5.2356 8.57881L5.23842 8.57432C6.41825 6.67967 8.43636 6.01895 10.4527 6.8503C11.4203 7.25306 12.5996 7.53134 13.8445 6.83376C13.9649 6.77292 14.1021 6.73427 14.3514 6.66402C14.3909 6.6529 14.4332 6.64099 14.4787 6.62807L14.4827 6.62692C15.2696 6.39986 16.0555 6.3886 16.767 6.55906C17.1983 6.66237 17.6024 6.83242 17.9645 7.06207C18.2951 7.27171 18.5923 7.53192 18.845 7.83928C17.1743 9.17923 16.4994 11.1969 17.0723 13.2997C17.4278 14.6212 18.229 15.5947 19.3408 16.2389C18.8522 17.5959 18.129 18.8233 17.198 19.9413L17.1971 19.9424C16.7072 20.5323 16.2861 20.7837 15.9114 20.8688C15.5369 20.9537 15.0505 20.9084 14.3582 20.5894C12.8631 19.8971 11.4418 20.0256 10.0862 20.7375C9.69354 20.9441 9.35184 21.0113 9.05471 20.9893C8.76024 20.9674 8.44014 20.8534 8.09324 20.5877ZM13.7876 1.12245C13.1632 1.64583 12.7712 2.31092 12.5623 3.07106C12.4738 3.39337 12.4181 3.73278 12.3916 4.08571C12.7391 4.08571 13.0886 3.9938 13.4248 3.82873C14.3537 3.37263 15.1805 2.35802 15.5805 1.18062C15.6037 1.11221 15.6255 1.04326 15.6458 0.973833C15.7144 0.739124 15.7658 0.499021 15.7976 0.256523C15.8087 0.171268 15.8175 0.0857169 15.8237 0H15.6458C15.4517 0.114813 15.2507 0.222639 15.0495 0.330561C14.9452 0.386544 14.8408 0.442552 14.7372 0.499574C14.4004 0.685115 14.0731 0.881391 13.7876 1.12245Z" fill="black"/>
</g>
<defs>
<clipPath id="clip0">
<rect width="24" height="24" fill="white"/>
</clipPath>
</defs>
</svg>
