<svg width="32" height="32" viewBox="0 0 32 32" fill="none" xmlns="http://www.w3.org/2000/svg">
<path opacity="0.9" fill-rule="evenodd" clip-rule="evenodd" d="M24.2807 11.9305C22.2925 13.413 21.4668 15.6944 22.1428 18.0907C22.5638 19.6022 23.5216 20.6949 24.8432 21.4039C24.263 22.9959 23.3923 24.434 22.2647 25.7419L22.2638 25.7429C21.6754 26.4272 21.1484 26.7442 20.6498 26.8534C20.1494 26.9631 19.5285 26.8963 18.6898 26.523C16.9939 25.7644 15.39 25.9023 13.8429 26.6871C12.9187 27.1568 12.0913 27.1 11.2811 26.5002C10.8988 26.2161 10.5516 25.8931 10.2637 25.5441L10.2563 25.5353C8.97598 24.0194 8.0479 22.3284 7.53378 20.4499C6.91712 17.6451 6.95975 16.2475 7.03673 15.1775L7.03688 15.1752C7.09791 14.2992 7.38554 13.4521 7.88136 12.692L7.88429 12.6875C9.30875 10.4781 11.7823 9.67883 14.2585 10.6651C15.3761 11.1145 16.6884 11.4061 18.075 10.654C18.2362 10.5748 18.4185 10.5253 18.7112 10.4458C18.758 10.4331 18.8076 10.4196 18.8604 10.4051L18.8643 10.404C20.9916 9.81113 23.0982 10.4614 24.2807 11.9305ZM17.6122 9.76737C17.8744 9.63509 18.1678 9.55614 18.4588 9.47786C18.5046 9.46554 18.5503 9.45323 18.5958 9.44074C21.0862 8.74665 23.6499 9.50198 25.1043 11.3597C25.6484 12.0538 25.638 12.1763 24.9264 12.6968C23.2208 13.9421 22.5407 15.8202 23.1057 17.8208C23.472 19.1376 24.33 20.0664 25.5857 20.6584C25.6126 20.6716 25.6401 20.6842 25.6675 20.6967C25.8742 20.7912 26.0745 20.8828 25.9728 21.1892C25.3555 23.1286 24.3509 24.8536 23.022 26.3949C21.6617 27.977 20.2073 28.2934 18.2819 27.436C16.8902 26.8134 15.6032 26.9154 14.2952 27.5789C13.05 28.2118 11.8153 28.1403 10.6852 27.3033C10.2457 26.9767 9.83766 26.599 9.49235 26.1805C8.12159 24.5576 7.11707 22.7305 6.56249 20.6891C5.91839 17.7689 5.95559 16.2693 6.0393 15.1057C6.11255 14.0544 6.45785 13.0439 7.04382 12.1456C8.72849 9.5326 11.7107 8.57313 14.6301 9.73675C15.6451 10.145 16.6077 10.3186 17.6122 9.76737ZM19.4189 3.49215C18.9554 3.70978 18.4989 3.95386 18.104 4.2759C17.3287 4.90367 16.8578 5.71078 16.6234 6.63495C16.5414 6.95798 16.4883 7.2953 16.4612 7.64427C16.8053 7.64427 17.1511 7.5703 17.4878 7.43506C18.6933 6.95086 19.7822 5.68125 20.2589 4.20923C20.3361 3.97092 20.3973 3.72729 20.4402 3.48084C20.4408 3.4776 20.4414 3.47436 20.4419 3.47111C20.4688 3.31499 20.4885 3.15774 20.5003 3L20.2711 3.10776C20.1687 3.1542 20.0649 3.20036 19.9603 3.24685C19.781 3.32663 19.5994 3.40739 19.4189 3.49215Z" fill="black"/>
</svg>
