<svg width="24" height="24" viewBox="0 0 24 24" fill="none" xmlns="http://www.w3.org/2000/svg">
<g opacity="0.9">
<path d="M5 1.5C5 1.22386 5.22386 1 5.5 1C5.77614 1 6 1.22386 6 1.5V3.5C6 3.77614 5.77614 4 5.5 4C5.22386 4 5 3.77614 5 3.5V1.5Z" fill="black"/>
<path d="M15 17C15 16.4477 15.4477 16 16 16H18C18.5523 16 19 16.4477 19 17V19C19 19.5523 18.5523 20 18 20H16C15.4477 20 15 19.5523 15 19V17Z" fill="black"/>
<path fill-rule="evenodd" clip-rule="evenodd" d="M2 21C2 22.1046 2.89543 23 4 23H20C21.1046 23 22 22.1046 22 21V5C22 4.25972 21.5978 3.61338 21 3.26756C20.9846 3.25864 20.969 3.24991 20.9533 3.24139C20.6699 3.08744 20.3452 3 20 3V3.5C20 4.32843 19.3284 5 18.5 5C17.6716 5 17 4.32843 17 3.5V3H7V3.5C7 4.32843 6.32843 5 5.5 5C4.67157 5 4 4.32843 4 3.5V3C3.63571 3 3.29417 3.09739 3 3.26756C2.95968 3.29089 2.92026 3.31558 2.88178 3.34157C2.34978 3.70098 2 4.30964 2 5V21ZM3 8V21C3 21.5523 3.44772 22 4 22H20C20.5523 22 21 21.5523 21 21V8H3Z" fill="black"/>
<path d="M18.5 1C18.2239 1 18 1.22386 18 1.5V3.5C18 3.77614 18.2239 4 18.5 4C18.7761 4 19 3.77614 19 3.5V1.5C19 1.22386 18.7761 1 18.5 1Z" fill="black"/>
</g>
</svg>
