<svg width="32" height="32" viewBox="0 0 32 32" fill="none" xmlns="http://www.w3.org/2000/svg">
<g opacity="0.9">
<path d="M9 1.5C9 1.22386 9.22386 1 9.5 1C9.77614 1 10 1.22386 10 1.5V4.5C10 4.77614 9.77614 5 9.5 5C9.22386 5 9 4.77614 9 4.5V1.5Z" fill="black"/>
<path d="M19 20C19 19.4477 19.4477 19 20 19H23C23.5523 19 24 19.4477 24 20V23C24 23.5523 23.5523 24 23 24H20C19.4477 24 19 23.5523 19 23V20Z" fill="black"/>
<path fill-rule="evenodd" clip-rule="evenodd" d="M28 26V5C28 3.89543 27.1046 3 26 3H24V4.5C24 5.32843 23.3284 6 22.5 6C21.6716 6 21 5.32843 21 4.5V3H11V4.5C11 5.32843 10.3284 6 9.5 6C8.67157 6 8 5.32843 8 4.5V3H6C4.89543 3 4 3.89543 4 5V26C4 27.1046 4.89543 28 6 28H26C27.1046 28 28 27.1046 28 26ZM27 26V9H5V26C5 26.5523 5.44772 27 6 27H26C26.5523 27 27 26.5523 27 26Z" fill="black"/>
<path d="M22.5 1C22.2239 1 22 1.22386 22 1.5V4.5C22 4.77614 22.2239 5 22.5 5C22.7761 5 23 4.77614 23 4.5V1.5C23 1.22386 22.7761 1 22.5 1Z" fill="black"/>
</g>
</svg>
