<svg width="16" height="16" viewBox="0 0 16 16" fill="none" xmlns="http://www.w3.org/2000/svg">
<g opacity="0.9">
<path d="M10 9C9.44772 9 9 9.44771 9 10V11C9 11.5523 9.44771 12 10 12H11C11.5523 12 12 11.5523 12 11V10C12 9.44772 11.5523 9 11 9H10Z" fill="black"/>
<path fill-rule="evenodd" clip-rule="evenodd" d="M4.5 0C4.22386 0 4 0.223858 4 0.5V1H3C1.89543 1 1 1.89543 1 3V13C1 14.1046 1.89543 15 3 15H13C14.1046 15 15 14.1046 15 13V3C15 1.89543 14.1046 1 13 1H12V0.5C12 0.223858 11.7761 0 11.5 0C11.2239 0 11 0.223858 11 0.5V1H5V0.5C5 0.223858 4.77614 0 4.5 0ZM2 13V4H14V13C14 13.5523 13.5523 14 13 14H3C2.44772 14 2 13.5523 2 13Z" fill="black"/>
</g>
</svg>
