<svg width="32" height="32" viewBox="0 0 32 32" fill="none" xmlns="http://www.w3.org/2000/svg">
<g opacity="0.9">
<path d="M9 1.5C9 1.22386 9.22386 1 9.5 1C9.77614 1 10 1.22386 10 1.5V4.5C10 4.77614 9.77614 5 9.5 5C9.22386 5 9 4.77614 9 4.5V1.5Z" fill="black"/>
<path fill-rule="evenodd" clip-rule="evenodd" d="M19 20C19 19.4477 19.4477 19 20 19H23C23.5523 19 24 19.4477 24 20V23C24 23.5523 23.5523 24 23 24H20C19.4477 24 19 23.5523 19 23V20ZM20 20H23V23H20V20Z" fill="black"/>
<path fill-rule="evenodd" clip-rule="evenodd" d="M4 5C4 3.89543 4.89543 3 6 3H8V4.5C8 5.32843 8.67157 6 9.5 6C10.3284 6 11 5.32843 11 4.5V3H21V4.5C21 5.32843 21.6716 6 22.5 6C23.3284 6 24 5.32843 24 4.5V3H26C27.1046 3 28 3.89543 28 5V26C28 27.1046 27.1046 28 26 28H6C4.89543 28 4 27.1046 4 26V5ZM27 26V10H5V26C5 26.5523 5.44772 27 6 27H26C26.5523 27 27 26.5523 27 26ZM27 5C27 4.44772 26.5523 4 26 4H25V4.5C25 5.88071 23.8807 7 22.5 7C21.1193 7 20 5.88071 20 4.5V4H12V4.5C12 5.88071 10.8807 7 9.5 7C8.11929 7 7 5.88071 7 4.5V4H6C5.44772 4 5 4.44772 5 5V9H27V5Z" fill="black"/>
<path d="M22 1.5C22 1.22386 22.2239 1 22.5 1C22.7761 1 23 1.22386 23 1.5V4.5C23 4.77614 22.7761 5 22.5 5C22.2239 5 22 4.77614 22 4.5V1.5Z" fill="black"/>
</g>
</svg>
