<svg width="16" height="16" viewBox="0 0 16 16" fill="none" xmlns="http://www.w3.org/2000/svg">
<g opacity="0.9">
<path fill-rule="evenodd" clip-rule="evenodd" d="M9.32009 4.61589C9.10795 4.43911 8.79267 4.46777 8.61589 4.67991L6.11589 7.67991C5.96137 7.86533 5.96137 8.13467 6.11589 8.32009L8.61589 11.3201C8.79267 11.5322 9.10795 11.5609 9.32009 11.3841C9.53223 11.2073 9.56089 10.892 9.38411 10.6799L7.15085 8L9.38411 5.32009C9.56089 5.10795 9.53223 4.79267 9.32009 4.61589Z" fill="black"/>
<path fill-rule="evenodd" clip-rule="evenodd" d="M8 2C11.3137 2 14 4.68629 14 8C14 11.3137 11.3137 14 8 14C4.68629 14 2 11.3137 2 8C2 4.68629 4.68629 2 8 2ZM15 8C15 4.13401 11.866 1 8 1C4.13401 1 1 4.13401 1 8C1 11.866 4.13401 15 8 15C11.866 15 15 11.866 15 8Z" fill="black"/>
</g>
</svg>
