<svg width="32" height="32" viewBox="0 0 32 32" fill="none" xmlns="http://www.w3.org/2000/svg">
<g opacity="0.9">
<path fill-rule="evenodd" clip-rule="evenodd" d="M18.3379 9.63142C18.1343 9.44483 17.818 9.45858 17.6314 9.66214L12.1314 15.6621C11.9562 15.8533 11.9562 16.1467 12.1314 16.3379L17.6314 22.3379C17.818 22.5414 18.1343 22.5552 18.3379 22.3686C18.5414 22.182 18.5552 21.8657 18.3686 21.6621L13.1783 16L18.3686 10.3379C18.5552 10.1343 18.5414 9.81802 18.3379 9.63142Z" fill="black"/>
<path fill-rule="evenodd" clip-rule="evenodd" d="M16 5C22.0751 5 27 9.92487 27 16C27 22.0751 22.0751 27 16 27C9.92487 27 5 22.0751 5 16C5 9.92487 9.92487 5 16 5ZM28 16C28 9.37258 22.6274 4 16 4C9.37258 4 4 9.37258 4 16C4 22.6274 9.37258 28 16 28C22.6274 28 28 22.6274 28 16Z" fill="black"/>
</g>
</svg>
