<svg width="24" height="24" viewBox="0 0 24 24" fill="none" xmlns="http://www.w3.org/2000/svg">
<path opacity="0.9" fill-rule="evenodd" clip-rule="evenodd" d="M22 12C22 6.47715 17.5228 2 12 2C6.47715 2 2 6.47715 2 12C2 17.5228 6.47715 22 12 22C17.5228 22 22 17.5228 22 12ZM13.1263 7.16782C13.3098 6.96143 13.6258 6.94284 13.8322 7.1263C14.0386 7.30975 14.0572 7.62579 13.8737 7.83218L10.169 12L13.8737 16.1678C14.0572 16.3742 14.0386 16.6902 13.8322 16.8737C13.6258 17.0572 13.3098 17.0386 13.1263 16.8322L9.1263 12.3322C8.9579 12.1427 8.9579 11.8573 9.1263 11.6678L13.1263 7.16782Z" fill="black"/>
</svg>
