<svg width="32" height="32" viewBox="0 0 32 32" fill="none" xmlns="http://www.w3.org/2000/svg">
<path opacity="0.9" fill-rule="evenodd" clip-rule="evenodd" d="M4 7.15385C4 6.81396 4.15143 6.52196 4.35953 6.28727C4.56488 6.0557 4.84477 5.85624 5.16425 5.68193C5.80372 5.33304 6.69598 5.03468 7.75584 4.7901C9.88359 4.29908 12.7981 4 16 4C19.2019 4 22.1164 4.29908 24.2442 4.7901C25.304 5.03468 26.1963 5.33304 26.8357 5.68193C27.1552 5.85624 27.4351 6.0557 27.6405 6.28727C27.8486 6.52196 28 6.81396 28 7.15385V24.8462C28 25.4933 27.4647 25.9661 26.868 26.2985C26.2309 26.6535 25.332 26.9589 24.2442 27.2099C23.15 27.4624 21.8598 27.6608 20.4484 27.7957C19.0362 27.9307 17.5249 28 16 28C14.4751 28 12.9638 27.9307 11.5516 27.7957C10.1402 27.6608 8.85 27.4624 7.75584 27.2099C6.66797 26.9589 5.76906 26.6535 5.13204 26.2985C4.5353 25.9661 4 25.4933 4 24.8462V7.15385ZM5 7.15385C5 7.12732 5.00947 7.06157 5.10774 6.95073C5.20878 6.83679 5.38075 6.70296 5.6432 6.55977C6.1676 6.27366 6.95948 6.00016 7.9807 5.76449C10.0151 5.295 12.8506 5 16 5C19.1494 5 21.9849 5.295 24.0193 5.76449C25.0405 6.00016 25.8324 6.27366 26.3568 6.55977C26.6192 6.70296 26.7912 6.83679 26.8923 6.95073C26.9905 7.06157 27 7.12732 27 7.15385C27 7.18039 26.9905 7.24616 26.8923 7.35696C26.7912 7.4709 26.6192 7.60473 26.3568 7.74792C25.8324 8.03403 25.0405 8.30754 24.0193 8.5432C21.9849 9.01269 19.1494 9.30769 16 9.30769C12.8506 9.30769 10.0151 9.01269 7.9807 8.5432C6.95948 8.30754 6.1676 8.03403 5.6432 7.74792C5.38075 7.60473 5.20878 7.4709 5.10774 7.35696C5.0095 7.24616 5.00001 7.18039 5 7.15385ZM5 19.5384C5 19.5883 5.05961 19.8057 5.61873 20.1172C6.13756 20.4063 6.93282 20.686 7.9807 20.9278C9.02229 21.1682 10.2676 21.3607 11.6467 21.4925C13.025 21.6243 14.5045 21.6923 16 21.6923C17.4955 21.6923 18.975 21.6243 20.3533 21.4925C21.7324 21.3607 22.9777 21.1682 24.0193 20.9278C25.0672 20.686 25.8624 20.4063 26.3813 20.1172C26.9404 19.8057 27 19.5883 27 19.5384V14.722C26.9565 14.7483 26.9124 14.7738 26.868 14.7985C26.2309 15.1535 25.332 15.4589 24.2442 15.7099C23.15 15.9624 21.8598 16.1608 20.4484 16.2957C19.0362 16.4307 17.5249 16.5 16 16.5C14.4751 16.5 12.9638 16.4307 11.5516 16.2957C10.1402 16.1608 8.85 15.9624 7.75584 15.7099C6.66797 15.4589 5.76906 15.1535 5.13204 14.7985C5.08762 14.7738 5.04354 14.7483 5 14.722V19.5384ZM27 20.9142C26.9565 20.9405 26.9124 20.9661 26.868 20.9908C26.2309 21.3457 25.332 21.6511 24.2442 21.9022C23.15 22.1547 21.8598 22.3531 20.4484 22.488C19.0362 22.623 17.5249 22.6923 16 22.6923C14.4751 22.6923 12.9638 22.623 11.5516 22.488C10.1402 22.3531 8.85 22.1547 7.75584 21.9022C6.66797 21.6511 5.76906 21.3457 5.13204 20.9908C5.08762 20.9661 5.04354 20.9405 5 20.9142V24.8462C5 24.8961 5.05961 25.1135 5.61873 25.425C6.13756 25.714 6.93282 25.9937 7.9807 26.2355C9.02229 26.4759 10.2676 26.6685 11.6467 26.8003C13.025 26.932 14.5045 27 16 27C17.4955 27 18.975 26.932 20.3533 26.8003C21.7324 26.6685 22.9777 26.4759 24.0193 26.2355C25.0672 25.9937 25.8624 25.714 26.3813 25.425C26.9404 25.1135 27 24.8961 27 24.8462V20.9142ZM27 8.53169V13.3461C27 13.396 26.9404 13.6135 26.3813 13.925C25.8624 14.214 25.0672 14.4937 24.0193 14.7355C22.9777 14.9759 21.7324 15.1685 20.3533 15.3003C18.975 15.432 17.4955 15.5 16 15.5C14.5045 15.5 13.025 15.432 11.6467 15.3003C10.2676 15.1685 9.02229 14.9759 7.9807 14.7355C6.93282 14.4937 6.13756 14.214 5.61873 13.925C5.05961 13.6135 5 13.3961 5 13.3462V8.53169C5.05341 8.56385 5.10822 8.59519 5.16425 8.62576C5.80372 8.97466 6.69598 9.27301 7.75584 9.51759C9.88359 10.0086 12.7981 10.3077 16 10.3077C19.2019 10.3077 22.1164 10.0086 24.2442 9.51759C25.304 9.27301 26.1963 8.97466 26.8357 8.62576C26.8918 8.59519 26.9466 8.56385 27 8.53169Z" fill="black"/>
</svg>
