<svg width="16" height="16" viewBox="0 0 16 16" fill="none" xmlns="http://www.w3.org/2000/svg">
<path opacity="0.9" fill-rule="evenodd" clip-rule="evenodd" d="M8 1C6.1788 1 4.5143 1.16993 3.29138 1.45214C2.68392 1.59233 2.15778 1.76636 1.77133 1.97721C1.57835 2.0825 1.39669 2.20951 1.25795 2.36597C1.11645 2.52554 1 2.73977 1 3V13C1 13.4956 1.40597 13.8183 1.75144 14.0108C2.13719 14.2257 2.6678 14.404 3.29138 14.5479C3.92124 14.6932 4.66023 14.8066 5.46498 14.8836C6.27057 14.9606 7.13173 15 8 15C8.86827 15 9.72943 14.9606 10.535 14.8836C11.3398 14.8066 12.0788 14.6932 12.7086 14.5479C13.3322 14.404 13.8628 14.2257 14.2486 14.0108C14.594 13.8183 15 13.4956 15 13V3C15 2.73977 14.8835 2.52554 14.742 2.36597C14.6033 2.20951 14.4216 2.0825 14.2287 1.97721C13.8422 1.76636 13.3161 1.59233 12.7086 1.45214C11.4857 1.16993 9.8212 1 8 1ZM2.25028 3.14495C2.14483 3.08741 2.07681 3.03758 2.03553 3C2.07681 2.96242 2.14483 2.91258 2.25028 2.85505C2.52166 2.70699 2.94742 2.5578 3.51624 2.42654C4.64585 2.16585 6.23135 2 8 2C9.76865 2 11.3541 2.16585 12.4838 2.42654C13.0526 2.5578 13.4783 2.70699 13.7497 2.85505C13.8552 2.91258 13.9232 2.96242 13.9645 3C13.9232 3.03758 13.8552 3.08741 13.7497 3.14495C13.4783 3.29301 13.0526 3.4422 12.4838 3.57346C11.3541 3.83415 9.76865 4 8 4C6.23135 4 4.64585 3.83415 3.51624 3.57346C2.94742 3.4422 2.52166 3.29301 2.25028 3.14495ZM14 7.63544C13.6467 7.79568 13.2074 7.93275 12.7086 8.04786C12.0788 8.19321 11.3398 8.30663 10.535 8.38355C9.72943 8.46056 8.86827 8.5 8 8.5C7.13173 8.5 6.27057 8.46056 5.46498 8.38355C4.66023 8.30663 3.92124 8.19321 3.29138 8.04786C2.79258 7.93275 2.35327 7.79568 2 7.63544V9.9619L2.00362 9.96619C2.03484 10.0024 2.10451 10.0628 2.23813 10.1372C2.50569 10.2863 2.93265 10.4388 3.51624 10.5735C4.09353 10.7067 4.78766 10.8142 5.56013 10.8881C6.33178 10.9618 7.16108 11 8 11C8.83891 11 9.66822 10.9618 10.4399 10.8881C11.2123 10.8142 11.9065 10.7067 12.4838 10.5735C13.0674 10.4388 13.4943 10.2863 13.7619 10.1372C13.8955 10.0628 13.9652 10.0024 13.9964 9.96619L14 9.9619V7.63544ZM14 11.1354C13.6467 11.2957 13.2074 11.4327 12.7086 11.5479C12.0788 11.6932 11.3398 11.8066 10.535 11.8836C9.72943 11.9606 8.86827 12 8 12C7.13173 12 6.27057 11.9606 5.46498 11.8836C4.66023 11.8066 3.92124 11.6932 3.29138 11.5479C2.79258 11.4327 2.35327 11.2957 2 11.1354V12.9619L2.00362 12.9662C2.03484 13.0024 2.10451 13.0628 2.23813 13.1372C2.50569 13.2863 2.93265 13.4388 3.51624 13.5735C4.09353 13.7067 4.78766 13.8142 5.56013 13.8881C6.33178 13.9618 7.16108 14 8 14C8.83891 14 9.66822 13.9618 10.4399 13.8881C11.2123 13.8142 11.9065 13.7067 12.4838 13.5735C13.0674 13.4388 13.4943 13.2863 13.7619 13.1372C13.8955 13.0628 13.9652 13.0024 13.9964 12.9662L14 12.9619V11.1354ZM14 4.13615C13.6446 4.29693 13.2036 4.43363 12.7086 4.54786C11.4857 4.83007 9.8212 5 8 5C6.1788 5 4.5143 4.83007 3.29138 4.54786C2.7964 4.43363 2.35542 4.29693 2 4.13615V6.4619L2.00362 6.46619C2.03484 6.50241 2.10451 6.56279 2.23813 6.63724C2.50569 6.7863 2.93265 6.93879 3.51624 7.07346C4.09353 7.20669 4.78766 7.31425 5.56013 7.38809C6.33178 7.46185 7.16108 7.5 8 7.5C8.83891 7.5 9.66822 7.46185 10.4399 7.38809C11.2123 7.31425 11.9065 7.20669 12.4838 7.07346C13.0674 6.93879 13.4943 6.7863 13.7619 6.63724C13.8955 6.56279 13.9652 6.50241 13.9964 6.46619L14 6.4619V4.13615Z" fill="black"/>
</svg>
