<svg width="24" height="24" viewBox="0 0 24 24" fill="none" xmlns="http://www.w3.org/2000/svg">
<path opacity="0.9" fill-rule="evenodd" clip-rule="evenodd" d="M12.1024 2C6.72238 2 2.36052 6.36186 2.36052 11.743C2.36052 13.5834 2.87126 15.3048 3.7581 16.7736L2 22L7.39335 20.2731C8.78869 21.0442 10.3943 21.4848 12.1024 21.4848C17.4835 21.4848 21.8453 17.123 21.8453 11.7418C21.8453 6.36186 17.4835 2 12.1024 2ZM12.1024 19.8525C10.4555 19.8525 8.92111 19.3584 7.64037 18.5116L4.52365 19.5097L5.53622 16.4976C4.56482 15.1601 3.99177 13.5177 3.99177 11.7418C3.99177 7.26983 7.63035 3.63125 12.1013 3.63125C16.5733 3.63125 20.2119 7.26983 20.2119 11.7418C20.213 16.215 16.5744 19.8525 12.1024 19.8525ZM16.6701 13.9562C16.4253 13.8226 15.2258 13.175 15.001 13.0838C14.7762 12.9925 14.6115 12.9447 14.4369 13.1873C14.2622 13.4298 13.7637 13.9717 13.6134 14.132C13.4621 14.2922 13.3163 14.3078 13.0715 14.1731C12.8279 14.0396 12.0367 13.747 11.1176 12.8646C10.4044 12.178 9.93591 11.3457 9.80016 11.0909C9.6644 10.8361 9.79904 10.707 9.92812 10.588C10.0438 10.48 10.1874 10.3064 10.3176 10.1662C10.4466 10.026 10.4923 9.92367 10.5813 9.76121C10.6703 9.59875 10.6347 9.45188 10.5768 9.32503C10.519 9.19818 10.0672 7.95638 9.87916 7.45009C9.69111 6.94492 9.48081 7.01947 9.33504 7.01391C9.19039 7.00946 9.02459 6.98164 8.8588 6.97608C8.693 6.9694 8.4215 7.0217 8.18449 7.26205C7.94748 7.50239 7.28207 8.07989 7.23645 9.30388C7.19083 10.5268 8.03761 11.743 8.15556 11.9132C8.27351 12.0835 9.77234 14.7362 12.2626 15.8266C14.754 16.9171 14.7662 16.5844 15.2235 16.5599C15.6809 16.5354 16.7168 16.0136 16.946 15.4405C17.1753 14.8675 17.1931 14.3701 17.1352 14.2644C17.0773 14.1587 16.9149 14.0897 16.6701 13.9562Z" fill="black"/>
</svg>
