<svg width="24" height="25" viewBox="0 0 24 25" fill="none" xmlns="http://www.w3.org/2000/svg">
<g clip-path="url(#clip0)">
<path opacity="0.9" d="M12.9508 6.40855C13.9251 6.40855 14.7732 6.38583 15.6162 6.41612C16.1185 6.43379 16.4264 6.31011 16.7167 5.83053C17.4033 4.68964 18.8647 4.5382 19.8163 5.42415C20.7376 6.27982 20.7704 7.56711 19.892 8.44802C19.102 9.23806 17.5673 9.37941 16.9212 8.31676C16.3785 7.42324 15.7121 7.41819 14.8968 7.44595C14.2986 7.46615 13.5439 7.47372 12.9533 7.47372C12.9533 8.22337 12.9533 11.8051 12.9533 13.6047C13.0391 13.6325 13.1905 13.5997 13.289 13.5997C14.4778 13.6199 14.7883 13.2463 15.1568 12.6405C15.2628 12.4639 15.4042 12.2973 15.5329 12.1281C15.8661 11.6915 16.1841 11.5022 16.6864 11.5224C16.8984 11.5325 17.113 11.5047 17.3225 11.5274C17.7566 11.5728 18.0343 11.4365 18.2488 11.015C18.5542 10.4143 19.0995 10.0761 19.7759 10.0054C20.8108 9.89937 21.7927 10.5733 22.035 11.54C22.2773 12.5118 21.7422 13.6199 20.8335 14.0237C19.9173 14.4301 18.8142 14.0767 18.2387 13.2009C18.0923 12.9788 17.9409 12.6582 17.7339 12.6027C17.3704 12.5068 16.959 12.5522 16.5779 12.6052C16.4441 12.6229 16.3204 12.8197 16.2169 12.956C16.0024 13.2362 15.7954 13.5088 15.6036 13.8218C15.1896 14.4907 14.6671 14.6598 13.9225 14.6522C13.6424 14.6497 13.2612 14.6497 12.9558 14.6497C12.9558 15.2959 12.9356 15.8638 12.9558 16.563C13.549 16.563 14.2103 16.563 14.7429 16.563C15.6263 16.563 16.1993 16.722 16.5324 17.5878C16.6208 17.8149 16.7672 18.0244 16.9136 18.2238C17.2367 18.6681 17.797 18.6731 18.0949 18.1986C18.6123 17.3833 19.2787 16.8987 20.2833 17.0072C21.303 17.1183 22.0678 17.9765 22.0779 19.0315C22.088 20.0917 21.3434 20.9827 20.3363 21.1063C19.4528 21.2149 18.7133 20.9524 18.2564 20.1573C18.0242 19.7509 17.7819 19.4935 17.2771 19.5742C16.6587 19.6727 16.2472 19.3647 16.0428 18.8044C15.6414 17.714 15.3739 17.4944 13.7585 17.4893C13.5515 17.4893 13.2385 17.4944 12.9558 17.4944C12.9558 17.7644 12.9583 17.9689 12.9583 18.2011C12.9482 19.5515 12.9684 20.9019 12.9482 22.2523C12.9331 23.2544 12.3677 24.0191 11.4514 24.3624C10.6816 24.6502 9.96476 24.4659 9.35645 24.0015C8.79358 23.5724 8.22313 23.4184 7.51639 23.4235C6.19629 23.431 5.08821 22.4567 4.86609 21.1316C4.7727 20.5712 4.50767 20.2835 4.02557 20.0336C2.8241 19.4102 2.51111 18.7135 2.73323 17.3505C2.79129 16.9895 2.78876 16.6614 2.58683 16.3308C2.11483 15.5559 2.09716 14.7052 2.37481 13.8773C2.52373 13.4331 2.52121 13.0974 2.31171 12.6784C1.61758 11.2901 1.82456 9.99529 2.86701 8.8544C3.12952 8.56665 3.233 8.27386 3.22038 7.89777C3.18252 6.71397 3.59395 5.75481 4.61368 5.08845C4.80299 4.96477 4.96453 4.7376 5.0453 4.52305C5.39867 3.58661 5.91107 2.82686 6.92575 2.50883C7.09234 2.45582 7.23874 2.25137 7.34223 2.08478C8.20294 0.688956 9.19491 0.244715 10.6311 0.63595C11.931 0.989323 12.9129 1.95605 12.9583 3.35945C12.9836 4.25045 12.9508 5.39134 12.9508 6.40855ZM4.26031 7.81952C4.49505 7.81952 4.63135 7.83719 4.76513 7.81699C6.59509 7.54187 8.19032 8.55908 8.61942 10.3108C8.70019 10.644 8.70524 11.0175 8.64213 11.3558C8.57651 11.7142 8.09945 11.7874 7.90257 11.4769C7.7587 11.2498 7.70065 10.9595 7.64259 10.6894C7.41795 9.64444 6.55471 8.84935 5.51983 8.74838C4.63387 8.66257 3.60909 9.26582 3.20019 10.1265C2.81905 10.9292 2.86449 11.7142 3.35668 12.4487C3.67724 12.9283 3.77568 13.3574 3.47027 13.9127C3.06641 14.6497 3.11942 15.412 3.64191 16.1112C3.94227 16.5125 3.95742 16.9214 3.78073 17.401C3.50308 18.1481 3.72015 18.7186 4.38904 19.1047C4.69193 19.2789 5.03521 19.3799 5.36586 19.5086C5.73438 19.6525 5.91107 19.8292 5.82272 20.3037C5.6637 21.1745 6.12561 21.808 6.84246 22.2371C7.44824 22.5981 8.49574 22.434 9.02075 21.9519C9.68963 21.3386 9.84865 20.6444 9.52304 19.7383C9.48771 19.6373 9.38674 19.5439 9.39431 19.4505C9.41198 19.2208 9.40693 18.9432 9.53314 18.7817C9.68711 18.5848 10.1844 18.7514 10.3232 19.0517C10.4696 19.3672 10.5832 19.7105 10.6336 20.0538C10.7977 21.1795 10.414 22.1286 9.58867 22.901C10.414 23.4638 10.823 23.5699 11.2748 23.3275C11.9159 22.9843 11.878 22.3734 11.8704 21.7525C11.8578 20.5788 11.8805 19.4177 11.8704 18.244C11.8679 18.0118 11.8704 17.7872 11.8704 17.507C11.0981 17.507 10.3434 17.4994 9.64168 17.5095C8.4604 17.5272 8.14994 17.7796 7.66279 19.135C7.56687 19.4001 7.42552 19.6096 7.14787 19.5591C6.85003 19.5061 6.6582 19.2915 6.68596 18.9508C6.68849 18.9154 6.70868 18.8826 6.7112 18.8473C6.83236 17.5423 7.78142 16.616 9.0788 16.5781C9.99 16.5504 10.9189 16.5706 11.873 16.5706C11.873 16.5933 11.873 15.3312 11.873 14.6573C10.6488 14.6573 9.47256 14.6724 8.314 14.6472C7.82433 14.6371 7.32203 14.5891 6.85255 14.4604C5.66118 14.1298 4.70707 12.739 4.88376 11.6284C4.91152 11.4542 5.08316 11.2094 5.22956 11.174C5.38101 11.1387 5.62079 11.2826 5.74952 11.4164C5.85806 11.5274 5.87068 11.7394 5.90854 11.9086C6.16852 13.0393 6.83236 13.5946 7.99092 13.6098C9.05104 13.6249 10.1137 13.6174 11.1738 13.6098C11.4111 13.6073 11.6483 13.6376 11.8704 13.6123C11.8704 11.5754 11.8704 9.52328 11.8704 7.58478C11.8704 7.47877 11.8704 7.47877 11.8704 7.47877C10.987 7.46615 9.96728 7.47119 9.08638 7.45353C7.88743 7.42828 7.12263 6.73921 6.89799 5.55541C6.83236 5.21213 6.90556 4.99506 7.21097 4.8739C7.51134 4.75275 7.75618 4.90419 7.86471 5.32824C8.00859 5.89616 8.28371 6.3505 8.89202 6.38079C9.86884 6.43127 10.833 6.39845 11.873 6.39845C11.873 5.303 11.8805 4.36908 11.873 3.3544C11.8654 2.47097 11.1814 1.91566 10.3131 1.65821C9.4347 1.40075 8.81882 1.69354 8.30895 2.46087C8.5967 2.58455 8.86173 2.68047 9.10657 2.81172C9.47761 3.01112 9.86884 3.1979 10.1818 3.47051C10.3156 3.58661 10.3408 3.92232 10.2853 4.12172C10.2601 4.21007 9.91175 4.25298 9.7174 4.23531C9.55333 4.22016 9.40189 4.08639 9.24539 4.01066C8.99046 3.88698 8.74562 3.7103 8.47807 3.65729C7.13273 3.39983 6.51937 3.52856 5.98426 4.91934C5.97164 4.95215 5.96407 4.98749 5.96155 5.02282C5.91611 5.49735 5.64856 5.775 5.22704 5.97693C4.49757 6.31768 4.26031 6.95375 4.26031 7.81952ZM18.476 5.92897C17.8248 5.9113 17.3957 6.31516 17.3932 6.94618C17.3906 7.51915 17.9081 8.05174 18.4508 8.04416C18.948 8.03407 19.4654 7.53177 19.4957 7.02948C19.5311 6.42874 19.0818 5.94664 18.476 5.92897ZM21.0329 12.0549C21.0127 11.4189 20.5685 11.0201 19.9299 11.0579C19.3998 11.0907 18.9202 11.5956 18.943 12.0953C18.9682 12.6708 19.5008 13.2034 20.0283 13.1782C20.6265 13.1479 21.0531 12.6708 21.0329 12.0549ZM18.996 19.029C18.9833 19.6424 19.4175 20.1573 19.9576 20.1699C20.4953 20.18 21.0228 19.6499 21.0304 19.0896C21.038 18.5091 20.6518 18.1027 20.0687 18.0699C19.3872 18.032 19.0111 18.3677 18.996 19.029Z" fill="black"/>
</g>
<defs>
<clipPath id="clip0">
<rect width="24" height="24" fill="white" transform="translate(0 0.5)"/>
</clipPath>
</defs>
</svg>
