<svg width="16" height="16" viewBox="0 0 16 16" fill="none" xmlns="http://www.w3.org/2000/svg">
<g opacity="0.9">
<path d="M6.85355 1.85355C7.04882 1.65829 7.04882 1.34171 6.85355 1.14645C6.65829 0.951184 6.34171 0.951184 6.14645 1.14645L3.5 3.79289L2.35355 2.64645C2.15829 2.45118 1.84171 2.45118 1.64645 2.64645C1.45118 2.84171 1.45118 3.15829 1.64645 3.35355L3.14645 4.85355C3.34171 5.04882 3.65829 5.04882 3.85355 4.85355L6.85355 1.85355Z" fill="black"/>
<path d="M8.5 3C8.22386 3 8 3.22386 8 3.5C8 3.77614 8.22386 4 8.5 4H13.5C13.7761 4 14 3.77614 14 3.5C14 3.22386 13.7761 3 13.5 3H8.5Z" fill="black"/>
<path d="M6.85355 6.14645C7.04882 6.34171 7.04882 6.65829 6.85355 6.85355L3.85355 9.85355C3.65829 10.0488 3.34171 10.0488 3.14645 9.85355L1.64645 8.35355C1.45118 8.15829 1.45118 7.84171 1.64645 7.64645C1.84171 7.45118 2.15829 7.45118 2.35355 7.64645L3.5 8.79289L6.14645 6.14645C6.34171 5.95118 6.65829 5.95118 6.85355 6.14645Z" fill="black"/>
<path d="M8.5 8C8.22386 8 8 8.22386 8 8.5C8 8.77614 8.22386 9 8.5 9H13.5C13.7761 9 14 8.77614 14 8.5C14 8.22386 13.7761 8 13.5 8H8.5Z" fill="black"/>
<path d="M8 13.5C8 13.2239 8.22386 13 8.5 13H13.5C13.7761 13 14 13.2239 14 13.5C14 13.7761 13.7761 14 13.5 14H8.5C8.22386 14 8 13.7761 8 13.5Z" fill="black"/>
<path fill-rule="evenodd" clip-rule="evenodd" d="M3 11C2.44772 11 2 11.4477 2 12V14C2 14.5523 2.44772 15 3 15H5C5.55228 15 6 14.5523 6 14V12C6 11.4477 5.55228 11 5 11H3ZM3 12H5V14H3V12Z" fill="black"/>
</g>
</svg>
