<svg width="24" height="24" viewBox="0 0 24 24" fill="none" xmlns="http://www.w3.org/2000/svg">
<path fill-rule="evenodd" clip-rule="evenodd" d="M4 3.5C4 2.67157 4.67157 2 5.5 2H15V4.54167C15 5.92238 16.1193 7.04167 17.5 7.04167H20V12.5208C20 12.797 20.2239 13.0208 20.5 13.0208C20.7761 13.0208 21 12.797 21 12.5208V6.33724L15.9418 1.18538C15.8254 1.0668 15.6662 1 15.5 1H5.5C4.11929 1 3 2.11929 3 3.5V20.5C3 21.8807 4.11929 23 5.5 23H12C12.2761 23 12.5 22.7761 12.5 22.5C12.5 22.2239 12.2761 22 12 22H5.5C4.67157 22 4 21.3284 4 20.5V3.5ZM19.3084 6.04167L16 2.67202V4.54167C16 5.37009 16.6716 6.04167 17.5 6.04167H19.3084Z" fill="black"/>
<path fill-rule="evenodd" clip-rule="evenodd" d="M7.5 7C6.67157 7 6 7.67157 6 8.5V13.5C6 13.7761 6.22386 14 6.5 14H8.5C8.77614 14 9 13.7761 9 13.5V8.5C9 7.67157 8.32843 7 7.5 7ZM7 8.5C7 8.22386 7.22386 8 7.5 8C7.77614 8 8 8.22386 8 8.5V13H7V8.5Z" fill="black"/>
<path fill-rule="evenodd" clip-rule="evenodd" d="M10 6.5C10 5.67157 10.6716 5 11.5 5C12.3284 5 13 5.67157 13 6.5V13.5C13 13.7761 12.7761 14 12.5 14H10.5C10.2239 14 10 13.7761 10 13.5V6.5ZM11.5 6C11.2239 6 11 6.22386 11 6.5V13H12V6.5C12 6.22386 11.7761 6 11.5 6Z" fill="black"/>
<path fill-rule="evenodd" clip-rule="evenodd" d="M15.5 9C14.6716 9 14 9.67157 14 10.5V13.5C14 13.7761 14.2239 14 14.5 14H16.5C16.7761 14 17 13.7761 17 13.5V10.5C17 9.67157 16.3284 9 15.5 9ZM15 10.5C15 10.2239 15.2239 10 15.5 10C15.7761 10 16 10.2239 16 10.5V13H15V10.5Z" fill="black"/>
<path d="M19.41 20.5C19.9623 20.5 20.41 20.0523 20.41 19.5C20.41 18.9477 19.9623 18.5 19.41 18.5C18.8577 18.5 18.41 18.9477 18.41 19.5C18.41 20.0523 18.8577 20.5 19.41 20.5Z" fill="black"/>
<path fill-rule="evenodd" clip-rule="evenodd" d="M18.0641 15.5C18.0641 15.2239 18.288 15 18.5641 15H20.1641C20.4402 15 20.6641 15.2239 20.6641 15.5V16.3215C20.9535 16.4399 21.223 16.5967 21.4663 16.7853L22.1782 16.3743C22.293 16.308 22.4295 16.29 22.5576 16.3243C22.6857 16.3587 22.7949 16.4424 22.8612 16.5573L23.6612 17.9429C23.7993 18.1821 23.7173 18.4879 23.4782 18.6259L22.7664 19.0369C22.7869 19.1885 22.7974 19.3431 22.7974 19.5C22.7974 19.6569 22.7869 19.8116 22.7664 19.9633L23.4782 20.3743C23.7173 20.5124 23.7993 20.8181 23.6612 21.0573L22.8612 22.4429C22.7949 22.5578 22.6857 22.6416 22.5576 22.6759C22.4295 22.7102 22.293 22.6922 22.1782 22.6259L21.4661 22.2148C21.2229 22.4034 20.9535 22.5601 20.6641 22.6785V23.5C20.6641 23.7761 20.4402 24 20.1641 24H18.5641C18.288 24 18.0641 23.7761 18.0641 23.5V22.6785C17.7747 22.5601 17.5053 22.4034 17.2621 22.2148L16.55 22.6259C16.3108 22.764 16.0051 22.6821 15.867 22.4429L15.067 21.0573C14.9289 20.8181 15.0108 20.5124 15.25 20.3743L15.9618 19.9633C15.9413 19.8116 15.9308 19.6569 15.9308 19.5C15.9308 19.3431 15.9413 19.1885 15.9618 19.0369L15.25 18.6259C15.1351 18.5596 15.0514 18.4504 15.017 18.3223C14.9827 18.1943 15.0007 18.0578 15.067 17.9429L15.867 16.5573C15.9333 16.4424 16.0425 16.3587 16.1706 16.3243C16.2987 16.29 16.4352 16.308 16.55 16.3743L17.2619 16.7853C17.5052 16.5967 17.7746 16.44 18.0641 16.3215V15.5ZM19.0641 16V16.6771C19.0641 16.9008 18.9155 17.0973 18.7002 17.1582C18.3074 17.2693 17.9543 17.477 17.6684 17.7548C17.5081 17.9106 17.2637 17.941 17.07 17.8292L16.483 17.4903L16.183 18.0099L16.7694 18.3485C16.963 18.4602 17.0588 18.6868 17.0043 18.9036C16.9564 19.0939 16.9308 19.2936 16.9308 19.5C16.9308 19.7064 16.9564 19.9062 17.0043 20.0966C17.0589 20.3133 16.963 20.54 16.7695 20.6517L16.183 20.9903L16.483 21.5099L17.0701 21.1709C17.2638 21.0591 17.5082 21.0895 17.6686 21.2454C17.9544 21.5231 18.3074 21.7307 18.7002 21.8418C18.9155 21.9027 19.0641 22.0992 19.0641 22.3229V23H19.6641V22.3229C19.6641 22.0992 19.8127 21.9027 20.028 21.8418C20.4208 21.7307 20.7738 21.5231 21.0596 21.2454C21.22 21.0895 21.4644 21.0591 21.6581 21.1709L22.2452 21.5099L22.5452 20.9903L21.9587 20.6517C21.7652 20.54 21.6693 20.3133 21.7239 20.0966C21.7718 19.9062 21.7974 19.7065 21.7974 19.5C21.7974 19.2936 21.7719 19.0939 21.7239 18.9036C21.6694 18.6868 21.7652 18.4602 21.9588 18.3485L22.5452 18.0099L22.2452 17.4903L21.6582 17.8292C21.4645 17.941 21.2201 17.9106 21.0598 17.7548C20.7739 17.477 20.4208 17.2693 20.028 17.1582C19.8127 17.0973 19.6641 16.9008 19.6641 16.6771V16H19.0641Z" fill="black"/>
</svg>
