<svg width="32" height="32" viewBox="0 0 32 32" fill="none" xmlns="http://www.w3.org/2000/svg">
<path fill-rule="evenodd" clip-rule="evenodd" d="M7 5.5C7 4.67157 7.67157 4 8.5 4H19L19 7.5277C19 8.91528 20.13 10.0374 21.5176 10.0276L24.95 10.0035V18.5C24.95 18.7761 25.1739 19 25.45 19C25.7261 19 25.95 18.7761 25.95 18.5V9.29535L19.9416 3.18508C19.8251 3.06668 19.666 3 19.5 3H8.5C7.11929 3 6 4.11929 6 5.5V26.5C6 27.8807 7.11929 29 8.5 29H16.5C16.7761 29 17 28.7761 17 28.5C17 28.2239 16.7761 28 16.5 28H8.5C7.67157 28 7 27.3284 7 26.5V5.5ZM24.2653 9.00831L20 4.67075L20 7.5277C20 8.36024 20.678 9.03351 21.5105 9.02766L24.2653 9.00831Z" fill="black"/>
<path fill-rule="evenodd" clip-rule="evenodd" d="M11 11C9.89543 11 9 11.8954 9 13V18.5C9 18.7761 9.22386 19 9.5 19H12.5C12.7761 19 13 18.7761 13 18.5V13C13 11.8954 12.1046 11 11 11ZM10 13C10 12.4477 10.4477 12 11 12C11.5523 12 12 12.4477 12 13V18H10V13Z" fill="black"/>
<path fill-rule="evenodd" clip-rule="evenodd" d="M14 10C14 8.89543 14.8954 8 16 8C17.1046 8 18 8.89543 18 10V18.5C18 18.7761 17.7761 19 17.5 19H14.5C14.2239 19 14 18.7761 14 18.5V10ZM16 9C15.4477 9 15 9.44772 15 10V18H17V10C17 9.44772 16.5523 9 16 9Z" fill="black"/>
<path fill-rule="evenodd" clip-rule="evenodd" d="M21 13C19.8954 13 19 13.8954 19 15V18.5C19 18.7761 19.2239 19 19.5 19H22.5C22.7761 19 23 18.7761 23 18.5V15C23 13.8954 22.1046 13 21 13ZM20 15C20 14.4477 20.4477 14 21 14C21.5523 14 22 14.4477 22 15V18H20V15Z" fill="black"/>
<path d="M24.3875 27.75C25.0778 27.75 25.6375 27.1904 25.6375 26.5C25.6375 25.8096 25.0778 25.25 24.3875 25.25C23.6971 25.25 23.1375 25.8096 23.1375 26.5C23.1375 27.1904 23.6971 27.75 24.3875 27.75Z" fill="black"/>
<path fill-rule="evenodd" clip-rule="evenodd" d="M22.8301 21.5C22.8301 21.2239 23.054 21 23.3301 21H25.3301C25.6063 21 25.8301 21.2239 25.8301 21.5V22.6116C26.2373 22.7688 26.6134 22.988 26.9468 23.2573L27.9102 22.7011C28.0251 22.6348 28.1616 22.6168 28.2897 22.6512C28.4177 22.6855 28.527 22.7693 28.5933 22.8841L29.5933 24.6162C29.7313 24.8553 29.6494 25.1611 29.4102 25.2992L28.4471 25.8552C28.4799 26.0656 28.4968 26.281 28.4968 26.5C28.4968 26.7191 28.4798 26.9346 28.4471 27.145L29.4102 27.7011C29.6494 27.8392 29.7313 28.145 29.5933 28.3841L28.5933 30.1162C28.527 30.231 28.4177 30.3148 28.2897 30.3491C28.1616 30.3834 28.0251 30.3655 27.9102 30.2992L26.9466 29.7428C26.6133 30.0121 26.2373 30.2312 25.8301 30.3884V31.5C25.8301 31.7761 25.6063 32 25.3301 32H23.3301C23.054 32 22.8301 31.7761 22.8301 31.5V30.3884C22.423 30.2312 22.047 30.0121 21.7136 29.7428L20.75 30.2992C20.5108 30.4372 20.2051 30.3553 20.067 30.1162L19.067 28.3841C18.9289 28.145 19.0108 27.8392 19.25 27.7011L20.2132 27.145C20.1804 26.9346 20.1635 26.7191 20.1635 26.5C20.1635 26.281 20.1804 26.0656 20.2131 25.8552L19.25 25.2992C19.1351 25.2329 19.0514 25.1237 19.017 24.9956C18.9827 24.8675 19.0007 24.731 19.067 24.6162L20.067 22.8841C20.1333 22.7693 20.2425 22.6855 20.3706 22.6512C20.4987 22.6168 20.6352 22.6348 20.75 22.7011L21.7134 23.2573C22.0468 22.988 22.4229 22.7688 22.8301 22.6116V21.5ZM23.8301 22V22.9714C23.8301 23.1951 23.6815 23.3916 23.4662 23.4525C22.9548 23.5971 22.4952 23.8675 22.1234 24.2288C21.9631 24.3847 21.7187 24.4151 21.525 24.3032L20.683 23.8171L20.183 24.6832L21.0243 25.1688C21.2178 25.2806 21.3137 25.5072 21.2591 25.7239C21.1967 25.9718 21.1635 26.2316 21.1635 26.5C21.1635 26.7684 21.1968 27.0284 21.2592 27.2763C21.3138 27.493 21.2179 27.7196 21.0243 27.8314L20.183 28.3171L20.683 29.1832L21.5252 28.6969C21.7188 28.5851 21.9632 28.6155 22.1236 28.7713C22.4954 29.1326 22.9548 29.4029 23.4662 29.5475C23.6815 29.6084 23.8301 29.8049 23.8301 30.0286V31H24.8301V30.0286C24.8301 29.8049 24.9788 29.6084 25.194 29.5475C25.7054 29.4029 26.1649 29.1326 26.5367 28.7714C26.697 28.6155 26.9414 28.5851 27.1351 28.6969L27.9772 29.1832L28.4772 28.3171L27.6359 27.8314C27.4424 27.7197 27.3465 27.493 27.4011 27.2763C27.4635 27.0284 27.4968 26.7684 27.4968 26.5C27.4968 26.2316 27.4635 25.9717 27.4011 25.7239C27.3466 25.5072 27.4424 25.2806 27.636 25.1688L28.4772 24.6832L27.9772 23.8171L27.1353 24.3032C26.9416 24.4151 26.6972 24.3847 26.5368 24.2288C26.165 23.8675 25.7055 23.5971 25.194 23.4525C24.9788 23.3916 24.8301 23.1951 24.8301 22.9714V22H23.8301Z" fill="black"/>
</svg>
