<svg width="16" height="16" viewBox="0 0 16 16" fill="none" xmlns="http://www.w3.org/2000/svg">
<g opacity="0.9">
<path fill-rule="evenodd" clip-rule="evenodd" d="M1 2.5C1 1.11929 2.11929 0 3.5 0H11.7071L15 3.29289V8.5C15 8.77614 14.7761 9 14.5 9C14.2239 9 14 8.77614 14 8.5V4H13.5C12.1193 4 11 2.88071 11 1.5V1H3.5C2.67157 1 2 1.67157 2 2.5V13.5C2 14.3284 2.67157 15 3.5 15H9.5C9.77614 15 10 15.2239 10 15.5C10 15.7761 9.77614 16 9.5 16H3.5C2.11929 16 1 14.8807 1 13.5V2.5ZM12.0166 1.72367L13.2763 2.98344C12.627 2.88635 12.1136 2.37304 12.0166 1.72367Z" fill="black"/>
<path d="M4 6C4 5.44772 4.44772 5 5 5C5.55228 5 6 5.44772 6 6V8.5C6 8.77614 5.77614 9 5.5 9H4.5C4.22386 9 4 8.77614 4 8.5V6Z" fill="black"/>
<path d="M8 3C7.44772 3 7 3.44772 7 4V8.5C7 8.77614 7.22386 9 7.5 9H8.5C8.77614 9 9 8.77614 9 8.5V4C9 3.44772 8.55228 3 8 3Z" fill="black"/>
<path d="M10 7C10 6.44772 10.4477 6 11 6C11.5523 6 12 6.44772 12 7V8.5C12 8.77614 11.7761 9 11.5 9H10.5C10.2239 9 10 8.77614 10 8.5V7Z" fill="black"/>
<path fill-rule="evenodd" clip-rule="evenodd" d="M13.1651 10C12.889 10 12.6651 10.2239 12.6651 10.5V10.6757C12.6651 10.9039 12.5071 11.0973 12.3014 11.196C12.2082 11.2407 12.119 11.2924 12.0345 11.3504C11.8466 11.4793 11.6005 11.519 11.4032 11.405L11.2501 11.3166C11.011 11.1784 10.7051 11.2604 10.567 11.4996C10.429 11.7387 10.511 12.0445 10.7502 12.1825L10.9025 12.2704C11.0999 12.3843 11.1886 12.6173 11.1711 12.8445C11.1672 12.8958 11.1651 12.9477 11.1651 13C11.1651 13.0523 11.1672 13.1042 11.1711 13.1555C11.1886 13.3827 11.0999 13.6157 10.9025 13.7296L10.7502 13.8175C10.511 13.9555 10.429 14.2613 10.567 14.5004C10.7051 14.7396 11.011 14.8216 11.2501 14.6834L11.4032 14.595C11.6005 14.481 11.8466 14.5207 12.0345 14.6496C12.119 14.7076 12.2082 14.7593 12.3014 14.804C12.5071 14.9027 12.6651 15.0961 12.6651 15.3243V15.5C12.6651 15.7761 12.889 16 13.1651 16C13.4413 16 13.6651 15.7761 13.6651 15.5V15.3244C13.6651 15.0961 13.8232 14.9027 14.029 14.804C14.1223 14.7593 14.2115 14.7076 14.2961 14.6495C14.4842 14.5202 14.7307 14.4803 14.9283 14.5945L15.0802 14.6823C15.3193 14.8205 15.6252 14.7386 15.7633 14.4994C15.9013 14.2603 15.8194 13.9545 15.5802 13.8165L15.4282 13.7288C15.2307 13.6148 15.142 13.3816 15.1593 13.1542C15.1632 13.1033 15.1651 13.0519 15.1651 13C15.1651 12.9481 15.1632 12.8967 15.1593 12.8458C15.142 12.6184 15.2307 12.3852 15.4282 12.2712L15.5802 12.1835C15.8194 12.0455 15.9013 11.7397 15.7633 11.5006C15.6252 11.2614 15.3193 11.1795 15.0802 11.3177L14.9283 11.4055C14.7307 11.5197 14.4842 11.4798 14.2961 11.3505C14.2115 11.2924 14.1223 11.2407 14.029 11.196C13.8232 11.0973 13.6651 10.9039 13.6651 10.6756V10.5C13.6651 10.2239 13.4413 10 13.1651 10ZM14.1651 13C14.1651 13.5523 13.7174 14 13.1651 14C12.6129 14 12.1651 13.5523 12.1651 13C12.1651 12.4477 12.6129 12 13.1651 12C13.7174 12 14.1651 12.4477 14.1651 13Z" fill="black"/>
</g>
</svg>
