<svg width="32" height="32" viewBox="0 0 32 32" fill="none" xmlns="http://www.w3.org/2000/svg">
<path opacity="0.9" fill-rule="evenodd" clip-rule="evenodd" d="M12 4.5C12 4.22386 11.7761 4 11.5 4C11.2239 4 11 4.22386 11 4.5L11 9H9.5C8.67157 9 8 9.67157 8 10.5V14.5C8 18.1284 10.5766 21.1551 14 21.85L14 26.5C14 27.3284 14.6716 28 15.5 28H16.5C17.3284 28 18 27.3284 18 26.5V21.85C21.4234 21.1551 24 18.1284 24 14.5V10.5C24 9.67157 23.3284 9 22.5 9H21V4.5C21 4.22386 20.7761 4 20.5 4C20.2239 4 20 4.22386 20 4.5V9H12L12 4.5ZM15.1606 14.1307V14.472L15.7462 14.6126L15.1039 17.7249C15.0724 17.8789 15.0472 18.0194 15.0283 18.1466C15.0094 18.2738 15 18.4043 15 18.5381C15 18.6519 15.0441 18.759 15.1322 18.8594C15.2267 18.9531 15.3936 19 15.6329 19C15.7462 19 15.8659 18.9866 15.9918 18.9598C16.1178 18.9397 16.2406 18.9096 16.3603 18.8694C16.4862 18.8293 16.6027 18.7824 16.7098 18.7289C16.8231 18.6753 16.9207 18.6184 17.0026 18.5582V18.2169H16.3414L17.1915 13.8897L17.0215 13.7693C16.8892 13.7693 16.735 13.7826 16.5586 13.8094C16.3886 13.8295 16.2154 13.8563 16.0391 13.8897C15.8628 13.9232 15.6959 13.9634 15.5384 14.0102C15.381 14.0504 15.255 14.0905 15.1606 14.1307ZM16.1713 11.681C16.0265 11.8082 15.9541 11.9855 15.9541 12.2131C15.9541 12.4273 16.0265 12.598 16.1713 12.7251C16.3162 12.8523 16.4988 12.9159 16.7192 12.9159C16.9585 12.9159 17.1474 12.8523 17.286 12.7251C17.4308 12.598 17.5032 12.4273 17.5032 12.2131C17.5032 11.9855 17.4308 11.8082 17.286 11.681C17.1474 11.5538 16.9585 11.4902 16.7192 11.4902C16.4988 11.4902 16.3162 11.5538 16.1713 11.681Z" fill="black"/>
</svg>
