<svg width="16" height="16" viewBox="0 0 16 16" fill="none" xmlns="http://www.w3.org/2000/svg">
<path opacity="0.9" fill-rule="evenodd" clip-rule="evenodd" d="M6 0.5C6 0.223858 5.77614 0 5.5 0C5.22386 0 5 0.223858 5 0.5L5 3H3C2.44771 3 2 3.44772 2 4V8C2 10.7614 4.23858 13 7 13L7 15C7 15.5523 7.44772 16 8 16C8.55228 16 9 15.5523 9 15V13C11.7614 13 14 10.7614 14 8V4C14 3.44772 13.5523 3 13 3H11V0.5C11 0.223858 10.7761 0 10.5 0C10.2239 0 10 0.223858 10 0.5V3H6L6 0.5ZM7.1283 7.10963V7.38235L7.59623 7.49465L7.08302 9.98128C7.05786 10.1043 7.03774 10.2166 7.02264 10.3182C7.00755 10.4198 7 10.5241 7 10.631C7 10.7219 7.03522 10.8075 7.10566 10.8877C7.18113 10.9626 7.31447 11 7.50566 11C7.59623 11 7.69182 10.9893 7.79245 10.9679C7.89308 10.9519 7.9912 10.9278 8.08679 10.8957C8.18742 10.8636 8.2805 10.8262 8.36604 10.7834C8.4566 10.7406 8.53459 10.6952 8.6 10.6471V10.3743H8.0717L8.75094 6.91711L8.61509 6.82086C8.50943 6.82086 8.38616 6.83155 8.24528 6.85294C8.10943 6.86898 7.97107 6.89037 7.83019 6.91711C7.68931 6.94385 7.55597 6.97594 7.43019 7.01337C7.3044 7.04545 7.20377 7.07754 7.1283 7.10963ZM7.93585 5.15241C7.82013 5.25401 7.76226 5.39572 7.76226 5.57754C7.76226 5.74866 7.82013 5.88503 7.93585 5.98663C8.05157 6.08824 8.19748 6.13904 8.37359 6.13904C8.56478 6.13904 8.71572 6.08824 8.82642 5.98663C8.94214 5.88503 9 5.74866 9 5.57754C9 5.39572 8.94214 5.25401 8.82642 5.15241C8.71572 5.0508 8.56478 5 8.37359 5C8.19748 5 8.05157 5.0508 7.93585 5.15241Z" fill="black"/>
</svg>
