<svg width="24" height="24" viewBox="0 0 24 24" fill="none" xmlns="http://www.w3.org/2000/svg">
<path opacity="0.9" fill-rule="evenodd" clip-rule="evenodd" d="M2 12C2 6.47715 6.47715 2 12 2C17.5228 2 22 6.47715 22 12C22 17.5228 17.5228 22 12 22C6.47715 22 2 17.5228 2 12ZM17.3536 8.85355C17.5488 8.65829 17.5488 8.34171 17.3536 8.14645C17.1583 7.95118 16.8417 7.95118 16.6464 8.14645L10 14.7929L7.35355 12.1464C7.15829 11.9512 6.84171 11.9512 6.64645 12.1464C6.45118 12.3417 6.45118 12.6583 6.64645 12.8536L10 16.2071L17.3536 8.85355Z" fill="black"/>
</svg>
