<svg width="16" height="16" viewBox="0 0 16 16" fill="none" xmlns="http://www.w3.org/2000/svg">
<g opacity="0.9">
<path d="M11.3535 6.35355C11.5488 6.15829 11.5488 5.84171 11.3535 5.64645C11.1583 5.45118 10.8417 5.45118 10.6464 5.64645L6.99998 9.29289L5.35354 7.64645C5.15828 7.45119 4.84169 7.45119 4.64643 7.64645C4.45117 7.84171 4.45117 8.15829 4.64643 8.35355L6.99998 10.7071L11.3535 6.35355Z" fill="black"/>
<path fill-rule="evenodd" clip-rule="evenodd" d="M8 1C4.13401 1 1 4.13401 1 8C1 11.866 4.13401 15 8 15C11.866 15 15 11.866 15 8C15 4.13401 11.866 1 8 1ZM2 8C2 4.68629 4.68629 2 8 2C11.3137 2 14 4.68629 14 8C14 11.3137 11.3137 14 8 14C4.68629 14 2 11.3137 2 8Z" fill="black"/>
</g>
</svg>
