<svg width="24" height="24" viewBox="0 0 24 24" fill="none" xmlns="http://www.w3.org/2000/svg">
<g opacity="0.9">
<path fill-rule="evenodd" clip-rule="evenodd" d="M11.5 2.5C10.6716 2.5 10 3.17157 10 4V19C10 19.2761 10.2239 19.5 10.5 19.5H12.5C12.7761 19.5 13 19.2761 13 19V4C13 3.17157 12.3284 2.5 11.5 2.5ZM11 4C11 3.72386 11.2239 3.5 11.5 3.5C11.7761 3.5 12 3.72386 12 4V18.5H11V4Z" fill="black"/>
<path fill-rule="evenodd" clip-rule="evenodd" d="M6.5 6.5C5.67157 6.5 5 7.17157 5 8V19C5 19.2761 5.22386 19.5 5.5 19.5H7.5C7.77614 19.5 8 19.2761 8 19V8C8 7.17157 7.32843 6.5 6.5 6.5ZM6 8C6 7.72386 6.22386 7.5 6.5 7.5C6.77614 7.5 7 7.72386 7 8V18.5H6V8Z" fill="black"/>
<path fill-rule="evenodd" clip-rule="evenodd" d="M15 12C15 11.1716 15.6716 10.5 16.5 10.5C17.3284 10.5 18 11.1716 18 12V19C18 19.2761 17.7761 19.5 17.5 19.5H15.5C15.2239 19.5 15 19.2761 15 19V12ZM16.5 11.5C16.2239 11.5 16 11.7239 16 12V18.5H17V12C17 11.7239 16.7761 11.5 16.5 11.5Z" fill="black"/>
<path d="M3.5 21C3.22386 21 3 21.2239 3 21.5C3 21.7761 3.22386 22 3.5 22H19.5C19.7761 22 20 21.7761 20 21.5C20 21.2239 19.7761 21 19.5 21H3.5Z" fill="black"/>
</g>
</svg>
