<svg width="32" height="32" viewBox="0 0 32 32" fill="none" xmlns="http://www.w3.org/2000/svg">
<g opacity="0.9">
<path fill-rule="evenodd" clip-rule="evenodd" d="M16 4.5C14.8954 4.5 14 5.39543 14 6.5V24C14 24.2761 14.2239 24.5 14.5 24.5H17.5C17.7761 24.5 18 24.2761 18 24V6.5C18 5.39543 17.1046 4.5 16 4.5ZM15 6.5C15 5.94772 15.4477 5.5 16 5.5C16.5523 5.5 17 5.94772 17 6.5V23.5H15V6.5Z" fill="black"/>
<path fill-rule="evenodd" clip-rule="evenodd" d="M9 9.5C7.89543 9.5 7 10.3954 7 11.5V24C7 24.2761 7.22386 24.5 7.5 24.5H10.5C10.7761 24.5 11 24.2761 11 24V11.5C11 10.3954 10.1046 9.5 9 9.5ZM8 11.5C8 10.9477 8.44772 10.5 9 10.5C9.55228 10.5 10 10.9477 10 11.5V23.5H8V11.5Z" fill="black"/>
<path fill-rule="evenodd" clip-rule="evenodd" d="M21 15.5C21 14.3954 21.8954 13.5 23 13.5C24.1046 13.5 25 14.3954 25 15.5V24C25 24.2761 24.7761 24.5 24.5 24.5H21.5C21.2239 24.5 21 24.2761 21 24V15.5ZM23 14.5C22.4477 14.5 22 14.9477 22 15.5V23.5H24V15.5C24 14.9477 23.5523 14.5 23 14.5Z" fill="black"/>
<path d="M5.5 27C5.22386 27 5 27.2239 5 27.5C5 27.7761 5.22386 28 5.5 28H26.5C26.7761 28 27 27.7761 27 27.5C27 27.2239 26.7761 27 26.5 27H5.5Z" fill="black"/>
</g>
</svg>
