<svg width="32" height="32" viewBox="0 0 32 32" fill="none" xmlns="http://www.w3.org/2000/svg">
<g opacity="0.9">
<path d="M16 6C16.5523 6 17 5.55229 17 5C17 4.44772 16.5523 4 16 4H8C6.34315 4 5 5.34314 5 7V25C5 26.6569 6.34315 28 8 28H16C16.5523 28 17 27.5523 17 27C17 26.4477 16.5523 26 16 26H8C7.44772 26 7 25.5523 7 25L7 7C7 6.44772 7.44772 6 8 6L16 6Z" fill="black"/>
<path d="M21.4463 19.8064C21.0633 20.2042 21.0752 20.8372 21.473 21.2203C21.8708 21.6034 22.5039 21.5915 22.887 21.1936L27.8883 16L22.887 10.8064C22.5039 10.4085 21.8708 10.3966 21.473 10.7797C21.0752 11.1628 21.0633 11.7958 21.4463 12.1936L24.1488 15H12C11.4477 15 11 15.4477 11 16C11 16.5523 11.4477 17 12 17L24.1488 17L21.4463 19.8064Z" fill="black"/>
</g>
</svg>
