<svg width="24" height="24" viewBox="0 0 24 24" fill="none" xmlns="http://www.w3.org/2000/svg">
<g opacity="0.9">
<path d="M12.5 3C12.7761 3 13 2.77614 13 2.5C13 2.22386 12.7761 2 12.5 2H6.5C5.11929 2 4 3.11929 4 4.5V19.5C4 20.8807 5.11929 22 6.5 22H12.5C12.7761 22 13 21.7761 13 21.5C13 21.2239 12.7761 21 12.5 21H6.5C5.67157 21 5 20.3284 5 19.5L5 4.5C5 3.67157 5.67157 3 6.5 3L12.5 3Z" fill="black"/>
<path d="M15.9638 7.65187C15.7716 7.45366 15.455 7.44884 15.2568 7.64111C15.0586 7.83338 15.0538 8.14992 15.246 8.34813L17.8184 11L8.5 11C8.22386 11 8 11.2239 8 11.5C8 11.7761 8.22386 12 8.5 12L17.8184 12L15.246 14.6519C15.0538 14.8501 15.0586 15.1666 15.2568 15.3589C15.455 15.5512 15.7716 15.5463 15.9638 15.3481L19.6966 11.5L15.9638 7.65187Z" fill="black"/>
</g>
</svg>
