<svg width="32" height="32" viewBox="0 0 32 32" fill="none" xmlns="http://www.w3.org/2000/svg">
<g opacity="0.9">
<path d="M19.544 2.04756C18.6708 1.96795 18 2.68516 18 3.50007L18 13.5001C18 13.7762 18.2239 14.0001 18.5 14.0001H28.5C29.3149 14.0001 30.0321 13.3293 29.9525 12.456C29.8475 11.3038 29.5689 10.1719 29.1246 9.09921C28.5467 7.70397 27.6996 6.43622 26.6317 5.36834C25.5639 4.30047 24.2961 3.45339 22.9009 2.87546C21.8282 2.43114 20.6963 2.1526 19.544 2.04756Z" fill="black"/>
<path d="M16 6.50008C16 5.68516 15.3292 4.96795 14.456 5.04756C12.55 5.22131 10.7115 5.86874 9.11095 6.93818C7.21978 8.20181 5.7458 9.99787 4.87539 12.0992C4.00498 14.2006 3.77724 16.5128 4.22097 18.7436C4.6647 20.9744 5.75997 23.0235 7.36828 24.6318C8.97658 26.2401 11.0257 27.3354 13.2565 27.7791C15.4872 28.2228 17.7995 27.9951 19.9009 27.1247C22.0022 26.2543 23.7983 24.7803 25.0619 22.8891C26.1313 21.2886 26.7788 19.4501 26.9525 17.5441C27.0321 16.6708 26.3149 16.0001 25.5 16.0001H16.5C16.2239 16.0001 16 15.7762 16 15.5001V6.50008Z" fill="black"/>
</g>
</svg>
