<svg width="16" height="16" viewBox="0 0 16 16" fill="none" xmlns="http://www.w3.org/2000/svg">
<g clip-path="url(#clip0)">
<g opacity="0.9">
<path d="M8.85356 4.95218C8.6583 5.14744 8.34172 5.14744 8.14646 4.95218C7.9512 4.75691 7.9512 4.44033 8.14646 4.24507L9.29285 3.0987L8.00596 3.0987L8 3.09873C5.23858 3.09873 3 5.33731 3 8.09873C3 8.37488 2.77614 8.59873 2.5 8.59873C2.22386 8.59873 2 8.37488 2 8.09873C2 4.7871 4.68294 2.10209 7.99379 2.09874C7.99586 2.09871 7.99794 2.0987 8.00001 2.0987L9.29291 2.0987L8.14645 0.952176C7.95119 0.756909 7.9512 0.440327 8.14647 0.24507C8.34174 0.0498129 8.65832 0.0498218 8.85358 0.245089L10.8535 2.24515C11.0488 2.44042 11.0488 2.757 10.8535 2.95225L8.85356 4.95218Z" fill="black"/>
<path d="M8.00123 13.0986L7.7486 13.098C7.72434 13.0944 7.69951 13.0925 7.67424 13.0925H6.70978L7.85302 11.9528C7.91795 11.888 7.96138 11.8099 7.98329 11.7272C8.02737 11.5609 7.98435 11.3763 7.85411 11.2456C7.65915 11.0501 7.34256 11.0496 7.147 11.2445L5.14701 13.2384C5.08831 13.297 5.04565 13.3685 5.02185 13.4464C5.0142 13.4714 5.00849 13.4971 5.00484 13.5233C5.00168 13.5458 5.00004 13.5688 5 13.5918C4.9998 13.7244 5.05229 13.8517 5.14592 13.9456L7.14592 15.9516C7.34089 16.1472 7.65747 16.1477 7.85303 15.9527C7.91796 15.888 7.96139 15.8098 7.98329 15.7271C8.02737 15.5608 7.98435 15.3762 7.85411 15.2455L6.70753 14.0955L7.98842 14.0986L7.99994 14.0987C11.3136 14.0987 13.9999 11.4124 13.9999 8.09873C13.9999 7.82259 13.7761 7.59873 13.4999 7.59873C13.2238 7.59873 12.9999 7.82259 12.9999 8.09873C12.9999 10.8569 10.7667 13.0934 8.00975 13.0987L8.00123 13.0986Z" fill="black"/>
</g>
</g>
<defs>
<clipPath id="clip0">
<rect width="16" height="16" fill="white"/>
</clipPath>
</defs>
</svg>
