<svg width="24" height="24" viewBox="0 0 24 24" fill="none" xmlns="http://www.w3.org/2000/svg">
<g opacity="0.9">
<path fill-rule="evenodd" clip-rule="evenodd" d="M9.39453 6.98868C7.36877 8.1261 6 10.295 6 12.7836C6 16.4515 8.9734 19.4248 12.6413 19.4248C14.6983 19.4248 16.5369 18.4897 17.7551 17.0212C18.0607 16.6529 18.3273 16.2509 18.5484 15.8217C18.1226 15.9503 17.6787 16.0373 17.2214 16.0779C17.0253 16.0953 16.8267 16.1042 16.626 16.1042C12.9582 16.1042 9.98476 13.1308 9.98476 9.46295C9.98476 8.84671 10.0687 8.25007 10.2257 7.68385C10.3477 7.24414 10.5138 6.82277 10.7189 6.4248C10.2538 6.5652 9.81034 6.75521 9.39453 6.98868ZM16.2781 17.0964C15.2956 17.9258 14.0264 18.4248 12.6413 18.4248C9.52568 18.4248 7 15.8992 7 12.7836C7 11.0312 7.79942 9.46422 9.05421 8.42916C9.00841 8.76741 8.98476 9.11253 8.98476 9.46295C8.98476 13.5665 12.2194 16.9145 16.2781 17.0964Z" fill="black"/>
<path fill-rule="evenodd" clip-rule="evenodd" d="M1 4.5C1 3.11929 2.11929 2 3.5 2H20.5C21.8807 2 23 3.11929 23 4.5V19.5C23 20.8807 21.8807 22 20.5 22H3.5C2.11929 22 1 20.8807 1 19.5V4.5ZM3.5 3C2.67157 3 2 3.67157 2 4.5V5H22V4.5C22 3.67157 21.3284 3 20.5 3H3.5ZM22 6H2V19.5C2 20.3284 2.67157 21 3.5 21H20.5C21.3284 21 22 20.3284 22 19.5V6Z" fill="black"/>
</g>
</svg>
