<svg width="24" height="24" viewBox="0 0 24 24" fill="none" xmlns="http://www.w3.org/2000/svg">
<path opacity="0.9" fill-rule="evenodd" clip-rule="evenodd" d="M3.5 2C2.11929 2 1 3.11929 1 4.5V19.5C1 20.8807 2.11929 22 3.5 22H20.5C21.8807 22 23 20.8807 23 19.5V4.5C23 3.11929 21.8807 2 20.5 2H3.5ZM22 6H2V5H22V6ZM16.626 16.1042C17.2945 16.1042 17.9399 16.0055 18.5484 15.8217C17.4457 17.9616 15.2143 19.4248 12.6413 19.4248C8.9734 19.4248 6 16.4515 6 12.7836C6 9.78418 7.98836 7.24918 10.7189 6.4248C10.2497 7.33525 9.98476 8.36816 9.98476 9.46295C9.98476 13.1308 12.9582 16.1042 16.626 16.1042Z" fill="black"/>
</svg>
