<svg width="32" height="32" viewBox="0 0 32 32" fill="none" xmlns="http://www.w3.org/2000/svg">
<g opacity="0.9">
<path fill-rule="evenodd" clip-rule="evenodd" d="M22.4392 20.8065C22.0848 20.8595 21.7221 20.887 21.353 20.887C17.3295 20.887 14.0679 17.6253 14.0679 13.6019C14.0679 12.872 14.1752 12.1672 14.375 11.5023C14.4982 11.0923 14.6565 10.6974 14.8466 10.3213C14.4064 10.4253 13.981 10.5676 13.5741 10.7445C10.8823 11.9146 9 14.5972 9 17.7195C9 21.9178 12.4035 25.3213 16.6018 25.3213C19.3376 25.3213 21.7358 23.8762 23.0747 21.7076C23.3086 21.3288 23.5102 20.928 23.6756 20.5089C23.2777 20.6426 22.8644 20.743 22.4392 20.8065ZM21.7294 21.8786C21.6046 21.8841 21.4791 21.887 21.353 21.887C16.7772 21.887 13.0679 18.1776 13.0679 13.6019C13.0679 13.0727 13.1176 12.5547 13.2127 12.0525C11.288 13.2062 10 15.3132 10 17.7195C10 21.3656 12.9557 24.3213 16.6018 24.3213C18.6706 24.3213 20.5184 23.3696 21.7294 21.8786Z" fill="black"/>
<path fill-rule="evenodd" clip-rule="evenodd" d="M3 6.5C3 5.11929 4.11929 4 5.5 4H26.5C27.8807 4 29 5.11929 29 6.5V25.5C29 26.8807 27.8807 28 26.5 28H5.5C4.11929 28 3 26.8807 3 25.5V6.5ZM5.5 5C4.67157 5 4 5.67157 4 6.5V8H28V6.5C28 5.67157 27.3284 5 26.5 5H5.5ZM28 9H4V25.5C4 26.3284 4.67157 27 5.5 27H26.5C27.3284 27 28 26.3284 28 25.5V9Z" fill="black"/>
</g>
</svg>
