<svg width="32" height="32" viewBox="0 0 32 32" fill="none" xmlns="http://www.w3.org/2000/svg">
<path opacity="0.9" fill-rule="evenodd" clip-rule="evenodd" d="M14.5734 4.92258C15.0224 3.54062 16.9776 3.54061 17.4266 4.92258L19.6187 11.6693C19.6857 11.8753 19.8776 12.0148 20.0943 12.0148H27.1882C28.6412 12.0148 29.2454 13.8742 28.0698 14.7283L22.3307 18.898C22.1555 19.0253 22.0822 19.251 22.1491 19.457L24.3413 26.2037C24.7903 27.5857 23.2086 28.7349 22.033 27.8808L16.2939 23.7111C16.1186 23.5838 15.8813 23.5838 15.7061 23.7111L9.96701 27.8808C8.79144 28.7349 7.20972 27.5857 7.65875 26.2037L9.85089 19.457C9.91782 19.251 9.8445 19.0253 9.66925 18.898L3.93016 14.7283C2.75459 13.8742 3.35875 12.0148 4.81183 12.0148H11.9057C12.1224 12.0148 12.3143 11.8753 12.3813 11.6693L14.5734 4.92258ZM16.4755 5.2316C16.3259 4.77095 15.6741 4.77094 15.5245 5.2316L13.3323 11.9783C13.1315 12.5963 12.5556 13.0148 11.9057 13.0148H4.81183C4.32747 13.0148 4.12608 13.6346 4.51794 13.9193L10.257 18.089C10.7828 18.471 11.0028 19.148 10.8019 19.766L8.6098 26.5128C8.46013 26.9734 8.98737 27.3565 9.37923 27.0718L15.1183 22.9021C15.6441 22.5201 16.3559 22.5201 16.8817 22.9021L22.6208 27.0718C23.0126 27.3565 23.5399 26.9734 23.3902 26.5128L21.1981 19.766C20.9972 19.148 21.2172 18.471 21.743 18.089L27.4821 13.9193C27.8739 13.6346 27.6725 13.0148 27.1882 13.0148H20.0943C19.4444 13.0148 18.8685 12.5963 18.6677 11.9783L16.4755 5.2316Z" fill="black"/>
</svg>
