<svg width="16" height="16" viewBox="0 0 16 16" fill="none" xmlns="http://www.w3.org/2000/svg">
<path opacity="0.9" d="M8.96765 2.51115C8.66371 1.57571 7.34031 1.57571 7.03637 2.51115L5.90667 5.98799C5.90462 5.99431 5.89873 5.99859 5.89209 5.99859H2.23632C1.25274 5.99859 0.84379 7.25722 1.63952 7.83535L4.5971 9.98415C4.60247 9.98806 4.60472 9.99498 4.60267 10.0013L3.47298 13.4781C3.16903 14.4136 4.23969 15.1915 5.03542 14.6133L7.99299 12.4645C7.99837 12.4606 8.00565 12.4606 8.01103 12.4645L10.9686 14.6133C11.7643 15.1915 12.835 14.4136 12.531 13.4781L11.4014 10.0013C11.3993 9.99498 11.4015 9.98806 11.4069 9.98415L14.3645 7.83535C15.1602 7.25721 14.7513 5.99859 13.7677 5.99859H10.1119C10.1053 5.99859 10.0994 5.99431 10.0973 5.98799L8.96765 2.51115Z" fill="black"/>
</svg>
