<svg width="32" height="32" viewBox="0 0 32 32" fill="none" xmlns="http://www.w3.org/2000/svg">
<path opacity="0.9" fill-rule="evenodd" clip-rule="evenodd" d="M4 10C4 8.34315 5.34315 7 7 7H25C26.6569 7 28 8.34315 28 10V22C28 23.6569 26.6569 25 25 25H7C5.34315 25 4 23.6569 4 22V10ZM6.02848 8.2514C5.72533 8.42019 5.47064 8.66553 5.29054 8.96129L15.7226 15.916C15.8906 16.028 16.1094 16.028 16.2774 15.916L26.7095 8.96129C26.5294 8.66553 26.2747 8.42019 25.9715 8.2514L16 14.8991L6.02848 8.2514Z" fill="black"/>
</svg>
