<svg width="24" height="24" viewBox="0 0 24 24" fill="none" xmlns="http://www.w3.org/2000/svg">
<path opacity="0.9" fill-rule="evenodd" clip-rule="evenodd" d="M2 8C2 6.34315 3.34315 5 5 5H19C20.6569 5 22 6.34315 22 8V16C22 17.6569 20.6569 19 19 19H5C3.34315 19 2 17.6569 2 16V8ZM20.8293 7.19029C20.6903 6.87669 20.473 6.60552 20.2022 6.40154L12.0076 11.4094L4.03263 6.2491C3.72796 6.41778 3.47199 6.66368 3.2911 6.96037L11.7284 12.4198C11.8898 12.5242 12.0967 12.5269 12.2607 12.4266L20.8293 7.19029Z" fill="black"/>
</svg>
