<svg width="16" height="16" viewBox="0 0 16 16" fill="none" xmlns="http://www.w3.org/2000/svg">
<g opacity="0.9">
<path d="M6.68182 6.87642V6.51279C6.78877 6.47001 6.93137 6.42722 7.10963 6.38444C7.28788 6.33453 7.47683 6.29175 7.67647 6.2561C7.87611 6.22045 8.07219 6.19193 8.26471 6.17054C8.46435 6.14202 8.63904 6.12776 8.78877 6.12776L8.98128 6.2561L8.01872 10.8657H8.76738V11.2294C8.67469 11.2935 8.56417 11.3541 8.43583 11.4112C8.31462 11.4682 8.18271 11.5181 8.04011 11.5609C7.90463 11.6037 7.7656 11.6358 7.62299 11.6572C7.48039 11.6857 7.34492 11.7 7.21658 11.7C6.94563 11.7 6.75668 11.65 6.64973 11.5502C6.54991 11.4433 6.5 11.3292 6.5 11.208C6.5 11.0654 6.51069 10.9263 6.53209 10.7909C6.55348 10.6554 6.582 10.5057 6.61765 10.3417L7.34492 7.02615L6.68182 6.87642ZM7.58021 4.47001C7.58021 4.22758 7.66221 4.03863 7.8262 3.90316C7.9902 3.76769 8.19697 3.69995 8.44652 3.69995C8.71747 3.69995 8.93137 3.76769 9.08823 3.90316C9.25223 4.03863 9.33422 4.22758 9.33422 4.47001C9.33422 4.69817 9.25223 4.87999 9.08823 5.01546C8.93137 5.15093 8.71747 5.21867 8.44652 5.21867C8.19697 5.21867 7.9902 5.15093 7.8262 5.01546C7.66221 4.87999 7.58021 4.69817 7.58021 4.47001Z" fill="black"/>
<path fill-rule="evenodd" clip-rule="evenodd" d="M8 2C4.68629 2 2 4.68629 2 8C2 11.3137 4.68629 14 8 14C11.3137 14 14 11.3137 14 8C14 4.68629 11.3137 2 8 2ZM1 8C1 4.13401 4.13401 1 8 1C11.866 1 15 4.13401 15 8C15 11.866 11.866 15 8 15C4.13401 15 1 11.866 1 8Z" fill="black"/>
</g>
</svg>
