<svg width="24" height="24" viewBox="0 0 24 24" fill="none" xmlns="http://www.w3.org/2000/svg">
<g opacity="0.9">
<path d="M10.2566 11.3676V10.8676C10.4075 10.8088 10.6088 10.75 10.8604 10.6912C11.1119 10.6225 11.3786 10.5637 11.6604 10.5147C11.9421 10.4657 12.2189 10.4265 12.4906 10.3971C12.7723 10.3578 13.0189 10.3382 13.2302 10.3382L13.5019 10.5147L12.1434 16.8529H13.2V17.3529C13.0692 17.4412 12.9132 17.5245 12.7321 17.6029C12.561 17.6814 12.3748 17.75 12.1736 17.8088C11.9824 17.8676 11.7862 17.9118 11.5849 17.9412C11.3836 17.9804 11.1925 18 11.0113 18C10.6289 18 10.3623 17.9314 10.2113 17.7941C10.0704 17.6471 10 17.4902 10 17.3235C10 17.1275 10.0151 16.9363 10.0453 16.75C10.0755 16.5637 10.1157 16.3578 10.166 16.1324L11.1925 11.5735L10.2566 11.3676ZM11.5245 8.05882C11.5245 7.72549 11.6403 7.46569 11.8717 7.27941C12.1031 7.09314 12.395 7 12.7472 7C13.1296 7 13.4314 7.09314 13.6528 7.27941C13.8843 7.46569 14 7.72549 14 8.05882C14 8.37255 13.8843 8.62255 13.6528 8.80882C13.4314 8.9951 13.1296 9.08824 12.7472 9.08824C12.395 9.08824 12.1031 8.9951 11.8717 8.80882C11.6403 8.62255 11.5245 8.37255 11.5245 8.05882Z" fill="black"/>
<path fill-rule="evenodd" clip-rule="evenodd" d="M12 3C7.02944 3 3 7.02944 3 12C3 16.9706 7.02944 21 12 21C16.9706 21 21 16.9706 21 12C21 7.02944 16.9706 3 12 3ZM2 12C2 6.47715 6.47715 2 12 2C17.5228 2 22 6.47715 22 12C22 17.5228 17.5228 22 12 22C6.47715 22 2 17.5228 2 12Z" fill="black"/>
</g>
</svg>
