<svg width="32" height="32" viewBox="0 0 32 32" fill="none" xmlns="http://www.w3.org/2000/svg">
<path opacity="0.9" fill-rule="evenodd" clip-rule="evenodd" d="M4 16C4 9.37258 9.37258 4 16 4C22.6274 4 28 9.37258 28 16C28 22.6274 22.6274 28 16 28C9.37258 28 4 22.6274 4 16ZM13.3421 13.6257V14.3529L14.5899 14.6524L13.2214 21.2834C13.1543 21.6114 13.1006 21.9109 13.0604 22.1818C13.0201 22.4528 13 22.7308 13 23.016C13 23.2585 13.0939 23.4866 13.2818 23.7005C13.483 23.9002 13.8386 24 14.3484 24C14.5899 24 14.8449 23.9715 15.1132 23.9144C15.3816 23.8717 15.6432 23.8075 15.8981 23.7219C16.1665 23.6364 16.4147 23.5365 16.6428 23.4225C16.8843 23.3084 17.0922 23.1872 17.2667 23.0588V22.3316H15.8579L17.6692 13.1123L17.3069 12.8556C17.0252 12.8556 16.6964 12.8841 16.3208 12.9412C15.9585 12.984 15.5895 13.041 15.2138 13.1123C14.8382 13.1836 14.4826 13.2692 14.1472 13.369C13.8117 13.4545 13.5434 13.5401 13.3421 13.6257ZM15.4956 8.40642C15.187 8.67736 15.0327 9.05526 15.0327 9.54011C15.0327 9.99643 15.187 10.3601 15.4956 10.631C15.8042 10.902 16.1933 11.0374 16.6629 11.0374C17.1727 11.0374 17.5753 10.902 17.8704 10.631C18.179 10.3601 18.3333 9.99643 18.3333 9.54011C18.3333 9.05526 18.179 8.67736 17.8704 8.40642C17.5753 8.13547 17.1727 8 16.6629 8C16.1933 8 15.8042 8.13547 15.4956 8.40642Z" fill="black"/>
</svg>
