<svg width="24" height="24" viewBox="0 0 24 24" fill="none" xmlns="http://www.w3.org/2000/svg">
<path opacity="0.9" fill-rule="evenodd" clip-rule="evenodd" d="M8.5 2C8.77614 2 9 2.22386 9 2.5L9 6H15V2.5C15 2.22386 15.2239 2 15.5 2C15.7761 2 16 2.22386 16 2.5V6H17.5C18.3284 6 19 6.67157 19 7.5V11.5C19 14.9216 16.3562 17.7257 13 17.9811V21C13 21.5523 12.5523 22 12 22C11.4477 22 11 21.5523 11 21L11 17.9811C7.64378 17.7257 5 14.9216 5 11.5V7.5C5 6.67157 5.67157 6 6.5 6H8L8 2.5C8 2.22386 8.22386 2 8.5 2Z" fill="black"/>
</svg>
