<svg width="32" height="33" viewBox="0 0 32 33" fill="none" xmlns="http://www.w3.org/2000/svg">
<path opacity="0.9" fill-rule="evenodd" clip-rule="evenodd" d="M27 16.217C27 19.4939 25.6294 22.4507 23.4303 24.5454C23.4441 24.5565 23.4574 24.5685 23.4702 24.5813L29.5456 30.6566C29.7408 30.8519 29.7408 31.1685 29.5456 31.3637C29.3503 31.559 29.0337 31.559 28.8385 31.3637L22.7631 25.2884C22.734 25.2593 22.7092 25.2274 22.6888 25.1937C20.7198 26.7726 18.2202 27.717 15.5 27.717C9.14873 27.717 4 22.5683 4 16.217C4 9.86577 9.14873 4.71704 15.5 4.71704C21.8513 4.71704 27 9.86577 27 16.217ZM10.5 15.717C10.2239 15.717 10 15.9409 10 16.217C10 16.4932 10.2239 16.717 10.5 16.717H20.5C20.7761 16.717 21 16.4932 21 16.217C21 15.9409 20.7761 15.717 20.5 15.717H10.5Z" fill="black"/>
</svg>
