<svg width="16" height="16" viewBox="0 0 16 16" fill="none" xmlns="http://www.w3.org/2000/svg">
<g opacity="0.9">
<path fill-rule="evenodd" clip-rule="evenodd" d="M9 1C5.13401 1 2 4.13401 2 8C2 11.866 5.13401 15 9 15C12.866 15 16 11.866 16 8C16 4.13401 12.866 1 9 1ZM7.5 6C7.5 6.55228 7.05228 7 6.5 7C5.94772 7 5.5 6.55228 5.5 6C5.5 5.44772 5.94772 5 6.5 5C7.05228 5 7.5 5.44772 7.5 6ZM12 10.5C12 10.7761 11.7761 11 11.5 11H6.5C6.22386 11 6 10.7761 6 10.5C6 10.2239 6.22386 10 6.5 10H11.5C11.7761 10 12 10.2239 12 10.5ZM11.5 7C12.0523 7 12.5 6.55228 12.5 6C12.5 5.44772 12.0523 5 11.5 5C10.9477 5 10.5 5.44772 10.5 6C10.5 6.55228 10.9477 7 11.5 7Z" fill="black"/>
<path d="M3.84488 1.88219C4.05595 1.70414 4.08272 1.38869 3.90466 1.17762C3.72661 0.966545 3.41116 0.939777 3.20009 1.11783C1.24391 2.76798 0 5.23898 0 8.00001C0 10.761 1.24391 13.232 3.20009 14.8822C3.41116 15.0602 3.72661 15.0335 3.90466 14.8224C4.08272 14.6113 4.05595 14.2959 3.84488 14.1178C2.1043 12.6496 1 10.454 1 8.00001C1 5.54603 2.1043 3.35047 3.84488 1.88219Z" fill="black"/>
</g>
</svg>
