<svg width="24" height="24" viewBox="0 0 24 24" fill="none" xmlns="http://www.w3.org/2000/svg">
<g opacity="0.9">
<path fill-rule="evenodd" clip-rule="evenodd" d="M11 9.5C11 10.3284 10.3284 11 9.5 11C8.67157 11 8 10.3284 8 9.5C8 8.67157 8.67157 8 9.5 8C10.3284 8 11 8.67157 11 9.5ZM10 9.5C10 9.77614 9.77614 10 9.5 10C9.22386 10 9 9.77614 9 9.5C9 9.22386 9.22386 9 9.5 9C9.77614 9 10 9.22386 10 9.5Z" fill="black"/>
<path fill-rule="evenodd" clip-rule="evenodd" d="M16.5 11C17.3284 11 18 10.3284 18 9.5C18 8.67157 17.3284 8 16.5 8C15.6716 8 15 8.67157 15 9.5C15 10.3284 15.6716 11 16.5 11ZM16.5 10C16.7761 10 17 9.77614 17 9.5C17 9.22386 16.7761 9 16.5 9C16.2239 9 16 9.22386 16 9.5C16 9.77614 16.2239 10 16.5 10Z" fill="black"/>
<path d="M9.5 15C9.22386 15 9 15.2239 9 15.5C9 15.7761 9.22386 16 9.5 16H16.5C16.7761 16 17 15.7761 17 15.5C17 15.2239 16.7761 15 16.5 15H9.5Z" fill="black"/>
<path fill-rule="evenodd" clip-rule="evenodd" d="M3 12C3 6.47715 7.47715 2 13 2C18.5228 2 23 6.47715 23 12C23 17.5228 18.5228 22 13 22C7.47715 22 3 17.5228 3 12ZM13 3C8.02944 3 4 7.02944 4 12C4 16.9706 8.02944 21 13 21C17.9706 21 22 16.9706 22 12C22 7.02944 17.9706 3 13 3Z" fill="black"/>
<path d="M5.23147 2.68849C5.40352 2.90448 5.3679 3.21905 5.15191 3.39111C2.62083 5.40729 1 8.51421 1 12C1 15.4858 2.62083 18.5928 5.15191 20.6089C5.3679 20.781 5.40352 21.0956 5.23147 21.3115C5.05942 21.5275 4.74484 21.5632 4.52885 21.3911C1.76983 19.1934 0 15.8032 0 12C0 8.19683 1.76983 4.80668 4.52885 2.60893C4.74484 2.43688 5.05942 2.4725 5.23147 2.68849Z" fill="black"/>
</g>
</svg>
