<svg width="32" height="32" viewBox="0 0 32 32" fill="none" xmlns="http://www.w3.org/2000/svg">
<g opacity="0.9">
<path fill-rule="evenodd" clip-rule="evenodd" d="M17 4C10.3726 4 5 9.37258 5 16C5 22.6274 10.3726 28 17 28C23.6274 28 29 22.6274 29 16C29 9.37258 23.6274 4 17 4ZM14 13C14 14.1046 13.1046 15 12 15C10.8954 15 10 14.1046 10 13C10 11.8954 10.8954 11 12 11C13.1046 11 14 11.8954 14 13ZM24 13C24 14.1046 23.1046 15 22 15C20.8954 15 20 14.1046 20 13C20 11.8954 20.8954 11 22 11C23.1046 11 24 11.8954 24 13ZM11.5 20C11.2239 20 11 20.2239 11 20.5C11 20.7761 11.2239 21 11.5 21H22.5C22.7761 21 23 20.7761 23 20.5C23 20.2239 22.7761 20 22.5 20H11.5Z" fill="black"/>
<path d="M6.86198 6.34488C7.05245 6.14495 7.04478 5.82846 6.84484 5.63798C6.64491 5.44751 6.32842 5.45518 6.13795 5.65512C3.57446 8.34597 2 11.9897 2 16C2 20.0103 3.57446 23.654 6.13795 26.3449C6.32842 26.5448 6.64491 26.5525 6.84484 26.362C7.04478 26.1715 7.05245 25.8551 6.86198 25.6551C4.46855 23.1428 3 19.7434 3 16C3 12.2566 4.46855 8.85723 6.86198 6.34488Z" fill="black"/>
</g>
</svg>
