<svg width="24" height="24" viewBox="0 0 24 24" fill="none" xmlns="http://www.w3.org/2000/svg">
<g opacity="0.9">
<path d="M10.0001 12C10.0001 10.8954 10.8955 10 12.0001 10C13.1046 10 14.0001 10.8954 14.0001 12C14.0001 13.1046 13.1046 14 12.0001 14C10.8955 14 10.0001 13.1046 10.0001 12Z" fill="black"/>
<path fill-rule="evenodd" clip-rule="evenodd" d="M21.8618 12.3451L21.8632 12.3437C22.0453 12.151 22.0453 11.849 21.8632 11.6563L21.8618 11.6549L21.8587 11.6515L21.8477 11.6401C21.8383 11.6304 21.8248 11.6165 21.8074 11.5988C21.7725 11.5633 21.7216 11.5124 21.6556 11.4482C21.5236 11.3198 21.3307 11.1382 21.0833 10.9211C20.589 10.4873 19.8747 9.90964 18.9914 9.33162C17.2332 8.18113 14.7613 7 12.0001 7C9.23881 7 6.76688 8.18113 5.00876 9.33162C4.12546 9.90964 3.41111 10.4873 2.91681 10.9211C2.66943 11.1382 2.47654 11.3198 2.3445 11.4482C2.27847 11.5124 2.22761 11.5633 2.19272 11.5988C2.17527 11.6165 2.16181 11.6304 2.15244 11.6401L2.14146 11.6515L2.13829 11.6549L2.13694 11.6563C1.95477 11.849 1.95512 12.1514 2.13729 12.3441L2.13829 12.3451L2.14146 12.3485L2.15244 12.3599C2.16181 12.3696 2.17527 12.3835 2.19272 12.4012C2.22761 12.4367 2.27847 12.4876 2.3445 12.5518C2.47654 12.6802 2.66943 12.8618 2.91681 13.0789C3.41111 13.5127 4.12546 14.0904 5.00876 14.6684C6.76688 15.8189 9.23881 17 12.0001 17C14.7613 17 17.2332 15.8189 18.9914 14.6684C19.8747 14.0904 20.589 13.5127 21.0833 13.0789C21.3307 12.8618 21.5236 12.6802 21.6556 12.5518C21.7216 12.4876 21.7725 12.4367 21.8074 12.4012C21.8248 12.3835 21.8383 12.3696 21.8477 12.3599L21.8587 12.3485L21.8618 12.3451ZM12.0001 9C10.3432 9 9.00005 10.3431 9.00005 12C9.00005 13.6569 10.3432 15 12.0001 15C13.6569 15 15.0001 13.6569 15.0001 12C15.0001 10.3431 13.6569 9 12.0001 9Z" fill="black"/>
</g>
</svg>
