<svg width="32" height="32" viewBox="0 0 32 32" fill="none" xmlns="http://www.w3.org/2000/svg">
<g opacity="0.9">
<path d="M20 14V11.5C20 10.1193 18.8807 9 17.5 9H14.5C13.1193 9 12 10.1193 12 11.5V14H20Z" fill="black"/>
<path d="M16.5 18.8662C16.7989 18.6933 17 18.3701 17 18C17 17.4477 16.5523 17 16 17C15.4477 17 15 17.4477 15 18C15 18.3701 15.2011 18.6933 15.5 18.8662V19.5C15.5 19.7761 15.7239 20 16 20C16.2761 20 16.5 19.7761 16.5 19.5V18.8662Z" fill="black"/>
<path fill-rule="evenodd" clip-rule="evenodd" d="M3 16C3 8.8203 8.8203 3 16 3C23.1797 3 29 8.8203 29 16C29 23.1797 23.1797 29 16 29C8.8203 29 3 23.1797 3 16ZM14.5 8C12.567 8 11 9.567 11 11.5V14.1707C9.83481 14.5825 9 15.6938 9 17V21C9 22.1046 9.89543 23 11 23H21C22.1046 23 23 22.1046 23 21V17C23 15.6938 22.1652 14.5825 21 14.1707V11.5C21 9.567 19.433 8 17.5 8H14.5Z" fill="black"/>
</g>
</svg>
