<svg width="24" height="24" viewBox="0 0 24 24" fill="none" xmlns="http://www.w3.org/2000/svg">
<path opacity="0.9" fill-rule="evenodd" clip-rule="evenodd" d="M10.6929 3.55386C10.9429 2.64151 12.0167 2.24648 12.7983 2.77937L12.9084 2.85445C14.1754 3.71836 14.9335 5.15277 14.9335 6.68632C14.9335 6.86723 15.0802 7.01388 15.2611 7.01388H17.9671C19.5824 7.01388 20.7736 8.52267 20.3989 10.0938L18.7529 16.9959C18.4844 18.1217 17.4784 18.916 16.3211 18.916H11.3597C11.0354 18.916 10.7142 18.8529 10.414 18.7302L8 17.7437V17.999C8 18.5513 7.55228 18.999 7 18.999H4C3.44772 18.999 3 18.5513 3 17.999V7.99902C3 7.44674 3.44772 6.99902 4 6.99902H7C7.49953 6.99902 7.9135 7.36528 7.98804 7.8439C9.06711 7.41477 9.88508 6.50313 10.193 5.37896L10.6929 3.55386ZM12.2349 3.6056C12.0205 3.45943 11.726 3.56778 11.6574 3.81805L11.1575 5.64315C10.754 7.11632 9.66063 8.30206 8.22498 8.82356C8.09003 8.87258 8.00018 9.00081 8.00018 9.14438V16.3277C8.00018 16.5308 8.12304 16.7137 8.31104 16.7905L10.7923 17.8045C10.9724 17.8781 11.1651 17.916 11.3597 17.916H16.3211C17.0155 17.916 17.6191 17.4394 17.7801 16.7639L19.4262 9.86186C19.651 8.91915 18.9363 8.01388 17.9671 8.01388H15.2611C14.5279 8.01388 13.9335 7.41951 13.9335 6.68632C13.9335 5.48343 13.3389 4.35831 12.345 3.68068L12.2349 3.6056ZM7 7.99902H4V17.999H7V7.99902Z" fill="black"/>
</svg>
