<svg width="32" height="32" viewBox="0 0 32 32" fill="none" xmlns="http://www.w3.org/2000/svg">
<g opacity="0.9">
<path d="M14.6305 5.7889C14.9092 4.7671 16.1304 4.34811 16.9776 4.98357L17.8002 5.60045C19.1851 6.63915 20.0002 8.26929 20.0002 10.0005V10.5005C20.0002 10.7766 20.224 11.0005 20.5002 11.0005H23.7892C26.0174 11.0005 27.6784 13.055 27.2115 15.2338L25.4972 23.2338C25.1514 24.8476 23.7253 26.0005 22.0749 26.0005H13.9907C13.5879 26.0005 13.191 25.9031 12.8339 25.7167L10.5374 24.518C10.2072 24.3456 10.0002 24.004 10.0002 23.6315V13.3177C10.0002 12.9023 10.2569 12.5302 10.6452 12.3828L10.9431 12.2697C12.2887 11.7589 13.3088 10.6352 13.6875 9.24667L14.6305 5.7889Z" fill="black"/>
<path d="M7.5 11C8.32843 11 9 11.6716 9 12.5V24.5002C9 25.3286 8.32843 26.0002 7.5 26.0002H5.5C4.67157 26.0002 4 25.3286 4 24.5002V12.5C4 11.6716 4.67157 11 5.5 11H7.5Z" fill="black"/>
</g>
</svg>
