<svg width="24" height="24" viewBox="0 0 24 24" fill="none" xmlns="http://www.w3.org/2000/svg">
<g opacity="0.9">
<path d="M10.6929 3.55483C10.9429 2.64249 12.0167 2.24746 12.7983 2.78035L12.9084 2.85542C14.1754 3.71933 14.9335 5.15374 14.9335 6.6873C14.9335 6.86821 15.0802 7.01486 15.2611 7.01486H17.9671C19.5824 7.01486 20.7736 8.52364 20.3989 10.0948L18.7529 16.9969C18.4844 18.1226 17.4784 18.9169 16.3211 18.9169H11.5003C11.0634 18.9169 10.6341 18.8024 10.2552 18.5848L8.40176 17.5204C8.15335 17.3777 8.00018 17.1131 8.00018 16.8266V8.70064C8.00018 8.434 8.14109 8.18721 8.37071 8.05167C9.20493 7.55924 9.81462 6.76132 10.0705 5.82702L10.6929 3.55483Z" fill="black"/>
<path d="M6 7C6.55228 7 7 7.44772 7 8V18C7 18.5523 6.55228 19 6 19H4C3.44772 19 3 18.5523 3 18V8C3 7.44772 3.44772 7 4 7H6Z" fill="black"/>
</g>
</svg>
