<svg width="25" height="24" viewBox="0 0 25 24" fill="none" xmlns="http://www.w3.org/2000/svg">
<g opacity="0.9">
<path d="M9.38872 6.64645C9.58399 6.84171 9.58399 7.15829 9.38872 7.35355L7.74228 9H17.5352C17.8113 9 18.0352 9.22386 18.0352 9.5C18.0352 9.77614 17.8113 10 17.5352 10H7.74228L9.38872 11.6464C9.58399 11.8417 9.58399 12.1583 9.38872 12.3536C9.19346 12.5488 8.87688 12.5488 8.68162 12.3536L5.82806 9.5L8.68162 6.64645C8.87688 6.45118 9.19346 6.45118 9.38872 6.64645Z" fill="black"/>
<path d="M15.3887 11.6464C15.1934 11.4512 14.8769 11.4512 14.6816 11.6464C14.4863 11.8417 14.4863 12.1583 14.6816 12.3536L16.328 14H6.53514C6.259 14 6.03514 14.2239 6.03514 14.5C6.03514 14.7761 6.259 15 6.53514 15H16.328L14.6816 16.6464C14.4863 16.8417 14.4863 17.1583 14.6816 17.3536C14.8769 17.5488 15.1934 17.5488 15.3887 17.3536L18.2422 14.5L15.3887 11.6464Z" fill="black"/>
<path fill-rule="evenodd" clip-rule="evenodd" d="M12.0352 2C6.51231 2 2.03516 6.47715 2.03516 12C2.03516 17.5228 6.51231 22 12.0352 22C17.558 22 22.0352 17.5228 22.0352 12C22.0352 6.47715 17.558 2 12.0352 2ZM3.03516 12C3.03516 7.02944 7.06459 3 12.0352 3C17.0057 3 21.0352 7.02944 21.0352 12C21.0352 16.9706 17.0057 21 12.0352 21C7.06459 21 3.03516 16.9706 3.03516 12Z" fill="black"/>
</g>
</svg>
