<svg width="33" height="32" viewBox="0 0 33 32" fill="none" xmlns="http://www.w3.org/2000/svg">
<path opacity="0.9" fill-rule="evenodd" clip-rule="evenodd" d="M16.0352 4C9.40774 4 4.03516 9.37258 4.03516 16C4.03516 22.6274 9.40774 28 16.0352 28C22.6626 28 28.0352 22.6274 28.0352 16C28.0352 9.37258 22.6626 4 16.0352 4ZM12.2423 8.79289C12.6328 9.18342 12.6328 9.81658 12.2423 10.2071L11.4494 11H23.0352C23.5874 11 24.0352 11.4477 24.0352 12C24.0352 12.5523 23.5874 13 23.0352 13H11.4494L12.2423 13.7929C12.6328 14.1834 12.6328 14.8166 12.2423 15.2071C11.8517 15.5976 11.2186 15.5976 10.828 15.2071L7.62094 12L10.828 8.79289C11.2186 8.40237 11.8517 8.40237 12.2423 8.79289ZM19.828 18.2071C19.4375 17.8166 19.4375 17.1834 19.828 16.7929C20.2186 16.4024 20.8517 16.4024 21.2423 16.7929L24.4494 20L21.2423 23.2071C20.8517 23.5976 20.2186 23.5976 19.828 23.2071C19.4375 22.8166 19.4375 22.1834 19.828 21.7929L20.6209 21H9.03516C8.48287 21 8.03516 20.5523 8.03516 20C8.03516 19.4477 8.48287 19 9.03516 19H20.6209L19.828 18.2071Z" fill="black"/>
</svg>
