<svg width="33" height="32" viewBox="0 0 33 32" fill="none" xmlns="http://www.w3.org/2000/svg">
<g opacity="0.9">
<path d="M12.3887 9.64645C12.584 9.84171 12.584 10.1583 12.3887 10.3536L10.7423 12H23.5352C23.8113 12 24.0352 12.2239 24.0352 12.5C24.0352 12.7761 23.8113 13 23.5352 13H10.7423L12.3887 14.6464C12.584 14.8417 12.584 15.1583 12.3887 15.3536C12.1935 15.5488 11.8769 15.5488 11.6816 15.3536L8.82806 12.5L11.6816 9.64645C11.8769 9.45119 12.1935 9.45119 12.3887 9.64645Z" fill="black"/>
<path d="M20.6816 17.3536C20.4863 17.1583 20.4863 16.8417 20.6816 16.6464C20.8769 16.4512 21.1934 16.4512 21.3887 16.6464L24.2422 19.5L21.3887 22.3536C21.1934 22.5488 20.8769 22.5488 20.6816 22.3536C20.4863 22.1583 20.4863 21.8417 20.6816 21.6464L22.328 20H9.53514C9.259 20 9.03514 19.7761 9.03514 19.5C9.03514 19.2239 9.259 19 9.53514 19H22.328L20.6816 17.3536Z" fill="black"/>
<path fill-rule="evenodd" clip-rule="evenodd" d="M4.03516 16C4.03516 9.37258 9.40774 4 16.0352 4C22.6626 4 28.0352 9.37258 28.0352 16C28.0352 22.6274 22.6626 28 16.0352 28C9.40774 28 4.03516 22.6274 4.03516 16ZM16.0352 5C9.96002 5 5.03516 9.92487 5.03516 16C5.03516 22.0751 9.96002 27 16.0352 27C22.1103 27 27.0352 22.0751 27.0352 16C27.0352 9.92487 22.1103 5 16.0352 5Z" fill="black"/>
</g>
</svg>
