<svg width="16" height="16" viewBox="0 0 16 16" fill="none" xmlns="http://www.w3.org/2000/svg">
<g opacity="0.9">
<path d="M0.5 2C0.776142 2 1 2.22386 1 2.5V5V14H14.5C14.7761 14 15 14.2239 15 14.5C15 14.7761 14.7761 15 14.5 15H0V2.5C0 2.22386 0.223858 2 0.5 2Z" fill="black"/>
<path d="M1 5C1 5.27614 1.22386 5.5 1.5 5.5H2.5C2.77614 5.5 3 5.27614 3 5C3 4.72386 2.77614 4.5 2.5 4.5H1.5C1.22386 4.5 1 4.72386 1 5Z" fill="black"/>
<path d="M8.80006 5.39998C8.92147 5.30876 9 5.16355 9 5C9 4.72386 8.77614 4.5 8.5 4.5H7.5C7.22386 4.5 7 4.72386 7 5C7 5.16355 7.07853 5.30876 7.19994 5.39999C7.07439 5.56712 7 5.77487 7 6V11.5C7 11.7761 7.22386 12 7.5 12H8.5C8.77614 12 9 11.7761 9 11.5V6C9 5.77487 8.92561 5.56712 8.80006 5.39998Z" fill="black"/>
<path d="M12 3C11.4477 3 11 3.44772 11 4V4.5H10.5C10.2239 4.5 10 4.72386 10 5C10 5.27614 10.2239 5.5 10.5 5.5H11V11.5C11 11.7761 11.2239 12 11.5 12H12.5C12.7761 12 13 11.7761 13 11.5V5C13 5.27614 13.2239 5.5 13.5 5.5H14.5C14.7761 5.5 15 5.27614 15 5C15 4.72386 14.7761 4.5 14.5 4.5H13.5C13.2239 4.5 13 4.72386 13 5V4C13 3.44772 12.5523 3 12 3Z" fill="black"/>
<path d="M3 9C3 8.44772 3.44772 8 4 8C4.55228 8 5 8.44772 5 9V11.5C5 11.7761 4.77614 12 4.5 12H3.5C3.22386 12 3 11.7761 3 11.5V9Z" fill="black"/>
<path d="M4.5 4.5C4.22386 4.5 4 4.72386 4 5C4 5.27614 4.22386 5.5 4.5 5.5H5.5C5.77614 5.5 6 5.27614 6 5C6 4.72386 5.77614 4.5 5.5 4.5H4.5Z" fill="black"/>
</g>
</svg>
