<svg width="32" height="32" viewBox="0 0 32 32" fill="none" xmlns="http://www.w3.org/2000/svg">
<path opacity="0.9" d="M3.5 6.5V27.5H27.5" stroke="black" stroke-linecap="round"/>
<g opacity="0.9">
<path d="M15.5 12C15.5 11.1716 16.1716 10.5 17 10.5V10.5C17.8284 10.5 18.5 11.1716 18.5 12V23.5H15.5V12Z" stroke="black" stroke-linejoin="round"/>
<path d="M22.5 7C22.5 6.17157 23.1716 5.5 24 5.5V5.5C24.8284 5.5 25.5 6.17157 25.5 7V23.5H22.5V7Z" stroke="black" stroke-linejoin="round"/>
<path d="M8.5 17C8.5 16.1716 9.17157 15.5 10 15.5V15.5C10.8284 15.5 11.5 16.1716 11.5 17V23.5H8.5V17Z" stroke="black" stroke-linejoin="round"/>
</g>
<path opacity="0.9" d="M5.5 10H6.5M8.5 10H9.5M11.5 10H12.5M14.5 10H15.5M17.5 10H18.5M20.5 10H21.5M23.5 10H24.5M26.5 10H27.5" stroke="black" stroke-linecap="round"/>
</svg>
