<svg width="16" height="16" viewBox="0 0 16 16" fill="none" xmlns="http://www.w3.org/2000/svg">
<g opacity="0.9">
<path fill-rule="evenodd" clip-rule="evenodd" d="M5.5 2.5V3H3.5C2.67157 3 2 3.67157 2 4.5V5.5C2 5.77614 2.22386 6 2.5 6H13.5C13.7761 6 14 5.77614 14 5.5V4.5C14 3.67157 13.3284 3 12.5 3H10.5V2.5C10.5 1.67157 9.82843 1 9 1H7C6.17157 1 5.5 1.67157 5.5 2.5ZM7 2C6.72386 2 6.5 2.22386 6.5 2.5V3H9.5V2.5C9.5 2.22386 9.27614 2 9 2H7Z" fill="black"/>
<path d="M10 11.5L10 7H6L6 11.5C6 11.7761 5.77614 12 5.5 12C5.22386 12 5 11.7761 5 11.5L5 7H3V14C3 14.5523 3.44772 15 4 15H12C12.5523 15 13 14.5523 13 14V7H11V11.5C11 11.7761 10.7761 12 10.5 12C10.2239 12 10 11.7761 10 11.5Z" fill="black"/>
</g>
</svg>
