<svg width="24" height="24" viewBox="0 0 24 24" fill="none" xmlns="http://www.w3.org/2000/svg">
<g opacity="0.9">
<path fill-rule="evenodd" clip-rule="evenodd" d="M9 3.5V4H4.5C3.67157 4 3 4.67157 3 5.5V7.5C3 7.77614 3.22386 8 3.5 8H20.5C20.7761 8 21 7.77614 21 7.5V5.5C21 4.67157 20.3284 4 19.5 4H15V3.5C15 2.67157 14.3284 2 13.5 2H10.5C9.67157 2 9 2.67157 9 3.5ZM10.5 3C10.2239 3 10 3.22386 10 3.5V4H14V3.5C14 3.22386 13.7761 3 13.5 3H10.5Z" fill="black"/>
<path d="M14 17.5L14 9H10L10 17.5C10 17.7761 9.77614 18 9.5 18C9.22386 18 9 17.7761 9 17.5L9 9H4V19C4 20.1046 4.89543 21 6 21H18C19.1046 21 20 20.1046 20 19V9H15V17.5C15 17.7761 14.7761 18 14.5 18C14.2239 18 14 17.7761 14 17.5Z" fill="black"/>
</g>
</svg>
