<svg width="32" height="32" viewBox="0 0 32 32" fill="none" xmlns="http://www.w3.org/2000/svg">
<g opacity="0.9">
<path d="M11 14.5V16H8V14.5C8 13.6716 8.67157 13 9.5 13C10.3284 13 11 13.6716 11 14.5Z" fill="black"/>
<path d="M16 16H17.5C18.3284 16 19 15.3284 19 14.5C19 13.6716 18.3284 13 17.5 13H16V16Z" fill="black"/>
<path fill-rule="evenodd" clip-rule="evenodd" d="M3 9.5C3 8.11929 4.11929 7 5.5 7H26.5C27.8807 7 29 8.11929 29 9.5V22.5C29 23.8807 27.8807 25 26.5 25H5.5C4.11929 25 3 23.8807 3 22.5V9.5ZM9.5 12C8.11929 12 7 13.1193 7 14.5V19.5C7 19.7761 7.22386 20 7.5 20C7.77614 20 8 19.7761 8 19.5V17H11V19.5C11 19.7761 11.2239 20 11.5 20C11.7761 20 12 19.7761 12 19.5V14.5C12 13.1193 10.8807 12 9.5 12ZM15 12.5C15 12.2239 15.2239 12 15.5 12H17.5C18.8807 12 20 13.1193 20 14.5C20 15.8807 18.8807 17 17.5 17H16V19.5C16 19.7761 15.7761 20 15.5 20C15.2239 20 15 19.7761 15 19.5V12.5ZM24 12.5C24 12.2239 23.7761 12 23.5 12C23.2239 12 23 12.2239 23 12.5V19.5C23 19.7761 23.2239 20 23.5 20C23.7761 20 24 19.7761 24 19.5V12.5Z" fill="black"/>
</g>
</svg>
