<svg width="24" height="24" viewBox="0 0 24 24" fill="none" xmlns="http://www.w3.org/2000/svg">
<g opacity="0.9">
<path d="M8 11V12H6V11C6 10.4477 6.44772 10 7 10C7.55228 10 8 10.4477 8 11Z" fill="black"/>
<path d="M12 12H13C13.5523 12 14 11.5523 14 11C14 10.4477 13.5523 10 13 10H12V12Z" fill="black"/>
<path fill-rule="evenodd" clip-rule="evenodd" d="M2 6.5C2 5.11929 3.11929 4 4.5 4H19.5C20.8807 4 22 5.11929 22 6.5V17.5C22 18.8807 20.8807 20 19.5 20H4.5C3.11929 20 2 18.8807 2 17.5V6.5ZM7 9C5.89543 9 5 9.89543 5 11V14.5C5 14.7761 5.22386 15 5.5 15C5.77614 15 6 14.7761 6 14.5V13H8V14.5C8 14.7761 8.22386 15 8.5 15C8.77614 15 9 14.7761 9 14.5V11C9 9.89543 8.10457 9 7 9ZM11 9.5C11 9.22386 11.2239 9 11.5 9H13C14.1046 9 15 9.89543 15 11C15 12.1046 14.1046 13 13 13H12V14.5C12 14.7761 11.7761 15 11.5 15C11.2239 15 11 14.7761 11 14.5V9.5ZM18 9.5C18 9.22386 17.7761 9 17.5 9C17.2239 9 17 9.22386 17 9.5V14.5C17 14.7761 17.2239 15 17.5 15C17.7761 15 18 14.7761 18 14.5V9.5Z" fill="black"/>
</g>
</svg>
