<svg width="32" height="33" viewBox="0 0 32 33" fill="none" xmlns="http://www.w3.org/2000/svg">
<g opacity="0.9">
<path d="M4 16.717C4 13.9556 6.23858 11.717 9 11.717H13.0833C13.3595 11.717 13.5833 11.4932 13.5833 11.217C13.5833 10.9409 13.3595 10.717 13.0833 10.717H9C5.68629 10.717 3 13.4033 3 16.717C3 20.0307 5.68629 22.717 9 22.717H13.0833C13.3595 22.717 13.5833 22.4932 13.5833 22.217C13.5833 21.9409 13.3595 21.717 13.0833 21.717H9C6.23858 21.717 4 19.4785 4 16.717Z" fill="black"/>
<path d="M18.9167 10.717C18.6405 10.717 18.4167 10.9409 18.4167 11.217C18.4167 11.4932 18.6405 11.717 18.9167 11.717H23C25.7614 11.717 28 13.9556 28 16.717C28 19.4785 25.7614 21.717 23 21.717H18.9167C18.6405 21.717 18.4167 21.9409 18.4167 22.217C18.4167 22.4932 18.6405 22.717 18.9167 22.717H23C26.3137 22.717 29 20.0307 29 16.717C29 13.4033 26.3137 10.717 23 10.717H18.9167Z" fill="black"/>
<path d="M11 15.717C10.4477 15.717 10 16.1648 10 16.717C10 17.2693 10.4477 17.717 11 17.717H21C21.5523 17.717 22 17.2693 22 16.717C22 16.1648 21.5523 15.717 21 15.717H11Z" fill="black"/>
</g>
</svg>
