<svg width="16" height="17" viewBox="0 0 16 17" fill="none" xmlns="http://www.w3.org/2000/svg">
<g opacity="0.9">
<path d="M1 8.71704C1 7.06019 2.34315 5.71704 4 5.71704H6.25C6.52614 5.71704 6.75 5.49318 6.75 5.21704C6.75 4.9409 6.52614 4.71704 6.25 4.71704H4C1.79086 4.71704 0 6.5079 0 8.71704C0 10.9262 1.79086 12.717 4 12.717H6.25C6.52614 12.717 6.75 12.4932 6.75 12.217C6.75 11.9409 6.52614 11.717 6.25 11.717H4C2.34315 11.717 1 10.3739 1 8.71704Z" fill="black"/>
<path d="M9.75 4.71704C9.47386 4.71704 9.25 4.9409 9.25 5.21704C9.25 5.49318 9.47386 5.71704 9.75 5.71704H12C13.6569 5.71704 15 7.06019 15 8.71704C15 10.3739 13.6569 11.717 12 11.717H9.75C9.47386 11.717 9.25 11.9409 9.25 12.217C9.25 12.4932 9.47386 12.717 9.75 12.717H12C14.2091 12.717 16 10.9262 16 8.71704C16 6.5079 14.2091 4.71704 12 4.71704H9.75Z" fill="black"/>
<path d="M5 7.71704C4.44772 7.71704 4 8.16476 4 8.71704C4 9.26933 4.44772 9.71704 5 9.71704H11C11.5523 9.71704 12 9.26933 12 8.71704C12 8.16476 11.5523 7.71704 11 7.71704H5Z" fill="black"/>
</g>
</svg>
