<svg width="32" height="32" viewBox="0 0 32 32" fill="none" xmlns="http://www.w3.org/2000/svg">
<g opacity="0.9">
<path fill-rule="evenodd" clip-rule="evenodd" d="M10.5 6C9.11929 6 8 7.11929 8 8.5V13.5C8 13.7761 8.22386 14 8.5 14C8.77614 14 9 13.7761 9 13.5V11H12V13.5C12 13.7761 12.2239 14 12.5 14C12.7761 14 13 13.7761 13 13.5V8.5C13 7.11929 11.8807 6 10.5 6ZM12 8.5V10H9V8.5C9 7.67157 9.67157 7 10.5 7C11.3284 7 12 7.67157 12 8.5Z" fill="black"/>
<path fill-rule="evenodd" clip-rule="evenodd" d="M6 22.5C6 20.0147 8.01472 18 10.5 18C12.8163 18 14.7238 19.75 14.9725 22H25.5C25.6326 22 25.7598 22.0527 25.8536 22.1464C25.9473 22.2402 26 22.3674 26 22.5V25.5C26 25.7761 25.7761 26 25.5 26C25.2239 26 25 25.7761 25 25.5V23H24V24.5C24 24.7761 23.7761 25 23.5 25C23.2239 25 23 24.7761 23 24.5V23H22V25.5C22 25.7761 21.7761 26 21.5 26C21.2239 26 21 25.7761 21 25.5V23H14.9725C14.7238 25.25 12.8163 27 10.5 27C8.01472 27 6 24.9853 6 22.5ZM9 22.5C9 22.7761 8.77614 23 8.5 23C8.22386 23 8 22.7761 8 22.5C8 22.2239 8.22386 22 8.5 22C8.77614 22 9 22.2239 9 22.5Z" fill="black"/>
<path fill-rule="evenodd" clip-rule="evenodd" d="M16 6.5C16 6.22386 16.2239 6 16.5 6H18.5C19.8807 6 21 7.11929 21 8.5C21 9.88071 19.8807 11 18.5 11H17V13.5C17 13.7761 16.7761 14 16.5 14C16.2239 14 16 13.7761 16 13.5V6.5ZM17 10H18.5C19.3284 10 20 9.32843 20 8.5C20 7.67157 19.3284 7 18.5 7H17V10Z" fill="black"/>
<path d="M25 6.5C25 6.22386 24.7761 6 24.5 6C24.2239 6 24 6.22386 24 6.5V13.5C24 13.7761 24.2239 14 24.5 14C24.7761 14 25 13.7761 25 13.5V6.5Z" fill="black"/>
</g>
</svg>
