<svg width="24" height="24" viewBox="0 0 24 24" fill="none" xmlns="http://www.w3.org/2000/svg">
<g opacity="0.9">
<path fill-rule="evenodd" clip-rule="evenodd" d="M13.8322 7.1263C13.6258 6.94284 13.3098 6.96143 13.1263 7.16782L9.1263 11.6678C8.9579 11.8573 8.9579 12.1427 9.1263 12.3322L13.1263 16.8322C13.3098 17.0386 13.6258 17.0572 13.8322 16.8737C14.0386 16.6902 14.0572 16.3742 13.8737 16.1678L10.169 12L13.8737 7.83218C14.0572 7.62579 14.0386 7.30975 13.8322 7.1263Z" fill="black"/>
<path fill-rule="evenodd" clip-rule="evenodd" d="M12 3C16.9706 3 21 7.02944 21 12C21 16.9706 16.9706 21 12 21C7.02944 21 3 16.9706 3 12C3 7.02944 7.02944 3 12 3ZM22 12C22 6.47715 17.5228 2 12 2C6.47715 2 2 6.47715 2 12C2 17.5228 6.47715 22 12 22C17.5228 22 22 17.5228 22 12Z" fill="black"/>
</g>
</svg>
