<svg width="16" height="16" viewBox="0 0 16 16" fill="none" xmlns="http://www.w3.org/2000/svg">
<g opacity="0.9">
<path fill-rule="evenodd" clip-rule="evenodd" d="M1.5 1C1.22386 1 1 1.22386 1 1.5V13C1 14.1046 1.89543 15 3 15H12.2676C12.0974 14.7058 12 14.3643 12 14V1.5C12 1.22386 11.7761 1 11.5 1H1.5ZM3.5 3C3.22386 3 3 3.22386 3 3.5V7.5C3 7.77614 3.22386 8 3.5 8H9.5C9.77614 8 10 7.77614 10 7.5V3.5C10 3.22386 9.77614 3 9.5 3H3.5ZM3 9.5C3 9.22386 3.22386 9 3.5 9H9.5C9.77614 9 10 9.22386 10 9.5C10 9.77614 9.77614 10 9.5 10H3.5C3.22386 10 3 9.77614 3 9.5ZM3 11.5C3 11.2239 3.22386 11 3.5 11H7.5C7.77614 11 8 11.2239 8 11.5C8 11.7761 7.77614 12 7.5 12H3.5C3.22386 12 3 11.7761 3 11.5Z" fill="black"/>
<path d="M13 6H15V14C15 14.5523 14.5523 15 14 15C13.4477 15 13 14.5523 13 14V6Z" fill="black"/>
</g>
</svg>
