<svg width="24" height="24" viewBox="0 0 24 24" fill="none" xmlns="http://www.w3.org/2000/svg">
<path opacity="0.9" d="M19.5 12L19.8608 12.3462L20.1929 12L19.8608 11.6538L19.5 12ZM19.5 12C19.8608 12.3462 19.8607 12.3463 19.8606 12.3464L19.8602 12.3467L19.8594 12.3477L19.8567 12.3504L19.8476 12.3597L19.815 12.3927C19.787 12.4208 19.7462 12.4609 19.6935 12.5115C19.5881 12.6125 19.4344 12.755 19.2376 12.9251C18.8445 13.265 18.2765 13.7175 17.5742 14.1702C16.1778 15.0705 14.2069 16 12 16C9.79308 16 7.82217 15.0705 6.42577 14.1702C5.72346 13.7175 5.15553 13.265 4.76237 12.9251C4.56557 12.755 4.41193 12.6125 4.3065 12.5115C4.25377 12.4609 4.21304 12.4208 4.18496 12.3927L4.15238 12.3597L4.14334 12.3504L4.14065 12.3477L4.13977 12.3467L4.13944 12.3464C4.13931 12.3463 4.1392 12.3462 4.5 12M19.5 12C19.8608 11.6538 19.8607 11.6537 19.8606 11.6536L19.8602 11.6533L19.8594 11.6523L19.8567 11.6496L19.8476 11.6403L19.815 11.6073C19.787 11.5792 19.7462 11.5391 19.6935 11.4885C19.5881 11.3875 19.4344 11.245 19.2376 11.0749C18.8445 10.735 18.2765 10.2825 17.5742 9.82976C16.1778 8.92951 14.2069 8 12 8C9.79308 8 7.82217 8.92951 6.42577 9.82976C5.72346 10.2825 5.15553 10.735 4.76237 11.0749C4.56557 11.245 4.41193 11.3875 4.3065 11.4885C4.25377 11.5391 4.21304 11.5792 4.18496 11.6073L4.15238 11.6403L4.14334 11.6496L4.14065 11.6523L4.13977 11.6533L4.13944 11.6536C4.13931 11.6537 4.1392 11.6538 4.5 12M4.5 12L4.1392 12.3462L3.8071 12L4.1392 11.6538L4.5 12ZM12.3334 2.44323L12 2.56106L11.6666 2.44323C11.2776 2.30571 11 1.93462 11 1.5C11 0.947715 11.4477 0.5 12 0.5C12.5523 0.5 13 0.947715 13 1.5C13 1.93462 12.7224 2.30571 12.3334 2.44323ZM12 5.5H12.5H19C20.3807 5.5 21.5 6.61929 21.5 8V10V10.5H22C22.2761 10.5 22.5 10.7239 22.5 11V13C22.5 13.2761 22.2761 13.5 22 13.5H21.5V14V16C21.5 17.3807 20.3807 18.5 19 18.5H5C3.61929 18.5 2.5 17.3807 2.5 16V14V13.5H2C1.72386 13.5 1.5 13.2761 1.5 13V11C1.5 10.7239 1.72386 10.5 2 10.5H2.5V10V8C2.5 6.61929 3.61929 5.5 5 5.5H11.5H12Z" fill="black" stroke="black"/>
</svg>
