<svg width="16" height="16" viewBox="0 0 16 16" fill="none" xmlns="http://www.w3.org/2000/svg">
<g opacity="0.9">
<path d="M9 8C9 8.55228 8.55228 9 8 9C7.44772 9 7 8.55228 7 8C7 7.44772 7.44772 7 8 7C8.55228 7 9 7.44772 9 8Z" fill="black"/>
<path fill-rule="evenodd" clip-rule="evenodd" d="M8.5 1.86622C8.7989 1.69331 9 1.37014 9 1C9 0.447715 8.55229 0 8 0C7.44772 0 7 0.447715 7 1C7 1.37014 7.2011 1.69331 7.5 1.86622V3H3C1.89543 3 1 3.89543 1 5V7C0.447715 7 0 7.44772 0 8V9C0 9.55228 0.447715 10 1 10V11C1 12.1046 1.89543 13 3 13H13C14.1046 13 15 12.1046 15 11V10C15.5523 10 16 9.55229 16 9V8C16 7.44772 15.5523 7 15 7V5C15 3.89543 14.1046 3 13 3H8.5V1.86622ZM8 10.5C10.4853 10.5 12.5 8 12.5 8C12.5 8 10.4853 5.5 8 5.5C5.51472 5.5 3.5 8 3.5 8C3.5 8 5.51472 10.5 8 10.5Z" fill="black"/>
</g>
</svg>
