<svg width="32" height="32" viewBox="0 0 32 32" fill="none" xmlns="http://www.w3.org/2000/svg">
<path d="M24 5C22.8954 5 22 5.89543 22 7V23.5C22 23.7761 22.2239 24 22.5 24H25.5C25.7761 24 26 23.7761 26 23.5V7C26 5.89543 25.1046 5 24 5Z" fill="black"/>
<path d="M3.5 6C3.77614 6 4 6.22386 4 6.5V27H27.5C27.7761 27 28 27.2239 28 27.5C28 27.7761 27.7761 28 27.5 28H3V6.5C3 6.22386 3.22386 6 3.5 6Z" fill="black"/>
<path d="M17 10C15.8954 10 15 10.8954 15 12V23.5C15 23.7761 15.2239 24 15.5 24H18.5C18.7761 24 19 23.7761 19 23.5V12C19 10.8954 18.1046 10 17 10Z" fill="black"/>
<path d="M10 15C8.89543 15 8 15.8954 8 17V23.5C8 23.7761 8.22386 24 8.5 24H11.5C11.7761 24 12 23.7761 12 23.5V17C12 15.8954 11.1046 15 10 15Z" fill="black"/>
</svg>
