<svg width="24" height="24" viewBox="0 0 24 24" fill="none" xmlns="http://www.w3.org/2000/svg">
<path d="M18.5 3C17.6716 3 17 3.67157 17 4.5V17.5C17 17.7761 17.2239 18 17.5 18H19.5C19.7761 18 20 17.7761 20 17.5V4.5C20 3.67157 19.3284 3 18.5 3Z" fill="black"/>
<path d="M1.5 4C1.77614 4 2 4.22386 2 4.5V21H21.5C21.7761 21 22 21.2239 22 21.5C22 21.7761 21.7761 22 21.5 22H1V4.5C1 4.22386 1.22386 4 1.5 4Z" fill="black"/>
<path d="M12.5 7C11.6716 7 11 7.67157 11 8.5V17.5C11 17.7761 11.2239 18 11.5 18H13.5C13.7761 18 14 17.7761 14 17.5V8.5C14 7.67157 13.3284 7 12.5 7Z" fill="black"/>
<path d="M6.5 11C5.67157 11 5 11.6716 5 12.5V17.5C5 17.7761 5.22386 18 5.5 18H7.5C7.77614 18 8 17.7761 8 17.5V12.5C8 11.6716 7.32843 11 6.5 11Z" fill="black"/>
</svg>
