<svg width="16" height="16" viewBox="0 0 16 16" fill="none" xmlns="http://www.w3.org/2000/svg">
<g opacity="0.9">
<path d="M9.97436 3.65825C10.0617 3.39628 9.9201 3.11312 9.65813 3.02579C9.39616 2.93847 9.113 3.08005 9.02567 3.34202L6.02567 12.342C5.93835 12.604 6.07993 12.8872 6.3419 12.9745C6.60387 13.0618 6.88703 12.9202 6.97436 12.6582L9.97436 3.65825Z" fill="black"/>
<path d="M3.74282 3.06301C3.98421 3.19712 4.07119 3.50152 3.93708 3.74291L1.57198 8.00009L3.93708 12.2573C4.07119 12.4987 3.98421 12.8031 3.74282 12.9372C3.50143 13.0713 3.19703 12.9843 3.06292 12.7429L0.562921 8.24291C0.479026 8.0919 0.479026 7.90828 0.562921 7.75727L3.06292 3.25727C3.19703 3.01588 3.50143 2.92891 3.74282 3.06301Z" fill="black"/>
<path d="M12.2572 3.06301C12.0158 3.19712 11.9288 3.50152 12.0629 3.74291L14.428 8.00009L12.0629 12.2573C11.9288 12.4987 12.0158 12.8031 12.2572 12.9372C12.4986 13.0713 12.803 12.9843 12.9371 12.7429L15.4371 8.24291C15.521 8.0919 15.521 7.90828 15.4371 7.75727L12.9371 3.25727C12.803 3.01588 12.4986 2.92891 12.2572 3.06301Z" fill="black"/>
</g>
</svg>
