<svg width="32" height="32" viewBox="0 0 32 32" fill="none" xmlns="http://www.w3.org/2000/svg">
<g opacity="0.9">
<path d="M9.75351 7.06911C9.99153 7.20912 10.071 7.51557 9.93097 7.75359L5.08009 16.0001L9.93097 24.2466C10.071 24.4846 9.99153 24.791 9.75351 24.931C9.51549 25.0711 9.20904 24.9916 9.06903 24.7536L4.06903 16.2536C3.97699 16.0971 3.97699 15.903 4.06903 15.7466L9.06903 7.24657C9.20904 7.00855 9.51549 6.9291 9.75351 7.06911Z" fill="black"/>
<path d="M22.2465 7.06911C22.0085 7.20912 21.929 7.51557 22.069 7.75359L26.9199 16.0001L22.069 24.2466C21.929 24.4846 22.0085 24.791 22.2465 24.931C22.4845 25.0711 22.791 24.9916 22.931 24.7536L27.931 16.2536C28.023 16.0971 28.023 15.903 27.931 15.7466L22.931 7.24657C22.791 7.00855 22.4845 6.9291 22.2465 7.06911Z" fill="black"/>
<path d="M18.9797 7.64121C19.0576 7.37629 18.906 7.09837 18.6411 7.02045C18.3762 6.94253 18.0982 7.09413 18.0203 7.35905L13.0203 24.359C12.9424 24.624 13.094 24.9019 13.3589 24.9798C13.6238 25.0577 13.9018 24.9061 13.9797 24.6412L18.9797 7.64121Z" fill="black"/>
</g>
</svg>
