<svg width="32" height="32" viewBox="0 0 32 32" fill="none" xmlns="http://www.w3.org/2000/svg">
<g opacity="0.9">
<path d="M4 7C4 6.44772 4.44772 6 5 6H27C27.5523 6 28 6.44772 28 7C28 7.55228 27.5523 8 27 8H5C4.44772 8 4 7.55228 4 7Z" fill="black"/>
<path d="M4 16C4 15.4477 4.44772 15 5 15H27C27.5523 15 28 15.4477 28 16C28 16.5523 27.5523 17 27 17H5C4.44772 17 4 16.5523 4 16Z" fill="black"/>
<path d="M4 25C4 24.4477 4.44772 24 5 24H27C27.5523 24 28 24.4477 28 25C28 25.5523 27.5523 26 27 26H5C4.44772 26 4 25.5523 4 25Z" fill="black"/>
</g>
</svg>
