<svg width="32" height="32" viewBox="0 0 32 32" fill="none" xmlns="http://www.w3.org/2000/svg">
<path opacity="0.9" fill-rule="evenodd" clip-rule="evenodd" d="M19.0005 16C20.2147 15.0878 21 13.6356 21 12C21 9.23858 18.7614 7 16 7C13.2386 7 11 9.23858 11 12C11 13.6356 11.7853 15.0878 12.9995 16H12.5C8.91015 16 6 18.9101 6 22.5V26.5C6 26.7761 6.22386 27 6.5 27C6.77614 27 7 26.7761 7 26.5V22.5C7 19.4624 9.46243 17 12.5 17H19.5C22.5376 17 25 19.4624 25 22.5V26.5C25 26.7761 25.2239 27 25.5 27C25.7761 27 26 26.7761 26 26.5V22.5C26 18.9102 23.0899 16 19.5 16H19.0005ZM12 12C12 9.79086 13.7909 8 16 8C18.2091 8 20 9.79086 20 12C20 14.2091 18.2091 16 16 16C13.7909 16 12 14.2091 12 12Z" fill="black"/>
</svg>
