<svg width="16" height="16" viewBox="0 0 16 16" fill="none" xmlns="http://www.w3.org/2000/svg">
<path opacity="0.9" fill-rule="evenodd" clip-rule="evenodd" d="M10.176 8.06522C10.6867 7.52733 11 6.80026 11 6C11 4.34315 9.65685 3 8 3C6.34315 3 5 4.34315 5 6C5 6.80026 5.31334 7.52733 5.82402 8.06523C4.2145 8.38017 3 9.79825 3 11.5V13.5C3 13.7761 3.22386 14 3.5 14C3.77614 14 4 13.7761 4 13.5V11.5C4 10.1193 5.11929 9 6.5 9H9.5C10.8807 9 12 10.1193 12 11.5V13.5C12 13.7761 12.2239 14 12.5 14C12.7761 14 13 13.7761 13 13.5V11.5C13 9.79825 11.7855 8.38017 10.176 8.06522ZM10 6C10 7.10457 9.10457 8 8 8C6.89543 8 6 7.10457 6 6C6 4.89543 6.89543 4 8 4C9.10457 4 10 4.89543 10 6Z" fill="black"/>
</svg>
