<svg width="24" height="24" viewBox="0 0 24 24" fill="none" xmlns="http://www.w3.org/2000/svg">
<path opacity="0.9" d="M21.0177 3.70386C21.0177 3.42771 20.7939 3.20386 20.5177 3.20386C20.2416 3.20386 20.0177 3.42771 20.0177 3.70386V7.19383L18.3474 5.745C18.3355 5.73465 18.3232 5.72496 18.3106 5.71593C14.8251 2.33485 9.25856 2.36716 5.81285 5.81287C2.33452 9.2912 2.33452 14.9307 5.81285 18.409C9.29118 21.8873 14.9307 21.8873 18.409 18.409C18.6043 18.2138 18.6043 17.8972 18.409 17.7019C18.2137 17.5066 17.8971 17.5066 17.7019 17.7019C14.6141 20.7897 9.60776 20.7897 6.51996 17.7019C3.43215 14.6141 3.43215 9.60778 6.51996 6.51998C9.60776 3.43217 14.6141 3.43217 17.7019 6.51998C17.7344 6.55251 17.7703 6.57963 17.8085 6.60132L19.1782 7.78938L15.9322 7.78935C15.656 7.78935 15.4322 8.0132 15.4322 8.28934C15.4322 8.56549 15.656 8.78935 15.9322 8.78935L20.5177 8.7894C20.6503 8.7894 20.7775 8.73672 20.8713 8.64295C20.9651 8.54918 21.0177 8.422 21.0177 8.2894V3.70386Z" fill="black"/>
</svg>
