<svg width="32" height="32" viewBox="0 0 32 32" fill="none" xmlns="http://www.w3.org/2000/svg">
<path fill-rule="evenodd" clip-rule="evenodd" d="M7.24808 16.8324C6.65434 16.4366 6.65434 15.5641 7.24808 15.1683L13.4453 11.0368C14.1099 10.5938 15 11.0702 15 11.8689V15.4024C15.0661 15.314 15.1488 15.2345 15.2481 15.1683L21.4453 11.0368C22.1099 10.5938 23 11.0702 23 11.8689V20.1318C23 20.9305 22.1099 21.4069 21.4453 20.9639L15.2481 16.8324C15.1488 16.7662 15.0661 16.6867 15 16.5983V20.1318C15 20.9305 14.1099 21.4069 13.4453 20.9639L7.24808 16.8324ZM14 20.1318L7.80278 16.0004L14 11.8689V20.1318ZM22 20.1318L15.8028 16.0004L22 11.8689V20.1318Z" fill="black"/>
<path fill-rule="evenodd" clip-rule="evenodd" d="M28 16C28 22.6274 22.6274 28 16 28C9.37258 28 4 22.6274 4 16C4 9.37258 9.37258 4 16 4C22.6274 4 28 9.37258 28 16ZM27 16C27 22.0751 22.0751 27 16 27C9.92487 27 5 22.0751 5 16C5 9.92487 9.92487 5 16 5C22.0751 5 27 9.92487 27 16Z" fill="black"/>
</svg>
