<svg width="16" height="16" viewBox="0 0 16 16" fill="none" xmlns="http://www.w3.org/2000/svg">
<path fill-rule="evenodd" clip-rule="evenodd" d="M15 8C15 11.866 11.866 15 8 15C4.13401 15 1 11.866 1 8C1 4.13401 4.13401 1 8 1C11.866 1 15 4.13401 15 8ZM8 8.8L10.3753 10.7002C11.0301 11.2241 12 10.7579 12 9.91938V6.08062C12 5.24212 11.0301 4.77595 10.3753 5.29976L8 7.2V6.08062C8 5.24212 7.03007 4.77595 6.3753 5.29976L3.97609 7.21913C3.47568 7.61946 3.47568 8.38054 3.97609 8.78087L6.3753 10.7002C7.03007 11.2241 8 10.7579 8 9.91938V8.8Z" fill="black"/>
</svg>
