<svg width="16" height="16" viewBox="0 0 16 16" fill="none" xmlns="http://www.w3.org/2000/svg">
<path fill-rule="evenodd" clip-rule="evenodd" d="M11 9.91937L8.60078 8L11 6.08062V9.91937ZM7.97609 8.78087C7.47568 8.38054 7.47568 7.61946 7.97609 7.21913L10.3753 5.29976C11.0301 4.77595 12 5.24212 12 6.08062V9.91938C12 10.7579 11.0301 11.2241 10.3753 10.7002L7.97609 8.78087Z" fill="black"/>
<path fill-rule="evenodd" clip-rule="evenodd" d="M7 9.91937L4.60078 8L7 6.08062L7 9.91937ZM3.97609 8.78087C3.47568 8.38054 3.47568 7.61946 3.97609 7.21913L6.37531 5.29976C7.03007 4.77595 8 5.24212 8 6.08062V9.91938C8 10.7579 7.03007 11.2241 6.3753 10.7002L3.97609 8.78087Z" fill="black"/>
<path fill-rule="evenodd" clip-rule="evenodd" d="M8 14C11.3137 14 14 11.3137 14 8C14 4.68629 11.3137 2 8 2C4.68629 2 2 4.68629 2 8C2 11.3137 4.68629 14 8 14ZM8 15C11.866 15 15 11.866 15 8C15 4.13401 11.866 1 8 1C4.13401 1 1 4.13401 1 8C1 11.866 4.13401 15 8 15Z" fill="black"/>
</svg>
