<svg width="32" height="32" viewBox="0 0 32 32" fill="none" xmlns="http://www.w3.org/2000/svg">
<path fill-rule="evenodd" clip-rule="evenodd" d="M28 16C28 22.6274 22.6274 28 16 28C9.37258 28 4 22.6274 4 16C4 9.37258 9.37258 4 16 4C22.6274 4 28 9.37258 28 16ZM15.2481 16.8321L21.4453 20.9635C22.1099 21.4066 23 20.9302 23 20.1315V11.8685C23 11.0698 22.1099 10.5934 21.4453 11.0365L15.2481 15.1679C15.1488 15.2341 15.0661 15.3137 15 15.4021V11.8685C15 11.0698 14.1099 10.5934 13.4453 11.0365L7.24808 15.1679C6.65434 15.5638 6.65434 16.4362 7.24808 16.8321L13.4453 20.9635C14.1099 21.4066 15 20.9302 15 20.1315V16.5979C15.0661 16.6863 15.1488 16.7659 15.2481 16.8321Z" fill="black"/>
</svg>
