<svg width="24" height="24" viewBox="0 0 24 24" fill="none" xmlns="http://www.w3.org/2000/svg">
<path fill-rule="evenodd" clip-rule="evenodd" d="M6.13923 12.8137C5.58088 12.4149 5.58088 11.5851 6.13923 11.1863L10.4188 8.12946C11.0806 7.65669 12 8.12982 12 8.94319V11.3059C12.0417 11.2628 12.0881 11.2228 12.1392 11.1863L16.4188 8.12946C17.0806 7.65669 18 8.12982 18 8.94319V15.0568C18 15.8702 17.0806 16.3433 16.4188 15.8705L12.1392 12.8137C12.0881 12.7772 12.0417 12.7372 12 12.6941V15.0568C12 15.8702 11.0806 16.3433 10.4188 15.8705L6.13923 12.8137ZM11 15.0568L6.72046 12L11 8.94319V15.0568ZM17 15.0568L12.7205 12L17 8.94319V15.0568Z" fill="black"/>
<path fill-rule="evenodd" clip-rule="evenodd" d="M22 12C22 17.5228 17.5228 22 12 22C6.47715 22 2 17.5228 2 12C2 6.47715 6.47715 2 12 2C17.5228 2 22 6.47715 22 12ZM21 12C21 16.9706 16.9706 21 12 21C7.02944 21 3 16.9706 3 12C3 7.02944 7.02944 3 12 3C16.9706 3 21 7.02944 21 12Z" fill="black"/>
</svg>
