<svg width="16" height="16" viewBox="0 0 16 16" fill="none" xmlns="http://www.w3.org/2000/svg">
<path opacity="0.9" fill-rule="evenodd" clip-rule="evenodd" d="M6.9926 0.635875C7.46548 -0.0947695 8.53453 -0.0947716 9.00742 0.635874L10.1781 2.4446C10.2232 2.51431 10.3067 2.54889 10.3878 2.5315L12.4946 2.08031C13.3456 1.89805 14.1015 2.65397 13.9193 3.505L13.4681 5.61174C13.4507 5.69292 13.4853 5.77641 13.555 5.82152L15.3637 6.99217C16.0944 7.46506 16.0944 8.5341 15.3637 9.00699L13.555 10.1776C13.4853 10.2227 13.4507 10.3062 13.4681 10.3874L13.9193 12.4942C14.1015 13.3452 13.3456 14.1011 12.4946 13.9189L10.3878 13.4677C10.3067 13.4503 10.2232 13.4849 10.1781 13.5546L9.00742 15.3633C8.53453 16.0939 7.46549 16.0939 6.9926 15.3633L5.82195 13.5546C5.77684 13.4849 5.69335 13.4503 5.61216 13.4677L3.50543 13.9189C2.6544 14.1011 1.89847 13.3452 2.08073 12.4942L2.53193 10.3874C2.54931 10.3062 2.51473 10.2227 2.44503 10.1776L0.636302 9.00699C-0.0943425 8.5341 -0.0943442 7.46506 0.636301 6.99217L2.44503 5.82152C2.51473 5.77641 2.54931 5.69292 2.53193 5.61174L2.08073 3.505C1.89847 2.65397 2.6544 1.89805 3.50543 2.08031L5.61216 2.5315C5.69335 2.54889 5.77684 2.51431 5.82195 2.4446L6.9926 0.635875ZM9 5.50001C9 5.29778 8.87818 5.11547 8.69134 5.03807C8.5045 4.96068 8.28945 5.00346 8.14645 5.14646L6.14645 7.14646C5.95118 7.34172 5.95118 7.65831 6.14645 7.85357C6.34171 8.04883 6.65829 8.04883 6.85355 7.85357L8 6.70712V10.5C8 10.7762 8.22386 11 8.5 11C8.77614 11 9 10.7762 9 10.5V5.50001Z" fill="black"/>
</svg>
