<svg width="16" height="16" viewBox="0 0 16 16" fill="none" xmlns="http://www.w3.org/2000/svg">
<g opacity="0.9">
<path d="M9 5.50001C9 5.29778 8.87818 5.11547 8.69134 5.03807C8.5045 4.96068 8.28945 5.00346 8.14645 5.14646L6.14645 7.14646C5.95118 7.34172 5.95118 7.65831 6.14645 7.85357C6.34171 8.04883 6.65829 8.04883 6.85355 7.85357L8 6.70712V10.5C8 10.7762 8.22386 11 8.5 11C8.77614 11 9 10.7762 9 10.5V5.50001Z" fill="black"/>
<path fill-rule="evenodd" clip-rule="evenodd" d="M9.00742 0.635874C8.53453 -0.0947716 7.46548 -0.0947695 6.9926 0.635875L5.82195 2.4446C5.77684 2.51431 5.69335 2.54889 5.61216 2.5315L3.50543 2.08031C2.6544 1.89805 1.89847 2.65397 2.08073 3.505L2.53193 5.61174C2.54931 5.69292 2.51473 5.77641 2.44503 5.82152L0.636301 6.99217C-0.0943442 7.46506 -0.0943425 8.5341 0.636302 9.00699L2.44503 10.1776C2.51473 10.2227 2.54931 10.3062 2.53193 10.3874L2.08073 12.4942C1.89847 13.3452 2.6544 14.1011 3.50543 13.9189L5.61216 13.4677C5.69335 13.4503 5.77684 13.4849 5.82195 13.5546L6.9926 15.3633C7.46549 16.0939 8.53453 16.0939 9.00742 15.3633L10.1781 13.5546C10.2232 13.4849 10.3067 13.4503 10.3878 13.4677L12.4946 13.9189C13.3456 14.1011 14.1015 13.3452 13.9193 12.4942L13.4681 10.3874C13.4507 10.3062 13.4853 10.2227 13.555 10.1776L15.3637 9.00699C16.0944 8.5341 16.0944 7.46506 15.3637 6.99217L13.555 5.82152C13.4853 5.77641 13.4507 5.69292 13.4681 5.61174L13.9193 3.505C14.1015 2.65397 13.3456 1.89805 12.4946 2.08031L10.3878 2.5315C10.3067 2.54889 10.2232 2.51431 10.1781 2.4446L9.00742 0.635874ZM7.8321 1.17922C7.91092 1.05745 8.08909 1.05745 8.16791 1.17922L9.33856 2.98795C9.60923 3.40616 10.1101 3.61365 10.5973 3.50933L12.704 3.05813C12.8458 3.02776 12.9718 3.15374 12.9415 3.29558L12.4903 5.40232C12.3859 5.88944 12.5934 6.39035 13.0116 6.66103L14.8204 7.83168C14.9421 7.91049 14.9421 8.08867 14.8204 8.16748L13.0116 9.33813C12.5934 9.6088 12.3859 10.1097 12.4903 10.5968L12.9415 12.7036C12.9718 12.8454 12.8458 12.9714 12.704 12.941L10.5973 12.4898C10.1101 12.3855 9.60923 12.593 9.33856 13.0112L8.16791 14.8199C8.08909 14.9417 7.91092 14.9417 7.83211 14.8199L6.66146 13.0112C6.39078 12.593 5.88986 12.3855 5.40275 12.4898L3.29601 12.941C3.15417 12.9714 3.02818 12.8454 3.05856 12.7036L3.50975 10.5968C3.61408 10.1097 3.40659 9.6088 2.98838 9.33813L1.17965 8.16748C1.05787 8.08867 1.05787 7.91049 1.17965 7.83168L2.98838 6.66103C3.40659 6.39036 3.61408 5.88944 3.50975 5.40232L3.05856 3.29558C3.02818 3.15374 3.15417 3.02776 3.29601 3.05813L5.40275 3.50933C5.88986 3.61365 6.39078 3.40616 6.66146 2.98795L7.8321 1.17922Z" fill="black"/>
</g>
</svg>
