<svg width="32" height="32" viewBox="0 0 32 32" fill="none" xmlns="http://www.w3.org/2000/svg">
<g opacity="0.9">
<path fill-rule="evenodd" clip-rule="evenodd" d="M10.1429 23V26.3835L15.7204 23H25C26.1046 23 27 22.1046 27 21V10C27 8.89543 26.1046 8 25 8H7C5.89543 8 5 8.89543 5 10V21C5 22.1046 5.89543 23 7 23H10.1429ZM16 24H25C26.6569 24 28 22.6569 28 21V10C28 8.34315 26.6569 7 25 7H7C5.34315 7 4 8.34315 4 10V21C4 22.6569 5.34315 24 7 24H9.14286V26.3835C9.14286 27.163 9.99509 27.6428 10.6615 27.2385L16 24Z" fill="black"/>
<path fill-rule="evenodd" clip-rule="evenodd" d="M10.5 18C10.7761 18 11 17.7761 11 17.5C11 17.2239 10.7761 17 10.5 17C10.2239 17 10 17.2239 10 17.5C10 17.7761 10.2239 18 10.5 18ZM10.5 19C11.3284 19 12 18.3284 12 17.5C12 16.6716 11.3284 16 10.5 16C9.67157 16 9 16.6716 9 17.5C9 18.3284 9.67157 19 10.5 19Z" fill="black"/>
<path fill-rule="evenodd" clip-rule="evenodd" d="M16 18C16.2761 18 16.5 17.7761 16.5 17.5C16.5 17.2239 16.2761 17 16 17C15.7239 17 15.5 17.2239 15.5 17.5C15.5 17.7761 15.7239 18 16 18ZM16 19C16.8284 19 17.5 18.3284 17.5 17.5C17.5 16.6716 16.8284 16 16 16C15.1716 16 14.5 16.6716 14.5 17.5C14.5 18.3284 15.1716 19 16 19Z" fill="black"/>
<path fill-rule="evenodd" clip-rule="evenodd" d="M21.5 18C21.7761 18 22 17.7761 22 17.5C22 17.2239 21.7761 17 21.5 17C21.2239 17 21 17.2239 21 17.5C21 17.7761 21.2239 18 21.5 18ZM21.5 19C22.3284 19 23 18.3284 23 17.5C23 16.6716 22.3284 16 21.5 16C20.6716 16 20 16.6716 20 17.5C20 18.3284 20.6716 19 21.5 19Z" fill="black"/>
</g>
</svg>
