<svg width="32" height="32" viewBox="0 0 32 32" fill="none" xmlns="http://www.w3.org/2000/svg">
<path opacity="0.9" fill-rule="evenodd" clip-rule="evenodd" d="M10.8561 7.73801C11.1258 7.28068 11.6172 7 12.1481 7H19.8519C20.3828 7 20.8742 7.28068 21.1439 7.73802L22.3328 9.75399C22.4227 9.90644 22.5865 10 22.7635 10H26.5C27.3284 10 28 10.6716 28 11.5V23.4474C28 24.2758 27.3284 24.9474 26.5 24.9474H5.49999C4.67157 24.9474 3.99999 24.2758 3.99999 23.4474L3.99997 11.5C3.99997 10.6716 4.67154 10 5.49997 10H9.23646C9.41344 10 9.57724 9.90644 9.66714 9.754L10.8561 7.73801ZM20.5 17C20.5 19.4853 18.4853 21.5 16 21.5C13.5147 21.5 11.5 19.4853 11.5 17C11.5 14.5147 13.5147 12.5 16 12.5C18.4853 12.5 20.5 14.5147 20.5 17ZM25 14C25 14.5523 24.5523 15 24 15C23.4477 15 23 14.5523 23 14C23 13.4477 23.4477 13 24 13C24.5523 13 25 13.4477 25 14Z" fill="black"/>
</svg>
