<svg width="24" height="24" viewBox="0 0 24 24" fill="none" xmlns="http://www.w3.org/2000/svg">
<path opacity="0.9" fill-rule="evenodd" clip-rule="evenodd" d="M8.85394 4C8.37524 4 7.92529 4.22848 7.64285 4.61498L6.78052 5.79501C6.68638 5.92384 6.53639 6 6.37683 6H3.5C2.67157 6 2 6.67157 2 7.5V17.5C2 18.3284 2.67157 19 3.5 19H20.5C21.3284 19 22 18.3284 22 17.5V7.5C22 6.67157 21.3284 6 20.5 6H17.6232C17.4636 6 17.3136 5.92384 17.2195 5.79501L16.3571 4.61498C16.0747 4.22848 15.6248 4 15.1461 4H8.85394ZM15.5 12C15.5 13.933 13.933 15.5 12 15.5C10.067 15.5 8.5 13.933 8.5 12C8.5 10.067 10.067 8.5 12 8.5C13.933 8.5 15.5 10.067 15.5 12ZM18 11C18.5523 11 19 10.5523 19 10C19 9.44772 18.5523 9 18 9C17.4477 9 17 9.44772 17 10C17 10.5523 17.4477 11 18 11Z" fill="black"/>
</svg>
