<svg width="16" height="16" viewBox="0 0 16 16" fill="none" xmlns="http://www.w3.org/2000/svg">
<path opacity="0.9" fill-rule="evenodd" clip-rule="evenodd" d="M4.77639 2.82918C5.03048 2.321 5.54988 2 6.11803 2H9.88197C10.4501 2 10.9695 2.321 11.2236 2.82918L11.6708 3.72361C11.7555 3.893 11.9286 4 12.118 4H13.5C14.3284 4 15 4.67157 15 5.5V11.5C15 12.3284 14.3284 13 13.5 13H2.5C1.67157 13 1 12.3284 1 11.5V5.5C1 4.67157 1.67157 4 2.5 4H3.88197C4.07135 4 4.24448 3.893 4.32918 3.72361L4.77639 2.82918ZM8 10.5C9.38071 10.5 10.5 9.38071 10.5 8C10.5 6.61929 9.38071 5.5 8 5.5C6.61929 5.5 5.5 6.61929 5.5 8C5.5 9.38071 6.61929 10.5 8 10.5Z" fill="black"/>
</svg>
