<svg width="24" height="24" viewBox="0 0 24 24" fill="none" xmlns="http://www.w3.org/2000/svg">
<path opacity="0.9" fill-rule="evenodd" clip-rule="evenodd" d="M6 5.5C6 3.567 7.567 2 9.5 2H14.5C16.433 2 18 3.567 18 5.5V9C19.6569 9 21 10.3431 21 12V20C21 21.1046 20.1046 22 19 22H5C3.89543 22 3 21.1046 3 20V12C3 10.3431 4.34315 9 6 9V5.5ZM17 5.5V9H7V5.5C7 4.11929 8.11929 3 9.5 3H14.5C15.8807 3 17 4.11929 17 5.5ZM13.5 14.5C13.5 15.0552 13.1984 15.54 12.75 15.7993V16.75C12.75 17.1642 12.4142 17.5 12 17.5C11.5858 17.5 11.25 17.1642 11.25 16.75V15.7993C10.8016 15.54 10.5 15.0552 10.5 14.5C10.5 13.6716 11.1716 13 12 13C12.8284 13 13.5 13.6716 13.5 14.5Z" fill="black"/>
</svg>
