<svg width="16" height="16" viewBox="0 0 16 16" fill="none" xmlns="http://www.w3.org/2000/svg">
<g opacity="0.9">
<path d="M9.14645 7.64645C9.34171 7.45118 9.65829 7.45118 9.85355 7.64645C10.0488 7.84171 10.0488 8.15829 9.85355 8.35355L7.5 10.7071L5.14645 8.35355C4.95118 8.15829 4.95118 7.84171 5.14645 7.64645C5.34171 7.45118 5.65829 7.45118 5.85355 7.64645L7 8.79289V1.5C7 1.22386 7.22386 1 7.5 1C7.77614 1 8 1.22386 8 1.5V8.79289L9.14645 7.64645Z" fill="black"/>
<path d="M2 8.50008C2 8.22393 1.77614 8.00008 1.5 8.00008C1.22386 8.00008 1 8.22393 1 8.50008V11.5001C1 12.8808 2.11929 14.0001 3.5 14.0001H11.5C12.8807 14.0001 14 12.8808 14 11.5001V8.50008C14 8.22393 13.7761 8.00008 13.5 8.00008C13.2239 8.00008 13 8.22393 13 8.50008V11.5001C13 12.3285 12.3284 13.0001 11.5 13.0001H3.5C2.67157 13.0001 2 12.3285 2 11.5001V8.50008Z" fill="black"/>
</g>
</svg>
