<svg width="16" height="16" viewBox="0 0 16 16" fill="none" xmlns="http://www.w3.org/2000/svg">
<g opacity="0.9">
<path d="M9.14645 7.64632C9.34171 7.45106 9.65829 7.45106 9.85355 7.64632C10.0488 7.84159 10.0488 8.15817 9.85355 8.35343L7.5 10.707L5.14645 8.35343C4.95118 8.15817 4.95118 7.84159 5.14645 7.64632C5.34171 7.45106 5.65829 7.45106 5.85355 7.64632L7 8.79277V1.49988C7 1.22374 7.22386 0.999878 7.5 0.999878C7.77614 0.999878 8 1.22374 8 1.49988V8.79277L9.14645 7.64632Z" fill="black"/>
<path d="M2 8.49995C2 8.22381 1.77614 7.99995 1.5 7.99995C1.22386 7.99995 1 8.22381 1 8.49995V11.5C1 12.8807 2.11929 14 3.5 14H11.5C12.8807 14 14 12.8807 14 11.5V8.49995C14 8.22381 13.7761 7.99995 13.5 7.99995C13.2239 7.99995 13 8.22381 13 8.49995V11.5C13 12.3284 12.3284 13 11.5 13H3.5C2.67157 13 2 12.3284 2 11.5V8.49995Z" fill="black"/>
</g>
</svg>
