<svg width="24" height="24" viewBox="0 0 24 24" fill="none" xmlns="http://www.w3.org/2000/svg">
<path opacity="0.9" fill-rule="evenodd" clip-rule="evenodd" d="M2 12C2 6.47715 6.47715 2 12 2C17.5228 2 22 6.47715 22 12C22 17.5228 17.5228 22 12 22C6.47715 22 2 17.5228 2 12ZM8.05324 15.9184C9.09999 16.9311 10.5197 17.5 12 17.5C13.4803 17.5 14.9 16.9311 15.9468 15.9184C16.3791 15.5001 16.7333 15.0202 17 14.5H7C7.26673 15.0202 7.62085 15.5001 8.05324 15.9184ZM10 9.5C10 10.3284 9.32843 11 8.5 11C7.67157 11 7 10.3284 7 9.5C7 8.67157 7.67157 8 8.5 8C9.32843 8 10 8.67157 10 9.5ZM15.5 11C16.3284 11 17 10.3284 17 9.5C17 8.67157 16.3284 8 15.5 8C14.6716 8 14 8.67157 14 9.5C14 10.3284 14.6716 11 15.5 11Z" fill="black"/>
</svg>
