<svg width="16" height="16" viewBox="0 0 16 16" fill="none" xmlns="http://www.w3.org/2000/svg">
<path opacity="0.9" fill-rule="evenodd" clip-rule="evenodd" d="M1 8C1 4.13401 4.13401 1 8 1C11.866 1 15 4.13401 15 8C15 11.866 11.866 15 8 15C4.13401 15 1 11.866 1 8ZM5.23727 10.3556C5.96999 11.0884 6.96377 11.5 8 11.5C9.03622 11.5 10.03 11.0884 10.7627 10.3556C10.8305 10.2879 10.8955 10.2265 10.9576 10.1677C11.1733 9.96392 11.3551 9.79211 11.5 9.5H4.5C4.64491 9.7921 4.82668 9.96388 5.0423 10.1677C5.10449 10.2264 5.16952 10.2879 5.23727 10.3556ZM6.5 6C6.5 6.55228 6.05228 7 5.5 7C4.94772 7 4.5 6.55228 4.5 6C4.5 5.44772 4.94772 5 5.5 5C6.05228 5 6.5 5.44772 6.5 6ZM10.5 7C11.0523 7 11.5 6.55228 11.5 6C11.5 5.44772 11.0523 5 10.5 5C9.94771 5 9.5 5.44772 9.5 6C9.5 6.55228 9.94771 7 10.5 7Z" fill="black"/>
</svg>
