<svg width="25" height="24" viewBox="0 0 25 24" fill="none" xmlns="http://www.w3.org/2000/svg">
<path opacity="0.9" fill-rule="evenodd" clip-rule="evenodd" d="M19.765 16.9762C19.5237 16.992 19.2803 17.0001 19.0352 17.0001C12.96 17.0001 8.03516 12.0752 8.03516 6.00006C8.03516 5.07 8.15079 4.16618 8.36858 3.30256C5.77013 4.88135 4.03516 7.73894 4.03516 11.0001C4.03516 15.9706 8.06459 20.0001 13.0352 20.0001C15.7113 20.0001 18.1156 18.8322 19.765 16.9762ZM20.5998 15.8784C20.09 15.9585 19.5675 16.0001 19.0352 16.0001C13.5123 16.0001 9.03516 11.5229 9.03516 6.00006C9.03516 4.8357 9.23416 3.71782 9.6 2.67856C9.7521 2.24649 9.93305 1.828 10.1405 1.42542C9.68289 1.56358 9.2391 1.73366 8.81175 1.93306C5.3997 3.5251 3.03516 6.98645 3.03516 11.0001C3.03516 16.5229 7.51231 21.0001 13.0352 21.0001C16.4007 21.0001 19.3779 19.3375 21.1903 16.7888C21.4643 16.4035 21.7117 15.9979 21.9298 15.5747C21.4981 15.7051 21.054 15.807 20.5998 15.8784Z" fill="black"/>
</svg>
