<svg width="33" height="32" viewBox="0 0 33 32" fill="none" xmlns="http://www.w3.org/2000/svg">
<path opacity="0.9" fill-rule="evenodd" clip-rule="evenodd" d="M25.3396 21.8706C24.7501 21.9559 24.1476 22 23.5352 22C16.6316 22 11.0352 16.4035 11.0352 9.49998C11.0352 8.26936 11.2133 7.07926 11.5453 5.95468C7.70814 7.67238 5.03516 11.5249 5.03516 16C5.03516 22.0751 9.96002 27 16.0352 27C19.9506 27 23.39 24.954 25.3396 21.8706ZM25.9631 20.7432C25.1804 20.9114 24.3681 21 23.5352 21C17.1839 21 12.0352 15.8513 12.0352 9.49998C12.0352 8.09282 12.2879 6.74468 12.7505 5.49849C12.9002 5.09498 13.072 4.70215 13.2643 4.32147C12.8302 4.42407 12.4053 4.55025 11.9908 4.69857C7.35323 6.35837 4.03516 10.7917 4.03516 16C4.03516 22.6274 9.40774 28 16.0352 28C20.6362 28 24.6324 25.4106 26.646 21.6096C26.8526 21.2197 27.0382 20.817 27.2016 20.4032C26.7983 20.5387 26.385 20.6525 25.9631 20.7432Z" fill="black"/>
</svg>
