<svg width="32" height="32" viewBox="0 0 32 32" fill="none" xmlns="http://www.w3.org/2000/svg">
<path d="M18.5 16C18.5 17.861 17.8222 19.5636 16.7001 20.8746C17.846 21.8862 19.3513 22.5 21 22.5C24.5899 22.5 27.5 19.5899 27.5 16C27.5 12.4101 24.5899 9.5 21 9.5C19.3513 9.5 17.846 10.1138 16.7001 11.1254C17.8222 12.4364 18.5 14.139 18.5 16Z" fill="black"/>
<path d="M16 11.8464C15.0633 12.9727 14.5 14.4206 14.5 16C14.5 17.5794 15.0633 19.0273 16 20.1536C16.9367 19.0273 17.5 17.5794 17.5 16C17.5 14.4206 16.9367 12.9727 16 11.8464Z" fill="black"/>
<path d="M15.2999 11.1254C14.154 10.1138 12.6487 9.5 11 9.5C7.41015 9.5 4.5 12.4101 4.5 16C4.5 19.5899 7.41015 22.5 11 22.5C12.6487 22.5 14.154 21.8862 15.2999 20.8746C14.1778 19.5636 13.5 17.861 13.5 16C13.5 14.139 14.1778 12.4364 15.2999 11.1254Z" fill="black"/>
</svg>
