<svg width="32" height="32" viewBox="0 0 32 32" fill="none" xmlns="http://www.w3.org/2000/svg">
<path fill-rule="evenodd" clip-rule="evenodd" d="M11 9C7.13401 9 4 12.134 4 16C4 19.866 7.13401 23 11 23C12.9587 23 14.7295 22.1955 16 20.899C17.2705 22.1955 19.0413 23 21 23C24.866 23 28 19.866 28 16C28 12.134 24.866 9 21 9C19.0413 9 17.2705 9.80447 16 11.101C14.7295 9.80447 12.9587 9 11 9ZM15.3497 11.8671C14.2565 10.717 12.712 10 11 10C7.68629 10 5 12.6863 5 16C5 19.3137 7.68629 22 11 22C12.712 22 14.2565 21.283 15.3497 20.1329C14.5011 18.9746 14 17.5458 14 16C14 14.4542 14.5011 13.0254 15.3497 11.8671ZM16 19.3178C15.3682 18.3675 15 17.2267 15 16C15 14.7733 15.3682 13.6325 16 12.6822C16.6318 13.6325 17 14.7733 17 16C17 17.2267 16.6318 18.3675 16 19.3178ZM16.6503 20.1329C17.4989 18.9746 18 17.5458 18 16C18 14.4542 17.4989 13.0254 16.6503 11.8671C17.7435 10.717 19.288 10 21 10C24.3137 10 27 12.6863 27 16C27 19.3137 24.3137 22 21 22C19.288 22 17.7435 21.283 16.6503 20.1329Z" fill="black"/>
</svg>
