<svg width="16" height="16" viewBox="0 0 16 16" fill="none" xmlns="http://www.w3.org/2000/svg">
<path opacity="0.9" fill-rule="evenodd" clip-rule="evenodd" d="M2.40102 2.70771C3.85263 1.6432 5.8338 1 8 1C10.1662 1 12.1474 1.6432 13.599 2.70771C15.0503 3.77201 16 5.28366 16 7C16 10.7996 13.2611 13.427 8.74098 15.9133C8.58608 15.9985 8.3977 15.9956 8.24553 15.9056C8.09335 15.8157 8 15.652 8 15.4752V13C5.8338 13 3.85263 12.3568 2.40102 11.2923C0.949702 10.228 0 8.71634 0 7C0 5.28366 0.949702 3.77201 2.40102 2.70771ZM7.41327 3.40688L6.11945 7.61177C6.0601 7.80469 6.20435 8 6.40619 8H7.7C7.86569 8 8 8.13431 8 8.3V10.5049C8 10.8492 8.48547 10.9222 8.58673 10.5931L9.88055 6.38823C9.93991 6.19531 9.79565 6 9.59381 6H8.3C8.13431 6 8 5.86569 8 5.7V3.49511C8 3.15076 7.51453 3.07776 7.41327 3.40688Z" fill="black"/>
</svg>
