<svg width="24" height="24" viewBox="0 0 24 24" fill="none" xmlns="http://www.w3.org/2000/svg">
<path opacity="0.9" fill-rule="evenodd" clip-rule="evenodd" d="M4.9868 5.13729C6.80034 3.80736 9.28151 3 12 3C14.7185 3 17.1997 3.80736 19.0132 5.13729C20.8264 6.467 22 8.34532 22 10.4667C22 15.1996 18.5945 18.4937 12.8743 21.6401C12.7194 21.7253 12.531 21.7223 12.3789 21.6324C12.2267 21.5424 12.1333 21.3787 12.1333 21.202V17.9327C12.089 17.9331 12.0445 17.9333 12 17.9333C9.28151 17.9333 6.80034 17.126 4.9868 15.796C3.17356 14.4663 2 12.588 2 10.4667C2 8.34532 3.17356 6.467 4.9868 5.13729ZM11.4276 5.74017L9.19649 10.5743C9.10474 10.7731 9.24994 11 9.46887 11H11.7C11.8657 11 12 11.1343 12 11.3V14.1341C12 14.4558 12.4376 14.5519 12.5724 14.2598L14.8035 9.42572C14.8953 9.22693 14.7501 9 14.5311 9H12.3C12.1343 9 12 8.86569 12 8.7V5.86589C12 5.54421 11.5624 5.4481 11.4276 5.74017Z" fill="black"/>
</svg>
