<svg width="16" height="16" viewBox="0 0 16 16" fill="none" xmlns="http://www.w3.org/2000/svg">
<g opacity="0.9">
<path d="M7.42146 4.44675L6.16458 7.58898C6.08575 7.78604 6.23088 8.00039 6.44312 8.00039H7.70001C7.86569 8.00039 8.00001 8.13471 8.00001 8.30039V9.79754C8.00001 10.1332 8.46723 10.2155 8.58195 9.90006L9.85364 6.40292C9.92478 6.20726 9.77989 6.00039 9.5717 6.00039H8.30001C8.13432 6.00039 8.00001 5.86608 8.00001 5.70039V4.55817C8.00001 4.22785 7.54414 4.14006 7.42146 4.44675Z" fill="black"/>
<path fill-rule="evenodd" clip-rule="evenodd" d="M8 1C5.8338 1 3.85263 1.6432 2.40102 2.70771C0.949702 3.77201 0 5.28366 0 7C0 8.71634 0.949702 10.228 2.40102 11.2923C3.85263 12.3568 5.8338 13 8 13V15.4752C8 15.652 8.09335 15.8157 8.24553 15.9056C8.3977 15.9956 8.58608 15.9985 8.74098 15.9133C13.2611 13.427 16 10.7996 16 7C16 5.28366 15.0503 3.77201 13.599 2.70771C12.1474 1.6432 10.1662 1 8 1ZM1 7C1 5.67877 1.72923 4.44043 2.99238 3.51412C4.25524 2.58802 6.02407 2 8 2C9.97593 2 11.7448 2.58802 13.0076 3.51412C14.2708 4.44043 15 5.67877 15 7C15 10.0189 12.9881 12.3011 9 14.6185V12.488C9 12.3512 8.94396 12.2204 8.84493 12.126C8.7459 12.0316 8.61253 11.982 8.47589 11.9886C8.31866 11.9961 8.15998 12 8 12C6.02407 12 4.25524 11.412 2.99238 10.4859C1.72923 9.55957 1 8.32123 1 7Z" fill="black"/>
</g>
</svg>
