<svg width="16" height="16" viewBox="0 0 16 16" fill="none" xmlns="http://www.w3.org/2000/svg">
<path opacity="0.9" fill-rule="evenodd" clip-rule="evenodd" d="M1 3C1 1.89543 1.89543 1 3 1H13C14.1046 1 15 1.89543 15 3V13C15 14.1046 14.1046 15 13 15H3C1.89543 15 1 14.1046 1 13V3ZM3 2H13C13.5523 2 14 2.44772 14 3V6.22554L9.4624 9.1131C9.32411 9.04085 9.16683 9 9 9C8.79635 9 8.60691 9.06088 8.4489 9.16543L5.99824 7.9401C5.96725 7.4157 5.53217 7 5 7C4.44772 7 4 7.44772 4 8C4 8.0629 4.00581 8.12444 4.01691 8.18412L2 9.9129V3C2 2.44772 2.44772 2 3 2ZM4.66763 8.94344L2 11.23V13C2 13.5523 2.44772 14 3 14H13C13.5523 14 14 13.5523 14 13V7.41084L9.99909 9.95688C9.99969 9.97118 10 9.98555 10 10C10 10.5523 9.55229 11 9 11C8.46782 11 8.03274 10.5843 8.00176 10.0599L5.55111 8.83457C5.39309 8.93912 5.20366 9 5 9C4.88348 9 4.77162 8.98007 4.66763 8.94344Z" fill="black"/>
</svg>
