<svg width="24" height="25" viewBox="0 0 24 25" fill="none" xmlns="http://www.w3.org/2000/svg">
<g opacity="0.9">
<path d="M6.87395 6.71938C7.32434 7.06625 7.85762 7.18684 8.37322 7.12111L9.69493 10.4658C10.0103 10.3011 10.3152 10.1789 10.6558 10.0893L9.33404 6.7446C9.47906 6.62497 9.62408 6.50533 9.75409 6.35859C10.4482 5.45746 10.2951 4.1701 9.39534 3.47576C8.49552 2.78148 7.20379 2.95624 6.5152 3.83655C5.79939 4.73266 5.97895 6.0041 6.87395 6.71938Z" fill="black"/>
<path d="M20.291 11.1985C19.4385 11.4233 18.8377 12.1455 18.7549 12.962L16.2144 13.323C16.2088 13.3438 16.2296 13.3493 16.2238 13.3709C16.2979 13.6854 16.3455 14.0152 16.3509 14.3336L18.8858 13.9934C19.2728 14.9126 20.2666 15.4282 21.2567 15.1949C22.3691 14.9267 23.0296 13.8127 22.7625 12.6985C22.4897 11.606 21.3825 10.9247 20.291 11.1985Z" fill="black"/>
<path d="M3.71352 21.8895C4.80511 21.6158 5.48709 20.5075 5.21929 19.3932C5.20986 19.3452 5.19391 19.3187 5.16295 19.265L8.02086 17.4701C7.79721 17.2063 7.62721 16.9115 7.4628 16.5959L4.62734 18.3959C4.13656 17.9474 3.42463 17.7335 2.74249 17.9131C1.65089 18.1869 0.968912 19.2952 1.23671 20.4095C1.50936 21.5028 2.622 22.1633 3.71352 21.8895Z" fill="black"/>
<path d="M8.2613 13.6154C8.76484 11.7362 10.6946 10.6205 12.5724 11.1237C14.4495 11.6267 15.5629 13.5577 15.0594 15.437C14.5556 17.3169 12.6259 18.4326 10.7488 17.9297C8.87099 17.4265 7.75754 15.4955 8.2613 13.6154Z" fill="black"/>
</g>
</svg>
