<svg width="16" height="16" viewBox="0 0 16 16" fill="none" xmlns="http://www.w3.org/2000/svg">
<path opacity="0.9" d="M7.5 0C6.67157 0 6 0.671573 6 1.5C6 1.67532 6.03008 1.84361 6.08535 2H2C1.44772 2 1 2.44772 1 3V7.08535C1.15639 7.03008 1.32468 7 1.5 7C2.32843 7 3 7.67157 3 8.5C3 9.32843 2.32843 10 1.5 10C1.32468 10 1.15639 9.96992 1 9.91465V14C1 14.5523 1.44772 15 2 15H6.08535C6.03008 14.8436 6 14.6753 6 14.5C6 13.6716 6.67157 13 7.5 13C8.32843 13 9 13.6716 9 14.5C9 14.6753 8.96992 14.8436 8.91465 15H13C13.5523 15 14 14.5523 14 14V9.91465C14.1564 9.96992 14.3247 10 14.5 10C15.3284 10 16 9.32843 16 8.5C16 7.67157 15.3284 7 14.5 7C14.3247 7 14.1564 7.03008 14 7.08535V3C14 2.44772 13.5523 2 13 2H8.91465C8.96992 1.84361 9 1.67532 9 1.5C9 0.671573 8.32843 0 7.5 0Z" fill="black"/>
</svg>
