<svg width="32" height="32" viewBox="0 0 32 32" fill="none" xmlns="http://www.w3.org/2000/svg">
<path opacity="0.9" d="M18.5 3.5C18.5 4.04643 18.3539 4.55874 18.0987 5H26C26.5523 5 27 5.44772 27 6V13.9013C27.4413 13.6461 27.9536 13.5 28.5 13.5C30.1569 13.5 31.5 14.8431 31.5 16.5C31.5 18.1569 30.1569 19.5 28.5 19.5C27.9536 19.5 27.4413 19.3539 27 19.0987V27C27 27.5523 26.5523 28 26 28H17.622L17.8577 27.3333C17.9497 27.0732 18 26.7928 18 26.4996C18 25.1188 16.8807 23.9996 15.5 23.9996C14.1193 23.9996 13 25.1188 13 26.4996C13 26.7928 13.0503 27.0732 13.1423 27.3333L13.378 28H5C4.44771 28 4 27.5523 4 27V18.6218L4.66662 18.8574C4.92663 18.9493 5.20691 18.9996 5.5 18.9996C6.88071 18.9996 8 17.8803 8 16.4996C8 15.1188 6.88071 13.9996 5.5 13.9996C5.20691 13.9996 4.92663 14.0498 4.66662 14.1417L4 14.3773V6C4 5.44771 4.44772 5 5 5H12.9013C12.6461 4.55874 12.5 4.04643 12.5 3.5C12.5 1.84315 13.8431 0.5 15.5 0.5C17.1569 0.5 18.5 1.84315 18.5 3.5Z" fill="black"/>
</svg>
