<svg width="16" height="16" viewBox="0 0 16 16" fill="none" xmlns="http://www.w3.org/2000/svg">
<path opacity="0.9" fill-rule="evenodd" clip-rule="evenodd" d="M5.5 2C5.5 0.895431 6.39543 0 7.5 0C8.60457 0 9.5 0.895431 9.5 2H13C13.5523 2 14 2.44772 14 3V6.5C15.1046 6.5 16 7.39543 16 8.5C16 9.60457 15.1046 10.5 14 10.5V14C14 14.5523 13.5523 15 13 15H8.20761L8.44323 14.3334C8.47985 14.2298 8.5 14.1178 8.5 14C8.5 13.4477 8.05228 13 7.5 13C6.94772 13 6.5 13.4477 6.5 14C6.5 14.1178 6.52015 14.2298 6.55677 14.3334L6.79239 15H2C1.44772 15 1 14.5523 1 14V9.20761L1.66662 9.44323C1.77024 9.47985 1.88223 9.5 2 9.5C2.55228 9.5 3 9.05229 3 8.5C3 7.94772 2.55228 7.5 2 7.5C1.88223 7.5 1.77024 7.52015 1.66662 7.55677L1 7.79239V3C1 2.44772 1.44771 2 2 2H5.5ZM7.5 1C6.94772 1 6.5 1.44772 6.5 2C6.5 2.11777 6.52015 2.22976 6.55677 2.33338L6.79239 3L2 3L2 6.5C3.10457 6.5 4 7.39543 4 8.5C4 9.60457 3.10457 10.5 2 10.5L2 14H5.5C5.5 12.8954 6.39543 12 7.5 12C8.60457 12 9.5 12.8954 9.5 14H13V9.20761L13.6666 9.44323C13.7702 9.47985 13.8822 9.5 14 9.5C14.5523 9.5 15 9.05229 15 8.5C15 7.94772 14.5523 7.5 14 7.5C13.8822 7.5 13.7702 7.52015 13.6666 7.55677L13 7.79239V3H8.20761L8.44323 2.33338C8.47985 2.22976 8.5 2.11777 8.5 2C8.5 1.44772 8.05228 1 7.5 1Z" fill="black"/>
</svg>
