<svg width="32" height="32" viewBox="0 0 32 32" fill="none" xmlns="http://www.w3.org/2000/svg">
<path fill-rule="evenodd" clip-rule="evenodd" d="M21 9C21 8.44772 21.4477 8 22 8H24C24.5523 8 25 8.44772 25 9V23C25 23.5523 24.5523 24 24 24H22C21.4477 24 21 23.5523 21 23V9ZM22 9H24V23H22V9Z" fill="black"/>
<path fill-rule="evenodd" clip-rule="evenodd" d="M18.7519 15.1683C19.3457 15.5641 19.3457 16.4366 18.7519 16.8324L9.5547 22.9639C8.89014 23.4069 8 22.9305 8 22.1318V9.86887C8 9.07017 8.89015 8.59378 9.5547 9.03682L18.7519 15.1683ZM18.1972 16.0004L9 22.1318L9 9.86887L18.1972 16.0004Z" fill="black"/>
</svg>
