<svg width="32" height="32" viewBox="0 0 32 32" fill="none" xmlns="http://www.w3.org/2000/svg">
<g opacity="0.9">
<path d="M7.5 20C7.22386 20 7 20.2239 7 20.5C7 20.7761 7.22386 21 7.5 21H17.5C17.7761 21 18 20.7761 18 20.5C18 20.2239 17.7761 20 17.5 20H7.5Z" fill="black"/>
<path fill-rule="evenodd" clip-rule="evenodd" d="M4 9.5C4 8.11929 5.11929 7 6.5 7H25.5C26.8807 7 28 8.11929 28 9.5V21.5C28 22.8807 26.8807 24 25.5 24H6.5C5.11929 24 4 22.8807 4 21.5V9.5ZM27 9.5V10H5V9.5C5 8.67157 5.67157 8 6.5 8H25.5C26.3284 8 27 8.67157 27 9.5ZM5 21.5V13H27V21.5C27 22.3284 26.3284 23 25.5 23H6.5C5.67157 23 5 22.3284 5 21.5Z" fill="black"/>
</g>
</svg>
