<svg width="24" height="24" viewBox="0 0 24 24" fill="none" xmlns="http://www.w3.org/2000/svg">
<g clip-path="url(#clip0)">
<path opacity="0.9" d="M16.8608 17.9241H21.7216V24H16.8608V17.9241ZM9.5697 15.4937H14.4305V24H9.5697V15.4937ZM14.4305 10.6329C14.4305 13.8738 9.5697 13.8738 9.5697 10.6329C9.5697 7.392 14.4305 7.392 14.4305 10.6329ZM2.27856 19.1392H7.13932V24H2.27856V19.1392ZM18.1769 7.36405L16.5655 8.2159C16.1265 7.38571 15.4694 6.69095 14.665 6.20636C13.8606 5.72177 12.9392 5.4657 12.0001 5.4657C11.061 5.4657 10.1396 5.72177 9.33517 6.20636C8.53073 6.69095 7.87364 7.38571 7.43461 8.2159L5.82327 7.36284C6.41773 6.24031 7.30694 5.30107 8.39526 4.6461C9.48359 3.99113 10.7299 3.64523 12.0001 3.64557C13.2704 3.64534 14.5168 3.99143 15.6051 4.64662C16.6935 5.30181 17.5826 6.2413 18.1769 7.36405ZM21.3996 5.65671L19.7882 6.50977C19.0388 5.09433 17.9177 3.90999 16.5454 3.08415C15.1731 2.25831 13.6017 1.82222 12.0001 1.82279C10.3985 1.82222 8.82703 2.25831 7.45477 3.08415C6.08251 3.90999 4.96136 5.09433 4.21193 6.50977L2.60059 5.65671C3.5051 3.94844 4.85821 2.51908 6.51438 1.52237C8.17056 0.525671 10.0671 -0.000657257 12.0001 6.15965e-07C13.933 -0.000657257 15.8296 0.525671 17.4858 1.52237C19.142 2.51908 20.4951 3.94844 21.3996 5.65671Z" fill="black"/>
</g>
<defs>
<clipPath id="clip0">
<rect width="24" height="24" fill="white"/>
</clipPath>
</defs>
</svg>
