<svg width="24" height="24" viewBox="0 0 24 24" fill="none" xmlns="http://www.w3.org/2000/svg">
<g opacity="0.9">
<path d="M16.3535 12.8536C16.5488 12.6583 16.5488 12.3417 16.3535 12.1464C16.1583 11.9512 15.8417 11.9512 15.6464 12.1464L10.5 17.2929L8.35354 15.1464C8.15828 14.9512 7.84169 14.9512 7.64643 15.1464C7.45117 15.3417 7.45117 15.6583 7.64643 15.8536L9.79288 18C10.1834 18.3905 10.8166 18.3905 11.2071 18L16.3535 12.8536Z" fill="black"/>
<path fill-rule="evenodd" clip-rule="evenodd" d="M6 4.5C6 2.567 7.567 1 9.5 1H14.5C16.433 1 18 2.567 18 4.5V5.5C18 5.77614 17.7761 6 17.5 6C17.2239 6 17 5.77614 17 5.5V4.5C17 3.11929 15.8807 2 14.5 2H9.5C8.11929 2 7 3.11929 7 4.5V9H18C19.6569 9 21 10.3431 21 12V20C21 21.1046 20.1046 22 19 22H5C3.89543 22 3 21.1046 3 20V12C3 10.3431 4.34315 9 6 9V4.5ZM6 10H18C19.1046 10 20 10.8954 20 12V20C20 20.5523 19.5523 21 19 21H5C4.44772 21 4 20.5523 4 20V12C4 10.8954 4.89543 10 6 10Z" fill="black"/>
</g>
</svg>
