<svg width="24" height="24" viewBox="0 0 24 24" fill="none" xmlns="http://www.w3.org/2000/svg">
<path opacity="0.9" fill-rule="evenodd" clip-rule="evenodd" d="M4.5 5C3.67157 5 3 5.67157 3 6.5V16H1.5C1.22386 16 1 16.2239 1 16.5C1 17.8807 2.11929 19 3.5 19H20.5952C21.9234 19 23 17.9234 23 16.5952C23 16.2665 22.7335 16 22.4048 16H21V6.5C21 5.67157 20.3284 5 19.5 5H4.5ZM20 16V6.5C20 6.22386 19.7761 6 19.5 6H4.5C4.22386 6 4 6.22386 4 6.5V16H20ZM3 17H2.08535C2.29127 17.5826 2.84689 18 3.5 18H20.5952C21.2304 18 21.767 17.5785 21.9408 17H21H3Z" fill="black"/>
</svg>
