<svg width="24" height="24" viewBox="0 0 24 24" fill="none" xmlns="http://www.w3.org/2000/svg">
<g opacity="0.9">
<path fill-rule="evenodd" clip-rule="evenodd" d="M13.9991 3.01355C13.3266 2.96487 12.8883 3.54881 12.8883 4.11596V19.9071C12.8883 20.4573 13.3119 21.0601 13.9934 20.9952C14.6864 20.9291 15.2373 20.6225 15.6413 20.1669C15.5754 20.1467 15.5107 20.1251 15.4474 20.1024C14.8076 19.8731 14.2674 19.5115 13.9499 19.1419C13.77 18.9325 13.7939 18.6168 14.0034 18.4369C14.2128 18.2569 14.5285 18.2809 14.7084 18.4903C14.89 18.7016 15.2712 18.977 15.7849 19.1611C16.2905 19.3424 16.8869 19.4215 17.4922 19.2888C18.6533 19.0345 19.1505 18.1351 19.2074 18.0322L19.2079 18.0313C19.2446 17.9649 19.2942 17.9101 19.3519 17.8683C19.5171 17.4822 19.6086 17.0563 19.6086 16.6096C19.6086 16.3295 19.5727 16.0574 19.5051 15.7981C20.3069 15.1056 20.8148 14.0726 20.8148 12.9207C20.8148 12.6894 20.7942 12.4627 20.7549 12.2426C20.6291 12.426 20.4841 12.6088 20.317 12.788C19.584 13.5742 18.6721 14.0326 17.8176 14.2604C17.2045 14.4239 16.6003 14.474 16.0897 14.4304C15.9897 14.8058 15.7931 15.1603 15.4982 15.4552C15.303 15.6505 14.9864 15.6505 14.7911 15.4552C14.5959 15.2599 14.5959 14.9434 14.7911 14.7481C15.296 14.2432 15.2977 13.4032 14.7662 12.8717C14.5709 12.6764 14.5709 12.3599 14.7662 12.1646C14.9615 11.9693 15.278 11.9693 15.4733 12.1646C15.8308 12.5221 16.0514 12.9668 16.1323 13.4301C16.5135 13.4684 17.0175 13.4388 17.56 13.2942C18.2685 13.1053 19.0036 12.7303 19.5856 12.1061C20.7048 10.9055 20.5636 9.49418 20.5471 9.32935L20.5469 9.32792C20.5354 9.21259 20.564 9.1025 20.6215 9.01154C20.6005 8.82116 20.5684 8.6341 20.5257 8.45109C20.4967 8.32672 20.4629 8.20422 20.4243 8.08385C19.8744 6.36587 18.376 5.07844 16.5509 4.87282C16.2387 3.97847 15.3779 3.11336 13.9991 3.01355ZM14.6148 7.97735C14.8909 7.97735 15.1148 8.20121 15.1148 8.47735C15.1148 9.22899 15.71 9.82178 16.424 9.82178C16.7001 9.82178 16.924 10.0456 16.924 10.3218C16.924 10.5979 16.7001 10.8218 16.424 10.8218C15.1396 10.8218 14.1148 9.763 14.1148 8.47735C14.1148 8.20121 14.3386 7.97735 14.6148 7.97735Z" fill="black"/>
<path fill-rule="evenodd" clip-rule="evenodd" d="M10.3987 3C11.3415 3 12.1057 3.76425 12.1057 4.707V19.5825C12.1057 20.3638 11.4724 20.9971 10.6911 20.9971C9.53617 20.9971 8.49616 20.5039 7.77069 19.7179C7.59836 19.7506 7.42103 19.7677 7.24016 19.7677C5.56958 19.7677 4.25851 18.3293 4.25851 16.6099C4.25851 16.3284 4.29335 16.055 4.35893 15.7944C3.80267 15.2919 3.39623 14.6126 3.2139 13.8415C3.21668 13.8114 3.21675 13.7805 3.21388 13.7493C3.06242 12.0997 3.53156 11.0964 4.16779 10.5182C4.81924 9.92616 5.72277 9.70908 6.556 9.78977C6.66507 9.80033 6.95306 9.85203 7.26663 9.96079C7.58943 10.0728 7.86634 10.2205 8.01988 10.3852C8.20821 10.5871 8.5246 10.5982 8.72656 10.4098C8.92851 10.2215 8.93956 9.90513 8.75123 9.70317C8.43048 9.35922 7.96799 9.14561 7.59432 9.016C7.21141 8.88319 6.84587 8.81316 6.65238 8.79442C5.601 8.69262 4.39797 8.95775 3.49523 9.77816C3.42234 9.84441 3.35188 9.91384 3.28401 9.98647C3.2709 9.8392 3.2642 9.69001 3.2642 9.53924C3.2642 7.14426 4.96288 5.13535 7.19177 4.8732C7.82294 3.75562 9.02225 3 10.3987 3ZM8.16481 17.0546C7.93581 16.989 7.79715 16.7486 7.85511 16.5176C8.07499 15.6412 7.5833 14.7832 6.81867 14.5644C6.58967 14.4988 6.45101 14.2584 6.50897 14.0274C6.56694 13.7963 6.79957 13.6622 7.02857 13.7277C8.2951 14.0902 9.00878 15.462 8.68441 16.7549C8.62645 16.9859 8.39382 17.1201 8.16481 17.0546ZM9.77633 8.38027C9.93641 8.55124 10.1959 8.55124 10.356 8.38027C10.5161 8.2093 10.5161 7.93211 10.356 7.76114C9.46493 6.80942 8.02018 6.80942 7.12909 7.76114C6.96901 7.93211 6.96901 8.2093 7.12909 8.38027C7.28917 8.55124 7.54871 8.55124 7.70878 8.38027C8.27972 7.77049 9.20539 7.77049 9.77633 8.38027Z" fill="black"/>
</g>
</svg>
