<svg width="24" height="24" viewBox="0 0 24 24" fill="none" xmlns="http://www.w3.org/2000/svg">
<g opacity="0.9">
<path d="M7.96563 17.1144C7.70014 17.0384 7.5394 16.7597 7.6066 16.4918C7.80414 15.7045 7.36116 14.9448 6.68879 14.7524C6.42331 14.6764 6.26256 14.3977 6.32976 14.1298C6.39695 13.862 6.66665 13.7065 6.93213 13.7824C8.18635 14.1414 8.88669 15.4967 8.568 16.767C8.5008 17.0348 8.23111 17.1904 7.96563 17.1144Z" fill="black"/>
<path d="M9.41846 8.22729C9.6072 8.42887 9.9132 8.42887 10.1019 8.22729C10.2907 8.02571 10.2907 7.69889 10.1019 7.49732C9.20802 6.54259 7.7587 6.54259 6.86479 7.49732C6.67605 7.69889 6.67605 8.02571 6.86479 8.22729C7.05353 8.42887 7.35953 8.42887 7.54826 8.22729C8.06471 7.67571 8.90202 7.67571 9.41846 8.22729Z" fill="black"/>
<path fill-rule="evenodd" clip-rule="evenodd" d="M2.50011 12.9733C2.50253 14.1738 3.00088 15.2585 3.79878 15.9997C3.73673 16.2634 3.70391 16.5388 3.70391 16.8217C3.70391 18.664 5.10995 20.2145 6.91249 20.2145C7.09007 20.2145 7.26452 20.1992 7.43463 20.1698C8.20799 20.9882 9.30481 21.5 10.5208 21.5C11.388 21.5 12.0909 20.7971 12.0909 19.9299V9.44572L12.0909 9.42964V9.42796L12.0909 9.41229V4.37579C12.0909 3.33982 11.2511 2.5 10.2151 2.5C8.75808 2.5 7.48665 3.29103 6.80539 4.46524C4.44778 4.76699 2.66423 6.8992 2.66423 9.4288C2.66423 10.0121 2.75854 10.5733 2.93247 11.0955C2.69651 11.5731 2.54858 12.1061 2.51012 12.6698C2.50343 12.7672 2.50003 12.8654 2.50003 12.9644L2.50011 12.9733ZM11.0909 4.37579C11.0909 3.8921 10.6988 3.5 10.2151 3.5C9.05282 3.5 8.04712 4.17454 7.5699 5.15574C7.49125 5.31745 7.33182 5.42448 7.15237 5.43602C5.23437 5.55943 3.66423 7.27259 3.66423 9.4288C3.66423 9.62972 3.67795 9.82697 3.70441 10.0196C4.38138 9.34558 5.29386 8.92871 6.31052 8.92871C7.08417 8.92871 7.80327 9.17328 8.40197 9.5902C8.62858 9.748 8.68436 10.0596 8.52655 10.2862C8.36875 10.5129 8.05712 10.5686 7.83051 10.4108C7.39059 10.1045 6.86924 9.92871 6.31052 9.92871C5.31972 9.92871 4.42766 10.4916 3.92581 11.3558C3.92157 11.3644 3.91706 11.3729 3.9123 11.3813C3.65162 11.8407 3.5001 12.3821 3.5001 12.9645C3.5001 13.9887 3.96852 14.8855 4.67434 15.4326C4.8433 15.5636 4.91029 15.7876 4.84101 15.9898C4.7526 16.248 4.70391 16.528 4.70391 16.8217C4.70391 18.1747 5.72322 19.2145 6.91249 19.2145C7.10804 19.2145 7.297 19.1871 7.47671 19.1358C7.66907 19.0808 7.87565 19.1458 8.00189 19.301C8.59773 20.0335 9.50461 20.5 10.5208 20.5C10.8357 20.5 11.0909 20.2448 11.0909 19.9299V9.44447L11.0909 9.42964V9.42796L11.0909 9.41229V4.37579Z" fill="black"/>
<path d="M13 3C13 2.72386 13.2239 2.5 13.5 2.5C14.9816 2.5 16.2792 3.28454 17.0013 4.45893C19.4788 4.72631 21.3954 6.86002 21.3954 9.436C21.3954 9.52142 21.3933 9.60636 21.3891 9.69076C21.3648 10.1832 21.2705 10.6575 21.1157 11.1033C21.4045 11.6638 21.5676 12.3014 21.5676 12.9762C21.5676 14.1888 21.0416 15.2788 20.2073 16.0199C20.2712 16.2823 20.305 16.5564 20.305 16.8379C20.305 18.7044 18.8182 20.2341 16.964 20.2341C16.8862 20.2341 16.809 20.2314 16.7326 20.2261C16.6049 20.2172 16.4793 20.201 16.356 20.178C15.6526 20.9021 14.7026 21.3873 13.6404 21.4973C13.3658 21.5258 13.12 21.3262 13.0916 21.0515C13.0631 20.7769 13.2627 20.5311 13.5374 20.5027C14.1996 20.4341 14.8063 20.1767 15.3026 19.7847C14.8528 19.5219 14.4694 19.1563 14.1835 18.7209C14.032 18.49 14.0962 18.18 14.3271 18.0285C14.5579 17.8769 14.8679 17.9412 15.0195 18.172C15.429 18.7958 16.113 19.2078 16.8887 19.2329C16.9137 19.2337 16.9388 19.2341 16.964 19.2341C18.2478 19.2341 19.305 18.1704 19.305 16.8379C19.305 16.5465 19.2544 16.2685 19.1622 16.0117C19.0877 15.8041 19.1581 15.5721 19.3354 15.4409C20.0809 14.8893 20.5676 13.9923 20.5676 12.9762C20.5676 12.7502 20.5435 12.5302 20.498 12.3187C19.6342 13.5649 18.2248 14.3938 16.6174 14.4398C16.5647 14.8991 16.3638 15.3435 16.0111 15.6961C15.8158 15.8914 15.4992 15.8914 15.304 15.6961C15.1087 15.5009 15.1087 15.1843 15.304 14.989C15.7429 14.5501 15.7457 13.8179 15.2814 13.3536C15.0861 13.1584 15.0861 12.8418 15.2814 12.6465C15.4766 12.4513 15.7932 12.4513 15.9885 12.6465C16.221 12.879 16.391 13.1514 16.4976 13.4417C18.1158 13.4329 19.5102 12.4182 20.0979 10.9702L20.1029 10.9573C20.2791 10.5192 20.3817 10.0415 20.3941 9.5398C20.395 9.50531 20.3954 9.47071 20.3954 9.436C20.3954 7.35614 18.8476 5.65838 16.8813 5.45234C16.8744 5.45161 16.8674 5.45074 16.8606 5.44973C16.7984 5.44354 16.7357 5.43884 16.6727 5.43567C16.496 5.42676 16.3371 5.32506 16.255 5.16825C15.7351 4.17556 14.696 3.5 13.5 3.5C13.2239 3.5 13 3.27614 13 3Z" fill="black"/>
<path d="M14.9867 7.82442C15.2629 7.82442 15.4867 8.04828 15.4867 8.32442C15.4867 9.12378 16.1199 9.75525 16.8807 9.75525C17.1568 9.75525 17.3807 9.97911 17.3807 10.2552C17.3807 10.5314 17.1568 10.7552 16.8807 10.7552C15.5495 10.7552 14.4867 9.65779 14.4867 8.32442C14.4867 8.04828 14.7106 7.82442 14.9867 7.82442Z" fill="black"/>
</g>
</svg>
