<svg width="16" height="16" viewBox="0 0 16 16" fill="none" xmlns="http://www.w3.org/2000/svg">
<g opacity="0.9">
<path fill-rule="evenodd" clip-rule="evenodd" d="M8.70732 1.93C8.70732 1.45738 9.07263 0.970759 9.63301 1.01132C10.782 1.0945 11.4994 1.81543 11.7595 2.56072C13.2804 2.73207 14.5291 3.80493 14.9874 5.23658C15.0195 5.33689 15.0477 5.43896 15.0719 5.54261C15.1398 5.8339 15.1757 6.13749 15.1757 6.44917C15.1757 6.49002 15.175 6.53072 15.1738 6.57127C15.1457 7.03925 14.9923 7.80382 14.3552 8.48733C13.8632 9.01522 13.2406 9.33327 12.6391 9.49369C12.0293 9.6563 11.481 9.64658 11.1599 9.56241C10.8928 9.49239 10.6195 9.65217 10.5494 9.91929C10.4794 10.1864 10.6392 10.4597 10.9063 10.5297C11.4293 10.6668 12.1574 10.6571 12.8967 10.4599C13.6443 10.2606 14.4436 9.8591 15.0867 9.16916C15.161 9.08951 15.2303 9.00904 15.2949 8.92809C15.3067 9.03957 15.3127 9.15275 15.3127 9.26732C15.3127 10.2272 14.8895 11.0881 14.2213 11.6651C14.2777 11.8812 14.3076 12.1079 14.3076 12.3414C14.3076 12.6669 14.2493 12.9791 14.1426 13.2675C14.0434 13.3096 13.957 13.384 13.9008 13.4857C13.856 13.5667 13.4568 14.2887 12.5261 14.4926C12.0397 14.5992 11.5588 14.5359 11.1493 14.3891C10.7318 14.2394 10.4273 14.0172 10.2873 13.8543C10.1074 13.6448 9.79172 13.6209 9.58225 13.8008C9.37278 13.9807 9.34885 14.2964 9.52879 14.5059C9.80469 14.8271 10.2681 15.1355 10.8118 15.3304C10.8535 15.3454 10.8959 15.3597 10.9389 15.3735C10.6087 15.7157 10.1708 15.9443 9.62822 15.996C9.06032 16.0502 8.70732 15.5478 8.70732 15.0893V1.93ZM10.6461 5.56478C10.6461 5.28864 10.4222 5.06478 10.1461 5.06478C9.86993 5.06478 9.64607 5.28864 9.64607 5.56478C9.64607 6.68066 10.5359 7.6018 11.6537 7.6018C11.9299 7.6018 12.1537 7.37794 12.1537 7.1018C12.1537 6.82566 11.9299 6.6018 11.6537 6.6018C11.1063 6.6018 10.6461 6.14665 10.6461 5.56478Z" fill="black"/>
<path fill-rule="evenodd" clip-rule="evenodd" d="M6.6327 1C7.41832 1 8.0552 1.63688 8.0552 2.4225V14.8188C8.0552 15.4698 7.52741 15.9976 6.87636 15.9976C5.9139 15.9976 5.04722 15.5866 4.44267 14.9315C4.29906 14.9589 4.15128 14.9731 4.00056 14.9731C2.60841 14.9731 1.51585 13.7744 1.51585 12.3416C1.51585 12.107 1.54489 11.8791 1.59954 11.662C1.09238 11.2039 0.734668 10.5694 0.607481 9.85125C0.481719 8.6057 0.851984 7.84094 1.33955 7.38718C1.90761 6.85851 2.72151 6.66973 3.40194 6.74176C3.48329 6.75037 3.71671 6.79554 3.97328 6.89283C4.23697 6.99282 4.4556 7.12206 4.57463 7.26161C4.75383 7.4717 5.06942 7.49675 5.27952 7.31754C5.48962 7.13834 5.51466 6.82275 5.33546 6.61265C5.05498 6.28383 4.6508 6.08027 4.32785 5.9578C3.99777 5.83263 3.6807 5.76569 3.50721 5.74732C2.61216 5.65257 1.50897 5.88466 0.690918 6.62519C0.688488 6.56689 0.68726 6.50827 0.68726 6.44936C0.68726 4.45355 2.10283 2.77946 3.96024 2.561C4.48621 1.62968 5.48564 1 6.6327 1ZM4.85757 12.5042C4.68446 12.4547 4.57964 12.2729 4.62346 12.0983C4.78967 11.4358 4.41798 10.7872 3.83996 10.6217C3.66685 10.5722 3.56203 10.3905 3.60585 10.2158C3.64967 10.0412 3.82552 9.93974 3.99864 9.98928C4.95606 10.2633 5.49557 11.3003 5.25036 12.2777C5.20654 12.4523 5.03069 12.5538 4.85757 12.5042ZM6.11433 5.06797C6.30082 5.27163 6.60318 5.27163 6.78967 5.06797C6.97616 4.86432 6.97616 4.53412 6.78967 4.33046C6.02859 3.49932 4.79464 3.49932 4.03356 4.33046C3.84707 4.53412 3.84707 4.86432 4.03356 5.06797C4.22005 5.27163 4.5224 5.27163 4.70889 5.06797C5.09699 4.64414 5.72623 4.64414 6.11433 5.06797Z" fill="black"/>
</g>
</svg>
