<svg width="24" height="24" viewBox="0 0 24 24" fill="none" xmlns="http://www.w3.org/2000/svg">
<g opacity="0.9">
<path fill-rule="evenodd" clip-rule="evenodd" d="M11.1464 4.14645C11.3417 3.95118 11.6583 3.95118 11.8536 4.14645L19.3536 11.6464C19.4473 11.7402 19.5 11.8674 19.5 12C19.5 12.1326 19.4473 12.2598 19.3536 12.3536L11.8536 19.8536C11.6583 20.0488 11.3417 20.0488 11.1464 19.8536C10.9512 19.6583 10.9512 19.3417 11.1464 19.1464L18.2929 12L11.1464 4.85355C10.9512 4.65829 10.9512 4.34171 11.1464 4.14645Z" fill="black"/>
<path fill-rule="evenodd" clip-rule="evenodd" d="M4.14645 4.14645C4.34171 3.95118 4.65829 3.95118 4.85355 4.14645L12.3536 11.6464C12.4473 11.7402 12.5 11.8674 12.5 12C12.5 12.1326 12.4473 12.2598 12.3536 12.3536L4.85355 19.8536C4.65829 20.0488 4.34171 20.0488 4.14645 19.8536C3.95118 19.6583 3.95118 19.3417 4.14645 19.1464L11.2929 12L4.14645 4.85355C3.95118 4.65829 3.95118 4.34171 4.14645 4.14645Z" fill="black"/>
</g>
</svg>
