<svg width="24" height="24" viewBox="0 0 24 24" fill="none" xmlns="http://www.w3.org/2000/svg">
<path opacity="0.9" fill-rule="evenodd" clip-rule="evenodd" d="M13.8322 2.67175C14.2561 3.04861 14.5527 3.57165 14.6485 4.21836C15.4467 4.33788 16.4096 4.75265 17.2232 5.49408C18.2212 6.40373 19 7.80909 19 9.77273V15.1505C19 15.5472 19.1836 15.9258 19.4458 16.4422L19.4608 16.4718C19.6991 16.9407 20 17.5329 20 18.2131V18.5C20 18.7761 19.7761 19 19.5 19H15C15 20.6569 13.6569 22 12 22C10.3431 22 9 20.6569 9 19H4.5C4.22386 19 4 18.7761 4 18.5V18.2131C4 17.5329 4.30089 16.9407 4.53916 16.4718L4.55418 16.4422C4.81637 15.9258 5 15.5472 5 15.1505V9.77273C5 7.80909 5.77875 6.40373 6.77683 5.49408C7.59034 4.75265 8.55326 4.33788 9.35151 4.21836C9.4473 3.57165 9.74384 3.04861 10.1678 2.67174C10.6797 2.21676 11.348 2 12 2C12.652 2 13.3203 2.21677 13.8322 2.67175ZM10.3182 4.6818C10.3182 4.09021 10.535 3.68326 10.8322 3.41915C11.1385 3.14687 11.5611 3 12 3C12.4389 3 12.8615 3.14687 13.1678 3.41916C13.4649 3.68327 13.6818 4.09022 13.6818 4.6818C13.6818 4.95795 13.9057 5.1818 14.1818 5.1818C14.7718 5.1818 15.7341 5.48995 16.5496 6.23317C17.3469 6.95989 18 8.09999 18 9.77273V15.1505C18 15.8056 18.2946 16.3847 18.5289 16.8453L18.5542 16.8949C18.7691 17.3183 18.9338 17.659 18.9841 18H5.01593C5.06619 17.659 5.23087 17.3183 5.44582 16.8949L5.47108 16.8453C5.7054 16.3847 6 15.8056 6 15.1505V9.77273C6 8.09999 6.65307 6.95989 7.45044 6.23317C8.26591 5.48995 9.22821 5.1818 9.81817 5.1818C10.0943 5.1818 10.3182 4.95795 10.3182 4.6818ZM10 19C10 20.1046 10.8954 21 12 21C13.1046 21 14 20.1046 14 19H10Z" fill="black"/>
</svg>
