<svg width="32" height="32" viewBox="0 0 32 32" fill="none" xmlns="http://www.w3.org/2000/svg">
<path opacity="0.9" fill-rule="evenodd" clip-rule="evenodd" d="M5 26C3.89543 26 3 25.1046 3 24V8C3 6.89543 3.89543 6 5 6H12.5C13.3284 6 14 6.67157 14 7.5C14 7.77614 14.2239 8 14.5 8H26C27.1046 8 28 8.89543 28 10V13H28.5788C29.88 13 30.8347 14.2228 30.5191 15.4851L28.2691 24.4851C28.0465 25.3754 27.2466 26 26.3288 26H5ZM4 8C4 7.44772 4.44772 7 5 7H12.5C12.7761 7 13 7.22386 13 7.5C13 8.32843 13.6716 9 14.5 9H26C26.5523 9 27 9.44772 27 10V13H7.67115C6.75342 13 5.95345 13.6246 5.73087 14.5149L4 21.4384V8ZM5.42115 25H26.3288C26.7877 25 27.1877 24.6877 27.299 24.2425L29.549 15.2425C29.7068 14.6114 29.2294 14 28.5788 14H7.67115C7.21228 14 6.8123 14.3123 6.70101 14.7575L4.45101 23.7575C4.29322 24.3886 4.77058 25 5.42115 25Z" fill="black"/>
</svg>
