<svg width="24" height="24" viewBox="0 0 24 24" fill="none" xmlns="http://www.w3.org/2000/svg">
<path fill-rule="evenodd" clip-rule="evenodd" d="M2.5 20C1.67157 20 1 19.3284 1 18.5V4.5C1 3.67157 1.67157 3 2.5 3H8.5C9.32843 3 10 3.67157 10 4.5C10 4.77614 10.2239 5 10.5 5H20.5C21.3284 5 22 5.67157 22 6.5V9H22.2802C23.2268 9 23.9367 9.86599 23.7511 10.7942L22.1511 18.7942C22.0108 19.4953 21.3952 20 20.6802 20H2.5ZM2 4.5C2 4.22386 2.22386 4 2.5 4H8.5C8.77614 4 9 4.22386 9 4.5C9 5.32843 9.67157 6 10.5 6H20.5C20.7761 6 21 6.22386 21 6.5V9H4.31981C3.60479 9 2.98916 9.50469 2.84894 10.2058L2 14.4505V4.5ZM2.71981 19H20.6802C20.9185 19 21.1238 18.8318 21.1705 18.5981L22.7705 10.5981C22.8324 10.2887 22.5957 10 22.2802 10H4.31981C4.08147 10 3.87626 10.1682 3.82952 10.4019L2.22952 18.4019C2.16764 18.7113 2.40429 19 2.71981 19Z" fill="black"/>
</svg>
