<svg width="16" height="16" viewBox="0 0 16 16" fill="none" xmlns="http://www.w3.org/2000/svg">
<path fill-rule="evenodd" clip-rule="evenodd" d="M15 8C15 11.866 11.866 15 8 15C4.13401 15 1 11.866 1 8C1 4.13401 4.13401 1 8 1C11.866 1 15 4.13401 15 8ZM10 6C10 5.44772 10.4477 5 11 5C11.5523 5 12 5.44772 12 6V10C12 10.5523 11.5523 11 11 11C10.4477 11 10 10.5523 10 10V6ZM8.75192 8.83205C9.34566 8.43623 9.34566 7.56377 8.75192 7.16795L5.5547 5.03647C4.89015 4.59343 4 5.06982 4 5.86852L4 10.1315C4 10.9302 4.89014 11.4066 5.5547 10.9635L8.75192 8.83205Z" fill="black"/>
</svg>
