<svg width="16" height="16" viewBox="0 0 16 16" fill="none" xmlns="http://www.w3.org/2000/svg">
<path opacity="0.9" fill-rule="evenodd" clip-rule="evenodd" d="M3.5 6C2.11929 6 1 7.11929 1 8.5C1 9.88071 2.11929 11 3.5 11H10.5C10.7761 11 11 11.2239 11 11.5C11 11.7761 10.7761 12 10.5 12H3.5C1.567 12 0 10.433 0 8.5C0 6.567 1.567 5 3.5 5H13.5C14.8807 5 16 6.11929 16 7.5C16 8.88071 14.8807 10 13.5 10H6C5.17157 10 4.5 9.32843 4.5 8.5C4.5 7.67157 5.17157 7 6 7H10.5C10.7761 7 11 7.22386 11 7.5C11 7.77614 10.7761 8 10.5 8H6C5.72386 8 5.5 8.22386 5.5 8.5C5.5 8.77614 5.72386 9 6 9H13.5C14.3284 9 15 8.32843 15 7.5C15 6.67157 14.3284 6 13.5 6H3.5Z" fill="black"/>
</svg>
