<svg width="32" height="32" viewBox="0 0 32 32" fill="none" xmlns="http://www.w3.org/2000/svg">
<path opacity="0.9" fill-rule="evenodd" clip-rule="evenodd" d="M8 12C5.79086 12 4 13.7909 4 16C4 18.2091 5.79086 20 8 20H19C19.5523 20 20 20.4477 20 21C20 21.5523 19.5523 22 19 22H8C4.68629 22 2 19.3137 2 16C2 12.6863 4.68629 10 8 10H25.5C27.9853 10 30 12.0147 30 14.5C30 16.9853 27.9853 19 25.5 19H10C8.34315 19 7 17.6569 7 16C7 14.3431 8.34315 13 10 13H19C19.5523 13 20 13.4477 20 14C20 14.5523 19.5523 15 19 15H10C9.44772 15 9 15.4477 9 16C9 16.5523 9.44772 17 10 17H25.5C26.8807 17 28 15.8807 28 14.5C28 13.1193 26.8807 12 25.5 12H8Z" fill="black"/>
</svg>
