<svg width="32" height="32" viewBox="0 0 32 32" fill="none" xmlns="http://www.w3.org/2000/svg">
<g opacity="0.9">
<path d="M5 15.5C5 9.70101 9.70101 5 15.5 5C21.299 5 26 9.70101 26 15.5C26 15.7761 26.2239 16 26.5 16C26.7761 16 27 15.7761 27 15.5C27 9.14873 21.8513 4 15.5 4C9.14873 4 4 9.14873 4 15.5C4 21.8513 9.14873 27 15.5 27H17C17.2761 27 17.5 26.7761 17.5 26.5C17.5 26.2239 17.2761 26 17 26H15.5C9.70101 26 5 21.299 5 15.5Z" fill="black"/>
<path fill-rule="evenodd" clip-rule="evenodd" d="M9 13C8.44772 13 8 13.4477 8 14V17C8 17.5523 8.44772 18 9 18H12C12.5523 18 13 17.5523 13 17V16H18.05C18.2816 17.1411 19.2905 18 20.5 18C21.8807 18 23 16.8807 23 15.5C23 14.1193 21.8807 13 20.5 13C19.2905 13 18.2816 13.8589 18.05 15H13V14C13 13.4477 12.5523 13 12 13H9ZM9 14H12V17H9V14ZM19 15.5C19 14.6716 19.6716 14 20.5 14C21.3284 14 22 14.6716 22 15.5C22 16.3284 21.3284 17 20.5 17C19.6716 17 19 16.3284 19 15.5Z" fill="black"/>
<path d="M24.5875 25.25C25.2778 25.25 25.8375 24.6904 25.8375 24C25.8375 23.3096 25.2778 22.75 24.5875 22.75C23.8971 22.75 23.3375 23.3096 23.3375 24C23.3375 24.6904 23.8971 25.25 24.5875 25.25Z" fill="black"/>
<path fill-rule="evenodd" clip-rule="evenodd" d="M23.0301 19C23.0301 18.7239 23.254 18.5 23.5301 18.5H25.5301C25.8063 18.5 26.0301 18.7239 26.0301 19V20.1116C26.4374 20.2688 26.8134 20.488 27.1469 20.7573L28.1103 20.2011C28.2251 20.1348 28.3616 20.1168 28.4897 20.1512C28.6178 20.1855 28.727 20.2693 28.7933 20.3841L29.7933 22.1162C29.9313 22.3553 29.8494 22.6611 29.6103 22.7992L28.6472 23.3552C28.6799 23.5656 28.6968 23.781 28.6968 24C28.6968 24.2191 28.6798 24.4346 28.6471 24.645L29.6103 25.2011C29.8494 25.3392 29.9313 25.645 29.7933 25.8841L28.7933 27.6162C28.727 27.731 28.6178 27.8148 28.4897 27.8491C28.3616 27.8834 28.2251 27.8655 28.1103 27.7992L27.1467 27.2428C26.8133 27.5121 26.4373 27.7312 26.0301 27.8884V29C26.0301 29.2761 25.8063 29.5 25.5301 29.5H23.5301C23.254 29.5 23.0301 29.2761 23.0301 29V27.8884C22.623 27.7312 22.247 27.5121 21.9136 27.2428L20.95 27.7992C20.7109 27.9372 20.4051 27.8553 20.267 27.6162L19.267 25.8841C19.1289 25.645 19.2109 25.3392 19.45 25.2011L20.4132 24.645C20.3804 24.4346 20.3635 24.2191 20.3635 24C20.3635 23.781 20.3804 23.5656 20.4131 23.3552L19.45 22.7992C19.3352 22.7329 19.2514 22.6237 19.217 22.4956C19.1827 22.3675 19.2007 22.231 19.267 22.1162L20.267 20.3841C20.3333 20.2693 20.4425 20.1855 20.5706 20.1512C20.6987 20.1168 20.8352 20.1348 20.95 20.2011L21.9134 20.7573C22.2468 20.488 22.6229 20.2688 23.0301 20.1116V19ZM24.0301 19.5V20.4714C24.0301 20.6951 23.8815 20.8916 23.6662 20.9525C23.1548 21.0971 22.6953 21.3675 22.3235 21.7288C22.1631 21.8847 21.9187 21.9151 21.725 21.8032L20.883 21.3171L20.383 22.1832L21.2243 22.6688C21.4178 22.7806 21.5137 23.0072 21.4591 23.2239C21.3967 23.4718 21.3635 23.7316 21.3635 24C21.3635 24.2684 21.3968 24.5284 21.4592 24.7763C21.5138 24.993 21.4179 25.2196 21.2243 25.3314L20.383 25.8171L20.883 26.6832L21.7252 26.1969C21.9188 26.0851 22.1632 26.1155 22.3236 26.2713C22.6954 26.6326 23.1548 26.9029 23.6662 27.0475C23.8815 27.1084 24.0301 27.3049 24.0301 27.5286V28.5H25.0301V27.5286C25.0301 27.3049 25.1788 27.1084 25.3941 27.0475C25.9054 26.9029 26.3649 26.6326 26.7367 26.2714C26.8971 26.1155 27.1414 26.0851 27.3351 26.1969L28.1772 26.6832L28.6772 25.8171L27.8359 25.3314C27.6424 25.2197 27.5465 24.993 27.6011 24.7763C27.6635 24.5284 27.6968 24.2684 27.6968 24C27.6968 23.7316 27.6635 23.4717 27.6011 23.2239C27.5466 23.0072 27.6425 22.7806 27.836 22.6688L28.6772 22.1832L28.1772 21.3171L27.3353 21.8032C27.1416 21.9151 26.8972 21.8847 26.7368 21.7288C26.365 21.3675 25.9055 21.0971 25.3941 20.9525C25.1788 20.8916 25.0301 20.6951 25.0301 20.4714V19.5H24.0301Z" fill="black"/>
</g>
</svg>
