<svg width="32" height="32" viewBox="0 0 32 32" fill="none" xmlns="http://www.w3.org/2000/svg">
<path opacity="0.9" fill-rule="evenodd" clip-rule="evenodd" d="M17 4C17 4.55228 16.5523 5 16 5C15.4477 5 15 4.55228 15 4C15 3.44772 15.4477 3 16 3C16.5523 3 17 3.44772 17 4ZM18 4C18 4.93192 17.3626 5.71497 16.5 5.93699V8H25C26.6569 8 28 9.34315 28 11V14H29C29.5523 14 30 14.4477 30 15V18C30 18.5523 29.5523 19 29 19H28V22C28 23.6569 26.6569 25 25 25H7C5.34315 25 4 23.6569 4 22V19H3C2.44772 19 2 18.5523 2 18V15C2 14.4477 2.44772 14 3 14H4V11C4 9.34315 5.34315 8 7 8H15.5V5.93699C14.6374 5.71497 14 4.93192 14 4C14 2.89543 14.8954 2 16 2C17.1046 2 18 2.89543 18 4ZM28 18H29V15H28V18ZM27 14V11C27 9.89543 26.1046 9 25 9H16.5H15.5H7C5.89543 9 5 9.89543 5 11V22C5 23.1046 5.89543 24 7 24H25C26.1046 24 27 23.1046 27 22V19V14ZM4 15H3V18H4V15ZM11 18.5C11 18.2239 11.2239 18 11.5 18H20.5C20.7761 18 21 18.2239 21 18.5C21 18.7761 20.7761 19 20.5 19H11.5C11.2239 19 11 18.7761 11 18.5ZM11.5 14C11.2239 14 11 14.2239 11 14.5C11 14.7761 11.2239 15 11.5 15H20.5C20.7761 15 21 14.7761 21 14.5C21 14.2239 20.7761 14 20.5 14H11.5Z" fill="black"/>
</svg>
