<svg width="16" height="16" viewBox="0 0 16 16" fill="none" xmlns="http://www.w3.org/2000/svg">
<path opacity="0.9" fill-rule="evenodd" clip-rule="evenodd" d="M9 1C9 1.37014 8.7989 1.69331 8.5 1.86622V3H13C14.1046 3 15 3.89543 15 5V7C15.5523 7 16 7.44772 16 8V9C16 9.55229 15.5523 10 15 10V11C15 12.1046 14.1046 13 13 13H3C1.89543 13 1 12.1046 1 11V10C0.447715 10 0 9.55228 0 9V8C0 7.44772 0.447715 7 1 7V5C1 3.89543 1.89543 3 3 3H7.5V1.86622C7.2011 1.69331 7 1.37014 7 1C7 0.447715 7.44772 0 8 0C8.55228 0 9 0.447715 9 1ZM2 7V10V11C2 11.5523 2.44772 12 3 12H13C13.5523 12 14 11.5523 14 11V10V7V5C14 4.44772 13.5523 4 13 4H3C2.44772 4 2 4.44772 2 5V7ZM5 9.5C5 9.22386 5.22386 9 5.5 9H10.5C10.7761 9 11 9.22386 11 9.5C11 9.77614 10.7761 10 10.5 10H5.5C5.22386 10 5 9.77614 5 9.5ZM5.5 6C5.22386 6 5 6.22386 5 6.5C5 6.77614 5.22386 7 5.5 7H10.5C10.7761 7 11 6.77614 11 6.5C11 6.22386 10.7761 6 10.5 6H5.5Z" fill="black"/>
</svg>
