<svg width="32" height="32" viewBox="0 0 32 32" fill="none" xmlns="http://www.w3.org/2000/svg">
<g opacity="0.9">
<path d="M5 15.5C5 9.70101 9.70101 5 15.5 5C21.299 5 26 9.70101 26 15.5C26 15.7761 26.2239 16 26.5 16C26.7761 16 27 15.7761 27 15.5C27 9.14873 21.8513 4 15.5 4C9.14873 4 4 9.14873 4 15.5C4 21.8513 9.14873 27 15.5 27H17C17.2761 27 17.5 26.7761 17.5 26.5C17.5 26.2239 17.2761 26 17 26H15.5C9.70101 26 5 21.299 5 15.5Z" fill="black"/>
<path fill-rule="evenodd" clip-rule="evenodd" d="M8 14C8 13.4477 8.44772 13 9 13H12C12.5523 13 13 13.4477 13 14V15H18.05C18.2816 13.8589 19.2905 13 20.5 13C21.8807 13 23 14.1193 23 15.5C23 16.8807 21.8807 18 20.5 18C19.2905 18 18.2816 17.1411 18.05 16H13V17C13 17.5523 12.5523 18 12 18H9C8.44772 18 8 17.5523 8 17V14ZM12 14H9V17H12V14ZM20.5 14C19.6716 14 19 14.6716 19 15.5C19 16.3284 19.6716 17 20.5 17C21.3284 17 22 16.3284 22 15.5C22 14.6716 21.3284 14 20.5 14Z" fill="black"/>
<path fill-rule="evenodd" clip-rule="evenodd" d="M24.3423 19.1529C25.8453 18.7516 27.5176 19.14 28.6983 20.3208C29.8045 21.427 30.2153 22.9646 29.9327 24.3903L31.2664 25.724C32.2445 26.7022 32.2445 28.2881 31.2664 29.2663C30.2882 30.2445 28.7022 30.2445 27.7241 29.2663L26.3904 27.9326C24.9647 28.2153 23.427 27.8045 22.3208 26.6983C21.1401 25.5175 20.7516 23.8452 21.153 22.3422C21.1991 22.1695 21.3339 22.0346 21.5065 21.9883C21.6791 21.942 21.8633 21.9913 21.9896 22.1177L24.2612 24.3893L26.0687 24.0686L26.3893 22.2612L24.1177 19.9896C23.9914 19.8632 23.942 19.679 23.9884 19.5064C24.0347 19.3338 24.1696 19.199 24.3423 19.1529ZM25.5424 20L27.2807 21.7384C27.3962 21.8538 27.448 22.0184 27.4195 22.1792L26.9923 24.5873C26.9557 24.7939 26.7939 24.9556 26.5873 24.9922L24.1793 25.4194C24.0185 25.4479 23.8539 25.3961 23.7384 25.2807L22.0001 23.5423C22.0083 24.43 22.3512 25.3145 23.0279 25.9912C23.946 26.9093 25.2466 27.213 26.4189 26.8999C26.5913 26.8539 26.7752 26.9032 26.9014 27.0295L28.4312 28.5592C29.0188 29.1468 29.9716 29.1468 30.5592 28.5592C31.1469 27.9715 31.1469 27.0188 30.5592 26.4311L29.0295 24.9014C28.9033 24.7752 28.8539 24.5912 28.9 24.4188C29.2131 23.2465 28.9093 21.946 27.9912 21.0279C27.3145 20.3512 26.4301 20.0082 25.5424 20Z" fill="black"/>
</g>
</svg>
