<svg width="32" height="32" viewBox="0 0 32 32" fill="none" xmlns="http://www.w3.org/2000/svg">
<g opacity="0.9">
<path d="M10 12.5785V16C10 19.3137 12.6863 22 16 22C16.9926 22 17.929 21.759 18.7537 21.3322L10 12.5785Z" fill="black"/>
<path d="M21.4939 18.4156L10.5549 7.47656C11.5079 5.42362 13.5877 4 16 4C19.3137 4 22 6.68629 22 10V16C22 16.8594 21.8193 17.6765 21.4939 18.4156Z" fill="black"/>
<path d="M19.4905 22.069C18.463 22.6612 17.2711 23 16 23C12.134 23 9 19.866 9 16V12C9 11.4477 8.55228 11 8 11C7.44772 11 7 11.4477 7 12V16C7 20.6326 10.5001 24.4476 15 24.9451V28.5C15 29.0523 15.4477 29.5 16 29.5C16.5523 29.5 17 29.0523 17 28.5V24.9451C18.4452 24.7853 19.7873 24.2833 20.9434 23.522L19.4905 22.069Z" fill="black"/>
<path d="M23.7152 20.6369L22.2446 19.1663C22.7277 18.2155 23 17.1395 23 16V12C23 11.4477 23.4477 11 24 11C24.5523 11 25 11.4477 25 12V16C25 17.6961 24.5308 19.2826 23.7152 20.6369Z" fill="black"/>
<path d="M6.20711 4.54302C5.81658 4.15249 5.18342 4.15249 4.79289 4.54302C4.40237 4.93354 4.40237 5.5667 4.79289 5.95723L25.7929 26.9572C26.1834 27.3478 26.8166 27.3478 27.2071 26.9572C27.5976 26.5667 27.5976 25.9335 27.2071 25.543L6.20711 4.54302Z" fill="black"/>
</g>
</svg>
