<svg width="32" height="32" viewBox="0 0 32 32" fill="none" xmlns="http://www.w3.org/2000/svg">
<g opacity="0.9">
<path d="M10 11.8714V16C10 19.3137 12.6863 22 16 22C17.1777 22 18.2762 21.6607 19.203 21.0744L18.4744 20.3458C17.7448 20.7621 16.9002 21 16 21C13.2386 21 11 18.7614 11 16V12.8714L10 11.8714Z" fill="black"/>
<path d="M20.5271 18.1253C20.8305 17.4803 21 16.76 21 16V10C21 7.23858 18.7614 5 16 5C13.6627 5 11.6999 6.60378 11.1522 8.77093L10.3514 7.97192C11.183 5.65621 13.3981 4 16 4C19.3137 4 22 6.68629 22 10V16C22 17.0388 21.736 18.016 21.2714 18.868L20.5271 18.1253Z" fill="black"/>
<path d="M19.9253 21.7967C18.8058 22.5562 17.4547 23 16 23C12.134 23 9 19.866 9 16V13C9 12.7239 8.77614 12.5 8.5 12.5C8.22386 12.5 8 12.7239 8 13V16C8 20.2504 11.3148 23.7267 15.5002 23.9846L15.5 24V28.5C15.5 28.7761 15.7239 29 16 29C16.2761 29 16.5 28.7761 16.5 28.5V24L16.4998 23.9846C18.0394 23.8897 19.4613 23.3593 20.6437 22.5151L19.9253 21.7967Z" fill="black"/>
<path d="M22.7314 20.3248L22.0047 19.5997C22.6366 18.5479 23 17.3164 23 16V13C23 12.7239 23.2239 12.5 23.5 12.5C23.7761 12.5 24 12.7239 24 13V16C24 17.5933 23.5342 19.0778 22.7314 20.3248Z" fill="black"/>
<path d="M5.85355 4.89657C5.65829 4.70131 5.34171 4.70131 5.14645 4.89657C4.95118 5.09183 4.95118 5.40841 5.14645 5.60368L26.1464 26.6037C26.3417 26.7989 26.6583 26.7989 26.8536 26.6037C27.0488 26.4084 27.0488 26.0918 26.8536 25.8966L25.5 24.5L5.85355 4.89657Z" fill="black"/>
</g>
</svg>
