<svg width="24" height="24" viewBox="0 0 24 24" fill="none" xmlns="http://www.w3.org/2000/svg">
<g opacity="0.9">
<path fill-rule="evenodd" clip-rule="evenodd" d="M13 4.50001C13 4.30311 12.8844 4.12455 12.7048 4.04389C12.5252 3.96323 12.315 3.99549 12.1678 4.1263L7.8099 8.00001H4.5C3.67157 8.00001 3 8.67158 3 9.50001V14.5C3 15.3284 3.67157 16 4.5 16H7.8099L12.1678 19.8737C12.315 20.0045 12.5252 20.0368 12.7048 19.9561C12.8844 19.8755 13 19.6969 13 19.5V4.50001ZM8.33218 8.87371L12 5.61343V18.3866L8.33218 15.1263C8.24066 15.0449 8.12246 15 8 15H4.5C4.22386 15 4 14.7762 4 14.5V9.50001C4 9.22387 4.22386 9.00001 4.5 9.00001H8C8.12246 9.00001 8.24066 8.95507 8.33218 8.87371Z" fill="black"/>
<path d="M14.9371 7.25727C14.803 7.01588 14.4986 6.92891 14.2572 7.06301C14.0158 7.19712 13.9288 7.50152 14.0629 7.74291C14.676 8.84639 15 10.4054 15 12.0001C15 13.5948 14.676 15.1538 14.0629 16.2573C13.9288 16.4987 14.0158 16.8031 14.2572 16.9372C14.4986 17.0713 14.803 16.9843 14.9371 16.7429C15.6574 15.4464 16 13.7054 16 12.0001C16 10.2948 15.6574 8.55379 14.9371 7.25727Z" fill="black"/>
</g>
</svg>
