<svg width="16" height="16" viewBox="0 0 16 16" fill="none" xmlns="http://www.w3.org/2000/svg">
<g opacity="0.9">
<path fill-rule="evenodd" clip-rule="evenodd" d="M9 3.00001C9 2.806 8.88777 2.6295 8.71208 2.54721C8.53639 2.46492 8.32895 2.49169 8.17991 2.6159L5.31897 5.00001H3.5C2.67157 5.00001 2 5.67158 2 6.50001V9.50001C2 10.3284 2.67157 11 3.5 11H5.31898L8.17991 13.3841C8.32895 13.5083 8.53639 13.5351 8.71208 13.4528C8.88777 13.3705 9 13.194 9 13V3.00001ZM5.82009 5.88412L8 4.06753V11.9325L5.82009 10.1159C5.73023 10.041 5.61697 10 5.5 10H3.5C3.22386 10 3 9.77615 3 9.50001V6.50001C3 6.22386 3.22386 6.00001 3.5 6.00001H5.5C5.61697 6.00001 5.73023 5.959 5.82009 5.88412Z" fill="black"/>
<path d="M10.916 5.2227C10.7628 4.99294 10.4524 4.93085 10.2226 5.08403C9.99288 5.2372 9.93079 5.54764 10.084 5.7774C10.972 7.10945 10.972 8.89065 10.084 10.2227C9.93079 10.4525 9.99288 10.7629 10.2226 10.9161C10.4524 11.0693 10.7628 11.0072 10.916 10.7774C12.028 9.10945 12.028 6.89065 10.916 5.2227Z" fill="black"/>
</g>
</svg>
