<svg width="16" height="16" viewBox="0 0 16 16" fill="none" xmlns="http://www.w3.org/2000/svg">
<g opacity="0.9">
<path d="M8.71208 2.54721C8.88777 2.6295 9 2.806 9 3.00001V13C9 13.194 8.88777 13.3705 8.71208 13.4528C8.53639 13.5351 8.32895 13.5083 8.17991 13.3841L5.31898 11H3.5C2.67157 11 2 10.3284 2 9.50001V6.50001C2 5.67158 2.67157 5.00001 3.5 5.00001H5.31897L8.17991 2.6159C8.32895 2.49169 8.53639 2.46492 8.71208 2.54721Z" fill="black"/>
<path d="M10.916 5.2227C10.7628 4.99294 10.4524 4.93085 10.2226 5.08403C9.99288 5.2372 9.93079 5.54764 10.084 5.7774C10.972 7.10945 10.972 8.89065 10.084 10.2227C9.93079 10.4525 9.99288 10.7629 10.2226 10.9161C10.4524 11.0693 10.7628 11.0072 10.916 10.7774C12.028 9.10945 12.028 6.89065 10.916 5.2227Z" fill="black"/>
</g>
</svg>
