<svg width="24" height="24" viewBox="0 0 24 24" fill="none" xmlns="http://www.w3.org/2000/svg">
<g opacity="0.9">
<path fill-rule="evenodd" clip-rule="evenodd" d="M5.5 1C4.11929 1 3 2.11929 3 3.5V20.5C3 21.8807 4.11929 23 5.5 23H18C15.7909 23 14 21.2091 14 19C14 16.7909 15.7909 15 18 15C19.1947 15 20.2671 15.5238 21 16.3542V6.57081L15.4098 1H5.5ZM20 7L15 2V5C15 6.10457 15.8954 7 17 7H20ZM10 6.5C10 5.67157 10.6716 5 11.5 5C12.3284 5 13 5.67157 13 6.5V13.5C13 13.7761 12.7761 14 12.5 14H10.5C10.2239 14 10 13.7761 10 13.5V6.5ZM6 8.5C6 7.67157 6.67157 7 7.5 7C8.32843 7 9 7.67157 9 8.5V13.5C9 13.7761 8.77614 14 8.5 14H6.5C6.22386 14 6 13.7761 6 13.5V8.5ZM14 10.5C14 9.67157 14.6716 9 15.5 9C16.3284 9 17 9.67157 17 10.5V13.5C17 13.7761 16.7761 14 16.5 14H14.5C14.2239 14 14 13.7761 14 13.5V10.5Z" fill="black"/>
<path d="M18 16C16.3431 16 15 17.3431 15 19C15 20.6569 16.3431 22 18 22C18.6479 22 19.2478 21.7946 19.7382 21.4454L21.1464 22.8537C21.3417 23.0489 21.6583 23.0489 21.8535 22.8537C22.0488 22.6584 22.0488 22.3418 21.8535 22.1466L20.4453 20.7383C20.7946 20.2479 21 19.6479 21 19C21 17.3431 19.6569 16 18 16Z" fill="black"/>
</g>
</svg>
