<svg width="24" height="24" viewBox="0 0 24 24" fill="none" xmlns="http://www.w3.org/2000/svg">
<g opacity="0.9">
<path fill-rule="evenodd" clip-rule="evenodd" d="M12.1678 7.1263C12.3742 6.94284 12.6902 6.96143 12.8737 7.16782L16.8737 11.6678C17.0421 11.8573 17.0421 12.1427 16.8737 12.3322L12.8737 16.8322C12.6902 17.0386 12.3742 17.0572 12.1678 16.8737C11.9614 16.6902 11.9428 16.3742 12.1263 16.1678L15.831 12L12.1263 7.83218C11.9428 7.62579 11.9614 7.30975 12.1678 7.1263Z" fill="black"/>
<path fill-rule="evenodd" clip-rule="evenodd" d="M8.16782 7.1263C8.37421 6.94284 8.69025 6.96143 8.8737 7.16782L12.8737 11.6678C13.0421 11.8573 13.0421 12.1427 12.8737 12.3322L8.8737 16.8322C8.69025 17.0386 8.37421 17.0572 8.16782 16.8737C7.96143 16.6902 7.94284 16.3742 8.1263 16.1678L11.831 12L8.1263 7.83218C7.94284 7.62579 7.96143 7.30975 8.16782 7.1263Z" fill="black"/>
<path fill-rule="evenodd" clip-rule="evenodd" d="M12 3C7.02944 3 3 7.02944 3 12C3 16.9706 7.02944 21 12 21C16.9706 21 21 16.9706 21 12C21 7.02944 16.9706 3 12 3ZM2 12C2 6.47715 6.47715 2 12 2C17.5228 2 22 6.47715 22 12C22 17.5228 17.5228 22 12 22C6.47715 22 2 17.5228 2 12Z" fill="black"/>
</g>
</svg>
