<svg width="16" height="16" viewBox="0 0 16 16" fill="none" xmlns="http://www.w3.org/2000/svg">
<path opacity="0.9" fill-rule="evenodd" clip-rule="evenodd" d="M8 1C4.13401 1 1 4.13401 1 8C1 11.866 4.13401 15 8 15C11.866 15 15 11.866 15 8C15 4.13401 11.866 1 8 1ZM8.17991 4.61589C8.39205 4.43911 8.70733 4.46777 8.88411 4.67991L11.3841 7.67991C11.5386 7.86533 11.5386 8.13467 11.3841 8.32009L8.88411 11.3201C8.70733 11.5322 8.39205 11.5609 8.17991 11.3841C7.96777 11.2073 7.93911 10.892 8.11589 10.6799L10.3491 8L8.11589 5.32009C7.93911 5.10795 7.96777 4.79267 8.17991 4.61589ZM5.88411 4.67991C5.70733 4.46777 5.39205 4.43911 5.17991 4.61589C4.96777 4.79267 4.93911 5.10795 5.11589 5.32009L7.34915 8L5.11589 10.6799C4.93911 10.892 4.96777 11.2073 5.17991 11.3841C5.39205 11.5609 5.70733 11.5322 5.88411 11.3201L8.38411 8.32009C8.53863 8.13467 8.53863 7.86533 8.38411 7.67991L5.88411 4.67991Z" fill="black"/>
</svg>
