<svg width="16" height="16" viewBox="0 0 16 16" fill="none" xmlns="http://www.w3.org/2000/svg">
<g opacity="0.9">
<path d="M5.17992 4.6159C5.39206 4.43912 5.70734 4.46778 5.88412 4.67992L8.38412 7.67992C8.53864 7.86534 8.53864 8.13468 8.38412 8.3201L5.88412 11.3201C5.70734 11.5322 5.39206 11.5609 5.17992 11.3841C4.96778 11.2073 4.93912 10.8921 5.1159 10.6799L7.34916 8.00001L5.1159 5.3201C4.93912 5.10797 4.96778 4.79268 5.17992 4.6159Z" fill="black"/>
<path d="M8.17992 4.6159C8.39206 4.43912 8.70734 4.46778 8.88412 4.67992L11.3841 7.67992C11.5386 7.86534 11.5386 8.13468 11.3841 8.3201L8.88412 11.3201C8.70734 11.5322 8.39206 11.5609 8.17992 11.3841C7.96778 11.2073 7.93912 10.8921 8.1159 10.6799L10.3492 8.00001L8.1159 5.3201C7.93912 5.10797 7.96778 4.79268 8.17992 4.6159Z" fill="black"/>
<path fill-rule="evenodd" clip-rule="evenodd" d="M8 1C4.13401 1 1 4.13401 1 8C1 11.866 4.13401 15 8 15C11.866 15 15 11.866 15 8C15 4.13401 11.866 1 8 1ZM2 8C2 4.68629 4.68629 2 8 2C11.3137 2 14 4.68629 14 8C14 11.3137 11.3137 14 8 14C4.68629 14 2 11.3137 2 8Z" fill="black"/>
</g>
</svg>
