<svg width="32" height="32" viewBox="0 0 32 32" fill="none" xmlns="http://www.w3.org/2000/svg">
<g opacity="0.9">
<path fill-rule="evenodd" clip-rule="evenodd" d="M8 10.5C8 9.67157 8.67157 9 9.5 9H22.5C23.3284 9 24 9.67157 24 10.5V14.5C24 18.6421 20.6421 22 16.5 22H15.5C11.3579 22 8 18.6421 8 14.5V10.5ZM9.5 10C9.22386 10 9 10.2239 9 10.5V14.5C9 18.0899 11.9101 21 15.5 21H16.5C20.0899 21 23 18.0899 23 14.5V10.5C23 10.2239 22.7761 10 22.5 10H9.5Z" fill="black"/>
<path fill-rule="evenodd" clip-rule="evenodd" d="M11.5 4C11.7761 4 12 4.22386 12 4.5L12 9.5C12 9.77614 11.7761 10 11.5 10C11.2239 10 11 9.77614 11 9.5L11 4.5C11 4.22386 11.2239 4 11.5 4Z" fill="black"/>
<path fill-rule="evenodd" clip-rule="evenodd" d="M20.5 4C20.7761 4 21 4.22386 21 4.5V9.5C21 9.77614 20.7761 10 20.5 10C20.2239 10 20 9.77614 20 9.5V4.5C20 4.22386 20.2239 4 20.5 4Z" fill="black"/>
<path fill-rule="evenodd" clip-rule="evenodd" d="M18 21.5V26.5C18 27.3284 17.3284 28 16.5 28H15.5C14.6716 28 14 27.3284 14 26.5L14 21.5C14 21.2239 14.2239 21 14.5 21H17.5C17.7761 21 18 21.2239 18 21.5ZM17 22H15V26.5C15 26.7761 15.2239 27 15.5 27H16.5C16.7761 27 17 26.7761 17 26.5V22Z" fill="black"/>
<path fill-rule="evenodd" clip-rule="evenodd" d="M25.5424 20.0001L27.2807 21.7384C27.3962 21.8539 27.448 22.0185 27.4195 22.1793L26.9923 24.5873C26.9557 24.7939 26.7939 24.9557 26.5873 24.9923L24.1793 25.4195C24.0185 25.448 23.8539 25.3962 23.7384 25.2807L22.0001 23.5424C22.0083 24.4301 22.3512 25.3145 23.0279 25.9912C23.946 26.9093 25.2466 27.2131 26.4189 26.9C26.5913 26.854 26.7752 26.9033 26.9014 27.0295L28.4312 28.5593C29.0188 29.1469 29.9716 29.1469 30.5593 28.5593C31.1469 27.9716 31.1469 27.0188 30.5593 26.4312L29.0295 24.9014C28.9033 24.7752 28.854 24.5913 28.9 24.4189C29.2131 23.2466 28.9093 21.946 27.9912 21.0279C27.3145 20.3512 26.4301 20.0083 25.5424 20.0001ZM24.3423 19.153C25.8453 18.7516 27.5176 19.1401 28.6983 20.3208C29.8045 21.427 30.2153 22.9647 29.9327 24.3904L31.2664 25.7241C32.2445 26.7022 32.2445 28.2882 31.2664 29.2664C30.2882 30.2445 28.7022 30.2445 27.7241 29.2664L26.3904 27.9327C24.9647 28.2153 23.427 27.8045 22.3208 26.6983C21.1401 25.5176 20.7516 23.8453 21.153 22.3423C21.1991 22.1696 21.3339 22.0347 21.5065 21.9884C21.6791 21.942 21.8633 21.9914 21.9896 22.1177L24.2612 24.3893L26.0687 24.0687L26.3893 22.2612L24.1177 19.9896C23.9914 19.8633 23.942 19.6791 23.9884 19.5065C24.0347 19.3339 24.1696 19.1991 24.3423 19.153Z" fill="black"/>
</g>
</svg>
