<svg width="24" height="24" viewBox="0 0 24 24" fill="none" xmlns="http://www.w3.org/2000/svg">
<g opacity="0.9">
<path d="M8.5 2C8.77614 2 9 2.22386 9 2.5L9 6H15V2.5C15 2.22386 15.2239 2 15.5 2C15.7761 2 16 2.22386 16 2.5V6H17.5C18.3284 6 19 6.67157 19 7.5V11.5C19 12.0163 18.9398 12.5185 18.8261 13H17C14.7909 13 13 14.7909 13 17V21C13 21.5523 12.5523 22 12 22C11.4477 22 11 21.5523 11 21L11 17.9811C7.64378 17.7257 5 14.9216 5 11.5V7.5C5 6.67157 5.67157 6 6.5 6H8L8 2.5C8 2.22386 8.22386 2 8.5 2Z" fill="black"/>
<path d="M18.5383 20.8065C17.4682 21.0922 16.279 20.8154 15.4395 19.9758C14.6 19.1363 14.3231 17.9472 14.6089 16.877L16.5736 18.8417L18.8417 16.5736L16.877 14.6089C17.9472 14.3231 19.1363 14.6 19.9758 15.4395C20.8154 16.279 21.0922 17.4682 20.8065 18.5383L22.0302 19.7621C22.6566 20.3884 22.6566 21.4039 22.0302 22.0302C21.4039 22.6566 20.3884 22.6566 19.7621 22.0302L18.5383 20.8065Z" fill="black"/>
</g>
</svg>
